<svg width="141" height="142" fill="none" xmlns="http://www.w3.org/2000/svg"><path d="m102.026 112.085-9.734 6.428-5.16-6.751-2.666-4.317 17.957 3.996-.397.644Z" fill="#262C20"/><path d="M89.735 119.162c-2.996-3.579-5.288-7.968-7.722-11.955-.68-1.114.979-2.249 1.841-1.315a46.825 46.825 0 0 1 8.397 12.933l-1.496-.454 6.135-3.729c1.83-1.109 3.747-2.679 5.818-3.23a.963.963 0 0 1 1.031.49.96.96 0 0 1-.166 1.131c-1.45 1.575-3.779 2.544-5.61 3.643l-6.155 3.689a1.123 1.123 0 0 1-1.496-.454 44.653 44.653 0 0 0-8.087-12.457l1.841-1.315c2.303 3.968 5.028 8.029 6.717 12.302.237.609-.518 1.316-1.015.724l-.033-.003Z" fill="#F2F6E6"/><path d="M82.844 106.059c3.72.765 7.441 1.521 11.166 2.266l5.4 1.064c1.717.325 3.64.403 5.19 1.229a.849.849 0 0 1 .377.853.857.857 0 0 1-.627.69c-1.614.212-3.214-.316-4.806-.643a171.344 171.344 0 0 1-5.717-1.269 151.416 151.416 0 0 1-11.263-3.216.51.51 0 0 1-.33-.623.503.503 0 0 1 .61-.351Z" fill="#F2F6E6"/><path d="M43.027 18.466c32.59 6.655 24.945 47.07 24.945 47.07 23.418 1.122 34.939 24.255 23.334 53.72" stroke="#F2F6E6" stroke-width="4" stroke-linecap="round" stroke-dasharray="13 13"/></svg>