<svg aria-hidden="true" style="width: 0; height: 0; position: absolute; overflow: hidden" version="1.1" xmlns="http://www.w3.org/2000/svg" xmlns:xlink="http://www.w3.org/1999/xlink">
<defs>
<symbol id="icon-arrow" viewBox="0 0 32 32">
<path style="fill: var(--color1, #262c20)" d="M22.992 25.259l-2.194 1.449-1.163-1.521-0.601-0.973 4.047 0.901-0.089 0.145z"></path>
<path style="fill: var(--color2, #f2f6e6)" d="M20.222 26.853c-0.675-0.807-1.192-1.796-1.74-2.694-0.153-0.251 0.221-0.507 0.415-0.296 0.787 0.86 1.427 1.845 1.892 2.914l-0.337-0.102 1.382-0.84c0.412-0.25 0.844-0.604 1.311-0.728 0.046-0.009 0.093-0.003 0.134 0.017s0.076 0.053 0.098 0.094 0.030 0.088 0.023 0.134c-0.007 0.046-0.028 0.088-0.061 0.121-0.327 0.355-0.852 0.573-1.264 0.821l-1.387 0.831c-0.058 0.030-0.126 0.036-0.189 0.017s-0.116-0.062-0.148-0.119c-0.447-1.031-1.063-1.98-1.822-2.807l0.415-0.296c0.519 0.894 1.133 1.809 1.514 2.772 0.053 0.137-0.117 0.297-0.229 0.163l-0.008-0.001z"></path>
<path style="fill: var(--color2, #f2f6e6)" d="M18.669 23.901c0.838 0.172 1.677 0.343 2.516 0.511l1.217 0.24c0.387 0.073 0.82 0.091 1.17 0.277 0.031 0.020 0.056 0.049 0.071 0.084s0.020 0.072 0.014 0.109c-0.006 0.037-0.023 0.071-0.048 0.099s-0.057 0.047-0.094 0.057c-0.364 0.048-0.724-0.071-1.083-0.145-0.429-0.089-0.86-0.182-1.288-0.286-0.856-0.209-1.702-0.45-2.538-0.725-0.028-0.009-0.052-0.029-0.066-0.055s-0.017-0.057-0.009-0.085c0.008-0.029 0.027-0.053 0.053-0.067s0.056-0.019 0.085-0.012z"></path>
<path stroke="#f2f6e6" style="stroke: var(--color2, #f2f6e6)" stroke-linejoin="miter" stroke-linecap="round" stroke-miterlimit="4" stroke-width="0.9014" d="M9.696 4.161c7.344 1.5 5.622 10.607 5.622 10.607 5.277 0.253 7.874 5.466 5.258 12.106"></path>
</symbol>
<symbol id="icon-btnSlider_2" viewBox="0 0 32 32">
<path d="M30.565 17.075c-0.625 8.179-7.763 14.303-15.942 13.678s-14.303-7.763-13.678-15.942c0.625-8.179 7.763-14.303 15.942-13.678s14.303 7.763 13.678 15.942z"></path>
<path fill="none" stroke="#262c20" style="stroke: var(--color1, #262c20)" stroke-linejoin="miter" stroke-linecap="butt" stroke-miterlimit="4" stroke-width="1.9804" d="M29.578 16.999c-0.584 7.634-7.245 13.349-14.88 12.766s-13.349-7.245-12.766-14.88c0.584-7.634 7.245-13.349 14.88-12.766s13.349 7.245 12.766 14.88z"></path>
<path style="fill: var(--color1, #262c20)" d="M13.899 11.743c0.105 0.052 0.171 0.159 0.171 0.276v2.422l9.357 1.462c0.15 0.023 0.261 0.153 0.261 0.305v0.002c-0.001 0.153-0.114 0.282-0.266 0.303l-9.353 1.315v2.568c0 0.17-0.138 0.308-0.308 0.308-0.067 0-0.132-0.022-0.185-0.062l-5.557-4.189c-0.136-0.102-0.164-0.296-0.062-0.432 0.018-0.023 0.038-0.044 0.062-0.062l5.557-4.189c0.093-0.070 0.218-0.081 0.323-0.029z"></path>
</symbol>
</defs>
</svg>
