<svg width="77" height="77" xmlns="http://www.w3.org/2000/svg"><g filter="url('#a')" transform="rotate(4.372 37.912 38.361)"><circle cx="37.912" cy="38.361" r="35.74"></circle><circle cx="37.912" cy="38.361" r="33.358" stroke="#262C20" stroke-width="4.765"></circle></g><g clip-path="url('#b')"><path d="M33.444 28.257a.742.742 0 0 1 .412.664v5.829l22.516 3.517A.742.742 0 0 1 57 39v.006a.742.742 0 0 1-.639.729l-22.505 3.164v6.18a.742.742 0 0 1-1.188.594l-13.371-10.08a.742.742 0 0 1 0-1.187l13.371-10.08a.742.742 0 0 1 .776-.069z" fill="#262C20"></path></g><defs><clipPath id="b"><path fill="#fff" transform="matrix(0 -1 -1 0 57 58)" d="M0 0h38v38H0z"></path></clipPath><filter id="a" x="2.17" y="2.619" width="73.484" height="73.484" filterUnits="userSpaceOnUse" color-interpolation-filters="sRGB"><feFlood flood-opacity="0" result="BackgroundImageFix"></feFlood><feColorMatrix in="SourceAlpha" values="0 0 0 0 0 0 0 0 0 0 0 0 0 0 0 0 0 0 127 0" result="hardAlpha"></feColorMatrix><feOffset dx="2" dy="2"></feOffset><feComposite in2="hardAlpha" operator="out"></feComposite><feColorMatrix values="0 0 0 0 0.14902 0 0 0 0 0.172549 0 0 0 0 0.12549 0 0 0 1 0"></feColorMatrix><feBlend in2="BackgroundImageFix" result="effect1_dropShadow_202_69"></feBlend><feBlend in="SourceGraphic" in2="effect1_dropShadow_202_69" result="shape"></feBlend></filter></defs></svg>