<svg width="280" height="240" fill="none" xmlns="http://www.w3.org/2000/svg"><g clip-path="url('#a')"><path d="m115.257 132.428-.417.934 2.444 1.055.385-.946-2.412-1.043ZM111.694 130.78l-.446.924 2.406 1.122.429-.93-2.389-1.116ZM108.169 129.035l-.462.912 2.373 1.186.453-.917-2.364-1.181ZM104.693 127.214l-.488.901 2.344 1.241.472-.907-2.328-1.235ZM101.261 125.296l-.507.892s.574.327 1.148.657c.581.324 1.161.638 1.161.638l.497-.891-1.154-.636c-.574-.333-1.145-.66-1.145-.66ZM97.88 123.298l-.532.875 2.277 1.36.517-.879-2.262-1.356ZM94.557 121.21l-.56.853 2.24 1.424.543-.866-2.223-1.411ZM91.307 119.003l-.586.841 2.193 1.494.57-.846-2.177-1.489ZM88.144 116.688l-.619.814s.526.404 1.059.808l1.078.773.596-.831-1.068-.769-1.046-.795ZM85.079 114.243l-.651.79s.51.429 1.02.85a26.19 26.19 0 0 0 1.045.824l.632-.805s-.532-.388-1.036-.815l-1.01-.844ZM82.134 111.668l-.697.754 1.983 1.777.67-.776-1.956-1.755ZM79.34 108.935l-.744.709 1.885 1.889.712-.74-1.854-1.858ZM76.752 106.014l-.792.647c-.039.039 1.757 2.015 1.757 2.015l.757-.687s-1.764-1.94-1.722-1.975ZM74.44 102.89l-.85.568s.369.558.744 1.116c.41.529.824 1.055.824 1.055l.809-.622-.802-1.033c-.366-.542-.725-1.084-.725-1.084ZM72.452 99.56l-.911.466s1.264 2.379 1.322 2.338l.869-.539c-.061.035-1.28-2.264-1.28-2.264ZM70.914 96.02l-.969.334c-.051.019 1.014 2.495 1.017 2.495l.927-.427s-1.027-2.386-.975-2.402ZM70.009 92.283l-1.007.158.205 1.34.372 1.296.985-.276-.36-1.238a93.066 93.066 0 0 0-.195-1.28ZM69.765 88.464l-1.027-.045s.013.68.02 1.356c-.013.452.002.904.044 1.354l1.017-.093c-.04-.428-.053-.857-.042-1.286l-.012-1.286ZM70.316 84.673l-.994-.237a21.82 21.82 0 0 0-.459 2.665l1.017.109c.09-.854.236-1.702.436-2.537ZM71.586 81.052l-.936-.417-.552 1.234a9.456 9.456 0 0 0-.41 1.287l.98.304c.096-.42.225-.832.386-1.231.263-.587.532-1.177.532-1.177ZM73.422 77.662l-.866-.549-.703 1.145c-.176.289-.352.578-.484.789-.109.228-.18.385-.18.385l.911.462.174-.366c.128-.211.294-.484.468-.76.34-.555.68-1.106.68-1.106ZM75.708 74.538l-.79-.651-1.664 2.107.84.587 1.614-2.043ZM78.305 71.654l-.709-.734-1.854 1.944.77.68 1.793-1.89ZM81.249 69.137l-.62-.821s-.55.391-1.06.827l-1.005.898.687.757.968-.866c.498-.426 1.03-.795 1.03-.795ZM84.466 66.994l-.497-.898-1.148.706c-.58.352-1.135.728-1.135.728l.58.84s.539-.362 1.093-.696c.556-.343 1.107-.68 1.107-.68ZM87.982 65.416l-.347-.962s-.635.237-1.264.475c-.621.263-1.224.577-1.224.577l.452.924s.574-.308 1.17-.558c.603-.228 1.213-.456 1.213-.456ZM91.695 64.435l-.173-1.007a12.2 12.2 0 0 0-1.328.256l-1.305.353.292.982 1.244-.34c.419-.104.843-.185 1.27-.244ZM95.524 64.12l.007-1.023c-.007-.07-2.7.132-2.7.132l.115 1.013s2.572-.189 2.578-.121ZM99.358 64.46l.176-1.006c.007-.065-2.68-.334-2.68-.334l-.065 1.02s2.579.256 2.569.32ZM103.094 65.41l.327-.966c.019-.054-2.592-.744-2.592-.744l-.227.998s2.511.664 2.492.712ZM106.662 66.898l.458-.917s-.593-.308-1.218-.565c-.616-.275-1.238-.532-1.238-.532l-.369.956s.596.246 1.193.507c.603.246 1.174.551 1.174.551ZM110.008 68.845l.571-.85s-.551-.385-1.135-.718c-.571-.353-1.154-.687-1.154-.687l-.501.898s.568.321 1.123.661c.564.324 1.096.696 1.096.696ZM113.089 71.196l.673-.773s-.5-.452-1.039-.857c-.526-.416-1.061-.82-1.061-.82l-.603.824s.516.394 1.029.795c.523.395 1.001.83 1.001.83ZM115.857 73.906l.76-.683c-.288-.343-.594-.671-.917-.982-.478-.471-.956-.946-.956-.946l-.699.747s.462.456.924.918c.314.298.61.614.888.946ZM118.233 76.95l.85-.568-.77-1.107c-.416-.526-.83-1.058-.83-1.058l-.795.648s.403.513.804 1.02l.741 1.065ZM120.074 80.317l.943-.397s-.27-.623-.578-1.232a9.412 9.412 0 0 0-.654-1.187l-.879.523c.235.36.443.736.622 1.126.289.577.546 1.167.546 1.167ZM121.062 83.951l1.017-.093s-.106-.686-.215-1.366c-.186-.668-.372-1.325-.372-1.325l-.969.318.34 1.225c.097.622.199 1.241.199 1.241ZM120.451 87.495l.917.462.183-.375c.13-.312.237-.632.321-.96.096-.311.155-.633.176-.958l.052-.44-1.02-.06a7.771 7.771 0 0 1-.196 1.202 7.526 7.526 0 0 1-.247.76c-.109.222-.186.37-.186.37ZM118.477 90.734l.769.674s1.684-2.264 1.546-2.296l-.91-.456a16.234 16.234 0 0 1-1.405 2.078ZM115.525 92.928l.404.94a9.897 9.897 0 0 0 2.332-1.52l-.677-.77a8.553 8.553 0 0 1-2.059 1.35ZM111.958 93.374l-.153 1.01c.462.088.934.12 1.404.097.474-.026.945-.082 1.412-.167l-.235-.995c-.4.07-.803.115-1.209.135a5.333 5.333 0 0 1-1.219-.08ZM108.64 91.918l-.632.802 1.18.76c.407.232.837.421 1.283.564l.334-.965a6.025 6.025 0 0 1-1.123-.49l-1.042-.671ZM106.228 89.08l-.888.513s1.571 2.277 1.68 2.19l.738-.709c-.096.09-1.53-1.995-1.53-1.995ZM104.834 85.558l-.988.263s.199.648.397 1.302c.13.437.303.86.517 1.264l.927-.43c-.2-.375-.361-.77-.481-1.177l-.372-1.222ZM104.259 81.773l-1.023.058c-.01.452.029.904.116 1.347.102.674.208 1.344.208 1.344l1.004-.19s-.097-.637-.199-1.276a5.752 5.752 0 0 1-.106-1.283ZM104.356 77.918l-1.017-.096s-.058.674-.119 1.34a5 5 0 0 0-.029.924l.013.424 1.02-.004s-.006-.163-.012-.407a4.52 4.52 0 0 1 .031-.885c.058-.648.113-1.296.113-1.296ZM105.046 74.14l-.981-.273s-.161.658-.318 1.322c-.151.657-.324 1.318-.292 1.325l1.014.137c.071-.424.165-.843.282-1.257l.295-1.254ZM106.418 70.564l-.917-.458-1.062 2.488.963.344 1.016-2.374Z" fill="#F2F6E6"></path><path d="m108.413 67.274-.827-.607-1.434 2.29.885.513 1.376-2.196ZM110.927 64.335l-.734-.715c-.052-.051-1.761 2.037-1.761 2.037l.798.645s1.646-2.015 1.697-1.967ZM113.804 61.74l-.638-.801a25.228 25.228 0 0 0-2.008 1.79l.706.74.956-.882.654-.609c.199-.141.33-.237.33-.237ZM116.964 59.483l-.549-.863c-.045-.073-2.19 1.546-2.19 1.546l.609.818s2.081-1.572 2.13-1.501ZM120.343 57.565l-.455-.917c-.029-.052-2.339 1.315-2.335 1.315l.519.882s2.245-1.331 2.271-1.28ZM123.898 55.974l-.372-.956-2.444 1.094.429.927 2.387-1.065ZM127.592 54.736l-.282-.981-2.54.85.343.965 2.479-.834ZM131.38 53.841l-.195-1.004-2.611.597.257.991 2.549-.584ZM135.231 53.28l-.106-1.02-2.652.34.166 1.007 2.592-.327ZM139.118 53.056l-.019-1.02-2.675.064.076 1.02 2.618-.064ZM143.006 53.174l.077-1.02s-2.668-.234-2.672-.15l-.013 1.02c.004-.08 2.608.15 2.608.15ZM146.867 53.633l.166-1.007s-.654-.128-1.315-.253c-.664-.055-1.331-.113-1.331-.113l-.106 1.017 1.302.109c.642.125 1.284.247 1.284.247ZM150.678 54.428l.256-.987a25.502 25.502 0 0 0-2.61-.572l-.199 1.001c.86.141 1.712.327 2.553.558ZM154.395 55.58l.349-.96-2.553-.794-.295.98 2.499.773ZM157.96 57.126l.44-.92-2.445-1.085-.385.95 2.39 1.055ZM161.28 59.06l.596-.831s-.555-.382-1.106-.767l-1.162-.718-.487.898s.542.34 1.088.673c.532.372 1.071.745 1.071.745ZM164.243 61.53l.715-.732s-.497-.456-.994-.918l-1.036-.859-.635.802.997.83c.475.44.953.876.953.876ZM166.63 64.48l.879-.526a17.863 17.863 0 0 0-1.636-2.194l-.764.68c.559.64 1.068 1.322 1.521 2.04ZM167.817 67.93l1.02-.07c.199-.038-.597-2.758-.699-2.707l-.937.417c.096-.029.795 2.342.616 2.36ZM166.949 71.382l.873.526s.314-.635.625-1.27c.148-.453.263-.916.343-1.386l-1.013-.144a8.408 8.408 0 0 1-.289 1.17l-.539 1.104ZM164.396 73.813l.369.956a4.532 4.532 0 0 0 1.287-.738c.128-.11.25-.212.372-.314.111-.121.216-.247.314-.379.16-.202.272-.34.272-.34l-.792-.644s-.102.124-.243.304c-.064.084-.135.18-.219.28-.115.099-.243.208-.368.317-.294.245-.63.434-.992.558ZM160.837 73.89l-.247.99.426.088c.314.073.634.12.956.14.471.05.947.05 1.418 0l-.116-1.016a5.614 5.614 0 0 1-1.215-.003 5.198 5.198 0 0 1-.841-.122l-.381-.077ZM157.419 72.35l-.562.857c.777.487 1.594.909 2.441 1.26l.366-.956a14.894 14.894 0 0 1-2.245-1.16ZM154.559 69.868l-.77.674c.611.678 1.274 1.309 1.982 1.885l.635-.801a16.774 16.774 0 0 1-1.847-1.758ZM152.473 66.712l-.924.436c.402.821.872 1.608 1.405 2.351l.824-.606c-.494-.69-.93-1.42-1.305-2.18ZM151.364 63.107l-1.01.154c.146.901.372 1.788.676 2.65l.962-.347c-.28-.8-.49-1.621-.628-2.457ZM151.348 59.332l-1.014-.138a15.22 15.22 0 0 0-.118 2.733l1.026-.061a13.672 13.672 0 0 1 .106-2.534ZM152.33 55.66l-.949-.385s-.228.642-.459 1.283c-.199.648-.35 1.318-.35 1.318l.998.228s.138-.629.327-1.238c.218-.603.433-1.206.433-1.206Z" fill="#F2F6E6"></path><path d="m154.116 52.266-.86-.558s-.359.571-.692 1.161c-.233.388-.444.789-.632 1.2l.92.442c.176-.39.376-.77.6-1.135.318-.564.664-1.11.664-1.11ZM156.451 49.187l-.77-.673s-1.719 2.072-1.674 2.11l.834.597c-.052-.032 1.61-2.034 1.61-2.034ZM159.183 46.43l-.693-.758-.976.918c-.328.303-.641.625-.936.962l.744.705c.283-.329.585-.641.904-.936.482-.446.957-.892.957-.892ZM162.218 44.066l-.555-.863c-.054-.07-2.181 1.607-2.181 1.607l.658.782a24.715 24.715 0 0 1 2.078-1.526ZM165.618 42.302l-.372-.953s-2.489 1.087-2.451 1.164l.497.895s.138-.083.347-.205c.218-.096.513-.234.805-.366.584-.27 1.174-.535 1.174-.535ZM169.311 41.317l-.167-1.007-1.334.256a9.438 9.438 0 0 0-1.302.372l.305.982c.401-.15.814-.269 1.234-.353.632-.128 1.264-.25 1.264-.25ZM173.134 41.073l.032-1.023s-.677-.042-1.353-.016l-1.354.106.103 1.017 1.283-.103c.644-.02 1.289.02 1.289.02ZM176.951 41.522l.209-1.004c.013-.074-2.672-.407-2.672-.407l-.09 1.017s2.566.317 2.553.394ZM180.659 42.58l.362-.955s-2.556-.866-2.575-.812l-.257.991c.013-.057 2.47.777 2.47.777ZM184.167 44.21l.488-.898-1.194-.622a11.229 11.229 0 0 0-1.225-.552l-.404.937c.404.152.798.33 1.18.532l1.155.603ZM187.424 46.291l.606-.824s-.526-.417-1.094-.782l-1.138-.712-.532.872 1.103.693c.545.346 1.058.754 1.055.754ZM190.398 48.77l.706-.74s-.484-.465-1-.901c-.507-.437-1.017-.88-1.017-.88l-.642.803s.494.423.985.85c.497.42.968.869.968.869ZM193.02 51.619l.796-.642s-1.742-2.052-1.783-2.014l-.738.712c.042-.038 1.722 1.944 1.725 1.944ZM195.22 54.794l.879-.523s-.353-.574-.703-1.151c-.394-.545-.785-1.09-.785-1.09l-.828.602s.382.526.763 1.056c.334.554.674 1.106.674 1.106ZM196.946 58.242l.949-.385c.064-.03-1.135-2.447-1.135-2.447l-.905.48s1.155 2.323 1.091 2.352ZM198.109 61.908l.998-.218s-.68-2.618-.741-2.598l-.966.333c.058-.019.709 2.483.709 2.483ZM198.562 65.718l1.026-.026s-.045-.673-.083-1.353a5.969 5.969 0 0 0-.103-.924c-.044-.25-.07-.417-.07-.417l-1.014.157s.026.16.068.398c.059.29.094.585.102.882l.074 1.283ZM198.273 69.537l1.007.177s.129-.67.216-1.34c.035-.677.073-1.354.073-1.354l-1.02-.042s-.035.645-.067 1.286c-.106.635-.209 1.273-.209 1.273ZM197.246 73.223l.953.372c.324-.844.602-1.705.83-2.579l-.994-.244c-.217.831-.481 1.65-.789 2.45ZM195.514 76.648l.865.545a26.21 26.21 0 0 0 1.29-2.38l-.924-.43c-.37.776-.782 1.532-1.231 2.265ZM193.211 79.733l.77.67c.061.055 1.668-2.116 1.668-2.116l-.841-.587s-1.536 2.085-1.597 2.033ZM190.463 82.456l.676.77s.501-.449 1.004-.895c.237-.198.456-.414.658-.648l.285-.308-.741-.705-.272.295a4.803 4.803 0 0 1-.638.622c-.485.436-.972.87-.972.87ZM238.902 198.793a2.999 2.999 0 0 0 3.163 2.8h20.577a2.99 2.99 0 0 0 3.16-2.8V86.123a2.997 2.997 0 0 0-3.16-2.804h-20.577a3.001 3.001 0 0 0-3.163 2.803v112.671Z" fill="#F2F6E6"></path><path d="M262.642 202.17h-20.577a3.57 3.57 0 0 1-3.737-3.377V86.123a3.58 3.58 0 0 1 3.737-3.381h20.577a3.576 3.576 0 0 1 3.733 3.38v112.671a3.57 3.57 0 0 1-3.733 3.377ZM242.065 83.897a2.432 2.432 0 0 0-2.585 2.225v112.671a2.425 2.425 0 0 0 2.585 2.226h20.577a2.425 2.425 0 0 0 2.585-2.226V86.123a2.431 2.431 0 0 0-2.585-2.227h-20.577Z" fill="#262C20"></path><path d="M266.375 103.432h-28.047v-7.681h28.047v7.681Zm-26.895-1.151h25.747v-5.382H239.48v5.382ZM266.375 116.489h-28.047v-7.682h28.047v7.682Zm-26.895-1.155h25.747v-5.376H239.48v5.376ZM266.375 129.542h-28.047v-7.678h28.047v7.678Zm-26.895-1.154h25.747v-5.376H239.48v5.376Z" fill="#262C20"></path><path d="M161.017 116.168c3.176-2.746 7.217-10.661-4.175-15.068-4.141-1.61-11.367 1.77-17.656.366-4.346-.965 12.742-10.106 6.745-17.326 0 0-2.659-3.62-3.128-2.38-.458 1.241 1.671 4.705.325 5.863-1.351 1.161-20.431 12.553-16.864 18.772 3.563 6.219 28.31 15.373 34.753 9.773Z" fill="#FEA081"></path><path d="M157.958 118.452c4.632-.507 11.38-6.973 3.589-15.565-2.402-2.656-6.007-3.031-13.044-1.915 0 0-9.942 2.036-9.298-.484.472-1.85 5.623-5.68 7.576-8.862a7.462 7.462 0 0 0-4.702-3.83s-19.022 10.517-16.058 19.061c2.148 6.213 20.776 12.826 31.937 11.595Z" fill="#262C20"></path><path d="M162.474 121.89s-11.207 5.041-30.229.096c-19.028-4.949-23.772-16.229-32.525-11.412-.949.52-2.444 3.002-3.406 2.682-.955-.321.305-7.595 5.129-8.32 0 0 10.311-1.757 23.586 2.528 16.168 5.227 30.969-8.93 38.869 4.143 1.411 2.342 3.13 5.478-1.424 10.283Z" fill="#FEA081"></path><path d="M158.33 103.198s-21.543 5.92-27.094 4.583c-5.549-1.331-18.763-4.59-24.276-3.826a6.38 6.38 0 0 0-1.479 6.395s17.73 9.91 21.184 10.751c3.461.843 11.132 2.841 19.651 3.079 40.011 1.109 12.014-20.982 12.014-20.982Z" fill="#274128"></path><path d="M105.185 107.618c-.014.24.013.481.081.712 7.258 3.746 15.273 5.849 22.152 7.793 5.831 1.655 12.464 3.525 19.103 4.432 7.261.995 13.826.671 19.519-.942a.213.213 0 0 0 .141-.257.227.227 0 0 0-.26-.167c-5.622 1.604-12.145 1.931-19.343.95-6.62-.905-13.233-2.775-19.06-4.426-6.941-1.976-15.02-4.273-22.333-8.095Z" fill="#F2F6E6"></path><path d="M152.377 104.914a38.92 38.92 0 0 0 9.885 17.752s5.388-1.501 5.462-4.753c.073-3.252-15.347-12.999-15.347-12.999ZM191.461 76.712c-1.572-2.768-8.192-8.169-15.373-.343-1.568 1.713-3.557 4.923-7.861 4.968-3.027.032-10.43 3.028-7.091 11.94 3.339 8.914-6.264 7.753-1.408 12.031 13.015 11.456 19.888 4.099 25.812-3.637 9.327-12.165 9.083-19.384 5.921-24.959Z" fill="#262C20"></path><path d="M182.372 95.5s-.433-5.24 1.549-6.296c1.979-1.051.385 4.664 3.419 7.935 3.028 3.275 20.61 19.728 13.955 22.634-6.658 2.899-17.755-14.385-18.923-24.273Z" fill="#EF8867"></path><path d="M181.66 94.59c1.402-1.373 5.426-2.576 9.32 2.017a38.163 38.163 0 0 1 4.144 6.036s-2.614 6.661-8.846 7.245c0 0-9.868-10.167-4.618-15.298Z" fill="#D69F21"></path><path d="M168.817 120.225c7.762-2.309 21.232-8.624 21.774-16.386.568-8.236-3.101-9.961-6.854-12.072-4.054-2.27-7.793-4.763-14.833 2.74-4.911 5.233-7.537 3.325-14.398 5.04-.179.04-.34.078-.519.107a.092.092 0 0 0-.007-.016s0 .016.007.016c-8.083.85 8.092 22.576 14.83 20.571Z" fill="#FFC01D"></path><path d="M182.173 83.335s-.193 5.097-2.175 6.918c-1.264 1.168 5.966 5.953 6.215 4.067.315-2.415-.724-4.176 1.405-6.514l-5.445-4.47Z" fill="#EF8867"></path><path d="M190.677 78.066c.853 2.803.475 14.003-4.714 13.49-2.345-.228-5.43-4.074-5.696-8.711-.109-1.912 1.635-4.959 4.541-6.765 1.318-.817 4.894-1.282 5.869 1.986Z" fill="#FEA081"></path><path d="M191.652 82.427c-.397 1.22-1.449-3.99-3.313-1.956-1.943 2.136-4.281.164-6.918 4.487-1.802 2.948-2.572-4.288-2.623-4.833-.212-2.332-.212-2.332 3.585-5.119 3.798-2.803 11.284 1.321 9.269 7.421Z" fill="#262C20"></path><path d="M192.087 90.212s1.677-4.981 3.909-5.164c2.239-.183-1.488 4.43-.006 8.637 1.488 4.215 11.106 26.287 3.845 26.316-7.258.029-10.6-20.241-7.748-29.79Z" fill="#FEA081"></path><path d="M170.139 105.764s.519 8.03 2.87 13.015l.888-.353-1.273-10.379-2.485-2.283Z" fill="#262C20"></path><path d="M172.499 96.235c1.716 4.118 12.547 25.629 5.295 26.056-7.248.429-7.014-30.171-5.295-26.056Z" fill="#EF8867"></path><path d="M175.719 91.972c1.963-.09 5.76 1.7 5.6 7.717a38.035 38.035 0 0 1-.943 7.268s-6.389 3.213-11.424-.507c0 0-.571-14.157 6.767-14.478Z" fill="#D69F21"></path><path d="M182.621 89.07s-2.543-5.103-4.978-4.968c-2.431.134 2.265 4.548 1.29 9.288-.969 4.747-8.018 29.93-.206 28.878 7.817-1.058 8.378-23.355 3.894-33.198Z" fill="#FEA081"></path><path d="M53.721 201.404c-14.163-1.232-14.823-9.5-14.846-9.849-.003-6.175-3.788-9.093-7.45-11.916-3.676-2.835-7.143-5.51-6.373-11.02.799-5.676.709-12.79-7.13-17.434-3.714-2.207-9.298-7.518-9.49-11.922a4.52 4.52 0 0 1 2.043-4.057c3.47-2.495 6.215-.551 10.01 2.133 2.69 1.902 6.039 4.275 10.757 5.898 8.073 2.774 9.698 8.801 11.132 14.119.674 2.485 1.309 4.839 2.508 6.85 3.682 6.158 14.641 3.207 14.75 3.175l.312 1.11c-.488.132-11.922 3.207-16.05-3.695-1.282-2.149-1.969-4.689-2.63-7.142-1.43-5.286-2.899-10.754-10.398-13.333-4.871-1.674-8.293-4.092-11.045-6.042-3.663-2.592-5.876-4.157-8.679-2.136a3.396 3.396 0 0 0-1.559 3.066c.164 3.759 5.382 8.884 8.923 10.981 9.506 5.636 8.185 15.049 7.684 18.59-.68 4.846 2.387 7.21 5.934 9.942 3.704 2.855 7.902 6.091 7.902 12.8.02.273.677 7.598 13.792 8.734l-.097 1.148Z" fill="#262C20"></path><path d="M61.323 199.832c-1.354 0-5.128-.25-7.742-2.835-1.883-1.867-2.74-4.535-2.54-7.922.628-10.783-1.88-15.645-11.181-21.687-8.66-5.622-11.395-11.983-9.154-21.264.821-3.381-1.885-6.033-4.746-8.846-3.413-3.348-6.94-6.812-4.754-11.825 3.971-9.118-1.385-17.624-3.117-20.01-.07-.096-6.822-9.494-4.49-14.641.776-1.703 2.425-2.685 4.9-2.91 9.885-.923 18.612 13.397 19.802 19.931 1.168 6.414 2.99 11.899 13.432 14.121 11.303 2.406 14.863 7.281 17.483 15.437.532 1.658.876 2.97 1.184 4.124 1.192 4.535 1.552 5.898 9.573 13.118l-.773.86c-8.275-7.451-8.688-9.023-9.917-13.683a70.8 70.8 0 0 0-1.164-4.066c-2.54-7.922-5.808-12.365-16.623-14.664-11.13-2.367-13.128-8.464-14.327-15.039-1.1-6.046-9.484-19.843-18.564-18.993-2.062.189-3.357.924-3.954 2.242-1.52 3.341 1.873 10.045 4.368 13.483 1.825 2.514 7.454 11.472 3.24 21.149-1.867 4.291 1.231 7.328 4.506 10.545 2.966 2.912 6.032 5.924 5.064 9.936-2.14 8.846.369 14.644 8.66 20.029 9.615 6.252 12.35 11.556 11.7 22.717-.177 3.041.564 5.414 2.2 7.031 2.784 2.767 7.316 2.501 7.357 2.495l.08 1.155c-.035 0-.214.012-.503.012Z" fill="#9ED821"></path><path d="m65.306 170.775-1.154-.039c.43-12.608-7.755-26.152-24.318-40.254-8.9-7.572-9.422-14.128-9.926-20.466-.119-1.453-.225-2.819-.433-4.201-1.094-7.223-9.083-16.626-9.166-16.723l.875-.75c.337.398 8.285 9.753 9.426 17.3.218 1.424.33 2.873.443 4.281.487 6.104.99 12.416 9.525 19.683 16.848 14.34 25.168 28.192 24.728 41.169ZM205.611 42.045h-24.356a4.06 4.06 0 0 0-4.054 4.06v2.772a4.054 4.054 0 0 0 4.054 4.057h1.475c1.444 2.02 4.635 5.625 9.205 5.818 0 0-3.194-2.736-1.482-5.818h15.158a4.057 4.057 0 0 0 4.06-4.057v-2.772a4.062 4.062 0 0 0-4.06-4.06Z" fill="#9ED821"></path><path d="m75.897 57.86 1.25-1.08c.116-.094 2.618-2.3 1.502-4.809H63.844a4.635 4.635 0 0 1-4.631-4.63v-2.772a4.638 4.638 0 0 1 4.631-4.634h24.362a4.635 4.635 0 0 1 4.629 4.634v2.771a4.632 4.632 0 0 1-4.629 4.631h-1.18c-1.623 2.194-4.875 5.623-9.477 5.822l-1.652.067ZM63.844 41.086a3.486 3.486 0 0 0-3.48 3.483v2.771a3.487 3.487 0 0 0 3.48 3.483h15.498l.163.295c1.12 2.005.414 3.99-.529 5.33 3.515-.775 6.023-3.62 7.287-5.387l.17-.238h1.773a3.486 3.486 0 0 0 3.477-3.483v-2.77a3.483 3.483 0 0 0-3.477-3.484H63.844Z" fill="#262C20"></path><path d="m0 191.718.674-.616 2.63 2.855a2.11 2.11 0 0 0 2.97.128l2.293-2.091a3.03 3.03 0 0 1 4.268.202l1.726 1.908a2.106 2.106 0 0 0 3.002.116l2.008-1.88a2.99 2.99 0 0 1 2.264-.814 3.04 3.04 0 0 1 2.136 1.097l1.065 1.298a2.07 2.07 0 0 0 1.578.767 2.09 2.09 0 0 0 .886-.169c.28-.119.53-.298.733-.524l2.438-2.726.677.616-2.438 2.716a3.018 3.018 0 0 1-3.567.701 3.03 3.03 0 0 1-1.013-.8l-1.064-1.296a2.097 2.097 0 0 0-1.493-.769 2.097 2.097 0 0 0-1.58.567l-2.005 1.883a3.022 3.022 0 0 1-4.3-.17l-1.73-1.909a2.114 2.114 0 0 0-1.462-.683 2.074 2.074 0 0 0-1.517.546l-2.29 2.088a3.03 3.03 0 0 1-4.259-.187L0 191.718ZM231.064 72.645l.674-.619 2.63 2.852a2.112 2.112 0 0 0 2.97.134l2.296-2.094a3.026 3.026 0 0 1 4.266.202l1.725 1.905a2.104 2.104 0 0 0 3.005.122l2.005-1.883a2.995 2.995 0 0 1 2.264-.814 3.024 3.024 0 0 1 2.136 1.1l1.065 1.296a2.107 2.107 0 0 0 3.201.07l2.434-2.72.683.61-2.443 2.72a3.026 3.026 0 0 1-2.313 1.003 3.02 3.02 0 0 1-2.267-1.103l-1.065-1.299a2.111 2.111 0 0 0-1.492-.766 2.101 2.101 0 0 0-1.578.567l-2.004 1.883a3.016 3.016 0 0 1-4.304-.17l-1.726-1.908a2.108 2.108 0 0 0-1.462-.683 2.078 2.078 0 0 0-1.517.545l-2.294 2.084a3.022 3.022 0 0 1-4.256-.179l-2.633-2.855Z" fill="#F2F6E6"></path><path d="M50.736 116.046a3.175 3.175 0 0 1-2.93-1.957 3.174 3.174 0 0 1 4.142-4.146 3.17 3.17 0 0 1 1.96 2.928 3.18 3.18 0 0 1-3.172 3.175Zm0-5.247a2.075 2.075 0 1 0 .008 4.15 2.075 2.075 0 0 0-.008-4.15Z" fill="#FFC01D"></path><path d="M50.736 116.046a3.175 3.175 0 0 1-2.93-1.957 3.174 3.174 0 0 1 4.142-4.146 3.17 3.17 0 0 1 1.96 2.928 3.18 3.18 0 0 1-3.172 3.175Zm0-5.247a2.075 2.075 0 1 0 .008 4.15 2.075 2.075 0 0 0-.008-4.15Z" fill="#FFC01D"></path><path d="M276.831 149.863a3.17 3.17 0 1 1-.007-6.342 3.17 3.17 0 0 1 .007 6.342Zm0-5.243a2.073 2.073 0 1 0 .001 4.146 2.073 2.073 0 0 0-.001-4.146Z" fill="#262C20"></path><path d="M162.653 198.399a4.332 4.332 0 0 1-1.267 3.056 4.326 4.326 0 0 1-3.057 1.264H49.587a4.326 4.326 0 0 1-3.994-2.666 4.325 4.325 0 0 1-.33-1.654v-21.543a4.328 4.328 0 0 1 2.67-3.995 4.329 4.329 0 0 1 1.654-.329h108.742a4.332 4.332 0 0 1 3.057 1.267 4.327 4.327 0 0 1 1.267 3.057v21.543Z" fill="#FFC01D"></path><path d="M223.865 198.399a4.324 4.324 0 0 1-4.323 4.32H115.839a4.318 4.318 0 0 1-4.318-4.32v-21.543a4.322 4.322 0 0 1 4.318-4.324h103.703a4.326 4.326 0 0 1 4.323 4.324v21.543Z" fill="#D69F21"></path><path d="M223.854 176.766H122.685a4.321 4.321 0 0 0-4.324 4.317v12.604a4.323 4.323 0 0 0 4.324 4.317h101.182v-21.148c0-.032-.013-.061-.013-.09Z" fill="#F2F6E6"></path><path d="M122.685 198.004h101.182v-10.378H118.361v6.061a4.323 4.323 0 0 0 4.324 4.317Z" fill="#F2F6E6"></path><path d="M169.854 168.324a4.323 4.323 0 0 1-4.321 4.324H56.788a4.326 4.326 0 0 1-4.323-4.324v-21.546a4.326 4.326 0 0 1 4.323-4.32h108.745a4.321 4.321 0 0 1 4.321 4.32v21.546Z" fill="#262C20"></path><path d="M231.065 168.324a4.332 4.332 0 0 1-1.266 3.058 4.328 4.328 0 0 1-3.058 1.266h-103.7a4.324 4.324 0 0 1-4.32-4.324v-21.546a4.325 4.325 0 0 1 4.32-4.32h103.7a4.322 4.322 0 0 1 4.324 4.32v21.546Z" fill="#3E4438"></path><path d="M231.058 146.691H129.882a4.32 4.32 0 0 0-4.318 4.32v12.605a4.317 4.317 0 0 0 4.318 4.317h101.182v-21.155c0-.032-.006-.058-.006-.087Z" fill="#F2F6E6"></path><path d="M129.882 167.933h101.182v-10.619h-105.5v6.302a4.317 4.317 0 0 0 4.318 4.317Z" fill="#F2F6E6"></path><path d="M173.866 138.747a3.718 3.718 0 0 1-3.714 3.711H76.654a3.72 3.72 0 0 1-3.72-3.711v-18.528a3.72 3.72 0 0 1 3.72-3.718h93.498a3.722 3.722 0 0 1 3.714 3.718v18.528Z" fill="#9ED821"></path><path d="M226.494 138.747a3.72 3.72 0 0 1-3.718 3.711h-89.161a3.72 3.72 0 0 1-3.715-3.711v-18.528a3.72 3.72 0 0 1 3.715-3.718h89.161a3.72 3.72 0 0 1 3.718 3.718v18.528Z" fill="#B5D76C"></path><path d="M226.484 120.139h-86.987a3.715 3.715 0 0 0-3.714 3.717v10.837a3.726 3.726 0 0 0 2.292 3.432 3.73 3.73 0 0 0 1.422.282h86.997v-18.188c0-.026-.01-.055-.01-.08Z" fill="#F2F6E6"></path><path d="M139.497 138.407h86.997v-8.926h-90.711v5.212a3.726 3.726 0 0 0 2.292 3.432 3.73 3.73 0 0 0 1.422.282Z" fill="#F2F6E6"></path><path d="M261.026 178.649s-4.416-1.408-1.873-4.786c2.547-3.377 2.624-5.401.173-8.829-2.456-3.432-1.571-5.722.847-7.948 2.412-2.226-2.771-5.805.577-8.024a6.863 6.863 0 0 0 3.089-7.053c-.26-1.507-.433-6.485 3.512-5.315 3.945 1.174 4.343 6.928 3.457 9.141-.888 2.207-1.379 4.384 2.393 6.764 3.778 2.377 4.25 4.356 3.547 7.399-.692 3.047-1.462 2.778.616 7.249 0 0 2.386 3.239-.936 5.882-3.323 2.649-4.939 7.232-3.766 9.625l-11.636-4.105Z" fill="#A0D925"></path><path d="M277.979 178.523h-23.638s-.725 16.133 7.281 24.196h9.076c8.009-8.063 7.281-24.196 7.281-24.196Z" fill="#BE4719"></path><path d="M279.086 177.69h-26.033v2.501h26.033v-2.501Z" fill="#E5F2BE"></path><path d="M218.92 58.736v2.501h2.425v-2.501h1.469v6.51h-1.469v-2.723h-2.425v2.723h-1.479v-6.51h1.479ZM225.095 63.577l-.465 1.67h-1.526l1.991-6.511h1.932l2.021 6.51h-1.586l-.501-1.67h-1.866Zm1.651-1.103-.405-1.383c-.113-.385-.229-.865-.328-1.252h-.018c-.095.387-.194.876-.298 1.252l-.387 1.383h1.436ZM229.24 58.736h1.476v5.275h2.588v1.235h-4.064v-6.51ZM234.168 58.736h1.475v5.275h2.592v1.235h-4.067v-6.51ZM244.686 61.924c0 2.132-1.295 3.428-3.197 3.428-1.931 0-3.063-1.46-3.063-3.316 0-1.95 1.25-3.406 3.168-3.406 2.002 0 3.092 1.494 3.092 3.294Zm-4.701.086c0 1.273.599 2.175 1.584 2.175.991 0 1.562-.95 1.562-2.213 0-1.168-.562-2.175-1.572-2.175-.997 0-1.574.946-1.574 2.213Z" fill="#262C20"></path><path d="M34.17 72.937a1.126 1.126 0 1 1-2.251 0 1.128 1.128 0 1 1 2.251 0Zm-2.123 7.598.276-5.754h1.456l.279 5.754h-2.011ZM43.379 73.684c0 2.794-1.694 4.49-4.186 4.49-2.527 0-4.005-1.91-4.005-4.339 0-2.556 1.632-4.461 4.146-4.461 2.617 0 4.045 1.956 4.045 4.31Zm-6.155.11c0 1.674.783 2.848 2.072 2.848 1.302 0 2.05-1.238 2.05-2.893 0-1.533-.735-2.848-2.063-2.848-1.302 0-2.059 1.238-2.059 2.893ZM46.162 78.034v-3.49l-2.697-5.035h2.2l.876 2.052c.266.616.439 1.072.657 1.63h.026c.186-.533.391-1.023.644-1.63l.856-2.052h2.166l-2.807 4.97v3.555h-1.92ZM56.666 74.432H53.53v2.024h3.502v1.578h-5.436v-8.525h5.26v1.584h-3.327v1.77h3.137v1.569ZM58.078 77.02a1.132 1.132 0 1 1 1.141 1.155 1.102 1.102 0 0 1-1.141-1.155Zm.417-1.78-.289-5.731h2.008l-.276 5.731h-1.443Z" fill="#F2F6E6"></path><path d="M114.771 43.924a4.547 4.547 0 0 1-1.8.302c-2.418 0-3.668-1.504-3.668-3.502 0-2.39 1.706-3.724 3.829-3.724a4.076 4.076 0 0 1 1.722.314l-.323 1.258a3.413 3.413 0 0 0-1.328-.26 2.305 2.305 0 0 0-2.236 2.307 2.304 2.304 0 0 0 2.245 2.298 4.012 4.012 0 0 0 1.319-.227l.24 1.234ZM117.407 37.116v7.004h-1.591v-7.004h1.591ZM120.412 42.324l-.5 1.796h-1.642l2.142-7.004h2.078l2.175 7.004h-1.706l-.539-1.796h-2.008Zm1.777-1.186-.436-1.489c-.122-.413-.247-.93-.353-1.347h-.019c-.103.417-.209.943-.321 1.347l-.417 1.489h1.546ZM131.76 40.547c0 2.297-1.391 3.689-3.438 3.689-2.078 0-3.297-1.565-3.297-3.564 0-2.1 1.341-3.672 3.413-3.672 2.149 0 3.322 1.613 3.322 3.547Zm-5.061.093c0 1.37.645 2.338 1.707 2.338 1.068 0 1.68-1.02 1.68-2.38 0-1.257-.603-2.337-1.693-2.337-1.068 0-1.694 1.016-1.694 2.38ZM132.58 43.293a.933.933 0 0 1 1.291-.877.934.934 0 0 1 .57.877.942.942 0 0 1-.268.665.934.934 0 0 1-1.325 0 .942.942 0 0 1-.268-.666Zm.341-1.47-.238-4.707h1.652l-.228 4.708h-1.186Z" fill="#9ED821"></path><path d="m68.548 146.88-.06 21.335-3.166-.006.061-21.341 3.165.012Z" fill="#297CBA"></path><path d="m71.715 146.887-.06 21.341-3.167-.013.061-21.335 3.166.007Z" fill="#F2F6E6"></path><path d="m71.713 146.887-.06 21.34 3.165.009.06-21.34-3.165-.009Z" fill="#F02828"></path></g><defs><clipPath id="a"><path fill="#fff" d="M0 0h280v240H0z"></path></clipPath></defs></svg>