<svg width="280" height="240" fill="none" xmlns="http://www.w3.org/2000/svg"><g clip-path="url('#a')"><path d="m115.26 132.43-.42.93 2.44 1.06.39-.95-2.41-1.04Zm-3.57-1.65-.44.92 2.4 1.13.43-.93-2.39-1.12Zm-3.52-1.75-.46.92 2.37 1.18.45-.91-2.36-1.18Zm-3.48-1.82-.48.9 2.34 1.25.47-.91-2.33-1.24Zm-3.43-1.91-.5.89 1.14.66 1.16.63.5-.89-1.15-.63-1.15-.66Zm-3.38-2-.53.87 2.28 1.36.51-.88-2.26-1.35Zm-3.32-2.09-.56.85 2.24 1.43.54-.87-2.22-1.41Zm-3.25-2.2-.59.83 2.2 1.5.56-.85-2.17-1.49Zm-3.17-2.32-.61.81 1.05.81 1.08.77.6-.83-1.07-.77-1.05-.8Zm-3.06-2.45-.65.8 1.02.84a26.19 26.19 0 0 0 1.04.83l.64-.8s-.54-.4-1.04-.82l-1.01-.85Zm-2.95-2.57-.7.75 1.99 1.78.67-.78-1.96-1.75Zm-2.79-2.73-.74.7 1.88 1.9.71-.75-1.85-1.85ZM76.75 106l-.79.65c-.04.04 1.76 2.02 1.76 2.02l.75-.7s-1.76-1.93-1.72-1.97Zm-2.31-3.12-.85.57.74 1.11.83 1.06.8-.62-.8-1.04-.72-1.08Zm-1.99-3.33-.9.47s1.25 2.37 1.31 2.33l.87-.54c-.06.04-1.28-2.26-1.28-2.26Zm-1.54-3.54-.96.33c-.06.02 1 2.5 1.01 2.5l.93-.43s-1.03-2.38-.98-2.4Zm-.9-3.74-1 .16.2 1.34.37 1.3.98-.28-.36-1.24a93.07 93.07 0 0 0-.2-1.28Zm-.25-3.82-1.02-.04.02 1.35c-.02.46 0 .9.04 1.36l1.02-.1c-.04-.42-.05-.85-.04-1.28l-.02-1.29Zm.56-3.79-1-.23a21.82 21.82 0 0 0-.46 2.66l1.02.11c.09-.85.24-1.7.44-2.54Zm1.27-3.62-.94-.41-.55 1.23a9.46 9.46 0 0 0-.41 1.29l.98.3c.1-.42.22-.83.38-1.23l.54-1.18Zm1.83-3.39-.86-.55-.7 1.15-.5.79-.17.38.91.46.17-.36.47-.76.68-1.1Zm2.29-3.12-.8-.65-1.66 2.1.84.6 1.62-2.05Zm2.6-2.89-.71-.73-1.86 1.94.77.68 1.8-1.89Zm2.94-2.51-.62-.82s-.55.39-1.06.82l-1 .9.68.76.97-.87c.5-.42 1.03-.8 1.03-.8Zm3.22-2.15-.5-.9-1.15.71c-.58.35-1.13.73-1.13.73l.58.84s.53-.36 1.09-.7l1.1-.68Zm3.51-1.57-.35-.97-1.26.48c-.62.26-1.22.58-1.22.58l.45.92s.57-.3 1.17-.56l1.21-.45Zm3.71-.98-.17-1.01a12.2 12.2 0 0 0-1.33.25l-1.3.36.3.98 1.23-.34c.42-.1.85-.19 1.27-.25Zm3.83-.32.01-1.02c0-.07-2.7.13-2.7.13l.12 1.01s2.57-.19 2.57-.12Zm3.84.34.17-1c.01-.07-2.68-.34-2.68-.34l-.06 1.02s2.58.26 2.57.32Zm3.73.95.33-.97c.02-.05-2.6-.74-2.6-.74l-.22 1s2.51.66 2.5.71Zm3.57 1.49.46-.92s-.6-.3-1.22-.56c-.61-.28-1.24-.54-1.24-.54l-.36.96 1.19.5c.6.25 1.17.56 1.17.56Zm3.35 1.94.57-.85s-.55-.38-1.14-.71c-.57-.36-1.15-.69-1.15-.69l-.5.9s.57.32 1.12.66c.57.32 1.1.7 1.1.7Zm3.08 2.36.67-.78s-.5-.45-1.04-.85c-.52-.42-1.06-.82-1.06-.82l-.6.82 1.03.8c.52.39 1 .83 1 .83Zm2.77 2.7.76-.68c-.3-.34-.6-.67-.92-.98l-.96-.94-.7.74.93.92c.31.3.6.61.89.95Zm2.37 3.05.85-.57-.77-1.1-.83-1.06-.8.64.81 1.02.74 1.07Zm1.84 3.37.95-.4s-.27-.62-.58-1.23a9.41 9.41 0 0 0-.66-1.19l-.87.52a27.56 27.56 0 0 1 1.17 2.3Zm1 3.63 1-.1-.2-1.36-.38-1.32-.97.31.34 1.23.2 1.24Zm-.62 3.55.92.46.18-.38a7.02 7.02 0 0 0 .5-1.92l.05-.44-1.02-.06a7.77 7.77 0 0 1-.2 1.2 7.53 7.53 0 0 1-.24.77l-.19.37Zm-1.97 3.23.77.68s1.68-2.27 1.54-2.3l-.9-.45a16.23 16.23 0 0 1-1.41 2.07Zm-2.95 2.2.4.94a9.9 9.9 0 0 0 2.33-1.52l-.68-.77a8.55 8.55 0 0 1-2.06 1.35Zm-3.57.44-.15 1.01c.46.1.93.12 1.4.1.47-.03.94-.08 1.41-.17l-.23-1c-.4.08-.8.12-1.21.14a5.33 5.33 0 0 1-1.22-.08Zm-3.32-1.45-.63.8 1.18.76c.4.23.84.42 1.28.56l.34-.96a6.03 6.03 0 0 1-1.13-.5l-1.04-.66Zm-2.41-2.84-.89.51s1.57 2.28 1.68 2.2l.74-.72c-.1.1-1.53-2-1.53-2Zm-1.4-3.52-.98.26.4 1.3c.12.44.3.86.51 1.27l.93-.43c-.2-.38-.36-.77-.48-1.18l-.38-1.22Zm-.57-3.79-1.02.06c-.01.45.03.9.11 1.35l.21 1.34 1-.19-.2-1.27a5.75 5.75 0 0 1-.1-1.29Zm.1-3.85-1.02-.1-.12 1.34a5 5 0 0 0-.03.93l.01.42h1.02v-.41a4.52 4.52 0 0 1 .02-.89l.12-1.3Zm.69-3.78-.98-.27-.32 1.32c-.15.66-.33 1.32-.3 1.32l1.02.14c.07-.42.16-.84.28-1.26l.3-1.25Zm1.37-3.58-.92-.45-1.06 2.48.96.35 1.02-2.38Z" fill="#F2F6E6"/><path d="m108.41 67.27-.82-.6-1.44 2.29.89.51 1.37-2.2Zm2.52-2.94-.74-.71a33.26 33.26 0 0 0-1.76 2.04l.8.64s1.65-2.01 1.7-1.97Zm2.87-2.59-.63-.8a25.23 25.23 0 0 0-2.01 1.79l.7.74.96-.88.65-.61.33-.24Zm3.16-2.26-.54-.86c-.05-.07-2.2 1.55-2.2 1.55l.61.81s2.08-1.57 2.13-1.5Zm3.38-1.91-.45-.92a38.93 38.93 0 0 0-2.34 1.31l.52.88s2.25-1.33 2.27-1.28Zm3.56-1.6-.37-.95-2.45 1.1.43.92 2.39-1.07Zm3.7-1.23-.29-.99-2.54.85.34.97 2.48-.83Zm3.78-.9-.2-1-2.6.6.25.99 2.55-.59Zm3.85-.56-.1-1.02-2.66.34.17 1 2.6-.32Zm3.89-.22-.02-1.02-2.68.06.08 1.02 2.62-.06Zm3.89.11.07-1.02s-2.67-.23-2.67-.15l-.01 1.02c0-.08 2.6.15 2.6.15Zm3.86.46.16-1-1.31-.26-1.33-.11-.1 1.02 1.3.1 1.28.25Zm3.8.8.26-.99a25.5 25.5 0 0 0-2.6-.57l-.2 1c.85.14 1.7.33 2.55.56Zm3.73 1.15.34-.96-2.55-.8-.3.99 2.5.77Zm3.56 1.55.44-.92-2.44-1.09-.39.95 2.39 1.06Zm3.32 1.93.6-.83-1.11-.77-1.16-.72-.49.9 1.09.68 1.07.74Zm2.96 2.47.72-.73-1-.92-1.03-.86-.64.8 1 .83.95.88Zm2.39 2.95.88-.53a17.86 17.86 0 0 0-1.64-2.19l-.76.68c.56.64 1.07 1.32 1.52 2.04Zm1.19 3.45 1.02-.07c.2-.04-.6-2.76-.7-2.7l-.94.41c.1-.03.8 2.34.62 2.36Zm-.87 3.45.87.53.63-1.27c.15-.45.26-.92.34-1.39l-1.01-.14a8.4 8.4 0 0 1-.3 1.17l-.53 1.1Zm-2.55 2.43.36.96a4.53 4.53 0 0 0 1.3-.74l.36-.31c.12-.12.22-.25.32-.38L167 73l-.8-.65-.24.3c-.06.1-.13.19-.21.29-.12.1-.25.2-.37.32-.3.24-.63.43-1 .55Zm-3.56.08-.25.99.43.09c.31.07.63.12.95.14.47.05.95.05 1.42 0l-.12-1.02a5.61 5.61 0 0 1-1.21 0 5.2 5.2 0 0 1-.84-.12l-.38-.08Zm-3.42-1.54-.56.86c.77.48 1.6.9 2.44 1.26l.36-.96a14.9 14.9 0 0 1-2.24-1.16Zm-2.86-2.48-.77.67c.61.68 1.27 1.31 1.98 1.89l.64-.8a16.77 16.77 0 0 1-1.85-1.76Zm-2.09-3.16-.92.44c.4.82.87 1.6 1.4 2.35l.83-.6c-.5-.7-.93-1.43-1.3-2.19Zm-1.1-3.6-1.02.15c.15.9.38 1.79.68 2.65l.96-.35c-.28-.8-.49-1.62-.63-2.45Zm-.02-3.78-1.02-.14a15.22 15.22 0 0 0-.11 2.74l1.02-.06a13.67 13.67 0 0 1 .1-2.54Zm.98-3.67-.95-.39-.46 1.29c-.2.65-.35 1.32-.35 1.32l1 .22s.14-.63.33-1.23l.43-1.21Z" fill="#F2F6E6"/><path d="m154.12 52.27-.86-.56s-.36.57-.7 1.16c-.23.39-.44.79-.63 1.2l.92.44c.18-.39.38-.77.6-1.13.32-.57.67-1.11.67-1.11Zm2.33-3.08-.77-.68s-1.72 2.08-1.67 2.11l.83.6c-.05-.03 1.61-2.03 1.61-2.03Zm2.73-2.76-.69-.76-.98.92c-.32.3-.64.62-.93.96l.74.7c.28-.32.59-.63.9-.93l.96-.9Zm3.04-2.36-.56-.87c-.05-.07-2.18 1.61-2.18 1.61l.66.78a24.71 24.71 0 0 1 2.08-1.52Zm3.4-1.77-.37-.95s-2.5 1.09-2.46 1.16l.5.9.35-.2.8-.37 1.18-.54Zm3.7-.98-.18-1.01-1.33.26a9.44 9.44 0 0 0-1.3.37l.3.98a8 8 0 0 1 1.24-.35l1.26-.25Zm3.81-.25.04-1.02s-.68-.04-1.36-.02l-1.35.11.1 1.02 1.28-.1c.65-.03 1.3.01 1.3.01Zm3.82.45.21-1c.01-.08-2.67-.4-2.67-.4l-.1 1s2.57.33 2.56.4Zm3.7 1.06.37-.95s-2.56-.87-2.57-.82l-.26 1c.01-.06 2.47.77 2.47.77Zm3.52 1.63.49-.9-1.2-.62a11.23 11.23 0 0 0-1.22-.55l-.4.93c.4.16.79.33 1.17.54l1.16.6Zm3.25 2.08.61-.82s-.53-.42-1.1-.79l-1.13-.7-.53.87 1.1.69c.54.34 1.06.75 1.05.75Zm2.98 2.48.7-.74s-.48-.47-1-.9l-1.01-.88-.65.8.99.85c.5.42.97.87.97.87Zm2.62 2.85.8-.64s-1.75-2.06-1.79-2.02l-.73.71c.04-.03 1.72 1.95 1.72 1.95Zm2.2 3.17.88-.52-.7-1.15-.79-1.09-.83.6.77 1.06.67 1.1Zm1.73 3.45.95-.38c.06-.03-1.14-2.45-1.14-2.45l-.9.48s1.15 2.32 1.09 2.35Zm1.16 3.67 1-.22s-.68-2.62-.74-2.6l-.97.33c.06-.01.7 2.49.7 2.49Zm.45 3.8 1.03-.02-.08-1.35a5.97 5.97 0 0 0-.1-.92l-.08-.42-1.01.16.07.4c.06.28.09.58.1.88l.07 1.28Zm-.29 3.83 1.01.17s.13-.67.22-1.34l.07-1.35-1.02-.04-.07 1.28-.2 1.28Zm-1.02 3.68.95.38c.32-.85.6-1.71.83-2.58l-1-.25a23 23 0 0 1-.78 2.45Zm-1.74 3.43.87.54a26.21 26.21 0 0 0 1.29-2.38l-.92-.43c-.37.78-.79 1.54-1.24 2.27Zm-2.3 3.08.77.67c.06.06 1.67-2.11 1.67-2.11l-.84-.59s-1.54 2.08-1.6 2.03Zm-2.75 2.73.68.77 1-.9c.24-.2.46-.41.66-.65l.29-.3-.75-.71-.27.3a4.8 4.8 0 0 1-.64.62l-.97.87Zm48.44 116.33a3 3 0 0 0 3.16 2.8h20.58a2.99 2.99 0 0 0 3.16-2.8V86.12a3 3 0 0 0-3.16-2.8h-20.57a3 3 0 0 0-3.17 2.8V198.8Z" fill="#F2F6E6"/><path d="M262.64 202.17h-20.57a3.57 3.57 0 0 1-3.74-3.38V86.12a3.58 3.58 0 0 1 3.73-3.38h20.58a3.58 3.58 0 0 1 3.74 3.38V198.8a3.57 3.57 0 0 1-3.74 3.38ZM242.07 83.9a2.43 2.43 0 0 0-2.59 2.22V198.8a2.42 2.42 0 0 0 2.58 2.23h20.58a2.42 2.42 0 0 0 2.59-2.23V86.12a2.43 2.43 0 0 0-2.59-2.22h-20.57Z" fill="#262C20"/><path d="M266.38 103.43h-28.05v-7.68h28.04v7.68Zm-26.9-1.15h25.75V96.9h-25.75v5.38Zm26.9 14.2h-28.05v-7.67h28.04v7.68Zm-26.9-1.15h25.75v-5.37h-25.75v5.37Zm26.9 14.21h-28.05v-7.68h28.04v7.68Zm-26.9-1.15h25.75V123h-25.75v5.38Z" fill="#262C20"/><path d="M161.02 116.17c3.17-2.75 7.21-10.66-4.18-15.07-4.14-1.61-11.37 1.77-17.65.37-4.35-.97 12.74-10.11 6.74-17.33 0 0-2.66-3.62-3.13-2.38-.46 1.24 1.67 4.7.33 5.86-1.35 1.16-20.43 12.56-16.87 18.78 3.57 6.21 28.31 15.37 34.76 9.77Z" fill="#FEA081"/><path d="M157.96 118.45c4.63-.5 11.38-6.97 3.59-15.56-2.4-2.66-6.01-3.03-13.05-1.92 0 0-9.94 2.04-9.3-.48.48-1.85 5.63-5.68 7.58-8.86a7.46 7.46 0 0 0-4.7-3.83s-19.02 10.51-16.06 19.06c2.15 6.21 20.78 12.82 31.94 11.6Z" fill="#262C20"/><path d="M162.47 121.89s-11.2 5.04-30.23.1c-19.02-4.95-23.77-16.23-32.52-11.42-.95.52-2.44 3-3.4 2.69-.96-.33.3-7.6 5.12-8.32 0 0 10.31-1.76 23.59 2.52 16.17 5.23 30.97-8.93 38.87 4.15 1.4 2.34 3.13 5.48-1.43 10.28Z" fill="#FEA081"/><path d="M158.33 103.2s-21.54 5.92-27.1 4.58c-5.54-1.33-18.76-4.59-24.27-3.83a6.38 6.38 0 0 0-1.48 6.4s17.73 9.91 21.19 10.75c3.46.84 11.13 2.84 19.65 3.08 40 1.1 12.01-20.98 12.01-20.98Z" fill="#274128"/><path d="M105.19 107.62c-.02.24 0 .48.08.71 7.25 3.75 15.27 5.85 22.15 7.8 5.83 1.65 12.46 3.52 19.1 4.43 7.26.99 13.83.67 19.52-.95a.21.21 0 0 0 .14-.25.23.23 0 0 0-.26-.17c-5.62 1.6-12.14 1.93-19.34.95-6.62-.9-13.23-2.78-19.06-4.43-6.94-1.97-15.02-4.27-22.33-8.1Z" fill="#F2F6E6"/><path d="M152.38 104.91a38.92 38.92 0 0 0 9.88 17.76s5.39-1.5 5.46-4.76c.08-3.25-15.34-13-15.34-13Zm39.08-28.2c-1.57-2.77-8.2-8.17-15.37-.34-1.57 1.71-3.56 4.92-7.86 4.97-3.03.03-10.43 3.02-7.1 11.94 3.35 8.91-6.26 7.75-1.4 12.03 13.01 11.45 19.89 4.1 25.81-3.64 9.33-12.16 9.08-19.38 5.92-24.96Z" fill="#262C20"/><path d="M182.37 95.5s-.43-5.24 1.55-6.3c1.98-1.05.39 4.67 3.42 7.94 3.03 3.27 20.61 19.73 13.96 22.63-6.66 2.9-17.76-14.38-18.93-24.27Z" fill="#EF8867"/><path d="M181.66 94.59c1.4-1.37 5.43-2.58 9.32 2.02a38.16 38.16 0 0 1 4.14 6.03s-2.61 6.66-8.84 7.25c0 0-9.87-10.17-4.62-15.3Z" fill="#D69F21"/><path d="M168.82 120.22c7.76-2.3 21.23-8.62 21.77-16.38.57-8.24-3.1-9.96-6.85-12.07-4.06-2.27-7.8-4.77-14.84 2.74-4.9 5.23-7.53 3.32-14.4 5.04l-.51.1a.1.1 0 0 0-.01-.01v.01c-8.08.85 8.1 22.58 14.84 20.57Z" fill="#FFC01D"/><path d="M182.17 83.33s-.19 5.1-2.17 6.92c-1.27 1.17 5.96 5.96 6.21 4.07.32-2.42-.72-4.18 1.4-6.51l-5.44-4.47Z" fill="#EF8867"/><path d="M190.68 78.07c.85 2.8.47 14-4.72 13.49-2.34-.23-5.43-4.08-5.7-8.72-.1-1.9 1.64-4.95 4.55-6.76 1.32-.82 4.9-1.28 5.87 1.99Z" fill="#FEA081"/><path d="M191.65 82.43c-.4 1.22-1.45-4-3.31-1.96-1.94 2.14-4.28.17-6.92 4.49-1.8 2.95-2.57-4.29-2.62-4.83-.21-2.34-.21-2.34 3.58-5.12 3.8-2.8 11.29 1.32 9.27 7.42Z" fill="#262C20"/><path d="M192.09 90.21s1.67-4.98 3.9-5.16c2.24-.18-1.48 4.43 0 8.64 1.49 4.21 11.1 26.28 3.84 26.31-7.25.03-10.6-20.24-7.74-29.79Z" fill="#FEA081"/><path d="M170.14 105.76s.52 8.03 2.87 13.02l.89-.35-1.28-10.38-2.48-2.29Z" fill="#262C20"/><path d="M172.5 96.23c1.71 4.12 12.55 25.63 5.3 26.06-7.25.43-7.02-30.17-5.3-26.06Z" fill="#EF8867"/><path d="M175.72 91.97c1.96-.09 5.76 1.7 5.6 7.72a38.03 38.03 0 0 1-.94 7.27s-6.4 3.21-11.43-.51c0 0-.57-14.16 6.77-14.48Z" fill="#D69F21"/><path d="M182.62 89.07s-2.54-5.1-4.98-4.97c-2.43.14 2.27 4.55 1.3 9.29-.98 4.75-8.03 29.93-.21 28.88 7.81-1.06 8.38-23.36 3.9-33.2Z" fill="#FEA081"/><path d="M53.72 201.4c-14.16-1.23-14.82-9.5-14.85-9.85 0-6.17-3.78-9.09-7.44-11.91-3.68-2.84-7.15-5.51-6.38-11.02.8-5.68.71-12.8-7.13-17.44-3.71-2.2-9.3-7.51-9.49-11.92a4.52 4.52 0 0 1 2.05-4.05c3.47-2.5 6.21-.55 10 2.13 2.7 1.9 6.04 4.27 10.76 5.9 8.07 2.77 9.7 8.8 11.13 14.12.68 2.48 1.31 4.84 2.51 6.85 3.68 6.15 14.64 3.2 14.75 3.17l.31 1.11c-.48.13-11.92 3.2-16.05-3.7-1.28-2.14-1.97-4.68-2.63-7.14-1.43-5.28-2.9-10.75-10.4-13.33-4.87-1.67-8.29-4.1-11.04-6.04-3.66-2.6-5.88-4.16-8.68-2.14a3.4 3.4 0 0 0-1.56 3.07c.17 3.76 5.38 8.88 8.93 10.98 9.5 5.64 8.18 15.05 7.68 18.59-.68 4.85 2.39 7.21 5.93 9.94 3.7 2.86 7.9 6.1 7.9 12.8.03.28.68 7.6 13.8 8.74l-.1 1.14Z" fill="#262C20"/><path d="M61.32 199.83c-1.35 0-5.13-.25-7.74-2.83-1.88-1.87-2.74-4.54-2.54-7.93.63-10.78-1.88-15.64-11.18-21.68-8.66-5.62-11.4-11.99-9.15-21.27.82-3.38-1.89-6.03-4.75-8.84-3.41-3.35-6.94-6.81-4.75-11.83 3.97-9.12-1.39-17.62-3.12-20-.07-.1-6.82-9.5-4.5-14.65.79-1.7 2.43-2.68 4.9-2.9 9.9-.93 18.62 13.39 19.81 19.92 1.17 6.42 3 11.9 13.43 14.12 11.3 2.41 14.87 7.28 17.49 15.44.53 1.66.87 2.97 1.18 4.12 1.2 4.54 1.55 5.9 9.57 13.12l-.77.86c-8.27-7.45-8.69-9.02-9.92-13.68a70.8 70.8 0 0 0-1.16-4.07c-2.54-7.92-5.8-12.36-16.62-14.66-11.13-2.37-13.13-8.46-14.33-15.04-1.1-6.05-9.48-19.84-18.56-19-2.07.2-3.36.93-3.96 2.25-1.52 3.34 1.87 10.04 4.37 13.48 1.82 2.52 7.45 11.47 3.24 21.15-1.87 4.3 1.23 7.33 4.5 10.55 2.97 2.9 6.04 5.92 5.07 9.93-2.14 8.85.37 14.65 8.66 20.03 9.61 6.25 12.35 11.56 11.7 22.72-.18 3.04.56 5.41 2.2 7.03 2.78 2.77 7.32 2.5 7.36 2.5l.08 1.15-.5.01Z" fill="#9ED821"/><path d="m65.3 170.78-1.15-.04c.43-12.61-7.75-26.16-24.32-40.26-8.9-7.57-9.42-14.13-9.92-20.46-.12-1.46-.23-2.82-.43-4.2-1.1-7.23-9.09-16.63-9.17-16.73l.87-.75c.34.4 8.29 9.76 9.43 17.3.22 1.43.33 2.88.44 4.28.49 6.1 1 12.42 9.53 19.69 16.85 14.34 25.17 28.19 24.73 41.17ZM205.62 42.03h-24.36a4.06 4.06 0 0 0-4.05 4.06v2.78a4.05 4.05 0 0 0 4.06 4.05h1.47c1.44 2.02 4.63 5.63 9.2 5.82 0 0-3.19-2.73-1.48-5.82h15.16a4.06 4.06 0 0 0 4.06-4.05V46.1a4.06 4.06 0 0 0-4.06-4.06Z" fill="#9ED821"/><path d="m75.9 57.86 1.25-1.08c.11-.1 2.61-2.3 1.5-4.8h-14.8a4.63 4.63 0 0 1-4.64-4.64v-2.77a4.64 4.64 0 0 1 4.63-4.63h24.37a4.63 4.63 0 0 1 4.63 4.63v2.77a4.63 4.63 0 0 1-4.63 4.63h-1.18c-1.63 2.2-4.88 5.62-9.48 5.82l-1.65.07ZM63.84 41.09a3.49 3.49 0 0 0-3.48 3.48v2.77a3.49 3.49 0 0 0 3.48 3.48h15.5l.16.3c1.12 2 .42 3.99-.52 5.33 3.51-.78 6.02-3.62 7.28-5.39l.17-.24h1.78a3.49 3.49 0 0 0 3.47-3.48v-2.77a3.48 3.48 0 0 0-3.47-3.48H63.84Z" fill="#262C20"/><path d="m0 191.72.67-.62 2.63 2.86a2.11 2.11 0 0 0 2.97.12l2.3-2.09a3.03 3.03 0 0 1 4.26.2l1.73 1.91a2.1 2.1 0 0 0 3 .12l2.01-1.88a2.99 2.99 0 0 1 2.26-.81 3.04 3.04 0 0 1 2.14 1.1l1.07 1.3a2.07 2.07 0 0 0 1.57.76 2.09 2.09 0 0 0 .89-.17c.28-.12.53-.3.73-.53l2.44-2.72.68.61-2.44 2.72a3.02 3.02 0 0 1-3.57.7 3.03 3.03 0 0 1-1.01-.8l-1.06-1.3a2.1 2.1 0 0 0-1.5-.76 2.1 2.1 0 0 0-1.58.56l-2 1.89a3.02 3.02 0 0 1-4.3-.17l-1.73-1.91a2.11 2.11 0 0 0-1.46-.69 2.07 2.07 0 0 0-1.52.55l-2.3 2.09a3.03 3.03 0 0 1-4.25-.19L0 191.72ZM231.06 72.64l.68-.61 2.63 2.85a2.11 2.11 0 0 0 2.97.13l2.3-2.1a3.03 3.03 0 0 1 4.26.21l1.72 1.9a2.1 2.1 0 0 0 3.01.13l2-1.89a3 3 0 0 1 2.27-.81 3.02 3.02 0 0 1 2.13 1.1l1.07 1.3a2.1 2.1 0 0 0 3.2.07l2.43-2.72.69.6-2.45 2.73a3.03 3.03 0 0 1-2.3 1 3.02 3.02 0 0 1-2.27-1.1l-1.07-1.3a2.11 2.11 0 0 0-1.5-.77 2.1 2.1 0 0 0-1.57.57l-2 1.88a3.02 3.02 0 0 1-4.3-.17l-1.73-1.9a2.1 2.1 0 0 0-1.47-.69 2.08 2.08 0 0 0-1.51.54l-2.3 2.09a3.02 3.02 0 0 1-4.25-.18l-2.64-2.86Z" fill="#F2F6E6"/><path d="M50.74 116.05a3.17 3.17 0 0 1-2.93-1.96 3.17 3.17 0 0 1 4.14-4.15 3.17 3.17 0 0 1 1.96 2.93 3.18 3.18 0 0 1-3.17 3.18Zm0-5.25a2.08 2.08 0 1 0 0 4.15 2.08 2.08 0 0 0 0-4.15Z" fill="#FFC01D"/><path d="M50.74 116.05a3.17 3.17 0 0 1-2.93-1.96 3.17 3.17 0 0 1 4.14-4.15 3.17 3.17 0 0 1 1.96 2.93 3.18 3.18 0 0 1-3.17 3.18Zm0-5.25a2.08 2.08 0 1 0 0 4.15 2.08 2.08 0 0 0 0-4.15Z" fill="#FFC01D"/><path d="M276.83 149.86a3.17 3.17 0 1 1 0-6.34 3.17 3.17 0 0 1 0 6.34Zm0-5.24a2.07 2.07 0 1 0 0 4.15 2.07 2.07 0 0 0 0-4.15Z" fill="#262C20"/><path d="M162.65 198.4a4.33 4.33 0 0 1-1.26 3.05 4.33 4.33 0 0 1-3.06 1.27H49.59a4.33 4.33 0 0 1-4-2.67 4.33 4.33 0 0 1-.33-1.65v-21.54a4.33 4.33 0 0 1 2.67-4 4.33 4.33 0 0 1 1.66-.33h108.74a4.33 4.33 0 0 1 3.06 1.27 4.33 4.33 0 0 1 1.26 3.06v21.54Z" fill="#FFC01D"/><path d="M223.87 198.4a4.32 4.32 0 0 1-4.33 4.32h-103.7a4.32 4.32 0 0 1-4.32-4.32v-21.54a4.32 4.32 0 0 1 4.32-4.33h103.7a4.33 4.33 0 0 1 4.33 4.33v21.54Z" fill="#D69F21"/><path d="M223.85 176.77H122.7a4.32 4.32 0 0 0-4.33 4.31v12.6a4.32 4.32 0 0 0 4.33 4.32h101.18v-21.14l-.02-.1Z" fill="#F2F6E6"/><path d="M122.69 198h101.18v-10.37h-105.5v6.06a4.32 4.32 0 0 0 4.31 4.31Z" fill="#F2F6E6"/><path d="M169.85 168.32a4.32 4.32 0 0 1-4.32 4.33H56.8a4.33 4.33 0 0 1-4.33-4.33v-21.54a4.33 4.33 0 0 1 4.33-4.32h108.74a4.32 4.32 0 0 1 4.32 4.32v21.54Z" fill="#262C20"/><path d="M231.06 168.32a4.33 4.33 0 0 1-1.26 3.06 4.33 4.33 0 0 1-3.06 1.27h-103.7a4.32 4.32 0 0 1-4.32-4.33v-21.54a4.33 4.33 0 0 1 4.32-4.32h103.7a4.32 4.32 0 0 1 4.32 4.32v21.54Z" fill="#3E4438"/><path d="M231.06 146.7H129.88a4.32 4.32 0 0 0-4.32 4.31v12.6a4.32 4.32 0 0 0 4.32 4.32h101.18V146.7Z" fill="#F2F6E6"/><path d="M129.88 167.93h101.18v-10.62h-105.5v6.3a4.32 4.32 0 0 0 4.32 4.32Z" fill="#F2F6E6"/><path d="M173.87 138.75a3.72 3.72 0 0 1-3.72 3.7h-93.5a3.72 3.72 0 0 1-3.72-3.7v-18.53a3.72 3.72 0 0 1 3.72-3.72h93.5a3.72 3.72 0 0 1 3.72 3.72v18.53Z" fill="#9ED821"/><path d="M226.5 138.75a3.72 3.72 0 0 1-3.72 3.7h-89.16a3.72 3.72 0 0 1-3.72-3.7v-18.53a3.72 3.72 0 0 1 3.71-3.72h89.17a3.72 3.72 0 0 1 3.71 3.72v18.53Z" fill="#B5D76C"/><path d="M226.48 120.14H139.5a3.71 3.71 0 0 0-3.72 3.72v10.83a3.73 3.73 0 0 0 2.3 3.43 3.73 3.73 0 0 0 1.42.29h87v-18.2l-.02-.07Z" fill="#F2F6E6"/><path d="M139.5 138.4h87v-8.92h-90.72v5.21a3.73 3.73 0 0 0 2.3 3.44 3.73 3.73 0 0 0 1.42.28Z" fill="#F2F6E6"/><path d="M261.03 178.65s-4.42-1.4-1.88-4.79c2.55-3.37 2.63-5.4.18-8.83-2.46-3.43-1.57-5.72.84-7.94 2.41-2.23-2.77-5.8.58-8.03a6.86 6.86 0 0 0 3.09-7.05c-.26-1.5-.43-6.49 3.51-5.32 3.95 1.18 4.34 6.93 3.46 9.14-.89 2.21-1.38 4.39 2.4 6.77 3.77 2.38 4.24 4.35 3.54 7.4-.7 3.04-1.46 2.78.61 7.25 0 0 2.39 3.24-.93 5.88-3.33 2.65-4.94 7.23-3.77 9.62l-11.63-4.1Z" fill="#A0D925"/><path d="M277.98 178.52h-23.64s-.72 16.14 7.28 24.2h9.08c8-8.06 7.28-24.2 7.28-24.2Z" fill="#BE4719"/><path d="M279.09 177.69h-26.04v2.5h26.04v-2.5Z" fill="#E5F2BE"/><path d="M218.92 58.74v2.5h2.42v-2.5h1.47v6.5h-1.47v-2.72h-2.42v2.73h-1.48v-6.51h1.48Zm6.18 4.84-.47 1.67h-1.53l2-6.51h1.93l2.02 6.5h-1.59l-.5-1.66h-1.87Zm1.65-1.1-.4-1.39c-.12-.38-.24-.86-.34-1.25H226l-.3 1.25-.39 1.38h1.44Zm2.49-3.74h1.48V64h2.58v1.24h-4.06v-6.51Zm4.93 0h1.47V64h2.6v1.24h-4.07v-6.51Zm10.52 3.18c0 2.14-1.3 3.43-3.2 3.43-1.93 0-3.06-1.46-3.06-3.31 0-1.95 1.25-3.41 3.16-3.41 2 0 3.1 1.5 3.1 3.3Zm-4.7.09c0 1.27.6 2.17 1.58 2.17.99 0 1.56-.95 1.56-2.2 0-1.18-.56-2.18-1.57-2.18-1 0-1.57.94-1.57 2.21Z" fill="#262C20"/><path d="M34.17 72.94a1.13 1.13 0 1 1-2.25 0 1.13 1.13 0 1 1 2.25 0Zm-2.12 7.6.27-5.76h1.46l.28 5.75h-2.01Zm11.33-6.86c0 2.8-1.7 4.5-4.19 4.5-2.52 0-4-1.92-4-4.35 0-2.55 1.63-4.46 4.14-4.46 2.62 0 4.05 1.96 4.05 4.31Zm-6.16.11c0 1.68.79 2.85 2.08 2.85 1.3 0 2.05-1.24 2.05-2.9 0-1.52-.74-2.84-2.07-2.84-1.3 0-2.06 1.24-2.06 2.9Zm8.94 4.24v-3.49l-2.7-5.03h2.2l.88 2.05c.27.62.44 1.07.66 1.63h.02c.19-.53.4-1.02.65-1.63l.85-2.05h2.17l-2.8 4.97v3.55h-1.93Zm10.5-3.6h-3.13v2.03h3.5v1.57H51.6v-8.52h5.26v1.58h-3.33v1.77h3.14v1.57Zm1.42 2.59a1.13 1.13 0 1 1 1.14 1.16 1.1 1.1 0 0 1-1.14-1.16Zm.42-1.78-.3-5.73h2.01l-.27 5.73H58.5Z" fill="#F2F6E6"/><path d="M114.77 43.92a4.55 4.55 0 0 1-1.8.3c-2.42 0-3.67-1.5-3.67-3.5 0-2.39 1.7-3.72 3.83-3.72a4.08 4.08 0 0 1 1.72.31l-.32 1.26a3.41 3.41 0 0 0-1.33-.26 2.3 2.3 0 0 0-2.23 2.3 2.3 2.3 0 0 0 2.24 2.3 4.01 4.01 0 0 0 1.32-.22l.24 1.23Zm2.64-6.8v7h-1.6v-7h1.6Zm3 5.2-.5 1.8h-1.64l2.14-7h2.08l2.18 7h-1.71l-.54-1.8h-2Zm1.78-1.18-.44-1.5c-.12-.4-.24-.92-.35-1.34h-.02c-.1.42-.2.95-.32 1.35l-.42 1.49h1.55Zm9.57-.6c0 2.3-1.4 3.7-3.44 3.7-2.08 0-3.3-1.57-3.3-3.57 0-2.1 1.35-3.67 3.42-3.67 2.15 0 3.32 1.61 3.32 3.55Zm-5.06.1c0 1.37.64 2.34 1.7 2.34 1.07 0 1.69-1.02 1.69-2.38 0-1.26-.6-2.34-1.7-2.34-1.07 0-1.7 1.02-1.7 2.38Zm5.88 2.65a.93.93 0 0 1 1.3-.87.93.93 0 0 1 .56.87.94.94 0 0 1-.27.67.93.93 0 0 1-1.32 0 .94.94 0 0 1-.27-.67Zm.34-1.47-.24-4.7h1.66l-.23 4.7h-1.19Z" fill="#9ED821"/><path d="m68.55 146.88-.06 21.34-3.17-.01.06-21.34 3.17.01Z" fill="#297CBA"/><path d="m71.72 146.89-.06 21.34-3.17-.01.06-21.34h3.17Z" fill="#F2F6E6"/><path d="m71.71 146.89-.06 21.34h3.17l.06-21.33-3.17-.01Z" fill="#F02828"/></g><defs><clipPath id="a"><path fill="#fff" d="M0 0h280v240H0z"/></clipPath></defs></svg>