<svg width="120" height="64" fill="none" xmlns="http://www.w3.org/2000/svg"><path d="m3.03 30.08-1.42-.73-.82 1.86c-.4.94-.84 1.86-.79 1.88l1.51.52c-.04-.02.37-.9.75-1.77l.77-1.76Zm3.14-4.78-1.25-.99c-.46.5-.87 1.04-1.23 1.61L2.6 27.64l1.37.82L5 26.83c.34-.55.73-1.06 1.17-1.53Zm3.99-4.11L9.1 19.98l-1.5 1.36c-.53.42-1 .91-1.4 1.45l1.17 1.07a7.6 7.6 0 0 1 1.33-1.39l1.45-1.28Zm4.64-3.35-.8-1.38-3.37 2.24.96 1.27 3.22-2.13Zm5.23-2.39-.55-1.5c-.06-.17-3.7 1.61-3.7 1.61l.71 1.43s3.47-1.7 3.54-1.54Zm5.57-1.44-.28-1.57s-1.01.13-2 .33l-1.94.6.46 1.53 1.84-.58c.94-.19 1.91-.31 1.91-.31Zm5.72-.51-.02-1.6s-1 .02-2.02.02c-.46 0-.93.03-1.38.13l-.63.09.2 1.58c.63-.12 1.27-.19 1.91-.2l1.94-.02Zm5.75.38.22-1.58s-4-.57-4.02-.4l-.06 1.59c.01-.17 3.86.39 3.86.39Zm5.66 1.19.42-1.54s-3.87-1.12-3.9-.96l-.3 1.56c.04-.16 3.78.94 3.78.94Zm5.47 1.87.6-1.47-1.85-.79c-.41-.2-.85-.35-1.3-.45l-.6-.17-.49 1.51.59.16c.43.11.85.26 1.26.46l1.8.75Zm5.27 2.45.75-1.41-1.75-.98-1.85-.77-.65 1.45 1.8.76 1.7.95Zm5.03 2.89.9-1.32-1.74-1.03-1.74-.98-.78 1.38 1.7.97 1.66.98ZM62.9 26l1.11-1.16-1.48-1.36-1.54-1.3-1 1.25 1.49 1.24L62.9 26Zm3.84 4.28 1.28-.95-1.26-1.59-1.35-1.5-1.16 1.1 1.3 1.43 1.2 1.51Zm2.79 4.9 1.5-.56c.16-.09-1.8-3.7-1.88-3.65l-1.35.86c.08-.04 1.9 3.3 1.73 3.35Zm.69 5.36 1.58.25.14-2.13-.3-2.09-1.56.35.27 1.82-.13 1.8Zm-2.38 4.8 1.21 1.04c.16.17 2.42-3.47 2.18-3.58l-1.49-.56-.17.54c-.15.3-.42.68-.65 1.07l-.67 1.07-.4.42Zm-4.31 2.62.05 1.6c.01-.07 1.1.03 2.25-.52.64-.21.9-.53 1.25-.72.2-.13.4-.29.55-.48l-1.07-1.19c-.1.13-.23.25-.36.34-.3.16-.76.6-1.1.63-.64.32-1.6.3-1.57.34Zm-5.09-1.65-.83 1.37s.9.52 1.84.97l1.37.5.65.16.35-1.56-.54-.12-1.2-.44c-.83-.4-1.64-.88-1.64-.88Zm-4.36-3.61-1.16 1.1c-.06.07 2.96 2.8 3.03 2.74l.97-1.28c-.06.08-2.9-2.5-2.84-2.56Zm-3.52-4.52-1.35.86c.35.58.73 1.14 1.14 1.67.59.83 1.25 1.6 1.25 1.6l1.23-1.02s-.63-.72-1.19-1.51a16 16 0 0 1-1.08-1.6Zm-2.62-5.09-1.49.59s.36.95.82 1.86c.28.61.59 1.22.93 1.8l1.4-.78a18.3 18.3 0 0 1-.89-1.7c-.43-.87-.77-1.77-.77-1.77Zm-1.57-5.48-1.58.25a33.32 33.32 0 0 0 .99 3.95l1.52-.49c-.22-.6-.4-1.22-.54-1.84-.23-.94-.39-1.87-.4-1.87Zm-.25-5.65-1.59-.19-.08 2.05.09 2.05 1.59-.1-.09-1.91.08-1.9Z" fill="#262C20"/><path d="m47.5 16.49-1.5-.61s-.4.94-.7 1.92l-.49 1.99 1.57.33.46-1.85c.27-.9.65-1.78.65-1.78Zm2.94-4.81-1.26-1a22 22 0 0 0-2.3 3.39l1.43.75c-.11-.07 2.03-3.22 2.13-3.14Zm4.14-3.87-.96-1.27s-.83.58-1.6 1.25l-1.5 1.4 1.15 1.1 1.4-1.3a19.9 19.9 0 0 1 1.5-1.18Zm4.92-2.95-.71-1.43s-.92.43-1.8.91L55.26 5.4l.86 1.34 1.65-1c.85-.48 1.73-.88 1.73-.88Zm5.34-2.06-.43-1.55c-.03-.12-3.84 1.33-3.84 1.33l.64 1.47s3.6-1.38 3.63-1.25Zm5.65-1.06L70.35.16l-2.01.26c-1 .14-2 .34-2 .34l.33 1.56s.95-.2 1.9-.32l1.92-.26Zm5.76-.02.11-1.59-2.01-.1C73.67-.02 73 0 72.32.06l.06 1.6c.64-.08 1.29-.09 1.93-.03l1.94.1Zm5.72.84.33-1.55L80.33.6l-2-.26-.2 1.59 1.93.25 1.9.4Zm5.56 1.58.54-1.5a60.9 60.9 0 0 0-3.84-1.2L83.82 3s3.74 1.07 3.71 1.15Zm5.35 2.26.7-1.43s-3.64-1.7-3.67-1.63l-.6 1.48c.04-.07 3.57 1.58 3.57 1.58Zm5.05 2.85.86-1.35-1.7-1.06-1.76-.96-.76 1.4 1.71.93 1.65 1.04Zm4.73 3.37 1-1.24s-.77-.65-1.6-1.22l-1.62-1.2-.9 1.32 1.57 1.15c.8.56 1.55 1.19 1.55 1.19Zm4.31 3.88 1.14-1.12-1.45-1.4a16.6 16.6 0 0 0-1.5-1.34l-1.04 1.2c.06-.06 2.85 2.66 2.85 2.66Zm3.81 4.35 1.26-.96-1.24-1.59-1.34-1.5-1.18 1.08 1.3 1.45 1.2 1.52Zm3.21 4.81 1.38-.79c.09-.05-2.14-3.4-2.14-3.4l-1.3.91s2.14 3.23 2.06 3.28Zm2.44 5.2 1.5-.55-.78-1.86c-.38-.94-.84-1.85-.84-1.85l-1.42.72s.43.86.8 1.76l.74 1.78Zm1.46 5.54 1.58-.25s-.82-3.98-.93-3.95l-1.54.46c.12-.03.89 3.74.89 3.74Zm.28 5.7 1.6.1.05-2.04c0-.68-.05-1.36-.14-2.04l-1.58.15c.08.63.12 1.27.12 1.91l-.05 1.92Zm-1 5.6 1.53.45.55-1.96.31-2.02-1.59-.21-.28 1.9-.52 1.84Zm-2.2 5.25 1.4.77c.13.07 1.72-3.68 1.72-3.68l-1.5-.56s-1.5 3.53-1.62 3.47Zm-3.21 4.75 1.24 1.02s2.49-3.2 2.37-3.28l-1.34-.86-.31.52-.8 1.06-1.16 1.54Zm-4.01 4.15 1.07 1.18a12.1 12.1 0 0 0 1.48-1.37l1.38-1.47-1.18-1.07-1.33 1.4a12 12 0 0 1-1.42 1.33Z" fill="#262C20"/></svg>