<svg width="29" height="30" fill="none" xmlns="http://www.w3.org/2000/svg"><g filter="url('#filter0_d_233_5994')"><circle cx="14" cy="14.056" r="14" fill="#9ED821"/><circle cx="14" cy="14.056" r="13.5" stroke="#fff"/></g><g clip-path="url('#clip0_233_5994')"><path d="M10.69 14.512h1.535v6.318c0 .125.101.226.226.226h2.602a.226.226 0 0 0 .226-.226v-6.288h1.764a.226.226 0 0 0 .224-.2l.268-2.326a.226.226 0 0 0-.224-.252H15.28v-1.458c0-.44.237-.662.703-.662h1.33a.226.226 0 0 0 .225-.226V7.283a.226.226 0 0 0-.226-.226H15.48a1.78 1.78 0 0 0-.084-.001c-.318 0-1.422.062-2.294.865-.967.889-.832 1.954-.8 2.138v1.705H10.69a.226.226 0 0 0-.226.226v2.296c0 .125.1.226.226.226Z" fill="#262C20"/></g><defs><clipPath id="clip0_233_5994"><path fill="#fff" transform="translate(7 7.056)" d="M0 0h14v14H0z"/></clipPath><filter id="filter0_d_233_5994" x="0" y=".056" width="29" height="29" filterUnits="userSpaceOnUse" color-interpolation-filters="sRGB"><feFlood flood-opacity="0" result="BackgroundImageFix"/><feColorMatrix in="SourceAlpha" values="0 0 0 0 0 0 0 0 0 0 0 0 0 0 0 0 0 0 127 0" result="hardAlpha"/><feOffset dx="1" dy="1"/><feComposite in2="hardAlpha" operator="out"/><feColorMatrix values="0 0 0 0 1 0 0 0 0 1 0 0 0 0 1 0 0 0 1 0"/><feBlend in2="BackgroundImageFix" result="effect1_dropShadow_233_5994"/><feBlend in="SourceGraphic" in2="effect1_dropShadow_233_5994" result="shape"/></filter></defs></svg>