<svg width="29" height="30" viewBox="0 0 29 30" fill="none" xmlns="http://www.w3.org/2000/svg">
<g filter="url('#filter0_d_233_5994')">
<circle cx="14" cy="14.0557" r="14" fill="#9ED821"></circle>
<circle cx="14" cy="14.0557" r="13.5" stroke="white"></circle>
</g>
<g clip-path="url('#clip0_233_5994')">
<path d="M10.6907 14.5121H12.2253V20.8299C12.2253 20.9546 12.3263 21.0557 12.4511 21.0557H15.0531C15.1778 21.0557 15.2789 20.9546 15.2789 20.8299V14.5418H17.0431C17.1578 14.5418 17.2543 14.4557 17.2674 14.3418L17.5353 12.0159C17.5427 11.9519 17.5224 11.8878 17.4796 11.8398C17.4368 11.7918 17.3754 11.7643 17.3111 11.7643H15.279V10.3063C15.279 9.86677 15.5156 9.6439 15.9824 9.6439C16.0489 9.6439 17.3111 9.6439 17.3111 9.6439C17.4358 9.6439 17.5369 9.54279 17.5369 9.4181V7.28314C17.5369 7.15841 17.4358 7.05734 17.3111 7.05734H15.48C15.4671 7.0567 15.4384 7.05566 15.3961 7.05566C15.0784 7.05566 13.9741 7.11803 13.1018 7.92055C12.1352 8.80986 12.2696 9.87468 12.3017 10.0593V11.7642H10.6907C10.5659 11.7642 10.4648 11.8653 10.4648 11.99V14.2862C10.4648 14.4109 10.5659 14.5121 10.6907 14.5121Z" fill="#262C20"></path>
</g>
<defs>
<filter id="filter0_d_233_5994" x="0" y="0.0556641" width="29" height="29" filterUnits="userSpaceOnUse" color-interpolation-filters="sRGB">
<feFlood flood-opacity="0" result="BackgroundImageFix"></feFlood>
<feColorMatrix in="SourceAlpha" type="matrix" values="0 0 0 0 0 0 0 0 0 0 0 0 0 0 0 0 0 0 127 0" result="hardAlpha"></feColorMatrix>
<feOffset dx="1" dy="1"></feOffset>
<feComposite in2="hardAlpha" operator="out"></feComposite>
<feColorMatrix type="matrix" values="0 0 0 0 1 0 0 0 0 1 0 0 0 0 1 0 0 0 1 0"></feColorMatrix>
<feBlend mode="normal" in2="BackgroundImageFix" result="effect1_dropShadow_233_5994"></feBlend>
<feBlend mode="normal" in="SourceGraphic" in2="effect1_dropShadow_233_5994" result="shape"></feBlend>
</filter>
<clipPath id="clip0_233_5994">
<rect width="14" height="14" fill="white" transform="translate(7 7.05566)"></rect>
</clipPath>
</defs>
</svg>
