<svg xmlns="http://www.w3.org/2000/svg" width="17" height="18" viewBox="0 0 17 18" fill="none">
  <g filter="url('#filter0_d_79_115')">
    <circle cx="8" cy="8.5" r="8" fill="#F2F6E6"></circle>
    <circle cx="8" cy="8.5" r="7.5" stroke="#262C20"></circle>
  </g>
  <path d="M11.9357 4.51571C12.0528 4.57063 11.9861 4.7453 11.9231 4.80833C11.644 5.08294 11.3622 5.35486 11.0858 5.63217C10.8877 5.83116 10.6932 6.03464 10.5032 6.24083C10.3249 6.43441 10.1494 6.63069 9.98281 6.83327C9.78652 7.07187 9.59745 7.31678 9.40927 7.56168C9.10134 7.96325 8.81682 8.38102 8.55481 8.8132C8.34772 9.15444 8.14424 9.49749 7.94976 9.84593C7.8111 10.0935 7.68505 10.3492 7.55989 10.6049C7.42844 10.8724 7.30059 11.1407 7.17813 11.4117C7.07639 11.6359 6.98365 11.8646 6.88821 12.0915C6.8495 12.1833 6.81168 12.276 6.76936 12.3778C6.74505 12.34 6.72434 12.3094 6.70634 12.2778C6.53887 11.9924 6.375 11.7052 6.20483 11.4225C5.98244 11.0515 5.75014 10.686 5.48993 10.3402C5.32066 10.116 5.15319 9.88915 4.97041 9.67666C4.77053 9.44346 4.55534 9.22197 4.34285 8.99958C4.26182 8.91404 4.16998 8.83931 4.08354 8.75828C4.07634 8.75107 4.06553 8.73937 4.05923 8.73307C3.971 8.63853 3.9917 8.54939 4.05383 8.48456C4.06283 8.47556 4.08174 8.46205 4.09345 8.45575C4.17628 8.41433 4.24291 8.40803 4.35726 8.41073C4.47701 8.42334 4.58055 8.43954 4.68769 8.46926C4.90919 8.53228 5.12618 8.60611 5.33506 8.70516C5.54305 8.8033 5.75464 8.89153 5.96083 8.99238C6.15621 9.08691 6.34619 9.19046 6.53887 9.2913C6.59559 9.32101 6.59559 9.32101 6.63881 9.27059C6.94404 8.91764 7.24476 8.5611 7.55629 8.21355C7.89573 7.83449 8.23968 7.45904 8.59172 7.09168C8.93387 6.73423 9.28321 6.38129 9.64066 6.03914C9.92698 5.76543 10.2286 5.50702 10.5275 5.24681C10.7418 5.06043 10.9723 4.89386 11.2136 4.7444C11.3496 4.65977 11.4936 4.59134 11.6458 4.54002C11.7385 4.5076 11.843 4.48239 11.9357 4.51571Z" fill="#262C20"></path>
  <defs>
    <filter id="filter0_d_79_115" x="0" y="0.5" width="17" height="17" filterUnits="userSpaceOnUse" color-interpolation-filters="sRGB">
      <feFlood flood-opacity="0" result="BackgroundImageFix"></feFlood>
      <feColorMatrix in="SourceAlpha" type="matrix" values="0 0 0 0 0 0 0 0 0 0 0 0 0 0 0 0 0 0 127 0" result="hardAlpha"></feColorMatrix>
      <feOffset dx="1" dy="1"></feOffset>
      <feComposite in2="hardAlpha" operator="out"></feComposite>
      <feColorMatrix type="matrix" values="0 0 0 0 0.14902 0 0 0 0 0.172549 0 0 0 0 0.12549 0 0 0 1 0"></feColorMatrix>
      <feBlend mode="normal" in2="BackgroundImageFix" result="effect1_dropShadow_79_115"></feBlend>
      <feBlend mode="normal" in="SourceGraphic" in2="effect1_dropShadow_79_115" result="shape"></feBlend>
    </filter>
  </defs>
</svg>