<svg width="18" height="18" viewBox="0 0 18 18" fill="none" xmlns="http://www.w3.org/2000/svg">
<g filter="url('#filter0_d_233_5650')">
<circle cx="8.2708" cy="8.55085" r="8" transform="rotate(0.0748204 8.2708 8.55085)" fill="#9ED821"></circle>
<circle cx="8.2708" cy="8.55085" r="7.5" transform="rotate(0.0748204 8.2708 8.55085)" stroke="#262C20"></circle>
</g>
<path d="M12.4686 4.49241C12.5934 4.55115 12.5221 4.73738 12.4548 4.80452C12.1567 5.09705 11.8557 5.3867 11.5605 5.68212C11.3489 5.89409 11.1412 6.11087 10.9382 6.33054C10.7478 6.53678 10.5603 6.7459 10.3823 6.96176C10.1726 7.21599 9.97059 7.47695 9.76952 7.73792C9.4405 8.16583 9.13644 8.61106 8.85636 9.07169C8.63499 9.43539 8.41746 9.80102 8.20953 10.1724C8.06128 10.4363 7.92647 10.7089 7.79262 10.9815C7.65203 11.2666 7.51528 11.5526 7.38429 11.8415C7.27545 12.0805 7.17621 12.3243 7.07409 12.5662C7.03267 12.6641 6.9922 12.763 6.94692 12.8714C6.92104 12.8311 6.89899 12.7984 6.87983 12.7647C6.70159 12.4601 6.5272 12.1535 6.34608 11.8517C6.10938 11.4557 5.8621 11.0654 5.58503 10.6963C5.40479 10.4569 5.22647 10.2146 5.0318 9.98772C4.81892 9.7387 4.58969 9.50214 4.36335 9.26462C4.27703 9.17327 4.17917 9.09343 4.08709 9.00687C4.07941 8.99918 4.0679 8.98668 4.06119 8.97995C3.9672 8.87898 3.98942 8.78393 4.05577 8.71487C4.06539 8.70528 4.08558 8.6909 4.09807 8.68419C4.18649 8.64013 4.25757 8.6335 4.37953 8.63654C4.50725 8.65015 4.61767 8.66759 4.73192 8.69943C4.96809 8.76696 5.19944 8.84602 5.42212 8.95195C5.64383 9.05693 5.8694 9.15134 6.0892 9.25919C6.29747 9.36031 6.49997 9.47102 6.70536 9.57885C6.76582 9.61062 6.76582 9.61062 6.81199 9.5569C7.13806 9.18085 7.45933 8.80095 7.79211 8.43067C8.15471 8.02681 8.5221 7.62681 8.89813 7.23545C9.26358 6.85465 9.63671 6.47866 10.0185 6.11421C10.3243 5.82264 10.6463 5.54743 10.9656 5.27029C11.1944 5.07179 11.4405 4.89443 11.6981 4.73534C11.8432 4.64525 11.997 4.57246 12.1594 4.51793C12.2583 4.48349 12.3698 4.45674 12.4686 4.49241Z" fill="#262C20"></path>
<defs>
<filter id="filter0_d_233_5650" x="0.271484" y="0.550903" width="17" height="17" filterUnits="userSpaceOnUse" color-interpolation-filters="sRGB">
<feFlood flood-opacity="0" result="BackgroundImageFix"></feFlood>
<feColorMatrix in="SourceAlpha" type="matrix" values="0 0 0 0 0 0 0 0 0 0 0 0 0 0 0 0 0 0 127 0" result="hardAlpha"></feColorMatrix>
<feOffset dx="1" dy="1"></feOffset>
<feComposite in2="hardAlpha" operator="out"></feComposite>
<feColorMatrix type="matrix" values="0 0 0 0 0.14902 0 0 0 0 0.172549 0 0 0 0 0.12549 0 0 0 1 0"></feColorMatrix>
<feBlend mode="normal" in2="BackgroundImageFix" result="effect1_dropShadow_233_5650"></feBlend>
<feBlend mode="normal" in="SourceGraphic" in2="effect1_dropShadow_233_5650" result="shape"></feBlend>
</filter>
</defs>
</svg>
