<svg xmlns="http://www.w3.org/2000/svg" width="17" height="18" fill="none"><g filter="url('#filter0_d_79_115')"><circle cx="8" cy="8.5" r="8" fill="#F2F6E6"/><circle cx="8" cy="8.5" r="7.5" stroke="#262C20"/></g><path d="M11.936 4.516c.117.055.05.23-.013.292-.279.275-.56.547-.837.824-.198.2-.393.403-.583.609-.178.193-.354.39-.52.592-.196.239-.386.484-.574.729-.308.401-.592.819-.854 1.251-.207.341-.41.684-.605 1.033a27.597 27.597 0 0 0-.772 1.566c-.102.224-.194.453-.29.68l-.119.286c-.024-.038-.045-.069-.063-.1-.167-.286-.331-.573-.501-.856a12.349 12.349 0 0 0-.715-1.082c-.17-.224-.337-.45-.52-.663-.2-.234-.415-.455-.627-.677-.081-.086-.173-.16-.26-.242l-.024-.025c-.088-.094-.067-.184-.005-.248a.212.212 0 0 1 .04-.03.496.496 0 0 1 .263-.044c.12.012.224.029.33.058.222.063.44.137.648.236.208.098.42.187.626.287.195.095.385.198.578.3.057.029.057.029.1-.021.305-.353.606-.71.917-1.057.34-.38.684-.755 1.036-1.122.342-.358.691-.71 1.049-1.053.286-.274.588-.532.886-.792.215-.187.445-.353.687-.503.136-.084.28-.153.432-.204.092-.032.197-.058.29-.024Z" fill="#262C20"/><defs><filter id="filter0_d_79_115" x="0" y=".5" width="17" height="17" filterUnits="userSpaceOnUse" color-interpolation-filters="sRGB"><feFlood flood-opacity="0" result="BackgroundImageFix"/><feColorMatrix in="SourceAlpha" values="0 0 0 0 0 0 0 0 0 0 0 0 0 0 0 0 0 0 127 0" result="hardAlpha"/><feOffset dx="1" dy="1"/><feComposite in2="hardAlpha" operator="out"/><feColorMatrix values="0 0 0 0 0.14902 0 0 0 0 0.172549 0 0 0 0 0.12549 0 0 0 1 0"/><feBlend in2="BackgroundImageFix" result="effect1_dropShadow_79_115"/><feBlend in="SourceGraphic" in2="effect1_dropShadow_79_115" result="shape"/></filter></defs></svg>