<svg width="18" height="18" fill="none" xmlns="http://www.w3.org/2000/svg"><g filter="url('#filter0_d_233_5650')" transform="rotate(.075 8.27 8.55)"><circle cx="8.271" cy="8.551" r="8" fill="#9ED821"/><circle cx="8.271" cy="8.551" r="7.5" stroke="#262C20"/></g><path d="M12.469 4.492c.124.06.053.245-.014.313-.298.292-.6.582-.895.877-.211.212-.419.429-.622.649-.19.206-.378.415-.556.63-.21.255-.411.516-.612.777-.33.428-.634.873-.914 1.334-.221.363-.439.729-.646 1.1-.149.264-.284.537-.417.81-.141.285-.278.57-.409.86-.109.239-.208.482-.31.724l-.127.305c-.026-.04-.048-.073-.067-.106-.178-.305-.353-.612-.534-.913a13.162 13.162 0 0 0-.761-1.156c-.18-.24-.359-.481-.553-.708-.213-.25-.442-.486-.669-.723-.086-.092-.184-.172-.276-.258l-.026-.027c-.094-.101-.072-.196-.005-.265.01-.01.03-.024.042-.03a.53.53 0 0 1 .282-.048c.127.013.238.03.352.062.236.068.467.147.69.253.222.105.447.2.667.307.208.101.411.212.616.32.06.032.06.032.107-.022.326-.376.647-.756.98-1.126.363-.404.73-.804 1.106-1.196.366-.38.739-.756 1.12-1.12.306-.292.628-.568.948-.845.228-.198.475-.376.732-.535a2.2 2.2 0 0 1 .461-.217c.1-.035.21-.061.31-.026Z" fill="#262C20"/><defs><filter id="filter0_d_233_5650" x=".271" y=".551" width="17" height="17" filterUnits="userSpaceOnUse" color-interpolation-filters="sRGB"><feFlood flood-opacity="0" result="BackgroundImageFix"/><feColorMatrix in="SourceAlpha" values="0 0 0 0 0 0 0 0 0 0 0 0 0 0 0 0 0 0 127 0" result="hardAlpha"/><feOffset dx="1" dy="1"/><feComposite in2="hardAlpha" operator="out"/><feColorMatrix values="0 0 0 0 0.14902 0 0 0 0 0.172549 0 0 0 0 0.12549 0 0 0 1 0"/><feBlend in2="BackgroundImageFix" result="effect1_dropShadow_233_5650"/><feBlend in="SourceGraphic" in2="effect1_dropShadow_233_5650" result="shape"/></filter></defs></svg>