<svg width="734" height="398" viewBox="0 0 734 398" fill="none" xmlns="http://www.w3.org/2000/svg">
<g clip-path="url('#clip0_625_183')">
<path d="M182.001 340.2C269.372 340.2 340.201 269.371 340.201 182C340.201 94.6286 269.372 23.8 182.001 23.8C94.6293 23.8 23.8008 94.6286 23.8008 182C23.8008 269.371 94.6293 340.2 182.001 340.2Z" fill="#262C20"></path>
<path d="M213.3 227.2C211.5 226.7 210.1 225.9 209.1 224.8C208.1 223.7 207.2 222.1 206.3 220.1L167.8 127L147.7 134.6L153.9 148.5L128.5 213.4C127.1 217 125.8 219.8 124.5 221.7C123.3 223.6 121.6 224.9 119.4 225.9C117.3 226.8 114.1 227.6 109.9 228.3V233.3H151.5V228.3C146.7 227.6 143.1 226.7 140.7 225.7C138.4 224.7 137 223.2 136.6 221.4C136.3 219.5 136.7 216.9 137.8 213.6L141.7 203.3H172L177.3 217.8C178.5 220.8 178.8 223 178.4 224.5C177.9 225.9 176.6 226.9 174.5 227.4C172.4 227.9 169.3 228.2 165.4 228.3V233.3H220.9V228.3C217.7 228.1 215.1 227.7 213.3 227.2ZM144.7 195.7L156.9 163.8H157.5L169.2 195.7H144.7ZM221.4 233.3V228.2L277.6 137.1H240.9C238.2 141.9 235.8 146.3 233.9 150.3C232 154.3 230.6 157.7 229.7 160.5L224.1 160.2L231 129.8H309.1V134.7L252.5 226H291.4C293.7 222.6 295.7 219.5 297.4 216.7C299.1 213.8 300.6 210.9 302 208C303.4 205.1 304.8 201.8 306.1 198.2L311.7 198.5L303.3 233.5H221.4V233.3ZM319.7 233.3V228.2L375.9 137.1H339.2C336.5 141.9 334.1 146.3 332.2 150.3C330.3 154.3 328.9 157.7 328 160.5L322.4 160.2L329.3 129.8H407.4V134.7L350.8 226H389.7C392 222.6 394 219.5 395.7 216.7C397.4 213.8 398.9 210.9 400.3 208C401.7 205.1 403.1 201.8 404.4 198.2L410 198.5L401.6 233.5H319.7V233.3ZM515.1 227.2C513.3 226.7 511.9 225.9 510.9 224.8C509.9 223.7 509 222.1 508.1 220.1L469.6 127L449.5 134.6L455.7 148.5L430.3 213.4C428.9 217 427.6 219.8 426.3 221.7C425.1 223.6 423.4 224.9 421.2 225.9C419.1 226.8 415.9 227.6 411.7 228.3V233.3H453.3V228.3C448.5 227.6 444.9 226.7 442.5 225.7C440.2 224.7 438.8 223.2 438.4 221.4C438.1 219.5 438.5 216.9 439.6 213.6L443.5 203.3H473.7L479 217.8C480.2 220.8 480.5 223 480.1 224.5C479.6 225.9 478.3 226.9 476.2 227.4C474.1 227.9 471 228.2 467.1 228.3V233.3H522.6V228.3C519.4 228.1 516.9 227.7 515.1 227.2ZM446.5 195.7L458.7 163.8H459.3L471 195.7H446.5ZM616.7 225.7L590.8 185.4C596.7 183.3 601.3 180 604.6 175.6C607.9 171.2 609.6 165.7 609.6 159.2C609.6 152.8 608.1 147.4 605 143.1C602 138.7 597.7 135.4 592.4 133.2C587 130.9 580.8 129.8 573.7 129.8H525.2V134.7L536.7 137.6V225.5L525.2 228.5V233.5H575.2V228.5L559.8 225.5V188.4H565.2L592.3 233.5H629V228.5L616.7 225.7ZM584.9 166.2C584.1 168.9 582.7 171.4 580.7 173.6C578.8 175.8 576.4 177.6 573.4 178.9C570.4 180.2 566.5 180.9 561.6 180.9H559.7V137H562.5C565.3 137 567.5 137.1 569.3 137.4C571.1 137.6 572.8 138.1 574.3 138.7C577.8 140.1 580.6 142.4 582.8 145.7C585 148.9 586.1 153 586.1 157.8C586.1 160.7 585.7 163.5 584.9 166.2ZM730 160.9C727.7 154.5 724.4 148.8 719.9 144C715.5 139.1 710 135.3 703.4 132.5C696.9 129.7 689.4 128.4 681 128.4C672.6 128.4 665.1 129.8 658.6 132.5C652.1 135.3 646.6 139.1 642.1 144C637.7 148.8 634.3 154.5 632 160.9C629.7 167.3 628.6 174.2 628.6 181.5C628.6 188.8 629.7 195.7 632 202.1C634.3 208.5 637.7 214.1 642.1 219C646.6 223.9 652.1 227.8 658.6 230.6C665.1 233.4 672.5 234.7 681 234.7C689.5 234.7 696.9 233.3 703.4 230.6C709.9 227.8 715.4 223.9 719.9 219C724.4 214.1 727.8 208.5 730 202.1C732.3 195.7 733.5 188.8 733.5 181.5C733.5 174.2 732.3 167.3 730 160.9ZM706.3 193.3C705.9 197.5 705.1 201.6 704 205.5C703 209.5 701.5 213 699.5 216.3C697.5 219.5 695 222.1 692 224.1C689 226 685.3 227 680.9 227C676.6 227 672.9 226 669.8 224.1C666.8 222.1 664.3 219.6 662.4 216.3C660.5 213.1 659 209.5 657.9 205.5C656.8 201.5 656.1 197.4 655.6 193.3C655.2 189.1 655 185.2 655 181.5C655 177.8 655.2 173.9 655.6 169.8C656 165.7 656.8 161.6 657.9 157.7C659 153.8 660.5 150.2 662.4 147C664.4 143.8 666.8 141.2 669.8 139.3C672.8 137.4 676.5 136.4 680.9 136.4C685.3 136.4 689 137.4 692.1 139.3C695.2 141.2 697.7 143.8 699.6 147C701.6 150.2 703.1 153.7 704.1 157.7C705.2 161.7 705.9 165.7 706.4 169.8C706.8 173.9 707 177.8 707 181.5C706.9 185.2 706.7 189.1 706.3 193.3ZM118.2 396.3V391.3L129.7 388.6V300.1L118.2 297.6V292.7H165.5V297.6L152.9 300.3V388.6H186.4C189.1 384.9 191.4 381.1 193.3 377.4C195.2 373.6 197.1 369.4 198.7 364.8H205.7L200 396.3H118.2ZM212.2 396.3V391.3L223.7 388.4V300.2L212.2 297.5V292.6H258.1V297.5L246.8 300.2V388.4L258.1 391.3V396.3H212.2ZM356.7 397.7L290.4 314.1V388.6L302.2 391.3V396.3H269.1V391.3L281.1 388.6V300.1L269.2 297.6V292.7H305.7L356.7 356.6V300.2L344.7 297.7V292.8H377.9V297.7L365.9 300.2V397.8H356.7V397.7ZM439 397.7C428.5 397.7 419.3 395.5 411.5 391.2C403.7 386.9 397.6 380.9 393.2 373.1C388.8 365.3 386.7 356.3 386.7 346C386.7 338 388 330.6 390.6 323.9C393.2 317.2 396.9 311.4 401.8 306.6C406.6 301.7 412.3 297.9 418.9 295.2C425.5 292.5 432.8 291.2 440.7 291.2C446.7 291.2 452.3 291.9 457.6 293.4C462.9 294.9 467.2 296.9 470.5 299.5H471L476.9 292.6H481.3V325.5H475.2C472.1 319.1 469 313.9 465.9 310.1C462.8 306.3 459.4 303.5 455.7 301.9C452.1 300.2 447.9 299.3 443.2 299.3C433 299.3 425.3 303.1 420.2 310.8C415.1 318.4 412.6 330 412.6 345.4C412.6 360.9 414.8 372.1 419.1 379.2C423.4 386.2 430.1 389.7 439.2 389.7C443.1 389.7 446.6 389 449.8 387.6C453 386.2 455.4 384.3 456.9 382C457.5 381.1 457.9 380.1 458.1 379.1C458.3 378.1 458.4 376.6 458.4 374.5V351.7L446.3 349.1V344.2H493.5V349.1L481.5 351.7V385.2C478.7 387.5 474.9 389.6 470.3 391.5C465.6 393.4 460.6 394.8 455.1 395.9C449.5 397.2 444.2 397.7 439 397.7ZM552.6 397.7C544.5 397.7 537.4 396.5 531.1 394C524.8 391.5 519.9 387.9 516.4 383.3C514.3 380.7 512.8 377.7 511.9 374.1C511 370.6 510.5 366 510.5 360.4V300.2L499.1 297.7V292.8H545.7V297.7L533.9 300.2V360.4C533.9 369.6 535.9 376.7 540 381.8C544.1 386.8 549.9 389.3 557.3 389.3C565.6 389.3 571.8 386.5 575.8 380.9C577.9 378 579.4 374.2 580.4 369.5C581.4 364.7 581.8 358.5 581.8 350.7V300.2L569.9 297.7V292.8H603V297.7L591.1 300.2V358.3C591.1 363.4 590.6 368.1 589.5 372.4C588.5 376.6 586.9 380.3 584.9 383.5C581.8 388.3 577.6 391.8 572.2 394.2C567.1 396.5 560.5 397.7 552.6 397.7ZM701.6 390.2C699.8 389.7 698.4 388.9 697.4 387.8C696.4 386.7 695.5 385.1 694.6 383.1L656.1 290L636 297.6L642.2 311.5L616.8 376.4C615.4 380 614.1 382.8 612.8 384.7C611.6 386.6 609.9 387.9 607.7 388.9C605.6 389.8 602.4 390.6 598.2 391.3V396.3H639.8V391.3C635 390.6 631.3 389.7 629 388.7C626.6 387.7 625.3 386.2 624.9 384.4C624.6 382.5 625 379.9 626.1 376.6L630 366.3H660.2L665.5 380.8C666.7 383.8 667 386 666.6 387.5C666.1 388.9 664.8 389.9 662.7 390.4C660.6 390.9 657.6 391.2 653.7 391.3V396.3H709.2V391.3C705.9 391.1 703.4 390.7 701.6 390.2ZM632.9 358.7L645.1 326.8H645.6L657.3 358.7H632.9Z" fill="#F2F6E6"></path>
<path d="M209.8 224.3C208 223.8 206.6 223 205.6 221.9C204.6 220.8 203.7 219.2 202.8 217.2L164.3 124L144.2 131.6L150.4 145.5L125 210.5C123.6 214.1 122.3 216.9 121 218.8C119.8 220.6 118.1 222 115.9 222.9C113.8 223.8 110.6 224.6 106.4 225.4V230.4H148V225.4C143.2 224.7 139.6 223.8 137.2 222.8C134.9 221.7 133.5 220.3 133.1 218.4C132.8 216.5 133.2 213.9 134.3 210.6L138.2 200.3H168.4L173.7 214.9C174.9 217.9 175.2 220.1 174.8 221.6C174.3 223 173 224 170.9 224.5C168.8 225 165.7 225.3 161.8 225.4V230.4H217.3V225.4C214.2 225.2 211.6 224.8 209.8 224.3ZM141.2 192.8L153.4 160.9H154L165.7 192.8H141.2ZM217.9 230.4V225.3L274.1 134.2H237.4C234.7 139 232.3 143.4 230.4 147.4C228.5 151.4 227.1 154.8 226.2 157.6L220.6 157.3L227.5 126.9H305.6V131.8L249.1 223H288C290.3 219.6 292.3 216.5 294 213.7C295.7 210.8 297.2 207.9 298.6 205C300 202.1 301.4 198.8 302.7 195.2L308.3 195.5L299.9 230.5H217.9V230.4ZM316.2 230.4V225.3L372.4 134.2H335.7C333 139 330.6 143.4 328.7 147.4C326.8 151.4 325.4 154.8 324.5 157.6L318.9 157.3L325.8 126.9H403.9V131.8L347.3 223H386.2C388.5 219.6 390.5 216.5 392.2 213.7C393.9 210.8 395.4 207.9 396.8 205C398.2 202.1 399.6 198.8 400.9 195.2L406.5 195.5L398.1 230.5H316.2V230.4ZM511.6 224.3C509.8 223.8 508.4 223 507.4 221.9C506.4 220.8 505.5 219.2 504.6 217.2L466.1 124L446 131.6L452.2 145.5L426.8 210.4C425.4 214 424.1 216.8 422.8 218.7C421.6 220.5 419.9 221.9 417.7 222.8C415.6 223.7 412.4 224.5 408.2 225.3V230.3H449.8V225.3C445 224.6 441.4 223.7 439 222.7C436.7 221.6 435.3 220.2 434.9 218.3C434.6 216.4 435 213.8 436.1 210.5L440 200.2H470.2L475.5 214.8C476.7 217.8 477 220 476.6 221.5C476.1 222.9 474.8 223.9 472.7 224.4C470.6 224.9 467.5 225.2 463.6 225.3V230.3H519.1V225.3C515.9 225.2 513.4 224.8 511.6 224.3ZM443 192.8L455.2 160.9H455.8L467.5 192.8H443ZM613.2 222.8L587.3 182.5C593.2 180.4 597.8 177.1 601.1 172.7C604.4 168.3 606.1 162.8 606.1 156.3C606.1 149.9 604.6 144.5 601.5 140.2C598.5 135.8 594.2 132.5 588.9 130.3C583.5 128 577.3 126.9 570.2 126.9H521.7V131.8L533.2 134.7V222.6L521.7 225.6V230.6H571.7V225.6L556.3 222.6V185.5H561.7L588.8 230.6H625.5V225.6L613.2 222.8ZM581.4 163.3C580.6 166 579.2 168.5 577.2 170.7C575.3 172.9 572.9 174.7 569.9 176C566.9 177.3 563 178 558.1 178H556.2V134.1H559C561.8 134.1 564 134.2 565.8 134.5C567.6 134.7 569.3 135.1 570.8 135.8C574.3 137.2 577.1 139.5 579.3 142.8C581.5 146 582.6 150.1 582.6 154.9C582.6 157.7 582.2 160.6 581.4 163.3ZM726.5 158C724.2 151.6 720.9 145.9 716.4 141.1C712 136.2 706.5 132.4 699.9 129.6C693.4 126.8 685.9 125.5 677.5 125.5C669.1 125.5 661.6 126.9 655.1 129.6C648.6 132.4 643.1 136.2 638.6 141.1C634.2 146 630.8 151.6 628.5 158C626.2 164.4 625.1 171.3 625.1 178.6C625.1 185.9 626.2 192.8 628.5 199.2C630.8 205.6 634.2 211.2 638.6 216.1C643.1 221 648.6 224.8 655.1 227.7C661.6 230.5 669 231.8 677.5 231.8C686 231.8 693.4 230.4 699.9 227.7C706.4 224.9 711.9 221 716.4 216.1C720.9 211.2 724.3 205.6 726.5 199.2C728.8 192.8 730 185.9 730 178.6C730 171.3 728.8 164.4 726.5 158ZM702.8 190.4C702.4 194.6 701.6 198.7 700.5 202.6C699.5 206.6 698 210.1 696 213.4C694 216.6 691.5 219.2 688.5 221.2C685.5 223.1 681.8 224 677.4 224C673.1 224 669.4 223 666.3 221.2C663.3 219.2 660.8 216.7 658.9 213.4C657 210.2 655.5 206.6 654.4 202.6C653.3 198.6 652.6 194.5 652.1 190.4C651.7 186.2 651.5 182.3 651.5 178.6C651.5 174.9 651.7 171 652.1 166.9C652.5 162.8 653.3 158.7 654.4 154.8C655.5 150.9 657 147.3 658.9 144.1C660.9 140.9 663.3 138.3 666.3 136.4C669.3 134.5 673 133.5 677.4 133.5C681.8 133.5 685.5 134.5 688.6 136.4C691.7 138.3 694.2 140.9 696.1 144.1C698.1 147.3 699.6 150.8 700.6 154.8C701.7 158.7 702.4 162.8 702.9 166.9C703.3 171 703.5 174.9 703.5 178.6C703.4 182.3 703.2 186.2 702.8 190.4ZM114.7 393.4V388.4L126.2 385.7V297.2L114.7 294.7V289.8H162V294.7L149.4 297.4V385.7H182.9C185.6 382 187.9 378.2 189.8 374.5C191.7 370.7 193.6 366.5 195.2 361.9H202.2L196.5 393.4H114.7ZM208.7 393.4V388.4L220.2 385.5V297.3L208.7 294.6V289.7H254.6V294.6L243.3 297.3V385.5L254.6 388.4V393.4H208.7ZM353.2 394.8L286.9 311.2V385.7L298.7 388.4V393.4H265.6V388.4L277.6 385.7V297.2L265.7 294.7V289.8H302.2L353.2 353.7V297.3L341.2 294.8V289.9H374.4V294.8L362.4 297.3V394.9H353.2V394.8ZM435.5 394.8C425 394.8 415.8 392.6 408 388.3C400.2 384 394.1 378 389.7 370.2C385.3 362.4 383.2 353.4 383.2 343.1C383.2 335.1 384.5 327.7 387.1 321C389.7 314.3 393.4 308.5 398.3 303.7C403.1 298.8 408.8 295 415.4 292.3C422 289.6 429.3 288.3 437.2 288.3C443.2 288.3 448.8 289 454.1 290.5C459.4 292 463.7 294 467 296.6H467.5L473.4 289.7H477.8V322.6H471.7C468.6 316.2 465.5 311 462.4 307.2C459.3 303.4 455.9 300.6 452.2 299C448.6 297.3 444.4 296.4 439.7 296.4C429.5 296.4 421.8 300.2 416.7 307.9C411.6 315.5 409.1 327.1 409.1 342.5C409.1 358 411.3 369.2 415.6 376.3C419.9 383.3 426.6 386.8 435.7 386.8C439.6 386.8 443.1 386.1 446.3 384.7C449.5 383.3 451.9 381.4 453.4 379.1C454 378.2 454.4 377.2 454.6 376.2C454.8 375.2 454.9 373.7 454.9 371.6V349L442.8 346.4V341.5H490V346.4L478 349V382.5C475.2 384.8 471.4 386.9 466.8 388.8C462.1 390.7 457.1 392.1 451.6 393.2C446 394.3 440.7 394.8 435.5 394.8ZM549.1 394.8C541 394.8 533.9 393.6 527.6 391.1C521.3 388.6 516.4 385 512.9 380.4C510.8 377.8 509.3 374.8 508.4 371.2C507.5 367.7 507 363.1 507 357.5V297.3L495.6 294.8V289.9H542.2V294.8L530.4 297.3V357.5C530.4 366.7 532.4 373.8 536.5 378.9C540.6 383.9 546.4 386.4 553.8 386.4C562.1 386.4 568.3 383.6 572.3 378C574.4 375.1 575.9 371.3 576.9 366.6C577.9 361.8 578.3 355.6 578.3 347.8V297.3L566.4 294.8V289.9H599.5V294.8L587.6 297.3V355.4C587.6 360.5 587.1 365.2 586 369.5C585 373.7 583.4 377.4 581.4 380.6C578.3 385.4 574.1 388.9 568.7 391.3C563.6 393.6 557 394.8 549.1 394.8ZM698.1 387.3C696.3 386.8 694.9 386 693.9 384.9C692.9 383.8 692 382.2 691.1 380.2L652.6 287L632.5 294.6L638.7 308.5L613.3 373.4C611.9 377 610.6 379.8 609.3 381.7C608.1 383.5 606.4 384.9 604.2 385.8C602.1 386.7 598.9 387.5 594.7 388.3V393.3H636.3V388.3C631.5 387.6 627.8 386.7 625.5 385.7C623.1 384.6 621.8 383.2 621.4 381.3C621.1 379.4 621.5 376.8 622.6 373.5L626.5 363.2H656.7L662 377.8C663.2 380.8 663.5 383 663.1 384.5C662.6 385.9 661.3 386.9 659.2 387.4C657.1 387.9 654.1 388.2 650.2 388.3V393.3H705.7V388.3C702.4 388.2 699.9 387.8 698.1 387.3ZM629.4 355.8L641.6 323.9H642.1L653.8 355.8H629.4Z" fill="#262C20"></path>
<path d="M209.8 224.3C208 223.8 206.6 223 205.6 221.9C204.6 220.8 203.7 219.2 202.8 217.2L164.3 124L144.2 131.6L150.4 145.5L125 210.5C123.6 214.1 122.3 216.9 121 218.8C119.8 220.7 118.1 222 115.9 222.9C113.8 223.8 110.6 224.6 106.4 225.4V230.4H148V225.4C143.2 224.7 139.6 223.8 137.2 222.8C134.8 221.8 133.5 220.3 133.1 218.4C132.8 216.5 133.2 213.9 134.3 210.6L138.2 200.3H168.4L173.7 214.8C174.9 217.8 175.2 220 174.8 221.5C174.4 222.9 173 223.9 170.9 224.3C168.8 224.8 165.8 225.1 161.9 225.2V230.2H217.4V225.2C214.2 225.2 211.6 224.8 209.8 224.3ZM141.2 192.8L153.4 160.9H153.9L165.6 192.8H141.2ZM297.8 289.8C291.6 296.5 284.8 302.6 277.6 308.1V297.2L265.7 294.7V289.8H297.8ZM254.6 289.8V294.7L243.3 297.4V327.9C235.9 331 228.1 333.6 220.2 335.6V297.4L208.7 294.7V289.8H254.6ZM162 289.8V294.7L149.4 297.4V336.9C141.5 335.2 133.7 333 126.3 330.2V297.3L114.8 294.8V289.9H162V289.8ZM333.8 137.5C331.9 141 330.2 144.3 328.7 147.3C326.8 151.3 325.4 154.7 324.5 157.5L318.9 157.2L325.8 126.8H330.2C331.6 130.3 332.8 133.9 333.8 137.5ZM340.1 186.6C339.7 201.8 337.1 216.5 332.6 230.4H316.2V225.3L340.1 186.6ZM308.3 195.4L299.9 230.4H218V225.3L274.2 134.2H237.5C234.8 139 232.4 143.4 230.5 147.4C228.6 151.4 227.2 154.8 226.3 157.6L220.7 157.3L227.6 126.9H305.7V131.8L249.1 223H288C290.3 219.7 292.3 216.5 294 213.7C295.7 210.9 297.2 207.9 298.6 205C300 202 301.4 198.8 302.7 195.2L308.3 195.4Z" fill="#9ED821"></path>
<path d="M134.5 24.3L134.3 24.4L133.3 24.8H133.2H133.1L131.3 23.9L119.8 17.1L119 16.6L119.4 17.5L123.2 28.2L123.3 28.4L123.1 28.5L121.2 29.2L121 29.3V29L115.1 12.6L115 12.4L115.2 12.3L116 12H116.1H116.2L130.8 21L126.4 8.8L126.3 8.6L126.5 8.5L128.4 7.8L128.6 7.7L128.7 7.9L134.5 24.1V24.3ZM227.4 5.9L216.5 3.5H216.3V3.7L212.6 20.5V20.7H212.8L224.2 23.2H224.4V23L224.8 21.1V20.9H224.6L215.3 18.9L216.6 13.2L223 14.6H223.2V14.4L223.6 12.6V12.4H223.4L217 11L218 6.3L226.8 8.2H227V8L227.4 6.1V5.9ZM242.5 13.4C242.3 12.5 242 11.7 241.4 11C240.8 10.3 240.1 9.8 239.2 9.5L233.7 7.7L233.5 7.6L233.4 7.8L228.1 24.2L228 24.4L228.2 24.5L230.1 25.1L230.3 25.2L230.4 25L235 10.6L238.2 11.6C239 11.8 239.5 12.3 239.8 13C240.1 13.7 240.1 14.5 239.8 15.4C239.5 16.3 239 16.9 238.4 17.3C237.7 17.6 237 17.7 236.1 17.4L233.8 16.7L233.6 16.6L233.5 16.8L232.9 18.6L232.8 18.8L233 18.9C233.6 19.1 234 19.3 234.3 19.6C234.6 19.9 234.8 20.1 235 20.4C235.2 20.7 235.3 21.1 235.5 21.6L237 26.3C237.3 27.2 237.9 27.8 238.8 28.1C239.5 28.3 240 28.3 240.5 28L240.6 27.9V27.8L240.2 26L240.1 25.7L239.9 25.8C239.8 25.9 239.6 25.9 239.5 25.8C239.4 25.8 239.4 25.7 239.3 25.6C239.3 25.5 239.2 25.4 239.1 25.2C239 24.9 238.6 23.8 237.9 21.7L237.4 20.2C237.2 19.8 237.1 19.5 236.9 19.3L236.8 19.2C237.2 19.3 237.6 19.4 237.8 19.4C238.7 19.4 239.6 19.1 240.4 18.4C241.2 17.7 241.8 16.9 242.2 15.8C242.6 15.2 242.7 14.3 242.5 13.4ZM294.8 40.6C294.5 39.7 294 39 293.2 38.5L288.6 35L288.4 34.9L288.3 35.1L278 48.6L277.9 48.8L278.1 48.9L279.7 50.2L279.9 50.3L280 50.1L289.1 38.1L291.8 40.2C292.4 40.7 292.8 41.3 292.8 42.1C292.8 42.9 292.6 43.6 292 44.4C291.4 45.2 290.8 45.6 290 45.7C289.3 45.8 288.5 45.6 287.8 45L285.9 43.5L285.7 43.4L285.6 43.6L284.4 45.1L284.3 45.3L284.4 45.4C284.9 45.8 285.2 46.1 285.4 46.5C285.6 46.9 285.7 47.2 285.8 47.5C285.8 47.8 285.9 48.3 285.9 48.8L285.8 53.7C285.8 54.6 286.2 55.4 286.9 56C287.5 56.4 288 56.6 288.5 56.5H288.6V56.4L288.8 54.6V54.3H288.5C288.3 54.3 288.2 54.3 288.1 54.2C288 54.2 288 54.1 288 54C288 53.9 288 53.7 288 53.5C288 53.2 288 52 288 49.8V48.2C288 47.8 287.9 47.4 287.8 47.1C287.8 47.1 287.8 47 287.7 46.9C288.1 47.2 288.4 47.3 288.6 47.4C289.4 47.7 290.4 47.7 291.4 47.4C292.4 47 293.3 46.4 293.9 45.6C294.5 44.9 294.8 44.1 294.9 43.1C295.3 42.3 295.2 41.4 294.8 40.6ZM307.7 50.3L307.6 50.4L300.9 68.3L300.8 68.6L300.6 68.4L299 66.9L298.9 66.8V66.7L300.9 61.2L296.3 56.9L291 59.3H290.9L290.8 59.2L289.2 57.7L289 57.5L289.3 57.4L306.7 49.5L306.8 49.4L306.9 49.5L307.5 50.1L307.7 50.3ZM304.1 53.2L303.6 53.5L298.7 55.8L301.9 58.8L303.9 53.7L304.1 53.2ZM103.3 328.8C103.1 327.9 102.7 327 102.1 326.2C101.5 325.4 100.7 324.8 99.8 324.3C98.9 323.8 97.9 323.5 96.9 323.5C95.9 323.5 94.9 323.7 94 324.2C93.1 324.7 92.4 325.4 91.9 326.3C91.4 327.2 91.2 328.2 91.4 329.1C91.6 330 92 331.1 92.8 332.4L93.4 333.2C93.9 333.9 94.2 334.5 94.5 335C94.8 335.5 95 336 95.1 336.5C95.2 337 95.1 337.4 94.9 337.8C94.6 338.3 94.2 338.6 93.6 338.7C92.9 338.8 92.3 338.7 91.7 338.4C91.4 338.3 91.2 338 91 337.7C90.8 337.4 90.6 337.2 90.6 336.9C90.5 336.6 90.6 336.5 90.7 336.3L90.9 336.1L90.7 336L89.1 334.9L88.9 334.8L88.8 334.9C88.7 335.1 88.6 335.2 88.5 335.3C88.2 335.8 88.1 336.4 88.2 337.1C88.3 337.7 88.6 338.3 89 338.9C89.4 339.5 89.9 340 90.6 340.3C91.4 340.7 92.2 341 93 341C93.8 341.1 94.6 340.9 95.4 340.5C96.1 340.1 96.7 339.6 97.1 338.8C97.5 338 97.7 337.2 97.6 336.4C97.5 335.6 97.2 334.9 96.8 334.2C96.4 333.5 95.8 332.5 94.9 331.3C94.2 330.4 93.9 329.6 93.7 329C93.6 328.5 93.7 327.9 94 327.3C94.5 326.4 95.2 325.9 96 325.7C96.9 325.5 97.8 325.7 98.6 326.1C99.4 326.6 100 327.2 100.4 328.1C100.8 329 100.9 329.9 100.6 330.9L100.5 331.1H100.7L102.7 331.3H102.9V331.1C103.5 330.6 103.5 329.7 103.3 328.8ZM91.3 319.6L81.7 312.9L81.5 312.8L81.4 313L80.3 314.6L80.2 314.8L80.4 314.9L88.2 320.3L84.9 325.1L79.5 321.4L79.3 321.3L79.2 321.5L78.1 323.1L78 323.3L78.2 323.4L83.6 327.1L80.8 331.1L73.4 326L73.2 325.9L73.1 326.1L72 327.7L71.9 327.9L72.1 328L81.3 334.4L81.5 334.5L81.6 334.3L91.4 320.2L91.5 320L91.3 319.6ZM78.2 310L76.6 308.7L76.4 308.6L76.3 308.8L65.5 322.1L65.4 322.3L65.6 322.4L67.2 323.7L67.4 323.8L67.5 323.7L78.3 310.4L78.4 310.3L78.2 310ZM68.5 301.5L68.3 301.4L66.8 300L66.7 299.9L66.6 300L56.2 310.9L52.2 307.1L52.1 307L52 307.2L50.7 308.6L50.6 308.7L50.7 308.8L60.4 318L60.6 318.1L60.7 318L62 316.6L62.1 316.5L62 316.4L58 312.6L68.4 301.7L68.5 301.5ZM51.4 283.7C51.2 282.5 50.8 281.3 49.9 280.2C49.1 279.1 48.1 278.3 47 277.9C45.9 277.4 44.7 277.3 43.5 277.4C42.3 277.6 41.1 278.1 40 279L31.7 285.3L31.5 285.4L31.6 285.6L32.8 287.2L32.9 287.4L33.1 287.3L41.4 281C42.6 280.1 43.8 279.7 45 279.8C46.2 279.9 47.2 280.5 48.1 281.6C48.7 282.3 49 283.1 49.1 283.9C49.2 284.7 49 285.4 48.7 286.2C48.3 287 47.7 287.6 46.9 288.3L38.6 294.6L38.4 294.7L38.5 294.9L39.7 296.5L39.8 296.7L40 296.6L48.3 290.3C49.4 289.5 50.2 288.5 50.7 287.4C51.3 286.1 51.5 284.9 51.4 283.7ZM33.6 289C33.3 288.7 33 288.5 32.6 288.4C32.2 288.3 31.8 288.4 31.5 288.6C31.2 288.9 31 289.2 31 289.6C30.9 290 31 290.4 31.3 290.7C31.5 291 31.9 291.2 32.3 291.2C32.7 291.3 33.1 291.2 33.4 290.9C33.7 290.7 33.9 290.3 33.9 289.9C33.9 289.7 33.8 289.4 33.6 289ZM36.8 293.3C36.5 293 36.2 292.8 35.8 292.7C35.4 292.6 35 292.7 34.7 292.9C34.4 293.2 34.2 293.5 34.1 293.9C34 294.3 34.1 294.7 34.4 295C34.6 295.3 35 295.5 35.4 295.5C35.8 295.6 36.2 295.5 36.5 295.2C36.8 295 37 294.6 37 294.2C37.2 294 37.1 293.6 36.8 293.3ZM43.3 271.4L43.1 271.5L28.3 280.5L28.1 280.6L28 280.4L25.1 275.6C24.7 274.9 24.4 274.2 24.3 273.6C24.1 272.6 24.2 271.6 24.6 270.6C25 269.7 25.6 269 26.5 268.4C27.2 268 27.9 267.8 28.6 267.8C29.3 267.8 30 268 30.6 268.4C30.6 268.2 30.6 268.1 30.6 268C30.6 266.1 31.4 264.6 33 263.6C33.9 263 35 262.8 36 262.8C37.1 262.9 38.1 263.3 39 264.1C39.6 264.6 40.2 265.4 40.9 266.5C41.8 268 42.4 269 42.7 269.7L43.4 271.1L43.3 271.4ZM33.2 274.7L31.4 271.8C30.9 271 30.4 270.5 29.7 270.3C29.1 270.1 28.4 270.2 27.6 270.6C27 271 26.6 271.5 26.5 272.1C26.4 272.7 26.5 273.4 26.9 274.1L28.8 277.3L33.2 274.7ZM40.2 270.4L39.4 269L38.6 267.6C37.9 266.5 37.2 265.8 36.4 265.5C35.6 265.2 34.9 265.3 34 265.8C33.2 266.3 32.7 266.9 32.6 267.8C32.4 268.6 32.6 269.5 33.2 270.5L35.1 273.5L40.2 270.4ZM35.3 257.3L30.2 246.8L30.1 246.6L29.9 246.7L28.2 247.5L28 247.6L28.1 247.8L32.2 256.3L26.9 258.8L24 252.9L23.9 252.7L23.7 252.8L22 253.6L21.8 253.7L21.9 253.9L24.8 259.8L20.5 261.9L16.6 253.8L16.5 253.6L16.3 253.7L14.6 254.5L14.4 254.6L14.5 254.8L19.4 264.9L19.5 265.1L19.7 265L35.2 257.5L35.4 257.4L35.3 257.3ZM28.7 242.7L28 240.8L27.9 240.6L27.7 240.7L13.6 245.9L12.4 242.7C12.1 242 12.2 241.3 12.6 240.6C13 239.9 13.6 239.4 14.5 239.1C15.4 238.8 16.2 238.8 16.9 239.1C17.6 239.4 18.1 240 18.4 240.9L19.2 243.2L19.3 243.4L19.5 243.3L21.3 242.6L21.5 242.5L21.4 242.3C21.2 241.8 21.1 241.3 21.2 240.9C21.2 240.5 21.3 240.1 21.4 239.9C21.5 239.6 21.8 239.2 22 238.8L24.7 234.7C25.2 233.9 25.3 233.1 25 232.2C24.8 231.5 24.4 231.1 23.9 230.9L23.8 230.8L23.7 230.9L22.5 232.3L22.3 232.5L22.5 232.6C22.6 232.7 22.7 232.8 22.8 232.9C22.8 233 22.8 233 22.8 233.2C22.8 233.3 22.7 233.4 22.6 233.6C22.5 233.8 21.8 234.9 20.6 236.7L19.7 238C19.5 238.4 19.3 238.7 19.3 239C19.3 239 19.3 239.1 19.3 239.2C19.1 238.8 19 238.5 18.8 238.3C18.3 237.6 17.5 237.1 16.4 236.8C15.4 236.5 14.3 236.6 13.3 237C12.4 237.3 11.7 237.8 11.1 238.5C10.5 239.2 10.1 240 9.9 240.9C9.7 241.8 9.8 242.7 10.1 243.6L12.1 249L12.2 249.2L12.4 249.1L28.5 243.2L28.7 243.1V242.7ZM20.5 213.8C20.3 212.7 19.9 211.7 19.3 210.9C18.7 210.1 18 209.5 17.1 209.1C16.2 208.7 15.3 208.7 14.4 208.8C13.4 209 12.5 209.5 11.7 210.2C11 210.9 10.6 211.6 10.4 212.4C10 211.9 9.5 211.6 8.9 211.4C8.2 211.1 7.4 211.1 6.7 211.3C5.9 211.5 5.2 211.8 4.7 212.4C4.2 213 3.8 213.7 3.7 214.6C3.5 215.5 3.5 216.4 3.7 217.4C3.9 218.2 4.2 218.9 4.6 219.6C5 220.3 5.6 220.9 6.2 221.4L6.3 221.5L6.4 221.4L7.7 220.1L7.9 219.9L7.7 219.7C7.2 219.4 6.8 218.9 6.5 218.4C6.2 217.9 6 217.3 5.9 216.8C5.7 215.9 5.8 215.2 6 214.6C6.2 214 6.7 213.6 7.3 213.5C7.9 213.4 8.5 213.5 9 213.9C9.5 214.3 9.9 214.9 10.1 215.7L10.7 218.5V218.7H10.9L12.7 218.3H12.9V218.1L12.3 215.2C12.2 214.6 12.2 214.1 12.3 213.5C12.4 212.9 12.7 212.4 13.1 212C13.5 211.6 14 211.3 14.6 211.2C15.5 211 16.3 211.2 16.9 211.8C17.6 212.4 18 213.3 18.2 214.4C18.4 215.3 18.4 216.1 18.2 216.8C18 217.5 17.6 218.3 17.1 219.1L17 219.3L17.2 219.4L18.8 220.2L19 220.3L19.1 220.2C19.7 219.4 20.2 218.4 20.4 217.3C20.8 216.2 20.8 215 20.5 213.8ZM17.3 201.8C16.6 203 15.6 203.9 14.4 204.6C13.2 205.3 11.8 205.7 10.4 205.9C8.9 206.1 7.5 205.9 6.2 205.5C4.8 205.1 3.7 204.4 2.8 203.4C1.9 202.4 1.3 201.2 1.2 199.8C1 198.3 1.3 197 2 195.8C2.7 194.7 3.7 193.7 4.9 193C6.1 192.3 7.5 191.9 9 191.7C10.5 191.5 11.9 191.7 13.2 192.1C14.5 192.5 15.7 193.2 16.6 194.2C17.5 195.2 18 196.4 18.1 197.8C18.3 199.4 18 200.7 17.3 201.8ZM15.8 198.1C15.7 197.1 15.3 196.3 14.7 195.7C14 195.1 13.2 194.6 12.2 194.4C11.2 194.1 10.2 194.1 9.1 194.2C8 194.3 7 194.6 6.1 195.1C5.2 195.6 4.5 196.2 4 196.9C3.5 197.6 3.3 198.5 3.4 199.4C3.5 200.4 3.9 201.2 4.5 201.8C5.1 202.4 6 202.9 6.9 203.1C7.9 203.4 8.9 203.4 10 203.3C11.1 203.2 12.1 202.9 13 202.4C13.9 201.9 14.6 201.3 15.1 200.6C15.8 200 15.9 199.1 15.8 198.1ZM16.9 170.7C16.4 169.9 15.8 169.3 15 168.9C14.2 168.5 13.4 168.3 12.5 168.2L0.3 167.6H0.1V167.8L0 169.8V170H0.2L12.3 170.6C13.2 170.6 13.9 170.9 14.5 171.3C15.1 171.7 15.3 172.4 15.3 173.4C15.3 174.4 15 175 14.5 175.5C14 175.9 13.3 176.1 12.4 176H12.2V176.2L12 178.1V178.3H12.2C13.1 178.4 13.9 178.3 14.7 178C15.5 177.7 16.2 177.2 16.7 176.5C17.3 175.7 17.6 174.8 17.6 173.6C17.6 172.5 17.4 171.5 16.9 170.7ZM20.2 149.3V149.6L19.9 151.7V151.8H19.8L14.1 153.3L13.2 159.5L18.2 162.5L18.3 162.6V162.7L18 164.9V165.2L17.7 165L1.3 155.2L1.2 155.1V155L1.3 154.2V154.1H1.4L19.9 149.3H20.2ZM11.6 154.1L6.3 155.4L5.7 155.5L6.2 155.7L10.9 158.4L11.6 154.1ZM24 133.7L7.4 129.4H7.2V129.6L6.7 131.6V131.8H6.9L13.8 133.6L11.8 141.3L4.9 139.5H4.7V139.7L4.2 141.7L4 141.9L4.2 142L20.8 146.3H21V146.1L21.5 144.1V143.9H21.3L13.8 142L15.8 134.3L23.3 136.2H23.5V136L24 134V133.8V133.7ZM30 116.9L29.9 116.8H29.8L28 117.1H27.7L27.8 117.3C27.9 117.5 27.9 117.6 27.8 117.7C27.8 117.8 27.7 117.8 27.7 117.9C27.6 117.9 27.5 118 27.3 118.1C27 118.2 25.9 118.5 23.8 119.1L22.3 119.5C21.9 119.6 21.6 119.8 21.3 120L21.2 120.1C21.3 119.7 21.4 119.3 21.4 119.1C21.5 118.2 21.2 117.3 20.5 116.5C19.9 115.6 19 115 18 114.6C17.1 114.3 16.3 114.2 15.4 114.3C14.5 114.4 13.7 114.8 12.9 115.3C12.2 115.8 11.6 116.6 11.3 117.5L9.3 122.9L9.2 123.1L9.4 123.2L25.5 129.1L25.7 129.2L25.8 129L26.5 127.1L26.6 126.9L26.4 126.8L12.3 121.6L13.5 118.4C13.8 117.7 14.3 117.2 15 116.9C15.7 116.6 16.5 116.6 17.4 117C18.3 117.3 18.9 117.8 19.2 118.5C19.5 119.2 19.5 119.9 19.2 120.8L18.4 123.1L18.3 123.3L18.5 123.4L20.3 124.1L20.5 124.2L20.6 124C20.8 123.5 21.1 123 21.4 122.8C21.7 122.5 22 122.3 22.2 122.2C22.5 122.1 22.9 121.9 23.4 121.8L28.1 120.4C29 120.1 29.6 119.5 29.9 118.7C30.2 118 30.3 117.4 30 116.9ZM36.8 103.5L35.1 102.7L34.9 102.6L34.8 102.8L30.7 111.3L25.4 108.8L28.3 102.9L28.4 102.7L28.2 102.6L26.5 101.8L26.3 101.7L26.2 101.9L23.3 107.8L18.9 105.7L22.8 97.6L22.9 97.4L22.7 97.3L21 96.5L20.8 96.4L20.7 96.6L15.8 106.7L15.7 106.9L15.9 107L31.4 114.5L31.6 114.6L31.7 114.4L36.8 103.9L36.9 103.7L36.8 103.5ZM46.3 87.9L31.7 78.9L31.5 78.8L31.4 79L30.3 80.7L30.2 80.9L30.4 81L41.5 87.8L24.5 89.9H24.4L24.3 90L23.8 90.7L23.7 90.9L23.9 91L38.7 100.2L38.9 100.3L39 100L40.1 98.2L40.2 98H40L30.4 92L29.5 91.5L30.4 91.4L43.6 89.5L45.6 89H45.7V88.9L46.2 88L46.3 87.8V87.9ZM56.6 74.9L43.4 63.9L43.3 63.8L43.2 64L41.9 65.6L41.8 65.8L41.9 65.9L55.1 76.9L55.2 77L55.3 76.8L56.6 75.2L56.7 75.1L56.6 74.9ZM72.3 58.6L59.8 46.2L59 47V47.1L60.2 58L49.3 56.8H49.2L49.1 56.9L48.5 57.5L48.4 57.7L48.5 57.8L60.9 70L61 70.1L61.2 70L62.7 68.5L62.8 68.3L54.7 60.2C54.6 60.1 54.4 59.9 54.3 59.8C54.4 59.8 54.6 59.8 54.8 59.9C55.1 59.9 55.3 60 55.5 60C56.2 60 58.1 60.2 61.1 60.4L62.6 60.5H62.8V60.3C62.8 59 62.7 57.5 62.5 55.8C62.4 54.3 62.3 53 62.1 51.9C62.3 52.1 62.4 52.3 62.5 52.4L70.7 60.6L70.8 60.5L72.3 59L72.4 58.9L72.3 58.6ZM91.4 43.4C90.7 44.8 89.7 46 88.3 47L87.3 47.7L86.6 48.2C86.2 48.5 85.5 48.9 84.5 49.5L83.3 50.2L83.1 50.3L83 50.1L73.1 35.9L73 35.8L73.2 35.7L78.7 31.9C80.1 31.1 81.5 30.6 82.9 30.6C84.4 30.5 85.8 30.9 87.1 31.5C88.4 32.2 89.5 33.2 90.5 34.5C91.5 35.9 92.1 37.4 92.2 39C92.4 40.5 92.1 42 91.4 43.4ZM88.5 36C87.3 34.3 86 33.3 84.5 33C83 32.6 81.4 32.9 79.8 33.9L76.4 36.3L84 47.1C84.9 46.6 85.7 46 86.4 45.6C88.3 44.2 89.5 42.7 89.8 41.1C90.2 39.4 89.8 37.7 88.5 36ZM100.7 38.8L92 23.9L91.9 23.7L91.7 23.8L89.9 24.8L89.8 25L89.9 25.2L98.5 40L98.6 40.2L98.8 40.1L100.6 39.1L100.8 39L100.7 38.8ZM117.3 30.4L116.5 28.7L116.4 28.5L116.2 28.6L107.7 32.7L105.2 27.4L111.1 24.6L111.3 24.5L111.2 24.3L110.4 22.6L110.3 22.4L110.1 22.5L104.2 25.4L102 21L110.1 17.1L110.3 17L110.2 16.8L109.4 15.1L109.3 14.9L109.1 15L99 19.9L98.9 20L99 20.2L106.5 35.7L106.6 35.9L106.8 35.8L117.3 30.7L117.5 30.6L117.3 30.4ZM147.8 15.9C147.5 14.9 147 14 146.2 13.5C145.4 12.9 144.3 12.4 142.9 12.1L141.9 11.9C141.1 11.7 140.4 11.5 139.9 11.4C139.4 11.2 138.9 11 138.5 10.7C138.1 10.4 137.9 10.1 137.7 9.6C137.6 9.1 137.7 8.6 138.1 8.1C138.5 7.6 139 7.2 139.7 7.1C140 7 140.3 7 140.7 7.1C141.1 7.1 141.3 7.3 141.6 7.4C141.8 7.6 141.9 7.7 141.9 7.9V8H142.1L144 7.6H144.2V7.4C144.2 7.2 144.2 7 144.1 6.9C144 6.3 143.6 5.8 143.1 5.4C142.6 5 142 4.7 141.3 4.6C140.6 4.5 139.9 4.5 139.2 4.7C138.4 4.9 137.6 5.3 136.9 5.9C136.2 6.4 135.8 7.1 135.5 7.9C135.2 8.7 135.2 9.4 135.4 10.3C135.6 11.2 136 11.9 136.7 12.4C137.3 12.9 138 13.3 138.8 13.5C139.6 13.7 140.7 14 142.1 14.3C143.2 14.5 144 14.8 144.5 15.1C145 15.4 145.3 15.9 145.5 16.6C145.7 17.6 145.6 18.4 145.1 19.1C144.6 19.8 143.9 20.3 142.9 20.6C142 20.8 141.1 20.8 140.2 20.4C139.3 20 138.6 19.4 138.1 18.5L138 18.3L137.8 18.4L136.2 19.6L136.1 19.7L136.2 19.8C136.6 20.6 137.2 21.3 138 21.8C138.8 22.3 139.7 22.7 140.7 22.8C141.7 23 142.7 22.9 143.7 22.7C144.7 22.4 145.6 22 146.4 21.3C147.2 20.6 147.7 19.8 148 18.9C148 17.9 148 16.9 147.8 15.9ZM162.4 3.3V3.1L162 1.2V1H161.8L148.5 3H148.3V3.2L148.6 5.1V5.3H148.8L154.2 4.5L156.5 19.4V19.6H156.7L158.7 19.3H158.9V19.1L156.6 4.2L162 3.4L162.4 3.3ZM180.5 17.3L180.4 15.4V15.2H180.2L170.7 15.7L170.4 9.9L177 9.5H177.2V9.3L177.1 7.4V7.2H176.9L170.3 7.6L170 2.8L179 2.3H179.2V2.1L179.1 0.2V0H178.9L167.7 0.6H167.5V0.8L168.4 18V18.2H168.6L180.3 17.6H180.5V17.3ZM210.3 11.1C210.1 12.8 209.6 14.3 208.6 15.6C207.7 16.9 206.6 17.8 205.1 18.4C203.7 19 202.1 19.2 200.4 19L199.2 18.9L198.6 18.8H198.5H198.4C197.9 18.8 197.1 18.6 196 18.4L194.6 18.1H194.4V17.9L196.3 0.7V0.5H196.5L203.1 1.3C204.7 1.6 206 2.2 207.1 3.1C208.3 4 209.1 5.2 209.6 6.6C210.3 7.9 210.4 9.4 210.3 11.1ZM205.4 15.6C206.7 14.6 207.6 13.1 207.8 10.9C208 8.9 207.7 7.2 206.7 6C205.8 4.7 204.4 3.9 202.6 3.6L198.5 3.1L197 16.2C198 16.4 199 16.5 199.8 16.6C202.2 16.9 204.1 16.5 205.4 15.6ZM267.5 23C267.4 22.3 267.1 21.8 266.6 21.2C266.2 20.6 265.6 20.2 264.9 19.9C264.1 19.5 263.3 19.3 262.4 19.3C261.6 19.3 260.8 19.5 260 19.9C259.3 20.3 258.7 20.9 258.4 21.6C258 22.4 257.9 23.2 258 24C258.2 24.8 258.5 25.5 258.9 26.2C259.4 26.9 260 27.8 260.9 29C261.6 29.9 262 30.7 262.2 31.2C262.3 31.7 262.3 32.3 262 32.9C261.6 33.8 260.9 34.3 260 34.6C259.1 34.8 258.2 34.7 257.4 34.3C256.6 33.9 255.9 33.3 255.4 32.4C254.9 31.5 254.8 30.6 255 29.6V29.4H254.8L252.8 29.3H252.6L252.5 29.5C252.3 30.4 252.3 31.3 252.5 32.2C252.8 33.1 253.2 34 253.8 34.7C254.4 35.5 255.2 36.1 256.1 36.5C257 37 258 37.2 259 37.2C260 37.2 261 36.9 261.8 36.4C262.7 35.9 263.3 35.2 263.8 34.2C264.3 33.2 264.4 32.3 264.2 31.3C264 30.4 263.5 29.3 262.6 28L262 27.2C261.5 26.5 260.8 25.5 260.8 25.5C260.5 25 260.3 24.5 260.1 24C260 23.5 260 23.1 260.2 22.7C260.4 22.2 260.9 21.9 261.5 21.8C262.2 21.7 262.8 21.7 263.4 22C263.7 22.1 263.9 22.3 264.2 22.6C264.5 22.9 264.6 23.1 264.7 23.4C264.8 23.7 264.7 23.8 264.6 24L264.4 24.2L264.6 24.3L266.3 25.3L266.5 25.4L266.6 25.2C266.7 25 266.8 24.9 266.9 24.8C267.6 24.2 267.6 23.7 267.5 23ZM281.7 33.3C281.6 34.3 281.3 35.2 280.7 36.1C279.8 37.6 278.5 38.5 277 38.7C275.5 39 273.7 38.5 271.9 37.3L270.5 36.4L267.3 41.5L267.2 41.7L267 41.6L265.3 40.5L265.1 40.4L265.2 40.2L274.3 25.6L274.4 25.4L274.6 25.5L279.3 28.4C280.2 28.9 280.8 29.6 281.2 30.4C281.6 31.5 281.8 32.4 281.7 33.3ZM279.3 32.3C279.1 31.5 278.6 30.9 277.9 30.4L275.3 28.8L271.8 34.5L272.4 34.9C272.9 35.3 273.3 35.5 273.4 35.6C274.6 36.3 275.6 36.6 276.5 36.5C277.4 36.3 278.1 35.8 278.8 34.8C279.2 33.9 279.4 33.1 279.3 32.3ZM323.6 69C323.3 67.6 322.6 66.3 321.6 65.1C320.6 63.9 319.3 63.1 317.7 62.6C316.2 62.2 314.6 62.1 313 62.4C311.4 62.8 310 63.5 308.7 64.6C307.4 65.7 306.5 67 306 68.4C305.4 69.9 305.3 71.4 305.5 72.9C305.8 74.4 306.4 75.8 307.5 77.1C308.5 78.2 309.7 79.1 311 79.7C312.4 80.3 313.8 80.5 315.3 80.2H315.5V80L315.3 78V77.8H315.1C314 78 313 77.9 311.9 77.5C310.9 77.1 310 76.5 309.3 75.6C308.5 74.7 308 73.7 307.9 72.6C307.7 71.5 307.9 70.4 308.3 69.3C308.7 68.2 309.4 67.3 310.3 66.5C311.3 65.7 312.3 65.1 313.5 64.8C314.7 64.5 315.9 64.5 317 64.8C318.1 65.1 319.1 65.6 319.8 66.5C320.5 67.3 320.9 68.1 321.2 69C321.3 69.4 321.3 69.8 321.2 70.2C321.1 70.5 320.8 70.9 320.4 71.2L320.2 71.3L320.3 71.5L321.6 73L321.7 73.2L321.8 73.1C323.3 71.8 323.9 70.5 323.6 69ZM335.7 85.1L334.5 83.4L334.4 83.2L334.2 83.3L328.4 87.3L323.9 80.7L329.7 76.7L329.9 76.6L329.8 76.4L328.6 74.7L328.5 74.5L328.3 74.6L314.2 84.4L314 84.5L314.1 84.7L315.3 86.4L315.4 86.6L315.6 86.5L322 82.1L326.5 88.7L320.1 93.1L319.9 93.2L320 93.4L321.2 95.1L321.3 95.3L321.5 95.2L335.6 85.4L335.8 85.3L335.7 85.1ZM344.5 100.8L339.1 91L339 90.8L338.8 90.9L323.8 99.2L323.6 99.3L323.7 99.5L329.3 109.7L329.4 109.9L329.6 109.8L331.3 108.9L331.5 108.8L331.4 108.6L326.8 100.3L331.9 97.5L335.1 103.3L335.2 103.5L335.4 103.4L337.1 102.5L337.3 102.4L337.2 102.2L334 96.4L338.2 94.1L342.5 102L342.6 102.2L342.8 102.1L344.5 101.2L344.7 101.1L344.5 100.8Z" fill="#262C20"></path>
</g>
<defs>
<clipPath id="clip0_625_183">
<rect width="733.5" height="397.7" fill="white"></rect>
</clipPath>
</defs>
</svg>
