<svg width="729" height="338" viewBox="0 0 729 338" fill="none" xmlns="http://www.w3.org/2000/svg">
<g clip-path="url('#clip0_625_189')">
<path d="M130.5 134.3C132.7 133.8 134.5 133 136 131.9C137.4 130.9 138.4 129.6 139.2 128C140 126.4 140.4 124.7 140.4 122.9C140.4 120.6 139.8 118.5 138.7 116.7C137.6 114.9 136 113.4 134 112.3C132 111.2 129.7 110.5 127 110.2V110C130.5 109.4 133.2 108.2 135.2 106.6C137.1 104.9 138.1 102.9 138.1 100.5C138.1 98.7 137.7 97.1 136.8 95.6C136 94.1 134.8 92.8 133.2 91.8C131.9 91 130.2 90.4 128.2 90C126.2 89.6 123.7 89.4 120.7 89.4H100.7V91.6L105.8 92.9V131.7L100.7 133V135.2H121.8C125.5 135 128.3 134.8 130.5 134.3ZM116.1 92.5H117.2C118.9 92.5 120.4 92.7 121.6 93C122.9 93.3 124 93.8 124.8 94.5C125.6 95.1 126.2 96 126.6 97C127 98 127.3 99.2 127.3 100.6C127.3 103 126.7 105 125.4 106.4C124.1 107.8 122.3 108.6 119.9 108.9C119.5 109 119.1 109 118.5 109.1C118 109.1 117.4 109.1 116.7 109.1H116V92.5H116.1ZM117 131.1C116.4 130.6 116 129.7 116 128.3V112.3H118.2C122 112.3 124.7 113.1 126.5 114.8C128.3 116.4 129.2 119 129.2 122.4C129.2 125.7 128.5 128.1 127.1 129.6C125.7 131.1 123.5 131.9 120.6 131.9C118.9 131.9 117.7 131.6 117 131.1ZM181.1 135H145.1V132.8L150.2 131.6V92.6L145.1 91.5V89.3H181.4L182.5 102.4H180C179.5 100.8 178.8 99.2 178.1 97.5C177.3 95.8 176.5 94.2 175.4 92.6H160.3V109.2H167.8C168.5 108.1 169 107 169.4 105.8C169.8 104.7 170.1 103.5 170.4 102.5H172.9V119.1H170.4C170.2 118 169.8 116.9 169.4 115.8C169 114.7 168.4 113.5 167.8 112.4H160.3V131.6H175.1C176.4 129.9 177.4 128.1 178.2 126.3C179 124.5 179.8 122.8 180.5 121H183.6L181.1 135ZM191.6 124.8C189.7 121.4 188.7 117.4 188.7 112.9C188.7 109.4 189.3 106.1 190.4 103.1C191.6 100.1 193.2 97.6 195.3 95.4C197.4 93.2 199.9 91.6 202.8 90.4C205.7 89.2 208.9 88.6 212.4 88.6C215 88.6 217.5 88.9 219.8 89.6C222.1 90.2 224 91.1 225.5 92.3H225.7L228.3 89.3H230.2V103.8H227.5C226.1 101 224.8 98.7 223.4 97C222 95.3 220.5 94.1 218.9 93.4C217.3 92.6 215.5 92.3 213.4 92.3C208.9 92.3 205.5 94 203.3 97.4C201.1 100.8 199.9 105.9 199.9 112.7C199.9 119.5 200.8 124.5 202.7 127.6C204.6 130.7 207.5 132.2 211.5 132.2C213.2 132.2 214.8 131.9 216.2 131.3C217.6 130.7 218.6 129.8 219.3 128.8C219.6 128.4 219.8 128 219.8 127.5C219.9 127.1 219.9 126.4 219.9 125.5V115.5L214.6 114.4V112.2H235.4V114.4L230.1 115.5V130.3C228.9 131.3 227.2 132.3 225.2 133.1C223.1 133.9 220.9 134.6 218.5 135.1C216.1 135.6 213.7 135.8 211.4 135.8C206.8 135.8 202.7 134.8 199.3 133C196.2 130.9 193.5 128.2 191.6 124.8ZM275.3 135H239.3V132.8L244.4 131.6V92.6L239.3 91.5V89.3H260.2V91.5L254.6 92.7V131.7H269.4C270.6 130.1 271.6 128.4 272.4 126.8C273.3 125.1 274.1 123.3 274.8 121.2H277.9L275.3 135ZM277.1 135H295.5V132.8C293.4 132.5 291.8 132.1 290.7 131.7C289.7 131.2 289.1 130.6 288.9 129.8C288.8 129 288.9 127.8 289.4 126.4L291.1 121.9H304.4L306.8 128.3C307.3 129.6 307.5 130.6 307.3 131.2C307.1 131.8 306.5 132.2 305.6 132.5C304.7 132.7 303.3 132.8 301.6 132.9V135.1H326.1V132.9C324.7 132.8 323.5 132.6 322.7 132.4C321.9 132.2 321.3 131.8 320.8 131.4C320.4 130.9 320 130.2 319.6 129.3L302.6 88.2L293.8 91.6L296.5 97.7L285.3 126.4C284.7 128 284.1 129.2 283.5 130.1C283 130.9 282.2 131.5 281.2 131.9C280.3 132.3 278.9 132.7 277 133V135H277.1ZM297.9 104.4H298.1L303.3 118.5H292.5L297.9 104.4ZM329 92.6L324 91.5V89.3H344.6V91.5L339.4 92.6V119.2C339.4 123.2 340.3 126.4 342.1 128.6C343.9 130.8 346.5 131.9 349.8 131.9C353.5 131.9 356.2 130.7 358 128.2C358.9 126.9 359.6 125.2 360 123.2C360.4 121.1 360.6 118.3 360.6 114.9V92.6L355.3 91.5V89.3H369.9V91.5L364.6 92.6V118.2C364.6 120.5 364.4 122.5 363.9 124.4C363.4 126.3 362.8 127.9 361.9 129.3C360.5 131.4 358.7 133 356.3 134C353.9 135.1 351 135.6 347.6 135.6C344 135.6 340.9 135.1 338.1 133.9C335.3 132.8 333.2 131.2 331.6 129.2C330.7 128.1 330 126.7 329.6 125.2C329.2 123.6 329 121.6 329 119.1V92.6ZM403.4 134.3C405.6 133.8 407.4 133 408.9 131.9C410.3 130.9 411.3 129.6 412.1 128C412.9 126.4 413.3 124.7 413.3 122.9C413.3 120.6 412.7 118.5 411.6 116.7C410.5 114.9 408.9 113.4 406.9 112.3C404.9 111.2 402.6 110.5 399.9 110.2V110C403.4 109.4 406.1 108.2 408.1 106.6C410 104.9 411 102.9 411 100.5C411 98.7 410.6 97.1 409.7 95.6C408.9 94.1 407.7 92.8 406.1 91.8C404.8 91 403.1 90.4 401.1 90C399.1 89.6 396.6 89.4 393.6 89.4H373.6V91.6L378.7 92.9V131.7L373.6 133V135.2H394.7C398.3 135 401.2 134.8 403.4 134.3ZM388.9 92.5H390C391.7 92.5 393.2 92.7 394.4 93C395.7 93.3 396.8 93.8 397.6 94.5C398.4 95.1 399 96 399.4 97C399.8 98 400.1 99.2 400.1 100.6C400.1 103 399.5 105 398.2 106.4C396.9 107.8 395.1 108.6 392.7 108.9C392.3 109 391.9 109 391.3 109.1C390.8 109.1 390.2 109.1 389.5 109.1H388.8V92.5H388.9ZM389.9 131.1C389.3 130.6 388.9 129.7 388.9 128.3V112.3H391.1C394.9 112.3 397.6 113.1 399.4 114.8C401.2 116.4 402.1 119 402.1 122.4C402.1 125.7 401.4 128.1 400 129.6C398.6 131.1 396.4 131.9 393.5 131.9C391.8 131.9 390.6 131.6 389.9 131.1ZM438.2 135H418V132.8L423.1 131.5V92.6L418 91.4V89.2H438.3V91.4L433.3 92.6V131.5L438.3 132.8V135H438.2ZM445.6 124.8C443.7 121.4 442.7 117.4 442.7 112.9C442.7 109.4 443.3 106.1 444.4 103.1C445.6 100.1 447.2 97.6 449.3 95.4C451.4 93.2 453.9 91.6 456.8 90.4C459.7 89.2 462.9 88.6 466.4 88.6C469 88.6 471.5 88.9 473.8 89.6C476.1 90.2 478 91.1 479.5 92.3H479.7L482.3 89.3H484.2V103.8H481.5C480.1 101 478.8 98.7 477.4 97C476 95.3 474.5 94.1 472.9 93.4C471.3 92.6 469.5 92.3 467.4 92.3C462.9 92.3 459.5 94 457.3 97.4C455.1 100.8 453.9 105.9 453.9 112.7C453.9 119.5 454.9 124.5 456.8 127.6C458.7 130.7 461.6 132.2 465.6 132.2C467.3 132.2 468.9 131.9 470.3 131.3C471.7 130.7 472.8 129.8 473.5 128.8C473.8 128.4 474 128 474 127.5C474 127 474.1 126.4 474.1 125.5V115.5L468.8 114.4V112.2H489.6V114.4L484.3 115.5V130.3C483.1 131.3 481.4 132.3 479.3 133.1C477.2 133.9 475 134.6 472.6 135.1C470.2 135.6 467.8 135.8 465.6 135.8C461 135.8 456.9 134.8 453.4 133C450.2 130.9 447.5 128.2 445.6 124.8ZM493.4 102.9H491.1L493.3 89.3H533.8L536 102.9H533.7C533.1 101.3 532.4 99.6 531.6 97.7C530.8 95.9 529.7 94.1 528.4 92.5H518.7V131.4L525.7 132.7V134.9H501.4V132.7L508.5 131.4V92.5H498.8C497.5 94.1 496.4 95.9 495.5 97.7C494.7 99.6 494 101.3 493.4 102.9ZM575.1 135H539.1V132.8L544.2 131.6V92.6L539.1 91.5V89.3H575.4L576.5 102.4H574C573.5 100.8 572.8 99.2 572.1 97.5C571.3 95.8 570.4 94.2 569.4 92.6H554.3V109.2H561.8C562.5 108.1 563 107 563.4 105.8C563.8 104.7 564.1 103.5 564.4 102.5H566.9V119.1H564.4C564.2 118 563.8 116.9 563.4 115.8C563 114.7 562.4 113.5 561.8 112.4H554.3V131.6H569.1C570.4 129.9 571.4 128.1 572.3 126.3C573.1 124.5 573.9 122.8 574.6 121H577.7L575.1 135ZM104.9 172.6L99.8996 171.5V169.3H120.5V171.5L115.3 172.6V199.1C115.3 203.1 116.2 206.3 118 208.5C119.8 210.7 122.3 211.8 125.6 211.8C129.3 211.8 132 210.6 133.8 208.1C134.7 206.8 135.4 205.1 135.8 203.1C136.2 201 136.4 198.2 136.4 194.8V172.5L131.1 171.4V169.2H145.7V171.4L140.4 172.5V198.1C140.4 200.4 140.2 202.4 139.7 204.3C139.2 206.2 138.6 207.8 137.7 209.2C136.3 211.3 134.5 212.9 132.1 213.9C129.7 215 126.8 215.5 123.4 215.5C119.8 215.5 116.7 215 113.9 213.8C111.1 212.7 109 211.1 107.4 209.1C106.5 208 105.8 206.6 105.4 205.1C105 203.5 104.8 201.5 104.8 199V172.6H104.9ZM135.2 158.9C136 159.7 136.4 160.7 136.4 161.7C136.4 162.6 136 163.5 135.3 164.4C134.6 165.2 133.5 165.7 132.1 165.7C130.7 165.7 129.7 165.3 129 164.4C128.3 163.5 127.9 162.6 127.9 161.7C127.9 160.6 128.3 159.7 129 158.9C129.7 158.1 130.8 157.7 132.1 157.7C133.4 157.7 134.5 158.1 135.2 158.9ZM119.8 157.7C121.1 157.7 122.2 158.1 123 158.9C123.8 159.7 124.2 160.7 124.2 161.7C124.2 162.6 123.8 163.5 123.1 164.4C122.4 165.2 121.3 165.7 119.9 165.7C118.5 165.7 117.5 165.3 116.8 164.4C116.1 163.5 115.8 162.6 115.8 161.7C115.8 160.6 116.2 159.7 116.9 158.9C117.4 158.1 118.5 157.7 119.8 157.7ZM182.9 192.3C180.9 191.2 178.6 190.5 175.9 190.2V190C179.4 189.4 182.1 188.2 184.1 186.6C186 184.9 187 182.9 187 180.5C187 178.7 186.6 177.1 185.7 175.6C184.9 174.1 183.7 172.8 182.1 171.8C180.8 171 179.1 170.4 177.1 170C175.1 169.6 172.6 169.4 169.6 169.4H149.6V171.6L154.7 172.9V211.7L149.6 213V215.2H170.7C174.3 215.2 177.1 215 179.3 214.5C181.5 214 183.3 213.2 184.8 212.1C186.2 211.1 187.2 209.8 188 208.2C188.8 206.6 189.2 204.9 189.2 203.1C189.2 200.8 188.6 198.7 187.5 196.9C186.4 194.9 184.9 193.4 182.9 192.3ZM164.8 172.5H165.9C167.6 172.5 169.1 172.7 170.3 173C171.6 173.3 172.7 173.8 173.5 174.5C174.3 175.1 174.9 176 175.3 177C175.7 178 176 179.2 176 180.6C176 183 175.4 185 174.1 186.4C172.8 187.8 171 188.6 168.6 188.9C168.2 189 167.8 189 167.2 189.1C166.7 189.1 166.1 189.1 165.4 189.1H164.7V172.5H164.8ZM175.9 209.6C174.5 211.1 172.3 211.9 169.4 211.9C167.7 211.9 166.5 211.7 165.8 211.2C165.2 210.7 164.8 209.8 164.8 208.4V192.4H167C170.8 192.4 173.5 193.2 175.3 194.9C177.1 196.5 178 199.1 178 202.5C178 205.6 177.3 208 175.9 209.6ZM232.4 201.1L229.9 215H193.9V212.8L199 211.6V172.5L193.9 171.4V169.2H230.2L231.3 182.2H228.8C228.3 180.6 227.6 179 226.9 177.3C226.1 175.6 225.3 174 224.2 172.4H209.1V189H216.6C217.3 187.9 217.8 186.8 218.2 185.6C218.6 184.5 218.9 183.3 219.2 182.3H221.7V198.9H219.2C219 197.8 218.6 196.7 218.2 195.6C217.8 194.5 217.2 193.3 216.6 192.2H209.1V211.4H223.9C225.2 209.7 226.2 207.9 227 206.1C227.8 204.3 228.6 202.6 229.3 200.8H232.4V201.1ZM259.3 212.8L252.5 211.5V195.1H254.9L266.9 215H283.1V212.8L277.7 211.6L266.3 193.8C268.9 192.9 271 191.4 272.4 189.5C273.9 187.6 274.6 185.1 274.6 182.3C274.6 179.5 273.9 177.1 272.6 175.2C271.3 173.3 269.4 171.8 267 170.8C264.6 169.8 261.9 169.3 258.7 169.3H237.3V171.5L242.4 172.8V211.6L237.3 212.9V215.1H259.3V212.8ZM252.5 172.5H253.7C254.9 172.5 255.9 172.6 256.7 172.7C257.5 172.8 258.2 173 258.9 173.3C260.4 173.9 261.7 174.9 262.7 176.4C263.7 177.8 264.1 179.6 264.1 181.7C264.1 183 263.9 184.2 263.6 185.4C263.2 186.6 262.6 187.7 261.7 188.7C260.9 189.7 259.8 190.5 258.5 191C257.2 191.6 255.5 191.9 253.3 191.9H252.5V172.5ZM308.3 205.3C308.3 204 307.8 202.9 306.7 201.8C305.7 200.7 303.9 199.5 301.3 198.3L296.5 195.9C292.6 194 289.7 191.8 287.9 189.5C286.1 187.1 285.1 184.4 285.1 181.2C285.1 178.8 285.8 176.6 287.1 174.7C288.4 172.8 290.3 171.3 292.5 170.2C294.8 169.1 297.4 168.6 300.3 168.6C304.4 168.6 307.8 169.8 310.7 172.3L312.1 169.2H314.1L314.7 182.3H312.1C311.1 178.9 309.7 176.4 307.8 174.7C305.9 173 303.5 172.2 300.6 172.2C298.6 172.2 297 172.7 295.8 173.7C294.7 174.7 294.1 176.1 294.1 177.8C294.1 179.2 294.6 180.4 295.6 181.5C296.6 182.6 298.4 183.7 300.9 185L305.6 187.4C309.4 189.3 312.1 191.4 313.7 193.7C315.4 196 316.2 198.8 316.2 202C316.2 204.6 315.5 206.9 314.1 208.9C312.7 210.9 310.8 212.6 308.3 213.7C305.8 214.8 303.1 215.5 300.1 215.5C298.3 215.5 296.5 215.3 294.7 214.8C292.9 214.3 291.1 213.6 289.1 212.5L287 214.9H285.1L283.9 199.7L286.4 199.3C287.7 203.8 289.4 207 291.5 209C293.6 211 296.4 212 299.9 212C302.4 212 304.4 211.4 305.9 210.2C307.6 209.1 308.3 207.4 308.3 205.3ZM326.9 211.6V172.5L321.8 171.4V169.2H358.1L359.2 182.2H356.7C356.2 180.6 355.5 179 354.8 177.3C354 175.6 353.1 174 352.1 172.4H337V189H344.5C345.2 187.9 345.7 186.8 346.1 185.6C346.5 184.5 346.8 183.3 347.1 182.3H349.6V198.9H347.1C346.9 197.8 346.5 196.7 346.1 195.6C345.7 194.5 345.2 193.3 344.5 192.2H337V211.4H351.8C353.1 209.7 354.2 207.9 355 206.1C355.8 204.3 356.6 202.6 357.3 200.8H360.4L357.9 214.7H321.9V212.5L326.9 211.6ZM380.8 211.5V172.6H371.1C369.8 174.2 368.7 176 367.8 177.8C366.9 179.6 366.2 181.4 365.6 183H363.3L365.5 169.4H406L408.2 183H406C405.4 181.4 404.7 179.7 403.9 177.8C403.1 176 402 174.2 400.8 172.6H391V211.5L398 212.8V215H373.7V212.8L380.8 211.5ZM411.7 182.7L414.8 169.3H449.2V171.5L424.2 211.8H441.4C442.4 210.3 443.3 209 444 207.7C444.7 206.4 445.4 205.2 446 203.9C446.6 202.6 447.2 201.2 447.8 199.6L450.3 199.7L446.6 215.1H410.4V212.8L435.2 172.6H419C417.8 174.7 416.8 176.6 415.9 178.4C415.1 180.2 414.4 181.7 414 182.9L411.7 182.7ZM458.8 199.1V172.6L453.8 171.5V169.3H474.4V171.5L469.2 172.6V199.1C469.2 203.1 470.1 206.3 471.9 208.5C473.7 210.7 476.2 211.8 479.6 211.8C483.3 211.8 486 210.6 487.8 208.1C488.7 206.8 489.4 205.1 489.8 203.1C490.2 201 490.4 198.2 490.4 194.8V172.5L485.1 171.4V169.2H499.7V171.4L494.4 172.5V198.1C494.4 200.4 494.2 202.4 493.7 204.3C493.2 206.2 492.6 207.8 491.7 209.2C490.3 211.3 488.5 212.9 486.1 213.9C483.7 215 480.8 215.5 477.4 215.5C473.8 215.5 470.7 215 467.9 213.8C465.1 212.7 463 211.1 461.4 209.1C460.5 208 459.8 206.6 459.4 205.1C459 203.6 458.8 201.6 458.8 199.1ZM542 172.6L536.7 171.5V169.3H551.3V171.5L546 172.6V215.6H542L512.7 178.7V211.6L517.9 212.8V215H503.3V212.8L508.6 211.6V172.5L503.3 171.4V169.2H519.4L541.9 197.4V172.6H542ZM558.1 204.8C556.2 201.4 555.2 197.4 555.2 192.9C555.2 189.4 555.8 186.1 556.9 183.1C558.1 180.1 559.7 177.6 561.8 175.5C563.9 173.3 566.4 171.7 569.3 170.5C572.2 169.3 575.4 168.7 578.9 168.7C581.5 168.7 584 169 586.3 169.7C588.6 170.3 590.5 171.2 592 172.4H592.2L594.8 169.4H596.7V183.9H594C592.6 181.1 591.3 178.8 589.9 177.1C588.5 175.4 587 174.2 585.4 173.5C583.8 172.7 582 172.4 579.9 172.4C575.4 172.4 572 174.1 569.8 177.5C567.6 180.9 566.4 185.9 566.4 192.8C566.4 199.7 567.4 204.6 569.2 207.7C571.1 210.8 574.1 212.3 578.1 212.3C579.8 212.3 581.4 212 582.8 211.4C584.2 210.8 585.3 209.9 586 208.9C586.3 208.5 586.5 208.1 586.5 207.6C586.5 207.1 586.6 206.5 586.6 205.6V195.6L581.3 194.5V192.3H602.1V194.5L596.8 195.6V210.4C595.6 211.4 593.9 212.4 591.8 213.2C589.7 214 587.5 214.7 585.1 215.2C582.7 215.7 580.3 215.9 578.1 215.9C573.5 215.9 569.4 214.9 565.9 213.1C562.7 210.9 560 208.2 558.1 204.8ZM654.2 192.3C652.2 191.2 649.9 190.5 647.2 190.2V190C650.7 189.4 653.4 188.2 655.4 186.6C657.3 184.9 658.3 182.9 658.3 180.5C658.3 178.7 657.9 177.1 657 175.6C656.2 174.1 655 172.8 653.4 171.8C652.1 171 650.4 170.4 648.4 170C646.4 169.6 643.9 169.4 640.9 169.4H620.9V171.6L626 172.9V211.7L620.9 213V215.2H642C645.6 215.2 648.5 215 650.6 214.5C652.8 214 654.6 213.2 656.1 212.1C657.5 211.1 658.5 209.8 659.3 208.2C660.1 206.6 660.5 204.9 660.5 203.1C660.5 200.8 659.9 198.7 658.8 196.9C657.7 194.9 656.2 193.4 654.2 192.3ZM636.1 172.5H637.2C638.9 172.5 640.4 172.7 641.6 173C642.9 173.3 644 173.8 644.8 174.5C645.6 175.1 646.2 176 646.6 177C647 178 647.3 179.2 647.3 180.6C647.3 183 646.7 185 645.4 186.4C644.1 187.8 642.3 188.6 639.9 188.9C639.5 189 639.1 189 638.5 189.1C638 189.1 637.4 189.1 636.7 189.1H636V172.5H636.1ZM647.2 209.6C645.8 211.1 643.6 211.9 640.7 211.9C639 211.9 637.8 211.7 637.1 211.2C636.5 210.7 636.1 209.8 636.1 208.4V192.4H638.3C642.1 192.4 644.8 193.2 646.6 194.9C648.4 196.5 649.3 199.1 649.3 202.5C649.3 205.6 648.6 208 647.2 209.6ZM700.6 201.1H703.7L701.2 215H665.2V212.8L670.3 211.6V172.5L665.2 171.4V169.2H701.5L702.6 182.2H700.1C699.6 180.6 698.9 179 698.2 177.3C697.4 175.6 696.5 174 695.5 172.4H680.4V189H687.9C688.6 187.9 689.1 186.8 689.5 185.6C689.9 184.5 690.2 183.3 690.5 182.3H693V198.9H690.5C690.3 197.8 689.9 196.7 689.5 195.6C689.1 194.5 688.6 193.3 687.9 192.2H680.4V211.4H695.2C696.5 209.7 697.6 207.9 698.4 206.1C699.2 204.6 699.9 202.9 700.6 201.1ZM723.9 172.6V211.5L728.9 212.8V215H708.6V212.8L713.7 211.5V172.6L708.6 171.4V169.2H728.9V171.4L723.9 172.6ZM140.9 291.3C140.5 290.8 140.1 290.1 139.7 289.2L122.7 248.1L113.9 251.5L116.6 257.6L105.4 286.2C104.8 287.8 104.2 289 103.6 289.9C103.1 290.7 102.3 291.3 101.3 291.7C100.4 292.1 98.9996 292.5 97.0996 292.8V295H115.5V292.8C113.4 292.5 111.8 292.1 110.7 291.7C109.7 291.2 109.1 290.6 108.9 289.8C108.8 289 108.9 287.8 109.4 286.4L111.1 281.9H124.4L126.8 288.3C127.3 289.6 127.5 290.6 127.3 291.2C127.1 291.8 126.5 292.2 125.6 292.5C124.7 292.7 123.3 292.8 121.6 292.9V295.1H146.1V292.9C144.7 292.8 143.5 292.6 142.7 292.4C142 292.1 141.4 291.8 140.9 291.3ZM112.5 278.4L117.9 264.3H118.1L123.3 278.4H112.5ZM183.7 279.5L186.2 279.6L182.5 295H146.4V292.7L171.2 252.5H155C153.8 254.6 152.8 256.5 151.9 258.3C151.1 260.1 150.4 261.6 150 262.8L147.5 262.6L150.6 249.2H185V251.4L160 291.7H177.2C178.2 290.2 179.1 288.9 179.8 287.6C180.5 286.3 181.2 285.1 181.8 283.8C182.5 282.5 183.1 281 183.7 279.5ZM227.1 279.5L229.6 279.6L225.9 295H189.7V292.7L214.5 252.5H198.3C197.1 254.6 196.1 256.5 195.2 258.3C194.4 260.1 193.7 261.6 193.3 262.8L190.8 262.6L193.9 249.2H228.3V251.4L203.3 291.7H220.5C221.5 290.2 222.4 288.9 223.1 287.6C223.8 286.3 224.5 285.1 225.1 283.8C225.9 282.5 226.5 281 227.1 279.5ZM274 291.3C273.6 290.8 273.2 290.1 272.8 289.2L255.8 248.1L247 251.5L249.7 257.6L238.5 286.2C237.9 287.8 237.3 289 236.7 289.9C236.2 290.7 235.4 291.3 234.4 291.7C233.5 292.1 232.1 292.5 230.2 292.8V295H248.6V292.8C246.5 292.5 244.9 292.1 243.8 291.7C242.8 291.2 242.2 290.6 242 289.8C241.9 289 242 287.8 242.5 286.4L244.2 281.9H257.5L259.9 288.3C260.4 289.6 260.6 290.6 260.4 291.2C260.2 291.8 259.6 292.2 258.7 292.5C257.8 292.7 256.4 292.8 254.7 292.9V295.1H279.2V292.9C277.8 292.8 276.6 292.6 275.8 292.4C275.1 292.1 274.5 291.8 274 291.3ZM245.6 278.4L251 264.3H251.2L256.4 278.4H245.6ZM309.3 273.9C311.9 273 313.9 271.5 315.4 269.6C316.9 267.7 317.6 265.2 317.6 262.4C317.6 259.6 316.9 257.2 315.6 255.3C314.3 253.4 312.4 251.9 310 250.9C307.6 249.9 304.9 249.4 301.7 249.4H280.3V251.6L285.4 252.9V291.7L280.3 293V295.2H302.3V293L295.5 291.7V275.3H297.9L309.9 295.2H326.1V293L320.7 291.8L309.3 273.9ZM306.7 265.4C306.3 266.6 305.7 267.7 304.8 268.7C304 269.7 302.9 270.5 301.6 271C300.3 271.6 298.6 271.9 296.4 271.9H295.6V252.5H296.8C298 252.5 299 252.6 299.8 252.7C300.6 252.8 301.3 253 302 253.3C303.5 253.9 304.8 254.9 305.8 256.4C306.8 257.8 307.2 259.6 307.2 261.7C307.2 263 307.1 264.2 306.7 265.4ZM366.2 255.6C364.2 253.4 361.8 251.8 358.9 250.5C356 249.3 352.7 248.7 349 248.7C345.3 248.7 342 249.3 339.1 250.5C336.2 251.7 333.8 253.4 331.8 255.6C329.8 257.7 328.3 260.2 327.3 263.1C326.3 265.9 325.8 269 325.8 272.2C325.8 275.4 326.3 278.5 327.3 281.3C328.3 284.1 329.8 286.6 331.8 288.8C333.8 291 336.2 292.7 339.1 293.9C342 295.1 345.3 295.7 349 295.7C352.7 295.7 356 295.1 358.9 293.9C361.8 292.7 364.2 291 366.2 288.8C368.2 286.6 369.7 284.1 370.7 281.3C371.7 278.5 372.2 275.4 372.2 272.2C372.2 269 371.7 265.9 370.7 263.1C369.7 260.2 368.2 257.7 366.2 255.6ZM360.2 277.4C360 279.2 359.7 281 359.2 282.8C358.7 284.5 358.1 286.1 357.2 287.5C356.3 288.9 355.2 290.1 353.9 290.9C352.6 291.7 350.9 292.2 349 292.2C347.1 292.2 345.4 291.8 344.1 290.9C342.8 290 341.7 288.9 340.8 287.5C340 286.1 339.3 284.5 338.8 282.8C338.3 281 338 279.2 337.8 277.4C337.6 275.6 337.5 273.8 337.5 272.2C337.5 270.6 337.6 268.8 337.8 267C338 265.2 338.3 263.4 338.8 261.7C339.3 260 339.9 258.4 340.8 257C341.7 255.6 342.8 254.5 344.1 253.6C345.4 252.8 347.1 252.3 349 252.3C350.9 252.3 352.6 252.7 353.9 253.6C355.3 254.4 356.4 255.6 357.2 257C358.1 258.4 358.7 260 359.2 261.7C359.7 263.4 360 265.2 360.2 267C360.4 268.8 360.5 270.5 360.5 272.2C360.5 273.9 360.4 275.5 360.2 277.4ZM427.9 281.1H431L428.5 295H392.5V292.8L397.6 291.6V252.5L392.5 251.4V249.2H413.4V251.4L407.8 252.6V291.6H422.6C423.8 290 424.8 288.3 425.6 286.6C426.3 285 427.1 283.1 427.9 281.1ZM433.9 249.3H454.2V251.5L449.2 252.7V291.6L454.2 292.9V295.1H433.9V292.9L439 291.6V252.7L433.9 251.5V249.3ZM492.3 249.3H507V251.5L501.7 252.6V295.6H497.6L468.3 258.7V291.6L473.5 292.8V295H459V292.8L464.3 291.6V252.5L459 251.4V249.2H475.1L497.6 277.4V252.5L492.3 251.4V249.3ZM537.1 272.1H557.9V274.3L552.6 275.4V290.2C551.4 291.2 549.7 292.2 547.7 293C545.6 293.8 543.4 294.5 541 294.9C538.6 295.4 536.2 295.6 533.9 295.6C529.3 295.6 525.2 294.6 521.8 292.8C518.3 290.9 515.6 288.2 513.7 284.8C511.8 281.4 510.8 277.4 510.8 272.9C510.8 269.4 511.4 266.1 512.5 263.1C513.7 260.1 515.3 257.6 517.4 255.5C519.5 253.3 522 251.7 524.9 250.5C527.8 249.3 531 248.7 534.5 248.7C537.1 248.7 539.6 249 541.9 249.7C544.2 250.3 546.1 251.2 547.6 252.4H547.8L550.4 249.4H552.3V263.9H549.6C548.2 261.1 546.9 258.8 545.5 257.1C544.1 255.4 542.6 254.2 541 253.5C539.4 252.7 537.6 252.4 535.5 252.4C531 252.4 527.6 254.1 525.4 257.5C523.2 260.9 522 266 522 272.8C522 279.6 522.9 284.6 524.8 287.7C526.7 290.8 529.6 292.3 533.6 292.3C535.3 292.3 536.9 292 538.3 291.4C539.7 290.8 540.7 289.9 541.4 288.9C541.7 288.5 541.9 288.1 541.9 287.6C542 287.2 542 286.5 542 285.6V275.5L536.7 274.4V272.1H537.1ZM606.4 251.5L601.1 252.6V278.2C601.1 280.5 600.9 282.5 600.4 284.4C599.9 286.3 599.3 287.9 598.4 289.3C597 291.4 595.2 293 592.8 294C590.4 295.1 587.5 295.6 584.1 295.6C580.5 295.6 577.4 295.1 574.6 293.9C571.8 292.8 569.7 291.2 568.1 289.2C567.2 288.1 566.5 286.7 566.1 285.2C565.7 283.6 565.5 281.6 565.5 279.1V252.6L560.5 251.5V249.3H581.1V251.5L575.9 252.6V279.1C575.9 283.1 576.8 286.3 578.6 288.5C580.4 290.7 583 291.8 586.3 291.8C590 291.8 592.7 290.6 594.5 288.1C595.4 286.8 596.1 285.1 596.5 283.1C596.9 281 597.1 278.2 597.1 274.8V252.5L591.8 251.4V249.2H606.4V251.5ZM647.9 291.3C647.5 290.8 647.1 290.1 646.7 289.2L629.7 248.1L620.9 251.5L623.6 257.6L612.4 286.2C611.8 287.8 611.2 289 610.6 289.9C610.1 290.7 609.3 291.3 608.3 291.7C607.4 292.1 606 292.5 604.1 292.8V295H622.5V292.8C620.4 292.5 618.8 292.1 617.7 291.7C616.7 291.2 616.1 290.6 615.9 289.8C615.8 289 615.9 287.8 616.4 286.4L618.1 281.9H631.4L633.8 288.3C634.3 289.6 634.5 290.6 634.3 291.2C634.1 291.8 633.5 292.2 632.6 292.5C631.7 292.7 630.3 292.8 628.6 292.9V295.1H653.1V292.9C651.7 292.8 650.5 292.6 649.7 292.4C649 292.1 648.4 291.8 647.9 291.3ZM619.5 278.4L624.9 264.3H625.1L630.3 278.4H619.5Z" fill="#F2F6E6"></path>
<path d="M173.1 338C268.701 338 346.2 262.336 346.2 169C346.2 75.6639 268.701 0 173.1 0C77.4995 0 0 75.6639 0 169C0 262.336 77.4995 338 173.1 338Z" fill="#9ED821"></path>
<path d="M138.8 116.7C137.7 114.9 136.1 113.4 134.1 112.3C132.1 111.2 129.8 110.5 127.1 110.2V110C130.6 109.4 133.3 108.2 135.3 106.6C137.2 104.9 138.2 102.9 138.2 100.5C138.2 98.7 137.8 97.1 136.9 95.6C136.1 94.1 134.9 92.8 133.3 91.8C132 91 130.3 90.4 128.3 90C126.3 89.6 123.8 89.4 120.8 89.4H100.8V91.6L105.9 92.9V131.7L100.8 133V135.2H121.9C125.5 135.2 128.3 135 130.5 134.5C132.7 134 134.5 133.2 136 132.1C137.4 131.1 138.4 129.8 139.2 128.2C140 126.6 140.4 124.9 140.4 123.1C140.4 120.6 139.9 118.5 138.8 116.7ZM116.1 92.5H117.2C118.9 92.5 120.4 92.7 121.6 93C122.9 93.3 124 93.8 124.8 94.5C125.6 95.1 126.2 96 126.6 97C127 98 127.3 99.2 127.3 100.6C127.3 103 126.7 105 125.4 106.4C124.1 107.8 122.3 108.6 119.9 108.9C119.5 109 119.1 109 118.5 109.1C118 109.1 117.4 109.1 116.7 109.1H116V92.5H116.1ZM127.1 129.6C125.7 131.1 123.5 131.9 120.6 131.9C118.9 131.9 117.7 131.7 117 131.2C116.4 130.7 116 129.8 116 128.4V112.4H118.2C122 112.4 124.7 113.2 126.5 114.9C128.3 116.5 129.2 119.1 129.2 122.5C129.3 125.6 128.6 128 127.1 129.6ZM180.6 121.1C179.9 122.8 179.1 124.6 178.3 126.4C177.5 128.2 176.4 129.9 175.1 131.7H160.3V112.5H167.8C168.4 113.6 169 114.7 169.4 115.9C169.8 117 170.2 118.2 170.4 119.2H172.9V102.6H170.4C170.2 103.7 169.8 104.8 169.4 105.9C169 107 168.5 108.1 167.8 109.3H160.3V92.6H175.4C176.4 94.2 177.3 95.8 178.1 97.5C178.9 99.2 179.5 100.8 180 102.4H182.5L181.4 89.4H145.1V91.6L150.2 92.7V131.8L145.1 133V135.2H181.1L183.6 121.3H180.6V121.1ZM214.9 112.1V114.3L220.2 115.4V125.4C220.2 126.3 220.2 127 220.1 127.4C220 127.8 219.8 128.3 219.6 128.7C218.9 129.7 217.8 130.6 216.4 131.2C215 131.8 213.4 132.1 211.7 132.1C207.7 132.1 204.7 130.6 202.9 127.5C201 124.4 200 119.4 200 112.6C200 105.8 201.1 100.7 203.4 97.3C205.6 93.9 209 92.2 213.5 92.2C215.6 92.2 217.4 92.6 219 93.3C220.6 94 222.1 95.3 223.5 96.9C224.9 98.6 226.3 100.8 227.6 103.7H230.3V89.3H228.4L225.8 92.3H225.6C224.2 91.2 222.3 90.3 219.9 89.6C217.6 88.9 215.1 88.6 212.5 88.6C209 88.6 205.8 89.2 202.9 90.4C200 91.6 197.5 93.2 195.4 95.4C193.3 97.5 191.6 100.1 190.5 103C189.3 106 188.8 109.2 188.8 112.8C188.8 117.3 189.8 121.3 191.7 124.7C193.6 128.1 196.3 130.8 199.8 132.7C203.3 134.6 207.3 135.5 211.9 135.5C214.2 135.5 216.6 135.3 218.9 134.8C221.3 134.3 223.5 133.7 225.6 132.8C227.7 132 229.3 131 230.6 130V115.2L235.9 114.1V111.9H214.9V112.1ZM274.8 121.1C274.1 123.1 273.3 125 272.4 126.7C271.6 128.4 270.6 130 269.4 131.6H254.6V92.6L260.2 91.4V89.2H239.4V91.4L244.5 92.5V131.6L239.4 132.8V135H275.4L277.9 121.1H274.8ZM322.8 132.3C322 132.1 321.4 131.7 320.9 131.3C320.5 130.8 320.1 130.1 319.7 129.2L302.7 88.1L293.8 91.5L296.5 97.6L285.3 126.2C284.7 127.8 284.1 129 283.5 129.9C283 130.7 282.2 131.3 281.2 131.7C280.3 132.1 278.9 132.5 277 132.8V135H295.4V132.8C293.3 132.5 291.7 132.1 290.6 131.7C289.6 131.2 289 130.6 288.8 129.8C288.7 129 288.8 127.8 289.3 126.4L291 121.9H304.3L306.7 128.3C307.2 129.6 307.4 130.6 307.2 131.2C307 131.8 306.4 132.2 305.5 132.5C304.6 132.7 303.2 132.8 301.5 132.9V135.1H326V132.9C324.7 132.7 323.6 132.6 322.8 132.3ZM292.5 118.4L297.9 104.3H298.1L303.3 118.4H292.5ZM325.7 89.3H324V91.5L327.3 92.2C326.8 91.2 326.3 90.3 325.7 89.3ZM340.3 125.4C340.1 124.8 339.9 124.1 339.7 123.4V123.3C336.9 113.7 333.3 104.4 329 95.6V119.1C329 121.6 329.2 123.6 329.6 125.2C330 126.8 330.7 128.1 331.6 129.2C333.2 131.3 335.3 132.8 338.1 133.9C339.5 134.5 341.1 134.9 342.7 135.2C342 131.9 341.2 128.7 340.3 125.4ZM131.1 169.3V171.5L136.4 172.6V194.9C136.4 198.3 136.2 201.1 135.8 203.2C135.4 205.3 134.7 207 133.8 208.2C132 210.7 129.3 211.9 125.6 211.9C122.3 211.9 119.7 210.8 117.9 208.6C116.1 206.4 115.2 203.2 115.2 199.2V172.7L120.4 171.6V169.4H99.9V171.6L104.9 172.7V199.2C104.9 201.7 105.1 203.7 105.5 205.3C105.9 206.9 106.6 208.2 107.5 209.3C109.1 211.4 111.2 212.9 114 214C116.8 215.1 119.9 215.6 123.5 215.6C127 215.6 129.9 215.1 132.2 214C134.6 212.9 136.5 211.4 137.8 209.3C138.7 207.9 139.3 206.3 139.8 204.4C140.3 202.5 140.5 200.4 140.5 198.2V172.6L145.8 171.5V169.3H131.1ZM135.2 158.9C134.4 158.1 133.4 157.7 132 157.7C130.7 157.7 129.6 158.1 128.9 158.9C128.2 159.7 127.8 160.7 127.8 161.7C127.8 162.6 128.2 163.5 128.9 164.4C129.6 165.2 130.7 165.7 132 165.7C133.5 165.7 134.5 165.3 135.2 164.4C135.9 163.5 136.3 162.6 136.3 161.7C136.4 160.7 136 159.7 135.2 158.9ZM123 158.9C122.2 158.1 121.2 157.7 119.9 157.7C118.6 157.7 117.5 158.1 116.8 158.9C116.1 159.7 115.7 160.7 115.7 161.7C115.7 162.6 116 163.5 116.7 164.4C117.4 165.2 118.5 165.7 119.9 165.7C121.3 165.7 122.4 165.3 123.1 164.4C123.8 163.5 124.2 162.6 124.2 161.7C124.1 160.7 123.8 159.7 123 158.9ZM187.5 196.7C186.4 194.9 184.8 193.4 182.8 192.3C180.8 191.2 178.5 190.5 175.8 190.2V190C179.3 189.4 182 188.2 184 186.6C185.9 184.9 186.9 182.9 186.9 180.5C186.9 178.7 186.5 177.1 185.6 175.6C184.8 174.1 183.6 172.8 182 171.8C180.7 171 179 170.4 177 170C175 169.6 172.5 169.4 169.5 169.4H149.5V171.6L154.6 172.9V211.7L149.5 213V215.2H170.6C174.2 215.2 177 215 179.2 214.5C181.4 214 183.2 213.2 184.7 212.1C186.1 211.1 187.1 209.8 187.9 208.2C188.7 206.6 189.1 204.9 189.1 203.1C189.2 200.6 188.6 198.5 187.5 196.7ZM164.8 172.5H165.9C167.6 172.5 169.1 172.7 170.3 173C171.6 173.3 172.7 173.8 173.5 174.5C174.3 175.1 174.9 176 175.3 177C175.7 178 176 179.2 176 180.6C176 183 175.4 185 174.1 186.4C172.8 187.8 171 188.6 168.6 188.9C168.2 189 167.8 189 167.2 189.1C166.7 189.1 166.1 189.1 165.4 189.1H164.7V172.5H164.8ZM175.9 209.6C174.5 211.1 172.3 211.9 169.4 211.9C167.7 211.9 166.5 211.7 165.8 211.2C165.2 210.7 164.8 209.8 164.8 208.4V192.4H167C170.8 192.4 173.5 193.2 175.3 194.9C177.1 196.5 178 199.1 178 202.5C178 205.6 177.3 208 175.9 209.6ZM229.3 201.1C228.6 202.8 227.8 204.6 227 206.4C226.2 208.2 225.1 209.9 223.8 211.7H209V192.5H216.5C217.1 193.6 217.7 194.7 218.1 195.9C218.5 197 218.9 198.2 219.1 199.2H221.6V182.6H219.1C218.9 183.7 218.5 184.8 218.1 185.9C217.7 187 217.2 188.1 216.5 189.3H209V172.7H224.1C225.1 174.3 226 175.9 226.8 177.6C227.6 179.3 228.2 180.9 228.7 182.5H231.2L230.1 169.5H193.8V171.7L198.9 172.8V211.9L193.8 213.1V215.3H229.8L232.3 201.4H229.3V201.1ZM277.7 211.6L266.3 193.8C268.9 192.9 271 191.4 272.4 189.5C273.9 187.6 274.6 185.1 274.6 182.3C274.6 179.5 273.9 177.1 272.6 175.2C271.3 173.3 269.4 171.8 267 170.8C264.6 169.8 261.9 169.3 258.7 169.3H237.3V171.5L242.4 172.8V211.6L237.3 212.9V215.1H259.3V212.9L252.5 211.6V195.2H254.9L266.9 215.1H283.1V212.9L277.7 211.6ZM263.6 185.4C263.2 186.6 262.6 187.7 261.7 188.7C260.9 189.7 259.8 190.5 258.5 191C257.2 191.6 255.5 191.9 253.3 191.9H252.5V172.5H253.7C254.9 172.5 255.9 172.6 256.7 172.7C257.5 172.8 258.2 173 258.9 173.3C260.4 173.9 261.7 174.9 262.7 176.4C263.7 177.8 264.1 179.6 264.1 181.7C264.2 183 264 184.2 263.6 185.4ZM313.8 193.8C312.2 191.5 309.5 189.4 305.7 187.5L301 185C298.5 183.7 296.7 182.5 295.7 181.5C294.7 180.4 294.2 179.2 294.2 177.8C294.2 176 294.8 174.7 295.9 173.7C297 172.7 298.6 172.2 300.7 172.2C303.6 172.2 306 173.1 307.9 174.7C309.8 176.4 311.2 178.9 312.2 182.3H314.8L314.2 169.2H312.2L310.8 172.3C307.9 169.8 304.4 168.6 300.4 168.6C297.5 168.6 294.9 169.1 292.6 170.2C290.3 171.3 288.5 172.8 287.2 174.7C285.9 176.6 285.2 178.7 285.2 181.2C285.2 184.3 286.1 187.1 288 189.5C289.8 191.9 292.7 194 296.6 195.9L301.4 198.3C304 199.5 305.8 200.7 306.8 201.8C307.9 202.9 308.4 204.1 308.4 205.3C308.4 207.4 307.6 209.1 306.1 210.3C304.6 211.5 302.6 212.1 300.1 212.1C296.6 212.1 293.8 211.1 291.7 209.1C289.6 207.1 287.9 203.9 286.6 199.4L284.1 199.8L285.3 215H287.2L289.3 212.6C291.3 213.6 293.2 214.4 294.9 214.9C296.6 215.4 298.4 215.6 300.3 215.6C303.3 215.6 306.1 215 308.5 213.8C310.9 212.6 312.9 211 314.3 209C315.7 207 316.4 204.7 316.4 202.1C316.3 198.8 315.5 196.1 313.8 193.8ZM346.1 172.6C346.1 171.5 346.1 170.4 346.1 169.3H321.8V171.5L326.9 172.6V211.7L321.8 212.9V215.1H339.6C339.9 214 340.2 212.8 340.5 211.7H337V192.5H344.4C344.6 191.2 344.8 189.8 344.9 188.5C344.8 188.8 344.6 189 344.5 189.3H337V172.7H346.1V172.6ZM142.8 292.3C142 292.1 141.4 291.7 140.9 291.3C140.5 290.8 140.1 290.1 139.7 289.2L122.7 248.1L113.8 251.5L116.5 257.6L105.3 286.2C104.7 287.8 104.1 289 103.5 289.9C103 290.7 102.2 291.3 101.2 291.7C100.3 292.1 98.9 292.5 97 292.8V295H115.4V292.8C113.3 292.5 111.7 292.1 110.6 291.7C109.6 291.2 109 290.6 108.8 289.8C108.7 289 108.8 287.8 109.3 286.4L111 281.9H124.3L126.7 288.3C127.2 289.6 127.4 290.6 127.2 291.2C127 291.8 126.4 292.2 125.5 292.5C124.6 292.7 123.2 292.8 121.5 292.9V295.1H146V292.9C144.7 292.7 143.6 292.6 142.8 292.3ZM112.5 278.4L117.9 264.3H118.1L123.3 278.4H112.5ZM183.7 279.5C183.1 281.1 182.5 282.5 181.9 283.8C181.3 285.1 180.6 286.4 179.9 287.6C179.2 288.8 178.3 290.2 177.3 291.7H160.1L185.1 251.4V249.2H150.7L147.6 262.6L150.1 262.7C150.5 261.5 151.1 260 152 258.2C152.9 256.4 153.9 254.5 155.1 252.4H171.3L146.5 292.6V294.9H182.6L186.3 279.5H183.7ZM227.1 279.5C226.5 281.1 225.9 282.5 225.3 283.8C224.7 285.1 224 286.4 223.3 287.6C222.6 288.8 221.7 290.2 220.7 291.7H203.5L228.5 251.4V249.2H194L190.9 262.6L193.4 262.7C193.8 261.5 194.4 260 195.3 258.2C196.2 256.4 197.2 254.5 198.4 252.4H214.6L189.8 292.6V294.9H225.9L229.6 279.5H227.1ZM275.9 292.3C275.1 292.1 274.5 291.7 274 291.3C273.6 290.8 273.2 290.1 272.8 289.2L255.8 248.1L246.9 251.5L249.6 257.6L238.4 286.2C237.8 287.8 237.2 289 236.6 289.9C236.1 290.7 235.3 291.3 234.3 291.7C233.4 292.1 232 292.5 230.1 292.8V295H248.5V292.8C246.4 292.5 244.8 292.1 243.7 291.7C242.7 291.2 242.1 290.6 241.9 289.8C241.8 289 241.9 287.8 242.4 286.4L244.1 281.9H257.4L259.8 288.3C260.3 289.6 260.5 290.6 260.3 291.2C260.1 291.8 259.5 292.2 258.6 292.5C257.7 292.7 256.3 292.8 254.6 292.9V295.1H279.1V292.9C277.8 292.7 276.7 292.6 275.9 292.3ZM245.6 278.4L251 264.3H251.2L256.4 278.4H245.6ZM315.6 255.2C314.3 253.3 312.4 251.8 310 250.8C307.6 249.8 304.9 249.3 301.7 249.3H280.3V251.5L285.4 252.8V291.6L280.3 292.9V295.1H288.4C290.9 293 293.3 290.7 295.6 288.4V275.2H298L302 281.8C307.7 275.6 312.9 269 317.6 262.1C317.5 259.3 316.9 257.1 315.6 255.2ZM306.7 265.4C306.3 266.6 305.7 267.7 304.8 268.7C304 269.7 302.9 270.5 301.6 271C300.3 271.6 298.6 271.9 296.4 271.9H295.6V252.5H296.8C298 252.5 299 252.6 299.8 252.7C300.6 252.8 301.3 253 302 253.3C303.5 253.9 304.8 254.9 305.8 256.4C306.8 257.8 307.2 259.6 307.2 261.7C307.2 263 307.1 264.2 306.7 265.4Z" fill="#262C20"></path>
</g>
<defs>
<clipPath id="clip0_625_189">
<rect width="728.8" height="338" fill="white"></rect>
</clipPath>
</defs>
</svg>
