<svg width="280" height="240" fill="none" xmlns="http://www.w3.org/2000/svg"><g clip-path="url('#a')"><path d="M182.14 190.14s-6.85-2.18-2.9-7.42c3.95-5.24 4.07-8.38.27-13.7-3.81-5.33-2.44-8.88 1.3-12.33 3.75-3.46-4.29-9.02.91-12.46a10.65 10.65 0 0 0 4.79-10.94c-.41-2.34-.67-10.06 5.44-8.24 6.13 1.81 6.74 10.74 5.37 14.17-1.38 3.43-2.14 6.81 3.71 10.5 5.87 3.7 6.6 6.76 5.52 11.48-1.09 4.73-2.28 4.31.94 11.25 0 0 3.7 5.03-1.45 9.13-5.15 4.1-7.66 11.22-5.84 14.93l-18.06-6.37Z" fill="#A0D925"></path><path d="M208.44 189.95h-36.67s-1.13 25.03 11.3 37.54h14.09c12.42-12.51 11.28-37.54 11.28-37.54Z" fill="#FFC01D"></path><path d="M210.16 188.65h-40.38v3.89h40.38v-3.89Z" fill="#E5F2BE"></path><path d="M208.36 105.62a8.19 8.19 0 0 1-2.4 5.8 8.2 8.2 0 0 1-5.8 2.4H94.38a8.2 8.2 0 0 1-7.58-5.06 8.2 8.2 0 0 1-.62-3.14v-66.7a8.2 8.2 0 0 1 8.2-8.2h105.78a8.2 8.2 0 0 1 8.2 8.2v66.7Z" fill="#262C20"></path><path d="M150.52 107.26v34.44l30.51-34.44h-30.5Z" fill="#262C20"></path><path d="M101.8 125.68H19.98a6.34 6.34 0 0 0-6.34 6.34v51.59a6.35 6.35 0 0 0 6.34 6.34h18.38l19.1 21.56v-21.56h44.32a6.35 6.35 0 0 0 4.49-1.86 6.35 6.35 0 0 0 1.85-4.48v-51.59a6.33 6.33 0 0 0-3.9-5.86 6.33 6.33 0 0 0-2.44-.48Z" fill="#F2F6E6"></path><path d="m58.2 213.4-20.15-22.74H20a7.07 7.07 0 0 1-7.06-7.05v-51.59a7.07 7.07 0 0 1 7.06-7.05h81.8a7.07 7.07 0 0 1 7.06 7.05v51.59a7.07 7.07 0 0 1-7.06 7.05H58.2v22.74Zm-38.21-87a5.63 5.63 0 0 0-5.63 5.62v51.59a5.63 5.63 0 0 0 5.63 5.62H38.7l.21.24 17.85 20.15v-20.4h45.03a5.63 5.63 0 0 0 5.62-5.61v-51.59a5.62 5.62 0 0 0-5.62-5.62H20Z" fill="#262C20"></path><path d="M120.13 64.58v5.91h5.73v-5.9h3.47v15.37h-3.47v-6.43h-5.73v6.43h-3.5V64.58h3.5Zm14.47 11.43-1.1 3.95h-3.63l4.72-15.38h4.6l4.78 15.38h-3.75l-1.2-3.95h-4.43Zm3.92-2.6-.97-3.26c-.27-.92-.55-2.06-.78-2.97h-.04c-.23.91-.46 2.08-.72 2.97l-.91 3.26h3.42Zm6-8.83h3.49v12.46h6.12v2.92h-9.61V64.58Zm11.64 0h3.5v12.46h6.1v2.92h-9.6V64.58Zm24.87 7.53c0 5.04-3.06 8.1-7.56 8.1-4.56 0-7.24-3.44-7.24-7.82 0-4.62 2.95-8.06 7.5-8.06 4.71 0 7.3 3.54 7.3 7.78Zm-11.12.2c0 3.02 1.42 5.14 3.75 5.14 2.34 0 3.69-2.23 3.69-5.22 0-2.77-1.32-5.14-3.72-5.14-2.35 0-3.72 2.24-3.72 5.23Z" fill="#FFC01D"></path><path d="M35.33 161.39a2.21 2.21 0 0 1-3.8 1.58 2.22 2.22 0 0 1-.63-1.58 2.21 2.21 0 0 1 1.35-2.12 2.2 2.2 0 0 1 1.73 0 2.21 2.21 0 0 1 1.35 2.12Zm-4.18 14.95.54-11.32h2.87l.54 11.32h-3.95Zm22.3-13.49c0 5.5-3.34 8.84-8.25 8.84-4.97 0-7.88-3.76-7.88-8.54 0-5.02 3.21-8.78 8.16-8.78 5.16 0 7.96 3.85 7.96 8.48Zm-12.12.23c0 3.29 1.54 5.6 4.08 5.6 2.56 0 4.03-2.44 4.03-5.7 0-3.01-1.45-5.6-4.06-5.6-2.56 0-4.05 2.44-4.05 5.7Zm14.6-8.44h3.81v13.59h6.66v3.18H55.94v-16.77Zm16.77 12.47-1.2 4.3h-3.92l5.13-16.77h4.98l5.2 16.77H78.8l-1.3-4.3h-4.8Zm4.26-2.84-1.04-3.56c-.3-1-.6-2.24-.85-3.23h-.05c-.25 1-.5 2.27-.77 3.23l-1 3.56h3.71Zm7.62 5.15a2.22 2.22 0 0 1 2.23-2.26 2.23 2.23 0 0 1 1.58.66 2.23 2.23 0 0 1 .64 1.6 2.23 2.23 0 0 1-1.36 2.1 2.21 2.21 0 0 1-1.72 0 2.22 2.22 0 0 1-1.21-1.24 2.23 2.23 0 0 1-.16-.86Zm.82-3.5-.57-11.28h3.95l-.54 11.28H85.4Z" fill="#262C20"></path><path d="M77.5 21.33H41.35a6.02 6.02 0 0 0-6.01 6.03v4.11a6.02 6.02 0 0 0 6.01 6.02h2.2c2.13 3 6.87 8.35 13.65 8.64 0 0-4.73-4.07-2.19-8.64h22.5a6.03 6.03 0 0 0 6.02-6.02v-4.11a6.03 6.03 0 0 0-6.03-6.03Z" fill="#FFC01D"></path><path d="m213.63 107.9 1.56-1.35c.13-.12 3.2-2.83 1.84-5.92h-18.27a5.73 5.73 0 0 1-5.72-5.72v-3.42a5.74 5.74 0 0 1 5.72-5.73h30.06a5.73 5.73 0 0 1 5.72 5.73v3.42a5.72 5.72 0 0 1-5.72 5.72h-1.45c-2 2.71-6 6.94-11.69 7.18l-2.05.09Zm-14.87-20.7a4.3 4.3 0 0 0-4.28 4.29v3.42a4.3 4.3 0 0 0 4.28 4.28h19.13l.2.37c1.38 2.47.52 4.92-.63 6.57 4.32-.96 7.41-4.46 8.96-6.64l.21-.3h2.19a4.29 4.29 0 0 0 4.29-4.28v-3.42a4.3 4.3 0 0 0-4.3-4.3h-30.05Z" fill="#9ED821"></path><path d="M198.76 87.2a4.3 4.3 0 0 0-4.28 4.29v3.42a4.3 4.3 0 0 0 4.28 4.28h19.13l.2.37c1.38 2.47.52 4.92-.63 6.57 4.32-.96 7.41-4.46 8.96-6.64l.21-.3h2.19a4.29 4.29 0 0 0 4.29-4.28v-3.42a4.3 4.3 0 0 0-4.3-4.3h-30.05Z" fill="#9ED821"></path><path d="m22.33 100.54-1.2-.44-1.05 3.13 1.23.36 1.02-3.05Zm1.93-4.37-1.14-.58a9.95 9.95 0 0 0-.73 1.48l-.65 1.53 1.18.48.63-1.47c.19-.5.43-.98.7-1.44Zm2.43-4.08-1.04-.74s-1.85 2.76-1.77 2.8l1.11.64c-.07-.05 1.7-2.7 1.7-2.7Zm3.05-3.64-.91-.9-1.15 1.21-1.04 1.3 1 .79 1-1.25 1.1-1.15Zm3.58-3.1-.74-1.04a39.5 39.5 0 0 0-2.6 2.1l.86.94s2.42-2.08 2.48-2Zm4.06-2.44-.56-1.14s-.75.36-1.46.78c-.73.4-1.44.84-1.44.84l.68 1.07s.68-.41 1.38-.8c.68-.4 1.4-.75 1.4-.75Zm4.41-1.7-.35-1.23s-3.16 1.05-3.13 1.12l.5 1.17c-.04-.07 2.98-1.07 2.98-1.07Zm4.65-1-.16-1.26s-3.28.55-3.26.62l.3 1.24c-.02-.06 3.12-.6 3.12-.6Zm4.76-.29v-1.27s-3.3.08-3.3.14l.1 1.28c0-.07 3.2-.14 3.2-.15Zm4.76.33.17-1.26-1.65-.18c-.55-.07-1.1-.1-1.65-.1l-.06 1.27c.53 0 1.06.04 1.6.1.79.1 1.59.17 1.59.17Zm4.68.92.32-1.24-1.6-.37c-.54-.13-1.08-.24-1.63-.31l-.22 1.26a14 14 0 0 1 1.57.3l1.56.36Zm4.55 1.47.46-1.18-1.55-.57a15.55 15.55 0 0 0-1.58-.5l-.37 1.22c.52.13 1.03.3 1.53.49l1.5.54Zm4.3 2.05.62-1.1s-.73-.42-1.47-.78a20.84 20.84 0 0 0-1.5-.71l-.52 1.16s.74.31 1.45.69c.71.35 1.41.75 1.41.74Zm3.9 2.67.82-.99a15.13 15.13 0 0 0-1.32-1.02l-1.38-.94-.68 1.08 1.31.9c.44.3.86.62 1.26.97Zm3.23 3.37 1.04-.73a19.04 19.04 0 0 0-2.22-2.54l-.88.92c.75.72 1.44 1.5 2.06 2.35Zm1.73 4.13 1.26-.15a9.8 9.8 0 0 0-1.07-3.3l-1.13.6c.26.44.47.9.6 1.4.19.46.3.95.34 1.45Zm-.27 4.64 1.26.2c.13-.55.22-1.12.28-1.69l.04-1.63-1.27-.03-.04 1.63a13.06 13.06 0 0 1-.27 1.52Zm-1.67 4.2 1.05.72c.34-.47.63-.96.87-1.48l.63-1.6-1.21-.38-.57 1.43a7.53 7.53 0 0 1-.77 1.31Zm-3.32 2.95.54 1.15 1.5-.89c.46-.36.89-.75 1.29-1.17l-.93-.88c-.34.37-.71.7-1.1 1.02l-1.3.77Zm-4.4.69-.1 1.27c-.04.19 3.46-.04 3.42-.25l-.32-1.24c.05.19-3 .38-3 .22Zm-4.31-1.4-.62 1.11c.48.3 1 .56 1.53.75l1.62.56.3-1.24-1.44-.5a6.96 6.96 0 0 1-1.4-.68Zm-3.67-2.85-.91.89c-.11.11 2.53 2.22 2.53 2.22l.74-1.04s-2.45-1.96-2.36-2.07Zm-2.87-3.72-1.08.67s1.82 2.8 1.94 2.72l.98-.81a25.13 25.13 0 0 1-1.84-2.58Zm-2.14-4.23-1.18.49a31.6 31.6 0 0 0 1.43 3l1.12-.6a28.66 28.66 0 0 1-1.37-2.89Zm-1.43-4.52-1.24.3c.1.55.22 1.09.37 1.62l.57 1.56 1.2-.43-.55-1.5a15.64 15.64 0 0 1-.35-1.55Zm-.62-4.67-1.28.05.06 1.67c0 .38.06.76.16 1.13.07.31.1.52.1.52l1.27-.22a8.42 8.42 0 0 1-.26-1.56l-.05-1.59Zm.23-4.72-1.27-.17s-.44 3.3-.3 3.3l1.28.03c-.15 0 .3-3.16.3-3.16Z" fill="#F2F6E6"></path><path d="m54.87 76.58-1.23-.35-.42 1.6a14.8 14.8 0 0 0-.4 1.61l1.25.24c.1-.53.23-1.04.38-1.55l.42-1.55Zm1.62-4.47-1.17-.51-1.25 3.07 1.2.4 1.22-2.96Zm2.16-4.27-1.11-.64-1.6 2.9 1.16.56 1.55-2.82Zm2.6-4-1.04-.76-1.89 2.72 1.08.67 1.84-2.64Zm2.99-3.75-.96-.83-2.14 2.5 1 .78 2.1-2.45Zm3.32-3.44-.87-.93s-2.43 2.24-2.36 2.31l.93.87c-.06-.06 2.3-2.25 2.3-2.25Zm3.63-3.14-.8-1-1.3 1.01a9.5 9.5 0 0 0-1.23 1.1l.84.94a8.38 8.38 0 0 1 1.21-1.06l1.28-1Zm3.87-2.82-.7-1.07-1.4.88-1.3 1.02.77 1.02 1.27-1 1.36-.85Zm4.1-2.48-.6-1.12a34.8 34.8 0 0 0-2.84 1.67l.68 1.08s2.72-1.72 2.77-1.63Zm4.3-2.13-.5-1.17L80 46.37l.58 1.13 2.89-1.42Zm4.5-1.68-.4-1.21-3.09 1.15.47 1.19 3.02-1.13Zm4.62-1.27-.29-1.24-3.2.82.37 1.22 3.12-.8Zm4.71-.84-.17-1.27-1.63.23c-.82.11-1.63.25-1.63.25l.25 1.25s.79-.14 1.58-.24l1.6-.22Zm4.77-.44-.05-1.28-1.65.04c-.82.05-1.64.2-1.64.2l.13 1.26c.53-.09 1.07-.15 1.6-.18.8-.03 1.61-.04 1.61-.04Zm4.77-.04.1-1.26a28.7 28.7 0 0 0-3.3-.01v1.27a29.28 29.28 0 0 1 3.2 0Zm4.67.86.3-1.24s-.8-.21-1.6-.36c-.82-.2-1.64-.3-1.64-.3l-.2 1.26s.8.1 1.58.29c.79.14 1.56.35 1.56.35Zm4.49 1.51.52-1.16-1.56-.63a18.43 18.43 0 0 0-1.58-.53L113 43.1c.52.14 1.02.3 1.51.5l1.48.6Zm3.9 2.49.85-.94a10.75 10.75 0 0 0-1.32-1.07l-1.44-.9-.62 1.1 1.32.84c.43.29.83.61 1.2.97Zm2.31 3.73 1.24-.31c.23-.09-1.38-3.24-1.55-3.12l-1 .79c.15-.1 1.52 2.58 1.31 2.64Zm-.15 4.46 1.22.33.4-1.67.04-1.74-1.28.07-.02 1.5-.36 1.5Zm-2.5 3.36.64 1.1a7.1 7.1 0 0 0 1.41-1.06 5.76 5.76 0 0 0 1.12-1.48l-1.16-.53a4.03 4.03 0 0 1-.85 1.09 5.7 5.7 0 0 1-1.16.88Zm-4.35 1.2.08 1.26s.84-.06 1.7-.2l1.14-.27.5-.18-.41-1.2-.45.16-1.03.24c-.76.12-1.53.18-1.53.18Zm-4.63-.43-.3 1.23s.83.2 1.66.32c.84.12 1.69.15 1.69.15l.05-1.27s-.78-.03-1.56-.14a21.8 21.8 0 0 1-1.54-.3Zm-4.35-1.69-.6 1.12s.72.4 1.5.74c.77.34 1.57.61 1.57.6l.4-1.2s-.74-.25-1.46-.56a23.04 23.04 0 0 1-1.4-.7Zm-3.73-2.78-.91.91a21.24 21.24 0 0 0 2.62 2.13l.7-1.06a17.75 17.75 0 0 1-2.41-1.98Zm-2.8-3.7-1.12.6a18.29 18.29 0 0 0 1.9 2.8l.98-.82a17.27 17.27 0 0 1-1.76-2.59Zm-1.64-4.36-1.24.28c.26 1.1.6 2.16 1.04 3.2l1.17-.5a19.89 19.89 0 0 1-.97-2.98Z" fill="#F2F6E6"></path><path d="m97.56 41.79-1.27-.01c-.02.56 0 1.12.04 1.67l.16 1.67 1.27-.18-.16-1.57a12.82 12.82 0 0 1-.04-1.58Zm.46-4.71-1.26-.23-.27 1.64-.14 1.66 1.27.09.14-1.6.26-1.56Zm1.18-4.63-1.22-.38s-.27.78-.49 1.58l-.4 1.6 1.24.3.39-1.56c.21-.77.48-1.54.48-1.54Zm1.7-4.46-1.18-.52s-.33.76-.62 1.53l-.61 1.53 1.2.44.59-1.5c.29-.75.62-1.48.62-1.48Zm2.33-4.1-1.05-.74-.93 1.4c-.3.46-.56.95-.78 1.46l1.13.59c.21-.49.46-.95.75-1.4l.88-1.32Zm3.05-3.59-.88-.92-.38.35a5.53 5.53 0 0 0-.8.84l-1.08 1.27 1 .79 1.03-1.2a9.56 9.56 0 0 1 1.12-1.13ZM110 17.4l-.68-1.08s-.7.46-1.38.96c-.67.49-1.33 1-1.33 1l.82.98 1.26-.95c.64-.48 1.3-.92 1.3-.92Zm4.22-2.12-.47-1.18s-3.06 1.32-3.01 1.41l.6 1.12c-.04-.09 2.88-1.34 2.88-1.35Zm4.55-1.32-.26-1.26-1.63.36-1.59.5.4 1.21 1.52-.48 1.56-.34Zm4.7-.62-.06-1.27c0-.08-3.3.33-3.3.33l.2 1.26s3.16-.4 3.16-.32Zm4.77.05.1-1.27-1.65-.07c-.83-.05-1.66-.04-1.66-.04v1.28s.8-.01 1.6.03l1.6.07Zm4.7.73.28-1.24-1.62-.33c-.82-.15-1.65-.23-1.65-.23l-.16 1.27s.8.07 1.59.22l1.57.31Zm4.6 1.32.42-1.21c.02-.06-3.16-.98-3.16-.98l-.33 1.24s3.08.88 3.06.94Zm4.38 1.86.58-1.14-1.5-.7c-.75-.35-1.52-.67-1.52-.67l-.48 1.18s.74.31 1.47.65l1.45.68Zm4.07 2.46.73-1.04-1.37-.93a15.86 15.86 0 0 0-1.43-.85l-.64 1.12c.48.24.94.5 1.38.8l1.33.9Zm3.67 3 .88-.92c-.38-.4-.79-.77-1.22-1.12l-1.28-1.05-.8 1 1.26 1.02c.4.33.8.7 1.16 1.07Zm3.16 3.54 1.03-.76c.07-.06-2.13-2.57-2.13-2.57l-.93.88s2.1 2.4 2.03 2.45Zm2.47 4.03 1.14-.56s-1.57-2.94-1.66-2.89l-1.07.7c.1-.05 1.59 2.75 1.59 2.75Zm1.6 4.44 1.24-.32-.45-1.61c-.28-.8-.6-1.56-.6-1.56l-1.19.48.58 1.48.42 1.53Zm.73 4.65 1.27-.07c.12 0-.4-3.31-.4-3.31l-1.24.24c.17 1.04.3 2.09.37 3.14Zm-.17 4.73 1.27.16a30.86 30.86 0 0 0 .21-3.32l-1.26-.01a29 29 0 0 1-.22 3.17Zm-.98 4.64 1.22.35c.2-.51.34-1.05.43-1.6l.33-1.62-1.25-.24-.32 1.57a8.46 8.46 0 0 1-.41 1.54Zm-1.66 4.47 1.18.51.65-1.52a6.27 6.27 0 0 0 .4-1.06l.16-.5-1.2-.4-.16.47a7.1 7.1 0 0 1-.39 1.03l-.64 1.47Z" fill="#F2F6E6"></path><path d="M280 127a5.99 5.99 0 0 0-5.18-6.1 5.99 5.99 0 0 0-2.88.32 7.76 7.76 0 0 0-8.13-5.25 7.78 7.78 0 0 0-3.27 1.1 12.1 12.1 0 0 0-22.15 4.34 6.92 6.92 0 0 0-10.86 5.56l.01.23 52.33.9c.08-.36.13-.73.13-1.1ZM52.47 67.77a5.98 5.98 0 0 0-8.05-5.76 7.79 7.79 0 0 0-7.24-5.3 7.7 7.7 0 0 0-4.17 1.14 12.1 12.1 0 0 0-22.14 4.33 6.83 6.83 0 0 0-3.83-1.23A6.92 6.92 0 0 0 0 67.75l.02.23 52.33.9c.08-.36.12-.73.12-1.1Z" fill="#D4E6F4"></path><path d="M119.1 195.65c-.98 10.35-.85 32.16 3.63 31.68 4.49-.49 6.8-2.3 4.1-2.77-2.69-.44-2.82-.74-2.84-1.55-.14-5.14 3.14-15.15 4.13-22.71 1.15-8.78-8.17-13.7-9.02-4.65Z" fill="#FEA081"></path><path d="M120.54 225.41s4.13 1.18 6.3-.85c0 0 4.47.1 1.87 1.62-2.6 1.54-7.8 3.23-8.17-.77Z" fill="#262C20"></path><path d="M146.68 162.15c-4.52 9.36-12 29.85-7.62 30.96 4.36 1.1 7.16.2 4.8-1.17-2.37-1.36-2.4-1.68-2.13-2.45 1.66-4.85 8.22-13.1 11.78-19.85 4.13-7.82-2.9-15.68-6.83-7.49Z" fill="#FEA081"></path><path d="M137.67 190.55s3.45 2.53 6.18 1.4c0 0 4.17 1.62 1.21 2.16-2.98.54-8.44.3-7.4-3.56Zm3.34-44.23s17.85-8.5 19.74.28c1.72 7.9-13.18 36.52-13.18 36.52s-5.15 1.09-9.13-2.37l4.02-18.32-11.23-.27 2.59-12.64 7.19-3.2Z" fill="#262C20"></path><path d="m116.88 151.01 1.41 66.52 7.88-.22 10.12-68.65s-5.93 3.2-19.4 2.35Z" fill="#274128"></path><path d="M136.37 130.7s-6.66-1.92-6.67-10.29c-.02-8.34 4.81-27.47 4.73-30.57-.16-5.64-8.72-6.01-5.48-6.3 4.18-.36 6.78-2.34 7.8 1.98.69 3 4 31.6 3.61 36.45-.39 4.85.7 8.54-4 8.74Z" fill="#FEA081"></path><path d="M142.93 145.49c1.2-7.12-.73-16.18-3.79-22.41-4.24-8.63-12.91-6.91-17.94-4.87-5.02 2.03-13.32 5.19-7.48 15.66 4.1 7.3 3.43 12.57 2.93 20.8l-.07.62a.12.12 0 0 1-.03 0h.03c-1.9 9.27 24.97-1.7 26.35-9.8Z" fill="#FFC01D"></path><path d="M122.09 134.27s-5.95 3.56-12.09-2.1c-6.13-5.67-18.55-21.9-19.44-24.87-.9-2.96-10.35.58-8.29-1.94 2.07-2.52 3.1-4.3 6.95-2.1 2.66 1.52 25.88 18.57 29.18 22.14 3.3 3.57 6.73 5.3 3.69 8.87Z" fill="#FEA081"></path><path d="M114.53 115.63s4.57 1.09 4.48 4.85c-.12 3.87 12.3-1.5 10.18-2.82-2.75-1.7-5.25-1.62-7.16-5.16l-7.5 3.13Z" fill="#EF8867"></path><path d="M112.47 105.28c3.71-.52 14.4 4.27 14.55 8.07.06 1.66-4.12 4.91-10.03 4.34-2.43-.24-6.47-1.34-8.17-5.36-.78-1.83-.68-6.44 3.65-7.04Z" fill="#FEA081"></path><path d="M115.27 103.97c1.49.41 1.63.76-.53 4.5-2.17 3.75-2.84 4.14-1.78 4.44 3.13.88.78 2.88 4.54 3.9 3.76 1.01-.17 2.45-3.45 1.86-.65-.13-4.01-.52-6.17-4.93-2.54-5.13 1.93-11.29 7.4-9.77Z" fill="#262C20"></path><path d="M107.88 113.74a8 8 0 0 0 6.17 4.93c2.44.43 5.29-.22 4.96-1.04-.4-1-2.39.93-3.87-1.25-1.48-2.16-2.94-1.2-4.4-2.88-1.47-1.68-.12-2.7 2.32-6.91.99-1.72.64-2.49-.13-2.8-4.28.49-7 5.48-5.05 9.95Zm34.58 48.69-8.18-.2.73-4.92s-.22 4.11 7.45 5.12Zm-25.44-4.69s13.06.54 21.13-6.15c0 0-10.22 10.32-21.04 10.45l-.09-4.3Z" fill="#262C20"></path></g><defs><clipPath id="a"><path fill="#fff" d="M0 0h280v240H0z"></path></clipPath></defs></svg>