<svg width="280" height="240" fill="none" xmlns="http://www.w3.org/2000/svg"><g clip-path="url('#a')"><path d="M209.275 138.025H60.336a7.248 7.248 0 0 1-7.404-7.068V42.391a7.249 7.249 0 0 1 7.404-7.061h148.939c4.085 0 7.411 3.168 7.411 7.061v88.566a7.255 7.255 0 0 1-7.411 7.068ZM60.336 36.587a5.99 5.99 0 0 0-6.148 5.804v88.566a5.989 5.989 0 0 0 6.148 5.811h148.939a5.997 5.997 0 0 0 6.154-5.811V42.391a5.994 5.994 0 0 0-6.154-5.804H60.336Z" fill="#262C20"/><path d="M209.275 35.96H60.337a6.608 6.608 0 0 0-6.778 6.431v11.945h162.5V42.391a6.61 6.61 0 0 0-6.784-6.431Z" fill="#A0D925"/><path d="M70.002 45.203a3.374 3.374 0 1 1-3.365-3.197 3.282 3.282 0 0 1 3.365 3.197Zm8.51 0a3.37 3.37 0 1 1-3.371-3.197 3.284 3.284 0 0 1 3.371 3.197Zm8.208 0a3.368 3.368 0 1 1-3.362-3.197 3.276 3.276 0 0 1 3.361 3.197Z" fill="#F2F6E6"/><path d="M130.505 128.898H74.816v-14.304h55.689v14.304Zm-54.435-1.257h53.178v-11.794H76.07v11.794Zm116.029 1.257H136.41v-14.304h55.689v14.304Zm-54.432-1.257h53.175v-11.794h-53.175v11.794Zm67.421-18.519H65.08V60.655h140.008v48.467Zm-138.751-1.257H203.83V61.912H66.337v45.953Z" fill="#262C20"/><path d="M92.394 72.747 92.51 92l-4.373.028-.115-19.255 4.372-.025Zm8.69 1.236.025 3.995 3.116-.018.014 3.204-3.113.017.032 5.052c.01 1.687.416 2.457 1.729 2.45a7.411 7.411 0 0 0 1.285-.126l.049 3.284a8.434 8.434 0 0 1-2.825.389 4.536 4.536 0 0 1-3.266-1.176c-.806-.827-1.212-2.164-1.222-4.135l-.035-5.714-1.86.01-.017-3.199 1.856-.01-.014-3.029 4.246-.994Zm13.673 17.883-.266-1.4h-.084a5.033 5.033 0 0 1-3.987 1.74 4.29 4.29 0 0 1-4.541-4.258c-.021-3.626 3.228-5.388 8.168-5.391v-.2c-.004-.742-.413-1.792-2.556-1.782a7.864 7.864 0 0 0-3.848 1.079l-.819-2.794a11.51 11.51 0 0 1 5.42-1.26c4.656-.028 6.157 2.706 6.175 5.99l.032 4.856a21.081 21.081 0 0 0 .22 3.395l-3.914.025Zm-.55-6.592c-2.286-.018-4.057.535-4.043 2.22a1.557 1.557 0 0 0 1.053 1.573c.215.073.444.099.669.075a2.366 2.366 0 0 0 2.244-1.614 3.14 3.14 0 0 0 .085-.742l-.008-1.512Zm7.57-13.731 4.345-.024.119 20.28-4.341.021-.123-20.277Zm12.355 2.353a2.181 2.181 0 0 1-1.446 2.066 2.18 2.18 0 0 1-.882.122 2.186 2.186 0 1 1 .003-4.37 2.173 2.173 0 0 1 2.325 2.182Zm-4.376 17.882-.084-13.968 4.344-.029.081 13.97-4.341.027Zm15.764-.098-.263-1.397h-.084a5.039 5.039 0 0 1-3.988 1.74 4.286 4.286 0 0 1-4.184-2.564 4.287 4.287 0 0 1-.356-1.693c-.025-3.63 3.22-5.391 8.164-5.395v-.196c-.007-.742-.413-1.8-2.553-1.785a7.793 7.793 0 0 0-3.85 1.082l-.816-2.794a11.483 11.483 0 0 1 5.416-1.264c4.659-.031 6.161 2.703 6.179 5.99l.031 4.852a21.76 21.76 0 0 0 .217 3.403l-3.913.021Zm-.554-6.592c-2.282-.014-4.054.536-4.04 2.223a1.553 1.553 0 0 0 .48 1.222 1.558 1.558 0 0 0 1.243.423 2.371 2.371 0 0 0 2.247-1.614 2.99 2.99 0 0 0 .081-.742l-.011-1.512Zm7.644-2.965a96.067 96.067 0 0 0-.143-4.453l3.77-.025.214 1.919h.084a5.111 5.111 0 0 1 4.299-2.255c2.856-.021 5.01 1.852 5.034 5.969l.049 8.283-4.341.021-.045-7.737c-.011-1.8-.648-3.025-2.217-3.014a2.313 2.313 0 0 0-2.188 1.638c-.123.35-.18.72-.168 1.09l.049 8.051-4.341.028-.056-9.515Zm30.548 2.191c.028 5.115-3.585 7.478-7.327 7.5-4.086.024-7.24-2.64-7.268-7.157-.028-4.512 2.926-7.414 7.408-7.443 4.285-.02 7.159 2.903 7.187 7.1Zm-10.114.203c.014 2.402 1.026 4.195 2.885 4.18 1.683-.007 2.758-1.7 2.744-4.215-.014-2.083-.826-4.19-2.797-4.18-2.086.014-2.843 2.16-2.832 4.215ZM14.776 128.31c9.165-21.128 33.783-27.566 47.952-9.586 14.16 17.984 23.589 34.687 33.899 45.491 11.311 11.854 11.927 44.203-26.705 47.665-53.847 4.831-92.357 2.191-55.146-83.57Z" fill="#262C20"/><path d="M30.909 122.88s-16.412 19.483-10.415 50.325c3.01 15.513 15.824 32.013 49.698 24.024 33.871-7.993 13.542-34.985 11.483-38.559-2.74-4.765-31.227-56.074-50.766-35.79Z" fill="#B0B0B0" fill-opacity=".5"/><path d="m126.371 18.239.732-.673 2.871 3.116a2.303 2.303 0 0 0 3.245.137l2.499-2.28a3.306 3.306 0 0 1 4.664.221l1.883 2.08a2.302 2.302 0 0 0 3.277.126l2.188-2.048a3.263 3.263 0 0 1 2.471-.89 3.315 3.315 0 0 1 2.332 1.198l1.163 1.418a2.303 2.303 0 0 0 3.49.073l2.661-2.969.742.672-2.661 2.966a3.29 3.29 0 0 1-4.999-.109l-1.162-1.421a2.302 2.302 0 0 0-1.635-.833 2.26 2.26 0 0 0-1.719.62l-2.192 2.054a3.296 3.296 0 0 1-4.695-.185l-1.886-2.083a2.303 2.303 0 0 0-3.249-.154l-2.503 2.282a3.305 3.305 0 0 1-4.646-.203l-2.871-3.115Zm46.67 5.461a3.623 3.623 0 0 1-3.553-4.333 3.624 3.624 0 1 1 3.553 4.333Zm0-5.997a2.374 2.374 0 1 0 .008 4.749 2.374 2.374 0 0 0-.008-4.749Z" fill="#F2F6E6"/><path d="M59.516 138.515s-8.399 4.341-1.6 9.862c6.795 5.521 14.27 10.794 15.733 6.775 1.46-4.027-10.843-14.806-14.133-16.637Z" fill="#FEA081"/><path d="M48.073 176.524c.37 5.364 4.645 11.683 16.765 3.508 4.412-2.976 6.624-9.029 12.334-14.336 3.956-3.672.61 20.792 11.595 20.281 0 0 5.266.098 4.422-1.337-.847-1.425-5.595-1.947-5.738-4.216-.154-2.265 2.468-30.513-5.868-31.7-8.342-1.194-34.267 16.909-33.51 27.8Z" fill="#FEA081"/><path d="M48.523 170.52c-2.758 5.101-9.466 16.003 4.065 14.735 4.18-.391 13.615-1.099 17.487-9.119 0 0 6.088-12.274 8.013-9.67 1.404 1.915 1.411 10.125 3.036 14.578a8.145 8.145 0 0 0 6.893-1.817s3.403-27.507-6.7-31.109c-7.353-2.626-26.152 10.093-32.794 22.402Z" fill="#262C20"/><path d="M83.777 221.689c2.058 2.619 4.61 4.254 7.86 3.197 0 0 5.107-1.289 3.914-2.444-1.194-1.162-5.91-.41-6.649-2.556-.742-2.153-9.694-4.008-5.125 1.803Z" fill="#FEA081"/><path d="M37.713 166.47s-11.886 15.873 12.449 26.162c24.335 10.296 32.758 29.95 32.758 29.95s5.304.42 6.637-3.879c0 0-7.509-26.652-20.879-37.764-11.13-9.256-16.783-15.506-26.393-15.506l-4.572 1.037Z" fill="#274128"/><path d="M67.422 179.882c.478-.379.89-.834 1.219-1.348l-9.82-5.892 8.6 7.24Zm-6.772-20.32s-4.086 9.502-25.837 16.098a13.974 13.974 0 0 1 1.26-6.169l24.577-9.929Z" fill="#262C20"/><path d="m85.553 222.333.493-.192c-7.744-19.945-21.219-26.46-31.06-31.217a66.127 66.127 0 0 1-6.788-3.589c-8.766-5.643-8.598-15.96-8.594-16.062l-.529-.014c-.004.108-.189 10.713 8.836 16.521a67.786 67.786 0 0 0 6.848 3.62c9.757 4.715 23.123 11.178 30.794 30.933Z" fill="#F2F6E6"/><path d="M49.077 117.093c-2.892-1.904-11.98-3.851-15.054 7.292-.68 2.437-1.008 6.533-5.154 8.711-2.923 1.54-8.605 8.108-.952 15.089 7.657 6.984-2.36 11.307 4.608 12.351 6.963 1.032 21.3-5.896 23.207-16.321 2.993-16.416-.823-23.285-6.655-27.122Z" fill="#262C20"/><path d="M83.96 128.65a6.808 6.808 0 0 0-3.788 5.661c-.416 3.973-8.34 12.274-11.224 11.465-.812-.231-2.63-1.793-2.63-1.793l-5.293 6.796s3.12 3.522 6.925 4.215c1.523.277 6.228.217 12.316-12.533 6.736-14.102 4.152-14.102 3.694-13.811Z" fill="#FEA081"/><path d="M47.788 135.679s-1.317.431 2.307 7.055c3.62 6.624 4.446 6.763 4.446 6.763s8.637-1.75 9.61-8.118c0 0-9.221-11.091-16.363-5.7Z" fill="#E6A81B"/><path d="M61.025 156.982c-2.136-7.327.15-10.951-2.314-17.042-3.41-8.451-11.732-7.415-16.619-5.832-4.88 1.578-12.953 3.99-8.136 14.283 3.364 7.184 2.377 12.117 1.33 19.864-.035.2-.06.378-.105.574-.003-.003-.024-.003-.024-.003a.103.103 0 0 0 .024.003c-2.426 8.634 28.01-4.383 25.844-11.847Z" fill="#FFC01D"/><path d="M43.086 126.153s.973 5.465-.71 7.867c-1.069 1.53 7.73 4.94 7.55 2.878-.227-2.647-1.733-4.271-.01-7.254l-6.83-3.491Z" fill="#EF8867"/><path d="M48.993 118.795c2.223 2.289 7.405 13.324 2.122 15.407-2.384.938-7.279-1.257-9.834-5.619-1.054-1.792-.875-5.615 1.05-8.801.865-1.449 4.103-3.673 6.662-.987Z" fill="#FEA081"/><path d="M52.108 122.537c.217 1.38-3.385-3.147-4.183-.252-.83 3.035-4.069 2.283-4.485 7.775-.28 3.75-4.618-2.874-4.933-3.385-1.362-2.146-1.362-2.146.938-6.732 2.286-4.6 11.585-4.32 12.663 2.594Z" fill="#262C20"/><path d="M41.517 145.114s-4.897-8.125-9.498-.024c-4.596 8.101-8.815 16.867-4.337 17.697 4.478.816 11.23-9.855 13.835-17.673Z" fill="#FEA081"/><path d="M40.017 138.617s-3.998-2.581-8.028 3.245c-4.026 5.825-4.981 8.917-4.981 8.917s3.826 3.641 10.902 5.258c0 0 8.24-14.581 2.107-17.42Z" fill="#E6A81B"/><path d="M53.596 171.889a6.806 6.806 0 0 0-6.207-2.8c-3.988.238-13.482-6.197-13.167-9.173.091-.84 1.376-3.14 1.376-3.14l-7.621-3.844s-2.951 3.658-3.008 7.523c-.024 1.555.813 6.179 14.396 10.072 15.015 4.314 14.592 1.768 14.231 1.362Z" fill="#FEA081"/><path d="M279.374 186.849a6.618 6.618 0 0 1-6.781 6.438H123.651a6.62 6.62 0 0 1-6.778-6.438v-88.57a6.61 6.61 0 0 1 6.778-6.434h148.942a6.61 6.61 0 0 1 6.781 6.434v88.57Z" fill="#F2F6E6"/><path d="M272.593 91.845H123.651a6.612 6.612 0 0 0-6.778 6.434v11.945h162.501V98.279a6.613 6.613 0 0 0-6.781-6.434Z" fill="#A0D925"/><path d="M272.592 193.917H123.65a7.251 7.251 0 0 1-7.404-7.068v-88.57a7.248 7.248 0 0 1 7.404-7.06h148.942c4.082 0 7.408 3.168 7.408 7.06v88.57a7.254 7.254 0 0 1-7.408 7.068ZM123.65 92.475a5.993 5.993 0 0 0-6.151 5.804v88.57a6.001 6.001 0 0 0 6.151 5.811h148.942a5.995 5.995 0 0 0 6.151-5.811v-88.57a5.988 5.988 0 0 0-6.151-5.804H123.65Z" fill="#262C20"/><path d="M133.316 101.094a3.372 3.372 0 0 1-3.92 3.507 3.376 3.376 0 0 1-2.746-2.608 3.373 3.373 0 0 1 3.302-4.095 3.275 3.275 0 0 1 3.083 1.947c.175.394.27.818.281 1.249Zm8.514 0a3.374 3.374 0 1 1-6.502-1.069 3.376 3.376 0 0 1 3.127-2.127 3.285 3.285 0 0 1 3.375 3.196Zm8.206 0a3.363 3.363 0 0 1-1.957 3.233 3.364 3.364 0 0 1-3.728-.618 3.371 3.371 0 0 1 .431-5.231 3.37 3.37 0 0 1 1.89-.58 3.27 3.27 0 0 1 3.084 1.946c.175.394.27.819.28 1.25Z" fill="#F2F6E6"/><path d="M193.819 184.786h-55.688v-14.304h55.688v14.304Zm-54.432-1.256h53.176v-11.792h-53.176v11.792Zm116.03 1.256h-55.688v-14.304h55.688v14.304Zm-54.435-1.256h53.178v-11.792h-53.178v11.792Zm67.42-18.52H128.395v-48.463h140.007v48.463Zm-138.754-1.253h137.497v-45.953H129.648v45.953Zm149.726-54.159H116.873v1.256h162.501v-1.256Z" fill="#262C20"/><path d="M158.09 147.755H152V131h6.14c1.728 0 3.215.335 4.462 1.006a6.875 6.875 0 0 1 2.877 2.872c.677 1.249 1.015 2.743 1.015 4.483 0 1.745-.338 3.245-1.015 4.499a6.879 6.879 0 0 1-2.894 2.888c-1.252.671-2.751 1.007-4.495 1.007Zm-2.458-3.036h2.307c1.073 0 1.976-.185 2.709-.556.738-.376 1.292-.957 1.661-1.742.374-.791.562-1.811.562-3.06 0-1.238-.188-2.25-.562-3.035-.369-.786-.92-1.364-1.653-1.735-.732-.37-1.635-.556-2.709-.556h-2.315v10.684ZM174.989 148c-1.325 0-2.466-.262-3.422-.785a5.439 5.439 0 0 1-2.198-2.242c-.514-.971-.772-2.119-.772-3.444 0-1.293.258-2.427.772-3.403a5.623 5.623 0 0 1 2.172-2.283c.94-.545 2.041-.818 3.305-.818.85 0 1.641.134 2.374.401a5.289 5.289 0 0 1 1.929 1.186c.554.529.984 1.195 1.292 1.996.307.797.461 1.729.461 2.798v.957h-10.879v-2.159h7.516c0-.502-.112-.947-.336-1.334a2.37 2.37 0 0 0-.931-.908c-.391-.224-.847-.335-1.367-.335-.542 0-1.023.122-1.443.368-.414.24-.738.564-.973.973a2.691 2.691 0 0 0-.36 1.35v2.054c0 .621.117 1.158.352 1.611.24.453.579.802 1.015 1.047.436.246.953.368 1.552.368.397 0 .76-.054 1.09-.163.33-.109.612-.273.847-.491.235-.218.414-.485.537-.802l3.305.213a4.366 4.366 0 0 1-1.032 2.029c-.514.572-1.18 1.02-1.996 1.342-.811.316-1.748.474-2.81.474Zm16.507-5.596v-7.215h3.573v12.566h-3.43v-2.283h-.135a3.721 3.721 0 0 1-1.451 1.775c-.671.448-1.49.671-2.457.671-.861 0-1.619-.191-2.273-.572a3.976 3.976 0 0 1-1.535-1.628c-.364-.704-.548-1.547-.554-2.528v-8.001h3.573v7.379c.006.742.21 1.328.613 1.759.402.431.942.646 1.618.646.431 0 .834-.095 1.208-.286.375-.197.677-.486.906-.867.235-.382.35-.854.344-1.416Zm13.284-7.215v2.618h-7.759v-2.618h7.759Zm-5.997-3.011h3.573v11.715c0 .322.05.573.151.753a.832.832 0 0 0 .419.368c.185.071.397.106.638.106.168 0 .335-.013.503-.041l.386-.073.562 2.593c-.179.055-.431.117-.755.188a6.11 6.11 0 0 1-1.183.139c-.861.033-1.616-.079-2.264-.335-.643-.256-1.144-.655-1.502-1.194-.358-.54-.534-1.222-.528-2.046v-12.173Zm18.883 6.594-3.271.196a1.63 1.63 0 0 0-.361-.736 1.913 1.913 0 0 0-.73-.532c-.296-.136-.651-.204-1.065-.204-.554 0-1.02.114-1.401.343-.38.224-.57.524-.57.9 0 .3.123.554.369.761.246.207.668.374 1.267.499l2.331.458c1.253.251 2.187.655 2.802 1.211.615.556.922 1.287.922 2.192 0 .824-.248 1.547-.746 2.168-.492.622-1.169 1.108-2.03 1.457-.855.343-1.842.515-2.961.515-1.705 0-3.064-.346-4.076-1.039-1.007-.698-1.597-1.647-1.77-2.847l3.514-.18c.107.507.364.895.772 1.162.408.262.931.392 1.569.392.626 0 1.129-.117 1.509-.351.386-.24.582-.548.588-.925-.006-.316-.143-.575-.411-.777-.269-.207-.683-.365-1.242-.474l-2.231-.434c-1.258-.245-2.195-.671-2.81-1.276-.609-.606-.914-1.377-.914-2.315 0-.808.224-1.503.671-2.087.453-.583 1.087-1.033 1.904-1.349.822-.317 1.784-.475 2.885-.475 1.628 0 2.908.335 3.842 1.006.939.671 1.487 1.585 1.644 2.741Zm8.365 9.228c-1.32 0-2.455-.273-3.406-.818a5.586 5.586 0 0 1-2.181-2.291c-.503-.976-.755-2.1-.755-3.37 0-1.287.255-2.416.764-3.387a5.592 5.592 0 0 1 2.189-2.283c.945-.551 2.069-.826 3.372-.826 1.124 0 2.108.199 2.952.597.845.398 1.513.957 2.005 1.677.492.72.763 1.566.814 2.536h-3.372c-.095-.627-.347-1.131-.755-1.513-.403-.387-.931-.581-1.585-.581-.554 0-1.038.147-1.452.442-.408.289-.726.712-.956 1.268-.229.556-.344 1.23-.344 2.021 0 .801.112 1.483.336 2.045.229.562.551.99.964 1.284.414.295.898.442 1.452.442a2.41 2.41 0 0 0 1.098-.245c.33-.164.601-.401.814-.712.218-.316.361-.696.428-1.137h3.372c-.056.96-.325 1.805-.806 2.536-.475.725-1.132 1.292-1.971 1.701-.838.409-1.831.614-2.977.614Zm11.615-7.51v7.265h-3.574V131h3.473v6.406h.151a3.572 3.572 0 0 1 1.409-1.743c.649-.425 1.462-.638 2.441-.638.895 0 1.675.191 2.34.573a3.863 3.863 0 0 1 1.56 1.628c.375.703.559 1.546.554 2.528v8.001h-3.573v-7.38c.005-.774-.196-1.377-.604-1.808-.403-.43-.968-.646-1.695-.646-.486 0-.917.101-1.291.303-.369.202-.66.496-.873.883-.207.382-.313.843-.318 1.383Z" fill="#262C20"/><path d="m11.744 88.47-.627.928 2.514 1.386.444-1.022-2.331-1.292Zm-2.955-2.657-.83.745s.48.529.956 1.061c.556.448 1.11.903 1.11.903l.7-.871s-.518-.424-1.04-.84c-.452-.498-.896-.998-.896-.998ZM6.44 82.585l-.97.546.77 1.2c.244.408.508.801.792 1.18l.886-.679c-.27-.357-.52-.73-.746-1.116-.364-.567-.732-1.131-.732-1.131Zm-1.576-3.68-1.061.347c.113.46.268.91.465 1.34.294.649.589 1.293.589 1.293l1.008-.484s-.284-.608-.56-1.221a7.165 7.165 0 0 1-.441-1.275Zm-.858-3.91-1.11.137s.102.706.207 1.403c.046.474.15.94.311 1.387l1.079-.28a5.182 5.182 0 0 1-.294-1.31l-.193-1.337Zm-.164-4.009-1.113-.07.003 2.84 1.11-.074v-2.696Zm.617-3.97-1.082-.262a21.976 21.976 0 0 0-.486 2.786l1.11.133c.096-.894.249-1.782.458-2.657Zm1.313-3.801-1.022-.442s-.312.634-.578 1.289c-.2.682-.402 1.362-.402 1.362l1.067.325.382-1.299c.255-.626.553-1.235.553-1.235Zm1.914-3.533-.938-.605s-.385.591-.77 1.186a4.22 4.22 0 0 0-.462.854c-.112.238-.186.4-.186.4l.995.5c.175-.417.382-.82.619-1.204l.742-1.131Zm2.442-3.21-.837-.739a22.7 22.7 0 0 0-1.785 2.184l.906.652c.527-.735 1.1-1.436 1.716-2.097Zm2.876-2.836-.732-.84c-.728.59-1.42 1.225-2.069 1.9l.802.778a22.158 22.158 0 0 1 1.999-1.838Zm3.21-2.468-.63-.924-1.17.784a4.908 4.908 0 0 0-.773.574c-.196.175-.332.29-.332.29l.703.872.319-.283c.23-.21.481-.397.749-.557l1.134-.756Zm3.468-2.125-.536-.98-1.246.644c-.581.388-1.17.777-1.17.777l.6.942s.57-.375 1.133-.753c.61-.318 1.219-.63 1.219-.63Zm3.626-1.817-.417-1.036s-.644.3-1.27.62c-.627.314-1.254.633-1.254.633l.508.998s.609-.312 1.218-.62a49.738 49.738 0 0 1 1.215-.595Zm3.867-1.131-.242-1.089s-.686.172-1.369.34l-1.351.392.336 1.064 1.306-.378 1.32-.329Zm3.988-.578-.063-1.113s-.707.063-1.418.123c-.697.101-1.397.206-1.397.206l.193 1.1s.672-.102 1.34-.2c.673-.056 1.345-.116 1.345-.116Zm3.937.273.248-1.088a14.591 14.591 0 0 0-2.856-.322l-.021 1.116c.884.011 1.764.11 2.629.294Zm3.397 1.667.756-.823s-.599-.451-1.19-.907c-.669-.311-1.341-.626-1.341-.626l-.396 1.043s.581.273 1.162.543c.508.385 1.009.77 1.009.77Zm1.884 3.245 1.071-.304c.161-.035-1.088-2.756-1.246-2.66l-.903.654.252.311c.115.207.234.508.374.795.133.294.266.585.364.805l.088.4Zm-.133 3.525.949.585a4.76 4.76 0 0 0 .567-1.509c.067-.331.087-.67.06-1.008a1.549 1.549 0 0 0-.067-.504l-1.103.164c.034.112.052.227.053.343.03.294.012.591-.053.88a4.11 4.11 0 0 1-.406 1.05Zm-2.932 2.329.473 1.012s.654-.32 1.281-.694c.301-.217.599-.437.823-.598l.34-.326-.77-.805-.28.27c-.197.143-.46.329-.718.517a17.28 17.28 0 0 1-1.149.624Zm-3.794 1.148.196 1.1a20.29 20.29 0 0 0 2.765-.711l-.371-1.054a19.09 19.09 0 0 1-2.59.665Zm-3.995.304-.021 1.114a12.2 12.2 0 0 0 1.418-.017c.71-.022 1.418-.106 1.418-.106l-.123-1.11s-.669.081-1.344.099c-.449.033-.899.04-1.348.02Zm-3.987-.444-.227 1.096s.693.157 1.396.241c.468.076.939.127 1.411.154l.088-1.113c-.45-.024-.897-.074-1.341-.147a13.105 13.105 0 0 1-1.327-.231Zm-3.806-1.208-.459 1.02s.655.29 1.327.528c.442.17.895.313 1.355.427l.301-1.075c-.435-.11-.862-.246-1.281-.406a18.18 18.18 0 0 1-1.243-.494Zm-3.392-2.037-.72.857s.58.42 1.158.844c.616.371 1.232.739 1.232.739l.55-.973-1.138-.683-1.082-.784Z" fill="#F2F6E6"/><path d="m15.678 51.406-.928.627s.4.595.851 1.148c.483.529.97 1.057.97 1.057l.798-.784-.9-.984c-.42-.515-.791-1.064-.791-1.064Zm-1.674-3.578-1.06.35c.278.915.643 1.8 1.088 2.647l.98-.54a14.176 14.176 0 0 1-1.008-2.457Zm-.654-3.908-1.118.06s.018.715.112 1.422l.239 1.418 1.088-.252s-.108-.655-.22-1.317a12.545 12.545 0 0 1-.102-1.33Zm.171-4.011-1.106-.144s-.105.704-.158 1.411l-.052 1.415 1.117.014s.02-.673.045-1.352c.053-.668.154-1.344.154-1.344Zm.862-3.917-1.061-.344c-.091-.024-.707 2.752-.71 2.752l1.102.2c.18-.88.402-1.75.669-2.608Zm1.564-3.697-.983-.533-.617 1.278c-.308.637-.57 1.296-.574 1.296l1.04.41s.252-.627.546-1.237c.29-.609.588-1.214.588-1.214Zm2.209-3.368-.883-.68-.833 1.138a8.518 8.518 0 0 0-.766 1.187l.952.585c.21-.399.455-.778.732-1.134l.798-1.096Zm2.704-3.004-.777-.798s-.5.497-1.001.99c-.463.53-.932 1.061-.932 1.061l.855.725s.444-.508.889-1.022c.483-.48.966-.956.966-.956Zm3.073-2.636-.672-.89c-.039-.055-2.18 1.775-2.18 1.775l.741.834s2.073-1.765 2.111-1.72Zm3.378-2.247-.564-.963s-2.397 1.466-2.366 1.512l.634.92c-.032-.048 2.296-1.47 2.296-1.47Zm3.616-1.846-.451-1.015s-.64.287-1.282.581c-.62.322-1.239.651-1.239.651l.525.987s.602-.321 1.205-.64c.623-.28 1.242-.564 1.242-.564Zm3.792-1.453-.34-1.06s-.672.206-1.327.462c-.658.238-1.32.48-1.32.48l.42 1.039 1.282-.473c.633-.248 1.285-.448 1.285-.448Zm3.928-1.015-.214-1.096s-.686.158-1.372.308c-.46.093-.915.211-1.362.354L36 17.363c-.014-.049 2.647-.633 2.647-.637Zm4.018-.529-.077-1.113s-.703.053-1.404.109c-.697.108-1.393.21-1.393.21l.168 1.1s.675-.1 1.348-.197c.679-.056 1.358-.109 1.358-.109Zm4.041-.01.08-1.117c0-.07-2.821-.07-2.821-.07l.028 1.117s2.72 0 2.713.07Zm3.984.585.259-1.085s-.694-.14-1.39-.27c-.697-.137-1.397-.22-1.397-.224l-.137 1.11s.673.076 1.334.217c.665.122 1.33.252 1.33.252Zm3.799 1.291.458-1.018c0 .003-2.636-1.065-2.664-.98l-.322 1.067c.028-.077 2.528.931 2.528.931Zm3.431 2.038.671-.893-1.169-.819a10.17 10.17 0 0 0-1.236-.707l-.532.984a9.45 9.45 0 0 1 1.166.665l1.1.77Zm2.884 2.745.855-.718s-.47-.54-.935-1.079l-1.057-.959-.735.844.994.896c.441.508.878 1.016.878 1.016Zm2.22 3.314.99-.517c.084-.05-1.488-2.426-1.484-2.426l-.907.658c.507.736.975 1.5 1.4 2.286Zm1.534 3.712 1.068-.333c-.287-.9-.62-1.784-.998-2.65l-1.019.455.186.382c.084.235.196.553.308.875.23.634.455 1.271.455 1.271Zm.871 3.938 1.103-.168a8.427 8.427 0 0 0-.232-1.386 399.9 399.9 0 0 0-.322-1.376l-1.081.273s.154.659.311 1.32c.112.439.185.886.22 1.337Zm.353 4.04 1.117-.041s-.116-2.805-.19-2.798l-1.106.12c.07-.008.175 2.72.179 2.72Z" fill="#F2F6E6"/><path d="M271.113 64.884a15.993 15.993 0 0 1-13.461 13.181.868.868 0 0 1-.987-.732.863.863 0 0 1 .411-.875.852.852 0 0 1 .321-.111 14.471 14.471 0 0 0 7.408-3.45 14.744 14.744 0 0 0 4.649-8.643v-.021a.87.87 0 0 1 1.559-.375.873.873 0 0 1 .163.641l-.063.385Z" fill="#414939"/><path d="m252.633 76.721 6.708 3.28-1.446-2.927 1.824-2.71-7.086 2.357Z" fill="#414939"/><path d="M279.159 34.906h-26.526v26.526h26.526V34.906Z" fill="#FFC01D"/><path d="M256.659 45.468h-26.53v26.527h26.53V45.468Z" fill="#262C20"/><path d="m263.433 50.072-1.54 4.663h-1.975l5.031-14.826h2.314l5.055 14.826h-2.048l-1.579-4.663h-5.258Zm4.863-1.495-1.453-4.264c-.333-.966-.55-1.852-.77-2.706h-.042a43.145 43.145 0 0 1-.75 2.678l-1.449 4.292h4.464Zm-18.109 3.886h-13.968v1.884h13.968v-1.884Z" fill="#F2F6E6"/><path d="M251.653 66.432c-4.436-.15-7.828-1.53-10.09-4.096-3.357-3.806-2.944-8.801-2.923-9.015l1.61.147c-.003.045-.357 4.537 2.538 7.814 1.957 2.209 4.958 3.396 8.921 3.532l-.056 1.618Z" fill="#F2F6E6"/><path d="m235.133 66.432-.053-1.618c3.96-.136 6.963-1.323 8.917-3.532 2.899-3.277 2.542-7.769 2.538-7.814l1.614-.147c.017.214.434 5.21-2.923 9.015-2.266 2.566-5.658 3.945-10.093 4.096Zm3.961-18.039-.955 1.311 6.316 4.605.956-1.311-6.317-4.605Z" fill="#F2F6E6"/><path d="M238.856 39.853a15.998 15.998 0 0 1 13.723-12.904.868.868 0 0 1 .799 1.388.867.867 0 0 1-.575.33 14.494 14.494 0 0 0-7.477 3.302 14.726 14.726 0 0 0-4.828 8.55v.023a.87.87 0 0 1-1.712-.304c.021-.133.046-.259.07-.385Z" fill="#414939"/><path d="m257.569 28.39-6.638-3.416 1.387 2.955-1.877 2.675 7.128-2.213Z" fill="#414939"/></g><defs><clipPath id="a"><path fill="#fff" d="M0 0h280v240H0z"/></clipPath></defs></svg>