<svg width="252" height="70" fill="none" xmlns="http://www.w3.org/2000/svg"><g clip-path="url('#clip0_233_6053')"><path d="M41.59 60.588a5.506 5.506 0 0 0-1.056-1.903 5.205 5.205 0 0 0-1.921-1.38c-.789-.35-1.745-.524-2.868-.523h-3.102v11.47h3.653a6 6 0 0 0 2.143-.382 5.632 5.632 0 0 0 1.812-1.126 5.113 5.113 0 0 0 1.228-1.76c.315-.737.47-1.532.457-2.334a6.438 6.438 0 0 0-.347-2.062Zm-1.544 3.76c-.21.503-.527.953-.93 1.318a3.991 3.991 0 0 1-1.386.824 5.039 5.039 0 0 1-1.733.286H34.17v-8.52h1.968a4.455 4.455 0 0 1 1.592.287c.5.177.96.452 1.355.81.41.373.732.833.945 1.347.242.588.36 1.22.347 1.857a4.634 4.634 0 0 1-.33 1.79Zm10.442-7.566h7.404v1.475h-5.876v3.49h5.246v1.475h-5.246v3.554h6.096v1.475h-7.624v-11.47Zm22.153 2.046a8.27 8.27 0 0 0-1.276-.524 4.428 4.428 0 0 0-1.354-.221c-.61 0-1.098.142-1.465.428a1.382 1.382 0 0 0-.536 1.142c-.007.34.117.67.347.92.263.266.573.481.913.635.379.18.772.349 1.182.507.357.138.709.291 1.055.46.34.164.653.378.93.635.287.258.513.578.661.936.181.436.267.907.252 1.38a3.149 3.149 0 0 1-.464 1.662c-.306.5-.746.902-1.268 1.162-.619.299-1.3.446-1.985.428a5.915 5.915 0 0 1-1.45-.175 7.375 7.375 0 0 1-1.26-.444 9.401 9.401 0 0 1-1.04-.587l.678-1.205c.276.194.566.37.866.523.33.16.673.293 1.024.397.34.092.689.14 1.04.142.36 0 .717-.064 1.055-.19.342-.127.646-.34.882-.619.243-.31.367-.7.347-1.094a1.467 1.467 0 0 0-.315-.968 2.409 2.409 0 0 0-.803-.666 8.332 8.332 0 0 0-1.072-.508 29.43 29.43 0 0 1-1.086-.444 5.792 5.792 0 0 1-1.024-.603 2.786 2.786 0 0 1-.756-.888 2.632 2.632 0 0 1-.284-1.27c-.013-.553.135-1.1.425-1.57.297-.456.71-.824 1.198-1.063a3.96 3.96 0 0 1 1.732-.428 6.31 6.31 0 0 1 1.938.27 6.75 6.75 0 0 1 1.496.666l-.583 1.174Zm9.263-2.046h1.528V68.25h-1.528v-11.47Zm19.701 10.485a2.996 2.996 0 0 1-.661.413 8.897 8.897 0 0 1-2 .603 5.78 5.78 0 0 1-1.009.095 6.785 6.785 0 0 1-2.473-.428 5.635 5.635 0 0 1-1.874-1.19 5.359 5.359 0 0 1-1.198-1.793 6.004 6.004 0 0 1-.41-2.236 6.75 6.75 0 0 1 .458-2.555 5.62 5.62 0 0 1 1.276-1.92 5.402 5.402 0 0 1 1.874-1.189 6.091 6.091 0 0 1 2.237-.412 6.82 6.82 0 0 1 3.339.84l-.519 1.412a4.02 4.02 0 0 0-.788-.349 6.91 6.91 0 0 0-.945-.254c-.3-.07-.606-.108-.914-.11a5.024 5.024 0 0 0-1.827.317 3.834 3.834 0 0 0-1.4.886 3.867 3.867 0 0 0-.9 1.398 4.996 4.996 0 0 0-.315 1.824c-.007.587.1 1.169.315 1.714.203.507.509.966.898 1.348.402.379.872.675 1.386.873a5.164 5.164 0 0 0 1.796.301c.386 0 .771-.037 1.15-.111.34-.07.668-.188.976-.35v-2.283h-2.268v-1.476h3.796v4.632Zm18.808-10.622v11.733h-.047l-8.363-8.228.03 8.228h-1.528V56.645h.08l8.347 8.33-.03-8.33h1.511Zm29.147 10.622a3.002 3.002 0 0 1-.662.413 8.89 8.89 0 0 1-2 .603c-.333.06-.67.093-1.008.095a6.781 6.781 0 0 1-2.473-.428 5.64 5.64 0 0 1-1.875-1.19 5.356 5.356 0 0 1-1.197-1.793 6 6 0 0 1-.41-2.236 6.754 6.754 0 0 1 .457-2.555 5.622 5.622 0 0 1 1.276-1.92 5.405 5.405 0 0 1 1.875-1.189 6.09 6.09 0 0 1 2.237-.412 6.823 6.823 0 0 1 3.339.84l-.52 1.412a3.993 3.993 0 0 0-.787-.349 6.932 6.932 0 0 0-.946-.254 4.131 4.131 0 0 0-.913-.11 5.024 5.024 0 0 0-1.827.317 3.837 3.837 0 0 0-2.3 2.284 4.98 4.98 0 0 0-.315 1.824c-.007.587.1 1.169.315 1.714.203.507.508.966.898 1.348.401.379.872.675 1.386.873a5.16 5.16 0 0 0 1.796.301c.386 0 .771-.037 1.149-.111.34-.07.669-.188.977-.35v-2.283h-2.268v-1.476h3.796v4.632Zm14.082-3.636a3.348 3.348 0 0 0 1.024-.773 3.21 3.21 0 0 0 .646-1.191c.136-.43.205-.88.204-1.331a3.463 3.463 0 0 0-.314-1.524 2.969 2.969 0 0 0-.851-1.11 3.458 3.458 0 0 0-1.276-.683 5.071 5.071 0 0 0-1.591-.237h-3.024v11.47h1.528v-4.22h1.685c.13 0 .254-.003.376-.012l2.68 4.231h1.764l-2.851-4.62Zm-2-1.074h-1.654v-4.3h1.764c.347-.01.692.06 1.008.206.262.12.493.3.677.523.174.203.303.442.379.699.081.23.124.47.126.714a2.568 2.568 0 0 1-.111.713c-.076.258-.199.5-.362.714-.192.229-.435.408-.709.523a2.64 2.64 0 0 1-1.118.208Zm23.417-2.27a6.195 6.195 0 0 0-3.135-3.156 5.305 5.305 0 0 0-2.237-.477 5.454 5.454 0 0 0-2.269.477 6.118 6.118 0 0 0-3.102 3.156 5.69 5.69 0 0 0-.442 2.238 5.96 5.96 0 0 0 .442 2.315 5.752 5.752 0 0 0 1.259 1.856 5.907 5.907 0 0 0 1.843 1.238c.719.3 1.491.45 2.269.445a5.628 5.628 0 0 0 2.237-.445 6.083 6.083 0 0 0 1.858-1.253 5.879 5.879 0 0 0 1.277-1.873 5.7 5.7 0 0 0 .455-2.283 5.517 5.517 0 0 0-.455-2.238Zm-1.45 3.95c-.215.51-.519.978-.898 1.38a3.992 3.992 0 0 1-2.993 1.284 4.158 4.158 0 0 1-1.669-.332 4.342 4.342 0 0 1-1.355-.952 4.473 4.473 0 0 1-.913-1.38 4.353 4.353 0 0 1-.331-1.697 4.582 4.582 0 0 1 .314-1.698 4.211 4.211 0 0 1 .898-1.411 4.374 4.374 0 0 1 1.356-.952 4.121 4.121 0 0 1 3.323 0c.509.218.97.537 1.355.937.392.407.702.886.913 1.411a4.56 4.56 0 0 1 0 3.41Zm11.837-.047c-.007.49.118.972.362 1.396.251.405.602.738 1.019.966.417.228.885.344 1.359.335.5.009.994-.112 1.435-.35a2.62 2.62 0 0 0 .992-.951 2.72 2.72 0 0 0 .362-1.396v-7.408h1.496v7.456c.018.77-.184 1.53-.583 2.189a3.836 3.836 0 0 1-1.543 1.443 4.846 4.846 0 0 1-4.317 0 3.86 3.86 0 0 1-1.527-1.443 4.15 4.15 0 0 1-.568-2.19v-7.455h1.513v7.408Zm22.657-5.774a3.022 3.022 0 0 0-1.353-1.206 4.826 4.826 0 0 0-2.126-.428h-3.041v11.47h1.529v-4.22h1.685a4.378 4.378 0 0 0 1.763-.318 3.12 3.12 0 0 0 1.166-.841c.298-.348.524-.752.663-1.19.135-.436.204-.89.204-1.347a3.59 3.59 0 0 0-.49-1.92Zm-1.149 2.632c-.077.263-.2.51-.362.73a1.96 1.96 0 0 1-.693.556c-.35.16-.733.236-1.117.223h-1.67v-4.3h1.763c.352-.012.703.059 1.024.206.264.111.496.286.678.508.175.196.304.429.377.682.148.453.148.942 0 1.395Z" fill="#fff"/><path d="M83.76 11.796c3.034 0 5.493-2.477 5.493-5.532S86.794.732 83.76.732c-3.033 0-5.492 2.477-5.492 5.532s2.459 5.532 5.492 5.532Z" fill="#6649DD"/><path fill-rule="evenodd" clip-rule="evenodd" d="m218.155 20.224-8.75 1.457a14.441 14.441 0 0 1-1.395 8.911 14.297 14.297 0 0 1-6.399 6.313 14.16 14.16 0 0 1-8.875 1.22 14.221 14.221 0 0 1-7.845-4.353 14.4 14.4 0 0 1-3.717-8.208 14.44 14.44 0 0 1 1.881-8.82 14.285 14.285 0 0 1 6.735-5.948 14.161 14.161 0 0 1 8.929-.725l2.105-8.679a22.955 22.955 0 0 0-14.475 1.179 23.161 23.161 0 0 0-10.919 9.643 23.405 23.405 0 0 0-3.049 14.3 23.347 23.347 0 0 0 6.025 13.306 23.063 23.063 0 0 0 12.719 7.06c4.882.915 9.928.222 14.389-1.977A23.184 23.184 0 0 0 215.89 34.67a23.417 23.417 0 0 0 2.265-14.446Z" fill="#6649DD"/><path d="M70.862 1.859v44.505L40.936 19.398V44.29h-8.293V.733l29.926 26.94V1.859h8.293ZM79.4 16.801h8.714v28.412H79.4V16.801ZM100.47 30.198a22.715 22.715 0 0 0 2.817 4.02 12.2 12.2 0 0 0 3.464 2.66 8.877 8.877 0 0 0 4.05.946c1.683 0 3.053-.433 4.109-1.3 1.057-.867 1.585-2.05 1.585-3.547 0-1.3-.333-2.345-.998-3.133-.626-.789-1.585-1.478-2.876-2.07-1.252-.63-2.798-1.3-4.638-2.01a46.102 46.102 0 0 1-3.404-1.418 18.783 18.783 0 0 1-3.581-2.365 12.51 12.51 0 0 1-2.818-3.547c-.743-1.418-1.115-3.113-1.115-5.083 0-2.365.587-4.395 1.761-6.09a11.537 11.537 0 0 1 4.872-3.96c2.074-.946 4.383-1.419 6.927-1.419 2.622 0 4.872.454 6.751 1.36 1.917.867 3.502 1.99 4.754 3.37a16.278 16.278 0 0 1 2.994 4.197l-6.574 3.665a12.12 12.12 0 0 0-1.996-2.66 8.314 8.314 0 0 0-2.583-1.951 7.105 7.105 0 0 0-3.346-.769c-1.644 0-2.876.394-3.698 1.183-.822.748-1.233 1.635-1.233 2.66a4.097 4.097 0 0 0 .998 2.72c.665.748 1.683 1.477 3.052 2.186a45.534 45.534 0 0 0 5.166 2.07 22.414 22.414 0 0 1 3.816 1.773 14.452 14.452 0 0 1 3.346 2.6 10.025 10.025 0 0 1 2.348 3.548c.587 1.34.88 2.896.88 4.67 0 2.01-.391 3.803-1.174 5.38a11.9 11.9 0 0 1-3.228 4.02 14.91 14.91 0 0 1-4.638 2.423 15.999 15.999 0 0 1-5.342.887 17.585 17.585 0 0 1-7.044-1.42 18.49 18.49 0 0 1-5.635-3.96 19.643 19.643 0 0 1-3.757-5.38l5.988-4.256ZM148.898.733l-21.334 44.481h9.676l4.02-8.73h15.183l4.053 8.73h9.735L148.898.733Zm-4.932 27.4 4.932-11.313 4.894 11.313h-9.826Z" fill="#fff"/><path fill-rule="evenodd" clip-rule="evenodd" d="M200.827 24.025a5.559 5.559 0 0 1-1.02 3.207 5.495 5.495 0 0 1-2.678 2.017 5.453 5.453 0 0 1-3.343.078 5.49 5.49 0 0 1-2.768-1.89 5.556 5.556 0 0 1-.298-6.409 5.497 5.497 0 0 1 2.581-2.14 5.454 5.454 0 0 1 3.336-.237l-1.304 5.374 5.42-.903c.049.298.074.6.074.903Z" fill="#fff"/></g><defs><clipPath id="clip0_233_6053"><path fill="#fff" transform="translate(.5 .056)" d="M0 0h251v69H0z"/></clipPath></defs></svg>