<svg width="684" height="86" fill="none" xmlns="http://www.w3.org/2000/svg"><g clip-path="url('#clip0_627_455')"><path d="M603.756 38.326c.233 1.703.341 3.42.323 5.138-.354 4.222-2.005 7.846-5.84 10.037-1.963 1.121-4.135 1.874-6.192 2.838a9.727 9.727 0 0 0-1.975 1.204c-1.325 1.07-1.296 2.526.083 3.586 1.85 1.422 3.779 2.742 5.617 4.178a51.734 51.734 0 0 1 4.204 3.584c2.864 2.78 2.349 7.97.347 10.61-2.188 2.886-5.221 4.415-8.573 5.383a25.368 25.368 0 0 1-17.152-.802 7.458 7.458 0 0 1-3.351-2.464 7.425 7.425 0 0 1-1.503-3.872 7.632 7.632 0 0 1 .663-3.663c1.349-3.099 3.98-4.94 6.953-6.295 1.542-.703 3.169-1.221 4.766-1.801.8-.291.857-.445.289-1.124a3.73 3.73 0 0 1-1.085-3.2c.208-1.168 1.148-1.51 1.932-2.028 1.381-.915 2.805-1.766 4.21-2.643l-.07-.332c-.51 0-1.02.02-1.529-.003a9.885 9.885 0 0 1-6.566-2.471 7.064 7.064 0 0 1-2.244-4.895 14.695 14.695 0 0 1 1.499-7.786c1.173-2.29 2.763-4.267 5.271-5.266 2.403-.958 4.769-2.053 7.243-2.78 2.3-.673 4.765-.51 6.956.461 2.788 1.205 5.709.938 8.613.94.954 0 1.908-.028 2.861-.057.541-.016.75.25.651.75a32.836 32.836 0 0 1-.483 2.176c-.268 1.001-.461 1.012-1.475.894-1.522-.179-3.061-.211-4.443-.297Zm-17.827 45.072c2.721-.194 3.86-.084 6.606-2.216 2.407-1.87 3.414-5.089 1.019-7.59-2.271-2.37-5.065-4.072-7.861-5.75a2.385 2.385 0 0 0-.988-.243c-1.421-.13-2.519.713-3.71 1.268-3.365 1.568-5.145 4.052-4.927 7.911a5.52 5.52 0 0 0 2.315 4.402 11.893 11.893 0 0 0 7.546 2.218Zm10.792-40.69c-.075-.8-.105-1.607-.234-2.399a4.57 4.57 0 0 0-1.174-2.599 4.592 4.592 0 0 0-2.49-1.401 4.99 4.99 0 0 0-5.227 1.44 11.716 11.716 0 0 0-2.059 3.425 16.593 16.593 0 0 0-1.103 8.802c.336 2.042 1.407 3.664 3.448 4.124 2.749.619 4.677-.008 6.325-2.522a16.296 16.296 0 0 0 2.514-8.87ZM541.844 40.302c-1.577-.441-2.52.554-3.576 1.195-.823.499-1.604 1.065-2.485 1.656a4.418 4.418 0 0 0-.488-1.097c-.412-.456-.233-.785.136-1.084 1.408-1.14 2.783-2.328 4.255-3.38a87.676 87.676 0 0 1 5.685-3.754 4.16 4.16 0 0 1 3.554-.576c.537.176.918.42.916.981a21.664 21.664 0 0 1-.142 4.19c-.629 3.082-1.479 6.118-2.223 9.177-.147.602-.221 1.22-.356 1.992 1.202-1.768 2.246-3.432 3.418-5.002a38.137 38.137 0 0 1 9.495-9.084 12.391 12.391 0 0 1 4.988-2.28 5.752 5.752 0 0 1 1.719-.078c1.85.3 2.093.75 2.248 3.08.03 1.527-.161 3.05-.567 4.522-.811 3.5-1.768 6.964-2.623 10.454-.661 2.697-1.263 5.409-1.873 8.118-.071.398-.102.801-.09 1.205-.016 1.296.521 1.7 1.723 1.119a25.486 25.486 0 0 0 3.15-1.927c1.126-.765 1.616-.632 1.945.695a.877.877 0 0 1-.237.758c-2.982 2.166-5.871 4.484-9.309 5.934-1.227.518-2.488.98-3.854.619a2.703 2.703 0 0 1-1.718-2.416c-.211-2.755.493-5.37 1.206-7.98.901-3.296 1.935-6.56 2.724-9.883.488-2.054.635-4.19.918-6.29.096-.712-.309-.938-.969-1.005a3.945 3.945 0 0 0-3.044 1.206 30.658 30.658 0 0 0-7.317 9.289 49.507 49.507 0 0 0-4.155 12.158c-.212 1.008-.387 2.025-.656 3.017a1.033 1.033 0 0 1-.661.621c-1.945.386-3.904.705-5.855 1.06-1.27.23-1.813-.318-1.463-1.534 1.033-3.587 2.153-7.152 3.094-10.763.706-2.715 1.243-5.477 1.749-8.238.341-1.859.505-3.75.732-5.63.023-.347.025-.696.006-1.045ZM483.993 62.898c3.938 0 7.778.055 11.616-.025 1.778-.071 3.55-.25 5.307-.534a3.156 3.156 0 0 0 1.868-.794 3.139 3.139 0 0 0 .995-1.765c.344-1.442.844-2.848 1.272-4.27.339-1.125.818-1.323 2.717-1.025a14.13 14.13 0 0 1-.132 1.906c-.628 3.102-1.3 6.195-1.951 9.292a.932.932 0 0 1-.343.669.946.946 0 0 1-.724.204c-1.556-.038-3.113-.035-4.669-.035-9.425 0-18.85 0-28.275-.003-.484 0-1.182.24-1.238-.656a1.6 1.6 0 0 1 1.091-1.787 12.458 12.458 0 0 0 2.607-.85 1.925 1.925 0 0 0 .821-1.235c.58-2.955 1.085-5.924 1.614-8.888.601-3.369 1.201-6.737 1.8-10.106.12-.679.188-1.367.306-2.046.612-3.514 1.262-7.021 1.839-10.54.4-2.438.765-4.884 1.024-7.339.143-1.362-.521-2.022-1.87-2.123-1.122-.084-2.255-.05-3.37-.179-.429-.05-1.086-.331-1.174-.639a2.536 2.536 0 0 1 .23-1.64c.103-.216.722-.272 1.103-.263 2.945.073 5.888.232 8.834.262 2.54.025 5.088 0 7.621-.167 1.378-.091 2.172.788 3.115 1.426.435.295.049.624-.328.696-.735.147-1.477.256-2.222.326-1.523.129-2.298.72-2.597 2.177-.723 3.52-1.464 7.036-2.096 10.573-.555 3.109-.91 6.253-1.463 9.363-.744 4.179-1.639 8.33-2.376 12.511-.421 2.389-.658 4.81-.973 7.217a1.2 1.2 0 0 0 .021.287ZM633.068 51.931c-1.084 1.62-2.081 3.26-3.227 4.79a40.084 40.084 0 0 1-9.803 9.531 13.754 13.754 0 0 1-3.851 1.666 3.189 3.189 0 0 1-3.396-1.323 3.168 3.168 0 0 1-.482-1.188c-.55-2.278.049-4.457.56-6.62.829-3.502 1.872-6.956 2.675-10.464.547-2.39.846-4.837 1.234-7.262a2.14 2.14 0 0 0-.087-.85c-.147-.568-.545-.874-1.098-.608-1.13.543-2.222 1.164-3.329 1.754-.023.013-.031.054-.055.065-.537.25-1.082.832-1.671.209a1.31 1.31 0 0 1-.322-1.124 1.298 1.298 0 0 1 .708-.93c2.133-1.412 4.24-2.872 6.451-4.152 1.507-.872 3.172-1.473 4.767-2.195a.34.34 0 0 1 .082-.028c2.511-.434 3.657.413 3.29 3.132-.47 3.481-1.429 6.9-2.223 10.334-.953 4.123-1.958 8.234-2.931 12.353a4.32 4.32 0 0 0-.089.942 1.331 1.331 0 0 0 .549 1.195 1.336 1.336 0 0 0 1.311.136c1.879-.658 3.135-2.088 4.367-3.535a42.415 42.415 0 0 0 6.434-10.07 38.317 38.317 0 0 0 3.321-11.971 1.07 1.07 0 0 1 .664-1.054c.137-.056.284-.084.432-.082 1.879-.252 3.739-.66 5.6-1.032 1.22-.244 1.497-.087 1.253 1.12-.342 1.685-.844 3.338-1.295 5-.714 2.634-1.405 5.274-2.173 7.891a61.787 61.787 0 0 0-2.103 9.735c-.114.91-.433 1.805-.467 2.714-.053 1.397.608 1.855 1.821 1.234a26.898 26.898 0 0 0 3.022-1.971c.92-.64 1.607-.44 1.834.627a.938.938 0 0 1-.275.783c-2.423 1.806-4.822 3.651-7.335 5.325a14.718 14.718 0 0 1-3.767 1.665c-1.664.52-2.896-.487-2.949-2.238-.08-2.7.598-5.285 1.246-7.87.409-1.628.877-3.242 1.299-4.867.033-.255.036-.512.008-.767ZM671.779 51.461c-1.257 1.897-2.428 3.858-3.793 5.675a52.664 52.664 0 0 1-5.062 6.08 19.01 19.01 0 0 1-7.045 4.545 4 4 0 0 1-4.737-1.778 3.969 3.969 0 0 1-.526-1.729 29.958 29.958 0 0 1 1.283-12.339c.894-2.804 1.964-5.558 3.088-8.28a6.63 6.63 0 0 1 1.732-2.23 50.628 50.628 0 0 1 9.383-6.74 10.768 10.768 0 0 1 7.903-.848c1.333.308 2.593.932 3.926 1.238a3.228 3.228 0 0 0 1.672-.436c.502-.205.929-.617 1.44-.768a1.61 1.61 0 0 1 1.197.155c.196.127.247.678.17.992-.85 3.478-1.767 6.941-2.609 10.422-.761 3.147-1.508 6.3-2.153 9.471a47.664 47.664 0 0 0-.785 5.693c-.117 1.466.361 1.77 1.675 1.14 1.289-.617 2.513-1.374 3.743-2.107.456-.272.885-.655 1.36-.142a1.177 1.177 0 0 1 .355.95 1.173 1.173 0 0 1-.52.87c-1.461 1.074-2.896 2.194-4.432 3.149-1.85 1.15-3.787 2.165-5.706 3.201a4.536 4.536 0 0 1-1.32.382c-1.427.266-2.405-1.016-2.638-2.246-.372-1.972.099-3.869.538-5.768.582-2.526 1.147-5.056 1.734-7.58.094-.311.209-.614.346-.908l-.219-.064Zm-3.383-14.527a23.748 23.748 0 0 0-3.019.989c-1.9.913-2.731 2.765-3.273 4.587-1.314 4.42-2.462 8.894-3.544 13.378a24.037 24.037 0 0 0-.353 4.376 1.828 1.828 0 0 0 1.029 1.742 2.49 2.49 0 0 0 1.801-.452 9.827 9.827 0 0 0 1.834-1.569 41.447 41.447 0 0 0 8.968-13.707 21.456 21.456 0 0 0 1.754-7.001c.014-.279-.147-.76-.337-.824-1.598-.547-3.221-1.018-4.86-1.519ZM520.501 40.4a2.227 2.227 0 0 0-2.469.105c-1.26.678-2.461 1.466-3.672 2.231-.543.344-1.038.676-1.556-.034-.476-.65-.438-1.05.308-1.58 2.908-2.06 5.787-4.168 8.769-6.118 1.231-.739 2.55-1.32 3.927-1.73 2.201-.736 3.562.484 3.445 2.793-.141 2.81-1.047 5.453-1.724 8.147-1.288 5.12-2.573 10.243-3.856 15.365a4.33 4.33 0 0 0-.108.769c-.088 1.451.683 1.984 1.977 1.263 1.303-.726 2.541-1.572 3.786-2.398.485-.322.895-.523 1.331.046.545.71.562 1.268-.083 1.683-3.224 2.069-6.437 4.156-9.718 6.131a4.509 4.509 0 0 1-3.563.65c-1.184-.32-1.589-1.22-1.844-2.266a9.64 9.64 0 0 1 .287-4.61c1.243-5.125 2.545-10.235 3.777-15.363.405-1.685.664-3.404.986-5.084ZM527.537 26.674c-1.965-.002-3.191-.995-3.536-3.28-.505-3.332 1.977-6.802 5.824-5.869.96.29 1.766.947 2.243 1.826.478.879.589 1.91.309 2.87a12.22 12.22 0 0 1-1.01 2.54 4.04 4.04 0 0 1-3.83 1.914ZM454.809 32.608a39.036 39.036 0 0 0-.627-2.905 34.224 34.224 0 0 0-3.454-8.479 27.132 27.132 0 0 0-7.479-8.393 34.699 34.699 0 0 0-7.058-4.006c-4.643-1.96-9.6-2.464-14.565-2.748a53.244 53.244 0 0 0-3.005-.085c-4 .015-7.987.436-11.901 1.257a33.182 33.182 0 0 0-13.347 6.292 24.338 24.338 0 0 0-6.318 6.81 36.119 36.119 0 0 0-3.026 6.455 38.773 38.773 0 0 0-.926 2.897 37.095 37.095 0 0 0-1.354 8.238 56.51 56.51 0 0 0 .414 10.744c.242 1.598.534 3.181.904 4.73a29.758 29.758 0 0 0 2.621 6.994c1.951 3.572 4.216 6.903 7.414 9.559a28.52 28.52 0 0 0 11.004 5.823 46.528 46.528 0 0 0 11.823 1.548c.512 0 1.025-.007 1.524-.029 8.76-.035 13.005-.731 19.828-3.543a32.487 32.487 0 0 0 6.011-3.38 24.642 24.642 0 0 0 7.792-8.948 37.992 37.992 0 0 0 3.176-8.025c.318-1.21.563-2.438.734-3.678a55.492 55.492 0 0 0-.185-17.128Zm-27.563 20.806a44.978 44.978 0 0 1-.833 3.6c-.649 2.337-1.631 4.588-3.975 5.852-3.696 1.996-8.176.959-10.177-2.507a21.304 21.304 0 0 1-2.372-6.945l-.021-.127a78.471 78.471 0 0 1-.805-12.996 68.474 68.474 0 0 1 .769-10.588c.128-.703.271-1.406.442-2.109.562-2.329 1.396-4.523 3.148-6.213a7.244 7.244 0 0 1 8.105-1.59c1.93.744 3.155 2.42 4.123 4.253a16.414 16.414 0 0 1 1.603 5.66c.1.766.221 1.753.32 2.52.349 2.684.463 5.39.592 7.01.192 4.745-.116 9.498-.919 14.18ZM87.213 73.199c-2.066-1.89-4.117-3.785-6.19-5.667a18.226 18.226 0 0 1-2.492-2.223 11.853 11.853 0 0 1-1.375-2.904 725.65 725.65 0 0 1-3.618-9.502c-.548-1.463-1.032-2.954-1.552-4.438-.997-2.827-2.009-5.66-2.992-8.493-.776-2.237-1.502-4.495-2.307-6.725-1.054-2.926-2.172-5.83-3.248-8.749-.491-1.335-.947-2.684-1.424-4.02-.777-2.165-.549-3.032.776-4.097 1.496-1.214 2.885-2.55 4.309-3.841.912-.831 1.802-1.69 2.7-2.536.89-.838 1.78-1.683 2.791-2.641a3.773 3.773 0 0 0-1.018-.37C54.907 6.98 38.24 6.98 21.304 6.98c.656.739 1.097 1.314 1.61 1.804 2.913 2.755 5.833 5.501 8.76 8.237.84.782.905 1.3.484 2.38a173.367 173.367 0 0 0-2.015 5.375c-.862 2.386-1.674 4.786-2.536 7.165-1.26 3.487-2.556 6.966-3.824 10.453-.812 2.237-1.596 4.488-2.4 6.74-.962 2.705-1.945 5.41-2.892 8.13-.77 2.202-1.496 4.417-2.25 6.626-.492 1.413-1.681 2.223-2.736 3.167-1.709 1.541-3.29 3.245-5.092 4.68a3.544 3.544 0 0 0-1.346 3.557c.064.604.342.895.926.895.805 0 1.617-.05 2.421-.05l23.51.043c4.246 0 8.498-.057 12.75-.043 4.593.008 9.187.086 13.788.093 6.303.014 12.606-.007 18.91-.007 2.898.007 5.79.05 8.688.042v-2.244c-.284-.27-.555-.553-.847-.823Zm-49.228-28.47c.705-2.123 1.41-4.246 2.136-6.37.126-.226.287-.432.477-.61.178.199.442.362.513.59.541 1.725 1.04 3.465 1.553 5.198.064.22.135.44.213.653.542 1.441.378 1.662-1.196 1.57-.954 0-1.902.014-2.849-.008-.912-.021-1.104-.256-.848-1.022Zm11.324 21.028a813.438 813.438 0 0 1-7.728 7.136c-.99.91-1.531.867-2.57-.1a12506.69 12506.69 0 0 0-8.54-7.931c-.691-.64-.698-1.002-.122-1.733.72-.916 1.347-1.91 2.13-2.77a3.7 3.7 0 0 1 1.318-.639h11.822c.178 0 .35-.007.52-.007 1.923.007 1.91.014 2.436 1.882.306 1.08.727 2.123 1.004 3.203a1.15 1.15 0 0 1-.27.959ZM126.613 60.63c-.591 1.192-.456 1.483.847 1.47 3.633-.05 7.265-.079 10.897-.2a2.823 2.823 0 0 0 1.759-.752c1.475-1.492 2.828-3.09 4.245-4.645a1011.61 1011.61 0 0 1 4.915-5.354 6.34 6.34 0 0 1 .904-.646c.114.414.193.837.235 1.264.036 2.99.052 5.977.05 8.962.007 4.843.007 9.683 0 14.522 0 .866-.178 1.037-1.282 1.044-2.92 0-5.84-.022-8.767-.029-11.481-.014-22.962-.026-34.443-.035-3.319-.014-6.645-.135-9.971-.135-2.28 0-4.558.15-6.845.163-.37.007-.733.007-1.096.007v-2.244c.085.078.178.157.263.235.534.461.947.334 1.268-.306 1.816-3.7 3.646-7.385 5.47-11.085.797-1.619 1.574-3.252 2.364-4.878 1.403-2.876 2.821-5.745 4.224-8.621a1689.24 1689.24 0 0 0 3.611-7.528c1.474-3.089 2.913-6.206 4.415-9.281 1.076-2.201 2.237-4.36 3.348-6.547.698-1.378 1.403-2.763 2.015-4.183.064-.163-.448-.781-.769-.852-1.609-.362-3.248-.618-4.879-.902a7 7 0 0 0-1.759-.27 2.16 2.16 0 0 0-1.282.646c-3.668 3.977-7.3 7.99-10.968 11.973-.294.246-.62.451-.969.61A4.53 4.53 0 0 1 94 31.77c-.05-1.875 0-3.743-.028-5.617-.036-3.38-.128-6.754-.15-10.134-.021-2.187.043-4.374.064-6.562 0-.454-.07-.908-.07-1.363-.008-.973.17-1.157 1.146-1.165 3.155-.007 6.303.008 9.451.008 11.574 0 23.142-.003 34.706-.008 3.64-.007 7.282-.011 10.926-.014.427 0 .854.071 1.474.128-.102.471-.24.934-.413 1.385-1.303 2.77-2.657 5.51-3.946 8.28-1.816 3.884-3.568 7.797-5.377 11.689-1.396 2.996-2.842 5.965-4.266 8.947-1.197 2.514-2.422 5.014-3.59 7.542-1.246 2.705-2.414 5.44-3.66 8.138a360.396 360.396 0 0 1-3.654 7.605ZM380.84 74.96a286.385 286.385 0 0 0-3.326-3.032c-2.407-2.152-4.836-4.283-7.215-6.47a5.997 5.997 0 0 1-1.332-1.768c-1.609-3.338-3.255-6.924-4.836-10.276-.092-.198-.185-.39-.277-.589a345.404 345.404 0 0 0-3.391-6.973 1.118 1.118 0 0 1 .022-1.294 1.12 1.12 0 0 1 .342-.304 27.345 27.345 0 0 0 3.988-3.679 19.816 19.816 0 0 0 4.01-10.872c.028-.39.05-.78.057-1.179.15-3.794-.617-7.57-2.237-11.007a16.85 16.85 0 0 0-5.968-6.788 22.842 22.842 0 0 0-12.863-3.643c-4.394-.029-8.788.028-13.19.007-7.599-.036-15.199-.114-22.805-.156-3.148-.022-6.296.007-9.444.014h-1.147c-.028.085-.057.163-.085.248.278.306.527.647.833.923 2.635 2.408 5.285 4.794 7.92 7.194 1.318 1.207 2.535 2.528 3.946 3.607a2.654 2.654 0 0 1 1.075 2.6c-.142 2.208-.249 4.417-.363 6.625-.029.518-.05 1.037-.071 1.555-.093 1.875-.171 3.963-.271 5.838-.164 3.21-.363 6.412-.513 9.615a958.598 958.598 0 0 0-.37 8.258l-.157 3.693c-.092 2.294-.128 4.595-.263 6.895a2.571 2.571 0 0 1-.535 1.584c-1.239 1.236-2.585 2.365-3.91 3.515-.398.341-.904.554-1.289.91-.448.397-.776.937-1.239 1.32-.983.817-2.044 1.548-3.013 2.379-.42.355-.698.383-1.096.035-.734-.646-1.51-1.25-2.237-1.903-1.951-1.79-3.903-3.579-5.819-5.404-.897-.86-2.051-1.647-2.507-2.72-1.41-3.295-2.635-6.93-3.867-10.304-.783-2.166-1.538-4.346-2.315-6.519-.605-1.683-1.253-3.351-1.816-5.049-.712-2.13-1.325-4.296-2.058-6.412-.492-1.406-1.175-2.748-1.695-4.14-.171-.462-.406-1.13-.577-1.59-1.289-3.516-2.557-7.045-3.825-10.56a1.694 1.694 0 0 1 .321-1.918c.847-.823 1.688-1.654 2.585-2.421 2.5-2.116 5.135-4.09 7.535-6.306.357-.327 1.603-1.57 1.603-1.57s-2.528-.007-2.707 0c-1.787.043-3.575.114-5.363.135-1.502.015-3.098.022-4.608.022-1.153.007-2.307.007-3.461.007-5.142.007-10.284.042-15.427.014-6.36-.028-12.72-.107-19.08-.142a3.36 3.36 0 0 0-1.011.348c.081.35.22.684.413.987a133.625 133.625 0 0 0 3.661 3.629c1.367 1.306 2.77 2.578 4.145 3.877.919.874 1.816 1.761 2.756 2.677-.107.32-.221.703-.356 1.08-1.182 3.26-2.386 6.504-3.533 9.771-1.025 2.897-1.973 5.823-2.998 8.72a2275.13 2275.13 0 0 1-5.876 16.575c-.919 2.563-1.902 5.091-2.849 7.64a7.564 7.564 0 0 1-1.916 3.324c-1.232 1.072-2.421 2.201-3.639 3.288-1.004.895-2.08 1.726-3.041 2.663-1.125 1.1-2.165 2.294-3.234 3.444-.292.32-.577.653-1.047 1.179.741.05 1.19.114 1.638.114 2.885-.015 5.777-.05 8.661-.05 15.405 0 30.803.005 46.194.014h6.289c14.052-.014 28.104-.092 42.156-.092 18.945 0 37.883.056 56.828.07.653-.04 1.302-.12 1.945-.24-.264-.359-.55-.7-.855-1.023ZM252.149 44.43c.535-1.612 1.126-3.21 1.688-4.814.211-.665.482-1.31.812-1.925 1.325 2.514 1.667 5.298 2.814 8.06-1.802 0-3.355.078-4.893-.028-.841-.057-.584-.803-.421-1.293Zm10.705 21.837c-1.93 1.69-3.768 3.48-5.676 5.198-.549.458-1.135.869-1.752 1.228-1.005.625-1.881.263-2.671-.433-1.539-1.356-3.077-2.705-4.594-4.083a181.824 181.824 0 0 1-3.226-3.01c-.848-.803-.869-1.407-.143-2.323a25.98 25.98 0 0 0 1.681-2.194 1.979 1.979 0 0 1 1.88-.973c2.08.028 4.16.014 6.239.014v-.028c2.059 0 4.11.028 6.161-.015a1.443 1.443 0 0 1 1.529.7c.099.173.161.366.18.564.25 1.15.698 2.252 1.04 3.38a1.724 1.724 0 0 1-.648 1.975Zm76.129-38.475c.057-2.01-.014-4.02.021-6.029.015-.44.128-1.094.42-1.271.592-.348 1.069.177 1.446.625 1.111 1.314 1.403 2.933 1.581 4.559a29.28 29.28 0 0 1 .193 4.026 22.1 22.1 0 0 1-.321 3.196 6.052 6.052 0 0 1-1.78 3.451 2.38 2.38 0 0 1-1.126.497c-.463.085-.755-.163-.733-.696.028-.632.007-1.27.007-1.903h-.021c.071-1.441.17-3.096.242-4.545.028-.632.057-1.27.071-1.91Zm3.468 39.398a.981.981 0 0 1-.911-.057 9.653 9.653 0 0 1-2.272-2.3c-.456-.832-.42-1.94-.549-2.934-.349-2.755-.698-5.723-1.025-8.486-.007-.042-.007-.085-.014-.127a2.423 2.423 0 0 1 0-.341c.06-.302.173-.59.334-.852.157.177.392.333.456.54l.235.78c1.133 3.743 2.308 7.705 3.426 11.448.171.484.316.977.434 1.477.05.284.043.767-.114.852ZM192.664 59.685c-.719 1.498-.491 2.265 1.41 2.215 3.277-.085 6.56-.099 9.843-.163 1.211-.028 1.859-.994 2.586-1.726a48.563 48.563 0 0 0 3.639-4.019c1.489-1.889 3.376-3.38 4.936-5.19a6.41 6.41 0 0 1 .598-.498c.229.697.387 1.416.47 2.145.007 2.5-.107 4.999-.128 7.499-.036 4.8-.036 9.6-.064 14.394-.013.373-.06.744-.143 1.108-.128.738-.669.83-1.303.823h-14.836c-6.132-.007-12.266-.011-18.403-.014-3.896-.007-7.794-.01-11.695-.007-4.622 0-9.244.029-13.867.036a4.738 4.738 0 0 1-.769-.086c-.591-.085-.691-.369-.42-.894 1.581-3.146 3.148-6.3 4.701-9.46.811-1.647 1.552-3.323 2.357-4.97.684-1.413 1.417-2.798 2.108-4.204a675.752 675.752 0 0 0 3.276-6.753c1.546-3.26 3.049-6.54 4.608-9.786.884-1.84 1.866-3.629 2.764-5.454 1.232-2.514 2.414-5.049 3.625-7.57.741-1.54 1.524-3.053 2.236-4.608.506-1.108.257-1.62-1.018-1.762-1.88-.213-3.739-.61-5.605-.958a1.258 1.258 0 0 0-1.304.397c-3.404 3.665-6.837 7.315-10.256 10.965-.619.66-1.218 1.328-1.98 2.166a4.363 4.363 0 0 1-.534-1.293c.007-6.625.05-13.258.086-19.883 0-1.264-.022-2.535.028-3.807.05-1.292.214-1.406 1.489-1.406 6.723 0 13.446.003 20.17.007 8.831.008 17.66.01 26.487.008 2.543 0 5.085-.029 7.635-.043.202.001.404.013.605.035.912.086 1.09.249.827 1.15-.283.8-.619 1.581-1.005 2.337-.52 1.136-1.032 2.28-1.574 3.409-1.153 2.421-2.35 4.822-3.482 7.25-2.287 4.921-4.53 9.857-6.816 14.778-1.247 2.67-2.571 5.312-3.832 7.982-2.486 5.283-4.943 10.58-7.45 15.85Z" fill="#262C20"/><path d="M361.858 22.532c-.007.398-.028.789-.057 1.18H335.62a29.436 29.436 0 0 0-.192-4.027c-.178-1.626-.47-3.245-1.581-4.56-.378-.447-.855-.972-1.446-.624-.292.177-.406.83-.42 1.27-.036 2.01.035 4.02-.022 6.03-.014.64-.043 1.278-.071 1.91h-24.429c.021-.518.043-1.037.071-1.555.114-2.208.221-4.417.363-6.625a2.654 2.654 0 0 0-1.075-2.6c-1.41-1.079-2.628-2.4-3.946-3.607-2.635-2.4-5.284-4.786-7.92-7.194-.306-.277-.555-.617-.833-.923l.086-.248h1.146c3.148-.007 6.296-.036 9.444-.015 7.607.043 15.206.121 22.805.157 4.402.021 8.796-.036 13.191-.007a22.839 22.839 0 0 1 12.862 3.643 16.86 16.86 0 0 1 5.969 6.788 23.639 23.639 0 0 1 2.236 11.007ZM268.407 11.234a1.695 1.695 0 0 0-.32 1.917c1.268 3.516 2.535 7.045 3.825 10.56h-4.459V1.094c1.51 0 3.105-.008 4.608-.022 1.788-.021 3.575-.092 5.363-.135.178-.007 2.705 0 2.705 0s-1.245 1.24-1.601 1.57c-2.401 2.219-5.035 4.19-7.535 6.306-.898.767-1.738 1.598-2.586 2.421ZM447.159 23.711H420.23a16.434 16.434 0 0 0-1.602-5.66c-.969-1.832-2.194-3.508-4.124-4.253a7.244 7.244 0 0 0-8.105 1.59c-1.752 1.69-2.585 3.885-3.148 6.214a36.776 36.776 0 0 0-.441 2.11h-26.73c.271-.974.577-1.94.926-2.898a36.052 36.052 0 0 1 3.027-6.455 24.349 24.349 0 0 1 6.317-6.81 33.182 33.182 0 0 1 13.347-6.292A59.015 59.015 0 0 1 411.598 0c.997 0 2.002.028 3.006.085 4.964.284 9.921.788 14.565 2.748a34.697 34.697 0 0 1 7.058 4.006 27.128 27.128 0 0 1 7.478 8.393 34.147 34.147 0 0 1 3.454 8.48Z" fill="#000"/><path d="M353.439 39.86a285.185 285.185 0 0 1 3.39 6.973c.093.199.186.39.278.59h-25.426l-.235-.782c-.064-.206-.299-.362-.456-.54a2.62 2.62 0 0 0-.335.853 2.768 2.768 0 0 0 0 .34c.008.043.008.086.015.128h-24.365c.114-2.748.237-5.5.37-8.258.15-3.203.349-6.406.513-9.616.1-1.874.178-3.962.27-5.837h24.43c-.072 1.449-.171 3.103-.243 4.545h.022c0 .632.021 1.271-.007 1.903-.022.533.27.781.733.696a2.372 2.372 0 0 0 1.125-.497 6.048 6.048 0 0 0 1.781-3.451c.184-1.056.291-2.124.321-3.196h26.181a19.816 19.816 0 0 1-4.01 10.872 27.295 27.295 0 0 1-3.989 3.679 1.13 1.13 0 0 0-.532.72 1.115 1.115 0 0 0 .169.877ZM447.973 43.744a31.33 31.33 0 0 1-.734 3.678h-27.014a67.635 67.635 0 0 0 .918-14.18c-.128-1.62-.242-4.326-.591-7.01-.099-.767-.221-1.754-.32-2.52h26.929c.228.88.47 1.995.626 2.904a55.493 55.493 0 0 1 .186 17.128ZM402.868 47.422h-26.822a56.839 56.839 0 0 1-.905-4.73 56.51 56.51 0 0 1-.413-10.743c.14-2.788.594-5.551 1.353-8.238h26.73a68.352 68.352 0 0 0-.77 10.588 78.688 78.688 0 0 0 .805 12.995l.022.128ZM280.373 47.422h-12.92v-23.71h4.459c.171.46.406 1.128.577 1.59.519 1.392 1.203 2.734 1.695 4.14.733 2.116 1.346 4.282 2.058 6.412.563 1.698 1.211 3.366 1.816 5.05.776 2.172 1.531 4.352 2.315 6.518Z" fill="#D00"/><path d="M374.67 69.99c-.642.12-1.292.201-1.944.242-18.945-.014-37.883-.071-56.828-.071-14.052 0-28.104.078-42.156.092h-6.289v-22.83h12.92c1.232 3.372 2.457 7.008 3.867 10.303.456 1.073 1.61 1.86 2.507 2.72a416.193 416.193 0 0 0 5.819 5.404c.726.654 1.503 1.257 2.236 1.903.399.348.677.32 1.097-.035.969-.831 2.03-1.563 3.013-2.38.463-.383.79-.922 1.239-1.32.385-.355.89-.568 1.289-.909 1.325-1.15 2.671-2.28 3.91-3.515.35-.454.538-1.011.534-1.584.136-2.3.171-4.601.264-6.895l.157-3.693h24.365c.327 2.763.676 5.731 1.025 8.486.128.995.093 2.102.549 2.933a9.668 9.668 0 0 0 2.271 2.301.983.983 0 0 0 .912.057c.157-.085.164-.568.114-.852-.118-.5-.263-.993-.434-1.477-1.119-3.743-2.294-7.705-3.426-11.448h25.426c1.581 3.352 3.226 6.938 4.836 10.276.33.666.782 1.266 1.332 1.768 2.379 2.187 4.807 4.318 7.215 6.47a403.477 403.477 0 0 1 3.326 3.032c.305.323.59.664.854 1.022ZM447.238 47.422a37.993 37.993 0 0 1-3.176 8.025 24.642 24.642 0 0 1-7.792 8.947 32.519 32.519 0 0 1-6.011 3.38c-6.823 2.813-11.068 3.509-19.828 3.544a35.96 35.96 0 0 1-1.524.029 46.528 46.528 0 0 1-11.823-1.548 28.52 28.52 0 0 1-11.004-5.824c-3.198-2.655-5.463-5.986-7.414-9.558a29.757 29.757 0 0 1-2.621-6.995h26.822a21.304 21.304 0 0 0 2.372 6.945c2.001 3.466 6.481 4.503 10.177 2.507 2.343-1.264 3.326-3.515 3.974-5.851.314-1.122.62-2.457.834-3.6h27.014Z" fill="#FFCE00"/><path d="M80.19 67.207c-2.066-1.89-4.117-3.785-6.19-5.667a18.224 18.224 0 0 1-2.492-2.223 11.848 11.848 0 0 1-1.375-2.904 724.757 724.757 0 0 1-3.618-9.502c-.549-1.463-1.033-2.954-1.553-4.438-.997-2.826-2.008-5.66-2.991-8.493-.776-2.237-1.503-4.495-2.308-6.725-1.054-2.926-2.172-5.83-3.247-8.75-.492-1.334-.948-2.683-1.425-4.018-.776-2.166-.548-3.033.777-4.098 1.495-1.214 2.884-2.55 4.309-3.842.911-.83 1.801-1.69 2.699-2.535.89-.838 1.78-1.683 2.792-2.641A3.774 3.774 0 0 0 64.549 1C47.883.987 31.217.987 14.281.987c.655.739 1.097 1.314 1.61 1.804 2.912 2.755 5.833 5.5 8.76 8.237.84.781.904 1.3.484 2.38a173.465 173.465 0 0 0-2.016 5.375c-.861 2.386-1.673 4.786-2.535 7.165-1.26 3.487-2.557 6.966-3.825 10.453-.812 2.237-1.595 4.488-2.4 6.74-.961 2.705-1.944 5.41-2.891 8.13-.77 2.202-1.496 4.417-2.251 6.626-.491 1.413-1.68 2.223-2.735 3.167-1.71 1.54-3.29 3.245-5.092 4.68A3.544 3.544 0 0 0 .044 69.3c.064.604.342.895.926.895.804 0 1.616-.05 2.421-.05l23.51.043c4.245 0 8.497-.057 12.749-.042 4.594.007 9.188.085 13.789.092 6.303.014 12.606-.007 18.909-.007 2.899.007 5.79.05 8.689.042V68.03c-.285-.27-.556-.554-.848-.823ZM30.96 38.737c.705-2.123 1.41-4.246 2.137-6.37.126-.226.287-.432.477-.61.178.199.441.362.513.59.541 1.725 1.04 3.465 1.552 5.197.064.22.136.44.214.654.541 1.441.377 1.661-1.197 1.57-.954 0-1.901.013-2.848-.008-.912-.021-1.104-.256-.848-1.023Zm11.324 21.027a813.45 813.45 0 0 1-7.727 7.137c-.99.91-1.532.867-2.571-.1-2.85-2.648-5.696-5.292-8.54-7.931-.69-.64-.698-1.002-.12-1.733.718-.916 1.345-1.91 2.129-2.77a3.7 3.7 0 0 1 1.317-.639h11.823c.178 0 .349-.007.52-.007 1.923.007 1.909.014 2.436 1.882.306 1.08.726 2.123 1.004 3.203a1.15 1.15 0 0 1-.27.958Z" fill="#006F49"/><path d="M119.589 54.637c-.591 1.193-.455 1.484.848 1.47 3.632-.05 7.265-.078 10.897-.199a2.826 2.826 0 0 0 1.759-.752c1.474-1.492 2.828-3.09 4.245-4.645 1.631-1.79 3.269-3.574 4.914-5.354.282-.241.585-.458.905-.646.114.414.192.837.235 1.264.035 2.99.052 5.977.05 8.962.007 4.843.007 9.684 0 14.522 0 .866-.178 1.037-1.282 1.044-2.921 0-5.841-.022-8.768-.029a84141.75 84141.75 0 0 0-34.443-.035c-3.319-.014-6.645-.135-9.97-.135-2.28 0-4.559.149-6.845.163-.37.007-.734.007-1.097.007V68.03c.086.078.178.156.264.235.534.461.947.333 1.267-.306 1.817-3.7 3.647-7.385 5.47-11.085.798-1.619 1.574-3.252 2.365-4.879 1.403-2.875 2.82-5.744 4.223-8.62 1.211-2.507 2.415-5.016 3.611-7.528 1.474-3.089 2.913-6.206 4.416-9.281 1.075-2.201 2.236-4.36 3.347-6.547.698-1.378 1.403-2.763 2.016-4.183.064-.164-.449-.781-.769-.852-1.61-.363-3.248-.618-4.879-.902a7.007 7.007 0 0 0-1.759-.27 2.16 2.16 0 0 0-1.282.646c-3.668 3.977-7.3 7.99-10.968 11.973-.294.246-.62.451-.969.61a4.527 4.527 0 0 1-.413-1.263c-.05-1.875 0-3.743-.029-5.617-.035-3.38-.128-6.754-.15-10.134-.02-2.187.044-4.374.065-6.562 0-.454-.071-.909-.071-1.363-.007-.973.17-1.158 1.147-1.165 3.155-.007 6.303.007 9.45.007 11.574 0 23.143-.002 34.707-.007 3.639-.007 7.281-.012 10.925-.014.428 0 .855.071 1.475.128a9.667 9.667 0 0 1-.413 1.385c-1.304 2.77-2.657 5.51-3.946 8.28-1.816 3.884-3.568 7.797-5.377 11.688-1.396 2.997-2.842 5.966-4.267 8.948-1.196 2.514-2.421 5.014-3.589 7.542-1.246 2.705-2.415 5.44-3.661 8.138a350.584 350.584 0 0 1-3.654 7.605ZM174.245.937v69.33c-3.895-.007-7.794-.01-11.694-.007-4.623 0-9.245.028-13.867.036a4.715 4.715 0 0 1-.769-.086c-.591-.085-.691-.369-.421-.894 1.582-3.146 3.148-6.3 4.701-9.46.812-1.647 1.553-3.323 2.358-4.97.683-1.413 1.417-2.798 2.108-4.204a675.769 675.769 0 0 0 3.276-6.754c1.545-3.259 3.048-6.54 4.608-9.785.883-1.84 1.866-3.629 2.763-5.454 1.232-2.514 2.415-5.049 3.626-7.57.74-1.54 1.524-3.053 2.236-4.608.506-1.108.256-1.62-1.019-1.762-1.88-.213-3.739-.61-5.605-.958a1.257 1.257 0 0 0-1.303.397c-3.405 3.665-6.837 7.315-10.256 10.965-.62.66-1.218 1.328-1.98 2.166a4.335 4.335 0 0 1-.534-1.293c.007-6.625.05-13.258.085-19.883 0-1.264-.021-2.536.029-3.807.05-1.292.213-1.406 1.488-1.406 6.724 0 13.447.003 20.17.007Z" fill="#fff"/><path d="M263.991 1.1c-5.143.008-10.285.043-15.427.015-6.36-.028-12.72-.107-19.08-.142a3.366 3.366 0 0 0-1.012.348c.081.35.221.684.413.987a136.54 136.54 0 0 0 3.661 3.629c1.368 1.306 2.771 2.577 4.145 3.877.919.873 1.817 1.761 2.757 2.677-.107.32-.221.703-.356 1.08-1.183 3.259-2.386 6.504-3.533 9.77-1.026 2.898-1.973 5.824-2.998 8.721a2325.241 2325.241 0 0 1-5.876 16.575c-.919 2.563-1.902 5.091-2.849 7.64a7.564 7.564 0 0 1-1.916 3.324c-1.232 1.072-2.422 2.202-3.639 3.288-1.005.895-2.08 1.726-3.042 2.663-1.125 1.1-2.165 2.294-3.233 3.444-.292.32-.577.653-1.047 1.179.741.05 1.189.114 1.638.114 2.885-.015 5.776-.05 8.661-.05 15.405 0 30.803.004 46.194.014V1.093c-1.154.008-2.308.008-3.461.008Zm-18.867 37.34c.534-1.613 1.125-3.21 1.688-4.815.21-.666.482-1.31.812-1.925 1.325 2.514 1.666 5.298 2.813 8.06-1.802 0-3.354.078-4.893-.028-.84-.057-.584-.803-.42-1.293Zm10.705 21.836c-1.93 1.69-3.768 3.48-5.677 5.198-.548.458-1.134.869-1.752 1.228-1.004.625-1.88.263-2.671-.433-1.538-1.356-3.076-2.705-4.593-4.083a185.039 185.039 0 0 1-3.227-3.011c-.847-.802-.869-1.406-.142-2.322a25.996 25.996 0 0 0 1.681-2.194 1.982 1.982 0 0 1 1.88-.973c2.08.028 4.159.014 6.239.014v-.029c2.058 0 4.109.029 6.161-.014a1.436 1.436 0 0 1 1.709 1.264c.249 1.15.698 2.251 1.04 3.38a1.724 1.724 0 0 1-.648 1.975ZM185.64 53.693c-.72 1.498-.492 2.265 1.41 2.215 3.276-.085 6.559-.099 9.843-.163 1.21-.028 1.859-.994 2.585-1.725a48.58 48.58 0 0 0 3.639-4.02c1.489-1.889 3.376-3.38 4.936-5.19a6.41 6.41 0 0 1 .598-.498c.23.697.387 1.416.47 2.145.007 2.5-.106 4.999-.128 7.498-.035 4.801-.035 9.602-.064 14.395-.012.373-.06.744-.142 1.108-.129.738-.67.83-1.304.823h-14.835c-6.132-.007-12.267-.011-18.404-.014V.937c8.832.007 17.661.01 26.488.007 2.542 0 5.085-.028 7.634-.042.203.001.405.013.606.035.911.086 1.09.249.826 1.15-.283.8-.618 1.581-1.004 2.337-.52 1.136-1.033 2.28-1.574 3.409-1.154 2.421-2.351 4.822-3.483 7.25-2.286 4.921-4.53 9.857-6.816 14.778-1.246 2.67-2.571 5.312-3.832 7.982-2.485 5.283-4.942 10.58-7.449 15.85Z" fill="#C51130"/></g><defs><clipPath id="clip0_627_455"><path fill="#fff" d="M0 0h684v86H0z"/></clipPath></defs></svg>