<svg width="29" height="30" fill="none" xmlns="http://www.w3.org/2000/svg"><g filter="url('#filter0_d_233_6021')"><path d="M28 14.056c0-7.732-6.268-14-14-14s-14 6.268-14 14 6.268 14 14 14 14-6.268 14-14Z" fill="#9ED821"/><path d="M14 .556c7.456 0 13.5 6.044 13.5 13.5s-6.044 13.5-13.5 13.5S.5 21.512.5 14.056 6.544.556 14 .556Z" stroke="#fff"/></g><path d="M19.48 9.748H8.67a1.132 1.132 0 0 0-.934.493l5.405 3.832a1.618 1.618 0 0 0 1.867 0l5.405-3.832a1.132 1.132 0 0 0-.932-.493Z" fill="#262C20"/><path d="M15.477 14.732a2.425 2.425 0 0 1-2.803 0L7.54 11.09v7.2a1.132 1.132 0 0 0 1.132 1.132h10.81a1.132 1.132 0 0 0 1.132-1.131V11.09l-5.136 3.64Z" fill="#262C20"/><defs><filter id="filter0_d_233_6021" x="0" y=".056" width="29" height="29" filterUnits="userSpaceOnUse" color-interpolation-filters="sRGB"><feFlood flood-opacity="0" result="BackgroundImageFix"/><feColorMatrix in="SourceAlpha" values="0 0 0 0 0 0 0 0 0 0 0 0 0 0 0 0 0 0 127 0" result="hardAlpha"/><feOffset dx="1" dy="1"/><feComposite in2="hardAlpha" operator="out"/><feColorMatrix values="0 0 0 0 1 0 0 0 0 1 0 0 0 0 1 0 0 0 1 0"/><feBlend in2="BackgroundImageFix" result="effect1_dropShadow_233_6021"/><feBlend in="SourceGraphic" in2="effect1_dropShadow_233_6021" result="shape"/></filter></defs></svg>