<svg width="29" height="30" fill="none" xmlns="http://www.w3.org/2000/svg"><g filter="url('#filter0_d_233_6016')"><path d="M28 14.056c0-7.732-6.268-14-14-14s-14 6.268-14 14 6.268 14 14 14 14-6.268 14-14Z" fill="#9ED821"/><path d="M14 .556c7.456 0 13.5 6.044 13.5 13.5s-6.044 13.5-13.5 13.5S.5 21.512.5 14.056 6.544.556 14 .556Z" stroke="#fff"/></g><path d="m21.145 17.973-1.917-1.593c-1.224-1.224-3.405 1.538-3.41 1.544-.17.17-1.538-.922-2.655-2.04-1.118-1.116-2.209-2.484-2.04-2.654.007-.006 2.769-2.186 1.545-3.41l-1.59-1.918c-1.718-1.496-7.078 2.57.101 9.751l.11.109.108.11c7.176 7.178 11.245 1.82 9.748.101Z" fill="#262C20"/><defs><filter id="filter0_d_233_6016" x="0" y=".056" width="29" height="29" filterUnits="userSpaceOnUse" color-interpolation-filters="sRGB"><feFlood flood-opacity="0" result="BackgroundImageFix"/><feColorMatrix in="SourceAlpha" values="0 0 0 0 0 0 0 0 0 0 0 0 0 0 0 0 0 0 127 0" result="hardAlpha"/><feOffset dx="1" dy="1"/><feComposite in2="hardAlpha" operator="out"/><feColorMatrix values="0 0 0 0 1 0 0 0 0 1 0 0 0 0 1 0 0 0 1 0"/><feBlend in2="BackgroundImageFix" result="effect1_dropShadow_233_6016"/><feBlend in="SourceGraphic" in2="effect1_dropShadow_233_6016" result="shape"/></filter></defs></svg>