<svg aria-hidden="true" style="width: 0; height: 0; position: absolute; overflow: hidden" version="1.1" xmlns="http://www.w3.org/2000/svg" xmlns:xlink="http://www.w3.org/1999/xlink">
<defs>
<symbol id="icon-btnSlider_right" viewBox="0 0 32 32">
<path d="M30.866 17.075c-0.625 8.179-7.763 14.303-15.942 13.678s-14.303-7.763-13.678-15.942c0.625-8.179 7.763-14.303 15.942-13.678s14.303 7.763 13.678 15.942z"></path>
<path fill="none" stroke="#262c20" style="stroke: var(--color2, #262c20)" stroke-linejoin="miter" stroke-linecap="butt" stroke-miterlimit="4" stroke-width="1.9804" d="M29.878 16.999c-0.584 7.634-7.245 13.349-14.88 12.766s-13.349-7.245-12.766-14.88c0.584-7.634 7.245-13.349 14.88-12.766s13.349 7.245 12.766 14.88z"></path>
<path fill="#262c20" style="fill: var(--color2, #262c20)" d="M17.986 11.743c-0.105 0.052-0.171 0.159-0.171 0.276v2.422l-9.357 1.462c-0.15 0.023-0.261 0.153-0.261 0.305v0.002c0.001 0.153 0.114 0.282 0.266 0.303l9.353 1.315v2.568c0 0.17 0.138 0.308 0.308 0.308 0.067 0 0.132-0.022 0.185-0.062l5.557-4.189c0.136-0.102 0.164-0.296 0.062-0.432-0.018-0.023-0.038-0.044-0.062-0.062l-5.557-4.189c-0.093-0.070-0.218-0.081-0.323-0.029z"></path>
</symbol>
<symbol id="icon-btnSlider_left" viewBox="0 0 32 32">
<path d="M30.565 17.075c-0.625 8.179-7.763 14.303-15.942 13.678s-14.303-7.763-13.678-15.942c0.625-8.179 7.763-14.303 15.942-13.678s14.303 7.763 13.678 15.942z"></path>
<path fill="none" stroke="#262c20" style="stroke: var(--color2, #262c20)" stroke-linejoin="miter" stroke-linecap="butt" stroke-miterlimit="4" stroke-width="1.9804" d="M29.578 16.999c-0.584 7.634-7.245 13.349-14.88 12.766s-13.349-7.245-12.766-14.88c0.584-7.634 7.245-13.349 14.88-12.766s13.349 7.245 12.766 14.88z"></path>
<path fill="#262c20" style="fill: var(--color2, #262c20)" d="M13.899 11.743c0.105 0.052 0.171 0.159 0.171 0.276v2.422l9.357 1.462c0.15 0.023 0.261 0.153 0.261 0.305v0.002c-0.001 0.153-0.114 0.282-0.266 0.303l-9.353 1.315v2.568c0 0.17-0.138 0.308-0.308 0.308-0.067 0-0.132-0.022-0.185-0.062l-5.557-4.189c-0.136-0.102-0.164-0.296-0.062-0.432 0.018-0.023 0.038-0.044 0.062-0.062l5.557-4.189c0.093-0.070 0.218-0.081 0.323-0.029z"></path>
</symbol>
<symbol id="icon-down" viewBox="0 0 33 32">
<path d="M16.263 21.333c-0.176 0.001-0.349-0.033-0.512-0.099s-0.31-0.164-0.435-0.288l-8-8c-0.251-0.251-0.392-0.592-0.392-0.947s0.141-0.696 0.392-0.947c0.251-0.251 0.592-0.392 0.947-0.392s0.696 0.141 0.947 0.392l7.053 7.067 7.053-7.053c0.255-0.218 0.583-0.333 0.919-0.32s0.654 0.152 0.891 0.39c0.237 0.237 0.377 0.556 0.39 0.891s-0.101 0.664-0.32 0.919l-8 8c-0.248 0.246-0.584 0.385-0.933 0.387z"></path>
</symbol>
<symbol id="icon-Btn_up" viewBox="0 0 43 32">
<path fill="#9ed821" style="fill: var(--color1, #9ed821)" d="M20.683 31.844c8.793 0 15.922-7.128 15.922-15.922s-7.128-15.922-15.922-15.922c-8.793 0-15.922 7.128-15.922 15.922s7.129 15.922 15.922 15.922z"></path>
<path fill="#9ed821" style="fill: var(--color1, #9ed821)" d="M1.834 9.873h1.522v5.463h6.283v-5.463h1.522v12.878h-1.522v-5.971h-6.283v5.971h-1.522v-12.878zM18.341 22.907c-0.898 0-1.678-0.195-2.38-0.624s-1.249-1.015-1.639-1.756c-0.39-0.741-0.585-1.6-0.585-2.537s0.195-1.795 0.585-2.537c0.429-0.78 0.976-1.366 1.678-1.795s1.522-0.663 2.381-0.663c0.859 0 1.678 0.195 2.381 0.624s1.249 1.015 1.678 1.795c0.39 0.741 0.585 1.6 0.585 2.537s-0.195 1.795-0.585 2.537c-0.39 0.741-0.937 1.327-1.678 1.756-0.741 0.468-1.522 0.663-2.419 0.663zM18.38 21.541c0.937 0 1.678-0.312 2.263-0.976s0.859-1.522 0.859-2.576c0-1.093-0.273-1.951-0.859-2.576-0.546-0.663-1.327-0.976-2.263-0.976-0.624 0-1.171 0.156-1.639 0.468s-0.859 0.702-1.093 1.249c-0.273 0.546-0.39 1.171-0.39 1.873 0 1.054 0.273 1.912 0.859 2.576 0.546 0.585 1.327 0.937 2.263 0.937zM28.917 22.868c-0.898 0-1.678-0.195-2.341-0.585s-1.21-0.937-1.561-1.678c-0.351-0.741-0.546-1.561-0.546-2.498 0-0.976 0.195-1.834 0.585-2.576 0.39-0.78 0.937-1.366 1.639-1.756 0.702-0.429 1.483-0.624 2.381-0.624 0.585 0 1.171 0.117 1.717 0.351s0.937 0.507 1.132 0.859l-0.937 1.015c-0.273-0.312-0.585-0.546-0.898-0.663-0.273-0.117-0.624-0.195-1.054-0.195-0.976 0-1.717 0.312-2.302 0.976-0.546 0.663-0.82 1.522-0.82 2.654 0 1.054 0.273 1.873 0.82 2.459s1.288 0.898 2.263 0.898c0.468 0 0.937-0.078 1.366-0.234 0.468-0.156 0.976-0.429 1.561-0.82l0.624 1.171c-0.507 0.39-1.093 0.702-1.756 0.937-0.585 0.195-1.21 0.312-1.873 0.312zM35.941 9.093v5.112c0.741-0.78 1.717-1.171 2.849-1.171 1.015 0 1.795 0.273 2.341 0.859 0.546 0.546 0.819 1.327 0.819 2.341v6.556h-1.522v-6.361c0-0.624-0.117-1.132-0.39-1.444-0.273-0.351-0.702-0.507-1.366-0.507-0.585 0-1.093 0.156-1.483 0.429s-0.819 0.702-1.288 1.327v6.595h-1.522v-13.737h1.561z"></path>
<path d="M9.639 9.873v5.463h-4.839c0 0.195 0 0.39 0 0.585 0 0.312 0 0.585 0.039 0.859h4.839v5.971h1.522v-12.878h-1.561zM22.4 15.454c-0.39-0.78-0.937-1.366-1.678-1.795-0.702-0.429-1.483-0.624-2.381-0.624s-1.678 0.234-2.419 0.663c-0.702 0.429-1.249 1.015-1.678 1.795-0.39 0.741-0.585 1.6-0.585 2.537s0.195 1.795 0.585 2.537c0.39 0.741 0.937 1.327 1.639 1.756s1.522 0.624 2.42 0.624c0.898 0 1.678-0.195 2.381-0.624s1.288-1.015 1.678-1.756c0.39-0.741 0.585-1.6 0.585-2.537s-0.117-1.834-0.546-2.576zM20.605 20.566c-0.546 0.663-1.327 0.976-2.263 0.976s-1.678-0.312-2.263-0.976c-0.546-0.663-0.859-1.522-0.859-2.576 0-0.702 0.117-1.327 0.39-1.873s0.624-0.976 1.093-1.249c0.468-0.312 1.015-0.468 1.639-0.468 0.937 0 1.678 0.312 2.263 0.976s0.859 1.522 0.859 2.576c0 1.093-0.273 1.951-0.859 2.615zM31.961 20.449c-0.585 0.39-1.132 0.663-1.561 0.82s-0.898 0.234-1.366 0.234c-0.937 0-1.717-0.312-2.263-0.898s-0.82-1.405-0.82-2.459c0-1.132 0.273-2.029 0.82-2.654 0.546-0.663 1.327-0.976 2.263-0.976 0.429 0 0.78 0.078 1.054 0.195 0.312 0.117 0.585 0.351 0.898 0.663l0.937-1.015c-0.195-0.351-0.585-0.624-1.132-0.859s-1.132-0.351-1.717-0.351c-0.898 0-1.678 0.195-2.381 0.624s-1.249 1.015-1.639 1.756c-0.39 0.741-0.585 1.6-0.585 2.576 0 0.937 0.195 1.795 0.546 2.498 0.39 0.702 0.898 1.288 1.561 1.678s1.444 0.585 2.341 0.585c0.663 0 1.288-0.117 1.912-0.312s1.21-0.507 1.756-0.937l-0.624-1.171zM36.449 13.737c-0.195 0.117-0.39 0.312-0.546 0.468v-5.112h-1.522v13.619h1.522v-6.556c0.234-0.312 0.468-0.585 0.702-0.78 0-0.546-0.078-1.093-0.156-1.639z"></path>
</symbol>
<symbol id="icon-check" viewBox="0 0 33 32">
<path d="M31.524 8.535c-5.085 4.871-8.975 10.782-12.558 16.801-0.602 1.011-3.265 1.366-3.894 0.236-1.425-2.559-2.849-5.119-4.273-7.679-0.915-1.645 3.196-2.616 3.975-1.216 0.83 1.491 1.66 2.982 2.489 4.473 3.184-5.031 6.707-9.8 11.039-13.949 1.161-1.112 5.036-0.404 3.221 1.334z"></path>
</symbol>
<symbol id="icon-close_btn" viewBox="0 0 32 32">
<path d="M18.932 16.026l12.46-12.461c0.811-0.811 0.811-2.121 0-2.932s-2.121-0.81-2.932 0l-12.46 12.461-12.46-12.461c-0.811-0.81-2.121-0.81-2.931 0s-0.811 2.121 0 2.932l12.46 12.461-12.46 12.46c-0.811 0.811-0.811 2.121 0 2.932 0.404 0.404 0.935 0.608 1.466 0.608s1.061-0.203 1.466-0.608l12.46-12.46 12.46 12.46c0.404 0.404 0.935 0.608 1.466 0.608s1.061-0.203 1.466-0.608c0.811-0.81 0.811-2.121 0-2.932l-12.46-12.46z"></path>
</symbol>
<symbol id="icon-radio-button" viewBox="0 0 34 32">
<path fill="#fff" style="fill: var(--color1, #fff)" d="M31.266 15.32c-0.011 8.416-6.842 15.229-15.258 15.218s-15.229-6.842-15.218-15.258c0.011-8.416 6.842-15.229 15.258-15.218s15.229 6.842 15.218 15.258z"></path>
<path fill="none" stroke="#262c20" style="stroke: var(--color2, #262c20)" stroke-linejoin="miter" stroke-linecap="butt" stroke-miterlimit="4" stroke-width="3.0476" d="M29.742 15.318c-0.010 7.574-6.158 13.706-13.732 13.696s-13.706-6.158-13.696-13.732c0.010-7.574 6.158-13.706 13.732-13.696s13.706 6.158 13.696 13.732z"></path>
<path d="M24.777 15.238c0 5.049-4.093 9.143-9.143 9.143s-9.143-4.093-9.143-9.143c0-5.049 4.093-9.143 9.143-9.143s9.143 4.093 9.143 9.143z"></path>
</symbol>
<symbol id="icon-Mail" viewBox="0 0 32 32">
<path d="M29.333 11.477v10.856c0 2.311-1.809 4.199-4.087 4.327l-0.246 0.007h-18c-2.311 0-4.199-1.809-4.326-4.087l-0.007-0.246v-10.856l12.869 6.742c0.291 0.152 0.637 0.152 0.928 0l12.869-6.742zM7 5.333h18c2.246 0 4.093 1.709 4.312 3.898l-13.312 6.973-13.312-6.973c0.21-2.108 1.931-3.771 4.064-3.891l0.248-0.007z"></path>
</symbol>
<symbol id="icon-twitter" viewBox="0 0 34 32">
<path d="M24.715 28.325h2.862l-18.474-25.292h-3.071l18.684 25.292zM26.528 0h5.165l-11.284 13.354 13.275 18.172h-10.394l-8.141-11.021-9.315 11.021h-5.168l12.070-14.284-12.735-17.242h10.658l7.359 10.074 8.511-10.074z"></path>
</symbol>
<symbol id="icon-facebook" viewBox="0 0 30 32">
<path d="M7.873 16.026h3.274v13.478c0 0.266 0.216 0.482 0.482 0.482h5.551c0.266 0 0.482-0.216 0.482-0.482v-13.415h3.764c0.245 0 0.451-0.184 0.479-0.427l0.572-4.962c0.016-0.136-0.028-0.273-0.119-0.376s-0.222-0.161-0.359-0.161h-4.335v-3.11c0-0.938 0.505-1.413 1.501-1.413 0.142 0 2.835 0 2.835 0 0.266 0 0.482-0.216 0.482-0.482v-4.555c0-0.266-0.216-0.482-0.482-0.482h-3.906c-0.028-0.001-0.089-0.004-0.179-0.004-0.678 0-3.034 0.133-4.895 1.845-2.062 1.897-1.775 4.169-1.707 4.563v3.637h-3.437c-0.266 0-0.482 0.216-0.482 0.482v4.899c0 0.266 0.216 0.482 0.482 0.482z"></path>
</symbol>
<symbol id="icon-xing" viewBox="0 0 32 32">
<path d="M6.080 7.504c-0.247 0-0.455 0.087-0.56 0.256-0.108 0.175-0.091 0.401 0.023 0.629l2.774 4.803c0.005 0.009 0.005 0.015 0 0.023l-4.36 7.694c-0.114 0.227-0.108 0.454 0 0.629 0.104 0.169 0.289 0.28 0.536 0.28h4.103c0.614 0 0.909-0.414 1.119-0.793 0 0 4.264-7.541 4.43-7.834-0.017-0.027-2.821-4.919-2.821-4.919-0.204-0.364-0.513-0.769-1.143-0.769h-4.103z"></path>
<path d="M23.319 1.886c-0.613 0-0.879 0.386-1.099 0.781 0 0-8.84 15.677-9.131 16.192 0.015 0.028 5.831 10.697 5.831 10.697 0.203 0.364 0.517 0.782 1.146 0.782h4.099c0.247 0 0.44-0.093 0.545-0.262 0.109-0.176 0.106-0.407-0.008-0.634l-5.785-10.569c-0.006-0.009-0.006-0.019 0-0.027l9.085-16.064c0.114-0.227 0.117-0.458 0.009-0.633-0.104-0.169-0.299-0.262-0.546-0.262h-4.145z"></path>
</symbol>
<symbol id="icon-Phone" viewBox="0 0 32 32">
<path d="M10.362 3.252l1.435-0.459c1.345-0.43 2.782 0.265 3.358 1.623l1.146 2.703c0.5 1.178 0.222 2.563-0.685 3.425l-2.526 2.397c0.156 1.434 0.638 2.846 1.446 4.236s1.818 2.543 3.028 3.459l3.034-1.012c1.15-0.383 2.402 0.057 3.107 1.093l1.643 2.414c0.82 1.205 0.673 2.866-0.345 3.888l-1.090 1.095c-1.085 1.089-2.635 1.485-4.069 1.037-3.385-1.056-6.498-4.191-9.337-9.405-2.844-5.222-3.848-9.652-3.011-13.29 0.352-1.531 1.442-2.75 2.865-3.205z"></path>
</symbol>
<symbol id="icon-frame-mark" viewBox="0 0 30 32">
<path fill="#f2f6e6" style="fill: var(--color1, #f2f6e6)" d="M28.444 15.111c0 7.855-6.367 14.222-14.222 14.222s-14.222-6.367-14.222-14.222c0-7.855 6.367-14.222 14.222-14.222s14.222 6.367 14.222 14.222z"></path>
<path fill="none" stroke="#262c20" style="stroke: var(--color2, #262c20)" stroke-linejoin="miter" stroke-linecap="butt" stroke-miterlimit="4" stroke-width="1.7778" d="M27.556 15.111c0 7.364-5.97 13.333-13.333 13.333s-13.333-5.97-13.333-13.333c0-7.364 5.97-13.333 13.333-13.333s13.333 5.97 13.333 13.333z"></path>
<path fill="#262c20" style="fill: var(--color2, #262c20)" d="M21.219 8.028c0.208 0.098 0.090 0.408-0.022 0.52-0.496 0.488-0.997 0.972-1.489 1.465-0.352 0.354-0.698 0.716-1.036 1.082-0.317 0.344-0.629 0.693-0.925 1.053-0.349 0.424-0.685 0.86-1.020 1.295-0.547 0.714-1.053 1.457-1.519 2.225-0.368 0.607-0.73 1.216-1.076 1.836-0.246 0.44-0.471 0.895-0.693 1.349-0.234 0.476-0.461 0.953-0.679 1.434-0.181 0.399-0.346 0.805-0.515 1.209-0.069 0.163-0.136 0.328-0.211 0.509-0.043-0.067-0.080-0.122-0.112-0.178-0.298-0.507-0.589-1.018-0.892-1.521-0.395-0.66-0.808-1.309-1.271-1.924-0.301-0.399-0.599-0.802-0.924-1.18-0.355-0.415-0.738-0.808-1.116-1.204-0.144-0.152-0.307-0.285-0.461-0.429-0.013-0.013-0.032-0.034-0.043-0.045-0.157-0.168-0.12-0.327-0.010-0.442 0.016-0.016 0.050-0.040 0.070-0.051 0.147-0.074 0.266-0.085 0.469-0.080 0.213 0.022 0.397 0.051 0.587 0.104 0.394 0.112 0.78 0.243 1.151 0.419 0.37 0.174 0.746 0.331 1.112 0.511 0.347 0.168 0.685 0.352 1.028 0.531 0.101 0.053 0.101 0.053 0.178-0.037 0.543-0.627 1.077-1.261 1.631-1.879 0.603-0.674 1.215-1.341 1.841-1.994 0.608-0.635 1.229-1.263 1.865-1.871 0.509-0.487 1.045-0.946 1.577-1.409 0.381-0.331 0.791-0.627 1.22-0.893 0.242-0.15 0.498-0.272 0.768-0.363 0.165-0.058 0.351-0.102 0.515-0.043z"></path>
</symbol>
<symbol id="icon-location" viewBox="0 0 32 32">
<path d="M23.708 22.111l-1.486 1.469c-1.095 1.075-2.516 2.457-4.263 4.146-1.092 1.056-2.824 1.056-3.915-0l-4.37-4.251c-0.549-0.539-1.009-0.994-1.379-1.364-4.256-4.256-4.256-11.157 0-15.414s11.157-4.256 15.413 0c4.256 4.256 4.256 11.157 0 15.414zM19.131 14.748c0-1.728-1.401-3.13-3.13-3.13s-3.13 1.401-3.13 3.13c0 1.728 1.401 3.13 3.13 3.13s3.13-1.401 3.13-3.13z"></path>
</symbol>
<symbol id="icon-eart" viewBox="0 0 32 32">
<path d="M12.124 21.634h7.75c-0.776 4.095-2.33 6.882-3.875 6.882-1.498 0-3.005-2.621-3.802-6.514l-0.073-0.369zM4.816 21.634l5.389-0c0.457 2.606 1.23 4.824 2.243 6.375-3.208-0.947-5.879-3.144-7.449-6.026l-0.183-0.349zM21.792 21.634l5.389 0c-1.541 3.054-4.296 5.39-7.631 6.375 0.944-1.449 1.681-3.477 2.147-5.859l0.095-0.516zM22.172 13.498l6.096-0.001c0.164 0.809 0.25 1.646 0.25 2.504 0 1.308-0.201 2.57-0.573 3.756h-5.886c0.132-1.199 0.201-2.458 0.201-3.756 0-0.569-0.013-1.13-0.039-1.682l-0.049-0.821zM3.73 13.497l6.096 0.001c-0.058 0.814-0.088 1.65-0.088 2.503 0 1.038 0.044 2.052 0.129 3.029l0.072 0.726h-5.886c-0.372-1.186-0.573-2.447-0.573-3.756 0-0.857 0.086-1.695 0.25-2.504zM11.712 13.497h8.573c0.063 0.808 0.096 1.645 0.096 2.504 0 1.048-0.050 2.065-0.142 3.036l-0.077 0.719h-8.326c-0.142-1.184-0.22-2.445-0.22-3.756 0-0.644 0.019-1.276 0.055-1.892l0.042-0.612zM19.684 4.205l-0.135-0.213c3.778 1.115 6.812 3.965 8.181 7.627l-5.747 0c-0.395-3.025-1.197-5.623-2.299-7.414zM12.296 4.038l0.152-0.046c-1.102 1.689-1.922 4.167-2.357 7.077l-0.077 0.55-5.746-0c1.35-3.613 4.321-6.435 8.028-7.581zM15.999 3.485c1.651 0 3.312 3.182 4.023 7.74l0.059 0.394h-8.163c0.675-4.768 2.384-8.134 4.082-8.134z"></path>
</symbol>
<symbol id="icon-vector-list" viewBox="0 0 32 32">
<path d="M30.111 1.751c0.444 0.209 0.19 0.871-0.049 1.11-1.060 1.040-2.13 2.070-3.18 3.12-0.752 0.754-1.491 1.524-2.212 2.305-0.677 0.733-1.344 1.477-1.977 2.244-0.746 0.904-1.464 1.832-2.179 2.76-1.17 1.521-2.251 3.104-3.247 4.742-0.787 1.293-1.561 2.593-2.3 3.914-0.527 0.938-1.006 1.908-1.482 2.877-0.5 1.014-0.986 2.030-1.452 3.058-0.387 0.85-0.74 1.717-1.103 2.577-0.147 0.348-0.291 0.7-0.452 1.085-0.092-0.144-0.17-0.26-0.239-0.379-0.634-1.083-1.254-2.173-1.898-3.247-0.842-1.408-1.721-2.796-2.706-4.108-0.641-0.851-1.275-1.712-1.967-2.519-0.757-0.885-1.572-1.727-2.377-2.571-0.307-0.325-0.655-0.609-0.982-0.916-0.027-0.027-0.068-0.072-0.092-0.096-0.334-0.359-0.255-0.697-0.019-0.942 0.034-0.034 0.106-0.085 0.15-0.109 0.314-0.157 0.567-0.18 1.001-0.169 0.454 0.048 0.847 0.11 1.253 0.224 0.84 0.24 1.662 0.521 2.454 0.898 0.788 0.373 1.59 0.709 2.372 1.092 0.74 0.36 1.461 0.753 2.191 1.137 0.215 0.113 0.215 0.113 0.379-0.078 1.159-1.337 2.302-2.688 3.485-4.004 1.289-1.436 2.596-2.858 3.932-4.25 1.299-1.354 2.626-2.691 3.983-3.987 1.087-1.037 2.233-2.015 3.367-3.001 0.814-0.706 1.689-1.336 2.605-1.902 0.516-0.32 1.063-0.579 1.64-0.773 0.352-0.122 0.748-0.218 1.1-0.091z"></path>
</symbol>
</defs>
</svg>
