<svg aria-hidden="true" style="width:0;height:0;position:absolute;overflow:hidden" xmlns="http://www.w3.org/2000/svg"><defs><symbol id="icon-btnSlider_right" viewBox="0 0 32 32"><path d="M30.866 17.075c-.625 8.179-7.763 14.303-15.942 13.678S.621 22.99 1.246 14.811 9.009.508 17.188 1.133s14.303 7.763 13.678 15.942z"/><path fill="none" stroke="#262c20" style="stroke:var(--color2,#262c20)" stroke-width="1.98" d="M29.878 16.999c-.584 7.634-7.245 13.349-14.88 12.766S1.649 22.52 2.232 14.885c.584-7.634 7.245-13.349 14.88-12.766s13.349 7.245 12.766 14.88z"/><path fill="#262c20" style="fill:var(--color2,#262c20)" d="M17.986 11.743a.308.308 0 0 0-.171.276v2.422l-9.357 1.462a.309.309 0 0 0-.261.305v.002a.308.308 0 0 0 .266.303l9.353 1.315v2.568a.308.308 0 0 0 .493.246l5.557-4.189a.31.31 0 0 0 0-.494l-5.557-4.189a.309.309 0 0 0-.323-.029z"/></symbol><symbol id="icon-btnSlider_left" viewBox="0 0 32 32"><path d="M30.565 17.075c-.625 8.179-7.763 14.303-15.942 13.678S.32 22.99.945 14.811 8.708.508 16.887 1.133 31.19 8.896 30.565 17.075z"/><path fill="none" stroke="#262c20" style="stroke:var(--color2,#262c20)" stroke-width="1.98" d="M29.578 16.999c-.584 7.634-7.245 13.349-14.88 12.766S1.349 22.52 1.932 14.885c.584-7.634 7.245-13.349 14.88-12.766s13.349 7.245 12.766 14.88z"/><path fill="#262c20" style="fill:var(--color2,#262c20)" d="M13.899 11.743a.308.308 0 0 1 .171.276v2.422l9.357 1.462c.15.023.261.153.261.305v.002a.308.308 0 0 1-.266.303l-9.353 1.315v2.568a.308.308 0 0 1-.493.246l-5.557-4.189a.31.31 0 0 1 0-.494l5.557-4.189a.309.309 0 0 1 .323-.029z"/></symbol><symbol id="icon-down" viewBox="0 0 33 32"><path d="M16.263 21.333a1.341 1.341 0 0 1-.947-.387l-8-8a1.34 1.34 0 0 1 1.894-1.894l7.053 7.067 7.053-7.053a1.335 1.335 0 0 1 1.81.07 1.336 1.336 0 0 1 .07 1.81l-8 8a1.337 1.337 0 0 1-.933.387z"/></symbol><symbol id="icon-Btn_up" viewBox="0 0 43 32"><path fill="#9ed821" style="fill:var(--color1,#9ed821)" d="M20.683 31.844c8.793 0 15.922-7.128 15.922-15.922S29.477 0 20.683 0C11.89 0 4.761 7.128 4.761 15.922s7.129 15.922 15.922 15.922z"/><path fill="#9ed821" style="fill:var(--color1,#9ed821)" d="M1.834 9.873h1.522v5.463h6.283V9.873h1.522v12.878H9.639V16.78H3.356v5.971H1.834V9.873zm16.507 13.034c-.898 0-1.678-.195-2.38-.624s-1.249-1.015-1.639-1.756c-.39-.741-.585-1.6-.585-2.537s.195-1.795.585-2.537c.429-.78.976-1.366 1.678-1.795s1.522-.663 2.381-.663c.859 0 1.678.195 2.381.624s1.249 1.015 1.678 1.795c.39.741.585 1.6.585 2.537s-.195 1.795-.585 2.537a4.278 4.278 0 0 1-1.678 1.756c-.741.468-1.522.663-2.419.663zm.039-1.366c.937 0 1.678-.312 2.263-.976s.859-1.522.859-2.576c0-1.093-.273-1.951-.859-2.576-.546-.663-1.327-.976-2.263-.976-.624 0-1.171.156-1.639.468s-.859.702-1.093 1.249c-.273.546-.39 1.171-.39 1.873 0 1.054.273 1.912.859 2.576.546.585 1.327.937 2.263.937zm10.537 1.327c-.898 0-1.678-.195-2.341-.585s-1.21-.937-1.561-1.678a5.73 5.73 0 0 1-.546-2.498c0-.976.195-1.834.585-2.576.39-.78.937-1.366 1.639-1.756.702-.429 1.483-.624 2.381-.624.585 0 1.171.117 1.717.351s.937.507 1.132.859l-.937 1.015c-.273-.312-.585-.546-.898-.663a2.671 2.671 0 0 0-1.054-.195c-.976 0-1.717.312-2.302.976-.546.663-.82 1.522-.82 2.654 0 1.054.273 1.873.82 2.459s1.288.898 2.263.898c.468 0 .937-.078 1.366-.234.468-.156.976-.429 1.561-.82l.624 1.171a6.318 6.318 0 0 1-1.756.937 5.894 5.894 0 0 1-1.873.312zm7.024-13.775v5.112c.741-.78 1.717-1.171 2.849-1.171 1.015 0 1.795.273 2.341.859.546.546.819 1.327.819 2.341v6.556h-1.522v-6.361c0-.624-.117-1.132-.39-1.444-.273-.351-.702-.507-1.366-.507-.585 0-1.093.156-1.483.429s-.819.702-1.288 1.327v6.595h-1.522V9.092h1.561z"/><path d="M9.639 9.873v5.463H4.8v.585c0 .312 0 .585.039.859h4.839v5.971H11.2V9.873H9.639zM22.4 15.454a4.15 4.15 0 0 0-1.678-1.795c-.702-.429-1.483-.624-2.381-.624s-1.678.234-2.419.663c-.702.429-1.249 1.015-1.678 1.795-.39.741-.585 1.6-.585 2.537s.195 1.795.585 2.537c.39.741.937 1.327 1.639 1.756s1.522.624 2.42.624c.898 0 1.678-.195 2.381-.624s1.288-1.015 1.678-1.756c.39-.741.585-1.6.585-2.537s-.117-1.834-.546-2.576zm-1.795 5.112c-.546.663-1.327.976-2.263.976s-1.678-.312-2.263-.976c-.546-.663-.859-1.522-.859-2.576 0-.702.117-1.327.39-1.873s.624-.976 1.093-1.249c.468-.312 1.015-.468 1.639-.468.937 0 1.678.312 2.263.976s.859 1.522.859 2.576c0 1.093-.273 1.951-.859 2.615zm11.356-.117c-.585.39-1.132.663-1.561.82s-.898.234-1.366.234c-.937 0-1.717-.312-2.263-.898s-.82-1.405-.82-2.459c0-1.132.273-2.029.82-2.654.546-.663 1.327-.976 2.263-.976.429 0 .78.078 1.054.195.312.117.585.351.898.663l.937-1.015c-.195-.351-.585-.624-1.132-.859s-1.132-.351-1.717-.351c-.898 0-1.678.195-2.381.624s-1.249 1.015-1.639 1.756c-.39.741-.585 1.6-.585 2.576 0 .937.195 1.795.546 2.498.39.702.898 1.288 1.561 1.678s1.444.585 2.341.585c.663 0 1.288-.117 1.912-.312s1.21-.507 1.756-.937l-.624-1.171zm4.488-6.712c-.195.117-.39.312-.546.468V9.093h-1.522v13.619h1.522v-6.556c.234-.312.468-.585.702-.78 0-.546-.078-1.093-.156-1.639z"/></symbol><symbol id="icon-check" viewBox="0 0 33 32"><path d="M31.524 8.535c-5.085 4.871-8.975 10.782-12.558 16.801-.602 1.011-3.265 1.366-3.894.236l-4.273-7.679c-.915-1.645 3.196-2.616 3.975-1.216l2.489 4.473c3.184-5.031 6.707-9.8 11.039-13.949 1.161-1.112 5.036-.404 3.221 1.334z"/></symbol><symbol id="icon-close_btn" viewBox="0 0 32 32"><path d="m18.932 16.026 12.46-12.461c.811-.811.811-2.121 0-2.932s-2.121-.81-2.932 0L16 13.094 3.54.633c-.811-.81-2.121-.81-2.931 0s-.811 2.121 0 2.932l12.46 12.461-12.46 12.46a2.07 2.07 0 0 0 0 2.932 2.069 2.069 0 0 0 2.932 0l12.46-12.46 12.46 12.46a2.069 2.069 0 0 0 2.932 0 2.07 2.07 0 0 0 0-2.932l-12.46-12.46z"/></symbol><symbol id="icon-radio-button" viewBox="0 0 34 32"><path fill="#fff" style="fill:var(--color1,#fff)" d="M31.266 15.32c-.011 8.416-6.842 15.229-15.258 15.218S.779 23.696.79 15.28C.801 6.864 7.632.051 16.048.062S31.277 6.904 31.266 15.32z"/><path fill="none" stroke="#262c20" style="stroke:var(--color2,#262c20)" stroke-width="3.048" d="M29.742 15.318c-.01 7.574-6.158 13.706-13.732 13.696S2.304 22.856 2.314 15.282c.01-7.574 6.158-13.706 13.732-13.696s13.706 6.158 13.696 13.732z"/><path d="M24.777 15.238a9.143 9.143 0 1 1-18.286 0 9.143 9.143 0 0 1 18.286 0z"/></symbol><symbol id="icon-Mail" viewBox="0 0 32 32"><path d="M29.333 11.477v10.856a4.334 4.334 0 0 1-4.087 4.327l-.246.007H7a4.333 4.333 0 0 1-4.326-4.087l-.007-.246V11.478l12.869 6.742c.291.152.637.152.928 0l12.869-6.742zM7 5.333h18a4.335 4.335 0 0 1 4.312 3.898L16 16.204 2.688 9.231A4.334 4.334 0 0 1 6.752 5.34L7 5.333z"/></symbol><symbol id="icon-facebook" viewBox="0 0 30 32"><path d="M7.873 16.026h3.274v13.478c0 .266.216.482.482.482h5.551a.482.482 0 0 0 .482-.482V16.089h3.764a.482.482 0 0 0 .479-.427l.572-4.962a.484.484 0 0 0-.478-.537h-4.335v-3.11c0-.938.505-1.413 1.501-1.413H22a.482.482 0 0 0 .482-.482V.603A.482.482 0 0 0 22 .121h-3.906c-.028-.001-.089-.004-.179-.004-.678 0-3.034.133-4.895 1.845-2.062 1.897-1.775 4.169-1.707 4.563v3.637H7.876a.482.482 0 0 0-.482.482v4.899c0 .266.216.482.482.482z"/></symbol><symbol id="icon-xing" viewBox="0 0 32 32"><path d="M6.08 7.504c-.247 0-.455.087-.56.256-.108.175-.091.401.023.629l2.774 4.803c.005.009.005.015 0 .023l-4.36 7.694c-.114.227-.108.454 0 .629.104.169.289.28.536.28h4.103c.614 0 .909-.414 1.119-.793l4.43-7.834c-.017-.027-2.821-4.919-2.821-4.919-.204-.364-.513-.769-1.143-.769H6.078zM23.319 1.886c-.613 0-.879.386-1.099.781l-9.131 16.192 5.831 10.697c.203.364.517.782 1.146.782h4.099c.247 0 .44-.093.545-.262.109-.176.106-.407-.008-.634l-5.785-10.569c-.006-.009-.006-.019 0-.027l9.085-16.064c.114-.227.117-.458.009-.633-.104-.169-.299-.262-.546-.262H23.32z"/></symbol><symbol id="icon-Phone" viewBox="0 0 32 32"><path d="m10.362 3.252 1.435-.459c1.345-.43 2.782.265 3.358 1.623l1.146 2.703c.5 1.178.222 2.563-.685 3.425l-2.526 2.397c.156 1.434.638 2.846 1.446 4.236s1.818 2.543 3.028 3.459l3.034-1.012c1.15-.383 2.402.057 3.107 1.093l1.643 2.414c.82 1.205.673 2.866-.345 3.888l-1.09 1.095c-1.085 1.089-2.635 1.485-4.069 1.037-3.385-1.056-6.498-4.191-9.337-9.405-2.844-5.222-3.848-9.652-3.011-13.29.352-1.531 1.442-2.75 2.865-3.205z"/></symbol></defs></svg>