<svg width="249" height="249" fill="none" xmlns="http://www.w3.org/2000/svg"><path d="m114.1 29.5 30.3 40.2 41.3-28.8-2.7 50.3 50.2 4.5-34.4 36.8 35.5 35.7-50 6.1 4.3 50.2-42.2-27.5-29 41.2-14.7-48.2-48.6 13 19.7-46.3-45.6-21.4 44.9-22.8-21.2-45.8L101 78l13.1-48.5Z" fill="#262C20"></path><path d="m104.6 23.6 29.4 39 40.1-27.9-2.6 48.8 48.7 4.4-33.3 35.7 34.5 34.6-48.5 5.9 4.2 48.7-41-26.6-28.1 40-14.3-46.7L46.5 192l19.1-45-44.2-20.7 43.5-22.2-20.7-44.4 47.6 11 12.8-47.1Z" fill="#9ED821"></path><path d="M107.5 229.2 92.8 181l-48.7 13 19.7-46.3-45.6-21.4 44.9-22.8-21.2-45.8L91 69l13.1-48.6 30.3 40.2 41.3-28.8-2.7 50.4 50.2 4.5-34.4 36.8 35.5 35.7-50 6.1 4.3 50.2-42.2-27.5-28.9 41.2ZM96.1 175l13.1 43 25.9-36.8 37.7 24.5-3.8-44.8 44.6-5.5-31.7-31.8 30.7-32.9-44.8-4 2.4-44.9-36.9 25.7-27-35.9L94.5 75 50.7 64.9l18.9 40.8-40.1 20.4 40.7 19.1-17.6 41.4L96.1 175Z" fill="#262C20"></path><path d="m99.9 96-1.4.3-3.6 17.5 2.9-.6 1.1-5.2 5-1 2.9 4.4 2.9-.6L99.9 96Zm-.4 9.3.7-3.9 2.1 3.3-2.8.6Zm9.2 13.7-1.5.3-4.4 8.4-7.2-6.1-1.5.3 3.1 16 2.8-.5-1.9-9.8s.1 0 .1.1c.5.4 1.8 1.4 3.9 3l1.5 1.1.3-.5c.6-1 1.3-2.1 2-3.4.4-.8.9-1.5 1.2-2.2l1.9 9.9 2.8-.5-3.1-16.1Zm12.1-12.9-7.3 1.4-2.5-13.2-2.8.5 3.1 15.8 10-1.9-.5-2.6Zm-30.5-7.8-2.8.5 1.2 6.3-6.3 1.2-1.2-6.3-2.8.5 3.1 15.8 2.8-.5L83 109l6.3-1.2 1.3 6.9 2.8-.5-3.1-15.9Zm1.9 48.5-2.7.5 2.1 10.8-10.9-9.3-1.5.3 3.1 16 2.8-.5-2-10.1 9 7.3 1.7 1.1 1.6-.3-3.2-15.8Zm35.6-31.3-2.8.5 3.1 15.8 2.8-.5-3.1-15.8Zm22.9-29.3-3 .6 2.8 13.3 2.5-.5-2.3-13.4Zm-18 17.6-7.3 1.4-2.6-13.2-2.8.5 3.1 15.8 10-1.9-.4-2.6Zm-7.1 25.8-8.4 1.6-.8-4.4 5.8-1.1-.5-2.6-5.9 1.1-.7-3.5 8-1.5-.5-2.6-10.7 2.1 3.1 15.8 11.1-2.1-.5-2.8Zm-23.9 14.9-1.4.3-3.6 17.5 2.9-.6 1.1-5.2 5-1 3 4.4 2.9-.6-9.9-14.8Zm-.4 9.3.7-3.9 2.1 3.3-2.8.6Zm48.7-18.2-2.8.5 3.1 15.8 2.8-.5-3.1-15.8Zm3.8-34.5c-.1-.4-.3-.8-.7-1-.4-.3-.8-.3-1.2-.3-.4.1-.8.3-1 .7-.2.4-.3.8-.3 1.2.1.4.3.8.7 1 .3.2.6.3.9.3h.3c.4-.1.8-.3 1-.7.2-.3.3-.7.3-1.2Zm11.6 43.1c-.2-1-.7-1.8-1.4-2.4-.7-.6-1.6-1-3-1.5l-.8-.2c-.7-.2-1.3-.4-1.8-.5l-1.2-.6c-.3-.2-.4-.5-.5-.8-.1-.4 0-.7.3-1.1.3-.4.7-.6 1.3-.7h.8c.3 0 .4.1.6.3.1.1.1.1.1.2v.6l2.8-.3v-1c-.1-.6-.4-1.1-.9-1.5a4.6 4.6 0 0 0-3.7-1c-.8.2-1.5.5-2.2 1-.6.5-1.1 1.1-1.5 1.8-.3.7-.4 1.5-.2 2.3.2.8.5 1.5 1.1 2.1.5.5 1.2.8 1.9 1.1.7.2 1.7.5 2.9.9.9.2 1.6.5 2 .8.3.3.6.6.7 1.1.2.8 0 1.4-.4 2-.4.6-1 .9-1.8 1.1-.7.1-1.5 0-2.2-.3-.7-.3-1.3-.9-1.6-1.6l-.2-.5-2.3 1.5.2.4c.3.8.9 1.5 1.6 2 .7.5 1.5.9 2.4 1.1.5.1.9.2 1.4.2.4 0 .9 0 1.3-.1 1-.2 1.8-.6 2.6-1.2s1.3-1.3 1.7-2.2c.1-1.1.2-2 0-3Zm10.9-10.9-.5-2.6-12.6 2.4.5 2.6 4.9-.9 2.5 13.2 2.8-.5-2.5-13.2 4.9-1ZM141.5 151l-8.4 1.6-.8-4.4 5.8-1.1-.5-2.6-5.9 1.1-.7-3.5 8-1.5-.5-2.6-10.7 2.1 3.1 15.8 11.1-2.1-.5-2.8Zm-16.9-10.7-1.5.3-4.4 8.4-7.2-6.1-1.5.3 3.1 16 2.8-.5-1.9-9.9s.1 0 .1.1c.5.4 1.8 1.4 3.9 3l1.5 1.1.3-.5c.6-1 1.3-2.1 2-3.4.4-.8.9-1.5 1.2-2.2l1.9 9.9 2.8-.5-3.1-16Zm19.5-28-2.7.5 2.1 10.8-11-9.3-1.5.3 3.1 16 2.8-.5-2-10.1 9 7.3 1.7 1.1 1.6-.3-3.1-15.8Zm3.4-16.5-.1-.6a8.14 8.14 0 0 0-5.2-6.2 8.06 8.06 0 0 0-8 1.6c-1.1.9-1.8 2.1-2.3 3.5-.5 1.3-.5 2.8-.3 4.2l.1.6c.3 1.5.9 2.8 1.8 3.9s2 1.8 3.4 2.3c.8.3 1.7.4 2.6.4.5 0 1.1 0 1.7-.1 1.5-.3 2.7-.9 3.8-1.8 1-.9 1.8-2.1 2.2-3.4.6-1.4.6-2.9.3-4.4Zm-2.9 3.4a5.13 5.13 0 0 1-4 3.5c-1 .2-1.9.1-2.8-.2-.9-.3-1.6-.8-2.2-1.6-.6-.7-1-1.6-1.2-2.6l-.1-.6c-.2-1-.1-1.9.2-2.8a5.13 5.13 0 0 1 3.9-3.5c.3-.1.7-.1 1-.1.6 0 1.2.1 1.7.3a6 6 0 0 1 2.3 1.6c.6.7 1 1.6 1.2 2.5l.1.6c.3 1 .2 2-.1 2.9Z" fill="#262C20"></path></svg>