<svg width="29" height="30" fill="none" xmlns="http://www.w3.org/2000/svg"><g filter="url('#filter0_d_233_5991')"><circle cx="14" cy="14.056" r="14" fill="#9ED821"/><circle cx="14" cy="14.056" r="13.5" stroke="#fff"/></g><path d="M19.567 11.244c.008.121.008.243.008.365 0 3.737-2.889 8.047-8.172 8.047v-.003A8.225 8.225 0 0 1 7 18.386a5.825 5.825 0 0 0 4.25-1.172 2.87 2.87 0 0 1-2.682-1.964c.43.082.874.065 1.296-.049-1.34-.267-2.304-1.426-2.304-2.772v-.036c.4.22.847.34 1.304.354a2.805 2.805 0 0 1-.89-3.776 8.196 8.196 0 0 0 5.92 2.955 2.802 2.802 0 0 1 .832-2.702 2.907 2.907 0 0 1 4.063.123 5.818 5.818 0 0 0 1.824-.687 2.846 2.846 0 0 1-1.262 1.564A5.784 5.784 0 0 0 21 9.78a5.786 5.786 0 0 1-1.433 1.465Z" fill="#262C20"/><defs><filter id="filter0_d_233_5991" x="0" y=".056" width="29" height="29" filterUnits="userSpaceOnUse" color-interpolation-filters="sRGB"><feFlood flood-opacity="0" result="BackgroundImageFix"/><feColorMatrix in="SourceAlpha" values="0 0 0 0 0 0 0 0 0 0 0 0 0 0 0 0 0 0 127 0" result="hardAlpha"/><feOffset dx="1" dy="1"/><feComposite in2="hardAlpha" operator="out"/><feColorMatrix values="0 0 0 0 1 0 0 0 0 1 0 0 0 0 1 0 0 0 1 0"/><feBlend in2="BackgroundImageFix" result="effect1_dropShadow_233_5991"/><feBlend in="SourceGraphic" in2="effect1_dropShadow_233_5991" result="shape"/></filter></defs></svg>