<svg width="29" height="30" viewBox="0 0 29 30" fill="none" xmlns="http://www.w3.org/2000/svg">
<g filter="url('#filter0_d_233_5991')">
<circle cx="14" cy="14.0557" r="14" fill="#9ED821"></circle>
<circle cx="14" cy="14.0557" r="13.5" stroke="white"></circle>
</g>
<path d="M19.5667 11.2438C19.5753 11.3653 19.5753 11.4868 19.5753 11.6094C19.5753 15.3461 16.686 19.6556 11.4028 19.6556V19.6533C9.84209 19.6556 8.31383 19.2154 7 18.3856C7.22693 18.4124 7.45501 18.4259 7.68365 18.4264C8.97701 18.4276 10.2334 18.0003 11.2509 17.2136C10.0218 17.1906 8.94402 16.4016 8.5675 15.2498C8.99805 15.3315 9.44168 15.3147 9.86427 15.201C8.52427 14.9345 7.56023 13.7754 7.56023 12.4292V12.3934C7.9595 12.6123 8.40654 12.7338 8.86382 12.7473C7.60175 11.9169 7.21272 10.2638 7.97485 8.97144C9.43315 10.7381 11.5848 11.8121 13.8945 11.9258C13.663 10.9436 13.9792 9.91442 14.7255 9.22398C15.8823 8.15333 17.7018 8.20821 18.7892 9.34662C19.4325 9.22175 20.049 8.98936 20.6132 8.6601C20.3988 9.3147 19.9501 9.87074 19.3506 10.2241C19.9199 10.158 20.4762 10.0079 21 9.77891C20.6144 10.3478 20.1287 10.8434 19.5667 11.2438Z" fill="#262C20"></path>
<defs>
<filter id="filter0_d_233_5991" x="0" y="0.0556641" width="29" height="29" filterUnits="userSpaceOnUse" color-interpolation-filters="sRGB">
<feFlood flood-opacity="0" result="BackgroundImageFix"></feFlood>
<feColorMatrix in="SourceAlpha" type="matrix" values="0 0 0 0 0 0 0 0 0 0 0 0 0 0 0 0 0 0 127 0" result="hardAlpha"></feColorMatrix>
<feOffset dx="1" dy="1"></feOffset>
<feComposite in2="hardAlpha" operator="out"></feComposite>
<feColorMatrix type="matrix" values="0 0 0 0 1 0 0 0 0 1 0 0 0 0 1 0 0 0 1 0"></feColorMatrix>
<feBlend mode="normal" in2="BackgroundImageFix" result="effect1_dropShadow_233_5991"></feBlend>
<feBlend mode="normal" in="SourceGraphic" in2="effect1_dropShadow_233_5991" result="shape"></feBlend>
</filter>
</defs>
</svg>
