<svg width="192" height="37" fill="none" xmlns="http://www.w3.org/2000/svg"><g clip-path="url('#a')"><path d="M46.79 32.8V31c0-.7 0-.7.74-.68h.08c.4-.06.52.13.51.51-.02 1.04 0 2.07 0 3.1v.5c-.04.33.07.49.44.48.96-.02 1.92-.02 2.88 0 .36 0 .46-.14.46-.48-.02-1.12-.01-2.24 0-3.35 0-.24-.13-.56.1-.69.32-.17.7-.09 1.05-.04.16.02.16.2.16.33 0 1.41.03 2.83-.03 4.25-.02.72-.29.99-1.02 1.03-1.44.09-2.9.1-4.34 0-.76-.04-1-.34-1.02-1.12-.02-.68 0-1.36 0-2.04h-.01Zm95.39 1.99c-.03.8-.18 1.01-.96 1.16-.19.03-.38.05-.57.05h-3.28c-.28 0-.48-.03-.48-.38V31.7c0-.34.18-.4.47-.4h3.6c.48.01.96.04 1.16.58.2.56.02 1.2-.52 1.68.5.31.6.73.58 1.23Zm-4.14-2.2c0 .4.11.54.51.52.66-.02 1.31-.01 1.97 0 .33 0 .5-.1.5-.47 0-.4-.16-.53-.54-.52h-1.88c-.35-.02-.56.04-.56.47Zm3.09 1.99c0-.44-.12-.62-.54-.65-.35-.03-.7 0-1.06 0l-1.06-.01c-.33-.01-.44.14-.42.44v.49c0 .24.13.33.36.33h2.21c.38-.01.5-.25.5-.6ZM189 35.99c.66 0 1.32.04 1.97 0 .75-.06.97-.3 1.01-1.03.02-.44 0-.87 0-1.31.01-.28-.11-.39-.39-.39-.7.01-1.42.02-2.13 0-.32 0-.44.1-.45.42 0 .32.12.43.43.41.33-.01.66.02.99 0 .43-.02.4.26.4.54s.03.55-.4.55c-.9-.02-1.8-.01-2.71 0-.3 0-.46-.09-.45-.42v-2.2c-.01-.32.12-.44.43-.44h2.72c.13 0 .34-.02.35.12.07.7.53.32.84.32.32 0 .41-.2.35-.5-.11-.5-.36-.72-1.03-.74a72.4 72.4 0 0 0-3.7 0c-.85.01-1.1.3-1.12 1.17v2.38c.02.82.26 1.07 1.08 1.12.6.03 1.2 0 1.81 0Zm-32.51-.13-.06.14c-.3 0-.63-.02-.94 0-.33.03-.56-.1-.8-.32-.4-.41-.82-.8-1.24-1.18-.16-.15-.32-.28-.56-.3-.76-.08-.84-.02-.85.74v.49c-.02.58-.02.58-.6.57-.54 0-.55 0-.56-.54v-3.68c-.01-.33.08-.5.45-.49 1.26.02 2.52-.01 3.78.02.79.02 1.02.3 1.04 1.05v.82c-.02.7-.2.9-.9 1-.19.04-.37.04-.72.07l1.96 1.6Zm-1.92-2.49c.45-.02.54-.15.54-.63 0-.47-.1-.6-.56-.61-.63-.03-1.26-.02-1.89 0-.63 0-.63 0-.63.63 0 .6 0 .6.65.62h.82c.36 0 .72.02 1.07 0Zm-72.06 2.57c-.9.1-1.6.2-2.14-.49-.29-.36-.67-.64-1.01-.96-.16-.15-.32-.27-.56-.3-.76-.06-.84-.01-.84.76v.49c-.02.57-.02.57-.62.56-.52 0-.54 0-.54-.56 0-1.2.01-2.4-.01-3.6-.01-.43.14-.56.57-.55 1.17.02 2.35 0 3.53.02.93 0 1.17.26 1.18 1.16v.57c-.01.86-.18 1.06-1.02 1.16l-.6.03 1.05.89 1 .82Zm-2.03-2.57c.45-.02.55-.14.55-.62 0-.47-.1-.61-.54-.62-.72-.03-1.43 0-2.14-.01-.28 0-.41.1-.4.38v.4c-.03.36.11.5.47.48.33-.02.66 0 .99 0h1.07Zm27.11-.33 1.4 1.7c.68.82.68.82 1.37-.04l1.36-1.72c.21.21.13.4.14.58v1.97c0 .15-.03.33.14.44.4.24.96-.05.96-.5v-3.6c0-.18.09-.44-.13-.52-.27-.09-.6-.15-.85.06-.17.14-.3.32-.44.49l-1.76 2.12c-.34-.21-.5-.5-.72-.75-.5-.58-.98-1.16-1.47-1.76-.25-.31-.6-.26-.9-.17-.25.07-.14.37-.15.58v3.6c0 .31.05.5.44.5.38 0 .45-.18.45-.5v-2.43l.16-.05Zm75.35 2.55c.17.14.34.3.54.38.5.2.77 0 .77-.53v-3.6c0-.54-.02-.54-.55-.54s-.55 0-.55.55v2.55l-3.5-2.71c-.19-.15-.36-.33-.62-.39-.48-.09-.65.03-.66.52v3.67c-.01.4.11.54.51.52.55-.02.59-.01.6-.51v-2.65l3.46 2.74Zm-59.41-2.2c.96.77 1.93 1.52 2.89 2.3.27.21.53.36.9.31.2-.02.3-.1.3-.3v-4.08c0-.18-.08-.29-.29-.32-.65-.11-.81.01-.81.69v2.25c-.32.01-.42-.17-.57-.28l-3.04-2.36c-.25-.2-.49-.33-.82-.3-.23.01-.35.09-.35.33v4c0 .14.01.27.16.35.46.22.94-.05.94-.54v-2.57l.69.53Zm8.6 2.61h1.15c1.5 0 1.66-.17 1.64-1.63-.02-.96-.18-1.14-1.16-1.16h-2.71c-.41.01-.42-.23-.41-.53 0-.26-.06-.56.38-.56h2.46c.21 0 .34.05.4.3.1.45.43.13.65.12.26 0 .36-.19.3-.46-.1-.51-.38-.75-1.09-.77-.84-.03-1.7-.01-2.54 0-1.38 0-1.63.27-1.56 1.64v.17c.08.6.27.8.88.89l.66.03c.74 0 1.48.02 2.22-.01.44-.02.5.2.47.55-.02.3.06.61-.43.6-.87-.02-1.75 0-2.63 0-.2 0-.4-.01-.39-.29.01-.4-.23-.35-.5-.28-.25.08-.53.09-.5.5.05.5.25.79.82.84.62.06 1.26.01 1.89.01V36Zm-27.66-4.3c0-.43-.26-.41-.54-.4-.28.02-.65-.1-.63.4v.98c.02.3-.09.43-.41.43-.9-.02-1.81-.02-2.71 0-.28 0-.4-.1-.39-.38.02-.36 0-.71 0-1.07.01-.43-.3-.36-.57-.36-.25 0-.58-.1-.58.35v4c0 .45.32.35.58.35.25 0 .58.09.58-.36v-1.22c-.02-.28.08-.39.37-.39.93.02 1.86.01 2.8 0 .23 0 .34.1.33.34 0 .41.02.82 0 1.23-.02.5.33.4.62.4.27.01.56.04.54-.38V31.7Zm-44.24 3.9c.19.15.35.34.6.4.49.1.66-.02.66-.51l.01-3.68c0-.38-.1-.54-.51-.52-.51.03-.54.01-.54.56v2.43c-.4-.08-.57-.3-.79-.47l-2.85-2.2c-.21-.18-.42-.33-.73-.32-.26.01-.41.06-.41.36v4c0 .14.02.27.17.34.46.19.87-.06.88-.54v-2.62l3.5 2.77Zm25.59-2.15 2.82 2.24c.24.18.47.35.81.32.23-.02.36-.08.36-.33V31.6a.29.29 0 0 0-.15-.27c-.4-.21-.9.06-.9.5v2.4c-.24.07-.33-.06-.43-.14l-3.05-2.36c-.15-.11-.29-.25-.46-.34-.5-.26-.83-.07-.83.48v3.6c0 .53.03.52.55.55.42.02.51-.15.5-.53-.02-.8 0-1.62 0-2.61.35.26.57.41.78.58ZM119.45 36c.31 0 .68.12.67-.44-.01-.58-.43-.37-.7-.38-.82-.02-1.65 0-2.47 0-.81 0-.87-.1-.8-.9.03-.3.18-.36.43-.35h1.4c.3 0 .44-.09.44-.42 0-.33-.15-.42-.45-.41h-1.4c-.33.01-.42-.13-.41-.44 0-.49.02-.53.57-.53h2.88c.28 0 .46-.05.45-.4 0-.32-.12-.44-.43-.43h-4.2c-.3 0-.44.1-.43.42v3.85c-.01.39.19.44.5.44.69-.02 1.38 0 2.06 0h1.9Zm-44.98 0c.29-.01.69.17.7-.4.03-.57-.36-.42-.66-.42h-2.55c-.78-.01-.76-.02-.75-.77 0-.35.1-.5.47-.49.47.02.93 0 1.4 0 .27.01.4-.08.4-.37-.01-.3-.08-.46-.42-.45h-1.4c-.16 0-.34.03-.42-.16-.2-.4.05-.8.51-.81h2.88c.26 0 .49.01.5-.37 0-.36-.14-.47-.5-.47-1.36.02-2.73.02-4.1 0-.36 0-.48.13-.48.48v3.76c0 .35.12.49.47.48.69-.02 1.38 0 2.06 0l1.9-.01Zm74.18 0c.28-.02.7.18.72-.4.02-.56-.37-.4-.67-.42h-2.71c-.58-.01-.58-.02-.58-.6 0-.64 0-.64.62-.65h1.23c.31.01.35-.17.35-.41 0-.25-.05-.43-.36-.42h-1.48c-.13 0-.27 0-.34-.15-.2-.41.04-.82.5-.82h2.8c.27 0 .53.04.53-.4 0-.38-.19-.44-.5-.43h-4.04c-.35-.01-.48.1-.48.46.02 1.25.02 2.51 0 3.76 0 .43.19.5.55.49.66-.02 1.31 0 1.97 0 .63 0 1.26 0 1.9-.02Zm-52.01 0c.29 0 .37-.14.37-.4 0-.25-.04-.43-.34-.42h-2.88c-.77 0-.76-.02-.74-.78 0-.34.1-.5.47-.48.43.02.88-.01 1.31.01.33.02.43-.1.43-.42 0-.33-.15-.42-.45-.41h-1.4c-.13 0-.27 0-.34-.16-.18-.42.05-.8.51-.81h2.88c.3 0 .46-.06.45-.4-.02-.3-.1-.44-.43-.44-1.37.02-2.74.02-4.11 0-.36 0-.48.13-.48.48.02 1.25.02 2.5 0 3.76 0 .35.1.49.47.48.69-.02 1.37 0 2.06 0h2.22Zm76.9 0h1.73c.82-.08 1.07-.31 1.08-1.13.02-1.01.02-2.02 0-3.03 0-.53-.01-.53-.56-.54-.57 0-.58 0-.59.58 0 .93-.02 1.86 0 2.78.01.4-.12.53-.51.52-.74-.02-1.48-.02-2.22 0-.42.02-.51-.16-.5-.53.01-.96-.02-1.91 0-2.86.02-.42-.15-.53-.53-.5-.33.03-.66-.06-.64.48.03 1.04 0 2.07.01 3.1.02.83.26 1.07 1.1 1.12.54.03 1.09 0 1.64 0V36Zm-10.05-.04c-.16.08-.38.01-.58.04-.39.07-.64-.1-.76-.45-.19-.57-.6-.68-1.15-.65-.6.04-1.2.04-1.8 0-.36-.01-.59.1-.7.43-.24.66-.7.82-1.34.61-.08-.19.05-.32.13-.45.74-1.24 1.47-2.49 2.22-3.73.4-.67 1.19-.68 1.6-.01l2.32 3.85c.05.1.13.18.06.36Zm-2.17-1.91c-.4-.64-.62-1.27-1.12-1.8l-.77 1.42-.18.38h2.07ZM65.8 31.3h-2.46c-.3 0-.37.15-.37.4s.04.43.35.43c.46-.01.93.01 1.4-.01.38-.02.52.12.51.51-.02.9 0 1.8 0 2.7 0 .65.25.83.9.67.16-.04.24-.12.25-.27V32.55c0-.32.12-.44.44-.43.43.02.87 0 1.3 0 .29.02.47-.02.47-.38 0-.37-.16-.45-.5-.45-.76.02-1.52 0-2.29 0v.01Zm98.57 0c-.28.01-.68-.17-.7.4-.03.57.37.41.66.42.33.02.65.02.98 0 .43-.04.58.12.57.55-.03.95-.01 1.9-.01 2.85 0 .16-.04.38.13.44.29.1.6.1.89 0 .2-.06.14-.32.14-.5V32.6c0-.35.1-.5.47-.48.43.02.87 0 1.3 0 .27 0 .49 0 .49-.37s-.15-.46-.49-.46c-.76.02-1.53.01-2.3.01h-2.13ZM187.48.31a4.35 4.35 0 1 0 .03 8.7 4.36 4.36 0 1 0-.03-8.7Zm.02 7.83a3.48 3.48 0 0 1-3.47-3.5 3.52 3.52 0 0 1 3.46-3.45 3.43 3.43 0 0 1 3.46 3.51 3.41 3.41 0 0 1-3.45 3.44Zm.81-3.15c.3-.16.6-.3.79-.6.53-.85.06-1.87-1-2-.73-.1-1.47-.03-2.21-.05-.35 0-.4.2-.4.48v2.37c.01.6-.06 1.19.05 1.77.98.1.98.1.98-.83v-.49c.02-.52.26-.65.73-.35.4.26.63.68.8 1.1.2.53.52.73 1.06.63.13-.02.27.04.4-.12-.35-.66-.75-1.3-1.2-1.9Zm-.41-.74c-.36.13-.75.1-1.12.1a.25.25 0 0 1-.27-.25 3.05 3.05 0 0 1 0-.72c.08-.4.44-.2.7-.27.24.03.46.08.69.13.23.07.32.27.33.5a.48.48 0 0 1-.33.5Z" fill="#fff"></path><path d="M52.37 2.4c1.52 0 3 .01 4.48 0 .4 0 .5.24.6.53l1.37 3.6 3.26 8.58c.06.17.1.36.28.5.22-.13.26-.37.35-.58l4.82-11.92c.33-.8.3-.7 1.07-.7h1.65c1.05 0 .85-.05 1.22.84.99 2.43 1.96 4.87 2.94 7.3l1.86 4.63c.06.15.14.3.23.48.3-.26.34-.6.45-.88 1.44-3.86 2.87-7.73 4.32-11.58.3-.78.08-.8 1.16-.8h2.64c.24 0 .49-.06.7.1.08.25-.06.44-.14.63l-7.29 18.08c-.18.44-.4.65-.9.61-.63-.04-1.26-.04-1.9 0-.6.06-.86-.2-1.07-.72-1.04-2.59-2.1-5.16-3.16-7.73-.6-1.5-1.22-2.98-1.84-4.47-.07-.17-.08-.39-.37-.49l-.57 1.31c-1.59 3.8-3.19 7.6-4.75 11.42-.21.5-.46.73-1.03.69-.66-.05-1.32-.05-1.97 0-.47.03-.68-.16-.85-.58-.67-1.7-1.38-3.38-2.07-5.08L52.59 3.3c-.1-.25-.26-.48-.22-.89ZM157.81 9.15V21.3c.02.34-.1.51-.46.5h-2.97c-.31 0-.44-.14-.43-.44V2.95c-.05-.45.18-.56.58-.55h2.8a.9.9 0 0 1 .77.35l5.34 6.45 3.45 4.17c.42.5.46.5.9-.04 2.36-2.84 4.7-5.7 7.05-8.54.56-.68 1.12-1.34 1.67-2.03a.9.9 0 0 1 .77-.36h2.88c.38 0 .57.12.54.51v18.01c0 .92.1.9-.9.9h-2.96c-.62-.01-.63-.02-.63-.65V8.77c-.34.08-.45.32-.59.5L168 18.91c-.18.23-.31.54-.66.56-.42.04-.76 0-1.08-.4-2.27-2.8-4.58-5.56-6.89-8.34l-1.4-1.65-.16.06ZM102.08 2.4l6.42.01c.65 0 1.31.05 1.96.17 1.66.35 2.47 1.17 2.68 2.87.15 1.19.13 2.4.13 3.6 0 .33-.12.48-.48.49-1.32 0-2.63.03-3.95.06-.36 0-.48-.15-.47-.49V6.65c0-.62-.02-.63-.65-.63L99.57 6h-3.29c-.6 0-.62.02-.62.57v10.9c0 .56.03.58.63.58h11.43c.63 0 .64-.02.65-.64v-2.87c.01-.6.02-.61.59-.62h3.7c.58 0 .6.03.6.61 0 1.26.05 2.51-.07 3.77a5.35 5.35 0 0 1-.38 1.58 2.69 2.69 0 0 1-1.7 1.55c-.66.23-1.34.34-2.02.35-4.72.04-9.44.05-14.16 0a6.84 6.84 0 0 1-2.02-.34c-.9-.3-1.48-.9-1.77-1.8a7.55 7.55 0 0 1-.34-2.34V6.83c0-.68.1-1.36.26-2.02a2.8 2.8 0 0 1 2.15-2.14 8.17 8.17 0 0 1 2.04-.26h6.83ZM0 2.44h4.14c.44 0 .52.33.65.62l1.85 4.2 5.54 12.5c.08.17.11.37.3.48.27-.15.3-.45.4-.68l6.3-14.14 1.12-2.54c.12-.28.28-.45.6-.45h3.43c.16.37-.05.6-.15.83l-8.23 18.38-3.72 8.3c-.43.97-.98 1.89-1.62 2.74a7.49 7.49 0 0 1-5.18 2.85c-1.25.18-2.51.15-3.77.16-.39 0-.56-.12-.55-.51.02-.8.02-1.59 0-2.38 0-.44.2-.55.6-.54.72.02 1.43 0 2.15-.01a6.38 6.38 0 0 0 1.93-.34 3.64 3.64 0 0 0 1.8-1.38c1.01-1.4 1.65-3 2.4-4.56.17-.36-.04-.63-.16-.92l-3.86-8.77L.22 3.25c-.1-.22-.25-.43-.22-.81ZM38.53 21.82H28.41c-.33.01-.43-.16-.42-.46V3.43c0-1.15-.07-1.03 1-1.03H48.4c.37-.03.55.11.54.51-.02.82-.02 1.64 0 2.46 0 .4-.18.53-.55.5H33.25c-.3-.02-.43.13-.43.44v3.27c0 .3.12.46.44.45h8.15c.8 0 .8.01.81.83V13c0 .3-.12.46-.44.45h-8.22c-.72 0-.73.01-.73.73v3.35c0 .62.02.62.66.63h14.89c.78 0 .78.02.79.76v2.21c0 .68-.01.68-.68.7H38.54Z" fill="#E87B14"></path><path d="M142.24 2.32h-18.13a3.56 3.56 0 0 0-3.56 3.54v12.35a3.54 3.54 0 0 0 3.56 3.54h18.13a3.57 3.57 0 0 0 3.29-2.19c.18-.43.27-.89.27-1.35V5.86a3.54 3.54 0 0 0-3.56-3.54ZM140.87 18h-15.39V6.07h15.39V18Z" fill="#fff"></path><path d="M145.8 7.98a12.25 12.25 0 0 0-4.77-5.66 14.46 14.46 0 0 0-7.85-2.26c-2.94 0-5.65.84-7.86 2.26a12.24 12.24 0 0 0-4.77 5.66 10.83 10.83 0 0 0 0 8.11c.92 2.3 2.6 4.26 4.77 5.66a14.46 14.46 0 0 0 7.86 2.27c2.93 0 5.64-.85 7.85-2.27a12.26 12.26 0 0 0 4.77-5.66 10.83 10.83 0 0 0 0-8.11ZM133.18 21c-5.73 0-10.38-4.02-10.38-8.96 0-4.95 4.65-8.97 10.38-8.97 5.72 0 10.38 4.02 10.38 8.97 0 4.94-4.66 8.96-10.38 8.96Z" fill="#E87B14"></path></g><defs><clipPath id="a"><path fill="#fff" transform="translate(0 .06)" d="M0 0h192v36H0z"></path></clipPath></defs></svg>