<svg width="29" height="30" viewBox="0 0 29 30" fill="none" xmlns="http://www.w3.org/2000/svg">
<g filter="url('#filter0_d_233_5999')">
<circle cx="14" cy="14.0557" r="14" fill="#9ED821"></circle>
<circle cx="14" cy="14.0557" r="13.5" stroke="white"></circle>
</g>
<g clip-path="url('#clip0_233_5999')">
<path d="M9.65989 10.2832C9.55174 10.2832 9.46073 10.3211 9.41509 10.3954C9.36779 10.4721 9.37512 10.5709 9.42533 10.6707L10.6391 12.772C10.6412 12.776 10.6412 12.7785 10.6391 12.7822L8.73173 16.1483C8.68194 16.2475 8.68443 16.347 8.73173 16.4237C8.77737 16.4975 8.85828 16.5461 8.96629 16.5461H10.7615C11.0299 16.5461 11.1593 16.3649 11.2511 16.1992C11.2511 16.1992 13.1165 12.9001 13.1891 12.772C13.1818 12.7601 11.9549 10.6198 11.9549 10.6198C11.8656 10.4606 11.7304 10.2832 11.4551 10.2832H9.65989Z" fill="#262C20"></path>
<path d="M17.202 7.8252C16.9339 7.8252 16.8176 7.99407 16.7214 8.16708C16.7214 8.16708 12.8539 15.0256 12.7266 15.2509C12.7331 15.2632 15.2775 19.9307 15.2775 19.9307C15.3664 20.0898 15.5039 20.2726 15.7789 20.2726H17.5722C17.6804 20.2726 17.7647 20.2318 17.8105 20.158C17.8582 20.0812 17.857 19.9801 17.8068 19.8805L15.2758 15.2566C15.2733 15.2528 15.2733 15.2484 15.2758 15.2448L19.2505 8.21687C19.3003 8.11771 19.3016 8.01647 19.2543 7.93985C19.2086 7.866 19.1237 7.8252 19.0156 7.8252H17.202Z" fill="#262C20"></path>
</g>
<defs>
<filter id="filter0_d_233_5999" x="0" y="0.0556641" width="29" height="29" filterUnits="userSpaceOnUse" color-interpolation-filters="sRGB">
<feFlood flood-opacity="0" result="BackgroundImageFix"></feFlood>
<feColorMatrix in="SourceAlpha" type="matrix" values="0 0 0 0 0 0 0 0 0 0 0 0 0 0 0 0 0 0 127 0" result="hardAlpha"></feColorMatrix>
<feOffset dx="1" dy="1"></feOffset>
<feComposite in2="hardAlpha" operator="out"></feComposite>
<feColorMatrix type="matrix" values="0 0 0 0 1 0 0 0 0 1 0 0 0 0 1 0 0 0 1 0"></feColorMatrix>
<feBlend mode="normal" in2="BackgroundImageFix" result="effect1_dropShadow_233_5999"></feBlend>
<feBlend mode="normal" in="SourceGraphic" in2="effect1_dropShadow_233_5999" result="shape"></feBlend>
</filter>
<clipPath id="clip0_233_5999">
<rect width="12.6" height="12.6" fill="white" transform="translate(7.69922 7.75586)"></rect>
</clipPath>
</defs>
</svg>
