<svg width="29" height="30" fill="none" xmlns="http://www.w3.org/2000/svg"><g filter="url('#filter0_d_233_5999')"><circle cx="14" cy="14.056" r="14" fill="#9ED821"/><circle cx="14" cy="14.056" r="13.5" stroke="#fff"/></g><g clip-path="url('#clip0_233_5999')" fill="#262C20"><path d="M9.66 10.283c-.108 0-.2.038-.245.112-.047.077-.04.176.01.276l1.214 2.101c.002.004.002.006 0 .01l-1.907 3.366c-.05.1-.048.199 0 .276a.264.264 0 0 0 .234.122h1.796c.268 0 .397-.181.49-.347l1.937-3.427-1.234-2.152c-.09-.16-.225-.337-.5-.337H9.66ZM17.202 7.825c-.268 0-.384.17-.48.342l-3.995 7.084 2.55 4.68c.09.159.227.342.502.342h1.793c.108 0 .193-.041.239-.115.047-.077.046-.178-.004-.277l-2.531-4.624a.01.01 0 0 1 0-.012l3.974-7.028c.05-.1.052-.2.004-.277-.045-.074-.13-.115-.238-.115h-1.814Z"/></g><defs><clipPath id="clip0_233_5999"><path fill="#fff" transform="translate(7.7 7.756)" d="M0 0h12.6v12.6H0z"/></clipPath><filter id="filter0_d_233_5999" x="0" y=".056" width="29" height="29" filterUnits="userSpaceOnUse" color-interpolation-filters="sRGB"><feFlood flood-opacity="0" result="BackgroundImageFix"/><feColorMatrix in="SourceAlpha" values="0 0 0 0 0 0 0 0 0 0 0 0 0 0 0 0 0 0 127 0" result="hardAlpha"/><feOffset dx="1" dy="1"/><feComposite in2="hardAlpha" operator="out"/><feColorMatrix values="0 0 0 0 1 0 0 0 0 1 0 0 0 0 1 0 0 0 1 0"/><feBlend in2="BackgroundImageFix" result="effect1_dropShadow_233_5999"/><feBlend in="SourceGraphic" in2="effect1_dropShadow_233_5999" result="shape"/></filter></defs></svg>