<svg width="192" height="37" fill="none" xmlns="http://www.w3.org/2000/svg"><g clip-path="url('#clip0_233_6029')"><path d="M46.79 32.801c0-.599-.004-1.198 0-1.797.006-.702.009-.702.737-.686a.523.523 0 0 0 .082 0c.403-.055.518.132.51.515-.02 1.035-.006 2.07-.007 3.105 0 .163.014.328-.001.49-.031.335.076.49.45.482.958-.021 1.917-.018 2.874-.001.364.006.468-.139.464-.483a145.562 145.562 0 0 1-.001-3.35c.002-.235-.125-.56.11-.686.31-.168.69-.09 1.039-.04.16.024.168.192.167.328-.005 1.416.022 2.834-.03 4.248-.027.728-.29.99-1.02 1.035-1.449.09-2.9.09-4.349.001-.759-.046-.988-.343-1.015-1.118-.025-.68-.006-1.362-.006-2.043h-.005Zm95.388 1.987c-.028.797-.182 1.014-.956 1.16a3.16 3.16 0 0 1-.57.052c-1.095.005-2.19-.001-3.284.005-.277.001-.479-.033-.475-.388.01-1.307.01-2.613 0-3.92-.003-.341.172-.403.462-.4 1.204.008 2.409-.003 3.613.008.47.005.956.035 1.154.579.203.558.02 1.191-.522 1.672.503.316.596.739.578 1.232Zm-4.138-2.193c.002.386.114.533.512.517.654-.025 1.31-.015 1.965-.005.331.005.5-.098.504-.464.005-.395-.165-.538-.539-.523-.3.011-.601.002-.901.002-.328-.001-.655.012-.982-.005-.351-.018-.561.048-.559.478Zm3.089 1.984c.001-.443-.117-.617-.536-.65-.353-.026-.709-.004-1.064-.004v-.004c-.354 0-.709.011-1.063-.002-.325-.013-.44.138-.418.442.012.162.006.326.004.488-.002.244.133.332.359.331.737-.002 1.474.006 2.21-.006.378-.005.507-.245.508-.595Zm47.881 1.413c.659 0 1.319.034 1.974-.009.743-.048.967-.297 1.006-1.024.023-.435-.002-.873.008-1.309.007-.28-.119-.388-.394-.385-.713.007-1.426.013-2.139-.005-.316-.008-.436.098-.444.417-.008.325.118.434.431.417.328-.017.659.011.987-.005.427-.022.403.258.4.541-.002.278.035.555-.395.548a99.08 99.08 0 0 0-2.715 0c-.301.004-.458-.085-.452-.414.012-.737.011-1.473-.001-2.21-.006-.315.121-.435.435-.432.905.011 1.81.003 2.715.006.131 0 .341-.029.356.116.068.695.53.32.839.315.318-.006.414-.202.346-.504-.111-.493-.356-.72-1.029-.738a72.407 72.407 0 0 0-3.702-.004c-.85.022-1.093.303-1.113 1.18-.017.79-.017 1.582.001 2.373.019.829.253 1.079 1.077 1.124.602.034 1.206.007 1.809.007v-.005Zm-32.514-.134-.051.144c-.314 0-.63-.018-.942.005-.332.025-.567-.103-.794-.33-.404-.408-.831-.79-1.252-1.18-.158-.147-.313-.277-.559-.3-.76-.074-.843-.014-.848.743-.002.163.003.327-.001.49-.016.58-.017.58-.602.572-.539-.007-.552-.006-.556-.543-.009-1.225.005-2.45-.007-3.677-.004-.335.089-.492.46-.488 1.26.017 2.52-.014 3.779.016.783.019 1.019.29 1.041 1.05.008.272.008.545 0 .817-.023.694-.212.905-.909 1.012-.181.029-.366.033-.717.062l1.958 1.607Zm-1.912-2.484c.444-.028.54-.159.536-.635-.004-.47-.099-.598-.557-.613-.63-.022-1.26-.013-1.891-.005-.632.006-.632.013-.629.638.002.607.002.609.65.62.274.005.548.001.822.001v-.002c.357 0 .714.018 1.069-.004ZM82.518 35.94c-.9.09-1.591.207-2.141-.487-.286-.36-.668-.645-1.007-.962-.16-.149-.316-.273-.562-.295-.762-.069-.837-.016-.842.752 0 .164.005.328 0 .49-.018.575-.018.575-.614.564-.526-.01-.539-.01-.543-.557-.008-1.2.014-2.4-.01-3.6-.01-.434.144-.56.567-.553 1.178.023 2.356-.005 3.535.013.932.014 1.167.263 1.181 1.164.004.19.003.381 0 .572-.014.86-.186 1.055-1.023 1.157-.135.017-.272.014-.607.03.445.374.751.634 1.06.89.289.24.58.475 1.007.822Zm-2.031-2.566c.454-.025.55-.148.55-.62.001-.474-.096-.614-.542-.628-.712-.022-1.425-.001-2.138-.009-.273-.003-.412.101-.398.383.01.136.009.272 0 .408-.034.352.114.498.473.476.327-.02.657-.004.986-.005.357 0 .714.016 1.069-.005Zm27.113-.33 1.405 1.694c.679.82.679.821 1.363-.042l1.36-1.717c.214.212.136.41.139.586.01.654.002 1.308.006 1.962.001.157-.037.337.135.44.406.243.963-.043.966-.504.007-1.199.006-2.398-.002-3.596-.001-.181.084-.441-.127-.514-.275-.093-.6-.148-.859.058-.168.134-.294.321-.433.488-.589.706-1.176 1.413-1.762 2.12-.342-.21-.509-.498-.718-.744-.496-.582-.985-1.17-1.469-1.761-.257-.315-.61-.26-.907-.176-.249.07-.141.376-.143.579-.009 1.199.001 2.398-.009 3.596-.002.318.055.502.444.501.382 0 .456-.17.451-.495-.012-.808-.004-1.617-.004-2.426l.164-.049Zm75.353 2.55c.171.134.338.293.535.372.494.197.768.006.771-.523a287.3 287.3 0 0 0-.001-3.596c-.004-.543-.021-.547-.55-.548-.529 0-.543.004-.55.548-.01.8-.002 1.6-.002 2.55-1.26-.977-2.374-1.847-3.494-2.708-.191-.147-.36-.334-.619-.384-.479-.094-.655.026-.659.51-.008 1.226.009 2.452-.01 3.677-.006.39.116.534.516.52.55-.021.585-.014.592-.514.012-.816.004-1.633.004-2.645 1.251.99 2.357 1.867 3.467 2.74Zm-59.413-2.199c.965.762 1.933 1.519 2.89 2.29.267.216.534.36.892.32.199-.023.302-.1.302-.297.002-1.362.003-2.724.002-4.085 0-.188-.079-.289-.282-.324-.653-.114-.815.013-.819.69-.005.75-.001 1.5-.001 2.248-.311.014-.418-.169-.561-.279a379.288 379.288 0 0 1-3.045-2.36c-.244-.192-.485-.332-.816-.304-.232.019-.353.093-.352.337.002 1.335 0 2.67.001 4.004 0 .136.01.268.159.34.458.223.937-.044.941-.538.008-.806.002-1.61.002-2.569.313.24.502.381.687.527Zm8.596 2.607h1.151c1.496-.003 1.663-.17 1.641-1.629-.015-.964-.182-1.142-1.156-1.158a78.837 78.837 0 0 0-2.712 0c-.414.007-.424-.237-.414-.532.01-.268-.056-.565.381-.56.822.011 1.643.005 2.465.002.212 0 .338.044.396.296.104.45.434.13.651.12.257-.01.363-.19.308-.463-.104-.513-.382-.744-1.093-.768-.849-.028-1.698-.01-2.548-.009-1.372.003-1.628.277-1.553 1.654.003.054-.001.11.006.163.071.6.263.803.873.891.217.024.436.033.655.026.74.003 1.48.023 2.219-.006.44-.018.498.198.475.55-.019.298.054.611-.429.6-.876-.02-1.753-.006-2.63-.004-.202 0-.397-.005-.391-.284.01-.401-.235-.352-.493-.277-.254.074-.543.086-.505.492.048.507.244.792.817.844.624.056 1.257.013 1.886.013v.04Zm-27.66-4.307c.012-.423-.256-.41-.54-.394-.281.015-.645-.105-.625.395.012.326-.013.654.004.98.017.31-.093.436-.418.43a92.734 92.734 0 0 0-2.71 0c-.28.003-.395-.098-.384-.38.014-.353-.004-.708.002-1.062.007-.439-.314-.364-.574-.36-.251.003-.583-.107-.582.344.003 1.334.002 2.668-.003 4.002-.001.45.326.347.58.348.256.002.583.087.58-.353-.004-.409.01-.818-.003-1.226-.009-.274.09-.39.377-.386.931.012 1.861.008 2.792.003.24-.001.345.095.34.336-.007.409.013.818-.004 1.225-.019.495.331.395.618.405.279.009.56.043.549-.386-.016-.653-.004-1.307-.004-1.96 0-.654-.014-1.308.005-1.961ZM60.238 35.6c.19.15.356.34.611.395.476.104.649-.016.652-.507.008-1.227-.01-2.453.009-3.68.005-.382-.106-.537-.512-.516-.513.028-.533.011-.54.56-.01.8-.003 1.6-.003 2.424-.396-.075-.57-.301-.78-.462-.956-.731-1.904-1.471-2.851-2.212-.217-.17-.423-.322-.73-.31-.26.011-.415.06-.414.355.005 1.335.002 2.67.004 4.006 0 .138.018.268.17.333.454.194.869-.052.874-.533.008-.808.002-1.617.002-2.622 1.28 1.011 2.392 1.893 3.508 2.77Zm25.589-2.155c.944.745 1.887 1.491 2.828 2.24.237.189.47.356.808.323.226-.023.356-.079.355-.327-.003-1.362-.002-2.725-.004-4.087a.288.288 0 0 0-.144-.274c-.398-.212-.892.06-.897.503-.008.805-.002 1.61-.002 2.39-.243.075-.33-.05-.434-.13-1.016-.785-2.031-1.572-3.046-2.36-.15-.118-.29-.257-.458-.343-.5-.257-.831-.065-.834.482a281.933 281.933 0 0 0 0 3.597c.004.535.035.523.55.551.418.023.511-.155.503-.526-.02-.813-.006-1.627-.006-2.616.35.258.57.412.78.577Zm33.625 2.556c.308-.003.68.117.669-.437-.013-.585-.432-.373-.703-.381-.822-.024-1.645-.007-2.468-.01-.812-.002-.872-.087-.795-.89.029-.297.175-.358.426-.356.466.005.933-.008 1.398.004.304.008.444-.088.44-.419-.005-.33-.15-.422-.451-.414-.466.012-.932-.009-1.398.006-.329.01-.421-.137-.414-.443.009-.49.022-.527.573-.532.96-.01 1.919-.007 2.879 0 .287.002.462-.054.455-.402-.005-.317-.119-.433-.435-.431-1.398.009-2.796.009-4.194 0-.312-.002-.44.109-.438.427.01 1.281.014 2.563-.002 3.845-.005.388.193.444.511.439.685-.012 1.37-.004 2.056-.004.63 0 1.261.005 1.891-.002Zm-44.98-.004c.285-.009.685.172.706-.395.022-.57-.37-.42-.665-.424-.85-.011-1.699-.001-2.549-.005-.78-.003-.769-.011-.753-.767.007-.343.105-.499.47-.483.465.021.932-.001 1.398.006.267.004.396-.086.393-.379-.003-.296-.077-.463-.414-.452-.465.016-.932.006-1.398.002-.158-.002-.336.026-.423-.162-.19-.407.055-.805.517-.81.959-.008 1.918-.002 2.878-.002.254 0 .486.015.49-.366.002-.362-.136-.47-.484-.466-1.37.013-2.74.014-4.112 0-.356-.003-.48.122-.476.475.014 1.255.014 2.509 0 3.763-.005.352.117.486.475.476.685-.019 1.37-.005 2.055-.005.631 0 1.262.014 1.892-.006Zm74.18-.002c.282-.01.691.181.714-.387.024-.566-.37-.408-.666-.431-.137-.01-.274-.002-.411-.002-.768 0-1.535.006-2.303-.002-.573-.007-.573-.015-.577-.602-.005-.63-.005-.633.619-.643.411-.006.822-.012 1.233.002.313.01.349-.166.346-.413-.002-.25-.05-.423-.357-.417-.493.01-.987.002-1.48-.001-.133-.001-.272.007-.343-.148-.19-.41.047-.819.498-.823.932-.008 1.864-.004 2.796-.002.276 0 .543.043.539-.391-.003-.387-.185-.441-.509-.439-1.343.011-2.686.014-4.029-.002-.354-.004-.482.112-.478.467.014 1.254.02 2.509-.003 3.762-.008.426.185.496.547.485.657-.02 1.315-.006 1.973-.006.631 0 1.262.016 1.891-.007Zm-52.014.008c.29.003.373-.14.374-.404 0-.247-.037-.433-.344-.423-.164.005-.329 0-.493-.001-.795 0-1.59.002-2.384-.001-.77-.003-.757-.01-.742-.774.007-.342.102-.497.469-.478.437.023.877-.012 1.315.01.324.015.43-.106.427-.423-.003-.33-.149-.42-.452-.41-.465.014-.931.003-1.397 0-.133-.002-.27.005-.338-.154-.183-.425.047-.812.508-.816.96-.01 1.919-.009 2.878 0 .294.003.46-.06.446-.401-.011-.3-.096-.437-.428-.434-1.37.015-2.74.015-4.111 0-.36-.003-.476.128-.472.475.013 1.254.013 2.508 0 3.762-.004.345.105.488.469.477.684-.022 1.37-.006 2.055-.007.74 0 1.48-.005 2.22.002Zm76.909-.002h1.563c.055 0 .11 0 .164-.005.82-.073 1.064-.309 1.079-1.13.019-1.009.012-2.018.002-3.027-.005-.533-.018-.533-.56-.54-.578-.006-.588-.006-.593.582-.009.927-.018 1.854.003 2.78.009.39-.121.534-.518.52a32.968 32.968 0 0 0-2.219 0c-.414.015-.512-.16-.504-.533.018-.954-.012-1.909.013-2.863.01-.413-.159-.52-.536-.49-.327.024-.66-.063-.642.475.034 1.035-.005 2.073.015 3.109.016.817.26 1.064 1.089 1.112.547.031 1.096.006 1.644.006v.004Zm-10.055-.039c-.16.083-.38.01-.582.043-.388.062-.641-.102-.758-.456-.188-.571-.598-.683-1.147-.647-.602.034-1.205.035-1.807 0-.355-.017-.585.104-.701.424-.241.664-.702.827-1.342.614-.077-.19.059-.315.138-.45.734-1.244 1.467-2.49 2.212-3.728.406-.676 1.195-.684 1.605-.013.782 1.28 1.547 2.57 2.319 3.854.055.092.129.179.063.36Zm-2.171-1.917c-.406-.633-.618-1.263-1.117-1.793l-.775 1.421c-.049.093-.089.19-.176.372h2.068Zm-95.52-2.744c-.82 0-1.64.004-2.46-.003-.292-.002-.366.148-.368.407-.001.25.042.425.346.42.464-.005.93.02 1.393-.005.39-.02.531.12.522.514-.022.896-.01 1.794-.006 2.691.003.655.25.831.907.673.154-.038.239-.116.245-.27.007-.19.006-.38.006-.57.001-.87.009-1.74-.002-2.61-.004-.315.116-.438.433-.425.437.017.875-.004 1.312.006.278.007.462-.027.463-.384 0-.371-.158-.459-.495-.451-.765.017-1.53.005-2.296.005v.002Zm98.573.005c-.283.008-.684-.175-.707.391-.023.57.368.413.662.426.327.021.655.02.983-.002.425-.04.577.114.565.545-.025.95-.009 1.903-.007 2.854 0 .16-.043.377.132.437.287.096.598.1.887.009.209-.066.14-.328.141-.511.004-.952.012-1.903-.003-2.855-.006-.346.11-.495.47-.478.437.02.875.002 1.312.005.26 0 .478 0 .48-.374.002-.368-.147-.466-.489-.459-.764.017-1.53.006-2.295.006-.711 0-1.421-.013-2.131.006ZM187.48.31a4.349 4.349 0 0 0-4.38 4.368c-.011 2.31 1.961 4.411 4.406 4.338 2.455.056 4.397-2.038 4.382-4.363a4.322 4.322 0 0 0-1.294-3.085A4.371 4.371 0 0 0 187.48.31Zm.023 7.828a3.478 3.478 0 0 1-2.475-1.024 3.456 3.456 0 0 1-.75-1.137 3.422 3.422 0 0 1-.25-1.337c.036-1.893 1.608-3.457 3.466-3.45 1.96.01 3.474 1.55 3.453 3.514-.02 1.937-1.516 3.428-3.444 3.434Zm.81-3.147c.306-.16.602-.296.786-.593.528-.86.06-1.874-.998-2.007-.727-.092-1.473-.034-2.211-.05-.347-.008-.401.206-.4.479.001.79-.011 1.58.003 2.369.009.593-.06 1.19.048 1.776.976.097.976.097.979-.83.001-.164-.006-.328.001-.49.023-.53.261-.655.725-.36.409.26.638.688.804 1.11.206.522.524.727 1.063.625.123-.024.266.045.401-.12a15.536 15.536 0 0 0-1.201-1.909Zm-.415-.745c-.362.134-.745.11-1.122.107a.25.25 0 0 1-.264-.25 3.055 3.055 0 0 1 .005-.72c.076-.411.431-.196.702-.271.228.03.454.074.678.13.235.069.323.272.331.501a.481.481 0 0 1-.33.503Z" fill="#fff"/><path d="M52.373 2.404c1.518 0 2.995.01 4.472-.006.4-.005.502.244.611.536.451 1.201.905 2.401 1.363 3.6 1.085 2.857 2.171 5.715 3.258 8.572.067.177.111.368.28.513.22-.136.266-.376.353-.59 1.609-3.97 3.217-7.943 4.824-11.915.325-.804.295-.707 1.069-.711.548-.003 1.097-.006 1.645-.002 1.05.008.855-.046 1.222.854.99 2.426 1.958 4.86 2.936 7.292.621 1.545 1.244 3.09 1.868 4.633.06.15.14.291.228.475.297-.254.343-.586.45-.875 1.442-3.86 2.868-7.726 4.319-11.583.293-.782.08-.804 1.163-.797.878.006 1.756-.003 2.633.004.238.002.493-.069.707.105.072.238-.065.428-.145.624-2.43 6.025-4.86 12.05-7.288 18.075-.18.445-.403.65-.901.617a12.067 12.067 0 0 0-1.89.004c-.606.056-.872-.2-1.084-.73-1.032-2.586-2.099-5.158-3.154-7.734-.61-1.49-1.223-2.98-1.838-4.468-.07-.166-.08-.385-.372-.485-.189.432-.385.868-.57 1.309-1.59 3.803-3.188 7.602-4.756 11.414-.208.505-.454.74-1.025.693a13.522 13.522 0 0 0-1.973-.002c-.47.031-.682-.154-.847-.572-.673-1.7-1.378-3.387-2.071-5.08-1.759-4.294-3.516-8.588-5.273-12.883-.101-.247-.259-.484-.214-.887ZM157.812 9.15v.784l-.002 10.808c0 .19-.01.383.001.573.02.333-.097.506-.463.502-.987-.011-1.975-.008-2.963 0-.316.002-.446-.145-.434-.448.006-.136 0-.272 0-.409l.002-17.685a2.978 2.978 0 0 0-.002-.327c-.053-.444.174-.56.58-.553.932.018 1.865.014 2.798.002a.898.898 0 0 1 .776.357c1.77 2.154 3.547 4.303 5.332 6.445 1.15 1.39 2.296 2.784 3.45 4.17.424.508.461.505.909-.038 2.35-2.846 4.697-5.693 7.042-8.541.557-.675 1.124-1.343 1.668-2.027a.894.894 0 0 1 .774-.366c.96.014 1.92.013 2.88 0 .375-.006.573.12.539.518-.012.135-.001.273-.001.409l-.001 17.603c-.001.91.11.89-.889.89-.988 0-1.975.006-2.963-.003-.623-.005-.634-.014-.635-.642-.003-3.33-.003-6.66.001-9.989V8.767c-.344.081-.448.32-.589.498-2.543 3.216-5.083 6.433-7.622 9.652-.181.229-.315.539-.662.567-.414.035-.754.002-1.077-.395-2.274-2.8-4.585-5.569-6.888-8.345-.462-.557-.937-1.102-1.406-1.653l-.155.058ZM102.076 2.408c2.139 0 4.279-.005 6.419.002a9.795 9.795 0 0 1 1.961.175c1.664.343 2.477 1.164 2.686 2.86.147 1.193.124 2.397.128 3.598.001.34-.124.492-.48.494-1.316.01-2.633.029-3.949.06-.36.008-.478-.143-.472-.487.014-.819.01-1.638.001-2.457-.008-.62-.017-.636-.649-.638-2.715-.007-5.431-.005-8.147-.006-1.097 0-2.195-.006-3.292.001-.6.005-.624.015-.625.574-.007 3.63-.006 7.26.002 10.89.002.566.027.585.627.585 3.813.006 7.626.006 11.439 0 .629-.001.639-.018.645-.642.01-.955-.004-1.91.005-2.865.006-.597.017-.613.583-.618 1.234-.01 2.469-.011 3.703-.002.576.005.604.03.603.611-.002 1.255.041 2.51-.073 3.764a5.352 5.352 0 0 1-.382 1.585c-.323.778-.912 1.282-1.704 1.55-.65.223-1.331.34-2.018.348-4.718.045-9.436.045-14.154.001a6.836 6.836 0 0 1-2.02-.346c-.908-.289-1.48-.904-1.77-1.792a7.55 7.55 0 0 1-.339-2.34c-.008-3.493-.007-6.987.003-10.48a8.11 8.11 0 0 1 .253-2.025c.296-1.135 1.013-1.847 2.15-2.137a8.17 8.17 0 0 1 2.035-.259h6.831v-.004ZM.004 2.436c1.398 0 2.765.005 4.133-.003.438-.002.523.339.653.63.622 1.395 1.234 2.796 1.853 4.193 1.846 4.167 3.693 8.333 5.542 12.5.076.172.108.37.299.48.267-.145.293-.442.399-.678 2.102-4.71 4.2-9.422 6.29-14.137.378-.848.761-1.693 1.13-2.545.119-.276.274-.448.605-.445 1.148.01 2.296.003 3.42.003.164.363-.044.587-.15.823-2.741 6.128-5.486 12.255-8.233 18.381-1.238 2.765-2.465 5.535-3.714 8.295a14.128 14.128 0 0 1-1.62 2.745c-1.305 1.714-3.09 2.556-5.179 2.852-1.253.177-2.515.15-3.776.162-.381.004-.551-.118-.543-.515.017-.791.02-1.583 0-2.373-.011-.446.197-.554.604-.543.712.02 1.426 0 2.138-.012a6.382 6.382 0 0 0 1.936-.34c.754-.253 1.327-.745 1.79-1.38 1.023-1.404 1.66-3.006 2.4-4.557.175-.366-.026-.633-.153-.922-1.284-2.923-2.57-5.846-3.86-8.766L.221 3.248c-.097-.22-.249-.426-.218-.812ZM38.532 21.817h-9.545c-.192 0-.384-.011-.576-.002-.328.017-.434-.157-.424-.452.006-.19-.003-.382-.003-.573l.001-17.355c0-1.16-.062-1.031 1.001-1.032C35.322 2.4 41.66 2.4 47.995 2.401c.137 0 .275.01.411 0 .375-.028.553.112.543.513a53.046 53.046 0 0 0 0 2.456c.01.404-.177.534-.549.503-.163-.013-.329-.002-.493-.002H33.752c-.165 0-.33.007-.494-.001-.315-.016-.437.131-.435.44.009 1.09.01 2.182.003 3.274-.002.305.116.457.432.446.192-.007.384.002.576.002h7.57c.807.002.81.01.815.831.004.71-.006 1.42 0 2.129.003.304-.121.456-.436.446-.192-.007-.384.001-.576.001l-7.653.002c-.716.001-.724.008-.728.727-.006 1.118-.007 2.237.003 3.356.006.613.018.615.656.63.274.006.549.002.823.002l14.071.002c.777 0 .781.008.789.755.007.736.01 1.473.002 2.21-.007.675-.014.678-.682.69-.383.008-.768.004-1.152.004h-8.805Z" fill="#E87B14"/><path d="M142.243 2.324H124.11c-.944 0-1.848.373-2.515 1.036a3.528 3.528 0 0 0-1.042 2.502v12.347a3.536 3.536 0 0 0 2.195 3.27c.432.177.894.269 1.362.269h18.133a3.575 3.575 0 0 0 2.515-1.037c.33-.328.592-.718.771-1.147.178-.43.27-.89.27-1.355V5.862a3.535 3.535 0 0 0-1.042-2.502 3.556 3.556 0 0 0-2.514-1.036Zm-1.373 15.673h-15.387V6.074h15.387v11.923Z" fill="#fff"/><path d="M145.8 7.978c-.922-2.288-2.602-4.254-4.768-5.654C138.824.897 136.11.056 133.177.056c-2.934 0-5.648.841-7.855 2.268-2.168 1.4-3.847 3.366-4.769 5.654a10.83 10.83 0 0 0 0 8.116c.922 2.288 2.601 4.252 4.769 5.654 2.207 1.426 4.921 2.267 7.855 2.267 2.933 0 5.647-.84 7.855-2.267 2.166-1.402 3.846-3.366 4.768-5.654a10.83 10.83 0 0 0 0-8.116Zm-12.623 13.02c-5.724 0-10.38-4.02-10.38-8.963 0-4.94 4.656-8.962 10.38-8.962 5.722 0 10.379 4.021 10.379 8.962 0 4.942-4.657 8.962-10.379 8.962Z" fill="#E87B14"/></g><defs><clipPath id="clip0_233_6029"><path fill="#fff" transform="translate(0 .056)" d="M0 0h192v36H0z"/></clipPath></defs></svg>