<svg width="141" height="142" viewBox="0 0 141 142" fill="none" xmlns="http://www.w3.org/2000/svg">
<path d="M102.026 112.085L92.2915 118.513L87.1316 111.762L84.4665 107.445L102.423 111.441L102.026 112.085Z" fill="#262C20"/>
<path d="M89.7346 119.162C86.7388 115.583 84.4465 111.194 82.013 107.207C81.3329 106.093 82.9916 104.958 83.8541 105.892C87.3476 109.708 90.185 114.078 92.251 118.825L90.7553 118.371L96.8898 114.642C98.7191 113.533 100.637 111.963 102.708 111.412C102.91 111.373 103.119 111.399 103.304 111.487C103.49 111.575 103.642 111.721 103.739 111.902C103.836 112.083 103.872 112.291 103.842 112.495C103.812 112.698 103.718 112.887 103.573 113.033C102.123 114.608 99.794 115.577 97.9622 116.676L91.8075 120.365C91.548 120.498 91.2471 120.525 90.9681 120.44C90.6892 120.356 90.4539 120.166 90.3118 119.911C88.3298 115.335 85.5963 111.125 82.2249 107.454L84.066 106.139C86.3689 110.107 89.0942 114.168 90.7829 118.441C91.0199 119.05 90.2646 119.757 89.7682 119.165L89.7346 119.162Z" fill="#F2F6E6"/>
<path d="M82.8445 106.059C86.5632 106.824 90.2851 107.58 94.0101 108.325L99.4091 109.389C101.127 109.714 103.05 109.792 104.6 110.618C104.739 110.708 104.848 110.837 104.915 110.989C104.982 111.14 105.003 111.308 104.977 111.471C104.95 111.635 104.877 111.787 104.765 111.91C104.654 112.032 104.51 112.12 104.35 112.161C102.736 112.373 101.136 111.845 99.5436 111.518C97.6391 111.122 95.7257 110.712 93.8272 110.249C90.0303 109.322 86.2758 108.25 82.5638 107.033C82.4388 106.992 82.3345 106.904 82.2729 106.788C82.2113 106.672 82.1973 106.536 82.2338 106.41C82.2702 106.283 82.3543 106.176 82.4683 106.111C82.5823 106.045 82.7172 106.027 82.8445 106.059V106.059Z" fill="#F2F6E6"/>
<path d="M43.0266 18.466C75.6171 25.1215 67.9721 65.5359 67.9721 65.5359C91.3904 66.6583 102.911 89.7914 91.3057 119.256" stroke="#F2F6E6" stroke-width="4" stroke-linecap="round" stroke-dasharray="13 13"/>
</svg>
