<svg width="142" height="142" viewBox="0 0 142 142" fill="none" xmlns="http://www.w3.org/2000/svg">
<g filter="url(#filter0_d_233_5676)">
<path d="M59.4984 11.4909L76.8158 34.4867L100.432 18.0247L98.9161 46.7719L127.588 49.3412L107.949 70.3887L128.262 90.7871L99.6881 94.2865L102.137 122.969L77.9986 107.283L61.4374 130.83L53.0294 103.298L25.2075 110.69L36.4638 84.1946L10.3994 71.9737L36.053 58.9126L23.9419 32.797L51.9892 39.2814L59.4984 11.4909Z" fill="#9ED821"/>
<path d="M59.9302 13.7265L76.017 35.0882L76.5969 35.8583L77.3877 35.307L99.3253 20.0148L97.9175 46.7193L97.8667 47.6819L98.8268 47.7679L125.462 50.1546L107.218 69.7065L106.56 70.4113L107.24 71.0944L126.11 90.0432L99.5665 93.2939L98.6097 93.4111L98.6917 94.3716L100.966 121.016L78.5435 106.445L77.7352 105.92L77.1807 106.708L61.7963 128.581L53.9858 103.006L53.7042 102.084L52.7726 102.331L26.9278 109.198L37.3841 84.5856L37.7611 83.6984L36.8883 83.2892L12.6761 71.9367L36.5067 59.8037L37.3657 59.3664L36.9602 58.4919L25.7097 34.2321L51.764 40.2557L52.7032 40.4728L52.9546 39.5422L59.9302 13.7265Z" stroke="#262C20" stroke-width="2"/>
</g>
<path d="M45.6629 55.5363L46.629 55.3497L47.2912 58.7784L51.2383 58.0161L50.5761 54.5874L51.5422 54.4009L53.1055 62.4953L52.1393 62.6819L51.4157 58.9351L47.4687 59.6974L48.1923 63.4442L47.2261 63.6308L45.6629 55.5363ZM56.4518 53.2205L56.8406 53.1454L61.9229 60.7924L60.8978 60.9904L59.2874 58.6004L56.2122 59.1943L55.6311 62.0075L54.6061 62.2055L56.4518 53.2205ZM57.2535 55.4733L57.1001 55.1852L56.9771 54.9278L56.9447 55.203L56.9118 55.5393L56.4091 58.2519L58.742 57.8013L57.2535 55.4733ZM61.852 52.4097L62.8181 52.2232L64.2085 59.4221L68.1791 58.6553L68.352 59.5507L63.4153 60.5042L61.852 52.4097ZM68.3184 51.1609L69.2846 50.9743L70.6749 58.1733L74.6456 57.4064L74.8185 58.3019L69.8817 59.2553L68.3184 51.1609ZM79.506 57.6533C78.7269 57.7956 77.9929 57.7499 77.3041 57.5163C76.6216 57.2733 76.0445 56.8796 75.5727 56.3352C75.1073 55.7814 74.7994 55.1157 74.6492 54.3381L74.5833 53.9964C74.4391 53.2502 74.4839 52.5327 74.7175 51.8439C74.9575 51.1457 75.3489 50.5568 75.8918 50.0771C76.4411 49.5881 77.0809 49.2731 77.8114 49.132C78.5498 48.9894 79.2609 49.0435 79.9449 49.2944C80.6274 49.5374 81.21 49.9382 81.6926 50.4968C82.1738 51.0475 82.4864 51.696 82.6306 52.4422L82.6965 52.7839C82.8467 53.5615 82.8058 54.2987 82.5737 54.9953C82.3494 55.6905 81.969 56.2732 81.4324 56.7434C80.8959 57.2137 80.2537 57.517 79.506 57.6533ZM79.2977 56.7646C79.8711 56.6539 80.363 56.4163 80.7733 56.0519C81.1822 55.6796 81.4731 55.2242 81.6461 54.6856C81.8191 54.147 81.8472 53.5753 81.7304 52.9705L81.6644 52.6288C81.5537 52.0554 81.3138 51.5517 80.9448 51.1178C80.5743 50.6761 80.1262 50.3593 79.6002 50.1676C79.0807 49.9664 78.5381 49.9205 77.9726 50.0297C77.4149 50.1374 76.9324 50.3813 76.5251 50.7615C76.1162 51.1337 75.8222 51.5939 75.6428 52.1418C75.4698 52.6804 75.4387 53.2364 75.5494 53.8098L75.6154 54.1515C75.7322 54.7563 75.9712 55.2764 76.3323 55.7118C76.6934 56.1473 77.133 56.4616 77.651 56.6549C78.1754 56.8388 78.7243 56.8754 79.2977 56.7646ZM83.4007 48.0036L84.4729 47.7966L85.6685 54.5565L84.8084 54.7226L83.4007 48.0036ZM85.5666 56.4339C85.4095 56.4642 85.256 56.4287 85.1061 56.3273C84.9561 56.2259 84.866 56.0966 84.8356 55.9395C84.8038 55.7746 84.8385 55.6171 84.9399 55.4672C85.0413 55.3172 85.1706 55.2271 85.3277 55.1968C85.4926 55.1649 85.6501 55.1997 85.8 55.3011C85.9579 55.401 86.0527 55.5334 86.0845 55.6983C86.1149 55.8554 86.0754 56.0097 85.9662 56.1612C85.8648 56.3111 85.7316 56.402 85.5666 56.4339ZM55.1298 69.8937L59.2134 73.3826L61.7043 68.6239L62.1167 68.5443L63.7004 76.7448L62.7342 76.9314L61.7035 71.594C61.6807 71.4762 61.653 71.2697 61.6205 70.9745C61.3375 71.5343 60.9889 72.176 60.5746 72.8997C60.1666 73.6141 59.797 74.2313 59.4656 74.7516L58.8919 74.3124C57.7321 73.412 57.0227 72.8605 56.7636 72.658C56.6762 72.5853 56.5881 72.5086 56.4992 72.428C56.4181 72.3458 56.3386 72.2716 56.2606 72.2052L56.0805 72.0322C56.1466 72.2476 56.1985 72.4534 56.2365 72.6498L57.2673 77.9872L56.3011 78.1738L54.7174 69.9733L55.1298 69.8937ZM64.4373 68.2061L69.7157 67.1867L69.8887 68.0822L65.5528 68.9195L66.0284 71.382L69.2213 70.7654L69.3943 71.6608L66.2013 72.2775L66.7702 75.2231L71.3299 74.3424L71.5028 75.2379L66.0005 76.3005L64.4373 68.2061ZM71.5941 66.8239L72.5602 66.6373L74.1235 74.7318L73.1573 74.9184L71.5941 66.8239ZM74.8275 66.0772L75.2399 65.9976L81.5142 71.3367L81.736 71.5994L81.6605 71.2718L80.4564 65.1001L81.4108 64.9158L82.9763 73.022L82.4814 73.1176L81.6684 72.578L76.7177 68.5232L76.1398 67.9993L76.3489 68.7655L77.3797 74.1029L76.4136 74.2895L74.8275 66.0772ZM47.0826 87.7312L47.495 87.6516L53.7693 92.9907L53.9911 93.2534L53.9156 92.9258L52.7115 86.7541L53.6658 86.5698L55.2314 94.676L54.7365 94.7716L53.9235 94.232L48.9727 90.1772L48.3949 89.6533L48.604 90.4195L49.6348 95.7569L48.6687 95.9435L47.0826 87.7312ZM58.5732 85.4021L58.962 85.327L64.0443 92.974L63.0192 93.172L61.4088 90.782L58.3336 91.3759L57.7525 94.1891L56.7275 94.3871L58.5732 85.4021ZM59.3749 87.6549L59.2215 87.3668L59.0985 87.1095L59.066 87.3846L59.0332 87.7209L58.5305 90.4335L60.8634 89.9829L59.3749 87.6549ZM64.3771 84.4034L68.4607 87.8923L70.9516 83.1337L71.364 83.054L72.9477 91.2545L71.9816 91.4411L70.9508 86.1037C70.928 85.9859 70.9003 85.7794 70.8678 85.4842C70.5848 86.044 70.2362 86.6858 69.8219 87.4095C69.4139 88.1238 69.0443 88.7411 68.7129 89.2614L68.1392 88.8222C66.9794 87.9218 66.27 87.3703 66.0109 87.1677C65.9235 87.095 65.8354 87.0183 65.7465 86.9377C65.6654 86.8556 65.5859 86.7813 65.5079 86.7149L65.3278 86.5419C65.3939 86.7573 65.4458 86.9632 65.4838 87.1596L66.5146 92.4969L65.5484 92.6835L63.9647 84.483L64.3771 84.4034ZM73.6846 82.7159L78.963 81.6964L79.136 82.5919L74.8001 83.4293L75.2757 85.8918L78.4687 85.2751L78.6416 86.1706L75.4486 86.7872L76.0175 89.7328L80.5772 88.8522L80.7501 89.7476L75.2478 90.8103L73.6846 82.7159ZM84.2587 80.6737L85.2248 80.4871L86.7881 88.5815L85.822 88.7681L84.2587 80.6737ZM91.3152 87.9517C90.8439 88.0427 90.3827 88.0381 89.9315 87.9378C89.4803 87.8375 89.0783 87.6544 88.7254 87.3885C88.3805 87.1211 88.1253 86.7915 87.96 86.3997L88.7614 85.8661C88.9826 86.3367 89.3209 86.6747 89.7761 86.8801C90.2313 87.0855 90.6867 87.1442 91.1423 87.0562C91.6293 86.9621 92.0128 86.7333 92.2929 86.3695C92.5715 85.998 92.6638 85.5687 92.5698 85.0817C92.5045 84.7439 92.3525 84.484 92.1136 84.302C91.8748 84.12 91.4852 83.959 90.9448 83.8189C90.2573 83.6339 89.7303 83.479 89.364 83.3542C89.004 83.2201 88.6868 83.0328 88.4122 82.7925C88.144 82.5429 87.9712 82.2177 87.8939 81.8171C87.8195 81.4322 87.8557 81.0708 88.0022 80.7329C88.1552 80.3856 88.3885 80.0961 88.7023 79.8644C89.0224 79.6233 89.3827 79.4641 89.7833 79.3867C90.1211 79.3215 90.4489 79.3315 90.7668 79.4168C91.0911 79.4927 91.3616 79.6278 91.5784 79.8222C91.8031 80.0151 91.9405 80.2412 91.9905 80.5004C91.9981 80.5397 92.0031 80.608 92.0056 80.7053L91.0752 80.8238C91.0824 80.6921 91.0243 80.5811 90.9009 80.4908C90.7839 80.3912 90.6329 80.3267 90.448 80.2972C90.2615 80.2599 90.0898 80.2564 89.9327 80.2867C89.5871 80.3535 89.3051 80.5179 89.0869 80.7801C88.875 81.0329 88.7971 81.3046 88.8532 81.5952C88.8987 81.8308 89.0221 82.027 89.2235 82.1836C89.4327 82.3388 89.6649 82.4651 89.92 82.5624C90.1735 82.652 90.4984 82.7522 90.8947 82.8631L91.3598 82.9932C92.0455 83.2112 92.5546 83.4632 92.8869 83.7494C93.227 84.034 93.4441 84.4199 93.5382 84.9069C93.6322 85.3939 93.5907 85.8541 93.4137 86.2875C93.2446 86.7194 92.9723 87.0816 92.5969 87.3741C92.2216 87.6666 91.7944 87.8591 91.3152 87.9517ZM95.8102 79.3716L93.1356 79.8882L92.9627 78.9927L99.278 77.773L99.4509 78.6685L96.7763 79.185L98.1667 86.384L97.2005 86.5706L95.8102 79.3716Z" fill="#262C20"/>
<path d="M45.6629 55.5363L45.5681 55.0454L45.0771 55.1402L45.1719 55.6311L45.6629 55.5363ZM46.629 55.3497L47.1199 55.2549L47.0251 54.764L46.5342 54.8588L46.629 55.3497ZM47.2912 58.7784L46.8003 58.8732L46.8951 59.3641L47.386 59.2693L47.2912 58.7784ZM51.2383 58.0161L51.3331 58.507L51.824 58.4122L51.7292 57.9213L51.2383 58.0161ZM50.5761 54.5874L50.4813 54.0965L49.9903 54.1913L50.0852 54.6823L50.5761 54.5874ZM51.5422 54.4009L52.0332 54.306L51.9383 53.8151L51.4474 53.9099L51.5422 54.4009ZM53.1055 62.4953L53.2003 62.9862L53.6912 62.8914L53.5964 62.4005L53.1055 62.4953ZM52.1393 62.6819L51.6484 62.7767L51.7432 63.2676L52.2342 63.1728L52.1393 62.6819ZM51.4157 58.9351L51.9067 58.8403L51.8119 58.3494L51.3209 58.4442L51.4157 58.9351ZM47.4687 59.6974L47.3739 59.2065L46.8829 59.3013L46.9777 59.7922L47.4687 59.6974ZM48.1923 63.4442L48.2871 63.9351L48.778 63.8403L48.6832 63.3494L48.1923 63.4442ZM47.2261 63.6308L46.7352 63.7256L46.83 64.2165L47.3209 64.1217L47.2261 63.6308ZM45.7577 56.0273L46.7238 55.8407L46.5342 54.8588L45.5681 55.0454L45.7577 56.0273ZM46.1381 55.4445L46.8003 58.8732L47.7821 58.6836L47.1199 55.2549L46.1381 55.4445ZM47.386 59.2693L51.3331 58.507L51.1434 57.5252L47.1964 58.2875L47.386 59.2693ZM51.7292 57.9213L51.067 54.4926L50.0852 54.6823L50.7473 58.1109L51.7292 57.9213ZM50.6709 55.0784L51.637 54.8918L51.4474 53.9099L50.4813 54.0965L50.6709 55.0784ZM51.0513 54.4957L52.6146 62.5901L53.5964 62.4005L52.0332 54.306L51.0513 54.4957ZM53.0107 62.0044L52.0445 62.1909L52.2342 63.1728L53.2003 62.9862L53.0107 62.0044ZM52.6303 62.5871L51.9067 58.8403L50.9248 59.0299L51.6484 62.7767L52.6303 62.5871ZM51.3209 58.4442L47.3739 59.2065L47.5635 60.1883L51.5106 59.426L51.3209 58.4442ZM46.9777 59.7922L47.7014 63.539L48.6832 63.3494L47.9596 59.6026L46.9777 59.7922ZM48.0975 62.9532L47.1313 63.1398L47.3209 64.1217L48.2871 63.9351L48.0975 62.9532ZM47.7171 63.5359L46.1538 55.4415L45.1719 55.6311L46.7352 63.7256L47.7171 63.5359ZM56.4518 53.2205L56.357 52.7295L56.0292 52.7928L55.962 53.1199L56.4518 53.2205ZM56.8406 53.1454L57.257 52.8686L57.0727 52.5913L56.7458 52.6544L56.8406 53.1454ZM61.9229 60.7924L62.0177 61.2833L62.7549 61.141L62.3393 60.5156L61.9229 60.7924ZM60.8978 60.9904L60.4832 61.2698L60.6679 61.544L60.9926 61.4813L60.8978 60.9904ZM59.2874 58.6004L59.702 58.321L59.5173 58.0467L59.1926 58.1094L59.2874 58.6004ZM56.2122 59.1943L56.1174 58.7034L55.79 58.7666L55.7226 59.0931L56.2122 59.1943ZM55.6311 62.0075L55.7259 62.4984L56.0533 62.4352L56.1208 62.1087L55.6311 62.0075ZM54.6061 62.2055L54.1163 62.1049L53.9656 62.8384L54.7009 62.6964L54.6061 62.2055ZM57.2535 55.4733L56.8122 55.7083L56.8215 55.7259L56.8323 55.7427L57.2535 55.4733ZM57.1001 55.1852L56.649 55.4008L56.6537 55.4106L56.6588 55.4202L57.1001 55.1852ZM56.9771 54.9278L57.4282 54.7122L56.6827 53.1529L56.4805 54.8693L56.9771 54.9278ZM56.9447 55.203L56.448 55.1445L56.447 55.1544L56.9447 55.203ZM56.9118 55.5393L57.4035 55.6304L57.4074 55.6093L57.4095 55.5879L56.9118 55.5393ZM56.4091 58.2519L55.9175 58.1607L55.7838 58.8819L56.5039 58.7428L56.4091 58.2519ZM58.742 57.8013L58.8368 58.2922L59.56 58.1526L59.1632 57.532L58.742 57.8013ZM56.5466 53.7114L56.9354 53.6363L56.7458 52.6544L56.357 52.7295L56.5466 53.7114ZM56.4242 53.4221L61.5065 61.0692L62.3393 60.5156L57.257 52.8686L56.4242 53.4221ZM61.8281 60.3015L60.803 60.4994L60.9926 61.4813L62.0177 61.2833L61.8281 60.3015ZM61.3125 60.711L59.702 58.321L58.8727 58.8798L60.4832 61.2698L61.3125 60.711ZM59.1926 58.1094L56.1174 58.7034L56.307 59.6852L59.3822 59.0913L59.1926 58.1094ZM55.7226 59.0931L55.1415 61.9064L56.1208 62.1087L56.7019 59.2954L55.7226 59.0931ZM55.5363 61.5166L54.5113 61.7146L54.7009 62.6964L55.7259 62.4984L55.5363 61.5166ZM55.0959 62.3061L56.9416 53.3211L55.962 53.1199L54.1163 62.1049L55.0959 62.3061ZM57.6949 55.2383L57.5414 54.9502L56.6588 55.4202L56.8122 55.7083L57.6949 55.2383ZM57.5512 54.9695L57.4282 54.7122L56.526 55.1435L56.649 55.4008L57.5512 54.9695ZM56.4805 54.8693L56.4481 55.1445L57.4412 55.2615L57.4736 54.9863L56.4805 54.8693ZM56.447 55.1544L56.4142 55.4907L57.4095 55.5879L57.4423 55.2515L56.447 55.1544ZM56.4202 55.4482L55.9175 58.1607L56.9007 58.343L57.4035 55.6304L56.4202 55.4482ZM56.5039 58.7428L58.8368 58.2922L58.6472 57.3104L56.3143 57.7609L56.5039 58.7428ZM59.1632 57.532L57.6748 55.204L56.8323 55.7427L58.3207 58.0706L59.1632 57.532ZM61.852 52.4097L61.7572 51.9188L61.2663 52.0136L61.3611 52.5046L61.852 52.4097ZM62.8182 52.2232L63.3091 52.1283L63.2143 51.6374L62.7233 51.7322L62.8182 52.2232ZM64.2085 59.4221L63.7175 59.5169L63.8124 60.0079L64.3033 59.9131L64.2085 59.4221ZM68.1791 58.6553L68.67 58.5605L68.5752 58.0695L68.0843 58.1644L68.1791 58.6553ZM68.352 59.5507L68.4469 60.0417L68.9378 59.9469L68.843 59.4559L68.352 59.5507ZM63.4153 60.5042L62.9243 60.599L63.0191 61.0899L63.5101 60.9951L63.4153 60.5042ZM61.9468 52.9007L62.913 52.7141L62.7233 51.7322L61.7572 51.9188L61.9468 52.9007ZM62.3272 52.318L63.7175 59.5169L64.6994 59.3273L63.3091 52.1283L62.3272 52.318ZM64.3033 59.9131L68.2739 59.1462L68.0843 58.1644L64.1137 58.9312L64.3033 59.9131ZM67.6882 58.7501L67.8611 59.6456L68.843 59.4559L68.67 58.5605L67.6882 58.7501ZM68.2572 59.0598L63.3205 60.0132L63.5101 60.9951L68.4469 60.0417L68.2572 59.0598ZM63.9062 60.4094L62.3429 52.3149L61.3611 52.5046L62.9243 60.599L63.9062 60.4094ZM68.3185 51.1609L68.2236 50.67L67.7327 50.7648L67.8275 51.2557L68.3185 51.1609ZM69.2846 50.9743L69.7755 50.8795L69.6807 50.3886L69.1898 50.4834L69.2846 50.9743ZM70.6749 58.1733L70.184 58.2681L70.2788 58.759L70.7697 58.6642L70.6749 58.1733ZM74.6456 57.4064L75.1365 57.3116L75.0417 56.8207L74.5507 56.9155L74.6456 57.4064ZM74.8185 58.3019L74.9133 58.7928L75.4042 58.698L75.3094 58.2071L74.8185 58.3019ZM69.8817 59.2553L69.3908 59.3501L69.4856 59.8411L69.9765 59.7462L69.8817 59.2553ZM68.4133 51.6518L69.3794 51.4652L69.1898 50.4834L68.2236 50.67L68.4133 51.6518ZM68.7937 51.0691L70.184 58.2681L71.1658 58.0785L69.7755 50.8795L68.7937 51.0691ZM70.7697 58.6642L74.7404 57.8974L74.5507 56.9155L70.5801 57.6823L70.7697 58.6642ZM74.1546 57.5012L74.3276 58.3967L75.3094 58.2071L75.1365 57.3116L74.1546 57.5012ZM74.7237 57.811L69.7869 58.7644L69.9765 59.7462L74.9133 58.7928L74.7237 57.811ZM70.3726 59.1605L68.8094 51.0661L67.8275 51.2557L69.3908 59.3501L70.3726 59.1605ZM79.506 57.6533L79.4164 57.1614L79.4162 57.1614L79.506 57.6533ZM77.3041 57.5163L77.1364 57.9874L77.1435 57.9898L77.3041 57.5163ZM75.5727 56.3352L75.1899 56.6569L75.1949 56.6626L75.5727 56.3352ZM74.7175 51.8439L74.2447 51.6813L74.244 51.6833L74.7175 51.8439ZM75.8918 50.0771L76.2229 50.4518L76.2243 50.4506L75.8918 50.0771ZM79.9449 49.2944L79.7728 49.7638L79.7772 49.7654L79.9449 49.2944ZM81.6926 50.4968L81.3143 50.8237L81.3161 50.8257L81.6926 50.4968ZM82.5737 54.9953L82.0993 54.8373L82.0978 54.8418L82.5737 54.9953ZM81.4324 56.7434L81.1029 56.3674L81.4324 56.7434ZM80.7733 56.0519L81.1054 56.4258L81.11 56.4216L80.7733 56.0519ZM80.9448 51.1178L80.5617 51.4391L80.5639 51.4417L80.9448 51.1178ZM79.6002 50.1676L79.4197 50.6339L79.429 50.6373L79.6002 50.1676ZM76.5251 50.7615L76.8617 51.1312L76.8662 51.127L76.5251 50.7615ZM75.6428 52.1418L75.1676 51.9863L75.1668 51.9889L75.6428 52.1418ZM76.3323 55.7118L75.9474 56.031L76.3323 55.7118ZM77.651 56.6549L77.4762 57.1234L77.4856 57.1267L77.651 56.6549ZM79.4162 57.1614C78.7131 57.2898 78.0659 57.2467 77.4647 57.0428L77.1435 57.9898C77.9199 58.2532 78.7407 58.3013 79.5959 58.1451L79.4162 57.1614ZM77.4718 57.0453C76.8701 56.831 76.3655 56.4866 75.9506 56.0077L75.1949 56.6626C75.7235 57.2726 76.3731 57.7156 77.1364 57.9873L77.4718 57.0453ZM75.9555 56.0135C75.5499 55.5309 75.2758 54.9454 75.1402 54.2433L74.1583 54.4329C74.3231 55.286 74.6646 56.0319 75.1899 56.6569L75.9555 56.0135ZM75.1402 54.2433L75.0742 53.9016L74.0923 54.0912L74.1583 54.4329L75.1402 54.2433ZM75.0742 53.9016C74.9458 53.2366 74.9866 52.6073 75.191 52.0045L74.244 51.6833C73.9812 52.458 73.9325 53.2638 74.0923 54.0912L75.0742 53.9016ZM75.1904 52.0064C75.4028 51.3884 75.7461 50.8731 76.2229 50.4518L75.5608 49.7024C74.9518 50.2405 74.5122 50.903 74.2447 51.6813L75.1904 52.0064ZM76.2243 50.4506C76.7055 50.0221 77.263 49.7471 77.9062 49.6229L77.7166 48.6411C76.8988 48.799 76.1766 49.1541 75.5593 49.7037L76.2243 50.4506ZM77.9062 49.6229C78.5583 49.497 79.177 49.5453 79.7728 49.7638L80.1171 48.8249C79.3449 48.5417 78.5412 48.4818 77.7166 48.6411L77.9062 49.6229ZM79.7772 49.7654C80.3766 49.9788 80.8871 50.3292 81.3143 50.8237L82.071 50.1699C81.5329 49.5471 80.8782 49.0959 80.1126 48.8233L79.7772 49.7654ZM81.3161 50.8257C81.7368 51.3072 82.0116 51.8741 82.1396 52.537L83.1215 52.3474C82.9613 51.518 82.6108 50.7878 82.0692 50.1678L81.3161 50.8257ZM82.1396 52.537L82.2056 52.8787L83.1875 52.6891L83.1215 52.3474L82.1396 52.537ZM82.2056 52.8787C82.3408 53.5789 82.3021 54.2284 82.0993 54.8373L83.048 55.1534C83.3094 54.3689 83.3526 53.5442 83.1875 52.6891L82.2056 52.8787ZM82.0978 54.8418C81.9006 55.4531 81.5698 55.9582 81.1029 56.3674L81.762 57.1195C82.3682 56.5881 82.7982 55.9279 83.0495 55.1488L82.0978 54.8418ZM81.1029 56.3674C80.6388 56.7742 80.0811 57.0402 79.4164 57.1614L79.5956 58.1452C80.4263 57.9938 81.153 57.6533 81.762 57.1195L81.1029 56.3674ZM79.3925 57.2556C80.0482 57.1289 80.6236 56.8536 81.1054 56.4257L80.4413 55.678C80.1024 55.979 79.694 56.1788 79.2029 56.2737L79.3925 57.2556ZM81.11 56.4216C81.585 55.9891 81.923 55.4583 82.1221 54.8385L81.1701 54.5327C81.0231 54.9901 80.7794 55.3702 80.4367 55.6822L81.11 56.4216ZM82.1221 54.8385C82.3231 54.2129 82.3526 53.5555 82.2213 52.8757L81.2395 53.0653C81.3418 53.5951 81.3151 54.0811 81.1701 54.5327L82.1221 54.8385ZM82.2213 52.8757L82.1553 52.534L81.1735 52.7236L81.2395 53.0653L82.2213 52.8757ZM82.1553 52.534C82.0287 51.8783 81.752 51.2952 81.3257 50.7939L80.5639 51.4417C80.8757 51.8083 81.0786 52.2325 81.1735 52.7236L82.1553 52.534ZM81.3279 50.7965C80.9029 50.2897 80.3824 49.9205 79.7715 49.6978L79.429 50.6373C79.8699 50.7981 80.2458 51.0625 80.5617 51.4391L81.3279 50.7965ZM79.7807 49.7013C79.1705 49.465 78.5323 49.4124 77.8778 49.5388L78.0674 50.5206C78.544 50.4286 78.9909 50.4678 79.4197 50.6338L79.7807 49.7013ZM77.8778 49.5388C77.2297 49.6639 76.6613 49.9504 76.1839 50.3959L76.8662 51.127C77.2034 50.8123 77.6001 50.6109 78.0674 50.5206L77.8778 49.5388ZM76.1884 50.3918C75.7129 50.8248 75.3727 51.3598 75.1676 51.9863L76.118 52.2973C76.2717 51.8279 76.5196 51.4427 76.8617 51.1312L76.1884 50.3918ZM75.1668 51.9889C74.9672 52.6101 74.9323 53.2515 75.0585 53.9046L76.0403 53.715C75.945 53.2213 75.9724 52.7506 76.1189 52.2947L75.1668 51.9889ZM75.0585 53.9046L75.1245 54.2463L76.1063 54.0567L76.0403 53.715L75.0585 53.9046ZM75.1245 54.2463C75.2558 54.9261 75.528 55.5253 75.9474 56.031L76.7172 55.3927C76.4144 55.0276 76.2086 54.5865 76.1063 54.0567L75.1245 54.2463ZM75.9474 56.031C76.363 56.5321 76.8744 56.8988 77.4763 57.1233L77.8258 56.1864C77.3916 56.0244 77.0238 55.7624 76.7172 55.3927L75.9474 56.031ZM77.4856 57.1267C78.0978 57.3414 78.7368 57.3822 79.3925 57.2556L79.2029 56.2737C78.7118 56.3685 78.253 56.3361 77.8165 56.1831L77.4856 57.1267ZM83.4007 48.0036L83.3059 47.5127L82.8072 47.609L82.9114 48.1062L83.4007 48.0036ZM84.4729 47.7966L84.9653 47.7095L84.8768 47.2093L84.3781 47.3056L84.4729 47.7966ZM85.6685 54.5565L85.7633 55.0474L86.2465 54.9541L86.1608 54.4694L85.6685 54.5565ZM84.8084 54.7226L84.319 54.8251L84.4199 55.3069L84.9032 55.2136L84.8084 54.7226ZM85.106 56.3273L85.3861 55.9131L85.106 56.3273ZM84.9399 55.4672L85.3541 55.7473L84.9399 55.4672ZM85.8 55.3011L85.5199 55.7153L85.5262 55.7195L85.5326 55.7235L85.8 55.3011ZM85.9662 56.1612L85.5606 55.8687L85.5562 55.8748L85.552 55.8811L85.9662 56.1612ZM83.4956 48.4946L84.5677 48.2875L84.3781 47.3056L83.3059 47.5127L83.4956 48.4946ZM83.9806 47.8836L85.1761 54.6436L86.1608 54.4694L84.9653 47.7095L83.9806 47.8836ZM85.5737 54.0656L84.7136 54.2317L84.9032 55.2136L85.7633 55.0474L85.5737 54.0656ZM85.2977 54.6201L83.8901 47.9011L82.9114 48.1062L84.319 54.8251L85.2977 54.6201ZM85.4718 55.943C85.4624 55.9448 85.442 55.9509 85.3861 55.9131L84.826 56.7415C85.07 56.9065 85.3566 56.9837 85.6614 56.9248L85.4718 55.943ZM85.3861 55.9131C85.3303 55.8754 85.3284 55.8541 85.3265 55.8447L84.3447 56.0343C84.4036 56.3392 84.5819 56.5764 84.826 56.7415L85.3861 55.9131ZM85.3265 55.8447C85.3219 55.8207 85.3206 55.7968 85.3541 55.7473L84.5258 55.1871C84.3564 55.4375 84.2856 55.7285 84.3447 56.0343L85.3265 55.8447ZM85.3541 55.7473C85.3919 55.6915 85.4131 55.6895 85.4225 55.6877L85.2329 54.7058C84.9281 54.7647 84.6908 54.943 84.5258 55.1871L85.3541 55.7473ZM85.4225 55.6877C85.4465 55.683 85.4704 55.6818 85.5199 55.7153L86.0801 54.8869C85.8298 54.7176 85.5388 54.6467 85.2329 54.7058L85.4225 55.6877ZM85.5326 55.7235C85.5883 55.7588 85.591 55.7794 85.5936 55.7931L86.5755 55.6035C86.5144 55.2873 86.3274 55.0431 86.0675 54.8786L85.5326 55.7235ZM85.5936 55.7931C85.5948 55.7996 85.5946 55.8027 85.5933 55.808C85.5915 55.815 85.5849 55.8351 85.5606 55.8687L86.3717 56.4537C86.5469 56.2108 86.6364 55.9188 86.5755 55.6035L85.5936 55.7931ZM85.552 55.8811C85.5185 55.9306 85.4958 55.9383 85.4718 55.943L85.6614 56.9248C85.9673 56.8657 86.211 56.6917 86.3803 56.4413L85.552 55.8811ZM55.1298 69.8937L55.4545 69.5135L55.2714 69.3571L55.0349 69.4027L55.1298 69.8937ZM59.2134 73.3826L58.8887 73.7628L59.3655 74.1702L59.6564 73.6145L59.2134 73.3826ZM61.7043 68.6239L61.6095 68.133L61.373 68.1787L61.2613 68.3921L61.7043 68.6239ZM62.1167 68.5443L62.6076 68.4495L62.5128 67.9586L62.0218 68.0534L62.1167 68.5443ZM63.7004 76.7448L63.7952 77.2357L64.2861 77.1409L64.1913 76.65L63.7004 76.7448ZM62.7342 76.9314L62.2433 77.0262L62.3381 77.5171L62.8291 77.4223L62.7342 76.9314ZM61.6205 70.9745L62.1175 70.9196L61.933 69.2478L61.1742 70.7489L61.6205 70.9745ZM60.5746 72.8997L60.1406 72.6513L60.1404 72.6518L60.5746 72.8997ZM59.4656 74.7516L59.1617 75.1486L59.5945 75.48L59.8873 75.0202L59.4656 74.7516ZM58.8919 74.3124L58.5853 74.7074L58.588 74.7095L58.8919 74.3124ZM56.7636 72.658L56.4437 73.0423L56.4496 73.0472L56.4557 73.0519L56.7636 72.658ZM56.4992 72.428L56.1433 72.7792L56.153 72.7891L56.1633 72.7984L56.4992 72.428ZM56.2606 72.2052L55.9142 72.5657L55.925 72.5761L55.9365 72.5859L56.2606 72.2052ZM56.0805 72.0322L56.4269 71.6716L55.0378 70.3371L55.6025 72.1787L56.0805 72.0322ZM57.2673 77.9872L57.3621 78.4781L57.853 78.3833L57.7582 77.8924L57.2673 77.9872ZM56.3011 78.1738L55.8102 78.2686L55.905 78.7595L56.3959 78.6647L56.3011 78.1738ZM54.7174 69.9733L54.6226 69.4824L54.1316 69.5772L54.2265 70.0681L54.7174 69.9733ZM54.805 70.2738L58.8887 73.7628L59.5382 73.0025L55.4545 69.5135L54.805 70.2738ZM59.6564 73.6145L62.1473 68.8558L61.2613 68.3921L58.7705 73.1507L59.6564 73.6145ZM61.7991 69.1149L62.2115 69.0352L62.0218 68.0534L61.6095 68.133L61.7991 69.1149ZM61.6257 68.6391L63.2095 76.8396L64.1913 76.65L62.6076 68.4495L61.6257 68.6391ZM63.6056 76.2538L62.6394 76.4404L62.8291 77.4223L63.7952 77.2357L63.6056 76.2538ZM63.2252 76.8365L62.1944 71.4992L61.2125 71.6888L62.2433 77.0262L63.2252 76.8365ZM62.1944 71.4992C62.1759 71.4035 62.1501 71.2152 62.1175 70.9196L61.1235 71.0293C61.156 71.3241 61.1855 71.5489 61.2125 71.6888L62.1944 71.4992ZM61.1742 70.7489C60.8962 71.299 60.5519 71.9329 60.1406 72.6513L61.0085 73.1481C61.4258 72.4192 61.7788 71.7696 62.0667 71.2L61.1742 70.7489ZM60.1404 72.6518C59.7352 73.3613 59.3698 73.9713 59.0439 74.483L59.8873 75.0202C60.2242 74.4914 60.598 73.8669 61.0088 73.1477L60.1404 72.6518ZM59.7695 74.3546L59.1959 73.9154L58.588 74.7095L59.1617 75.1486L59.7695 74.3546ZM59.1985 73.9175C58.0385 73.0169 57.3298 72.466 57.0715 72.2641L56.4557 73.0519C56.7156 73.2551 57.4258 73.8072 58.5853 74.7074L59.1985 73.9175ZM57.0835 72.2738C57.0018 72.2057 56.919 72.1337 56.835 72.0576L56.1633 72.7984C56.2571 72.8835 56.3506 72.9648 56.4437 73.0423L57.0835 72.2738ZM56.8551 72.0768C56.7651 71.9856 56.675 71.9013 56.5847 71.8245L55.9365 72.5859C56.0022 72.6418 56.0712 72.7061 56.1433 72.7792L56.8551 72.0768ZM56.607 71.8446L56.4269 71.6716L55.7341 72.3927L55.9142 72.5657L56.607 71.8446ZM55.6025 72.1787C55.664 72.3792 55.7114 72.5677 55.7455 72.7446L56.7274 72.555C56.6857 72.3391 56.6292 72.1159 56.5586 71.8856L55.6025 72.1787ZM55.7455 72.7446L56.7763 78.082L57.7582 77.8924L56.7274 72.555L55.7455 72.7446ZM57.1725 77.4963L56.2063 77.6828L56.3959 78.6647L57.3621 78.4781L57.1725 77.4963ZM56.7921 78.079L55.2083 69.8785L54.2265 70.0681L55.8102 78.2686L56.7921 78.079ZM54.8122 70.4642L55.2246 70.3846L55.0349 69.4027L54.6226 69.4824L54.8122 70.4642ZM64.4373 68.2061L64.3424 67.7152L63.8515 67.81L63.9463 68.3009L64.4373 68.2061ZM69.7157 67.1867L70.2066 67.0919L70.1118 66.601L69.6209 66.6958L69.7157 67.1867ZM69.8887 68.0822L69.9835 68.5731L70.4744 68.4783L70.3796 67.9873L69.8887 68.0822ZM65.5528 68.9195L65.458 68.4286L64.967 68.5234L65.0618 69.0143L65.5528 68.9195ZM66.0284 71.382L65.5374 71.4768L65.6322 71.9678L66.1232 71.873L66.0284 71.382ZM69.2213 70.7654L69.7123 70.6706L69.6175 70.1796L69.1265 70.2744L69.2213 70.7654ZM69.3943 71.6608L69.4891 72.1518L69.98 72.0569L69.8852 71.566L69.3943 71.6608ZM66.2013 72.2775L66.1065 71.7866L65.6155 71.8814L65.7104 72.3723L66.2013 72.2775ZM66.7702 75.2231L66.2792 75.3179L66.374 75.8088L66.865 75.714L66.7702 75.2231ZM71.3299 74.3424L71.8208 74.2476L71.726 73.7567L71.2351 73.8515L71.3299 74.3424ZM71.5028 75.2379L71.5977 75.7288L72.0886 75.634L71.9938 75.1431L71.5028 75.2379ZM66.0005 76.3005L65.5096 76.3954L65.6044 76.8863L66.0953 76.7915L66.0005 76.3005ZM64.5321 68.697L69.8105 67.6776L69.6209 66.6958L64.3424 67.7152L64.5321 68.697ZM69.2248 67.2815L69.3977 68.177L70.3796 67.9873L70.2066 67.0919L69.2248 67.2815ZM69.7938 67.5912L65.458 68.4286L65.6476 69.4105L69.9835 68.5731L69.7938 67.5912ZM65.0618 69.0143L65.5374 71.4768L66.5193 71.2872L66.0437 68.8247L65.0618 69.0143ZM66.1232 71.873L69.3162 71.2563L69.1265 70.2744L65.9335 70.8911L66.1232 71.873ZM68.7304 70.8602L68.9034 71.7556L69.8852 71.566L69.7123 70.6706L68.7304 70.8602ZM69.2995 71.1699L66.1065 71.7866L66.2961 72.7684L69.4891 72.1518L69.2995 71.1699ZM65.7104 72.3723L66.2792 75.3179L67.2611 75.1282L66.6922 72.1827L65.7104 72.3723ZM66.865 75.714L71.4247 74.8334L71.2351 73.8515L66.6754 74.7321L66.865 75.714ZM70.839 74.4373L71.0119 75.3327L71.9938 75.1431L71.8208 74.2476L70.839 74.4373ZM71.408 74.747L65.9057 75.8096L66.0953 76.7915L71.5977 75.7288L71.408 74.747ZM66.4914 76.2057L64.9282 68.1113L63.9463 68.3009L65.5096 76.3954L66.4914 76.2057ZM71.5941 66.8239L71.4993 66.333L71.0083 66.4278L71.1031 66.9187L71.5941 66.8239ZM72.5602 66.6373L73.0511 66.5425L72.9563 66.0516L72.4654 66.1464L72.5602 66.6373ZM74.1235 74.7318L74.2183 75.2227L74.7092 75.1279L74.6144 74.637L74.1235 74.7318ZM73.1573 74.9184L72.6664 75.0132L72.7612 75.5041L73.2521 75.4093L73.1573 74.9184ZM71.6889 67.3149L72.655 67.1283L72.4654 66.1464L71.4993 66.333L71.6889 67.3149ZM72.0693 66.7322L73.6325 74.8266L74.6144 74.637L73.0511 66.5425L72.0693 66.7322ZM74.0287 74.2408L73.0625 74.4274L73.2521 75.4093L74.2183 75.2227L74.0287 74.2408ZM73.6483 74.8235L72.085 66.7291L71.1031 66.9187L72.6664 75.0132L73.6483 74.8235ZM74.8276 66.0772L74.7327 65.5863L74.2418 65.6811L74.3366 66.1721L74.8276 66.0772ZM75.2399 65.9976L75.564 65.6168L75.381 65.4611L75.1451 65.5067L75.2399 65.9976ZM81.5142 71.3367L81.8962 71.0141L81.8696 70.9826L81.8382 70.9559L81.5142 71.3367ZM81.736 71.5994L81.354 71.922L82.2233 71.4871L81.736 71.5994ZM81.6605 71.2718L81.1698 71.3675L81.1714 71.3758L81.1733 71.3841L81.6605 71.2718ZM80.4564 65.1001L80.3616 64.6092L79.8697 64.7042L79.9656 65.1959L80.4564 65.1001ZM81.4108 64.9158L81.9017 64.821L81.8069 64.3301L81.3159 64.4249L81.4108 64.9158ZM82.9763 73.022L83.0711 73.513L83.562 73.4182L83.4672 72.9272L82.9763 73.022ZM82.4814 73.1176L82.205 73.5342L82.3754 73.6473L82.5763 73.6085L82.4814 73.1176ZM81.6684 72.578L81.3516 72.9648L81.371 72.9807L81.3919 72.9946L81.6684 72.578ZM76.7177 68.5232L76.3818 68.8936L76.3911 68.9021L76.4008 68.91L76.7177 68.5232ZM76.1398 67.9993L76.4757 67.6289L75.2064 66.478L75.6575 68.1309L76.1398 67.9993ZM76.3489 68.7655L76.8398 68.6707L76.8363 68.6521L76.8313 68.6339L76.3489 68.7655ZM77.3797 74.1029L77.4745 74.5938L77.9655 74.499L77.8706 74.0081L77.3797 74.1029ZM76.4136 74.2895L75.9226 74.3843L76.0175 74.8752L76.5084 74.7804L76.4136 74.2895ZM74.9224 66.5682L75.3347 66.4885L75.1451 65.5067L74.7327 65.5863L74.9224 66.5682ZM74.9159 66.3784L81.1902 71.7175L81.8382 70.9559L75.564 65.6168L74.9159 66.3784ZM81.1322 71.6593L81.354 71.922L82.118 71.2768L81.8962 71.0141L81.1322 71.6593ZM82.2233 71.4871L82.1478 71.1595L81.1733 71.3841L81.2488 71.7117L82.2233 71.4871ZM82.1513 71.176L80.9471 65.0044L79.9656 65.1959L81.1698 71.3675L82.1513 71.176ZM80.5512 65.5911L81.5056 65.4068L81.3159 64.4249L80.3616 64.6092L80.5512 65.5911ZM80.9198 65.0106L82.4854 73.1169L83.4672 72.9272L81.9017 64.821L80.9198 65.0106ZM82.8815 72.5311L82.3866 72.6267L82.5763 73.6085L83.0711 73.513L82.8815 72.5311ZM82.7579 72.701L81.9449 72.1614L81.3919 72.9946L82.205 73.5342L82.7579 72.701ZM81.9852 72.1912L77.0345 68.1364L76.4008 68.91L81.3516 72.9648L81.9852 72.1912ZM77.0535 68.1528L76.4757 67.6289L75.804 68.3697L76.3818 68.8936L77.0535 68.1528ZM75.6575 68.1309L75.8666 68.8972L76.8313 68.6339L76.6222 67.8676L75.6575 68.1309ZM75.858 68.8603L76.8888 74.1977L77.8706 74.0081L76.8398 68.6707L75.858 68.8603ZM77.2849 73.612L76.3188 73.7986L76.5084 74.7804L77.4745 74.5938L77.2849 73.612ZM76.9045 74.1947L75.3185 65.9824L74.3366 66.1721L75.9226 74.3843L76.9045 74.1947ZM47.0826 87.7312L46.9878 87.2403L46.4969 87.3351L46.5917 87.826L47.0826 87.7312ZM47.495 87.6516L47.819 87.2708L47.6361 87.1151L47.4002 87.1607L47.495 87.6516ZM53.7693 92.9907L54.1513 92.6681L54.1247 92.6366L54.0933 92.6099L53.7693 92.9907ZM53.9911 93.2534L53.6091 93.576L54.4783 93.1411L53.9911 93.2534ZM53.9156 92.9258L53.4249 93.0215L53.4265 93.0298L53.4284 93.038L53.9156 92.9258ZM52.7115 86.7541L52.6167 86.2632L52.1248 86.3582L52.2207 86.8499L52.7115 86.7541ZM53.6658 86.5698L54.1568 86.475L54.062 85.9841L53.571 86.0789L53.6658 86.5698ZM55.2314 94.676L55.3262 95.167L55.8171 95.0721L55.7223 94.5812L55.2314 94.676ZM54.7365 94.7716L54.46 95.1882L54.6305 95.3013L54.8313 95.2625L54.7365 94.7716ZM53.9235 94.232L53.6066 94.6188L53.6261 94.6347L53.647 94.6486L53.9235 94.232ZM48.9727 90.1772L48.6369 90.5476L48.6462 90.556L48.6559 90.564L48.9727 90.1772ZM48.3949 89.6533L48.7308 89.2829L47.4615 88.132L47.9125 89.7849L48.3949 89.6533ZM48.604 90.4195L49.0949 90.3247L49.0913 90.3061L49.0864 90.2879L48.604 90.4195ZM49.6348 95.7569L49.7296 96.2478L50.2205 96.153L50.1257 95.6621L49.6348 95.7569ZM48.6687 95.9435L48.1777 96.0383L48.2725 96.5292L48.7635 96.4344L48.6687 95.9435ZM47.1774 88.2222L47.5898 88.1425L47.4002 87.1607L46.9878 87.2403L47.1774 88.2222ZM47.171 88.0324L53.4452 93.3715L54.0933 92.6099L47.819 87.2708L47.171 88.0324ZM53.3873 93.3133L53.6091 93.576L54.3731 92.9308L54.1513 92.6681L53.3873 93.3133ZM54.4783 93.1411L54.4028 92.8135L53.4284 93.038L53.5039 93.3657L54.4783 93.1411ZM54.4064 92.83L53.2022 86.6584L52.2207 86.8499L53.4249 93.0215L54.4064 92.83ZM52.8063 87.2451L53.7607 87.0607L53.571 86.0789L52.6167 86.2632L52.8063 87.2451ZM53.1749 86.6646L54.7405 94.7708L55.7223 94.5812L54.1568 86.475L53.1749 86.6646ZM55.1366 94.1851L54.6417 94.2807L54.8313 95.2625L55.3262 95.167L55.1366 94.1851ZM55.013 94.355L54.1999 93.8154L53.647 94.6486L54.46 95.1882L55.013 94.355ZM54.2403 93.8452L49.2896 89.7904L48.6559 90.564L53.6066 94.6188L54.2403 93.8452ZM49.3086 89.8068L48.7308 89.2829L48.0591 90.0237L48.6369 90.5476L49.3086 89.8068ZM47.9125 89.7849L48.1216 90.5511L49.0864 90.2879L48.8773 89.5216L47.9125 89.7849ZM48.1131 90.5143L49.1439 95.8517L50.1257 95.6621L49.0949 90.3247L48.1131 90.5143ZM49.54 95.266L48.5738 95.4526L48.7635 96.4344L49.7296 96.2478L49.54 95.266ZM49.1596 95.8487L47.5736 87.6364L46.5917 87.826L48.1777 96.0383L49.1596 95.8487ZM58.5732 85.4021L58.4784 84.9112L58.1506 84.9745L58.0834 85.3015L58.5732 85.4021ZM58.962 85.327L59.3784 85.0502L59.1941 84.7729L58.8672 84.8361L58.962 85.327ZM64.0443 92.974L64.1391 93.4649L64.8763 93.3226L64.4607 92.6973L64.0443 92.974ZM63.0192 93.172L62.6045 93.4514L62.7893 93.7256L63.114 93.6629L63.0192 93.172ZM61.4088 90.782L61.8234 90.5026L61.6386 90.2284L61.314 90.2911L61.4088 90.782ZM58.3336 91.3759L58.2388 90.885L57.9114 90.9482L57.8439 91.2748L58.3336 91.3759ZM57.7525 94.1891L57.8473 94.6801L58.1747 94.6168L58.2422 94.2903L57.7525 94.1891ZM56.7275 94.3871L56.2377 94.2865L56.087 95.02L56.8223 94.878L56.7275 94.3871ZM59.3749 87.6549L58.9336 87.8899L58.9429 87.9075L58.9536 87.9243L59.3749 87.6549ZM59.2215 87.3668L58.7704 87.5825L58.7751 87.5922L58.7801 87.6018L59.2215 87.3668ZM59.0985 87.1095L59.5496 86.8938L58.8041 85.3346L58.6019 87.051L59.0985 87.1095ZM59.066 87.3846L58.5694 87.3261L58.5684 87.336L59.066 87.3846ZM59.0332 87.7209L59.5248 87.812L59.5288 87.7909L59.5309 87.7695L59.0332 87.7209ZM58.5305 90.4335L58.0388 90.3423L57.9052 91.0635L58.6253 90.9244L58.5305 90.4335ZM60.8634 89.9829L60.9582 90.4738L61.6814 90.3342L61.2846 89.7136L60.8634 89.9829ZM58.668 85.893L59.0568 85.8179L58.8672 84.8361L58.4784 84.9112L58.668 85.893ZM58.5456 85.6038L63.6278 93.2508L64.4607 92.6973L59.3784 85.0502L58.5456 85.6038ZM63.9494 92.4831L62.9244 92.6811L63.114 93.6629L64.1391 93.4649L63.9494 92.4831ZM63.4338 92.8926L61.8234 90.5026L60.9941 91.0614L62.6045 93.4514L63.4338 92.8926ZM61.314 90.2911L58.2388 90.885L58.4284 91.8668L61.5036 91.2729L61.314 90.2911ZM57.8439 91.2748L57.2628 94.088L58.2422 94.2903L58.8233 91.477L57.8439 91.2748ZM57.6577 93.6982L56.6326 93.8962L56.8223 94.878L57.8473 94.6801L57.6577 93.6982ZM57.2172 94.4877L59.0629 85.5027L58.0834 85.3015L56.2377 94.2865L57.2172 94.4877ZM59.8162 87.4199L59.6628 87.1318L58.7801 87.6018L58.9336 87.8899L59.8162 87.4199ZM59.6726 87.1511L59.5496 86.8938L58.6474 87.3251L58.7704 87.5825L59.6726 87.1511ZM58.6019 87.051L58.5695 87.3261L59.5626 87.4431L59.595 87.168L58.6019 87.051ZM58.5684 87.336L58.5356 87.6724L59.5309 87.7695L59.5637 87.4332L58.5684 87.336ZM58.5416 87.6298L58.0388 90.3423L59.0221 90.5246L59.5248 87.812L58.5416 87.6298ZM58.6253 90.9244L60.9582 90.4738L60.7685 89.492L58.4357 89.9425L58.6253 90.9244ZM61.2846 89.7136L59.7962 87.3856L58.9536 87.9243L60.4421 90.2523L61.2846 89.7136ZM64.3771 84.4034L64.7018 84.0233L64.5187 83.8668L64.2822 83.9125L64.3771 84.4034ZM68.4607 87.8923L68.136 88.2725L68.6128 88.6799L68.9037 88.1242L68.4607 87.8923ZM70.9516 83.1337L70.8568 82.6428L70.6203 82.6884L70.5086 82.9018L70.9516 83.1337ZM71.364 83.054L71.8549 82.9592L71.7601 82.4683L71.2691 82.5631L71.364 83.054ZM72.9477 91.2545L73.0425 91.7454L73.5334 91.6506L73.4386 91.1597L72.9477 91.2545ZM71.9816 91.4411L71.4906 91.5359L71.5854 92.0268L72.0764 91.932L71.9816 91.4411ZM70.8678 85.4842L71.3648 85.4294L71.1803 83.7576L70.4215 85.2587L70.8678 85.4842ZM69.8219 87.4095L69.3879 87.1611L69.3877 87.1615L69.8219 87.4095ZM68.7129 89.2614L68.409 89.6584L68.8418 89.9897L69.1346 89.53L68.7129 89.2614ZM68.1392 88.8222L67.8326 89.2171L67.8353 89.2192L68.1392 88.8222ZM66.0109 87.1677L65.691 87.552L65.6969 87.5569L65.703 87.5617L66.0109 87.1677ZM65.7465 86.9377L65.3906 87.2889L65.4003 87.2988L65.4106 87.3081L65.7465 86.9377ZM65.5079 86.7149L65.1615 87.0755L65.1723 87.0859L65.1838 87.0956L65.5079 86.7149ZM65.3278 86.5419L65.6742 86.1813L64.2851 84.8468L64.8498 86.6885L65.3278 86.5419ZM66.5146 92.4969L66.6094 92.9879L67.1003 92.893L67.0055 92.4021L66.5146 92.4969ZM65.5484 92.6835L65.0575 92.7783L65.1523 93.2693L65.6432 93.1744L65.5484 92.6835ZM63.9647 84.483L63.8699 83.9921L63.3789 84.0869L63.4738 84.5779L63.9647 84.483ZM64.0523 84.7836L68.136 88.2725L68.7855 87.5122L64.7018 84.0233L64.0523 84.7836ZM68.9037 88.1242L71.3946 83.3656L70.5086 82.9018L68.0178 87.6605L68.9037 88.1242ZM71.0464 83.6246L71.4588 83.545L71.2691 82.5631L70.8568 82.6428L71.0464 83.6246ZM70.873 83.1489L72.4568 91.3493L73.4386 91.1597L71.8549 82.9592L70.873 83.1489ZM72.8529 90.7636L71.8867 90.9502L72.0764 91.932L73.0425 91.7454L72.8529 90.7636ZM72.4725 91.3463L71.4417 86.0089L70.4598 86.1985L71.4906 91.5359L72.4725 91.3463ZM71.4417 86.0089C71.4232 85.9132 71.3974 85.725 71.3648 85.4294L70.3708 85.539C70.4033 85.8338 70.4328 86.0586 70.4598 86.1985L71.4417 86.0089ZM70.4215 85.2587C70.1435 85.8087 69.7992 86.4426 69.3879 87.1611L70.2558 87.6579C70.6731 86.929 71.0261 86.2793 71.314 85.7098L70.4215 85.2587ZM69.3877 87.1615C68.9825 87.871 68.6171 88.4811 68.2912 88.9928L69.1346 89.53C69.4715 89.0011 69.8453 88.3766 70.2561 87.6574L69.3877 87.1615ZM69.0168 88.8643L68.4432 88.4252L67.8353 89.2192L68.409 89.6584L69.0168 88.8643ZM68.4458 88.4272C67.2858 87.5266 66.5771 86.9757 66.3188 86.7738L65.703 87.5617C65.9629 87.7648 66.6731 88.3169 67.8326 89.2171L68.4458 88.4272ZM66.3308 86.7835C66.2491 86.7155 66.1663 86.6434 66.0823 86.5673L65.4106 87.3081C65.5044 87.3932 65.5979 87.4745 65.691 87.552L66.3308 86.7835ZM66.1024 86.5865C66.0124 86.4954 65.9223 86.4111 65.832 86.3342L65.1838 87.0956C65.2495 87.1516 65.3185 87.2158 65.3906 87.2889L66.1024 86.5865ZM65.8543 86.3543L65.6742 86.1813L64.9814 86.9025L65.1615 87.0755L65.8543 86.3543ZM64.8498 86.6885C64.9113 86.8889 64.9587 87.0775 64.9928 87.2544L65.9747 87.0647C65.933 86.8489 65.8765 86.6257 65.8059 86.3953L64.8498 86.6885ZM64.9928 87.2544L66.0236 92.5917L67.0055 92.4021L65.9747 87.0647L64.9928 87.2544ZM66.4198 92.006L65.4536 92.1926L65.6432 93.1744L66.6094 92.9879L66.4198 92.006ZM66.0394 92.5887L64.4556 84.3882L63.4738 84.5779L65.0575 92.7783L66.0394 92.5887ZM64.0595 84.974L64.4719 84.8943L64.2822 83.9125L63.8699 83.9921L64.0595 84.974ZM73.6846 82.7159L73.5897 82.2249L73.0988 82.3197L73.1936 82.8107L73.6846 82.7159ZM78.963 81.6964L79.4539 81.6016L79.3591 81.1107L78.8682 81.2055L78.963 81.6964ZM79.136 82.5919L79.2308 83.0828L79.7217 82.988L79.6269 82.4971L79.136 82.5919ZM74.8001 83.4293L74.7053 82.9383L74.2143 83.0332L74.3091 83.5241L74.8001 83.4293ZM75.2757 85.8918L74.7847 85.9866L74.8795 86.4775L75.3705 86.3827L75.2757 85.8918ZM78.4687 85.2751L78.9596 85.1803L78.8648 84.6894L78.3738 84.7842L78.4687 85.2751ZM78.6416 86.1706L78.7364 86.6615L79.2273 86.5667L79.1325 86.0758L78.6416 86.1706ZM75.4486 86.7872L75.3538 86.2963L74.8629 86.3911L74.9577 86.882L75.4486 86.7872ZM76.0175 89.7328L75.5265 89.8276L75.6213 90.3185L76.1123 90.2237L76.0175 89.7328ZM80.5772 88.8522L81.0681 88.7574L80.9733 88.2664L80.4824 88.3612L80.5772 88.8522ZM80.7501 89.7476L80.845 90.2386L81.3359 90.1437L81.2411 89.6528L80.7501 89.7476ZM75.2478 90.8103L74.7569 90.9051L74.8517 91.396L75.3426 91.3012L75.2478 90.8103ZM73.7794 83.2068L79.0578 82.1874L78.8682 81.2055L73.5897 82.2249L73.7794 83.2068ZM78.4721 81.7912L78.645 82.6867L79.6269 82.4971L79.4539 81.6016L78.4721 81.7912ZM79.0411 82.101L74.7053 82.9383L74.8949 83.9202L79.2308 83.0828L79.0411 82.101ZM74.3091 83.5241L74.7847 85.9866L75.7666 85.797L75.291 83.3345L74.3091 83.5241ZM75.3705 86.3827L78.5635 85.766L78.3738 84.7842L75.1808 85.4008L75.3705 86.3827ZM77.9777 85.3699L78.1507 86.2654L79.1325 86.0758L78.9596 85.1803L77.9777 85.3699ZM78.5468 85.6796L75.3538 86.2963L75.5434 87.2782L78.7364 86.6615L78.5468 85.6796ZM74.9577 86.882L75.5265 89.8276L76.5084 89.638L75.9395 86.6924L74.9577 86.882ZM76.1123 90.2237L80.672 89.3431L80.4824 88.3612L75.9227 89.2419L76.1123 90.2237ZM80.0863 88.947L80.2592 89.8424L81.2411 89.6528L81.0681 88.7574L80.0863 88.947ZM80.6553 89.2567L75.153 90.3194L75.3426 91.3012L80.845 90.2386L80.6553 89.2567ZM75.7387 90.7155L74.1755 82.621L73.1936 82.8107L74.7569 90.9051L75.7387 90.7155ZM84.2587 80.6737L84.1639 80.1828L83.673 80.2776L83.7678 80.7685L84.2587 80.6737ZM85.2248 80.4871L85.7158 80.3923L85.621 79.9014L85.13 79.9962L85.2248 80.4871ZM86.7881 88.5815L86.8829 89.0725L87.3738 88.9776L87.279 88.4867L86.7881 88.5815ZM85.822 88.7681L85.331 88.8629L85.4258 89.3539L85.9168 89.2591L85.822 88.7681ZM84.3535 81.1646L85.3196 80.978L85.13 79.9962L84.1639 80.1828L84.3535 81.1646ZM84.7339 80.5819L86.2972 88.6763L87.279 88.4867L85.7158 80.3923L84.7339 80.5819ZM86.6933 88.0906L85.7271 88.2772L85.9168 89.2591L86.8829 89.0725L86.6933 88.0906ZM86.3129 88.6733L84.7496 80.5789L83.7678 80.7685L85.331 88.8629L86.3129 88.6733ZM89.9315 87.9378L89.823 88.4259L89.9315 87.9378ZM88.7254 87.3885L88.4191 87.7837L88.4245 87.7878L88.7254 87.3885ZM87.96 86.3997L87.6829 85.9836L87.3385 86.2129L87.4994 86.5941L87.96 86.3997ZM88.7614 85.8661L89.2139 85.6533L88.9671 85.1284L88.4843 85.4499L88.7614 85.8661ZM89.7761 86.8801L89.9817 86.4243L89.7761 86.8801ZM92.2929 86.3695L92.6891 86.6747L92.693 86.6695L92.2929 86.3695ZM90.9448 83.8189L90.8149 84.3018L90.8194 84.3029L90.9448 83.8189ZM89.364 83.3542L89.1894 83.8227L89.196 83.8252L89.2028 83.8275L89.364 83.3542ZM88.4122 82.7925L88.0716 83.1585L88.0772 83.1637L88.0829 83.1688L88.4122 82.7925ZM88.0022 80.7329L87.5446 80.5314L87.5435 80.5339L88.0022 80.7329ZM88.7023 79.8644L88.9993 80.2666L89.0031 80.2638L88.7023 79.8644ZM90.7668 79.4168L90.6373 79.8997L90.6451 79.9018L90.6529 79.9036L90.7668 79.4168ZM91.5784 79.8222L91.2446 80.1946L91.2527 80.2016L91.5784 79.8222ZM92.0056 80.7053L92.0689 81.2012L92.5171 81.1441L92.5055 80.6924L92.0056 80.7053ZM91.0752 80.8238L90.576 80.7967L90.5435 81.3956L91.1385 81.3198L91.0752 80.8238ZM90.9009 80.4908L90.5768 80.8716L90.5908 80.8835L90.6057 80.8944L90.9009 80.4908ZM90.448 80.2972L90.3499 80.7875L90.3596 80.7894L90.3693 80.791L90.448 80.2972ZM89.0869 80.7801L89.47 81.1013L89.4711 81.1L89.0869 80.7801ZM89.2235 82.1836L88.9164 82.5784L88.9257 82.5853L89.2235 82.1836ZM89.92 82.5624L89.7416 83.0297L89.7535 83.0339L89.92 82.5624ZM90.8947 82.8631L91.0294 82.3816L90.8947 82.8631ZM91.3598 82.9932L91.5112 82.5167L91.5029 82.5141L91.4945 82.5117L91.3598 82.9932ZM92.8869 83.7494L92.5605 84.1283L92.566 84.1328L92.8869 83.7494ZM93.4137 86.2875L92.9508 86.0985L92.9482 86.1052L93.4137 86.2875ZM92.5969 87.3741L92.2896 86.9797L92.5969 87.3741ZM91.2204 87.4607C90.8137 87.5393 90.4217 87.5345 90.0399 87.4497L89.823 88.4259C90.3436 88.5416 90.8741 88.5461 91.41 88.4426L91.2204 87.4607ZM90.0399 87.4497C89.6552 87.3642 89.3195 87.2101 89.0264 86.9892L88.4245 87.7878C88.837 88.0987 89.3053 88.3109 89.823 88.4259L90.0399 87.4497ZM89.0318 86.9934C88.7528 86.777 88.5517 86.5159 88.4207 86.2054L87.4994 86.5941C87.6989 87.0671 88.0082 87.4651 88.4191 87.7837L89.0318 86.9934ZM88.2372 86.8159L89.0385 86.2822L88.4843 85.4499L87.6829 85.9836L88.2372 86.8159ZM88.3089 86.0788C88.5786 86.6524 89.0018 87.0792 89.5704 87.3358L89.9817 86.4243C89.6399 86.2701 89.3867 86.0209 89.2139 85.6533L88.3089 86.0788ZM89.5704 87.3358C90.1122 87.5803 90.6722 87.6562 91.2371 87.5471L91.0475 86.5653C90.7011 86.6322 90.3504 86.5907 89.9817 86.4243L89.5704 87.3358ZM91.2371 87.5471C91.8334 87.432 92.3283 87.1431 92.6891 86.6746L91.8968 86.0645C91.6973 86.3234 91.4251 86.4923 91.0475 86.5653L91.2371 87.5471ZM92.693 86.6695C93.0625 86.1767 93.1794 85.6018 93.0607 84.9869L92.0788 85.1765C92.1482 85.5356 92.0806 85.8193 91.8929 86.0696L92.693 86.6695ZM93.0607 84.9869C92.9758 84.5472 92.7674 84.1716 92.4167 83.9043L91.8106 84.6997C91.9375 84.7965 92.0333 84.9406 92.0788 85.1765L93.0607 84.9869ZM92.4167 83.9043C92.0972 83.6609 91.6293 83.4798 91.0703 83.3349L90.8194 84.3029C91.3411 84.4382 91.6524 84.5792 91.8106 84.6997L92.4167 83.9043ZM91.0747 83.3361C90.3905 83.152 89.876 83.0004 89.5253 82.8809L89.2028 83.8275C89.5846 83.9576 90.124 84.1158 90.8149 84.3017L91.0747 83.3361ZM89.5387 82.8857C89.2324 82.7716 88.9682 82.6146 88.7415 82.4163L88.0829 83.1688C88.4054 83.451 88.7757 83.6686 89.1894 83.8227L89.5387 82.8857ZM88.7529 82.4265C88.571 82.2572 88.4445 82.0313 88.3848 81.7223L87.4029 81.9119C87.498 82.4042 87.7171 82.8285 88.0716 83.1585L88.7529 82.4265ZM88.3848 81.7223C88.3283 81.4297 88.3571 81.1713 88.4609 80.9319L87.5435 80.5339C87.3542 80.9704 87.3108 81.4348 87.4029 81.9119L88.3848 81.7223ZM88.4599 80.9344C88.5766 80.6691 88.7536 80.4481 88.9993 80.2666L88.4052 79.4622C88.0234 79.7442 87.7337 80.1021 87.5446 80.5314L88.4599 80.9344ZM89.0031 80.2638C89.2612 80.0694 89.5508 79.9409 89.8781 79.8777L89.6885 78.8958C89.2146 78.9873 88.7835 79.1773 88.4015 79.465L89.0031 80.2638ZM89.8781 79.8777C90.1449 79.8261 90.3959 79.835 90.6373 79.8997L90.8963 78.9339C90.5019 78.8281 90.0972 78.8169 89.6885 78.8958L89.8781 79.8777ZM90.6529 79.9036C90.9073 79.9632 91.0988 80.0637 91.2446 80.1945L91.9123 79.45C91.6245 79.1919 91.2749 79.0222 90.8808 78.9299L90.6529 79.9036ZM91.2527 80.2016C91.4028 80.3304 91.4735 80.4602 91.4996 80.5952L92.4814 80.4056C92.4074 80.0222 92.2034 79.6998 91.9042 79.4429L91.2527 80.2016ZM91.4996 80.5952C91.498 80.5869 91.4994 80.5916 91.5013 80.6179C91.5031 80.6415 91.5047 80.6744 91.5058 80.7181L92.5055 80.6924C92.503 80.5955 92.4977 80.4899 92.4814 80.4056L91.4996 80.5952ZM91.9424 80.2093L91.012 80.3278L91.1385 81.3198L92.0689 81.2012L91.9424 80.2093ZM91.5745 80.8509C91.5924 80.5214 91.4307 80.2589 91.1962 80.0873L90.6057 80.8944C90.619 80.9041 90.6074 80.8992 90.594 80.8737C90.5875 80.8611 90.5822 80.8467 90.579 80.8316C90.5759 80.8167 90.5756 80.8046 90.576 80.7967L91.5745 80.8509ZM91.2251 80.1101C91.0243 79.9392 90.7824 79.8442 90.5267 79.8034L90.3693 80.791C90.4835 80.8092 90.5436 80.8432 90.5768 80.8716L91.2251 80.1101ZM90.5461 79.8069C90.3078 79.7592 90.0695 79.7511 89.8379 79.7958L90.0275 80.7777C90.11 80.7617 90.2153 80.7606 90.3499 80.7875L90.5461 79.8069ZM89.8379 79.7958C89.3828 79.8837 88.9972 80.1063 88.7026 80.4602L89.4711 81.1C89.613 80.9296 89.7913 80.8233 90.0275 80.7777L89.8379 79.7958ZM88.7037 80.4589C88.4076 80.8121 88.2741 81.2334 88.3623 81.69L89.3441 81.5004C89.3201 81.3757 89.3423 81.2537 89.47 81.1013L88.7037 80.4589ZM88.3623 81.69C88.4323 82.0525 88.6261 82.3523 88.9165 82.5783L89.5305 81.789C89.4182 81.7016 89.3651 81.6092 89.3441 81.5004L88.3623 81.69ZM88.9257 82.5853C89.1733 82.7689 89.446 82.9167 89.7416 83.0296L90.0983 82.0953C89.8838 82.0134 89.6921 81.9087 89.5213 81.782L88.9257 82.5853ZM89.7535 83.0339C90.0215 83.1285 90.358 83.2321 90.7599 83.3446L91.0294 82.3816C90.6389 82.2723 90.3256 82.1754 90.0864 82.091L89.7535 83.0339ZM90.7599 83.3446L91.225 83.4747L91.4945 82.5117L91.0294 82.3816L90.7599 83.3446ZM91.2084 83.4698C91.8659 83.6787 92.3018 83.9054 92.5606 84.1283L93.2132 83.3705C92.8073 83.021 92.2252 82.7436 91.5112 82.5167L91.2084 83.4698ZM92.566 84.1328C92.8075 84.3349 92.9723 84.6134 93.0472 85.0017L94.0291 84.8121C93.916 84.2263 93.6466 83.7332 93.2078 83.3659L92.566 84.1328ZM93.0472 85.0017C93.124 85.3993 93.0889 85.7604 92.9508 86.0985L93.8766 86.4766C94.0926 85.9478 94.1404 85.3885 94.0291 84.8121L93.0472 85.0017ZM92.9482 86.1052C92.8126 86.4512 92.5961 86.7409 92.2896 86.9797L92.9043 87.7685C93.3485 87.4223 93.6765 86.9876 93.8793 86.4699L92.9482 86.1052ZM92.2896 86.9797C91.9781 87.2224 91.6241 87.3828 91.2204 87.4607L91.41 88.4426C91.9646 88.3355 92.4651 88.1108 92.9043 87.7685L92.2896 86.9797ZM95.8102 79.3716L96.3011 79.2768L96.2063 78.7859L95.7154 78.8807L95.8102 79.3716ZM93.1356 79.8882L92.6447 79.983L92.7395 80.4739L93.2304 80.3791L93.1356 79.8882ZM92.9627 78.9927L92.8679 78.5018L92.3769 78.5966L92.4717 79.0875L92.9627 78.9927ZM99.278 77.773L99.7689 77.6782L99.6741 77.1873L99.1832 77.2821L99.278 77.773ZM99.4509 78.6685L99.5457 79.1594L100.037 79.0646L99.9418 78.5737L99.4509 78.6685ZM96.7763 79.185L96.6815 78.6941L96.1906 78.7889L96.2854 79.2798L96.7763 79.185ZM98.1667 86.384L98.2615 86.8749L98.7524 86.7801L98.6576 86.2892L98.1667 86.384ZM97.2005 86.5706L96.7096 86.6654L96.8044 87.1563L97.2953 87.0615L97.2005 86.5706ZM95.7154 78.8807L93.0408 79.3972L93.2304 80.3791L95.905 79.8626L95.7154 78.8807ZM93.6265 79.7934L93.4536 78.8979L92.4717 79.0875L92.6447 79.983L93.6265 79.7934ZM93.0575 79.4836L99.3728 78.264L99.1832 77.2821L92.8679 78.5018L93.0575 79.4836ZM98.787 77.8679L98.96 78.7633L99.9418 78.5737L99.7689 77.6782L98.787 77.8679ZM99.3561 78.1776L96.6815 78.6941L96.8711 79.676L99.5457 79.1594L99.3561 78.1776ZM96.2854 79.2798L97.6757 86.4788L98.6576 86.2892L97.2673 79.0902L96.2854 79.2798ZM98.0718 85.8931L97.1057 86.0797L97.2953 87.0615L98.2615 86.8749L98.0718 85.8931ZM97.6914 86.4758L96.3011 79.2768L95.3193 79.4664L96.7096 86.6654L97.6914 86.4758Z" fill="#262C20"/>
<defs>
<filter id="filter0_d_233_5676" x="10.3984" y="11.491" width="121.863" height="123.339" filterUnits="userSpaceOnUse" color-interpolation-filters="sRGB">
<feFlood flood-opacity="0" result="BackgroundImageFix"/>
<feColorMatrix in="SourceAlpha" type="matrix" values="0 0 0 0 0 0 0 0 0 0 0 0 0 0 0 0 0 0 127 0" result="hardAlpha"/>
<feOffset dx="4" dy="4"/>
<feComposite in2="hardAlpha" operator="out"/>
<feColorMatrix type="matrix" values="0 0 0 0 0.14902 0 0 0 0 0.172549 0 0 0 0 0.12549 0 0 0 1 0"/>
<feBlend mode="normal" in2="BackgroundImageFix" result="effect1_dropShadow_233_5676"/>
<feBlend mode="normal" in="SourceGraphic" in2="effect1_dropShadow_233_5676" result="shape"/>
</filter>
</defs>
</svg>
