<!-- Generated by IcoMoon.io -->
<svg version="1.1" xmlns="http://www.w3.org/2000/svg" width="1024" height="1024" viewBox="0 0 1024 1024">
<title></title>
<g id="icomoon-ignore">
</g>
<path fill="#f2f6e6" d="M605.814 512.835l398.725-398.737c25.948-25.936 25.948-67.871 0-93.808-25.938-25.936-67.871-25.936-93.809 0l-398.736 398.737-398.726-398.737c-25.948-25.936-67.871-25.936-93.807 0-25.948 25.936-25.948 67.872 0 93.808l398.725 398.737-398.725 398.735c-25.948 25.938-25.948 67.876 0 93.809 12.926 12.938 29.921 19.441 46.904 19.441s33.966-6.502 46.904-19.441l398.726-398.735 398.736 398.735c12.938 12.938 29.921 19.441 46.904 19.441s33.966-6.502 46.904-19.441c25.948-25.933 25.948-67.871 0-93.809l-398.725-398.735z"></path>
</svg>
