<?xml version="1.0" standalone="no"?>
<!DOCTYPE svg PUBLIC "-//W3C//DTD SVG 20010904//EN"
 "http://www.w3.org/TR/2001/REC-SVG-20010904/DTD/svg10.dtd">
<svg version="1.0" xmlns="http://www.w3.org/2000/svg"
 width="300.000000pt" height="38.000000pt" viewBox="0 0 300.000000 38.000000"
 preserveAspectRatio="xMidYMid meet">

<g transform="translate(0.000000,38.000000) scale(0.100000,-0.100000)"
fill="#000000" stroke="none">
<path d="M1745 361 c-80 -48 -114 -136 -79 -208 18 -35 23 -38 67 -41 26 -2
47 -1 47 1 0 3 -7 18 -15 33 -31 60 -4 184 39 184 57 0 83 -130 40 -197 -14
-23 -14 -23 36 -23 45 0 51 3 66 32 21 41 15 129 -13 166 -50 68 -128 90 -188
53z"/>
<path d="M98 343 l20 -28 -34 -88 c-19 -49 -43 -102 -54 -117 -11 -15 -20 -31
-20 -34 0 -3 32 -6 71 -6 l71 0 -26 31 c-14 17 -24 35 -20 40 8 14 104 11 104
-3 0 -7 -12 -25 -27 -40 l-27 -28 137 0 137 0 0 63 0 62 -29 -48 c-15 -26 -32
-52 -37 -57 -18 -18 -63 43 -99 135 l-35 90 20 28 21 27 -96 0 -96 0 19 -27z
m66 -141 c-35 -5 -38 1 -23 45 l12 38 18 -40 18 -40 -25 -3z"/>
<path d="M380 308 l1 -63 24 40 c33 54 33 85 0 85 -24 0 -25 -2 -25 -62z"/>
<path d="M860 308 c0 -34 2 -59 4 -57 1 2 19 30 39 62 l37 57 -40 0 -40 0 0
-62z"/>
<path d="M1028 343 l19 -28 -34 -91 c-19 -49 -45 -103 -58 -120 l-24 -29 -1
75 -1 75 -25 -47 c-13 -27 -29 -48 -34 -48 -6 0 -10 -13 -10 -30 l0 -30 111 0
110 0 -25 33 c-14 19 -23 37 -19 40 3 4 28 7 55 7 56 0 60 -11 21 -52 l-27
-28 97 0 c53 0 97 4 97 8 0 5 -10 17 -21 28 -22 20 -35 45 -75 151 l-23 61 20
26 20 26 -96 0 -96 0 19 -27z m66 -141 c-35 -5 -38 1 -23 45 l12 38 18 -40 18
-40 -25 -3z"/>
<path d="M1290 362 c0 -5 12 -19 26 -33 25 -23 26 -28 22 -122 l-3 -97 52 0
51 0 -5 40 c-5 37 -4 40 18 40 34 0 49 -12 58 -46 6 -25 12 -29 49 -32 27 -2
42 1 42 8 0 19 -31 80 -41 80 -5 0 -9 5 -9 10 0 6 6 10 13 10 22 0 47 34 47
62 0 73 -32 88 -195 88 -69 0 -125 -4 -125 -8z m225 -87 c0 -28 -3 -30 -42
-33 l-43 -3 0 36 0 36 43 -3 c39 -3 42 -5 42 -33z"/>
<path d="M2090 290 c0 -5 6 -10 13 -10 12 0 11 -15 -1 -87 -8 -49 -20 -91 -26
-96 -6 -4 25 -6 69 -5 77 3 80 4 83 28 l3 25 -16 -22 c-11 -16 -26 -23 -51
-23 -19 0 -34 5 -34 12 0 36 24 146 36 166 14 22 14 22 -31 22 -25 0 -45 -4
-45 -10z"/>
<path d="M2304 289 c-10 -17 13 -36 27 -22 12 12 4 33 -11 33 -5 0 -12 -5 -16
-11z"/>
<path d="M2275 209 c-23 -15 -25 -19 -8 -14 21 6 21 5 8 -46 -19 -72 -8 -87
36 -49 19 16 20 19 5 13 -16 -5 -18 -3 -13 18 14 50 19 99 11 99 -5 0 -22 -9
-39 -21z"/>
<path d="M2369 210 c-19 -16 -20 -19 -5 -13 21 7 21 13 0 -87 -11 -50 14 -35
40 24 38 86 64 91 44 8 -6 -29 -8 -55 -5 -59 4 -3 19 0 34 7 21 10 24 14 12
17 -15 4 -16 9 -3 56 8 29 14 55 14 60 0 15 -30 6 -59 -19 l-31 -26 0 26 c0
31 -10 33 -41 6z"/>
<path d="M2555 205 c-30 -29 -32 -49 -5 -68 11 -8 17 -17 12 -21 -4 -4 -7 -12
-7 -17 0 -5 -11 -15 -25 -22 -55 -28 -24 -83 42 -74 70 9 89 49 43 85 -32 25
-31 33 5 54 21 12 30 25 30 43 0 17 6 25 18 26 21 2 -33 16 -66 18 -13 0 -34
-10 -47 -24z m62 -1 c8 -20 -13 -64 -31 -64 -20 0 -27 26 -16 55 11 28 37 33
47 9z m-21 -138 c15 -12 17 -18 8 -33 -14 -23 -53 -23 -67 -1 -8 12 -7 21 2
32 17 20 32 20 57 2z"/>
<path d="M2699 210 c-20 -16 -20 -19 -5 -13 16 5 18 3 12 -12 -4 -11 -10 -38
-13 -62 -7 -52 7 -56 49 -16 l28 27 0 -27 c0 -32 10 -34 41 -7 17 14 19 18 7
14 -22 -7 -22 -4 -4 64 8 28 11 52 8 52 -16 -1 -30 -18 -41 -51 -11 -35 -46
-77 -56 -67 -3 2 0 20 5 39 12 42 13 79 1 79 -5 0 -19 -9 -32 -20z"/>
<path d="M2915 218 c-36 -20 -55 -52 -55 -95 0 -51 12 -54 52 -16 l28 27 0
-27 c0 -32 10 -34 41 -7 19 16 20 19 5 13 -20 -7 -20 -12 0 85 5 25 3 28 -23
29 -15 2 -37 -3 -48 -9z m35 -25 c0 -23 -36 -83 -50 -83 -13 0 -13 29 1 69 12
34 49 45 49 14z"/>
</g>
</svg>
