<svg aria-hidden="true" style="position: absolute; width: 0; height: 0; overflow: hidden;" version="1.1" xmlns="http://www.w3.org/2000/svg" xmlns:xlink="http://www.w3.org/1999/xlink">
  <defs>
    <symbol id="icon-logo" viewBox="0 0 253 32">
    <path fill="#020202" style="fill: var(--color1, #020202)" d="M224.624 13.109c-1.021 0.077-2.095 0.23-3.041-0.153-2.044-0.843-3.807-0.255-5.622 0.613-1.891 0.894-2.964 2.939-2.658 5.009 0.23 1.584 1.099 2.223 3.782 2.709-0.664 0.409-1.073 0.716-1.507 0.946-0.69 0.358-0.946 0.92-0.511 1.559 0.409 0.613 0.128 0.741-0.408 0.92-1.099 0.358-2.147 0.818-2.99 1.635-1.635 1.584-1.405 3.705 0.511 4.753 2.428 1.329 6.849 0.92 8.944-0.818 1.738-1.431 1.815-3.654 0.102-5.111-0.92-0.792-1.993-1.457-2.938-2.223-0.818-0.664-0.767-1.252 0.179-1.738 0.588-0.332 1.252-0.537 1.865-0.818 1.891-0.818 3.092-2.479 2.862-4.498-0.128-1.278 0.153-1.661 1.38-1.405 0.792 0.153 0.766-0.486 0.818-0.971 0.102-0.639-0.435-0.434-0.767-0.409zM218.594 26.653c0.741 0.562 1.431 1.15 1.201 2.198-0.23 1.124-1.073 1.661-2.121 1.942-0.307 0.077-0.638 0.128-0.945 0.153-1.048 0-1.866-0.153-2.632-0.613-1.048-0.562-1.507-1.84-1.022-2.964 0.46-1.227 1.559-1.738 2.632-2.223 0.843-0.383 1.252 0.485 1.865 0.792 0.358 0.204 0.69 0.434 1.022 0.716zM220.024 18.553c-0.536 1.329-1.507 1.942-2.632 1.661-1.329-0.332-1.405-1.405-1.405-2.453 0-1.073 0.307-2.121 0.843-3.067 0.511-0.818 1.277-1.227 2.275-0.971 0.996 0.23 1.329 0.971 1.405 1.866 0.077 1.022-0.103 2.019-0.486 2.964z"></path>
    <path fill="#020202" style="fill: var(--color1, #020202)" d="M202.418 17.581c0.741 0.051 0.844-0.46 1.074-0.767 1.226-1.533 2.581-2.939 4.318-3.859 0.664-0.358 1.457-0.741 2.147-0.204 0.691 0.511 0.435 1.329 0.281 2.019-0.536 2.377-1.15 4.753-1.712 7.13-0.077 0.358-0.307 0.792 0.051 1.073 0.435 0.307 0.792-0.102 1.15-0.307 0.179-0.102 0.358-0.23 0.536-0.332 0.179-0.128 0.384-0.204 0.563 0.026 0.128 0.153 0.128 0.383-0.025 0.511-0.026 0.026-0.026 0.026-0.051 0.051-1.277 0.894-2.453 1.993-4.038 2.325-0.971 0.204-1.329-0.332-1.329-1.201 0-1.278 0.435-2.479 0.741-3.705 0.333-1.354 0.691-2.709 0.997-4.063 0.077-0.358 0.23-0.818-0.153-1.048-0.435-0.255-0.818 0.026-1.15 0.281-1.533 1.278-2.709 2.913-3.424 4.804-0.46 1.175-0.818 2.402-1.022 3.654-0.102 0.613-2.453 1.508-2.914 1.124-0.357-0.307-0.077-0.639 0-0.92 0.819-2.53 1.457-5.111 1.84-7.743 0.051-0.383 0.307-0.92-0.127-1.175-0.409-0.256-0.767 0.23-1.125 0.383-0.332 0.153-0.664 0.767-1.048 0.23-0.307-0.434 0.256-0.639 0.537-0.843 1.021-0.818 2.044-1.687 3.245-2.223 1.202-0.562 1.713-0.179 1.56 1.099-0.128 1.227-0.435 2.479-0.92 3.68z"></path>
    <path fill="#020202" style="fill: var(--color1, #020202)" d="M233.619 20.495c-1.252 1.15-2.248 2.453-3.527 3.501-0.562 0.511-1.226 0.92-1.942 1.201-1.176 0.383-1.917-0.128-1.917-1.38 0-1.38 0.563-2.632 0.843-3.961 0.256-1.201 0.537-2.377 0.819-3.578 0.077-0.409 0.28-0.894-0.077-1.201-0.435-0.358-0.767 0.128-1.125 0.281-0.153 0.077-0.307 0.153-0.435 0.255-0.179 0.102-0.383 0.23-0.562-0.026-0.153-0.179-0.153-0.434 0.025-0.588 0.025-0.026 0.051-0.051 0.077-0.051 1.252-0.792 2.403-1.763 3.833-2.274 1.201-0.409 1.738 0.026 1.507 1.278-0.383 2.019-0.92 4.038-1.379 6.056-0.153 0.664-0.307 1.303-0.435 1.968-0.051 0.281-0.102 0.613 0.179 0.818 0.358 0.256 0.664 0 0.92-0.179 1.176-0.818 1.942-1.993 2.683-3.194 0.997-1.712 1.687-3.603 2.019-5.571 0.103-0.537 2.403-1.482 2.811-1.15 0.358 0.281 0.077 0.639 0 0.946-0.69 2.402-1.379 4.779-1.865 7.232-0.077 0.332-0.127 0.664-0.179 0.997s-0.153 0.741 0.153 0.946c0.332 0.23 0.639-0.051 0.92-0.23 0.205-0.128 0.409-0.281 0.614-0.434 0.179-0.128 0.383-0.23 0.562 0 0.205 0.256 0.077 0.46-0.153 0.639-1.124 0.818-2.172 1.789-3.501 2.274-1.022 0.383-1.585-0.026-1.482-1.124 0.102-1.175 0.383-2.3 0.613-3.45z"></path>
    <path fill="#010101" style="fill: var(--color2, #010101)" d="M180.568 24.762c-1.917 0-3.832 0-5.749 0-0.281 0-0.639 0.128-0.691-0.307-0.051-0.358 0.205-0.537 0.537-0.588 0.971-0.128 1.175-0.818 1.303-1.61 0.716-4.242 1.405-8.51 2.147-12.752 0.179-1.048-0.153-1.508-1.226-1.508-0.358 0-0.997 0.23-0.997-0.434 0-0.767 0.664-0.434 1.074-0.46 2.095-0.026 4.165-0.026 6.26-0.026 0.333 0 0.869-0.23 0.869 0.383 0 0.562-0.511 0.511-0.843 0.486-1.15-0.077-1.559 0.511-1.738 1.533-0.741 4.319-1.533 8.637-2.351 12.956-0.153 0.767 0 1.073 0.844 1.022 1.482-0.077 2.964-0.077 4.472-0.102 1.15-0.026 1.943-0.46 2.147-1.712 0.077-0.383 0.179-0.741 0.358-1.073 0.103-0.23 0.409-0.332 0.639-0.23 0.255 0.102 0.255 0.307 0.23 0.511-0.23 1.15-0.46 2.325-0.716 3.475-0.127 0.588-0.664 0.409-1.048 0.409-1.84 0.026-3.654 0-5.494 0v0.026h-0.026z"></path>
    <path fill="#020202" style="fill: var(--color1, #020202)" d="M252.504 22.284c-0.23-0.256-0.46-0.051-0.664 0.077-0.179 0.128-0.358 0.23-0.536 0.332-0.358 0.153-0.716 0.613-1.124 0.281-0.333-0.256-0.179-0.716-0.103-1.073 0.563-2.632 1.15-5.264 1.738-7.896 0.077-0.383 0.511-0.818 0.102-1.15-0.358-0.307-0.69 0.153-1.022 0.307-0.179 0.102-0.408 0.128-0.613 0.051-2.734-1.303-4.856-0.026-6.823 1.661-2.837 2.453-3.245 5.775-3.041 9.225 0.077 1.099 0.996 1.482 2.095 1.073 1.048-0.383 1.891-1.099 2.683-1.891 0.946-0.946 1.635-2.096 2.684-3.067-0.23 1.175-0.511 2.325-0.639 3.526-0.179 1.38 0.536 1.917 1.815 1.354 1.175-0.511 2.147-1.329 3.194-2.044 0.281-0.23 0.536-0.434 0.255-0.767zM248.543 16.253c-0.716 2.402-2.045 4.574-3.859 6.286-0.307 0.281-0.588 0.639-1.073 0.562-0.307-0.051-0.435-0.511-0.383-1.405 0.255-2.070 0.792-4.114 1.559-6.082 0.332-0.869 0.92-1.508 1.942-1.584 1.815-0.077 2.326 0.511 1.815 2.223z"></path>
    <path fill="#020202" style="fill: var(--color1, #020202)" d="M190.661 23.459c0.23-1.891 0.946-3.833 1.38-5.852 0.077-0.23 0.128-0.486 0.179-0.741 0.026-0.562 0.588-1.278 0.077-1.661-0.536-0.383-1.048 0.332-1.559 0.562-0.307 0.128-0.638 0.664-0.971 0.256-0.358-0.434 0.205-0.664 0.486-0.843 1.176-0.894 2.35-1.814 3.731-2.377s2.019-0.128 1.712 1.303c-0.511 2.351-1.149 4.676-1.712 7.002-0.051 0.153-0.102 0.332-0.128 0.485 0 0.486-0.485 1.073 0.051 1.406 0.486 0.307 0.894-0.281 1.354-0.486 0.333-0.128 0.664-0.818 1.048-0.256 0.332 0.511-0.333 0.69-0.639 0.894-0.92 0.664-1.891 1.252-2.913 1.814-1.432 0.69-2.173 0.179-2.096-1.508z"></path>
    <path fill="#090909" style="fill: var(--color3, #090909)" d="M196.924 8.024c0.025 1.227-0.716 2.147-1.661 2.147-0.996 0.026-1.457-0.537-1.482-1.482-0.025-1.073 0.741-1.942 1.738-1.917 0.894 0.026 1.354 0.511 1.405 1.252z"></path>
    <path fill="#000" style="fill: var(--color4, #000)" d="M29.95 25.529l-4.677-5.315-5.775-14.745 3.297-4.6h-16.278l3.22 4.6-5.673 14.745-4.063 5.903h12.88l-4.165-5.162 0.613-1.738h7.947l0.613 1.738-4.779 5.188h17.377l-0.537-0.613zM10.682 15.026l2.428-6.849 2.607 6.849h-5.034z"></path>
    <path fill="#000" style="fill: var(--color4, #000)" d="M54.074 0.843l-12.701 20.265h7.283l4.804-9.225v14.234h-23.842l12.675-20.801h-6.21l-4.421 7.232v-11.704h22.411z"></path>
    <path fill="#000" style="fill: var(--color4, #000)" d="M79.27 0.843l-12.701 20.265h7.283l4.804-9.225v14.234h-23.842l12.65-20.776h-6.21l-4.421 7.232v-11.73h22.437z"></path>
    <path fill="#000" style="fill: var(--color4, #000)" d="M108.427 25.606l-4.753-5.392-5.775-14.771 3.296-4.6h-16.303l3.219 4.6-5.673 14.771-3.808 5.52-0.256 0.383h12.88l-4.14-5.162 0.613-1.738h7.948l0.613 1.738-4.779 5.188h17.377l-0.46-0.537zM89.057 15.026l2.428-6.849 2.606 6.849h-5.034z"></path>
    <path fill="#000" style="fill: var(--color4, #000)" d="M135.081 22.462c-0.664-2.607-1.354-4.472-2.070-5.648-0.741-1.175-1.84-2.095-3.117-2.658 3.987-0.843 5.98-2.888 5.98-6.082 0.025-3.297-2.249-6.159-5.469-6.849l-3.22-0.383-2.53 0.026h-16.712l5.059 5.903v13.493l-4.625 5.366-0.435 0.511h17.275l-5.060-5.877v-3.833h3.347c1.508 0 2.479 0.537 2.888 1.635 0.664 1.712 1.405 4.421 2.249 8.075h9.787l-3.347-3.68zM126.061 11.397l-1.405 0.026h-4.523v-5.826h4.523c1.457 0 2.428 0.204 2.913 0.613s0.741 1.227 0.741 2.428c0.051 1.84-0.715 2.76-2.248 2.76z"></path>
    <path fill="#000" style="fill: var(--color4, #000)" d="M161.555 4.268c-2.58-2.837-5.596-4.268-9.097-4.268-3.654 0-6.771 1.405-9.404 4.242-2.581 2.709-4.012 6.338-3.935 10.094 0 3.45 1.329 6.491 3.96 9.123 2.658 2.632 5.725 3.935 9.2 3.935 3.552 0 6.644-1.303 9.225-3.884s3.884-5.673 3.884-9.225c0.077-3.705-1.303-7.309-3.833-10.017zM155.805 20.035c-0.895 1.61-2.070 2.428-3.552 2.428-1.457 0-2.632-0.818-3.527-2.428s-1.329-3.782-1.329-6.465c0-2.709 0.46-4.906 1.354-6.619s2.070-2.555 3.501-2.555c1.431 0 2.606 0.869 3.501 2.581s1.354 3.91 1.354 6.619c0.026 2.658-0.408 4.83-1.303 6.44z"></path>
    <path fill="#000" style="fill: var(--color4, #000)" d="M111.209-3.322h51.783c1.86 0 3.368 1.508 3.368 3.368v31.85c0 1.86-1.508 3.368-3.368 3.368h-51.783c-1.86 0-3.368-1.508-3.368-3.368v-31.85c0-1.86 1.508-3.368 3.368-3.368z"></path>
    <path fill="#000" style="fill: var(--color4, #000)" d="M3.623-19.677h100.847c1.86 0 3.368 1.508 3.368 3.368v64.56c0 1.86-1.508 3.368-3.368 3.368h-100.847c-1.86 0-3.368-1.508-3.368-3.368v-64.56c0-1.86 1.508-3.368 3.368-3.368z"></path>
    </symbol>
    <symbol id="icon-humburger" viewBox="0 0 40 32">
    <path stroke-linejoin="miter" stroke-linecap="round" stroke-miterlimit="4" stroke-width="5.3333" d="M2.667 2.667h34.667"></path>
    <path stroke-linejoin="miter" stroke-linecap="round" stroke-miterlimit="4" stroke-width="5.3333" d="M2.667 16h34.667"></path>
    <path stroke-linejoin="miter" stroke-linecap="round" stroke-miterlimit="4" stroke-width="5.3333" d="M2.667 29.333h34.667"></path>
    </symbol>
    <symbol id="icon-close-modal" viewBox="0 0 32 32">
      <path d="M23.733 10.304l-1.504-1.504-5.963 5.963-5.963-5.963-1.504 1.504 5.963 5.963-5.963 5.963 1.504 1.504 5.963-5.963 5.963 5.963 1.504-1.504-5.963-5.963 5.963-5.963z"></path>
    </symbol>
  </defs>
</svg>