<svg width="734" height="398" fill="none" xmlns="http://www.w3.org/2000/svg"><g clip-path="url(#a)"><path d="M182 340.2c87.37 0 158.2-70.83 158.2-158.2 0-87.37-70.83-158.2-158.2-158.2C94.63 23.8 23.8 94.63 23.8 182c0 87.37 70.83 158.2 158.2 158.2Z" fill="#262C20"/><path d="M213.3 227.2c-1.8-.5-3.2-1.3-4.2-2.4-1-1.1-1.9-2.7-2.8-4.7L167.8 127l-20.1 7.6 6.2 13.9-25.4 64.9c-1.4 3.6-2.7 6.4-4 8.3-1.2 1.9-2.9 3.2-5.1 4.2-2.1.9-5.3 1.7-9.5 2.4v5h41.6v-5c-4.8-.7-8.4-1.6-10.8-2.6-2.3-1-3.7-2.5-4.1-4.3-.3-1.9.1-4.5 1.2-7.8l3.9-10.3H172l5.3 14.5c1.2 3 1.5 5.2 1.1 6.7-.5 1.4-1.8 2.4-3.9 2.9-2.1.5-5.2.8-9.1.9v5h55.5v-5c-3.2-.2-5.8-.6-7.6-1.1Zm-68.6-31.5 12.2-31.9h.6l11.7 31.9h-24.5Zm76.7 37.6v-5.1l56.2-91.1h-36.7c-2.7 4.8-5.1 9.2-7 13.2-1.9 4-3.3 7.4-4.2 10.2l-5.6-.3 6.9-30.4h78.1v4.9L252.5 226h38.9c2.3-3.4 4.3-6.5 6-9.3 1.7-2.9 3.2-5.8 4.6-8.7 1.4-2.9 2.8-6.2 4.1-9.8l5.6.3-8.4 35h-81.9v-.2Zm98.3 0v-5.1l56.2-91.1h-36.7c-2.7 4.8-5.1 9.2-7 13.2-1.9 4-3.3 7.4-4.2 10.2l-5.6-.3 6.9-30.4h78.1v4.9L350.8 226h38.9c2.3-3.4 4.3-6.5 6-9.3 1.7-2.9 3.2-5.8 4.6-8.7 1.4-2.9 2.8-6.2 4.1-9.8l5.6.3-8.4 35h-81.9v-.2Zm195.4-6.1c-1.8-.5-3.2-1.3-4.2-2.4-1-1.1-1.9-2.7-2.8-4.7L469.6 127l-20.1 7.6 6.2 13.9-25.4 64.9c-1.4 3.6-2.7 6.4-4 8.3-1.2 1.9-2.9 3.2-5.1 4.2-2.1.9-5.3 1.7-9.5 2.4v5h41.6v-5c-4.8-.7-8.4-1.6-10.8-2.6-2.3-1-3.7-2.5-4.1-4.3-.3-1.9.1-4.5 1.2-7.8l3.9-10.3h30.2l5.3 14.5c1.2 3 1.5 5.2 1.1 6.7-.5 1.4-1.8 2.4-3.9 2.9-2.1.5-5.2.8-9.1.9v5h55.5v-5c-3.2-.2-5.7-.6-7.5-1.1Zm-68.6-31.5 12.2-31.9h.6l11.7 31.9h-24.5Zm170.2 30-25.9-40.3c5.9-2.1 10.5-5.4 13.8-9.8 3.3-4.4 5-9.9 5-16.4 0-6.4-1.5-11.8-4.6-16.1-3-4.4-7.3-7.7-12.6-9.9-5.4-2.3-11.6-3.4-18.7-3.4h-48.5v4.9l11.5 2.9v87.9l-11.5 3v5h50v-5l-15.4-3v-37.1h5.4l27.1 45.1H629v-5l-12.3-2.8Zm-31.8-59.5c-.8 2.7-2.2 5.2-4.2 7.4-1.9 2.2-4.3 4-7.3 5.3-3 1.3-6.9 2-11.8 2h-1.9V137h2.8c2.8 0 5 .1 6.8.4 1.8.2 3.5.7 5 1.3 3.5 1.4 6.3 3.7 8.5 7 2.2 3.2 3.3 7.3 3.3 12.1 0 2.9-.4 5.7-1.2 8.4Zm145.1-5.3a48.2 48.2 0 0 0-10.1-16.9c-4.4-4.9-9.9-8.7-16.5-11.5-6.5-2.8-14-4.1-22.4-4.1-8.4 0-15.9 1.4-22.4 4.1-6.5 2.8-12 6.6-16.5 11.5-4.4 4.8-7.8 10.5-10.1 16.9-2.3 6.4-3.4 13.3-3.4 20.6 0 7.3 1.1 14.2 3.4 20.6 2.3 6.4 5.7 12 10.1 16.9 4.5 4.9 10 8.8 16.5 11.6 6.5 2.8 13.9 4.1 22.4 4.1 8.5 0 15.9-1.4 22.4-4.1a47.8 47.8 0 0 0 26.6-28.5c2.3-6.4 3.5-13.3 3.5-20.6 0-7.3-1.2-14.2-3.5-20.6Zm-23.7 32.4c-.4 4.2-1.2 8.3-2.3 12.2-1 4-2.5 7.5-4.5 10.8-2 3.2-4.5 5.8-7.5 7.8-3 1.9-6.7 2.9-11.1 2.9-4.3 0-8-1-11.1-2.9-3-2-5.5-4.5-7.4-7.8-1.9-3.2-3.4-6.8-4.5-10.8-1.1-4-1.8-8.1-2.3-12.2-.4-4.2-.6-8.1-.6-11.8 0-3.7.2-7.6.6-11.7.4-4.1 1.2-8.2 2.3-12.1 1.1-3.9 2.6-7.5 4.5-10.7 2-3.2 4.4-5.8 7.4-7.7 3-1.9 6.7-2.9 11.1-2.9 4.4 0 8.1 1 11.2 2.9 3.1 1.9 5.6 4.5 7.5 7.7 2 3.2 3.5 6.7 4.5 10.7 1.1 4 1.8 8 2.3 12.1.4 4.1.6 8 .6 11.7-.1 3.7-.3 7.6-.7 11.8Zm-588.1 203v-5l11.5-2.7v-88.5l-11.5-2.5v-4.9h47.3v4.9l-12.6 2.7v88.3h33.5c2.7-3.7 5-7.5 6.9-11.2 1.9-3.8 3.8-8 5.4-12.6h7l-5.7 31.5h-81.8Zm94 0v-5l11.5-2.9v-88.2l-11.5-2.7v-4.9h45.9v4.9l-11.3 2.7v88.2l11.3 2.9v5h-45.9Zm144.5 1.4-66.3-83.6v74.5l11.8 2.7v5h-33.1v-5l12-2.7v-88.5l-11.9-2.5v-4.9h36.5l51 63.9v-56.4l-12-2.5v-4.9h33.2v4.9l-12 2.5v97.6h-9.2v-.1Zm82.3 0c-10.5 0-19.7-2.2-27.5-6.5a46.17 46.17 0 0 1-18.3-18.1c-4.4-7.8-6.5-16.8-6.5-27.1 0-8 1.3-15.4 3.9-22.1 2.6-6.7 6.3-12.5 11.2-17.3a50.3 50.3 0 0 1 17.1-11.4c6.6-2.7 13.9-4 21.8-4 6 0 11.6.7 16.9 2.2 5.3 1.5 9.6 3.5 12.9 6.1h.5l5.9-6.9h4.4v32.9h-6.1c-3.1-6.4-6.2-11.6-9.3-15.4-3.1-3.8-6.5-6.6-10.2-8.2-3.6-1.7-7.8-2.6-12.5-2.6-10.2 0-17.9 3.8-23 11.5-5.1 7.6-7.6 19.2-7.6 34.6 0 15.5 2.2 26.7 6.5 33.8 4.3 7 11 10.5 20.1 10.5 3.9 0 7.4-.7 10.6-2.1 3.2-1.4 5.6-3.3 7.1-5.6.6-.9 1-1.9 1.2-2.9.2-1 .3-2.5.3-4.6v-22.8l-12.1-2.6v-4.9h47.2v4.9l-12 2.6v33.5c-2.8 2.3-6.6 4.4-11.2 6.3-4.7 1.9-9.7 3.3-15.2 4.4-5.6 1.3-10.9 1.8-16.1 1.8Zm113.6 0c-8.1 0-15.2-1.2-21.5-3.7-6.3-2.5-11.2-6.1-14.7-10.7-2.1-2.6-3.6-5.6-4.5-9.2-.9-3.5-1.4-8.1-1.4-13.7v-60.2l-11.4-2.5v-4.9h46.6v4.9l-11.8 2.5v60.2c0 9.2 2 16.3 6.1 21.4 4.1 5 9.9 7.5 17.3 7.5 8.3 0 14.5-2.8 18.5-8.4 2.1-2.9 3.6-6.7 4.6-11.4 1-4.8 1.4-11 1.4-18.8v-50.5l-11.9-2.5v-4.9H603v4.9l-11.9 2.5v58.1c0 5.1-.5 9.8-1.6 14.1-1 4.2-2.6 7.9-4.6 11.1-3.1 4.8-7.3 8.3-12.7 10.7-5.1 2.3-11.7 3.5-19.6 3.5Zm149-7.5c-1.8-.5-3.2-1.3-4.2-2.4-1-1.1-1.9-2.7-2.8-4.7L656.1 290l-20.1 7.6 6.2 13.9-25.4 64.9c-1.4 3.6-2.7 6.4-4 8.3-1.2 1.9-2.9 3.2-5.1 4.2-2.1.9-5.3 1.7-9.5 2.4v5h41.6v-5c-4.8-.7-8.5-1.6-10.8-2.6-2.4-1-3.7-2.5-4.1-4.3-.3-1.9.1-4.5 1.2-7.8l3.9-10.3h30.2l5.3 14.5c1.2 3 1.5 5.2 1.1 6.7-.5 1.4-1.8 2.4-3.9 2.9-2.1.5-5.1.8-9 .9v5h55.5v-5c-3.3-.2-5.8-.6-7.6-1.1Zm-68.7-31.5 12.2-31.9h.5l11.7 31.9h-24.4Z" fill="#F2F6E6"/><path d="M209.8 224.3c-1.8-.5-3.2-1.3-4.2-2.4-1-1.1-1.9-2.7-2.8-4.7L164.3 124l-20.1 7.6 6.2 13.9-25.4 65c-1.4 3.6-2.7 6.4-4 8.3a11 11 0 0 1-5.1 4.1c-2.1.9-5.3 1.7-9.5 2.5v5H148v-5c-4.8-.7-8.4-1.6-10.8-2.6-2.3-1.1-3.7-2.5-4.1-4.4-.3-1.9.1-4.5 1.2-7.8l3.9-10.3h30.2l5.3 14.6c1.2 3 1.5 5.2 1.1 6.7-.5 1.4-1.8 2.4-3.9 2.9-2.1.5-5.2.8-9.1.9v5h55.5v-5c-3.1-.2-5.7-.6-7.5-1.1Zm-68.6-31.5 12.2-31.9h.6l11.7 31.9h-24.5Zm76.7 37.6v-5.1l56.2-91.1h-36.7c-2.7 4.8-5.1 9.2-7 13.2-1.9 4-3.3 7.4-4.2 10.2l-5.6-.3 6.9-30.4h78.1v4.9L249.1 223H288c2.3-3.4 4.3-6.5 6-9.3 1.7-2.9 3.2-5.8 4.6-8.7 1.4-2.9 2.8-6.2 4.1-9.8l5.6.3-8.4 35h-82v-.1Zm98.3 0v-5.1l56.2-91.1h-36.7c-2.7 4.8-5.1 9.2-7 13.2-1.9 4-3.3 7.4-4.2 10.2l-5.6-.3 6.9-30.4h78.1v4.9L347.3 223h38.9c2.3-3.4 4.3-6.5 6-9.3 1.7-2.9 3.2-5.8 4.6-8.7 1.4-2.9 2.8-6.2 4.1-9.8l5.6.3-8.4 35h-81.9v-.1Zm195.4-6.1c-1.8-.5-3.2-1.3-4.2-2.4-1-1.1-1.9-2.7-2.8-4.7L466.1 124l-20.1 7.6 6.2 13.9-25.4 64.9c-1.4 3.6-2.7 6.4-4 8.3a11 11 0 0 1-5.1 4.1c-2.1.9-5.3 1.7-9.5 2.5v5h41.6v-5c-4.8-.7-8.4-1.6-10.8-2.6-2.3-1.1-3.7-2.5-4.1-4.4-.3-1.9.1-4.5 1.2-7.8l3.9-10.3h30.2l5.3 14.6c1.2 3 1.5 5.2 1.1 6.7-.5 1.4-1.8 2.4-3.9 2.9-2.1.5-5.2.8-9.1.9v5h55.5v-5c-3.2-.1-5.7-.5-7.5-1ZM443 192.8l12.2-31.9h.6l11.7 31.9H443Zm170.2 30-25.9-40.3c5.9-2.1 10.5-5.4 13.8-9.8 3.3-4.4 5-9.9 5-16.4 0-6.4-1.5-11.8-4.6-16.1-3-4.4-7.3-7.7-12.6-9.9-5.4-2.3-11.6-3.4-18.7-3.4h-48.5v4.9l11.5 2.9v87.9l-11.5 3v5h50v-5l-15.4-3v-37.1h5.4l27.1 45.1h36.7v-5l-12.3-2.8Zm-31.8-59.5c-.8 2.7-2.2 5.2-4.2 7.4-1.9 2.2-4.3 4-7.3 5.3-3 1.3-6.9 2-11.8 2h-1.9v-43.9h2.8c2.8 0 5 .1 6.8.4 1.8.2 3.5.6 5 1.3 3.5 1.4 6.3 3.7 8.5 7 2.2 3.2 3.3 7.3 3.3 12.1 0 2.8-.4 5.7-1.2 8.4Zm145.1-5.3a48.2 48.2 0 0 0-10.1-16.9c-4.4-4.9-9.9-8.7-16.5-11.5-6.5-2.8-14-4.1-22.4-4.1-8.4 0-15.9 1.4-22.4 4.1-6.5 2.8-12 6.6-16.5 11.5-4.4 4.9-7.8 10.5-10.1 16.9-2.3 6.4-3.4 13.3-3.4 20.6 0 7.3 1.1 14.2 3.4 20.6 2.3 6.4 5.7 12 10.1 16.9 4.5 4.9 10 8.7 16.5 11.6 6.5 2.8 13.9 4.1 22.4 4.1 8.5 0 15.9-1.4 22.4-4.1a47.8 47.8 0 0 0 26.6-28.5c2.3-6.4 3.5-13.3 3.5-20.6 0-7.3-1.2-14.2-3.5-20.6Zm-23.7 32.4c-.4 4.2-1.2 8.3-2.3 12.2-1 4-2.5 7.5-4.5 10.8-2 3.2-4.5 5.8-7.5 7.8-3 1.9-6.7 2.8-11.1 2.8-4.3 0-8-1-11.1-2.8-3-2-5.5-4.5-7.4-7.8-1.9-3.2-3.4-6.8-4.5-10.8-1.1-4-1.8-8.1-2.3-12.2-.4-4.2-.6-8.1-.6-11.8 0-3.7.2-7.6.6-11.7.4-4.1 1.2-8.2 2.3-12.1 1.1-3.9 2.6-7.5 4.5-10.7 2-3.2 4.4-5.8 7.4-7.7 3-1.9 6.7-2.9 11.1-2.9 4.4 0 8.1 1 11.2 2.9 3.1 1.9 5.6 4.5 7.5 7.7 2 3.2 3.5 6.7 4.5 10.7 1.1 3.9 1.8 8 2.3 12.1.4 4.1.6 8 .6 11.7-.1 3.7-.3 7.6-.7 11.8Zm-588.1 203v-5l11.5-2.7v-88.5l-11.5-2.5v-4.9H162v4.9l-12.6 2.7v88.3h33.5c2.7-3.7 5-7.5 6.9-11.2 1.9-3.8 3.8-8 5.4-12.6h7l-5.7 31.5h-81.8Zm94 0v-5l11.5-2.9v-88.2l-11.5-2.7v-4.9h45.9v4.9l-11.3 2.7v88.2l11.3 2.9v5h-45.9Zm144.5 1.4-66.3-83.6v74.5l11.8 2.7v5h-33.1v-5l12-2.7v-88.5l-11.9-2.5v-4.9h36.5l51 63.9v-56.4l-12-2.5v-4.9h33.2v4.9l-12 2.5v97.6h-9.2v-.1Zm82.3 0c-10.5 0-19.7-2.2-27.5-6.5a46.17 46.17 0 0 1-18.3-18.1c-4.4-7.8-6.5-16.8-6.5-27.1 0-8 1.3-15.4 3.9-22.1 2.6-6.7 6.3-12.5 11.2-17.3a50.3 50.3 0 0 1 17.1-11.4c6.6-2.7 13.9-4 21.8-4 6 0 11.6.7 16.9 2.2 5.3 1.5 9.6 3.5 12.9 6.1h.5l5.9-6.9h4.4v32.9h-6.1c-3.1-6.4-6.2-11.6-9.3-15.4-3.1-3.8-6.5-6.6-10.2-8.2-3.6-1.7-7.8-2.6-12.5-2.6-10.2 0-17.9 3.8-23 11.5-5.1 7.6-7.6 19.2-7.6 34.6 0 15.5 2.2 26.7 6.5 33.8 4.3 7 11 10.5 20.1 10.5 3.9 0 7.4-.7 10.6-2.1 3.2-1.4 5.6-3.3 7.1-5.6.6-.9 1-1.9 1.2-2.9.2-1 .3-2.5.3-4.6V349l-12.1-2.6v-4.9H490v4.9l-12 2.6v33.5c-2.8 2.3-6.6 4.4-11.2 6.3-4.7 1.9-9.7 3.3-15.2 4.4-5.6 1.1-10.9 1.6-16.1 1.6Zm113.6 0c-8.1 0-15.2-1.2-21.5-3.7-6.3-2.5-11.2-6.1-14.7-10.7-2.1-2.6-3.6-5.6-4.5-9.2-.9-3.5-1.4-8.1-1.4-13.7v-60.2l-11.4-2.5v-4.9h46.6v4.9l-11.8 2.5v60.2c0 9.2 2 16.3 6.1 21.4 4.1 5 9.9 7.5 17.3 7.5 8.3 0 14.5-2.8 18.5-8.4 2.1-2.9 3.6-6.7 4.6-11.4 1-4.8 1.4-11 1.4-18.8v-50.5l-11.9-2.5v-4.9h33.1v4.9l-11.9 2.5v58.1c0 5.1-.5 9.8-1.6 14.1-1 4.2-2.6 7.9-4.6 11.1-3.1 4.8-7.3 8.3-12.7 10.7-5.1 2.3-11.7 3.5-19.6 3.5Zm149-7.5c-1.8-.5-3.2-1.3-4.2-2.4-1-1.1-1.9-2.7-2.8-4.7L652.6 287l-20.1 7.6 6.2 13.9-25.4 64.9c-1.4 3.6-2.7 6.4-4 8.3a11 11 0 0 1-5.1 4.1c-2.1.9-5.3 1.7-9.5 2.5v5h41.6v-5c-4.8-.7-8.5-1.6-10.8-2.6-2.4-1.1-3.7-2.5-4.1-4.4-.3-1.9.1-4.5 1.2-7.8l3.9-10.3h30.2l5.3 14.6c1.2 3 1.5 5.2 1.1 6.7-.5 1.4-1.8 2.4-3.9 2.9-2.1.5-5.1.8-9 .9v5h55.5v-5c-3.3-.1-5.8-.5-7.6-1Zm-68.7-31.5 12.2-31.9h.5l11.7 31.9h-24.4Z" fill="#262C20"/><path d="M209.8 224.3c-1.8-.5-3.2-1.3-4.2-2.4-1-1.1-1.9-2.7-2.8-4.7L164.3 124l-20.1 7.6 6.2 13.9-25.4 65c-1.4 3.6-2.7 6.4-4 8.3-1.2 1.9-2.9 3.2-5.1 4.1-2.1.9-5.3 1.7-9.5 2.5v5H148v-5c-4.8-.7-8.4-1.6-10.8-2.6-2.4-1-3.7-2.5-4.1-4.4-.3-1.9.1-4.5 1.2-7.8l3.9-10.3h30.2l5.3 14.5c1.2 3 1.5 5.2 1.1 6.7-.4 1.4-1.8 2.4-3.9 2.8-2.1.5-5.1.8-9 .9v5h55.5v-5c-3.2 0-5.8-.4-7.6-.9Zm-68.6-31.5 12.2-31.9h.5l11.7 31.9h-24.4Zm156.6 97c-6.2 6.7-13 12.8-20.2 18.3v-10.9l-11.9-2.5v-4.9h32.1Zm-43.2 0v4.9l-11.3 2.7v30.5c-7.4 3.1-15.2 5.7-23.1 7.7v-38.2l-11.5-2.7v-4.9h45.9Zm-92.6 0v4.9l-12.6 2.7v39.5c-7.9-1.7-15.7-3.9-23.1-6.7v-32.9l-11.5-2.5v-4.9H162v-.1Zm171.8-152.3c-1.9 3.5-3.6 6.8-5.1 9.8-1.9 4-3.3 7.4-4.2 10.2l-5.6-.3 6.9-30.4h4.4c1.4 3.5 2.6 7.1 3.6 10.7Zm6.3 49.1c-.4 15.2-3 29.9-7.5 43.8h-16.4v-5.1l23.9-38.7Zm-31.8 8.8-8.4 35H218v-5.1l56.2-91.1h-36.7c-2.7 4.8-5.1 9.2-7 13.2-1.9 4-3.3 7.4-4.2 10.2l-5.6-.3 6.9-30.4h78.1v4.9L249.1 223H288c2.3-3.3 4.3-6.5 6-9.3a116.07 116.07 0 0 0 8.7-18.5l5.6.2Z" fill="#9ED821"/><path d="m134.5 24.3-.2.1-1 .4h-.2l-1.8-.9-11.5-6.8-.8-.5.4.9 3.8 10.7.1.2-.2.1-1.9.7-.2.1V29l-5.9-16.4-.1-.2.2-.1.8-.3h.2l14.6 9-4.4-12.2-.1-.2.2-.1 1.9-.7.2-.1.1.2 5.8 16.2v.2Zm92.9-18.4-10.9-2.4h-.2v.2l-3.7 16.8v.2h.2l11.4 2.5h.2V23l.4-1.9v-.2h-.2l-9.3-2 1.3-5.7 6.4 1.4h.2v-.2l.4-1.8v-.2h-.2L217 11l1-4.7 8.8 1.9h.2V8l.4-1.9v-.2Zm15.1 7.5c-.2-.9-.5-1.7-1.1-2.4-.6-.7-1.3-1.2-2.2-1.5l-5.5-1.8-.2-.1-.1.2-5.3 16.4-.1.2.2.1 1.9.6.2.1.1-.2 4.6-14.4 3.2 1c.8.2 1.3.7 1.6 1.4.3.7.3 1.5 0 2.4-.3.9-.8 1.5-1.4 1.9-.7.3-1.4.4-2.3.1l-2.3-.7-.2-.1-.1.2-.6 1.8-.1.2.2.1c.6.2 1 .4 1.3.7.3.3.5.5.7.8.2.3.3.7.5 1.2l1.5 4.7c.3.9.9 1.5 1.8 1.8.7.2 1.2.2 1.7-.1l.1-.1v-.1l-.4-1.8-.1-.3-.2.1c-.1.1-.3.1-.4 0-.1 0-.1-.1-.2-.2 0-.1-.1-.2-.2-.4-.1-.3-.5-1.4-1.2-3.5l-.5-1.5c-.2-.4-.3-.7-.5-.9l-.1-.1c.4.1.8.2 1 .2.9 0 1.8-.3 2.6-1s1.4-1.5 1.8-2.6c.4-.6.5-1.5.3-2.4Zm52.3 27.2c-.3-.9-.8-1.6-1.6-2.1l-4.6-3.5-.2-.1-.1.2L278 48.6l-.1.2.2.1 1.6 1.3.2.1.1-.2 9.1-12 2.7 2.1c.6.5 1 1.1 1 1.9 0 .8-.2 1.5-.8 2.3-.6.8-1.2 1.2-2 1.3-.7.1-1.5-.1-2.2-.7l-1.9-1.5-.2-.1-.1.2-1.2 1.5-.1.2.1.1c.5.4.8.7 1 1.1.2.4.3.7.4 1 0 .3.1.8.1 1.3l-.1 4.9c0 .9.4 1.7 1.1 2.3.6.4 1.1.6 1.6.5h.1v-.1l.2-1.8v-.3h-.3c-.2 0-.3 0-.4-.1-.1 0-.1-.1-.1-.2V48.2c0-.4-.1-.8-.2-1.1 0 0 0-.1-.1-.2.4.3.7.4.9.5.8.3 1.8.3 2.8 0 1-.4 1.9-1 2.5-1.8.6-.7.9-1.5 1-2.5.4-.8.3-1.7-.1-2.5Zm12.9 9.7-.1.1-6.7 17.9-.1.3-.2-.2-1.6-1.5-.1-.1v-.1l2-5.5-4.6-4.3-5.3 2.4h-.1l-.1-.1-1.6-1.5-.2-.2.3-.1 17.4-7.9.1-.1.1.1.6.6.2.2Zm-3.6 2.9-.5.3-4.9 2.3 3.2 3 2-5.1.2-.5ZM103.3 328.8c-.2-.9-.6-1.8-1.2-2.6a7.1 7.1 0 0 0-2.3-1.9 6.03 6.03 0 0 0-5.8-.1c-.9.5-1.6 1.2-2.1 2.1-.5.9-.7 1.9-.5 2.8.2.9.6 2 1.4 3.3l.6.8c.5.7.8 1.3 1.1 1.8.3.5.5 1 .6 1.5.1.5 0 .9-.2 1.3-.3.5-.7.8-1.3.9-.7.1-1.3 0-1.9-.3-.3-.1-.5-.4-.7-.7-.2-.3-.4-.5-.4-.8-.1-.3 0-.4.1-.6l.2-.2-.2-.1-1.6-1.1-.2-.1-.1.1c-.1.2-.2.3-.3.4-.3.5-.4 1.1-.3 1.8.1.6.4 1.2.8 1.8.4.6.9 1.1 1.6 1.4.8.4 1.6.7 2.4.7.8.1 1.6-.1 2.4-.5.7-.4 1.3-.9 1.7-1.7.4-.8.6-1.6.5-2.4-.1-.8-.4-1.5-.8-2.2-.4-.7-1-1.7-1.9-2.9-.7-.9-1-1.7-1.2-2.3-.1-.5 0-1.1.3-1.7.5-.9 1.2-1.4 2-1.6.9-.2 1.8 0 2.6.4.8.5 1.4 1.1 1.8 2 .4.9.5 1.8.2 2.8l-.1.2h.2l2 .2h.2v-.2c.6-.5.6-1.4.4-2.3Zm-12-9.2-9.6-6.7-.2-.1-.1.2-1.1 1.6-.1.2.2.1 7.8 5.4-3.3 4.8-5.4-3.7-.2-.1-.1.2-1.1 1.6-.1.2.2.1 5.4 3.7-2.8 4-7.4-5.1-.2-.1-.1.2-1.1 1.6-.1.2.2.1 9.2 6.4.2.1.1-.2 9.8-14.1.1-.2-.2-.4ZM78.2 310l-1.6-1.3-.2-.1-.1.2-10.8 13.3-.1.2.2.1 1.6 1.3.2.1.1-.1 10.8-13.3.1-.1-.2-.3Zm-9.7-8.5-.2-.1-1.5-1.4-.1-.1-.1.1-10.4 10.9-4-3.8-.1-.1-.1.2-1.3 1.4-.1.1.1.1 9.7 9.2.2.1.1-.1 1.3-1.4.1-.1-.1-.1-4-3.8 10.4-10.9.1-.2Zm-17.1-17.8a7.2 7.2 0 0 0-1.5-3.5 6.97 6.97 0 0 0-6.4-2.8c-1.2.2-2.4.7-3.5 1.6l-8.3 6.3-.2.1.1.2 1.2 1.6.1.2.2-.1 8.3-6.3c1.2-.9 2.4-1.3 3.6-1.2 1.2.1 2.2.7 3.1 1.8.6.7.9 1.5 1 2.3.1.8-.1 1.5-.4 2.3-.4.8-1 1.4-1.8 2.1l-8.3 6.3-.2.1.1.2 1.2 1.6.1.2.2-.1 8.3-6.3c1.1-.8 1.9-1.8 2.4-2.9.6-1.3.8-2.5.7-3.7ZM33.6 289c-.3-.3-.6-.5-1-.6-.4-.1-.8 0-1.1.2-.3.3-.5.6-.5 1-.1.4 0 .8.3 1.1.2.3.6.5 1 .5.4.1.8 0 1.1-.3.3-.2.5-.6.5-1 0-.2-.1-.5-.3-.9Zm3.2 4.3c-.3-.3-.6-.5-1-.6-.4-.1-.8 0-1.1.2-.3.3-.5.6-.6 1-.1.4 0 .8.3 1.1.2.3.6.5 1 .5.4.1.8 0 1.1-.3.3-.2.5-.6.5-1 .2-.2.1-.6-.2-.9Zm6.5-21.9-.2.1-14.8 9-.2.1-.1-.2-2.9-4.8c-.4-.7-.7-1.4-.8-2-.2-1-.1-2 .3-3a5 5 0 0 1 1.9-2.2c.7-.4 1.4-.6 2.1-.6.7 0 1.4.2 2 .6v-.4c0-1.9.8-3.4 2.4-4.4.9-.6 2-.8 3-.8 1.1.1 2.1.5 3 1.3.6.5 1.2 1.3 1.9 2.4.9 1.5 1.5 2.5 1.8 3.2l.7 1.4-.1.3Zm-10.1 3.3-1.8-2.9c-.5-.8-1-1.3-1.7-1.5-.6-.2-1.3-.1-2.1.3-.6.4-1 .9-1.1 1.5-.1.6 0 1.3.4 2l1.9 3.2 4.4-2.6Zm7-4.3-.8-1.4-.8-1.4c-.7-1.1-1.4-1.8-2.2-2.1-.8-.3-1.5-.2-2.4.3-.8.5-1.3 1.1-1.4 2-.2.8 0 1.7.6 2.7l1.9 3 5.1-3.1Zm-4.9-13.1-5.1-10.5-.1-.2-.2.1-1.7.8-.2.1.1.2 4.1 8.5-5.3 2.5-2.9-5.9-.1-.2-.2.1-1.7.8-.2.1.1.2 2.9 5.9-4.3 2.1-3.9-8.1-.1-.2-.2.1-1.7.8-.2.1.1.2 4.9 10.1.1.2.2-.1 15.5-7.5.2-.1-.1-.1Zm-6.6-14.6-.7-1.9-.1-.2-.2.1-14.1 5.2-1.2-3.2c-.3-.7-.2-1.4.2-2.1.4-.7 1-1.2 1.9-1.5.9-.3 1.7-.3 2.4 0s1.2.9 1.5 1.8l.8 2.3.1.2.2-.1 1.8-.7.2-.1-.1-.2c-.2-.5-.3-1-.2-1.4 0-.4.1-.8.2-1 .1-.3.4-.7.6-1.1l2.7-4.1c.5-.8.6-1.6.3-2.5-.2-.7-.6-1.1-1.1-1.3l-.1-.1-.1.1-1.2 1.4-.2.2.2.1.3.3v.3c0 .1-.1.2-.2.4s-.8 1.3-2 3.1l-.9 1.3c-.2.4-.4.7-.4 1v.2c-.2-.4-.3-.7-.5-.9-.5-.7-1.3-1.2-2.4-1.5-1-.3-2.1-.2-3.1.2-.9.3-1.6.8-2.2 1.5a5 5 0 0 0-1 5.1l2 5.4.1.2.2-.1 16.1-5.9.2-.1v-.4Zm-8.2-28.9c-.2-1.1-.6-2.1-1.2-2.9-.6-.8-1.3-1.4-2.2-1.8-.9-.4-1.8-.4-2.7-.3-1 .2-1.9.7-2.7 1.4-.7.7-1.1 1.4-1.3 2.2-.4-.5-.9-.8-1.5-1-.7-.3-1.5-.3-2.2-.1-.8.2-1.5.5-2 1.1-.5.6-.9 1.3-1 2.2a6.6 6.6 0 0 0 .9 5c.4.7 1 1.3 1.6 1.8l.1.1.1-.1 1.3-1.3.2-.2-.2-.2c-.5-.3-.9-.8-1.2-1.3-.3-.5-.5-1.1-.6-1.6-.2-.9-.1-1.6.1-2.2.2-.6.7-1 1.3-1.1.6-.1 1.2 0 1.7.4s.9 1 1.1 1.8l.6 2.8v.2h.2l1.8-.4h.2v-.2l-.6-2.9c-.1-.6-.1-1.1 0-1.7.1-.6.4-1.1.8-1.5.4-.4.9-.7 1.5-.8.9-.2 1.7 0 2.3.6.7.6 1.1 1.5 1.3 2.6.2.9.2 1.7 0 2.4s-.6 1.5-1.1 2.3l-.1.2.2.1 1.6.8.2.1.1-.1c.6-.8 1.1-1.8 1.3-2.9.4-1.1.4-2.3.1-3.5Zm-3.2-12a7.8 7.8 0 0 1-2.9 2.8c-1.2.7-2.6 1.1-4 1.3-1.5.2-2.9 0-4.2-.4-1.4-.4-2.5-1.1-3.4-2.1-.9-1-1.5-2.2-1.6-3.6-.2-1.5.1-2.8.8-4 .7-1.1 1.7-2.1 2.9-2.8 1.2-.7 2.6-1.1 4.1-1.3 1.5-.2 2.9 0 4.2.4 1.3.4 2.5 1.1 3.4 2.1.9 1 1.4 2.2 1.5 3.6.2 1.6-.1 2.9-.8 4Zm-1.5-3.7c-.1-1-.5-1.8-1.1-2.4-.7-.6-1.5-1.1-2.5-1.3a8 8 0 0 0-3.1-.2c-1.1.1-2.1.4-3 .9-.9.5-1.6 1.1-2.1 1.8s-.7 1.6-.6 2.5c.1 1 .5 1.8 1.1 2.4.6.6 1.5 1.1 2.4 1.3 1 .3 2 .3 3.1.2 1.1-.1 2.1-.4 3-.9.9-.5 1.6-1.1 2.1-1.8.7-.6.8-1.5.7-2.5Zm1.1-27.4c-.5-.8-1.1-1.4-1.9-1.8-.8-.4-1.6-.6-2.5-.7l-12.2-.6H.1v.2l-.1 2v.2h.2l12.1.6c.9 0 1.6.3 2.2.7.6.4.8 1.1.8 2.1s-.3 1.6-.8 2.1c-.5.4-1.2.6-2.1.5h-.2v.2l-.2 1.9v.2h.2c.9.1 1.7 0 2.5-.3s1.5-.8 2-1.5c.6-.8.9-1.7.9-2.9 0-1.1-.2-2.1-.7-2.9Zm3.3-21.4v.3l-.3 2.1v.1h-.1l-5.7 1.5-.9 6.2 5 3 .1.1v.1l-.3 2.2v.3l-.3-.2-16.4-9.8-.1-.1v-.1l.1-.8v-.1h.1l18.5-4.8h.3Zm-8.6 4.8-5.3 1.3-.6.1.5.2 4.7 2.7.7-4.3ZM24 133.7l-16.6-4.3h-.2v.2l-.5 2v.2h.2l6.9 1.8-2 7.7-6.9-1.8h-.2v.2l-.5 2-.2.2.2.1 16.6 4.3h.2v-.2l.5-2v-.2h-.2l-7.5-1.9 2-7.7 7.5 1.9h.2v-.2l.5-2V133.7Zm6-16.8-.1-.1h-.1l-1.8.3h-.3l.1.2c.1.2.1.3 0 .4 0 .1-.1.1-.1.2-.1 0-.2.1-.4.2-.3.1-1.4.4-3.5 1l-1.5.4c-.4.1-.7.3-1 .5l-.1.1c.1-.4.2-.8.2-1 .1-.9-.2-1.8-.9-2.6-.6-.9-1.5-1.5-2.5-1.9-.9-.3-1.7-.4-2.6-.3a6 6 0 0 0-2.5 1c-.7.5-1.3 1.3-1.6 2.2l-2 5.4-.1.2.2.1 16.1 5.9.2.1.1-.2.7-1.9.1-.2-.2-.1-14.1-5.2 1.2-3.2c.3-.7.8-1.2 1.5-1.5.7-.3 1.5-.3 2.4.1.9.3 1.5.8 1.8 1.5.3.7.3 1.4 0 2.3l-.8 2.3-.1.2.2.1 1.8.7.2.1.1-.2c.2-.5.5-1 .8-1.2.3-.3.6-.5.8-.6.3-.1.7-.3 1.2-.4l4.7-1.4c.9-.3 1.5-.9 1.8-1.7.3-.7.4-1.3.1-1.8Zm6.8-13.4-1.7-.8-.2-.1-.1.2-4.1 8.5-5.3-2.5 2.9-5.9.1-.2-.2-.1-1.7-.8-.2-.1-.1.2-2.9 5.9-4.4-2.1 3.9-8.1.1-.2-.2-.1-1.7-.8-.2-.1-.1.2-4.9 10.1-.1.2.2.1 15.5 7.5.2.1.1-.2 5.1-10.5.1-.2-.1-.2Zm9.5-15.6-14.6-9-.2-.1-.1.2-1.1 1.7-.1.2.2.1 11.1 6.8-17 2.1h-.1l-.1.1-.5.7-.1.2.2.1 14.8 9.2.2.1.1-.3 1.1-1.8.1-.2H40l-9.6-6-.9-.5.9-.1 13.2-1.9 2-.5h.1v-.1l.5-.9.1-.2v.1Zm10.3-13-13.2-11-.1-.1-.1.2-1.3 1.6-.1.2.1.1 13.2 11 .1.1.1-.2 1.3-1.6.1-.1-.1-.2Zm15.7-16.3L59.8 46.2l-.8.8v.1L60.2 58l-10.9-1.2h-.1l-.1.1-.6.6-.1.2.1.1L60.9 70l.1.1.2-.1 1.5-1.5.1-.2-8.1-8.1-.4-.4c.1 0 .3 0 .5.1.3 0 .5.1.7.1.7 0 2.6.2 5.6.4l1.5.1h.2v-.2c0-1.3-.1-2.8-.3-4.5-.1-1.5-.2-2.8-.4-3.9.2.2.3.4.4.5l8.2 8.2.1-.1 1.5-1.5.1-.1-.1-.3Zm19.1-15.2c-.7 1.4-1.7 2.6-3.1 3.6l-1 .7-.7.5c-.4.3-1.1.7-2.1 1.3l-1.2.7-.2.1-.1-.2-9.9-14.2-.1-.1.2-.1 5.5-3.8a8.56 8.56 0 0 1 8.4-.4c1.3.7 2.4 1.7 3.4 3 1 1.4 1.6 2.9 1.7 4.5.2 1.5-.1 3-.8 4.4ZM88.5 36c-1.2-1.7-2.5-2.7-4-3-1.5-.4-3.1-.1-4.7.9l-3.4 2.4L84 47.1c.9-.5 1.7-1.1 2.4-1.5 1.9-1.4 3.1-2.9 3.4-4.5.4-1.7 0-3.4-1.3-5.1Zm12.2 2.8L92 23.9l-.1-.2-.2.1-1.8 1-.1.2.1.2L98.5 40l.1.2.2-.1 1.8-1 .2-.1-.1-.2Zm16.6-8.4-.8-1.7-.1-.2-.2.1-8.5 4.1-2.5-5.3 5.9-2.8.2-.1-.1-.2-.8-1.7-.1-.2-.2.1-5.9 2.9L102 21l8.1-3.9.2-.1-.1-.2-.8-1.7-.1-.2-.2.1L99 19.9l-.1.1.1.2 7.5 15.5.1.2.2-.1 10.5-5.1.2-.1-.2-.2Zm30.5-14.5c-.3-1-.8-1.9-1.6-2.4-.8-.6-1.9-1.1-3.3-1.4l-1-.2c-.8-.2-1.5-.4-2-.5-.5-.2-1-.4-1.4-.7-.4-.3-.6-.6-.8-1.1-.1-.5 0-1 .4-1.5s.9-.9 1.6-1c.3-.1.6-.1 1 0 .4 0 .6.2.9.3.2.2.3.3.3.5V8h.2l1.9-.4h.2v-.2c0-.2 0-.4-.1-.5-.1-.6-.5-1.1-1-1.5-.5-.4-1.1-.7-1.8-.8-.7-.1-1.4-.1-2.1.1-.8.2-1.6.6-2.3 1.2-.7.5-1.1 1.2-1.4 2-.3.8-.3 1.5-.1 2.4.2.9.6 1.6 1.3 2.1.6.5 1.3.9 2.1 1.1.8.2 1.9.5 3.3.8 1.1.2 1.9.5 2.4.8.5.3.8.8 1 1.5.2 1 .1 1.8-.4 2.5s-1.2 1.2-2.2 1.5a4.3 4.3 0 0 1-4.8-2.1l-.1-.2-.2.1-1.6 1.2-.1.1.1.1c.4.8 1 1.5 1.8 2s1.7.9 2.7 1c1 .2 2 .1 3-.1 1-.3 1.9-.7 2.7-1.4.8-.7 1.3-1.5 1.6-2.4 0-1 0-2-.2-3Zm14.6-12.6v-.2l-.4-1.9V1h-.2l-13.3 2h-.2v.2l.3 1.9v.2h.2l5.4-.8 2.3 14.9v.2h.2l2-.3h.2v-.2l-2.3-14.9 5.4-.8.4-.1Zm18.1 14-.1-1.9v-.2h-.2l-9.5.5-.3-5.8 6.6-.4h.2v-.2l-.1-1.9v-.2h-.2l-6.6.4-.3-4.8 9-.5h.2v-.2l-.1-1.9V0h-.2l-11.2.6h-.2v.2l.9 17.2v.2h.2l11.7-.6h.2v-.3Zm29.8-6.2c-.2 1.7-.7 3.2-1.7 4.5-.9 1.3-2 2.2-3.5 2.8-1.4.6-3 .8-4.7.6l-1.2-.1-.6-.1h-.2c-.5 0-1.3-.2-2.4-.4l-1.4-.3h-.2v-.2L196.3.7V.5h.2l6.6.8c1.6.3 2.9.9 4 1.8 1.2.9 2 2.1 2.5 3.5.7 1.3.8 2.8.7 4.5Zm-4.9 4.5c1.3-1 2.2-2.5 2.4-4.7.2-2-.1-3.7-1.1-4.9-.9-1.3-2.3-2.1-4.1-2.4l-4.1-.5-1.5 13.1c1 .2 2 .3 2.8.4 2.4.3 4.3-.1 5.6-1Zm62.1 7.4c-.1-.7-.4-1.2-.9-1.8-.4-.6-1-1-1.7-1.3a5.33 5.33 0 0 0-4.9 0 4.1 4.1 0 0 0-2 4.1c.2.8.5 1.5.9 2.2.5.7 1.1 1.6 2 2.8.7.9 1.1 1.7 1.3 2.2.1.5.1 1.1-.2 1.7-.4.9-1.1 1.4-2 1.7-.9.2-1.8.1-2.6-.3s-1.5-1-2-1.9c-.5-.9-.6-1.8-.4-2.8v-.2h-.2l-2-.1h-.2l-.1.2c-.2.9-.2 1.8 0 2.7.3.9.7 1.8 1.3 2.5.6.8 1.4 1.4 2.3 1.8.9.5 1.9.7 2.9.7s2-.3 2.8-.8c.9-.5 1.5-1.2 2-2.2.5-1 .6-1.9.4-2.9-.2-.9-.7-2-1.6-3.3l-.6-.8-1.2-1.7c-.3-.5-.5-1-.7-1.5-.1-.5-.1-.9.1-1.3.2-.5.7-.8 1.3-.9.7-.1 1.3-.1 1.9.2.3.1.5.3.8.6.3.3.4.5.5.8.1.3 0 .4-.1.6l-.2.2.2.1 1.7 1 .2.1.1-.2c.1-.2.2-.3.3-.4.7-.6.7-1.1.6-1.8Zm14.2 10.3c-.1 1-.4 1.9-1 2.8a5.1 5.1 0 0 1-3.7 2.6c-1.5.3-3.3-.2-5.1-1.4l-1.4-.9-3.2 5.1-.1.2-.2-.1-1.7-1.1-.2-.1.1-.2 9.1-14.6.1-.2.2.1 4.7 2.9c.9.5 1.5 1.2 1.9 2 .4 1.1.6 2 .5 2.9Zm-2.4-1c-.2-.8-.7-1.4-1.4-1.9l-2.6-1.6-3.5 5.7.6.4c.5.4.9.6 1 .7 1.2.7 2.2 1 3.1.9.9-.2 1.6-.7 2.3-1.7.4-.9.6-1.7.5-2.5ZM323.6 69c-.3-1.4-1-2.7-2-3.9a8 8 0 0 0-3.9-2.5c-1.5-.4-3.1-.5-4.7-.2-1.6.4-3 1.1-4.3 2.2a8.91 8.91 0 0 0-2.7 3.8c-.6 1.5-.7 3-.5 4.5.3 1.5.9 2.9 2 4.2 1 1.1 2.2 2 3.5 2.6 1.4.6 2.8.8 4.3.5h.2V80l-.2-2v-.2h-.2a6.06 6.06 0 0 1-5.8-2.2c-.8-.9-1.3-1.9-1.4-3a6.9 6.9 0 0 1 2.4-6.1c1-.8 2-1.4 3.2-1.7 1.2-.3 2.4-.3 3.5 0s2.1.8 2.8 1.7c.7.8 1.1 1.6 1.4 2.5.1.4.1.8 0 1.2-.1.3-.4.7-.8 1l-.2.1.1.2 1.3 1.5.1.2.1-.1c1.5-1.3 2.1-2.6 1.8-4.1Zm12.1 16.1-1.2-1.7-.1-.2-.2.1-5.8 4-4.5-6.6 5.8-4 .2-.1-.1-.2-1.2-1.7-.1-.2-.2.1-14.1 9.8-.2.1.1.2 1.2 1.7.1.2.2-.1 6.4-4.4 4.5 6.6-6.4 4.4-.2.1.1.2 1.2 1.7.1.2.2-.1 14.1-9.8.2-.1-.1-.2Zm8.8 15.7-5.4-9.8-.1-.2-.2.1-15 8.3-.2.1.1.2 5.6 10.2.1.2.2-.1 1.7-.9.2-.1-.1-.2-4.6-8.3 5.1-2.8 3.2 5.8.1.2.2-.1 1.7-.9.2-.1-.1-.2-3.2-5.8 4.2-2.3 4.3 7.9.1.2.2-.1 1.7-.9.2-.1-.2-.3Z" fill="#262C20"/></g><defs><clipPath id="a"><path fill="#fff" d="M0 0h733.5v397.7H0z"/></clipPath></defs></svg>