<svg width="729" height="338" fill="none" xmlns="http://www.w3.org/2000/svg"><g clip-path="url(#a)"><path d="M130.5 134.3c2.2-.5 4-1.3 5.5-2.4 1.4-1 2.4-2.3 3.2-3.9a11.77 11.77 0 0 0-5.2-15.7c-2-1.1-4.3-1.8-7-2.1v-.2c3.5-.6 6.2-1.8 8.2-3.4 1.9-1.7 2.9-3.7 2.9-6.1 0-1.8-.4-3.4-1.3-4.9-.8-1.5-2-2.8-3.6-3.8-1.3-.8-3-1.4-5-1.8-2-.4-4.5-.6-7.5-.6h-20v2.2l5.1 1.3v38.8l-5.1 1.3v2.2h21.1c3.7-.2 6.5-.4 8.7-.9Zm-14.4-41.8h1.1c1.7 0 3.2.2 4.4.5 1.3.3 2.4.8 3.2 1.5.8.6 1.4 1.5 1.8 2.5.4 1 .7 2.2.7 3.6 0 2.4-.6 4.4-1.9 5.8-1.3 1.4-3.1 2.2-5.5 2.5-.4.1-.8.1-1.4.2H116V92.5h.1Zm.9 38.6c-.6-.5-1-1.4-1-2.8v-16h2.2c3.8 0 6.5.8 8.3 2.5 1.8 1.6 2.7 4.2 2.7 7.6 0 3.3-.7 5.7-2.1 7.2-1.4 1.5-3.6 2.3-6.5 2.3-1.7 0-2.9-.3-3.6-.8Zm64.1 3.9h-36v-2.2l5.1-1.2v-39l-5.1-1.1v-2.2h36.3l1.1 13.1H180c-.5-1.6-1.2-3.2-1.9-4.9-.8-1.7-1.6-3.3-2.7-4.9h-15.1v16.6h7.5c.7-1.1 1.2-2.2 1.6-3.4.4-1.1.7-2.3 1-3.3h2.5v16.6h-2.5a26.04 26.04 0 0 0-2.6-6.7h-7.5v19.2h14.8c1.3-1.7 2.3-3.5 3.1-5.3.8-1.8 1.6-3.5 2.3-5.3h3.1l-2.5 14Zm10.5-10.2a24.1 24.1 0 0 1-2.9-11.9c0-3.5.6-6.8 1.7-9.8 1.2-3 2.8-5.5 4.9-7.7 2.1-2.2 4.6-3.8 7.5-5 2.9-1.2 6.1-1.8 9.6-1.8 2.6 0 5.1.3 7.4 1 2.3.6 4.2 1.5 5.7 2.7h.2l2.6-3h1.9v14.5h-2.7c-1.4-2.8-2.7-5.1-4.1-6.8a12.03 12.03 0 0 0-10-4.7c-4.5 0-7.9 1.7-10.1 5.1-2.2 3.4-3.4 8.5-3.4 15.3 0 6.8.9 11.8 2.8 14.9 1.9 3.1 4.8 4.6 8.8 4.6 1.7 0 3.3-.3 4.7-.9 1.4-.6 2.4-1.5 3.1-2.5.3-.4.5-.8.5-1.3.1-.4.1-1.1.1-2v-10l-5.3-1.1v-2.2h20.8v2.2l-5.3 1.1v14.8c-1.2 1-2.9 2-4.9 2.8-2.1.8-4.3 1.5-6.7 2-2.4.5-4.8.7-7.1.7-4.6 0-8.7-1-12.1-2.8-3.1-2.1-5.8-4.8-7.7-8.2Zm83.7 10.2h-36v-2.2l5.1-1.2v-39l-5.1-1.1v-2.2h20.9v2.2l-5.6 1.2v39h14.8c1.2-1.6 2.2-3.3 3-4.9.9-1.7 1.7-3.5 2.4-5.6h3.1l-2.6 13.8Zm1.8 0h18.4v-2.2c-2.1-.3-3.7-.7-4.8-1.1-1-.5-1.6-1.1-1.8-1.9-.1-.8 0-2 .5-3.4l1.7-4.5h13.3l2.4 6.4c.5 1.3.7 2.3.5 2.9-.2.6-.8 1-1.7 1.3-.9.2-2.3.3-4 .4v2.2h24.5v-2.2c-1.4-.1-2.6-.3-3.4-.5-.8-.2-1.4-.6-1.9-1-.4-.5-.8-1.2-1.2-2.1l-17-41.1-8.8 3.4 2.7 6.1-11.2 28.7c-.6 1.6-1.2 2.8-1.8 3.7-.5.8-1.3 1.4-2.3 1.8-.9.4-2.3.8-4.2 1.1v2h.1Zm20.8-30.6h.2l5.2 14.1h-10.8l5.4-14.1ZM329 92.6l-5-1.1v-2.2h20.6v2.2l-5.2 1.1v26.6c0 4 .9 7.2 2.7 9.4 1.8 2.2 4.4 3.3 7.7 3.3 3.7 0 6.4-1.2 8.2-3.7.9-1.3 1.6-3 2-5 .4-2.1.6-4.9.6-8.3V92.6l-5.3-1.1v-2.2h14.6v2.2l-5.3 1.1v25.6c0 2.3-.2 4.3-.7 6.2-.5 1.9-1.1 3.5-2 4.9-1.4 2.1-3.2 3.7-5.6 4.7-2.4 1.1-5.3 1.6-8.7 1.6-3.6 0-6.7-.5-9.5-1.7-2.8-1.1-4.9-2.7-6.5-4.7-.9-1.1-1.6-2.5-2-4-.4-1.6-.6-3.6-.6-6.1V92.6Zm74.4 41.7c2.2-.5 4-1.3 5.5-2.4 1.4-1 2.4-2.3 3.2-3.9a11.77 11.77 0 0 0-5.2-15.7c-2-1.1-4.3-1.8-7-2.1v-.2c3.5-.6 6.2-1.8 8.2-3.4 1.9-1.7 2.9-3.7 2.9-6.1 0-1.8-.4-3.4-1.3-4.9-.8-1.5-2-2.8-3.6-3.8-1.3-.8-3-1.4-5-1.8-2-.4-4.5-.6-7.5-.6h-20v2.2l5.1 1.3v38.8l-5.1 1.3v2.2h21.1c3.6-.2 6.5-.4 8.7-.9Zm-14.5-41.8h1.1c1.7 0 3.2.2 4.4.5 1.3.3 2.4.8 3.2 1.5.8.6 1.4 1.5 1.8 2.5.4 1 .7 2.2.7 3.6 0 2.4-.6 4.4-1.9 5.8-1.3 1.4-3.1 2.2-5.5 2.5-.4.1-.8.1-1.4.2h-2.5V92.5h.1Zm1 38.6c-.6-.5-1-1.4-1-2.8v-16h2.2c3.8 0 6.5.8 8.3 2.5 1.8 1.6 2.7 4.2 2.7 7.6 0 3.3-.7 5.7-2.1 7.2-1.4 1.5-3.6 2.3-6.5 2.3-1.7 0-2.9-.3-3.6-.8Zm48.3 3.9H418v-2.2l5.1-1.3V92.6l-5.1-1.2v-2.2h20.3v2.2l-5 1.2v38.9l5 1.3v2.2h-.1Zm7.4-10.2a24.1 24.1 0 0 1-2.9-11.9c0-3.5.6-6.8 1.7-9.8 1.2-3 2.8-5.5 4.9-7.7 2.1-2.2 4.6-3.8 7.5-5 2.9-1.2 6.1-1.8 9.6-1.8 2.6 0 5.1.3 7.4 1 2.3.6 4.2 1.5 5.7 2.7h.2l2.6-3h1.9v14.5h-2.7c-1.4-2.8-2.7-5.1-4.1-6.8a12.03 12.03 0 0 0-10-4.7c-4.5 0-7.9 1.7-10.1 5.1-2.2 3.4-3.4 8.5-3.4 15.3 0 6.8 1 11.8 2.9 14.9 1.9 3.1 4.8 4.6 8.8 4.6 1.7 0 3.3-.3 4.7-.9 1.4-.6 2.5-1.5 3.2-2.5.3-.4.5-.8.5-1.3s.1-1.1.1-2v-10l-5.3-1.1v-2.2h20.8v2.2l-5.3 1.1v14.8c-1.2 1-2.9 2-5 2.8-2.1.8-4.3 1.5-6.7 2-2.4.5-4.8.7-7 .7-4.6 0-8.7-1-12.2-2.8-3.2-2.1-5.9-4.8-7.8-8.2Zm47.8-21.9h-2.3l2.2-13.6h40.5l2.2 13.6h-2.3c-.6-1.6-1.3-3.3-2.1-5.2-.8-1.8-1.9-3.6-3.2-5.2h-9.7v38.9l7 1.3v2.2h-24.3v-2.2l7.1-1.3V92.5h-9.7a28.5 28.5 0 0 0-3.3 5.2c-.8 1.9-1.5 3.6-2.1 5.2Zm81.7 32.1h-36v-2.2l5.1-1.2v-39l-5.1-1.1v-2.2h36.3l1.1 13.1H574c-.5-1.6-1.2-3.2-1.9-4.9-.8-1.7-1.7-3.3-2.7-4.9h-15.1v16.6h7.5c.7-1.1 1.2-2.2 1.6-3.4.4-1.1.7-2.3 1-3.3h2.5v16.6h-2.5a26.04 26.04 0 0 0-2.6-6.7h-7.5v19.2h14.8c1.3-1.7 2.3-3.5 3.2-5.3.8-1.8 1.6-3.5 2.3-5.3h3.1l-2.6 14Zm-470.2 37.6-5-1.1v-2.2h20.6v2.2l-5.2 1.1v26.5c0 4 .9 7.2 2.7 9.4 1.8 2.2 4.3 3.3 7.6 3.3 3.7 0 6.4-1.2 8.2-3.7.9-1.3 1.6-3 2-5 .4-2.1.6-4.9.6-8.3v-22.3l-5.3-1.1v-2.2h14.6v2.2l-5.3 1.1v25.6c0 2.3-.2 4.3-.7 6.2-.5 1.9-1.1 3.5-2 4.9-1.4 2.1-3.2 3.7-5.6 4.7-2.4 1.1-5.3 1.6-8.7 1.6-3.6 0-6.7-.5-9.5-1.7-2.8-1.1-4.9-2.7-6.5-4.7-.9-1.1-1.6-2.5-2-4-.4-1.6-.6-3.6-.6-6.1v-26.4h.1Zm30.3-13.7c.8.8 1.2 1.8 1.2 2.8 0 .9-.4 1.8-1.1 2.7-.7.8-1.8 1.3-3.2 1.3-1.4 0-2.4-.4-3.1-1.3-.7-.9-1.1-1.8-1.1-2.7 0-1.1.4-2 1.1-2.8.7-.8 1.8-1.2 3.1-1.2s2.4.4 3.1 1.2Zm-15.4-1.2c1.3 0 2.4.4 3.2 1.2.8.8 1.2 1.8 1.2 2.8 0 .9-.4 1.8-1.1 2.7-.7.8-1.8 1.3-3.2 1.3-1.4 0-2.4-.4-3.1-1.3a4.1 4.1 0 0 1 .1-5.5c.5-.8 1.6-1.2 2.9-1.2Zm63.1 34.6c-2-1.1-4.3-1.8-7-2.1v-.2c3.5-.6 6.2-1.8 8.2-3.4 1.9-1.7 2.9-3.7 2.9-6.1 0-1.8-.4-3.4-1.3-4.9-.8-1.5-2-2.8-3.6-3.8-1.3-.8-3-1.4-5-1.8-2-.4-4.5-.6-7.5-.6h-20v2.2l5.1 1.3v38.8l-5.1 1.3v2.2h21.1c3.6 0 6.4-.2 8.6-.7 2.2-.5 4-1.3 5.5-2.4 1.4-1 2.4-2.3 3.2-3.9a11.77 11.77 0 0 0-.5-11.3c-1.1-2-2.6-3.5-4.6-4.6Zm-18.1-19.8h1.1c1.7 0 3.2.2 4.4.5 1.3.3 2.4.8 3.2 1.5.8.6 1.4 1.5 1.8 2.5.4 1 .7 2.2.7 3.6 0 2.4-.6 4.4-1.9 5.8-1.3 1.4-3.1 2.2-5.5 2.5-.4.1-.8.1-1.4.2h-2.5v-16.6h.1Zm11.1 37.1c-1.4 1.5-3.6 2.3-6.5 2.3-1.7 0-2.9-.2-3.6-.7-.6-.5-1-1.4-1-2.8v-16h2.2c3.8 0 6.5.8 8.3 2.5 1.8 1.6 2.7 4.2 2.7 7.6 0 3.1-.7 5.5-2.1 7.1Zm56.5-8.5-2.5 13.9h-36v-2.2l5.1-1.2v-39.1l-5.1-1.1v-2.2h36.3l1.1 13h-2.5c-.5-1.6-1.2-3.2-1.9-4.9-.8-1.7-1.6-3.3-2.7-4.9h-15.1V189h7.5c.7-1.1 1.2-2.2 1.6-3.4.4-1.1.7-2.3 1-3.3h2.5v16.6h-2.5a26.04 26.04 0 0 0-2.6-6.7h-7.5v19.2h14.8c1.3-1.7 2.3-3.5 3.1-5.3.8-1.8 1.6-3.5 2.3-5.3h3.1v.3Zm26.9 11.7-6.8-1.3v-16.4h2.4l12 19.9h16.2v-2.2l-5.4-1.2-11.4-17.8c2.6-.9 4.7-2.4 6.1-4.3 1.5-1.9 2.2-4.4 2.2-7.2s-.7-5.2-2-7.1c-1.3-1.9-3.2-3.4-5.6-4.4-2.4-1-5.1-1.5-8.3-1.5h-21.4v2.2l5.1 1.3v38.8l-5.1 1.3v2.2h22v-2.3Zm-6.8-40.3h1.2c1.2 0 2.2.1 3 .2.8.1 1.5.3 2.2.6 1.5.6 2.8 1.6 3.8 3.1 1 1.4 1.4 3.2 1.4 5.3 0 1.3-.2 2.5-.5 3.7-.4 1.2-1 2.3-1.9 3.3-.8 1-1.9 1.8-3.2 2.3-1.3.6-3 .9-5.2.9h-.8v-19.4Zm55.8 32.8c0-1.3-.5-2.4-1.6-3.5-1-1.1-2.8-2.3-5.4-3.5l-4.8-2.4c-3.9-1.9-6.8-4.1-8.6-6.4a13.4 13.4 0 0 1-2.8-8.3c0-2.4.7-4.6 2-6.5 1.3-1.9 3.2-3.4 5.4-4.5 2.3-1.1 4.9-1.6 7.8-1.6 4.1 0 7.5 1.2 10.4 3.7l1.4-3.1h2l.6 13.1h-2.6c-1-3.4-2.4-5.9-4.3-7.6-1.9-1.7-4.3-2.5-7.2-2.5-2 0-3.6.5-4.8 1.5-1.1 1-1.7 2.4-1.7 4.1 0 1.4.5 2.6 1.5 3.7s2.8 2.2 5.3 3.5l4.7 2.4c3.8 1.9 6.5 4 8.1 6.3 1.7 2.3 2.5 5.1 2.5 8.3 0 2.6-.7 4.9-2.1 6.9-1.4 2-3.3 3.7-5.8 4.8a20.1 20.1 0 0 1-13.6 1.1c-1.8-.5-3.6-1.2-5.6-2.3l-2.1 2.4h-1.9l-1.2-15.2 2.5-.4c1.3 4.5 3 7.7 5.1 9.7 2.1 2 4.9 3 8.4 3 2.5 0 4.5-.6 6-1.8 1.7-1.1 2.4-2.8 2.4-4.9Zm18.6 6.3v-39.1l-5.1-1.1v-2.2h36.3l1.1 13h-2.5c-.5-1.6-1.2-3.2-1.9-4.9-.8-1.7-1.7-3.3-2.7-4.9H337V189h7.5c.7-1.1 1.2-2.2 1.6-3.4.4-1.1.7-2.3 1-3.3h2.5v16.6h-2.5c-.2-1.1-.6-2.2-1-3.3-.4-1.1-.9-2.3-1.6-3.4H337v19.2h14.8c1.3-1.7 2.4-3.5 3.2-5.3.8-1.8 1.6-3.5 2.3-5.3h3.1l-2.5 13.9h-36v-2.2l5-.9Zm53.9-.1v-38.9h-9.7a28.5 28.5 0 0 0-3.3 5.2c-.9 1.8-1.6 3.6-2.2 5.2h-2.3l2.2-13.6H406l2.2 13.6H406c-.6-1.6-1.3-3.3-2.1-5.2-.8-1.8-1.9-3.6-3.1-5.2H391v38.9l7 1.3v2.2h-24.3v-2.2l7.1-1.3Zm30.9-28.8 3.1-13.4h34.4v2.2l-25 40.3h17.2c1-1.5 1.9-2.8 2.6-4.1.7-1.3 1.4-2.5 2-3.8.6-1.3 1.2-2.7 1.8-4.3l2.5.1-3.7 15.4h-36.2v-2.3l24.8-40.2H419c-1.2 2.1-2.2 4-3.1 5.8-.8 1.8-1.5 3.3-1.9 4.5l-2.3-.2Zm47.1 16.4v-26.5l-5-1.1v-2.2h20.6v2.2l-5.2 1.1v26.5c0 4 .9 7.2 2.7 9.4 1.8 2.2 4.3 3.3 7.7 3.3 3.7 0 6.4-1.2 8.2-3.7.9-1.3 1.6-3 2-5 .4-2.1.6-4.9.6-8.3v-22.3l-5.3-1.1v-2.2h14.6v2.2l-5.3 1.1v25.6c0 2.3-.2 4.3-.7 6.2-.5 1.9-1.1 3.5-2 4.9-1.4 2.1-3.2 3.7-5.6 4.7-2.4 1.1-5.3 1.6-8.7 1.6-3.6 0-6.7-.5-9.5-1.7-2.8-1.1-4.9-2.7-6.5-4.7-.9-1.1-1.6-2.5-2-4-.4-1.5-.6-3.5-.6-6Zm83.2-26.5-5.3-1.1v-2.2h14.6v2.2l-5.3 1.1v43h-4l-29.3-36.9v32.9l5.2 1.2v2.2h-14.6v-2.2l5.3-1.2v-39.1l-5.3-1.1v-2.2h16.1l22.5 28.2v-24.8h.1Zm16.1 32.2a24.1 24.1 0 0 1-2.9-11.9c0-3.5.6-6.8 1.7-9.8a22.13 22.13 0 0 1 12.4-12.6c2.9-1.2 6.1-1.8 9.6-1.8 2.6 0 5.1.3 7.4 1 2.3.6 4.2 1.5 5.7 2.7h.2l2.6-3h1.9v14.5H594c-1.4-2.8-2.7-5.1-4.1-6.8a12.03 12.03 0 0 0-10-4.7c-4.5 0-7.9 1.7-10.1 5.1-2.2 3.4-3.4 8.4-3.4 15.3s1 11.8 2.8 14.9c1.9 3.1 4.9 4.6 8.9 4.6 1.7 0 3.3-.3 4.7-.9 1.4-.6 2.5-1.5 3.2-2.5.3-.4.5-.8.5-1.3s.1-1.1.1-2v-10l-5.3-1.1v-2.2h20.8v2.2l-5.3 1.1v14.8c-1.2 1-2.9 2-5 2.8-2.1.8-4.3 1.5-6.7 2-2.4.5-4.8.7-7 .7-4.6 0-8.7-1-12.2-2.8-3.2-2.2-5.9-4.9-7.8-8.3Zm96.1-12.5c-2-1.1-4.3-1.8-7-2.1v-.2c3.5-.6 6.2-1.8 8.2-3.4 1.9-1.7 2.9-3.7 2.9-6.1 0-1.8-.4-3.4-1.3-4.9-.8-1.5-2-2.8-3.6-3.8-1.3-.8-3-1.4-5-1.8-2-.4-4.5-.6-7.5-.6h-20v2.2l5.1 1.3v38.8l-5.1 1.3v2.2H642c3.6 0 6.5-.2 8.6-.7 2.2-.5 4-1.3 5.5-2.4 1.4-1 2.4-2.3 3.2-3.9a11.77 11.77 0 0 0-.5-11.3c-1.1-2-2.6-3.5-4.6-4.6Zm-18.1-19.8h1.1c1.7 0 3.2.2 4.4.5 1.3.3 2.4.8 3.2 1.5.8.6 1.4 1.5 1.8 2.5.4 1 .7 2.2.7 3.6 0 2.4-.6 4.4-1.9 5.8-1.3 1.4-3.1 2.2-5.5 2.5-.4.1-.8.1-1.4.2H636v-16.6h.1Zm11.1 37.1c-1.4 1.5-3.6 2.3-6.5 2.3-1.7 0-2.9-.2-3.6-.7-.6-.5-1-1.4-1-2.8v-16h2.2c3.8 0 6.5.8 8.3 2.5 1.8 1.6 2.7 4.2 2.7 7.6 0 3.1-.7 5.5-2.1 7.1Zm53.4-8.5h3.1l-2.5 13.9h-36v-2.2l5.1-1.2v-39.1l-5.1-1.1v-2.2h36.3l1.1 13h-2.5c-.5-1.6-1.2-3.2-1.9-4.9-.8-1.7-1.7-3.3-2.7-4.9h-15.1V189h7.5c.7-1.1 1.2-2.2 1.6-3.4.4-1.1.7-2.3 1-3.3h2.5v16.6h-2.5c-.2-1.1-.6-2.2-1-3.3-.4-1.1-.9-2.3-1.6-3.4h-7.5v19.2h14.8c1.3-1.7 2.4-3.5 3.2-5.3.8-1.5 1.5-3.2 2.2-5Zm23.3-28.5v38.9l5 1.3v2.2h-20.3v-2.2l5.1-1.3v-38.9l-5.1-1.2v-2.2h20.3v2.2l-5 1.2Zm-583 118.7c-.4-.5-.8-1.2-1.2-2.1l-17-41.1-8.8 3.4 2.7 6.1-11.2 28.6c-.6 1.6-1.2 2.8-1.8 3.7-.5.8-1.3 1.4-2.3 1.8-.9.4-2.3.8-4.2 1.1v2.2h18.4v-2.2c-2.1-.3-3.7-.7-4.8-1.1-1-.5-1.6-1.1-1.8-1.9-.1-.8 0-2 .5-3.4l1.7-4.5h13.3l2.4 6.4c.5 1.3.7 2.3.5 2.9-.2.6-.8 1-1.7 1.3-.9.2-2.3.3-4 .4v2.2h24.5v-2.2c-1.4-.1-2.6-.3-3.4-.5-.7-.3-1.3-.6-1.8-1.1Zm-28.4-12.9 5.4-14.1h.2l5.2 14.1h-10.8Zm71.2 1.1 2.5.1-3.7 15.4h-36.1v-2.3l24.8-40.2H155c-1.2 2.1-2.2 4-3.1 5.8-.8 1.8-1.5 3.3-1.9 4.5l-2.5-.2 3.1-13.4H185v2.2l-25 40.3h17.2c1-1.5 1.9-2.8 2.6-4.1.7-1.3 1.4-2.5 2-3.8.7-1.3 1.3-2.8 1.9-4.3Zm43.4 0 2.5.1-3.7 15.4h-36.2v-2.3l24.8-40.2h-16.2c-1.2 2.1-2.2 4-3.1 5.8-.8 1.8-1.5 3.3-1.9 4.5l-2.5-.2 3.1-13.4h34.4v2.2l-25 40.3h17.2c1-1.5 1.9-2.8 2.6-4.1.7-1.3 1.4-2.5 2-3.8.8-1.3 1.4-2.8 2-4.3Zm46.9 11.8c-.4-.5-.8-1.2-1.2-2.1l-17-41.1-8.8 3.4 2.7 6.1-11.2 28.6c-.6 1.6-1.2 2.8-1.8 3.7-.5.8-1.3 1.4-2.3 1.8-.9.4-2.3.8-4.2 1.1v2.2h18.4v-2.2c-2.1-.3-3.7-.7-4.8-1.1-1-.5-1.6-1.1-1.8-1.9-.1-.8 0-2 .5-3.4l1.7-4.5h13.3l2.4 6.4c.5 1.3.7 2.3.5 2.9-.2.6-.8 1-1.7 1.3-.9.2-2.3.3-4 .4v2.2h24.5v-2.2c-1.4-.1-2.6-.3-3.4-.5-.7-.3-1.3-.6-1.8-1.1Zm-28.4-12.9 5.4-14.1h.2l5.2 14.1h-10.8Zm63.7-4.5c2.6-.9 4.6-2.4 6.1-4.3s2.2-4.4 2.2-7.2-.7-5.2-2-7.1c-1.3-1.9-3.2-3.4-5.6-4.4-2.4-1-5.1-1.5-8.3-1.5h-21.4v2.2l5.1 1.3v38.8l-5.1 1.3v2.2h22V293l-6.8-1.3v-16.4h2.4l12 19.9h16.2V293l-5.4-1.2-11.4-17.9Zm-2.6-8.5c-.4 1.2-1 2.3-1.9 3.3-.8 1-1.9 1.8-3.2 2.3-1.3.6-3 .9-5.2.9h-.8v-19.4h1.2c1.2 0 2.2.1 3 .2.8.1 1.5.3 2.2.6 1.5.6 2.8 1.6 3.8 3.1 1 1.4 1.4 3.2 1.4 5.3 0 1.3-.1 2.5-.5 3.7Zm59.5-9.8c-2-2.2-4.4-3.8-7.3-5.1a25.7 25.7 0 0 0-9.9-1.8c-3.7 0-7 .6-9.9 1.8-2.9 1.2-5.3 2.9-7.3 5.1-2 2.1-3.5 4.6-4.5 7.5-1 2.8-1.5 5.9-1.5 9.1 0 3.2.5 6.3 1.5 9.1s2.5 5.3 4.5 7.5 4.4 3.9 7.3 5.1c2.9 1.2 6.2 1.8 9.9 1.8s7-.6 9.9-1.8c2.9-1.2 5.3-2.9 7.3-5.1 2-2.2 3.5-4.7 4.5-7.5s1.5-5.9 1.5-9.1c0-3.2-.5-6.3-1.5-9.1-1-2.9-2.5-5.4-4.5-7.5Zm-6 21.8c-.2 1.8-.5 3.6-1 5.4a18 18 0 0 1-2 4.7c-.9 1.4-2 2.6-3.3 3.4-1.3.8-3 1.3-4.9 1.3-1.9 0-3.6-.4-4.9-1.3-1.3-.9-2.4-2-3.3-3.4-.8-1.4-1.5-3-2-4.7-.5-1.8-.8-3.6-1-5.4-.2-1.8-.3-3.6-.3-5.2s.1-3.4.3-5.2a31 31 0 0 1 1-5.3 18 18 0 0 1 2-4.7c.9-1.4 2-2.5 3.3-3.4 1.3-.8 3-1.3 4.9-1.3 1.9 0 3.6.4 4.9 1.3 1.4.8 2.5 2 3.3 3.4a18 18 0 0 1 2 4.7 31 31 0 0 1 1 5.3 46.66 46.66 0 0 1 0 10.4Zm67.7 3.7h3.1l-2.5 13.9h-36v-2.2l5.1-1.2v-39.1l-5.1-1.1v-2.2h20.9v2.2l-5.6 1.2v39h14.8c1.2-1.6 2.2-3.3 3-5 .7-1.6 1.5-3.5 2.3-5.5Zm6-31.8h20.3v2.2l-5 1.2v38.9l5 1.3v2.2h-20.3v-2.2l5.1-1.3v-38.9l-5.1-1.2v-2.2Zm58.4 0H507v2.2l-5.3 1.1v43h-4.1l-29.3-36.9v32.9l5.2 1.2v2.2H459v-2.2l5.3-1.2v-39.1l-5.3-1.1v-2.2h16.1l22.5 28.2v-24.9l-5.3-1.1v-2.1Zm44.8 22.8h20.8v2.2l-5.3 1.1v14.8c-1.2 1-2.9 2-4.9 2.8-2.1.8-4.3 1.5-6.7 1.9-2.4.5-4.8.7-7.1.7-4.6 0-8.7-1-12.1-2.8-3.5-1.9-6.2-4.6-8.1-8a24.1 24.1 0 0 1-2.9-11.9c0-3.5.6-6.8 1.7-9.8a22.13 22.13 0 0 1 12.4-12.6c2.9-1.2 6.1-1.8 9.6-1.8 2.6 0 5.1.3 7.4 1 2.3.6 4.2 1.5 5.7 2.7h.2l2.6-3h1.9v14.5h-2.7c-1.4-2.8-2.7-5.1-4.1-6.8a12.03 12.03 0 0 0-10-4.7c-4.5 0-7.9 1.7-10.1 5.1-2.2 3.4-3.4 8.5-3.4 15.3 0 6.8.9 11.8 2.8 14.9 1.9 3.1 4.8 4.6 8.8 4.6 1.7 0 3.3-.3 4.7-.9 1.4-.6 2.4-1.5 3.1-2.5.3-.4.5-.8.5-1.3.1-.4.1-1.1.1-2v-10.1l-5.3-1.1v-2.3h.4Zm69.3-20.6-5.3 1.1v25.6c0 2.3-.2 4.3-.7 6.2-.5 1.9-1.1 3.5-2 4.9-1.4 2.1-3.2 3.7-5.6 4.7-2.4 1.1-5.3 1.6-8.7 1.6-3.6 0-6.7-.5-9.5-1.7-2.8-1.1-4.9-2.7-6.5-4.7-.9-1.1-1.6-2.5-2-4-.4-1.6-.6-3.6-.6-6.1v-26.5l-5-1.1v-2.2h20.6v2.2l-5.2 1.1v26.5c0 4 .9 7.2 2.7 9.4 1.8 2.2 4.4 3.3 7.7 3.3 3.7 0 6.4-1.2 8.2-3.7.9-1.3 1.6-3 2-5 .4-2.1.6-4.9.6-8.3v-22.3l-5.3-1.1v-2.2h14.6v2.3Zm41.5 39.8c-.4-.5-.8-1.2-1.2-2.1l-17-41.1-8.8 3.4 2.7 6.1-11.2 28.6c-.6 1.6-1.2 2.8-1.8 3.7-.5.8-1.3 1.4-2.3 1.8-.9.4-2.3.8-4.2 1.1v2.2h18.4v-2.2c-2.1-.3-3.7-.7-4.8-1.1-1-.5-1.6-1.1-1.8-1.9-.1-.8 0-2 .5-3.4l1.7-4.5h13.3l2.4 6.4c.5 1.3.7 2.3.5 2.9-.2.6-.8 1-1.7 1.3-.9.2-2.3.3-4 .4v2.2h24.5v-2.2c-1.4-.1-2.6-.3-3.4-.5-.7-.3-1.3-.6-1.8-1.1Zm-28.4-12.9 5.4-14.1h.2l5.2 14.1h-10.8Z" fill="#F2F6E6"/><path d="M173.1 338c95.6 0 173.1-75.66 173.1-169S268.7 0 173.1 0 0 75.66 0 169s77.5 169 173.1 169Z" fill="#9ED821"/><path d="M138.8 116.7c-1.1-1.8-2.7-3.3-4.7-4.4-2-1.1-4.3-1.8-7-2.1v-.2c3.5-.6 6.2-1.8 8.2-3.4 1.9-1.7 2.9-3.7 2.9-6.1 0-1.8-.4-3.4-1.3-4.9-.8-1.5-2-2.8-3.6-3.8-1.3-.8-3-1.4-5-1.8-2-.4-4.5-.6-7.5-.6h-20v2.2l5.1 1.3v38.8l-5.1 1.3v2.2h21.1c3.6 0 6.4-.2 8.6-.7 2.2-.5 4-1.3 5.5-2.4 1.4-1 2.4-2.3 3.2-3.9.8-1.6 1.2-3.3 1.2-5.1 0-2.5-.5-4.6-1.6-6.4Zm-22.7-24.2h1.1c1.7 0 3.2.2 4.4.5 1.3.3 2.4.8 3.2 1.5.8.6 1.4 1.5 1.8 2.5.4 1 .7 2.2.7 3.6 0 2.4-.6 4.4-1.9 5.8-1.3 1.4-3.1 2.2-5.5 2.5-.4.1-.8.1-1.4.2H116V92.5h.1Zm11 37.1c-1.4 1.5-3.6 2.3-6.5 2.3-1.7 0-2.9-.2-3.6-.7-.6-.5-1-1.4-1-2.8v-16h2.2c3.8 0 6.5.8 8.3 2.5 1.8 1.6 2.7 4.2 2.7 7.6.1 3.1-.6 5.5-2.1 7.1Zm53.5-8.5c-.7 1.7-1.5 3.5-2.3 5.3-.8 1.8-1.9 3.5-3.2 5.3h-14.8v-19.2h7.5a24.4 24.4 0 0 1 2.6 6.7h2.5v-16.6h-2.5c-.2 1.1-.6 2.2-1 3.3-.4 1.1-.9 2.2-1.6 3.4h-7.5V92.6h15.1c1 1.6 1.9 3.2 2.7 4.9.8 1.7 1.4 3.3 1.9 4.9h2.5l-1.1-13h-36.3v2.2l5.1 1.1v39.1l-5.1 1.2v2.2h36l2.5-13.9h-3v-.2Zm34.3-9v2.2l5.3 1.1v10c0 .9 0 1.6-.1 2-.1.4-.3.9-.5 1.3-.7 1-1.8 1.9-3.2 2.5-1.4.6-3 .9-4.7.9-4 0-7-1.5-8.8-4.6-1.9-3.1-2.9-8.1-2.9-14.9 0-6.8 1.1-11.9 3.4-15.3 2.2-3.4 5.6-5.1 10.1-5.1 2.1 0 3.9.4 5.5 1.1 1.6.7 3.1 2 4.5 3.6 1.4 1.7 2.8 3.9 4.1 6.8h2.7V89.3h-1.9l-2.6 3h-.2c-1.4-1.1-3.3-2-5.7-2.7-2.3-.7-4.8-1-7.4-1-3.5 0-6.7.6-9.6 1.8-2.9 1.2-5.4 2.8-7.5 5-2.1 2.1-3.8 4.7-4.9 7.6-1.2 3-1.7 6.2-1.7 9.8 0 4.5 1 8.5 2.9 11.9 1.9 3.4 4.6 6.1 8.1 8 3.5 1.9 7.5 2.8 12.1 2.8 2.3 0 4.7-.2 7-.7 2.4-.5 4.6-1.1 6.7-2 2.1-.8 3.7-1.8 5-2.8v-14.8l5.3-1.1v-2.2h-21v.2Zm59.9 9a41 41 0 0 1-2.4 5.6c-.8 1.7-1.8 3.3-3 4.9h-14.8v-39l5.6-1.2v-2.2h-20.8v2.2l5.1 1.1v39.1l-5.1 1.2v2.2h36l2.5-13.9h-3.1Zm48 11.2c-.8-.2-1.4-.6-1.9-1-.4-.5-.8-1.2-1.2-2.1l-17-41.1-8.9 3.4 2.7 6.1-11.2 28.6c-.6 1.6-1.2 2.8-1.8 3.7-.5.8-1.3 1.4-2.3 1.8-.9.4-2.3.8-4.2 1.1v2.2h18.4v-2.2c-2.1-.3-3.7-.7-4.8-1.1-1-.5-1.6-1.1-1.8-1.9-.1-.8 0-2 .5-3.4l1.7-4.5h13.3l2.4 6.4c.5 1.3.7 2.3.5 2.9-.2.6-.8 1-1.7 1.3-.9.2-2.3.3-4 .4v2.2H326v-2.2c-1.3-.2-2.4-.3-3.2-.6Zm-30.3-13.9 5.4-14.1h.2l5.2 14.1h-10.8Zm33.2-29.1H324v2.2l3.3.7c-.5-1-1-1.9-1.6-2.9Zm14.6 36.1c-.2-.6-.4-1.3-.6-2v-.1c-2.8-9.6-6.4-18.9-10.7-27.7v23.5c0 2.5.2 4.5.6 6.1.4 1.6 1.1 2.9 2 4 1.6 2.1 3.7 3.6 6.5 4.7 1.4.6 3 1 4.6 1.3-.7-3.3-1.5-6.5-2.4-9.8Zm-209.2 43.9v2.2l5.3 1.1v22.3c0 3.4-.2 6.2-.6 8.3-.4 2.1-1.1 3.8-2 5-1.8 2.5-4.5 3.7-8.2 3.7-3.3 0-5.9-1.1-7.7-3.3-1.8-2.2-2.7-5.4-2.7-9.4v-26.5l5.2-1.1v-2.2H99.9v2.2l5 1.1v26.5c0 2.5.2 4.5.6 6.1.4 1.6 1.1 2.9 2 4 1.6 2.1 3.7 3.6 6.5 4.7s5.9 1.6 9.5 1.6c3.5 0 6.4-.5 8.7-1.6 2.4-1.1 4.3-2.6 5.6-4.7.9-1.4 1.5-3 2-4.9.5-1.9.7-4 .7-6.2v-25.6l5.3-1.1v-2.2h-14.7Zm4.1-10.4c-.8-.8-1.8-1.2-3.2-1.2-1.3 0-2.4.4-3.1 1.2-.7.8-1.1 1.8-1.1 2.8 0 .9.4 1.8 1.1 2.7.7.8 1.8 1.3 3.1 1.3 1.5 0 2.5-.4 3.2-1.3.7-.9 1.1-1.8 1.1-2.7.1-1-.3-2-1.1-2.8Zm-12.2 0c-.8-.8-1.8-1.2-3.1-1.2s-2.4.4-3.1 1.2c-.7.8-1.1 1.8-1.1 2.8 0 .9.3 1.8 1 2.7.7.8 1.8 1.3 3.2 1.3 1.4 0 2.5-.4 3.2-1.3.7-.9 1.1-1.8 1.1-2.7-.1-1-.4-2-1.2-2.8Zm64.5 37.8c-1.1-1.8-2.7-3.3-4.7-4.4-2-1.1-4.3-1.8-7-2.1v-.2c3.5-.6 6.2-1.8 8.2-3.4 1.9-1.7 2.9-3.7 2.9-6.1 0-1.8-.4-3.4-1.3-4.9-.8-1.5-2-2.8-3.6-3.8-1.3-.8-3-1.4-5-1.8-2-.4-4.5-.6-7.5-.6h-20v2.2l5.1 1.3v38.8l-5.1 1.3v2.2h21.1c3.6 0 6.4-.2 8.6-.7 2.2-.5 4-1.3 5.5-2.4 1.4-1 2.4-2.3 3.2-3.9.8-1.6 1.2-3.3 1.2-5.1.1-2.5-.5-4.6-1.6-6.4Zm-22.7-24.2h1.1c1.7 0 3.2.2 4.4.5 1.3.3 2.4.8 3.2 1.5.8.6 1.4 1.5 1.8 2.5.4 1 .7 2.2.7 3.6 0 2.4-.6 4.4-1.9 5.8-1.3 1.4-3.1 2.2-5.5 2.5-.4.1-.8.1-1.4.2h-2.5v-16.6h.1Zm11.1 37.1c-1.4 1.5-3.6 2.3-6.5 2.3-1.7 0-2.9-.2-3.6-.7-.6-.5-1-1.4-1-2.8v-16h2.2c3.8 0 6.5.8 8.3 2.5 1.8 1.6 2.7 4.2 2.7 7.6 0 3.1-.7 5.5-2.1 7.1Zm53.4-8.5c-.7 1.7-1.5 3.5-2.3 5.3-.8 1.8-1.9 3.5-3.2 5.3H209v-19.2h7.5a24.4 24.4 0 0 1 2.6 6.7h2.5v-16.6h-2.5c-.2 1.1-.6 2.2-1 3.3-.4 1.1-.9 2.2-1.6 3.4H209v-16.6h15.1c1 1.6 1.9 3.2 2.7 4.9.8 1.7 1.4 3.3 1.9 4.9h2.5l-1.1-13h-36.3v2.2l5.1 1.1v39.1l-5.1 1.2v2.2h36l2.5-13.9h-3v-.3Zm48.4 10.5-11.4-17.8c2.6-.9 4.7-2.4 6.1-4.3 1.5-1.9 2.2-4.4 2.2-7.2s-.7-5.2-2-7.1c-1.3-1.9-3.2-3.4-5.6-4.4-2.4-1-5.1-1.5-8.3-1.5h-21.4v2.2l5.1 1.3v38.8l-5.1 1.3v2.2h22v-2.2l-6.8-1.3v-16.4h2.4l12 19.9h16.2v-2.2l-5.4-1.3Zm-14.1-26.2c-.4 1.2-1 2.3-1.9 3.3-.8 1-1.9 1.8-3.2 2.3-1.3.6-3 .9-5.2.9h-.8v-19.4h1.2c1.2 0 2.2.1 3 .2.8.1 1.5.3 2.2.6 1.5.6 2.8 1.6 3.8 3.1 1 1.4 1.4 3.2 1.4 5.3.1 1.3-.1 2.5-.5 3.7Zm50.2 8.4c-1.6-2.3-4.3-4.4-8.1-6.3L301 185c-2.5-1.3-4.3-2.5-5.3-3.5a5.3 5.3 0 0 1-1.5-3.7c0-1.8.6-3.1 1.7-4.1 1.1-1 2.7-1.5 4.8-1.5 2.9 0 5.3.9 7.2 2.5 1.9 1.7 3.3 4.2 4.3 7.6h2.6l-.6-13.1h-2l-1.4 3.1c-2.9-2.5-6.4-3.7-10.4-3.7-2.9 0-5.5.5-7.8 1.6s-4.1 2.6-5.4 4.5c-1.3 1.9-2 4-2 6.5 0 3.1.9 5.9 2.8 8.3 1.8 2.4 4.7 4.5 8.6 6.4l4.8 2.4c2.6 1.2 4.4 2.4 5.4 3.5 1.1 1.1 1.6 2.3 1.6 3.5 0 2.1-.8 3.8-2.3 5-1.5 1.2-3.5 1.8-6 1.8-3.5 0-6.3-1-8.4-3-2.1-2-3.8-5.2-5.1-9.7l-2.5.4 1.2 15.2h1.9l2.1-2.4c2 1 3.9 1.8 5.6 2.3 1.7.5 3.5.7 5.4.7 3 0 5.8-.6 8.2-1.8 2.4-1.2 4.4-2.8 5.8-4.8 1.4-2 2.1-4.3 2.1-6.9-.1-3.3-.9-6-2.6-8.3Zm32.3-21.2v-3.3h-24.3v2.2l5.1 1.1v39.1l-5.1 1.2v2.2h17.8l.9-3.4H337v-19.2h7.4c.2-1.3.4-2.7.5-4-.1.3-.3.5-.4.8H337v-16.6h9.1v-.1ZM142.8 292.3c-.8-.2-1.4-.6-1.9-1-.4-.5-.8-1.2-1.2-2.1l-17-41.1-8.9 3.4 2.7 6.1-11.2 28.6c-.6 1.6-1.2 2.8-1.8 3.7-.5.8-1.3 1.4-2.3 1.8-.9.4-2.3.8-4.2 1.1v2.2h18.4v-2.2c-2.1-.3-3.7-.7-4.8-1.1-1-.5-1.6-1.1-1.8-1.9-.1-.8 0-2 .5-3.4l1.7-4.5h13.3l2.4 6.4c.5 1.3.7 2.3.5 2.9-.2.6-.8 1-1.7 1.3-.9.2-2.3.3-4 .4v2.2H146v-2.2c-1.3-.2-2.4-.3-3.2-.6Zm-30.3-13.9 5.4-14.1h.2l5.2 14.1h-10.8Zm71.2 1.1c-.6 1.6-1.2 3-1.8 4.3-.6 1.3-1.3 2.6-2 3.8-.7 1.2-1.6 2.6-2.6 4.1h-17.2l25-40.3v-2.2h-34.4l-3.1 13.4 2.5.1c.4-1.2 1-2.7 1.9-4.5.9-1.8 1.9-3.7 3.1-5.8h16.2l-24.8 40.2v2.3h36.1l3.7-15.4h-2.6Zm43.4 0c-.6 1.6-1.2 3-1.8 4.3-.6 1.3-1.3 2.6-2 3.8-.7 1.2-1.6 2.6-2.6 4.1h-17.2l25-40.3v-2.2H194l-3.1 13.4 2.5.1c.4-1.2 1-2.7 1.9-4.5.9-1.8 1.9-3.7 3.1-5.8h16.2l-24.8 40.2v2.3h36.1l3.7-15.4h-2.5Zm48.8 12.8c-.8-.2-1.4-.6-1.9-1-.4-.5-.8-1.2-1.2-2.1l-17-41.1-8.9 3.4 2.7 6.1-11.2 28.6c-.6 1.6-1.2 2.8-1.8 3.7-.5.8-1.3 1.4-2.3 1.8-.9.4-2.3.8-4.2 1.1v2.2h18.4v-2.2c-2.1-.3-3.7-.7-4.8-1.1-1-.5-1.6-1.1-1.8-1.9-.1-.8 0-2 .5-3.4l1.7-4.5h13.3l2.4 6.4c.5 1.3.7 2.3.5 2.9-.2.6-.8 1-1.7 1.3-.9.2-2.3.3-4 .4v2.2h24.5v-2.2c-1.3-.2-2.4-.3-3.2-.6Zm-30.3-13.9 5.4-14.1h.2l5.2 14.1h-10.8Zm70-23.2c-1.3-1.9-3.2-3.4-5.6-4.4-2.4-1-5.1-1.5-8.3-1.5h-21.4v2.2l5.1 1.3v38.8l-5.1 1.3v2.2h8.1c2.5-2.1 4.9-4.4 7.2-6.7v-13.2h2.4l4 6.6c5.7-6.2 10.9-12.8 15.6-19.7-.1-2.8-.7-5-2-6.9Zm-8.9 10.2c-.4 1.2-1 2.3-1.9 3.3-.8 1-1.9 1.8-3.2 2.3-1.3.6-3 .9-5.2.9h-.8v-19.4h1.2c1.2 0 2.2.1 3 .2.8.1 1.5.3 2.2.6 1.5.6 2.8 1.6 3.8 3.1 1 1.4 1.4 3.2 1.4 5.3 0 1.3-.1 2.5-.5 3.7Z" fill="#262C20"/></g><defs><clipPath id="a"><path fill="#fff" d="M0 0h728.8v338H0z"/></clipPath></defs></svg>