<svg width="280" height="240" fill="none" xmlns="http://www.w3.org/2000/svg"><g clip-path="url(#a)"><path d="M182.139 190.143s-6.852-2.184-2.904-7.425c3.956-5.236 4.072-8.38.272-13.705-3.812-5.32-2.44-8.872 1.304-12.325 3.748-3.46-4.288-9.013.912-12.453a10.65 10.65 0 0 0 4.785-10.945c-.409-2.336-.673-10.06 5.444-8.236 6.125 1.808 6.741 10.74 5.372 14.169-1.384 3.428-2.148 6.809 3.709 10.497 5.864 3.692 6.596 6.76 5.512 11.481-1.084 4.728-2.276 4.312.948 11.249 0 0 3.705 5.028-1.452 9.132-5.156 4.105-7.665 11.217-5.844 14.93l-18.058-6.369Z" fill="#A0D925"/><path d="M208.444 189.947h-36.671s-1.128 25.03 11.293 37.543h14.089c12.421-12.513 11.289-37.543 11.289-37.543Z" fill="#FFC01D"/><path d="M210.164 188.651h-40.387v3.884h40.387v-3.884Z" fill="#E5F2BE"/><path d="M208.361 105.62a8.187 8.187 0 0 1-2.401 5.799 8.199 8.199 0 0 1-5.799 2.402H94.384a8.208 8.208 0 0 1-7.58-5.062 8.206 8.206 0 0 1-.624-3.139V38.922a8.204 8.204 0 0 1 8.204-8.2h105.777a8.197 8.197 0 0 1 8.2 8.2v66.698Z" fill="#262C20"/><path d="M150.521 107.26v34.443l30.51-34.443h-30.51Z" fill="#262C20"/><path d="M101.794 125.679H19.987a6.343 6.343 0 0 0-6.34 6.344v51.584a6.346 6.346 0 0 0 6.34 6.341h18.386l19.105 21.566v-21.566h44.316a6.348 6.348 0 0 0 4.483-1.857 6.35 6.35 0 0 0 1.857-4.484v-51.584a6.333 6.333 0 0 0-3.913-5.861 6.335 6.335 0 0 0-2.427-.483Z" fill="#F2F6E6"/><path d="m58.197 213.402-20.146-22.738H19.986a7.067 7.067 0 0 1-7.06-7.057v-51.584a7.066 7.066 0 0 1 7.06-7.056h81.807a7.069 7.069 0 0 1 7.06 7.056v51.584a7.072 7.072 0 0 1-7.06 7.057H58.197v22.738Zm-38.21-87.003a5.626 5.626 0 0 0-5.625 5.624v51.584a5.63 5.63 0 0 0 5.624 5.621H38.7l.213.244 17.85 20.145v-20.389h45.031a5.63 5.63 0 0 0 5.62-5.621v-51.584a5.623 5.623 0 0 0-5.62-5.624H19.986Z" fill="#262C20"/><path d="M120.133 64.58v5.913h5.729v-5.912h3.464v15.381h-3.464V73.53h-5.729v6.432h-3.496V64.581h3.496ZM134.595 76.014l-1.102 3.948h-3.62l4.722-15.381h4.589l4.789 15.381h-3.756l-1.195-3.948h-4.427Zm3.922-2.602-.962-3.265c-.273-.914-.553-2.055-.781-2.969h-.045c-.228.914-.46 2.081-.715 2.97l-.914 3.264h3.417ZM144.52 64.58h3.488v12.462h6.12v2.92h-9.608V64.581ZM156.16 64.58h3.496v12.462h6.113v2.92h-9.609V64.581ZM181.03 72.114c0 5.04-3.064 8.1-7.557 8.1-4.568 0-7.241-3.444-7.241-7.829 0-4.612 2.945-8.06 7.489-8.06 4.721 0 7.309 3.54 7.309 7.788Zm-11.117.203c0 3.013 1.416 5.137 3.744 5.137 2.344 0 3.692-2.236 3.692-5.225 0-2.768-1.32-5.136-3.716-5.136-2.356 0-3.72 2.232-3.72 5.224Z" fill="#FFC01D"/><path d="M35.326 161.389a2.213 2.213 0 0 1-3.788 1.58 2.218 2.218 0 0 1-.64-1.58 2.211 2.211 0 0 1 1.349-2.116 2.2 2.2 0 0 1 1.73 0 2.21 2.21 0 0 1 1.35 2.116Zm-4.176 14.949.54-11.321h2.868l.54 11.321H31.15ZM53.444 162.853c0 5.5-3.337 8.832-8.241 8.832-4.972 0-7.88-3.752-7.88-8.532 0-5.025 3.208-8.781 8.156-8.781 5.156 0 7.965 3.853 7.965 8.481Zm-12.117.228c0 3.284 1.54 5.596 4.08 5.596 2.564 0 4.032-2.44 4.032-5.696 0-3.013-1.448-5.601-4.056-5.601-2.564 0-4.056 2.436-4.056 5.701ZM55.935 154.644h3.808v13.585h6.661v3.184H55.936v-16.769ZM72.705 167.109l-1.197 4.304H67.58l5.125-16.769h4.98l5.197 16.769h-4.077l-1.296-4.304h-4.804Zm4.256-2.836-1.044-3.56c-.296-.997-.6-2.241-.848-3.237h-.048c-.248.996-.5 2.269-.776 3.237l-.992 3.56h3.708ZM84.582 169.421a2.222 2.222 0 0 1 2.225-2.264 2.23 2.23 0 0 1 1.587.666 2.23 2.23 0 0 1 .637 1.598 2.229 2.229 0 0 1-1.364 2.091 2.212 2.212 0 0 1-1.72 0 2.216 2.216 0 0 1-1.207-1.227 2.227 2.227 0 0 1-.158-.864Zm.82-3.504-.571-11.273h3.952l-.544 11.273h-2.837Z" fill="#262C20"/><path d="M77.501 21.333h-36.15a6.019 6.019 0 0 0-6.013 6.025v4.112a6.017 6.017 0 0 0 6.012 6.02h2.193c2.14 2.997 6.876 8.35 13.653 8.638 0 0-4.728-4.065-2.184-8.637h22.49a6.026 6.026 0 0 0 6.028-6.02v-4.113a6.026 6.026 0 0 0-6.029-6.025Z" fill="#FFC01D"/><path d="m213.625 107.896 1.56-1.348c.136-.12 3.204-2.832 1.84-5.92h-18.262a5.731 5.731 0 0 1-5.724-5.72v-3.42a5.737 5.737 0 0 1 5.724-5.73h30.055a5.733 5.733 0 0 1 5.724 5.73v3.42a5.725 5.725 0 0 1-5.724 5.72h-1.444c-2.004 2.712-6.013 6.94-11.693 7.184l-2.056.084Zm-14.862-20.701a4.296 4.296 0 0 0-4.288 4.292v3.42a4.292 4.292 0 0 0 4.288 4.285h19.126l.204.372c1.376 2.468.516 4.912-.632 6.568 4.316-.96 7.409-4.464 8.961-6.64l.212-.3h2.184a4.287 4.287 0 0 0 4.288-4.285v-3.42a4.293 4.293 0 0 0-4.288-4.292h-30.055Z" fill="#9ED821"/><path d="M198.763 87.195a4.296 4.296 0 0 0-4.288 4.292v3.42a4.292 4.292 0 0 0 4.288 4.285h19.126l.204.372c1.376 2.468.516 4.912-.632 6.568 4.316-.96 7.409-4.464 8.961-6.64l.212-.3h2.184a4.287 4.287 0 0 0 4.288-4.285v-3.42a4.293 4.293 0 0 0-4.288-4.292h-30.055Z" fill="#9ED821"/><path d="m22.33 100.54-1.195-.44-1.05 3.128 1.222.36 1.023-3.048ZM24.259 96.171l-1.14-.58a9.945 9.945 0 0 0-.729 1.48c-.324.769-.648 1.525-.648 1.525l1.176.488.628-1.477c.192-.5.43-.98.713-1.436ZM26.695 92.087l-1.04-.732s-1.852 2.756-1.772 2.804l1.108.628c-.076-.044 1.704-2.7 1.704-2.7ZM29.743 88.447l-.916-.892-1.148 1.208c-.52.644-1.036 1.292-1.036 1.292l1.004.792.992-1.248 1.104-1.152ZM33.319 85.35l-.744-1.036c-.06-.072-2.593 2.092-2.593 2.092l.857.94s2.424-2.071 2.48-1.996ZM37.38 82.914l-.556-1.148s-.752.36-1.468.78c-.728.404-1.44.84-1.44.84l.684 1.076s.68-.412 1.38-.8c.68-.404 1.4-.748 1.4-.748ZM41.795 81.202l-.356-1.224s-3.16 1.048-3.128 1.124l.492 1.172c-.036-.072 2.992-1.072 2.992-1.072ZM46.444 80.214l-.164-1.264s-3.276.552-3.26.624l.292 1.24c-.016-.068 3.132-.6 3.132-.6ZM51.2 79.922l.009-1.276c0 .004-3.317.08-3.313.148l.108 1.272c-.003-.068 3.197-.14 3.197-.144ZM55.956 80.254l.172-1.264s-.824-.084-1.644-.176c-.55-.07-1.102-.107-1.656-.112l-.06 1.276c.533.002 1.066.037 1.596.104.796.092 1.592.172 1.592.172ZM60.644 81.174l.32-1.24s-.812-.184-1.608-.372c-.537-.134-1.08-.24-1.628-.316l-.22 1.26c.529.07 1.054.17 1.572.3.784.18 1.564.368 1.564.368ZM65.187 82.642l.463-1.184s-.776-.28-1.552-.564a15.554 15.554 0 0 0-1.576-.512l-.372 1.224c.518.137 1.028.3 1.528.492l1.509.544ZM69.481 84.695l.628-1.108s-.724-.413-1.468-.777a20.845 20.845 0 0 0-1.496-.712l-.524 1.165s.74.311 1.448.687c.716.352 1.412.748 1.412.745ZM73.395 87.355l.812-.985a15.126 15.126 0 0 0-1.32-1.02c-.693-.467-1.377-.94-1.377-.94l-.684 1.08s.656.449 1.316.897c.435.3.853.623 1.253.968ZM76.619 90.73l1.044-.735a19.039 19.039 0 0 0-2.224-2.536l-.88.92c.756.72 1.445 1.507 2.06 2.352ZM78.347 94.86l1.267-.149a9.8 9.8 0 0 0-1.076-3.292l-1.128.592c.264.435.466.905.6 1.396.19.463.304.953.337 1.452ZM78.082 99.5l1.26.204c.126-.557.218-1.12.276-1.689.024-.816.04-1.632.04-1.632l-1.272-.032s-.024.816-.04 1.632a13.06 13.06 0 0 1-.264 1.516ZM76.406 103.7l1.056.72c.334-.467.625-.964.869-1.484l.624-1.592-1.208-.388s-.285.712-.569 1.432a7.527 7.527 0 0 1-.772 1.312ZM73.086 106.652l.54 1.152s.748-.448 1.504-.892c.457-.358.887-.748 1.288-1.168l-.928-.88c-.345.364-.715.704-1.108 1.016-.648.38-1.296.772-1.296.772ZM68.694 107.34l-.112 1.272c-.028.185 3.472-.044 3.428-.256l-.32-1.232c.048.184-3 .376-2.996.216ZM64.378 105.94l-.616 1.112c.478.307.99.56 1.524.752.816.28 1.624.56 1.624.56l.308-1.24-1.452-.512a6.963 6.963 0 0 1-1.388-.672ZM60.708 103.092l-.912.888c-.108.112 2.537 2.22 2.537 2.22l.732-1.04s-2.449-1.96-2.357-2.068ZM57.84 99.368l-1.08.675s1.824 2.801 1.936 2.717l.984-.812a25.13 25.13 0 0 1-1.84-2.58ZM55.705 95.143l-1.183.484a31.591 31.591 0 0 0 1.432 3l1.12-.603a28.662 28.662 0 0 1-1.369-2.88ZM54.27 90.62l-1.24.299c.096.547.22 1.09.371 1.624.28.78.564 1.556.564 1.556l1.2-.432s-.276-.748-.548-1.5a15.64 15.64 0 0 1-.348-1.548ZM53.65 85.95l-1.277.048.056 1.673c.01.382.065.762.164 1.132.064.308.1.516.1.516l1.265-.216a8.417 8.417 0 0 1-.26-1.564c-.02-.793-.049-1.588-.049-1.588ZM53.88 81.226l-1.268-.164s-.447 3.296-.295 3.304l1.272.028c-.152-.004.292-3.168.292-3.168Z" fill="#F2F6E6"/><path d="m54.869 76.582-1.228-.348s-.213.796-.424 1.6a14.807 14.807 0 0 0-.4 1.608l1.256.236c.096-.523.222-1.04.38-1.548l.416-1.548ZM56.488 72.105l-1.171-.508-1.249 3.068 1.208.408 1.212-2.968ZM58.646 67.84l-1.108-.635-1.593 2.9 1.153.556 1.548-2.82ZM61.244 63.833l-1.032-.748-1.888 2.712 1.08.672 1.84-2.636ZM64.237 60.092l-.96-.836-2.14 2.505 1.008.78 2.092-2.449ZM67.561 56.648l-.871-.924s-2.428 2.236-2.356 2.308l.927.868c-.063-.064 2.3-2.252 2.3-2.252ZM71.186 53.508l-.796-1s-.645.508-1.296 1.012a9.495 9.495 0 0 0-1.237 1.092l.848.952a8.378 8.378 0 0 1 1.209-1.068c.636-.492 1.272-.988 1.272-.988ZM75.063 50.688l-.705-1.065s-.7.44-1.396.88c-.648.509-1.3 1.013-1.3 1.013l.764 1.02s.64-.492 1.272-.988l1.365-.86ZM79.167 48.207l-.604-1.12c-.056-.088-2.84 1.676-2.84 1.676l.676 1.08c0 .004 2.724-1.72 2.768-1.636ZM83.468 46.08l-.509-1.169-2.955 1.456.576 1.137 2.888-1.425ZM87.959 44.4l-.4-1.21-3.088 1.153.472 1.184 3.016-1.127ZM92.576 43.135l-.284-1.24-3.196.812.364 1.224 3.116-.796ZM97.292 42.287l-.172-1.268s-.82.116-1.629.228c-.82.116-1.635.252-1.635.252l.251 1.248s.793-.132 1.588-.24c.805-.112 1.597-.22 1.597-.22ZM102.061 41.847l-.056-1.276-1.648.04c-.82.048-1.64.192-1.64.192l.136 1.268c.53-.091 1.064-.153 1.6-.184.804-.024 1.608-.04 1.608-.04ZM106.825 41.815l.112-1.268a28.704 28.704 0 0 0-3.316-.008l.016 1.276a29.277 29.277 0 0 1 3.188 0ZM111.497 42.667l.309-1.236s-.8-.216-1.612-.364c-.813-.188-1.636-.3-1.636-.3l-.197 1.26s.8.108 1.577.288c.788.148 1.559.352 1.559.352ZM115.986 44.183l.52-1.168s-.772-.316-1.556-.624a18.428 18.428 0 0 0-1.576-.528l-.372 1.224c.513.14 1.018.309 1.512.504.732.292 1.472.592 1.472.592ZM119.881 46.667l.864-.932a10.75 10.75 0 0 0-1.328-1.08c-.72-.456-1.436-.904-1.436-.904l-.62 1.112 1.32.836c.426.29.827.614 1.2.968ZM122.203 50.404l1.232-.317c.232-.084-1.372-3.236-1.548-3.112l-1 .785c.156-.093 1.52 2.58 1.316 2.644ZM122.047 54.856l1.228.332.4-1.672.032-1.74-1.272.072s-.012.752-.028 1.504c-.184.748-.36 1.504-.36 1.504ZM119.551 58.224l.64 1.104a7.108 7.108 0 0 0 1.412-1.072 5.763 5.763 0 0 0 1.116-1.476l-1.16-.528a4.028 4.028 0 0 1-.848 1.088c-.347.343-.737.64-1.16.884ZM115.197 59.412l.08 1.272s.848-.064 1.696-.2c.408-.096.832-.2 1.148-.276.308-.104.508-.175.508-.175l-.42-1.2s-.18.056-.448.155c-.28.064-.656.157-1.028.244-.76.12-1.536.176-1.536.18ZM110.573 58.988l-.296 1.236s.82.197 1.652.317c.841.12 1.689.152 1.689.152l.056-1.273s-.784-.028-1.561-.144a21.801 21.801 0 0 1-1.54-.288ZM106.221 57.3l-.608 1.12s.732.404 1.504.744c.776.337 1.569.608 1.569.604l.408-1.203s-.748-.257-1.464-.569a23.042 23.042 0 0 1-1.409-.696ZM102.488 54.524l-.908.908a21.236 21.236 0 0 0 2.616 2.132l.712-1.06a17.75 17.75 0 0 1-2.42-1.98ZM99.688 50.812l-1.116.616a18.29 18.29 0 0 0 1.896 2.784l.984-.816a17.27 17.27 0 0 1-1.764-2.584ZM98.049 46.46l-1.24.28c.262 1.091.61 2.162 1.04 3.2l1.172-.505a19.888 19.888 0 0 1-.972-2.976Z" fill="#F2F6E6"/><path d="m97.564 41.787-1.276-.008c-.017.559-.002 1.119.044 1.676l.16 1.664 1.264-.18-.152-1.572a12.816 12.816 0 0 1-.04-1.58ZM98.016 37.075l-1.252-.229s-.136.825-.276 1.645c-.068.824-.14 1.656-.14 1.656l1.272.088.136-1.588c.135-.784.26-1.572.26-1.572ZM99.196 32.454l-1.212-.384s-.276.78-.492 1.58c-.204.8-.4 1.608-.4 1.608l1.24.284s.196-.772.384-1.552c.216-.772.48-1.536.48-1.536ZM100.897 27.99l-1.172-.52s-.332.76-.628 1.528l-.609 1.532 1.2.436s.297-.744.589-1.496.62-1.48.62-1.48ZM103.229 23.882l-1.048-.729-.928 1.393c-.3.467-.564.956-.788 1.464l1.132.588c.213-.485.464-.952.752-1.397l.88-1.32ZM106.285 20.301l-.885-.924s-.152.14-.375.356a5.527 5.527 0 0 0-.797.832c-.544.636-1.083 1.272-1.083 1.272l1.004.792s.508-.604 1.024-1.204a9.562 9.562 0 0 1 1.112-1.124ZM109.997 17.385l-.68-1.076s-.7.46-1.376.956c-.672.492-1.332 1.004-1.332 1.004l.82.976s.628-.48 1.265-.948c.639-.476 1.303-.912 1.303-.912ZM114.217 15.273l-.464-1.188s-3.064 1.324-3.016 1.416l.608 1.12c-.044-.088 2.872-1.344 2.872-1.348ZM118.765 13.945l-.26-1.252s-.812.18-1.624.355c-.8.249-1.588.5-1.588.5l.396 1.213s.76-.244 1.516-.48l1.56-.336ZM123.474 13.333l-.064-1.273c-.008-.084-3.305.329-3.305.329l.196 1.264s3.169-.4 3.173-.32ZM128.237 13.38l.104-1.268s-.823-.036-1.652-.075c-.832-.045-1.664-.036-1.664-.036l.012 1.276s.8-.012 1.6.036c.8.036 1.6.068 1.6.068ZM132.947 14.113l.268-1.24s-.808-.165-1.62-.337c-.812-.147-1.644-.224-1.644-.224l-.16 1.264c.004 0 .8.073 1.588.22.78.16 1.568.317 1.568.317ZM137.531 15.425l.428-1.208c.02-.06-3.16-.976-3.16-.976l-.324 1.236s3.08.88 3.056.948ZM141.922 17.285l.576-1.14s-.748-.348-1.504-.696c-.748-.352-1.516-.668-1.516-.668l-.48 1.18s.744.312 1.468.648c.728.336 1.456.676 1.456.676ZM145.991 19.745l.732-1.04s-.684-.468-1.376-.928a15.856 15.856 0 0 0-1.428-.844l-.636 1.112c.478.24.939.51 1.38.812.668.444 1.328.888 1.328.888ZM149.664 22.753l.88-.92c-.383-.4-.791-.777-1.22-1.128-.644-.52-1.288-1.044-1.288-1.044l-.788 1.008s.628.504 1.248 1.008c.411.335.801.695 1.168 1.076ZM152.817 26.29l1.028-.76c.072-.06-2.124-2.565-2.124-2.565l-.932.872s2.108 2.4 2.028 2.453ZM155.29 30.322l1.14-.56s-1.569-2.944-1.661-2.888l-1.064.696c.088-.052 1.585 2.752 1.585 2.752ZM156.889 34.755l1.236-.32-.444-1.609c-.28-.788-.608-1.556-.608-1.556l-1.18.48s.292.74.576 1.476c.216.764.42 1.529.42 1.529ZM157.618 39.41l1.276-.067c.112-.008-.4-3.317-.396-3.317l-1.252.24c.178 1.041.302 2.091.372 3.145ZM157.449 44.14l1.268.163a30.86 30.86 0 0 0 .216-3.328l-1.268-.008a29.007 29.007 0 0 1-.216 3.172ZM156.469 48.78l1.224.355c.195-.518.34-1.054.432-1.6.168-.812.328-1.628.328-1.628l-1.256-.232-.312 1.564a8.46 8.46 0 0 1-.416 1.54ZM154.812 53.248l1.177.516s.324-.76.652-1.524a6.27 6.27 0 0 0 .4-1.06c.096-.3.156-.496.156-.496l-1.204-.413s-.064.193-.152.477a7.104 7.104 0 0 1-.388 1.028c-.316.736-.641 1.472-.641 1.472Z" fill="#F2F6E6"/><path d="M279.998 126.998a5.986 5.986 0 0 0-5.182-6.096 5.987 5.987 0 0 0-2.875.32 7.758 7.758 0 0 0-8.13-5.252 7.777 7.777 0 0 0-3.275 1.099 12.105 12.105 0 0 0-22.142 4.336 6.916 6.916 0 0 0-10.869 5.565c0 .076.009.148.016.228l52.329.908c.083-.364.126-.735.128-1.108ZM52.472 67.773a5.982 5.982 0 0 0-8.056-5.768 7.786 7.786 0 0 0-7.233-5.293 7.692 7.692 0 0 0-4.172 1.136 12.107 12.107 0 0 0-22.146 4.337 6.829 6.829 0 0 0-3.825-1.24A6.924 6.924 0 0 0 0 67.749c0 .076.012.148.016.232l52.332.904c.08-.365.122-.738.124-1.112Z" fill="#D4E6F4"/><path d="M119.096 195.652c-.976 10.349-.848 32.163 3.633 31.675 4.488-.484 6.796-2.304 4.104-2.764-2.692-.444-2.828-.74-2.844-1.556-.144-5.137 3.136-15.15 4.128-22.71 1.156-8.773-8.165-13.689-9.021-4.645Z" fill="#FEA081"/><path d="M120.541 225.411s4.129 1.18 6.293-.848c0 0 4.472.088 1.872 1.616-2.601 1.54-7.801 3.236-8.165-.768Z" fill="#262C20"/><path d="M146.675 162.154c-4.52 9.357-12.001 29.842-7.62 30.954 4.364 1.104 7.164.204 4.796-1.164-2.36-1.36-2.388-1.68-2.124-2.452 1.66-4.852 8.224-13.101 11.785-19.85 4.132-7.821-2.893-15.681-6.837-7.488Z" fill="#FEA081"/><path d="M137.667 190.548s3.452 2.536 6.185 1.396c0 0 4.172 1.624 1.208 2.168-2.981.536-8.441.304-7.393-3.564ZM141.007 146.324s17.85-8.512 19.746.272c1.716 7.897-13.185 36.524-13.185 36.524s-5.153 1.087-9.125-2.365l4.012-18.329-11.221-.264 2.584-12.646 7.189-3.192Z" fill="#262C20"/><path d="m116.881 151.013 1.412 66.513 7.873-.216 10.12-68.653s-5.928 3.2-19.405 2.356Z" fill="#274128"/><path d="M136.366 130.707s-6.652-1.924-6.668-10.293c-.02-8.345 4.812-27.474 4.732-30.57-.16-5.648-8.724-6.017-5.48-6.305 4.176-.356 6.784-2.336 7.801 1.985.684 2.988 3.992 31.602 3.612 36.45-.388 4.849.696 8.537-3.997 8.733Z" fill="#FEA081"/><path d="M142.928 145.488c1.208-7.12-.729-16.181-3.788-22.41-4.237-8.628-12.914-6.908-17.938-4.872-5.02 2.032-13.325 5.193-7.477 15.661 4.089 7.301 3.425 12.577 2.924 20.798-.019.22-.043.416-.064.628a.117.117 0 0 1-.036-.008c.013 0 .02.008.036.008-1.912 9.269 24.966-1.708 26.343-9.805Z" fill="#FFC01D"/><path d="M122.086 134.272s-5.941 3.56-12.085-2.109c-6.129-5.66-18.55-21.902-19.438-24.862-.9-2.956-10.357.576-8.293-1.944 2.068-2.52 3.092-4.304 6.949-2.1 2.656 1.524 25.878 18.574 29.178 22.142 3.296 3.576 6.733 5.296 3.689 8.873Z" fill="#FEA081"/><path d="M114.533 115.626s4.569 1.092 4.473 4.852c-.112 3.873 12.301-1.496 10.181-2.816-2.745-1.704-5.249-1.62-7.157-5.16l-7.497 3.124Z" fill="#EF8867"/><path d="M112.472 105.285c3.708-.52 14.389 4.264 14.545 8.069.06 1.652-4.12 4.908-10.029 4.34-2.432-.24-6.464-1.34-8.173-5.369-.779-1.828-.675-6.44 3.657-7.04Z" fill="#FEA081"/><path d="M115.272 103.965c1.485.416 1.629.76-.536 4.496-2.168 3.757-2.84 4.153-1.772 4.445 3.129.88.772 2.884 4.533 3.908 3.764 1.008-.168 2.448-3.448 1.856-.653-.128-4.009-.52-6.173-4.928-2.536-5.129 1.932-11.289 7.396-9.777Z" fill="#262C20"/><path d="M107.876 113.742a7.994 7.994 0 0 0 6.173 4.928c2.44.432 5.289-.22 4.956-1.036-.404-.996-2.384.924-3.868-1.252-1.48-2.164-2.94-1.2-4.396-2.88-1.472-1.68-.12-2.693 2.316-6.913.992-1.72.64-2.488-.132-2.8-4.276.488-6.989 5.48-5.049 9.953ZM142.456 162.426l-8.177-.196.728-4.921s-.216 4.113 7.449 5.117ZM117.021 157.745s13.061.54 21.126-6.152c0 0-10.213 10.321-21.034 10.449l-.092-4.297Z" fill="#262C20"/></g><defs><clipPath id="a"><path fill="#fff" d="M0 0h280v240H0z"/></clipPath></defs></svg>