<svg width="280" height="240" fill="none" xmlns="http://www.w3.org/2000/svg"><g clip-path="url(#a)"><path d="M209.28 138.03H60.34a7.25 7.25 0 0 1-7.4-7.07V42.39a7.25 7.25 0 0 1 7.4-7.06h148.93c4.09 0 7.42 3.17 7.42 7.06v88.57a7.25 7.25 0 0 1-7.42 7.06ZM60.34 36.59a5.99 5.99 0 0 0-6.15 5.8v88.57a5.99 5.99 0 0 0 6.15 5.8h148.93a6 6 0 0 0 6.16-5.8V42.39a6 6 0 0 0-6.16-5.8H60.34Z" fill="#262C20"/><path d="M209.28 35.96H60.34a6.6 6.6 0 0 0-6.78 6.43v11.95h162.5V42.39a6.61 6.61 0 0 0-6.78-6.43Z" fill="#A0D925"/><path d="M70 45.2a3.37 3.37 0 1 1-3.36-3.2A3.28 3.28 0 0 1 70 45.2Zm8.51 0a3.37 3.37 0 1 1-3.37-3.2 3.28 3.28 0 0 1 3.37 3.2Zm8.21 0a3.37 3.37 0 1 1-3.36-3.2 3.28 3.28 0 0 1 3.36 3.2Z" fill="#F2F6E6"/><path d="M130.5 128.9H74.82v-14.3h55.69v14.3Zm-54.43-1.26h53.18v-11.8H76.07v11.8Zm116.03 1.26H136.4v-14.3h55.69v14.3Zm-54.43-1.26h53.17v-11.8h-53.17v11.8Zm67.42-18.52H65.08V60.65h140v48.47Zm-138.75-1.26h137.49V61.91H66.33v45.96Z" fill="#262C20"/><path d="M92.4 72.75 92.5 92l-4.37.03-.12-19.26 4.37-.02Zm8.68 1.23.03 4 3.12-.02v3.2l-3.1.02.03 5.05c0 1.69.41 2.46 1.73 2.45a7.41 7.41 0 0 0 1.28-.12l.05 3.28a8.43 8.43 0 0 1-2.82.39 4.54 4.54 0 0 1-3.27-1.18c-.8-.82-1.21-2.16-1.22-4.13l-.04-5.72-1.86.01-.01-3.2h1.85l-.01-3.03 4.24-1Zm13.68 17.89-.27-1.4h-.08a5.03 5.03 0 0 1-3.99 1.74 4.29 4.29 0 0 1-4.54-4.26c-.02-3.63 3.23-5.39 8.17-5.4v-.2c0-.74-.42-1.79-2.56-1.78a7.86 7.86 0 0 0-3.85 1.08l-.82-2.79a11.51 11.51 0 0 1 5.42-1.26c4.66-.03 6.16 2.7 6.18 5.99l.03 4.86a21.08 21.08 0 0 0 .22 3.4l-3.91.02Zm-.55-6.6c-2.29-.01-4.06.54-4.05 2.22a1.56 1.56 0 0 0 1.06 1.58c.21.07.44.1.67.07a2.37 2.37 0 0 0 2.24-1.61c.06-.25.09-.5.09-.74l-.01-1.52Zm7.57-13.73 4.34-.02.12 20.28-4.34.02-.12-20.28Zm12.35 2.36a2.18 2.18 0 0 1-1.44 2.06 2.18 2.18 0 0 1-.89.12 2.19 2.19 0 1 1 0-4.37 2.17 2.17 0 0 1 2.33 2.19Zm-4.37 17.88-.09-13.97 4.35-.03.08 13.97-4.34.03Zm15.76-.1-.26-1.4h-.09a5.04 5.04 0 0 1-3.98 1.74 4.29 4.29 0 0 1-4.19-2.56 4.29 4.29 0 0 1-.35-1.7c-.03-3.62 3.22-5.38 8.16-5.39v-.2c0-.74-.41-1.8-2.55-1.78a7.8 7.8 0 0 0-3.85 1.08l-.82-2.8a11.48 11.48 0 0 1 5.42-1.26c4.66-.03 6.16 2.7 6.18 6l.03 4.85a21.76 21.76 0 0 0 .21 3.4l-3.91.02Zm-.55-6.6c-2.29 0-4.06.54-4.04 2.23a1.55 1.55 0 0 0 .48 1.22 1.56 1.56 0 0 0 1.24.43 2.37 2.37 0 0 0 2.25-1.62 2.99 2.99 0 0 0 .08-.74l-.01-1.51Zm7.64-2.96a96.07 96.07 0 0 0-.14-4.45l3.77-.03.21 1.92h.09a5.11 5.11 0 0 1 4.3-2.25c2.85-.02 5 1.85 5.03 5.97l.05 8.28-4.34.02-.05-7.74c-.01-1.8-.65-3.02-2.22-3a2.31 2.31 0 0 0-2.18 1.63 3 3 0 0 0-.17 1.09l.05 8.05-4.34.03-.06-9.52Zm30.55 2.2c.03 5.1-3.59 7.47-7.33 7.5-4.09.02-7.24-2.65-7.27-7.16-.03-4.51 2.93-7.42 7.41-7.45 4.29-.02 7.16 2.9 7.19 7.1Zm-10.12.2c.02 2.4 1.03 4.2 2.89 4.18 1.68-.01 2.76-1.7 2.74-4.22-.01-2.08-.82-4.19-2.8-4.18-2.08.02-2.84 2.16-2.83 4.22ZM14.78 128.3c9.16-21.13 33.78-27.57 47.95-9.59 14.16 17.99 23.59 34.7 33.9 45.5 11.3 11.85 11.92 44.2-26.7 47.66-53.85 4.83-92.36 2.2-55.15-83.57Z" fill="#262C20"/><path d="M30.9 122.88s-16.4 19.48-10.4 50.33c3 15.5 15.82 32 49.7 24.02 33.86-8 13.53-34.99 11.48-38.56-2.74-4.76-31.23-56.07-50.77-35.79Z" fill="#B0B0B0" fill-opacity=".5"/><path d="m126.37 18.24.73-.67 2.87 3.11a2.3 2.3 0 0 0 3.25.14l2.5-2.28a3.3 3.3 0 0 1 4.66.22l1.88 2.08a2.3 2.3 0 0 0 3.28.13l2.19-2.05a3.26 3.26 0 0 1 2.47-.9 3.31 3.31 0 0 1 2.33 1.2l1.17 1.42a2.3 2.3 0 0 0 3.49.08l2.66-2.97.74.67-2.66 2.97a3.29 3.29 0 0 1-5-.11l-1.16-1.42a2.3 2.3 0 0 0-1.64-.84 2.26 2.26 0 0 0-1.72.62l-2.19 2.06a3.3 3.3 0 0 1-4.7-.19l-1.88-2.08a2.3 2.3 0 0 0-3.25-.15l-2.5 2.28a3.3 3.3 0 0 1-4.65-.2l-2.87-3.12Zm46.67 5.46a3.62 3.62 0 0 1-3.55-4.33 3.62 3.62 0 1 1 3.55 4.33Zm0-6a2.37 2.37 0 1 0 0 4.75 2.37 2.37 0 0 0 0-4.75Z" fill="#F2F6E6"/><path d="M59.52 138.51s-8.4 4.35-1.6 9.87c6.8 5.52 14.27 10.8 15.73 6.77 1.46-4.03-10.84-14.8-14.13-16.64Z" fill="#FEA081"/><path d="M48.07 176.52c.37 5.37 4.65 11.69 16.77 3.51 4.41-2.97 6.62-9.03 12.33-14.33 3.96-3.68.61 20.79 11.6 20.28 0 0 5.26.1 4.42-1.34-.85-1.42-5.6-1.95-5.74-4.22-.15-2.26 2.47-30.5-5.87-31.7-8.34-1.19-34.26 16.91-33.5 27.8Z" fill="#FEA081"/><path d="M48.52 170.52c-2.75 5.1-9.46 16 4.07 14.73 4.18-.39 13.61-1.1 17.48-9.11 0 0 6.1-12.28 8.02-9.67 1.4 1.91 1.4 10.12 3.03 14.57a8.14 8.14 0 0 0 6.9-1.81s3.4-27.51-6.7-31.11c-7.36-2.63-26.15 10.1-32.8 22.4Z" fill="#262C20"/><path d="M83.78 221.69c2.05 2.62 4.6 4.25 7.86 3.2 0 0 5.1-1.3 3.91-2.45-1.2-1.16-5.9-.4-6.65-2.55-.74-2.16-9.7-4.01-5.12 1.8Z" fill="#FEA081"/><path d="M37.71 166.47s-11.88 15.87 12.45 26.16c24.34 10.3 32.76 29.95 32.76 29.95s5.3.42 6.64-3.88c0 0-7.51-26.65-20.88-37.76-11.13-9.26-16.79-15.5-26.4-15.5l-4.57 1.03Z" fill="#274128"/><path d="M67.42 179.88c.48-.38.9-.83 1.22-1.35l-9.82-5.89 8.6 7.24Zm-6.77-20.32s-4.09 9.5-25.84 16.1a13.97 13.97 0 0 1 1.26-6.17l24.58-9.93Z" fill="#262C20"/><path d="m85.55 222.33.5-.19c-7.75-19.94-21.22-26.46-31.06-31.22a66.13 66.13 0 0 1-6.8-3.59c-8.76-5.64-8.59-15.96-8.59-16.06l-.53-.01c0 .1-.18 10.71 8.84 16.52a67.79 67.79 0 0 0 6.85 3.62c9.76 4.71 23.12 11.18 30.8 30.93Z" fill="#F2F6E6"/><path d="M49.08 117.1c-2.9-1.91-11.98-3.86-15.06 7.29-.68 2.43-1 6.53-5.15 8.7-2.92 1.55-8.6 8.11-.95 15.1 7.65 6.98-2.36 11.3 4.6 12.35 6.97 1.03 21.3-5.9 23.21-16.32 3-16.42-.82-23.29-6.65-27.13Z" fill="#262C20"/><path d="M83.96 128.65a6.8 6.8 0 0 0-3.79 5.66c-.41 3.97-8.34 12.28-11.22 11.47-.81-.23-2.63-1.8-2.63-1.8l-5.3 6.8s3.12 3.52 6.93 4.21c1.52.28 6.23.22 12.32-12.53 6.73-14.1 4.15-14.1 3.69-13.81Z" fill="#FEA081"/><path d="M47.79 135.68s-1.32.43 2.3 7.05c3.62 6.63 4.45 6.77 4.45 6.77s8.64-1.75 9.61-8.12c0 0-9.22-11.1-16.36-5.7Z" fill="#E6A81B"/><path d="M61.02 156.98c-2.13-7.32.15-10.95-2.3-17.04-3.42-8.45-11.74-7.42-16.63-5.83-4.88 1.58-12.95 3.99-8.13 14.28 3.36 7.19 2.37 12.12 1.33 19.87l-.1.57h-.03a.1.1 0 0 0 .02 0c-2.42 8.63 28.01-4.38 25.85-11.85Z" fill="#FFC01D"/><path d="M43.09 126.15s.97 5.47-.71 7.87c-1.07 1.53 7.73 4.94 7.55 2.88-.23-2.65-1.74-4.27-.01-7.26l-6.83-3.49Z" fill="#EF8867"/><path d="M49 118.8c2.22 2.28 7.4 13.32 2.12 15.4-2.39.94-7.28-1.25-9.84-5.62-1.05-1.79-.87-5.61 1.05-8.8.87-1.45 4.1-3.67 6.66-.99Z" fill="#FEA081"/><path d="M52.1 122.54c.22 1.38-3.38-3.15-4.18-.26-.83 3.04-4.06 2.29-4.48 7.78-.28 3.75-4.62-2.87-4.93-3.38-1.37-2.15-1.37-2.15.93-6.74 2.3-4.6 11.59-4.32 12.67 2.6Z" fill="#262C20"/><path d="M41.52 145.11s-4.9-8.12-9.5-.02-8.82 16.87-4.34 17.7c4.48.81 11.23-9.86 13.84-17.68Z" fill="#FEA081"/><path d="M40.02 138.62s-4-2.58-8.03 3.24c-4.03 5.83-4.98 8.92-4.98 8.92s3.82 3.64 10.9 5.26c0 0 8.24-14.58 2.1-17.42Z" fill="#E6A81B"/><path d="M53.6 171.89a6.8 6.8 0 0 0-6.21-2.8c-3.99.24-13.48-6.2-13.17-9.17.1-.84 1.38-3.14 1.38-3.14l-7.62-3.85s-2.95 3.66-3.01 7.53c-.03 1.55.81 6.17 14.4 10.07 15.01 4.31 14.59 1.77 14.23 1.36Z" fill="#FEA081"/><path d="M279.37 186.85a6.62 6.62 0 0 1-6.78 6.44H123.65a6.62 6.62 0 0 1-6.78-6.44V98.28a6.61 6.61 0 0 1 6.78-6.44H272.6a6.61 6.61 0 0 1 6.78 6.44v88.57Z" fill="#F2F6E6"/><path d="M272.6 91.84H123.64a6.61 6.61 0 0 0-6.78 6.44v11.94h162.5V98.28a6.61 6.61 0 0 0-6.78-6.44Z" fill="#A0D925"/><path d="M272.6 193.92H123.64a7.25 7.25 0 0 1-7.4-7.07V98.28a7.25 7.25 0 0 1 7.4-7.06h148.94c4.08 0 7.41 3.17 7.41 7.06v88.57a7.25 7.25 0 0 1-7.4 7.07ZM123.64 92.48a6 6 0 0 0-6.15 5.8v88.57a6 6 0 0 0 6.15 5.81h148.94a6 6 0 0 0 6.15-5.81V98.28a5.99 5.99 0 0 0-6.15-5.8H123.65Z" fill="#262C20"/><path d="M133.32 101.1a3.37 3.37 0 0 1-3.92 3.5 3.38 3.38 0 0 1-2.75-2.6 3.37 3.37 0 0 1 3.3-4.1 3.27 3.27 0 0 1 3.09 1.94c.17.4.27.82.28 1.25Zm8.51 0a3.37 3.37 0 1 1-6.5-1.08 3.38 3.38 0 0 1 3.12-2.12 3.29 3.29 0 0 1 3.38 3.2Zm8.2 0a3.36 3.36 0 0 1-1.95 3.23 3.36 3.36 0 0 1-3.73-.62 3.37 3.37 0 0 1 .43-5.23 3.37 3.37 0 0 1 1.9-.58 3.27 3.27 0 0 1 3.08 1.94c.17.4.27.82.28 1.25Z" fill="#F2F6E6"/><path d="M193.82 184.79h-55.69v-14.3h55.69v14.3Zm-54.43-1.26h53.17v-11.8H139.4v11.8Zm116.03 1.26h-55.7v-14.3h55.7v14.3Zm-54.44-1.26h53.18v-11.8h-53.18v11.8Zm67.42-18.52h-140v-48.46h140V165Zm-138.75-1.25h137.5V117.8h-137.5v45.96Zm149.72-54.16h-162.5v1.25h162.5v-1.25Z" fill="#262C20"/><path d="M158.09 147.75H152V131h6.14c1.73 0 3.21.34 4.46 1a6.88 6.88 0 0 1 2.88 2.88 9.28 9.28 0 0 1 1.01 4.48c0 1.75-.33 3.25-1.01 4.5a6.88 6.88 0 0 1-2.9 2.89 9.4 9.4 0 0 1-4.49 1Zm-2.46-3.03h2.3c1.08 0 1.98-.19 2.72-.56.74-.37 1.29-.95 1.66-1.74.37-.79.56-1.81.56-3.06 0-1.24-.19-2.25-.56-3.03a3.58 3.58 0 0 0-1.65-1.74 5.96 5.96 0 0 0-2.71-.56h-2.32v10.69ZM175 148a7.03 7.03 0 0 1-3.42-.79 5.44 5.44 0 0 1-2.2-2.24 7.26 7.26 0 0 1-.77-3.44c0-1.3.26-2.43.77-3.4a5.62 5.62 0 0 1 2.17-2.29 6.47 6.47 0 0 1 3.3-.81c.86 0 1.65.13 2.38.4a5.29 5.29 0 0 1 1.93 1.18c.55.53.98 1.2 1.3 2 .3.8.45 1.73.45 2.8v.95h-10.88v-2.16h7.52c0-.5-.11-.94-.34-1.33a2.37 2.37 0 0 0-.93-.9 2.7 2.7 0 0 0-1.37-.34 2.8 2.8 0 0 0-1.44.37c-.41.24-.74.56-.97.97a2.7 2.7 0 0 0-.36 1.35v2.05c0 .62.12 1.16.35 1.61.24.46.58.8 1.02 1.05.43.25.95.37 1.55.37.4 0 .76-.06 1.09-.16.33-.11.61-.28.84-.5.24-.21.42-.48.54-.8l3.3.22a4.37 4.37 0 0 1-1.03 2.02 5.2 5.2 0 0 1-2 1.35 7.7 7.7 0 0 1-2.8.47Zm16.5-5.6v-7.21h3.58v12.56h-3.43v-2.28h-.14a3.72 3.72 0 0 1-1.45 1.78c-.67.45-1.49.67-2.45.67-.86 0-1.62-.2-2.28-.57a3.98 3.98 0 0 1-1.53-1.63 5.52 5.52 0 0 1-.56-2.53v-8h3.58v7.38c0 .74.2 1.33.61 1.76.4.43.94.64 1.62.64.43 0 .83-.1 1.2-.28.38-.2.68-.49.91-.87.24-.38.35-.85.35-1.42Zm13.29-7.21v2.62h-7.76v-2.62h7.76Zm-6-3.01h3.58v11.71c0 .33.05.58.15.76a.83.83 0 0 0 .42.36c.18.07.4.11.63.11.17 0 .34-.01.5-.04l.4-.07.56 2.59-.76.19a6.11 6.11 0 0 1-1.18.14 5.55 5.55 0 0 1-2.27-.34 3.15 3.15 0 0 1-1.5-1.2 3.58 3.58 0 0 1-.53-2.04v-12.17Zm18.89 6.6-3.27.19a1.63 1.63 0 0 0-.37-.74 1.91 1.91 0 0 0-.73-.53c-.3-.14-.65-.2-1.06-.2-.55 0-1.02.11-1.4.34-.38.22-.57.52-.57.9 0 .3.12.55.37.76.24.2.67.37 1.26.5l2.34.46c1.25.25 2.18.65 2.8 1.2.61.56.92 1.3.92 2.2 0 .82-.25 1.55-.75 2.17-.49.62-1.17 1.1-2.03 1.45-.85.35-1.84.52-2.96.52a7.1 7.1 0 0 1-4.07-1.04c-1.01-.7-1.6-1.65-1.77-2.85l3.51-.18c.1.51.36.9.77 1.17.41.26.93.39 1.57.39.63 0 1.13-.12 1.51-.35.39-.24.58-.55.59-.93a.96.96 0 0 0-.41-.78 3 3 0 0 0-1.25-.47l-2.23-.43a5.4 5.4 0 0 1-2.8-1.28c-.62-.6-.92-1.38-.92-2.31 0-.81.22-1.5.67-2.1a4.3 4.3 0 0 1 1.9-1.34 8 8 0 0 1 2.89-.47c1.63 0 2.9.33 3.84 1a3.87 3.87 0 0 1 1.65 2.74Zm8.36 9.22a6.74 6.74 0 0 1-3.4-.82 5.59 5.59 0 0 1-2.19-2.29c-.5-.97-.75-2.1-.75-3.37 0-1.29.25-2.42.76-3.39a5.6 5.6 0 0 1 2.2-2.28 6.58 6.58 0 0 1 3.36-.82c1.13 0 2.11.2 2.96.6.84.39 1.5.95 2 1.67s.76 1.56.82 2.53h-3.38a2.52 2.52 0 0 0-.75-1.5 2.2 2.2 0 0 0-1.59-.59c-.55 0-1.03.15-1.45.44-.4.3-.72.72-.95 1.27a5.3 5.3 0 0 0-.35 2.02c0 .8.11 1.49.34 2.05.23.56.55.99.96 1.28.42.3.9.44 1.45.44a2.41 2.41 0 0 0 1.1-.24c.33-.17.6-.4.82-.71.21-.32.36-.7.42-1.14h3.38a4.82 4.82 0 0 1-2.78 4.24c-.84.4-1.83.61-2.98.61Zm11.62-7.51v7.26h-3.58V131h3.47v6.4h.16a3.57 3.57 0 0 1 1.4-1.74 4.37 4.37 0 0 1 2.45-.63c.9 0 1.67.19 2.34.57a3.86 3.86 0 0 1 1.56 1.63c.37.7.56 1.54.55 2.52v8h-3.57v-7.38c0-.77-.2-1.37-.6-1.8-.41-.43-.98-.65-1.7-.65-.49 0-.92.1-1.3.3-.36.2-.65.5-.87.89-.2.38-.3.84-.31 1.38Z" fill="#262C20"/><path d="m11.74 88.47-.62.93 2.51 1.38.44-1.02-2.33-1.29ZM8.8 85.81l-.83.75.95 1.06 1.11.9.7-.87-1.04-.84-.9-1Zm-2.35-3.23-.97.55.77 1.2c.24.4.5.8.8 1.18l.88-.68a11.4 11.4 0 0 1-.75-1.11l-.73-1.13Zm-1.58-3.67-1.06.34c.12.46.27.91.47 1.34l.59 1.3 1-.49-.56-1.22a7.17 7.17 0 0 1-.44-1.27ZM4.01 75l-1.11.13.2 1.4c.05.48.15.95.31 1.4l1.08-.29a5.18 5.18 0 0 1-.3-1.3L4.02 75Zm-.17-4.01-1.11-.07v2.84l1.11-.08v-2.7Zm.62-3.97-1.08-.27a21.98 21.98 0 0 0-.49 2.79l1.11.13c.1-.9.25-1.78.46-2.65Zm1.31-3.8-1.02-.45s-.31.64-.58 1.3l-.4 1.35 1.07.33.38-1.3c.25-.63.55-1.24.55-1.24Zm1.92-3.54-.94-.6-.77 1.18a4.22 4.22 0 0 0-.46.86l-.19.4 1 .5c.17-.42.38-.82.61-1.2l.75-1.14Zm2.44-3.2-.84-.75a22.7 22.7 0 0 0-1.78 2.19l.9.65c.53-.74 1.1-1.44 1.72-2.1ZM13 53.63l-.73-.84c-.73.59-1.42 1.22-2.07 1.9l.8.77a22.16 22.16 0 0 1 2-1.83Zm3.21-2.47-.63-.93-1.17.79a4.9 4.9 0 0 0-.77.57l-.33.3.7.86.32-.28c.23-.2.48-.4.75-.56l1.13-.75Zm3.47-2.13-.53-.98-1.25.65-1.17.77.6.95 1.13-.76 1.22-.63Zm3.63-1.81-.42-1.04s-.64.3-1.27.62l-1.25.63.5 1 1.22-.62 1.22-.6Zm3.87-1.13-.25-1.1-1.37.35-1.35.39.34 1.06 1.3-.38 1.32-.32Zm3.98-.58-.06-1.12-1.42.13-1.4.2.2 1.1 1.34-.2 1.34-.11Zm3.94.27.25-1.09c-.94-.2-1.9-.3-2.86-.32l-.02 1.12c.88 0 1.76.1 2.63.29Zm3.4 1.67.75-.83-1.19-.9-1.34-.63-.4 1.04 1.17.55 1 .77Zm1.88 3.24 1.07-.3c.16-.04-1.09-2.76-1.24-2.66l-.9.65.24.31c.12.21.24.51.38.8l.36.8.1.4Zm-.13 3.53.95.58a4.76 4.76 0 0 0 .56-1.5c.07-.34.1-.68.06-1.02a1.55 1.55 0 0 0-.06-.5l-1.1.16a2.74 2.74 0 0 1 0 1.22 4.11 4.11 0 0 1-.41 1.06Zm-2.93 2.33.47 1s.65-.31 1.28-.69l.82-.6.34-.32-.77-.8-.28.26-.71.52a17.28 17.28 0 0 1-1.15.63Zm-3.8 1.14.2 1.1a20.29 20.29 0 0 0 2.76-.7l-.37-1.06a19.09 19.09 0 0 1-2.59.66Zm-4 .3-.01 1.12c.47.02.94.02 1.41-.01.71-.03 1.42-.11 1.42-.11l-.12-1.11s-.67.08-1.34.1c-.45.03-.9.04-1.35.02Zm-3.98-.44-.23 1.1s.7.16 1.4.24c.47.08.94.13 1.41.15l.09-1.1c-.45-.03-.9-.08-1.34-.16a13.1 13.1 0 0 1-1.33-.23Zm-3.8-1.2-.46 1.02s.65.29 1.32.52c.44.17.9.32 1.36.43l.3-1.07a18.18 18.18 0 0 1-2.52-.9Zm-3.4-2.04-.72.86 1.16.84 1.23.74.55-.97-1.14-.69-1.08-.78Z" fill="#F2F6E6"/><path d="m15.68 51.4-.93.63s.4.6.85 1.15l.97 1.06.8-.79-.9-.98c-.42-.51-.8-1.06-.8-1.06ZM14 47.84l-1.06.35c.28.91.65 1.8 1.1 2.65l.97-.54a14.18 14.18 0 0 1-1-2.46Zm-.65-3.91-1.12.06s.02.72.11 1.42l.24 1.42 1.1-.25-.23-1.32a12.54 12.54 0 0 1-.1-1.33Zm.17-4.01-1.1-.14s-.11.7-.16 1.4l-.05 1.42 1.11.01.05-1.35c.05-.66.15-1.34.15-1.34Zm.86-3.92-1.06-.34c-.09-.03-.7 2.75-.7 2.75l1.1.2c.17-.88.4-1.75.66-2.6Zm1.57-3.7-.99-.53-.61 1.28c-.31.64-.57 1.3-.58 1.3l1.04.4s.25-.62.55-1.23l.59-1.22Zm2.2-3.36-.88-.68-.83 1.13c-.29.38-.54.78-.77 1.2l.96.58c.2-.4.45-.78.73-1.14l.8-1.1Zm2.71-3-.78-.8-1 .99-.93 1.06.85.72.9-1.02.96-.96Zm3.07-2.64-.67-.9a39.17 39.17 0 0 0-2.18 1.78l.74.84s2.07-1.77 2.11-1.72Zm3.38-2.25-.56-.96s-2.4 1.46-2.37 1.5l.64.93c-.04-.05 2.3-1.47 2.3-1.47Zm3.62-1.85-.45-1.01-1.29.58-1.24.65.53.99 1.2-.64 1.25-.57Zm3.79-1.45-.34-1.06s-.67.2-1.33.46l-1.32.48.42 1.04 1.28-.47c.64-.25 1.29-.45 1.29-.45Zm3.93-1.01-.22-1.1-1.37.3c-.46.1-.91.22-1.36.36l.3 1.07c-.01-.05 2.65-.63 2.65-.63Zm4.02-.53-.08-1.12-1.4.11-1.4.21.17 1.1 1.35-.2 1.35-.1Zm4.04-.01.08-1.12c0-.07-2.82-.07-2.82-.07l.02 1.12s2.72 0 2.72.07Zm3.98.58.26-1.08-1.4-.27c-.69-.14-1.39-.22-1.39-.23l-.13 1.11s.67.08 1.33.22l1.33.25Zm3.8 1.3.46-1.03s-2.64-1.06-2.67-.98l-.32 1.07c.03-.08 2.53.93 2.53.93Zm3.43 2.03.67-.9-1.17-.81a10.17 10.17 0 0 0-1.23-.7l-.54.98c.4.19.8.41 1.17.66l1.1.77Zm2.88 2.75.86-.72-.94-1.08-1.05-.96-.74.84 1 .9c.44.5.87 1.02.87 1.02Zm2.22 3.31 1-.52c.08-.05-1.5-2.42-1.49-2.42l-.9.65c.5.74.97 1.5 1.4 2.3Zm1.54 3.71 1.07-.33c-.3-.9-.62-1.78-1-2.65l-1.02.45.19.39a115.25 115.25 0 0 1 .76 2.14Zm.87 3.94 1.1-.17a8.43 8.43 0 0 0-.23-1.38l-.32-1.38-1.08.27.3 1.32c.12.44.2.89.23 1.34Zm.35 4.04 1.12-.04s-.12-2.8-.2-2.8l-1.1.12c.07 0 .18 2.72.18 2.72Z" fill="#F2F6E6"/><path d="M271.11 64.88a16 16 0 0 1-13.46 13.19.87.87 0 0 1-.98-.74.86.86 0 0 1 .4-.87.85.85 0 0 1 .33-.11 14.47 14.47 0 0 0 7.4-3.45 14.74 14.74 0 0 0 4.65-8.65v-.02a.87.87 0 0 1 1.56-.37.87.87 0 0 1 .17.64l-.07.38Z" fill="#414939"/><path d="m252.63 76.72 6.71 3.28-1.44-2.93 1.82-2.7-7.09 2.35Z" fill="#414939"/><path d="M279.16 34.9h-26.53v26.53h26.53V34.91Z" fill="#FFC01D"/><path d="M256.66 45.47h-26.53V72h26.53V45.47Z" fill="#262C20"/><path d="m263.43 50.07-1.54 4.67h-1.97l5.03-14.83h2.31l5.06 14.83h-2.05l-1.58-4.67h-5.26Zm4.87-1.5-1.46-4.26c-.33-.96-.55-1.85-.77-2.7h-.04a43.15 43.15 0 0 1-.75 2.67l-1.45 4.3h4.47Zm-18.11 3.9h-13.97v1.88h13.97v-1.89Z" fill="#F2F6E6"/><path d="M251.65 66.43c-4.43-.15-7.83-1.53-10.09-4.1-3.35-3.8-2.94-8.8-2.92-9l1.61.14c0 .04-.36 4.53 2.54 7.81 1.96 2.21 4.96 3.4 8.92 3.53l-.06 1.62Z" fill="#F2F6E6"/><path d="m235.13 66.43-.05-1.62c3.96-.13 6.96-1.32 8.92-3.53 2.9-3.27 2.54-7.77 2.54-7.81l1.6-.15c.03.22.44 5.21-2.91 9.02-2.27 2.56-5.66 3.94-10.1 4.1Zm3.96-18.04-.95 1.31 6.31 4.6.96-1.3-6.32-4.6Z" fill="#F2F6E6"/><path d="M238.86 39.85a16 16 0 0 1 13.72-12.9.87.87 0 0 1 .8 1.39.87.87 0 0 1-.58.33 14.5 14.5 0 0 0-7.47 3.3 14.73 14.73 0 0 0-4.83 8.55v.02a.87.87 0 0 1-1.71-.3l.07-.39Z" fill="#414939"/><path d="m257.57 28.39-6.64-3.42 1.39 2.96-1.88 2.67 7.13-2.2Z" fill="#414939"/></g><defs><clipPath id="a"><path fill="#fff" d="M0 0h280v240H0z"/></clipPath></defs></svg>