<svg width="102" height="167" fill="none" xmlns="http://www.w3.org/2000/svg"><g clip-path="url(#a)" fill="#F2F6E6"><path d="M101.7 151c-.1-.2-.3-.5-.5-.6-2.5-1.3-5.6-1.5-8.4-2l-5.8-1.1c.6-2.7 1.1-5.4 1.4-8 .1-1.1-.6-2.1-1.7-2.2-1.1-.1-2.1.6-2.2 1.7-.3 2.5-.8 5.1-1.3 7.7l-14.7-3c-.2-.2-.4-.5-.6-.7-1.4-1.5-4.1.3-3 2.1 3.9 6.4 7.6 13.5 12.4 19.3h.1c.1.2.3.3.5.3v.1c.1.7.5 1.3 1.2 1.6.2.1.5.1.7.1.5 0 .9-.2 1.3-.5l9.4-5.6c2.9-1.8 6.7-3.3 9-5.9.2-.2.4-.5.4-.9v-.5c.3 0 .5 0 .8-.1.3-.1.5-.2.7-.4.2-.2.3-.4.3-.7.1-.2.1-.5 0-.7Zm-13 5.9-8.3 5c-2.6-5.6-5.9-10.9-9.8-15.7 3.9 1.2 7.8 2.3 11.8 3.3-.1.6-.3 1.2-.5 1.8-.3 1.1.3 2.2 1.4 2.4.2 0 .3.1.5.1.9 0 1.7-.6 1.9-1.5.2-.6.3-1.3.5-1.9l6.7 1.5c1 .2 1.9.4 2.9.7-2.4 1.1-4.8 2.9-7.1 4.3ZM43.4 58.1a2 2 0 0 0-2 2v1.7c0 4.7-.3 8.6-.6 11.1-.1 1.1.7 2.1 1.8 2.2h.2c1 0 1.9-.8 2-1.8.4-3.8.6-7.6.6-11.5v-1.7c0-1.2-.9-2.1-2-2ZM42.3 49.1h.3a2.1 2.1 0 0 0 1.7-2.3c-.7-4.6-1.8-9-3.2-13-.4-1-1.5-1.6-2.5-1.2-1 .4-1.6 1.5-1.2 2.5 1.3 3.8 2.3 7.9 3 12.3.1 1 1 1.7 1.9 1.7ZM63.5 81.3c-3.9-2-8.2-3.5-12.8-4.4-1.1-.2-2.1.5-2.4 1.6-.2 1.1.5 2.1 1.6 2.4 4.2.8 8.1 2.2 11.7 4.1.3.2.6.2.9.2.7 0 1.4-.4 1.8-1.1.5-1.1.2-2.3-.8-2.8ZM85 126.1c0 1.1.9 1.9 2 1.9h.1c1.1 0 2-1 1.9-2.1-.2-4.6-.8-9.1-1.8-13.3-.3-1.1-1.3-1.7-2.4-1.5-1.1.3-1.7 1.3-1.5 2.4 1 4.1 1.6 8.3 1.7 12.6ZM26.5 11.5c-.8-.7-2.1-.6-2.8.2-.7.8-.6 2.1.2 2.8 3.1 2.7 5.8 5.8 8.1 9.4.4.6 1 .9 1.7.9.4 0 .7-.1 1.1-.3.9-.6 1.2-1.8.6-2.8-2.6-3.8-5.5-7.3-8.9-10.2ZM78.9 102c.4.7 1.1 1.1 1.8 1.1.3 0 .6-.1.9-.2 1-.5 1.3-1.7.8-2.7-2.2-4.1-4.9-7.7-8-10.9-.8-.8-2-.8-2.8 0-.8.8-.8 2 0 2.8 2.9 2.9 5.3 6.2 7.3 9.9ZM15.2 4.2C11.3 2.4 7 1 2.4 0 1.3-.2.3.5 0 1.6-.2 2.7.5 3.7 1.6 4c4.3.9 8.3 2.2 11.9 3.8.3.1.5.2.8.2.8 0 1.5-.4 1.8-1.2.5-1 .1-2.2-.9-2.6Z"/></g><defs><clipPath id="a"><path fill="#fff" d="M0 0h101.8v166.3H0z"/></clipPath></defs></svg>