<svg width="338" height="178" fill="none" xmlns="http://www.w3.org/2000/svg"><path d="m9.44 84.48-3.99-2.03-2.3 5.22C2.04 90.29.82 92.89.96 92.95l4.23 1.44c-.12-.05 1.04-2.5 2.1-4.97l2.16-4.94ZM18.26 71.06l-3.5-2.77a29.3 29.3 0 0 0-3.46 4.5l-3.04 4.84 3.85 2.3 2.87-4.58a28.25 28.25 0 0 1 3.28-4.3ZM29.46 59.51l-2.92-3.4-4.25 3.81a22.34 22.34 0 0 0-3.93 4.1l3.31 3a21.37 21.37 0 0 1 3.75-3.9l4.04-3.6ZM42.53 50.1l-2.25-3.88-9.5 6.29 2.72 3.58 9.03-6ZM57.2 43.38l-1.54-4.21c-.18-.47-10.42 4.53-10.42 4.53l2.03 4s9.74-4.77 9.92-4.32ZM72.81 39.35l-.77-4.41s-2.83.37-5.61.93c-2.71.82-5.44 1.67-5.44 1.67l1.28 4.3s2.58-.82 5.19-1.62a82.8 82.8 0 0 1 5.35-.87ZM88.9 37.92l-.06-4.48s-2.82.03-5.66.04c-1.3-.03-2.6.09-3.88.35l-1.76.25.53 4.46a34.9 34.9 0 0 1 5.39-.6l5.44-.02ZM105.05 38.98l.62-4.43S94.44 32.93 94.4 33.4l-.16 4.48c.02-.47 10.82 1.1 10.82 1.1ZM120.94 42.31l1.18-4.32s-10.85-3.13-10.95-2.7l-.82 4.4c.09-.45 10.6 2.62 10.6 2.62ZM136.32 47.58l1.69-4.14-5.2-2.2c-1.17-.56-2.4-.99-3.66-1.29-1.01-.3-1.69-.47-1.69-.47l-1.36 4.25 1.65.45c1.21.31 2.4.74 3.53 1.28 2.53 1.05 5.04 2.12 5.04 2.12ZM151.12 54.46l2.1-3.96-4.92-2.75-5.2-2.18-1.83 4.09s2.53 1.05 5.06 2.13l4.79 2.67ZM165.25 62.56l2.54-3.68s-2.43-1.49-4.9-2.9L158 53.22l-2.2 3.89 4.76 2.72c2.37 1.35 4.69 2.74 4.69 2.74ZM177.62 73l3.1-3.22s-2.07-1.93-4.16-3.83l-4.31-3.66-2.83 3.5s2.08 1.76 4.18 3.51l4.02 3.7ZM188.39 85.04l3.6-2.67-3.56-4.46c-1.9-2.1-3.8-4.23-3.8-4.23l-3.24 3.1 3.64 4.04c1.67 2.12 3.36 4.22 3.36 4.22ZM196.22 98.82l4.2-1.57c.45-.26-5.06-10.42-5.27-10.27l-3.78 2.42c.22-.12 5.31 9.26 4.85 9.42ZM198.16 113.87l4.44.7.4-5.98-.88-5.88-4.37.98s.38 2.57.78 5.11l-.37 5.07ZM191.48 127.35l3.39 2.92c.45.47 6.8-9.76 6.13-10.05l-4.19-1.59-.48 1.52c-.42.85-1.18 1.92-1.83 3.02-.68 1.1-1.36 2.19-1.88 3l-1.14 1.18ZM179.37 134.71l.15 4.47c.02-.19 3.07.1 6.3-1.44 1.8-.6 2.53-1.49 3.52-2.03.58-.36 1.1-.81 1.54-1.34l-3-3.34c-.3.36-.64.68-1.02.96-.83.43-2.13 1.67-3.07 1.76-1.8.9-4.53.83-4.42.96ZM165.08 130.08l-2.34 3.83s2.5 1.47 5.16 2.72l3.84 1.44 1.83.43 1-4.38-1.54-.34-3.33-1.23c-2.35-1.14-4.62-2.47-4.62-2.47ZM152.82 119.94l-3.25 3.07c-.19.2 8.3 7.9 8.5 7.7l2.72-3.6c-.17.23-8.13-7-7.97-7.17ZM142.93 107.24l-3.78 2.4c.98 1.63 2.05 3.2 3.2 4.7 1.65 2.34 3.5 4.5 3.5 4.5l3.45-2.86s-1.76-2.04-3.32-4.26a48.6 48.6 0 0 1-3.05-4.48ZM135.58 92.93l-4.18 1.66s1 2.68 2.3 5.23a56.6 56.6 0 0 0 2.6 5.05l3.93-2.18a51.31 51.31 0 0 1-2.49-4.8c-1.22-2.41-2.16-4.96-2.16-4.96ZM131.16 77.54l-4.41.72s.49 2.82 1.18 5.6c.42 1.86.94 3.7 1.57 5.5l4.28-1.4a43.6 43.6 0 0 1-1.5-5.16c-.65-2.64-1.1-5.26-1.12-5.26ZM130.47 61.68l-4.47-.52-.24 5.75.26 5.75 4.47-.3-.24-5.35.22-5.33Z" fill="#FFC01D"/><path d="m134.34 46.31-4.18-1.72s-1.1 2.65-1.95 5.42l-1.4 5.57 4.4.93s.66-2.58 1.3-5.18c.78-2.56 1.83-5.02 1.83-5.02ZM142.6 32.8 139.05 30c-.28-.2-6.76 9.34-6.44 9.5l3.98 2.1c-.3-.18 5.73-9.03 6-8.82ZM154.22 21.94l-2.68-3.58s-2.34 1.62-4.52 3.52l-4.22 3.93 3.27 3.08 3.92-3.65c2.01-1.76 4.23-3.3 4.23-3.3ZM168.04 13.64l-2-4.02s-2.56 1.2-5.04 2.57c-2.43 1.5-4.87 2.96-4.87 2.96l2.44 3.78s2.3-1.42 4.62-2.82c2.38-1.33 4.85-2.47 4.85-2.47ZM183.06 7.85l-1.21-4.34c-.1-.33-10.78 3.74-10.78 3.74l1.78 4.13s10.1-3.88 10.21-3.53ZM198.9 4.89l-.39-4.45c0-.02-2.82.35-5.64.74-2.82.38-5.6.96-5.6.96l.92 4.38s2.66-.55 5.36-.9c2.67-.38 5.36-.73 5.36-.73ZM215.09 4.83l.32-4.46-5.66-.28c-1.9-.14-3.8-.12-5.68.07l.15 4.48c1.8-.2 3.62-.22 5.43-.07l5.44.26ZM231.15 7.2l.94-4.36-5.54-1.18c-2.8-.35-5.61-.73-5.61-.73l-.55 4.45 5.41.7c2.67.57 5.35 1.11 5.35 1.11ZM246.78 11.63l1.5-4.21c.07-.24-10.78-3.37-10.78-3.37l-1.15 4.34s10.51 3.02 10.43 3.24ZM261.81 17.96l1.97-4.01s-10.24-4.8-10.32-4.57l-1.68 4.16c.1-.21 10.03 4.42 10.03 4.42ZM275.98 25.98l2.42-3.79-4.78-3-4.95-2.69-2.12 3.93 4.8 2.63 4.63 2.92ZM289.26 35.43l2.82-3.48s-2.18-1.81-4.48-3.43c-2.28-1.65-4.56-3.34-4.56-3.34l-2.54 3.7s2.2 1.62 4.43 3.22c2.23 1.58 4.33 3.35 4.33 3.33ZM301.38 46.33l3.19-3.15-4.06-3.93a46.86 46.86 0 0 0-4.2-3.75l-2.93 3.39c.15-.19 8 7.45 8 7.44ZM312.08 58.57l3.54-2.72-3.49-4.45-3.78-4.2-3.3 3.02s1.82 2.05 3.65 4.07l3.38 4.28ZM321.07 72.07l3.9-2.2c.24-.16-6.02-9.58-6.02-9.58l-3.67 2.57s6.02 9.07 5.8 9.2ZM327.95 86.67l4.2-1.54s-1.06-2.61-2.19-5.23a79.53 79.53 0 0 0-2.35-5.18l-4 2s1.22 2.44 2.25 4.95l2.1 5ZM332.04 102.24l4.43-.71s-2.3-11.18-2.62-11.08l-4.3 1.3c.33-.1 2.48 10.5 2.5 10.5ZM332.83 118.24l4.47.27.15-5.72c0-1.91-.12-3.82-.37-5.72l-4.46.41c.24 1.78.36 3.58.35 5.38l-.14 5.38ZM330.02 133.97l4.31 1.27 1.54-5.52.87-5.67-4.46-.59-.8 5.32-1.46 5.19ZM323.85 148.72l3.92 2.17c.37.18 4.84-10.35 4.84-10.35l-4.2-1.57s-4.21 9.92-4.56 9.75ZM314.83 162.06l3.48 2.85s6.98-8.98 6.66-9.2l-3.78-2.4s-.35.57-.86 1.45l-2.23 2.98c-1.65 2.16-3.27 4.32-3.27 4.32ZM303.57 173.72l3 3.31a33.98 33.98 0 0 0 4.14-3.84l3.9-4.15-3.32-3-3.73 3.96a33.8 33.8 0 0 1-3.99 3.72Z" fill="#FFC01D"/></svg>