<svg aria-hidden="true" style="position: absolute; width: 0; height: 0; overflow: hidden;" version="1.1" xmlns="http://www.w3.org/2000/svg" xmlns:xlink="http://www.w3.org/1999/xlink">
<defs>
<symbol id="icon-var-1_no" viewBox="0 0 32 32">
<path fill="#ffc01d" style="fill: var(--color1, #ffc01d)" d="M20.12 14.154c3.5 3.214 6.837 6.589 9.254 9.264 1.556 1.722 0.371 7.282-2.059 4.591-3.257-3.605-6.869-6.825-10.684-9.797-2.468 3.002-4.808 6.114-7.086 9.256-0.997 1.375-4.87 1.539-5.627-0.166-0.928-2.091 2.988-7.209 8.092-12.515-2.75-1.946-5.568-3.798-8.406-5.602-1.434-0.911-1.834-4.767-0.177-5.627 2.001-1.038 7.222 2.438 12.74 7.103 3.219-3.066 6.52-5.94 9.16-8.047 1.813-1.448 7.291 0.074 4.457 2.336-3.495 2.79-6.683 5.899-9.662 9.204z"></path>
</symbol>
</defs>
</svg>
