<svg width="252" height="70" viewBox="0 0 252 70" fill="none" xmlns="http://www.w3.org/2000/svg">
<g clip-path="url(#clip0_233_6053)">
<path d="M41.5891 60.5882C41.3673 59.8892 41.0086 59.2421 40.5344 58.6849C40.0073 58.0829 39.3499 57.6108 38.6129 57.3051C37.8242 56.9556 36.8682 56.7811 35.7449 56.7816H32.6426V68.2514H36.2963C37.0274 68.256 37.7533 68.1268 38.4386 67.8701C39.1081 67.6142 39.723 67.2321 40.2505 66.7445C40.7796 66.2519 41.1985 65.6516 41.4794 64.9834C41.794 64.2471 41.9497 63.4519 41.9361 62.6504C41.9336 61.9485 41.8163 61.2518 41.5891 60.5882ZM40.0462 64.3479C39.8366 64.851 39.519 65.301 39.1162 65.6657C38.7143 66.0325 38.2425 66.313 37.7295 66.4903C37.173 66.6863 36.5868 66.783 35.9973 66.7762H34.1705V58.2567H36.1385C36.6817 58.2542 37.2208 58.3511 37.7295 58.5427C38.2297 58.7201 38.6903 58.9951 39.0846 59.3521C39.4945 59.7258 39.8172 60.1862 40.0296 60.7002C40.2725 61.2879 40.3907 61.9202 40.3767 62.5566C40.3861 63.1699 40.2737 63.779 40.0462 64.3479ZM50.4884 56.7816H57.892V58.2569H52.0164V61.7469H57.2619V63.2222H52.0164V66.7757H58.1125V68.251H50.4884L50.4884 56.7816ZM72.6414 58.828C72.2312 58.6182 71.8045 58.4431 71.3655 58.3045C70.928 58.1605 70.471 58.0856 70.0108 58.0825C69.4018 58.0825 68.9134 58.2252 68.5458 58.5108C68.373 58.6447 68.2343 58.8182 68.1412 59.0168C68.0481 59.2154 68.0032 59.4334 68.0102 59.6529C68.003 59.9933 68.1272 60.3232 68.3568 60.573C68.6202 60.8391 68.9299 61.0542 69.2704 61.2076C69.6485 61.3874 70.0423 61.5566 70.4519 61.7152C70.809 61.8528 71.1608 62.0061 71.5073 62.1752C71.8464 62.3394 72.1596 62.5533 72.4366 62.8098C72.7235 63.0684 72.9495 63.3881 73.0982 63.7457C73.2791 64.1824 73.365 64.653 73.3503 65.1259C73.3532 65.7128 73.1923 66.2887 72.886 66.7879C72.5796 67.2872 72.1401 67.6897 71.6175 67.9496C70.9991 68.249 70.3187 68.3958 69.6327 68.3779C69.1444 68.3798 68.6577 68.3212 68.1835 68.2034C67.751 68.0938 67.3293 67.9452 66.9233 67.7592C66.5648 67.5859 66.2176 67.3898 65.8837 67.1723L66.561 65.9666C66.8374 66.1612 67.1269 66.3361 67.4274 66.4901C67.7573 66.6504 68.0998 66.7831 68.4513 66.8867C68.7903 66.9794 69.1397 67.0274 69.491 67.0295C69.8511 67.0289 70.2084 66.9645 70.5464 66.8391C70.8882 66.7124 71.192 66.4994 71.4285 66.2204C71.6715 65.9097 71.7946 65.5209 71.775 65.1259C71.7887 64.7757 71.6769 64.4322 71.46 64.1582C71.2437 63.8797 70.9695 63.6523 70.6566 63.4919C70.3119 63.2974 69.954 63.1278 69.5855 62.9843C69.2285 62.8468 68.8662 62.6988 68.4986 62.5401C68.1377 62.3749 67.7946 62.1729 67.4747 61.9373C67.1632 61.6983 66.9055 61.3955 66.7186 61.0489C66.5195 60.6567 66.422 60.2202 66.435 59.7798C66.4216 59.2258 66.5695 58.6799 66.8603 58.2094C67.1567 57.7526 67.5704 57.3853 68.0575 57.1465C68.5955 56.8736 69.1879 56.7272 69.7903 56.7182C70.4461 56.7068 71.0996 56.7978 71.7278 56.9879C72.2515 57.1482 72.754 57.372 73.2243 57.6541L72.6414 58.828ZM81.9044 56.7816H83.4323V68.251H81.9044V56.7816ZM101.605 67.2674C101.404 67.4331 101.181 67.5717 100.944 67.6799C100.303 67.9588 99.6312 68.1611 98.9433 68.2827C98.6106 68.3439 98.2733 68.3757 97.9352 68.3779C97.0916 68.3902 96.2531 68.245 95.4621 67.9496C94.7652 67.6817 94.1281 67.2773 93.5875 66.7598C93.0717 66.2503 92.6644 65.6404 92.3904 64.9672C92.1127 64.255 91.9737 63.4956 91.9808 62.7305C91.9665 61.8573 92.1217 60.9897 92.4376 60.1764C92.7263 59.4545 93.1608 58.8008 93.7136 58.2569C94.2502 57.7343 94.8884 57.3292 95.5881 57.0672C96.3016 56.7904 97.0603 56.6505 97.8249 56.6547C98.4471 56.6496 99.0671 56.7296 99.6679 56.8927C100.189 57.0326 100.691 57.235 101.164 57.4955L100.645 58.9073C100.395 58.7629 100.131 58.6459 99.8569 58.5584C99.5482 58.4515 99.2324 58.3667 98.9118 58.3045C98.6123 58.2336 98.3059 58.1964 97.9982 58.1935C97.3749 58.1849 96.7554 58.2925 96.1709 58.5108C95.6457 58.7003 95.1679 59.0029 94.7707 59.3974C94.3735 59.7919 94.0665 60.2689 93.8711 60.7951C93.6534 61.3779 93.5465 61.9968 93.556 62.6194C93.5491 63.2057 93.6561 63.7878 93.8711 64.3327C94.074 64.8402 94.3798 65.2994 94.769 65.6811C95.1706 66.0595 95.6414 66.3559 96.1552 66.5536C96.7315 66.7597 97.3394 66.8617 97.9509 66.855C98.3369 66.8553 98.722 66.8181 99.1008 66.7439C99.4407 66.6732 99.7693 66.5558 100.077 66.3949V64.1106H97.8092V62.6353H101.605L101.605 67.2674ZM120.413 56.6445V68.3779H120.366L112.003 60.1501L112.033 68.3779H110.505V56.6445H110.585L118.932 64.9743L118.902 56.6445H120.413ZM149.56 67.2674C149.358 67.4331 149.136 67.5717 148.898 67.6799C148.257 67.9588 147.586 68.1611 146.898 68.2827C146.565 68.3439 146.228 68.3757 145.89 68.3779C145.046 68.3903 144.208 68.245 143.417 67.9496C142.72 67.6817 142.083 67.2773 141.542 66.7598C141.026 66.2503 140.619 65.6404 140.345 64.9672C140.067 64.255 139.928 63.4956 139.935 62.7305C139.921 61.8573 140.076 60.9897 140.392 60.1764C140.681 59.4545 141.115 58.8008 141.668 58.2569C142.205 57.7343 142.843 57.3292 143.543 57.0672C144.256 56.7904 145.015 56.6505 145.78 56.6547C146.402 56.6496 147.022 56.7296 147.623 56.8927C148.144 57.0326 148.646 57.235 149.119 57.4955L148.599 58.9073C148.35 58.7629 148.086 58.6459 147.812 58.5583C147.503 58.4515 147.187 58.3667 146.866 58.3045C146.567 58.2336 146.26 58.1964 145.953 58.1935C145.33 58.1849 144.71 58.2925 144.126 58.5107C143.6 58.7003 143.123 59.0028 142.725 59.3974C142.328 59.7919 142.021 60.2689 141.826 60.7951C141.608 61.3779 141.501 61.9968 141.511 62.6194C141.504 63.2057 141.611 63.7878 141.826 64.3327C142.029 64.8402 142.334 65.2994 142.724 65.6811C143.125 66.0596 143.596 66.3559 144.11 66.5536C144.686 66.7597 145.294 66.8618 145.906 66.855C146.292 66.8553 146.677 66.8181 147.055 66.7439C147.395 66.6732 147.724 66.5558 148.032 66.3949V64.1106H145.764V62.6353H149.56V67.2674ZM163.642 63.6308C164.029 63.4422 164.377 63.1796 164.666 62.8577C164.963 62.5117 165.184 62.1057 165.312 61.667C165.448 61.2365 165.517 60.7873 165.516 60.3356C165.528 59.8103 165.421 59.2892 165.202 58.812C165.011 58.3787 164.718 57.998 164.351 57.7015C163.978 57.3863 163.543 57.1538 163.075 57.0192C162.561 56.8559 162.024 56.7757 161.484 56.7816H158.46V68.2514H159.988V64.0317H161.673C161.803 64.0317 161.927 64.0287 162.049 64.0196L164.729 68.2514H166.493L163.642 63.6308ZM161.642 62.5566H159.988V58.2567H161.752C162.099 58.2461 162.444 58.3165 162.76 58.4625C163.022 58.5837 163.253 58.7626 163.437 58.986C163.611 59.1892 163.74 59.4275 163.816 59.685C163.897 59.9142 163.94 60.1556 163.942 60.3991C163.939 60.6408 163.901 60.8807 163.831 61.1117C163.755 61.3703 163.632 61.6124 163.469 61.8258C163.277 62.0549 163.034 62.2345 162.76 62.3493C162.406 62.4989 162.025 62.5696 161.642 62.5566ZM185.059 60.2871C184.438 58.8805 183.321 57.7559 181.924 57.1311C181.221 56.8113 180.458 56.6487 179.687 56.6545C178.905 56.6489 178.132 56.8114 177.418 57.1311C176.029 57.7564 174.923 58.8821 174.316 60.2871C174.019 60.9951 173.869 61.7565 173.874 62.5248C173.866 63.3184 174.016 64.1056 174.316 64.8397C174.61 65.5356 175.038 66.1664 175.575 66.6961C176.106 67.2219 176.732 67.6418 177.418 67.9337C178.137 68.2331 178.909 68.3844 179.687 68.3785C180.455 68.3845 181.216 68.2332 181.924 67.9337C182.615 67.6351 183.245 67.2104 183.782 66.6809C184.325 66.1461 184.758 65.5099 185.059 64.8079C185.366 64.0867 185.521 63.3094 185.514 62.5248C185.52 61.7551 185.365 60.9927 185.059 60.2871ZM183.609 64.2375C183.394 64.7479 183.09 65.2152 182.711 65.6173C182.329 66.03 181.865 66.3575 181.35 66.5788C180.834 66.8 180.278 66.9101 179.718 66.9018C179.145 66.9072 178.577 66.7939 178.049 66.569C177.541 66.342 177.081 66.0189 176.694 65.6173C176.307 65.2186 175.997 64.7507 175.781 64.2375C175.558 63.6998 175.446 63.1224 175.45 62.5399C175.446 61.9591 175.553 61.3829 175.764 60.8424C175.966 60.3159 176.272 59.8359 176.662 59.4308C177.05 59.0297 177.51 58.7067 178.018 58.4792C178.542 58.2486 179.107 58.1297 179.679 58.1297C180.251 58.1297 180.817 58.2486 181.341 58.4792C181.85 58.6974 182.311 59.0158 182.696 59.4157C183.088 59.8227 183.398 60.302 183.609 60.8273C184.05 61.9207 184.05 63.1441 183.609 64.2375ZM195.446 64.1899C195.439 64.6798 195.564 65.1625 195.808 65.5859C196.059 65.9914 196.41 66.3244 196.827 66.5524C197.244 66.7804 197.712 66.8956 198.186 66.8867C198.686 66.8956 199.18 66.7754 199.621 66.5377C200.03 66.315 200.372 65.9865 200.613 65.5859C200.857 65.1622 200.982 64.6797 200.975 64.1899V56.7816H202.471V64.2375C202.489 65.0084 202.287 65.7682 201.888 66.4267C201.518 67.0439 200.983 67.5441 200.345 67.8703C199.674 68.2042 198.935 68.3779 198.186 68.3779C197.438 68.3779 196.699 68.2042 196.028 67.8703C195.396 67.5405 194.868 67.0408 194.501 66.4267C194.113 65.7648 193.916 65.0063 193.933 64.2375V56.7816H195.446V64.1899ZM218.103 58.4156C217.785 57.8839 217.313 57.4631 216.75 57.2098C216.082 56.9074 215.355 56.761 214.624 56.7816H211.583V68.2514H213.112V64.0317H214.797C215.4 64.0485 216 63.9404 216.56 63.714C217.008 63.5285 217.408 63.2405 217.726 62.8728C218.024 62.5253 218.25 62.1209 218.389 61.6836C218.524 61.2472 218.593 60.7927 218.593 60.3356C218.613 59.6619 218.443 58.9962 218.103 58.4156ZM216.954 61.0482C216.877 61.3113 216.754 61.5587 216.592 61.7789C216.406 62.015 216.169 62.2049 215.899 62.3342C215.549 62.4942 215.166 62.5703 214.782 62.5566H213.112V58.2567H214.875C215.227 58.2453 215.578 58.3157 215.899 58.4625C216.163 58.5742 216.395 58.7487 216.577 58.9709C216.752 59.1666 216.881 59.3999 216.954 59.6532C217.102 60.1062 217.102 60.5952 216.954 61.0482Z" fill="white"/>
<path d="M83.7605 11.796C86.7942 11.796 89.2535 9.3193 89.2535 6.26419C89.2535 3.20908 86.7942 0.732422 83.7605 0.732422C80.7269 0.732422 78.2676 3.20908 78.2676 6.26419C78.2676 9.3193 80.7269 11.796 83.7605 11.796Z" fill="#6649DD"/>
<path fill-rule="evenodd" clip-rule="evenodd" d="M218.155 20.2242L209.405 21.6812C209.903 24.7253 209.414 27.8499 208.01 30.592C206.606 33.3341 204.363 35.5477 201.611 36.9046C198.86 38.2615 195.748 38.6895 192.736 38.1251C189.724 37.5608 186.973 36.0341 184.891 33.7715C182.808 31.5088 181.505 28.6306 181.174 25.5635C180.844 22.4964 181.503 19.4037 183.055 16.7438C184.607 14.0838 186.969 11.9983 189.79 10.7963C192.612 9.59436 195.743 9.33992 198.719 10.0707L200.824 1.39237C195.998 0.208369 190.922 0.621595 186.349 2.57081C181.775 4.52002 177.946 7.90148 175.43 12.214C172.914 16.5266 171.845 21.5406 172.381 26.5132C172.917 31.4857 175.03 36.1519 178.406 39.8204C181.782 43.4888 186.242 45.9642 191.125 46.8796C196.007 47.7951 201.053 47.1018 205.514 44.9027C209.975 42.7035 213.613 39.1155 215.89 34.6704C218.167 30.2252 218.961 25.1596 218.155 20.2242Z" fill="#6649DD"/>
<path d="M70.8624 1.85855V46.3638L40.9356 19.3983V44.2896H32.6426V0.73291L62.5694 27.6727V1.85855H70.8624Z" fill="white"/>
<path d="M79.4004 16.8013H88.114V45.2134H79.4004V16.8013Z" fill="white"/>
<path d="M100.47 30.1984C101.262 31.6371 102.206 32.985 103.287 34.2182C104.274 35.3073 105.447 36.2084 106.751 36.8784C108.008 37.5102 109.396 37.8342 110.801 37.8242C112.484 37.8242 113.854 37.3907 114.91 36.5237C115.967 35.6566 116.495 34.4743 116.495 32.9768C116.495 31.6762 116.162 30.6319 115.497 29.8437C114.871 29.0555 113.912 28.3659 112.621 27.7747C111.369 27.1441 109.823 26.4741 107.983 25.7648C107.005 25.4101 105.87 24.9371 104.579 24.346C103.3 23.6977 102.098 22.9044 100.998 21.9814C99.8521 20.982 98.8972 19.7799 98.1805 18.4345C97.4369 17.0157 97.0652 15.3211 97.0652 13.3506C97.0652 10.986 97.6522 8.95641 98.8262 7.26178C100.056 5.51397 101.742 4.14312 103.698 3.30108C105.772 2.35524 108.081 1.88232 110.625 1.88232C113.247 1.88232 115.497 2.33554 117.376 3.24197C119.293 4.109 120.878 5.23218 122.13 6.61152C123.344 7.84129 124.354 9.25816 125.124 10.8087L118.55 14.4738C118.009 13.4986 117.338 12.6034 116.554 11.8136C115.828 10.9994 114.95 10.3366 113.971 9.86284C112.934 9.33678 111.786 9.07301 110.625 9.09435C108.981 9.09435 107.749 9.48844 106.927 10.2766C106.105 11.0255 105.694 11.9122 105.694 12.9368C105.685 13.9358 106.04 14.9034 106.692 15.6561C107.357 16.4049 108.375 17.134 109.744 17.8434C111.423 18.638 113.148 19.329 114.91 19.9124C116.234 20.3823 117.512 20.976 118.726 21.6858C119.962 22.3827 121.089 23.2591 122.072 24.2869C123.098 25.2857 123.899 26.4954 124.42 27.8338C125.007 29.1738 125.3 30.7304 125.3 32.5038C125.3 34.5138 124.909 36.3069 124.126 37.8833C123.355 39.4451 122.253 40.8174 120.898 41.9031C119.505 42.9791 117.935 43.7996 116.26 44.3268C114.542 44.9239 112.736 45.2237 110.918 45.2136C108.499 45.2308 106.101 44.7479 103.874 43.7948C101.767 42.8409 99.8553 41.4975 98.2392 39.8341C96.6956 38.2663 95.4256 36.4477 94.4824 34.4546L100.47 30.1984Z" fill="white"/>
<path d="M148.898 0.73291L127.564 45.214H137.24L141.26 36.4842H156.443L160.496 45.214H170.231L148.898 0.73291ZM143.966 28.1327L148.898 16.8202L153.792 28.1327H143.966Z" fill="white"/>
<path fill-rule="evenodd" clip-rule="evenodd" d="M200.827 24.025C200.826 25.1749 200.47 26.2961 199.807 27.2324C199.144 28.1688 198.208 28.8738 197.129 29.2492C196.05 29.6247 194.881 29.652 193.786 29.3273C192.691 29.0026 191.723 28.3421 191.018 27.4377C190.313 26.5333 189.905 25.43 189.852 24.2814C189.798 23.1328 190.102 21.996 190.72 21.0292C191.338 20.0625 192.24 19.3139 193.301 18.8876C194.361 18.4613 195.527 18.3786 196.637 18.651L195.333 24.025L200.753 23.1218C200.802 23.4204 200.827 23.7224 200.827 24.025Z" fill="white"/>
</g>
<defs>
<clipPath id="clip0_233_6053">
<rect width="251" height="69" fill="white" transform="translate(0.5 0.0556641)"/>
</clipPath>
</defs>
</svg>
