<svg width="684" height="86" viewBox="0 0 684 86" fill="none" xmlns="http://www.w3.org/2000/svg">
<g clip-path="url(#clip0_627_455)">
<path d="M603.756 38.3264C603.989 40.0288 604.097 41.7458 604.079 43.4638C603.725 47.6857 602.074 51.3105 598.239 53.5013C596.276 54.6223 594.104 55.3747 592.047 56.3386C591.343 56.6601 590.68 57.0644 590.072 57.5429C588.747 58.6128 588.776 60.0692 590.155 61.1291C592.005 62.5509 593.934 63.8707 595.772 65.3067C597.236 66.426 598.64 67.6226 599.976 68.8914C602.84 71.6702 602.325 76.8607 600.323 79.5011C598.135 82.3874 595.102 83.9163 591.75 84.8839C586.114 86.6186 580.047 86.335 574.598 84.0822C573.269 83.5946 572.107 82.7398 571.247 81.6178C570.388 80.4958 569.866 79.1529 569.744 77.7462C569.659 76.4891 569.887 75.2307 570.407 74.0825C571.756 70.984 574.387 69.1437 577.36 67.7882C578.902 67.0853 580.529 66.5669 582.126 65.9867C582.926 65.696 582.983 65.5417 582.415 64.8627C581.994 64.4521 581.677 63.9482 581.488 63.3921C581.3 62.8359 581.245 62.2431 581.33 61.6621C581.538 60.4953 582.478 60.1537 583.262 59.6345C584.643 58.72 586.067 57.8692 587.472 56.9918L587.402 56.6604C586.892 56.6604 586.382 56.6796 585.873 56.6571C583.455 56.6634 581.118 55.784 579.307 54.1858C577.941 52.9125 577.135 51.1535 577.063 49.291C576.84 46.608 577.358 43.9153 578.562 41.5054C579.735 39.2145 581.325 37.2381 583.833 36.239C586.236 35.2814 588.602 34.1862 591.076 33.4595C593.376 32.7865 595.841 32.9498 598.032 33.9202C600.82 35.1254 603.741 34.8581 606.645 34.8602C607.599 34.8609 608.553 34.8319 609.506 34.8033C610.047 34.7871 610.256 35.0531 610.157 35.5536C610.014 36.2824 609.866 37.0119 609.674 37.7288C609.406 38.7301 609.213 38.7413 608.199 38.6225C606.677 38.4441 605.138 38.4117 603.756 38.3264ZM585.929 83.3977C588.65 83.2045 589.789 83.3135 592.535 81.1817C594.942 79.3123 595.949 76.0931 593.554 73.5929C591.283 71.2212 588.489 69.5197 585.693 67.8419C585.385 67.6908 585.048 67.6079 584.705 67.5989C583.284 67.4693 582.186 68.3116 580.995 68.8667C577.63 70.4351 575.85 72.9194 576.068 76.7783C576.083 77.6411 576.3 78.4885 576.702 79.2527C577.104 80.017 577.679 80.6771 578.383 81.1802C580.572 82.7532 583.234 83.5354 585.929 83.3977ZM596.721 42.7086C596.646 41.9084 596.616 41.1008 596.487 40.3093C596.383 39.3403 595.972 38.4297 595.313 37.7101C594.654 36.9905 593.782 36.4995 592.823 36.3085C591.906 36.0185 590.923 36.0001 589.995 36.2557C589.068 36.5113 588.234 37.0299 587.596 37.7485C586.718 38.7645 586.022 39.923 585.537 41.1737C584.377 43.9543 583.996 46.9967 584.434 49.9764C584.77 52.0176 585.841 53.6402 587.882 54.0998C590.631 54.7189 592.559 54.0924 594.207 51.5777C595.882 48.9233 596.754 45.8443 596.721 42.7086Z" fill="#262C20"/>
<path d="M541.844 40.3024C540.267 39.861 539.324 40.8564 538.268 41.4971C537.445 41.9957 536.664 42.562 535.783 43.1528C535.671 42.7671 535.507 42.3983 535.295 42.0564C534.883 41.5996 535.062 41.2707 535.431 40.9716C536.839 39.8317 538.214 38.6445 539.686 37.5927C541.533 36.2729 543.427 35.0104 545.371 33.8381C545.882 33.4823 546.467 33.2457 547.082 33.146C547.697 33.0463 548.327 33.086 548.925 33.2621C549.462 33.4381 549.843 33.6825 549.841 34.2432C549.929 35.6414 549.882 37.0448 549.699 38.4338C549.07 41.5151 548.22 44.5513 547.476 47.6096C547.329 48.2115 547.255 48.8308 547.12 49.6021C548.322 47.8343 549.366 46.1696 550.538 44.5995C553.152 41.0466 556.365 37.9732 560.033 35.5162C561.504 34.3935 563.208 33.6144 565.021 33.2362C565.587 33.1239 566.166 33.0974 566.74 33.1575C568.59 33.4583 568.833 33.908 568.988 36.238C569.018 37.7648 568.827 39.288 568.421 40.7604C567.61 44.2594 566.653 47.7243 565.798 51.2135C565.137 53.9109 564.535 56.6227 563.925 59.3324C563.854 59.7297 563.823 60.1333 563.835 60.5369C563.819 61.8331 564.356 62.2375 565.558 61.6555C566.653 61.0905 567.706 60.4467 568.708 59.7293C569.834 58.9637 570.324 59.0973 570.653 60.4242C570.676 60.5603 570.666 60.6996 570.625 60.8312C570.583 60.9627 570.512 61.0828 570.416 61.1819C567.434 63.3483 564.545 65.6656 561.107 67.1164C559.88 67.6342 558.619 68.0951 557.253 67.7347C556.761 67.5426 556.337 67.2116 556.032 66.7824C555.727 66.3531 555.554 65.8444 555.535 65.3185C555.324 62.5638 556.028 59.9498 556.741 57.3398C557.642 54.0429 558.676 50.7788 559.465 47.4563C559.953 45.4022 560.1 43.2667 560.383 41.1655C560.479 40.4544 560.074 40.2281 559.414 40.1611C558.849 40.1324 558.285 40.2253 557.76 40.4334C557.235 40.6416 556.761 40.9601 556.37 41.3674C553.35 43.9611 550.865 47.1159 549.053 50.656C547.145 54.5122 545.749 58.5992 544.898 62.8143C544.686 63.8217 544.511 64.8389 544.242 65.831C544.186 65.9776 544.098 66.1097 543.983 66.2173C543.869 66.3248 543.731 66.4051 543.581 66.452C541.636 66.8376 539.677 67.1572 537.726 67.5118C536.456 67.7424 535.913 67.1944 536.263 65.9784C537.296 62.3908 538.416 58.8263 539.357 55.215C540.063 52.5004 540.6 49.7376 541.106 46.977C541.447 45.1182 541.611 43.2266 541.838 41.3478C541.861 40.9997 541.863 40.6507 541.844 40.3024Z" fill="#262C20"/>
<path d="M483.993 62.8975C487.931 62.8975 491.771 62.9526 495.609 62.873C497.387 62.802 499.159 62.6237 500.916 62.339C501.609 62.2874 502.266 62.0084 502.784 61.5455C503.302 61.0827 503.652 60.4619 503.779 59.7801C504.123 58.3377 504.623 56.9321 505.051 55.5095C505.39 54.3845 505.869 54.1868 507.768 54.4849C507.767 55.1225 507.723 55.7593 507.636 56.3909C507.008 59.4927 506.336 62.5855 505.685 65.6826C505.677 65.8115 505.642 65.9374 505.584 66.0525C505.525 66.1675 505.443 66.2691 505.342 66.3511C505.242 66.4331 505.126 66.4936 505.002 66.529C504.877 66.5643 504.747 66.5736 504.618 66.5563C503.062 66.5177 501.505 66.5211 499.949 66.5212C490.524 66.5218 481.099 66.5207 471.674 66.5178C471.19 66.5172 470.492 66.7571 470.436 65.8615C470.373 65.4826 470.448 65.0937 470.648 64.7657C470.849 64.4377 471.161 64.1925 471.527 64.0749C472.425 63.8884 473.299 63.6034 474.134 63.2252C474.346 63.0836 474.527 62.9015 474.668 62.6894C474.809 62.4774 474.907 62.2396 474.955 61.9897C475.535 59.0353 476.04 56.0661 476.569 53.1017C477.17 49.7333 477.77 46.3646 478.369 42.9958C478.489 42.317 478.557 41.6292 478.675 40.9501C479.287 37.4363 479.937 33.9289 480.514 30.4095C480.914 27.9725 481.279 25.5263 481.538 23.0714C481.681 21.7087 481.017 21.0492 479.668 20.9479C478.546 20.8637 477.413 20.898 476.298 20.769C475.869 20.7193 475.212 20.438 475.124 20.1302C475.015 19.5734 475.096 18.9961 475.354 18.4904C475.457 18.2735 476.076 18.2176 476.457 18.2271C479.402 18.3004 482.345 18.4591 485.291 18.4888C487.831 18.5144 490.379 18.4893 492.912 18.322C494.29 18.231 495.084 19.1105 496.027 19.7482C496.462 20.0427 496.076 20.3719 495.699 20.4439C494.964 20.5909 494.222 20.6997 493.477 20.7697C491.954 20.8986 491.179 21.4896 490.88 22.9465C490.157 26.4662 489.416 29.9834 488.784 33.5197C488.229 36.6288 487.874 39.7731 487.321 42.8826C486.577 47.0617 485.682 51.2139 484.945 55.394C484.524 57.7826 484.287 60.2036 483.972 62.6106C483.967 62.7068 483.975 62.8031 483.993 62.8975Z" fill="#262C20"/>
<path d="M633.068 51.9311C631.984 53.5501 630.987 55.191 629.841 56.7209C627.145 60.4345 623.829 63.6585 620.038 66.2524C618.848 67.001 617.549 67.5629 616.187 67.9183C615.767 68.0198 615.33 68.0346 614.903 67.9619C614.476 67.8892 614.069 67.7304 613.706 67.4954C613.343 67.2603 613.031 66.9539 612.791 66.5948C612.551 66.2357 612.387 65.8315 612.309 65.407C611.759 63.1287 612.358 60.9504 612.869 58.7875C613.698 55.2845 614.741 51.8312 615.544 48.3229C616.091 45.9328 616.39 43.4858 616.778 41.0609C616.806 40.7749 616.777 40.4862 616.691 40.2118C616.544 39.6429 616.146 39.3366 615.593 39.6026C614.463 40.1457 613.371 40.7667 612.264 41.3572C612.241 41.3696 612.233 41.4115 612.209 41.4223C611.672 41.6713 611.127 42.2537 610.538 41.6305C610.401 41.4812 610.3 41.3018 610.244 41.1068C610.188 40.9118 610.178 40.7065 610.216 40.5071C610.253 40.3078 610.337 40.1199 610.46 39.9583C610.583 39.7967 610.742 39.666 610.924 39.5764C613.057 38.1646 615.164 36.7047 617.375 35.4252C618.882 34.553 620.547 33.9522 622.142 33.2304C622.168 33.2177 622.195 33.2083 622.224 33.2024C624.735 32.7681 625.881 33.6154 625.514 36.3343C625.044 39.8155 624.085 43.2334 623.291 46.6681C622.338 50.7911 621.333 54.9024 620.36 59.0211C620.296 59.331 620.266 59.6469 620.271 59.9633C620.251 60.1929 620.291 60.4238 620.387 60.6333C620.483 60.8428 620.632 61.0237 620.82 61.158C621.008 61.2924 621.228 61.3756 621.458 61.3996C621.687 61.4235 621.92 61.3872 622.131 61.2943C624.01 60.6358 625.266 59.2055 626.498 57.7587C629.108 54.7213 631.274 51.3313 632.932 47.6892C634.683 43.9048 635.805 39.8615 636.253 35.7178C636.244 35.5701 636.267 35.4223 636.318 35.2836C636.37 35.1449 636.45 35.0183 636.553 34.9117C636.656 34.8052 636.78 34.7209 636.917 34.6642C637.054 34.6075 637.201 34.5796 637.349 34.5821C639.228 34.3296 641.088 33.9229 642.949 33.5502C644.169 33.3061 644.446 33.4629 644.202 34.6697C643.86 36.3549 643.358 38.0085 642.907 39.6709C642.193 42.304 641.502 44.944 640.734 47.5613C639.772 50.7446 639.069 53.9999 638.631 57.2957C638.517 58.2063 638.198 59.1006 638.164 60.0096C638.111 61.4072 638.772 61.8647 639.985 61.2442C641.036 60.6551 642.045 59.9965 643.007 59.2726C643.927 58.6332 644.614 58.8326 644.841 59.8996C644.858 60.0424 644.843 60.1873 644.795 60.3231C644.747 60.459 644.669 60.582 644.566 60.6829C642.143 62.4887 639.744 64.3342 637.231 66.0078C636.06 66.7364 634.792 67.297 633.464 67.6729C631.8 68.1923 630.568 67.186 630.515 65.4346C630.435 62.7349 631.113 60.1502 631.761 57.5652C632.17 55.9367 632.638 54.3231 633.06 52.6977C633.093 52.4434 633.096 52.186 633.068 51.9311Z" fill="#262C20"/>
<path d="M671.779 51.4614C670.522 53.3584 669.351 55.3195 667.986 57.1355C666.454 59.2859 664.762 61.3186 662.924 63.2164C660.945 65.2355 658.538 66.7882 655.879 67.7611C655.3 67.9571 654.683 68.0177 654.076 67.938C653.47 67.8584 652.889 67.6406 652.381 67.3017C651.872 66.9627 651.448 66.5116 651.142 65.9832C650.836 65.4548 650.656 64.8633 650.616 64.2545C650.178 60.0973 650.615 55.8945 651.899 51.9153C652.793 49.1111 653.863 46.357 654.987 43.6351C655.397 42.7767 655.988 42.0163 656.719 41.4055C659.578 38.8086 662.726 36.5467 666.102 34.6641C668.53 33.3843 671.359 33.081 674.005 33.8166C675.338 34.1248 676.598 34.7491 677.931 35.0552C678.518 35.0643 679.096 34.9133 679.603 34.6187C680.105 34.4143 680.532 34.0015 681.043 33.8507C681.447 33.7454 681.877 33.8012 682.24 34.0064C682.436 34.1328 682.487 34.6839 682.41 34.9976C681.56 38.4763 680.643 41.939 679.801 45.4197C679.04 48.5666 678.293 51.7191 677.648 54.8911C677.272 56.7712 677.01 58.6721 676.863 60.5835C676.746 62.0497 677.224 62.3545 678.538 61.7248C679.827 61.1073 681.051 60.3503 682.281 59.6173C682.737 59.3451 683.166 58.9623 683.641 59.4748C683.768 59.5967 683.865 59.7453 683.927 59.9097C683.988 60.0741 684.011 60.2501 683.996 60.4248C683.98 60.5994 683.925 60.7683 683.835 60.919C683.745 61.0697 683.622 61.1984 683.476 61.2956C682.015 62.369 680.58 63.4889 679.044 64.444C677.194 65.5942 675.257 66.6088 673.338 67.6452C672.92 67.8387 672.475 67.9675 672.018 68.027C670.591 68.2926 669.613 67.0109 669.38 65.7807C669.008 63.8095 669.479 61.9125 669.918 60.0127C670.5 57.4869 671.065 54.9571 671.652 52.4322C671.746 52.1219 671.861 51.8186 671.998 51.5245L671.779 51.4614ZM668.396 36.9343C667.369 37.196 666.36 37.5261 665.377 37.9226C663.477 38.8365 662.646 40.6885 662.104 42.51C660.79 46.9308 659.642 51.404 658.56 55.888C658.309 57.3329 658.191 58.7978 658.207 60.2642C658.187 60.6233 658.275 60.9801 658.458 61.29C658.641 61.5998 658.911 61.849 659.236 62.0063C659.872 62.0934 660.518 61.9311 661.037 61.5536C661.71 61.1081 662.327 60.5812 662.871 59.9851C666.744 56.0555 669.793 51.3957 671.839 46.278C672.815 44.0593 673.408 41.6923 673.593 39.2768C673.607 38.9985 673.446 38.5179 673.256 38.4528C671.658 37.9064 670.035 37.4351 668.396 36.9343Z" fill="#262C20"/>
<path d="M520.501 40.3999C520.125 40.1716 519.69 40.0597 519.25 40.0784C518.811 40.097 518.387 40.2453 518.032 40.5045C516.772 41.1827 515.571 41.9711 514.36 42.7364C513.817 43.0798 513.322 43.4116 512.804 42.7022C512.328 42.0518 512.366 41.6515 513.112 41.1228C516.02 39.0616 518.899 36.9541 521.881 35.0044C523.112 34.265 524.431 33.6839 525.808 33.2749C528.009 32.5375 529.37 33.7579 529.253 36.0671C529.112 38.8768 528.206 41.5198 527.529 44.2136C526.241 49.3348 524.956 54.4566 523.673 59.579C523.614 59.8314 523.578 60.0887 523.565 60.3477C523.477 61.7994 524.248 62.3323 525.542 61.6113C526.845 60.885 528.083 60.0387 529.328 59.2125C529.813 58.8905 530.223 58.6896 530.659 59.2587C531.204 59.9693 531.221 60.5274 530.576 60.9416C527.352 63.0105 524.139 65.0978 520.858 67.0733C520.342 67.4216 519.758 67.659 519.145 67.7708C518.532 67.8825 517.902 67.866 517.295 67.7223C516.111 67.403 515.706 66.5039 515.451 65.4568C515.172 63.9199 515.27 62.3382 515.738 60.8475C516.981 55.7225 518.283 50.6118 519.515 45.4842C519.92 43.7993 520.179 42.0797 520.501 40.3999Z" fill="#262C20"/>
<path d="M527.537 26.6745C525.572 26.6717 524.346 25.679 524.001 23.3948C523.496 20.0616 525.978 16.5919 529.825 17.5254C530.785 17.8157 531.591 18.4716 532.068 19.3508C532.546 20.2299 532.657 21.2614 532.377 22.2214C532.136 23.1027 531.798 23.9544 531.367 24.7605C530.974 25.4063 530.406 25.9283 529.728 26.2668C529.051 26.6054 528.291 26.7466 527.537 26.6745Z" fill="#262C20"/>
<path d="M454.809 32.6077C454.652 31.6987 454.41 30.5838 454.182 29.7033C453.416 26.7356 452.254 23.8838 450.728 21.2243C448.85 17.9366 446.302 15.0773 443.249 12.8306C441.062 11.2246 438.693 9.88032 436.191 8.82548C431.548 6.86553 426.591 6.36134 421.626 6.07729C420.622 6.02048 419.618 5.99207 418.621 5.99207C414.621 6.0067 410.634 6.42785 406.72 7.249C401.853 8.31888 397.291 10.4695 393.373 13.5407C390.848 15.3854 388.703 17.6976 387.055 20.3509C385.836 22.3978 384.822 24.56 384.029 26.8059C383.68 27.7646 383.373 28.7304 383.103 29.7033C382.343 32.3898 381.889 35.153 381.749 37.9407C381.545 41.5271 381.684 45.1247 382.163 48.685C382.405 50.2828 382.697 51.8664 383.067 53.4144C383.643 55.8463 384.524 58.1964 385.688 60.4092C387.639 63.9811 389.904 67.3116 393.102 69.9675C396.294 72.694 400.052 74.6825 404.106 75.7906C407.964 76.8115 411.937 77.3318 415.929 77.3387C416.441 77.3387 416.954 77.3316 417.453 77.3102C426.213 77.2747 430.458 76.5788 437.281 73.7667C439.399 72.8561 441.415 71.723 443.292 70.3865C446.581 68.0811 449.256 65.0095 451.084 61.4389C452.444 58.8928 453.51 56.2007 454.26 53.4144C454.578 52.2039 454.823 50.9756 454.994 49.736C455.819 44.0512 455.757 38.2734 454.809 32.6077ZM427.246 53.4144C427.032 54.5577 426.726 55.8928 426.413 57.0148C425.764 59.3511 424.782 61.6022 422.438 62.8662C418.742 64.8617 414.262 63.8249 412.261 60.3595C411.074 58.1983 410.272 55.8486 409.889 53.4144L409.868 53.2866C409.24 48.9844 408.971 44.6378 409.063 40.2913C409.045 36.7474 409.302 33.2075 409.832 29.7033C409.96 29.0002 410.103 28.2972 410.274 27.5942C410.836 25.265 411.67 23.0707 413.422 21.3806C414.448 20.3212 415.775 19.6008 417.224 19.3164C418.673 19.032 420.175 19.1972 421.527 19.7899C423.457 20.5355 424.682 22.2114 425.65 24.0435C426.521 25.819 427.064 27.7361 427.253 29.7033C427.353 30.4702 427.474 31.4573 427.573 32.2242C427.922 34.9085 428.036 37.6141 428.165 39.2332C428.357 43.9793 428.049 48.7325 427.246 53.4144Z" fill="#262C20"/>
<path d="M87.2129 73.1986C85.1475 71.3097 83.0963 69.4136 81.0238 67.5318C80.1263 66.8685 79.2919 66.1245 78.531 65.3091C77.9429 64.4075 77.4805 63.4304 77.1564 62.4047C75.9243 59.2517 74.7278 56.0774 73.5384 52.9031C72.9899 51.4403 72.5056 49.949 71.9857 48.4648C70.9886 45.6385 69.9773 42.8051 68.9944 39.9717C68.2181 37.7348 67.4916 35.4766 66.6868 33.2468C65.6327 30.3211 64.5146 27.4166 63.4391 24.498C62.9477 23.163 62.4919 21.8137 62.0147 20.4787C61.2384 18.3128 61.4663 17.4464 62.791 16.3812C64.2867 15.1669 65.6755 13.8319 67.0999 12.5395C68.0115 11.7086 68.9018 10.8494 69.7992 10.0043C70.6895 9.16635 71.5798 8.32129 72.5911 7.36262C72.2712 7.19122 71.9282 7.06684 71.5726 6.99336C54.9068 6.97915 38.2409 6.97915 21.3044 6.97915C21.9596 7.71769 22.4012 8.29289 22.914 8.78288C25.8269 11.5382 28.747 14.284 31.6742 17.0204C32.5147 17.8015 32.5788 18.3199 32.1585 19.3993C31.4534 21.1746 30.7911 22.9712 30.143 24.775C29.2812 27.161 28.4693 29.5612 27.6074 31.9402C26.3468 35.4269 25.0506 38.9065 23.7828 42.3932C22.9709 44.6301 22.1875 46.8813 21.3827 49.1324C20.4212 51.838 19.4383 54.5435 18.4911 57.2633C17.7219 59.4647 16.9954 61.6803 16.2404 63.8888C15.749 65.302 14.5596 66.1115 13.5055 67.056C11.7962 68.597 10.2151 70.3013 8.41318 71.7357C7.87289 72.1399 7.4593 72.6892 7.2209 73.3193C6.98249 73.9494 6.92914 74.6342 7.06709 75.2935C7.13119 75.8971 7.40896 76.1882 7.99298 76.1882C8.79778 76.1882 9.60971 76.1385 10.4145 76.1385C18.256 76.1527 26.0928 76.167 33.9248 76.1812C38.1696 76.1812 42.4216 76.1244 46.6735 76.1385C51.2673 76.1456 55.8611 76.2238 60.462 76.2309C66.7651 76.2451 73.0682 76.2238 79.3714 76.2238C82.2701 76.2309 85.1617 76.2735 88.0604 76.2664V74.0224C87.7756 73.7525 87.505 73.4685 87.2129 73.1986ZM37.9845 44.7296C38.6896 42.6063 39.3947 40.483 40.1211 38.3597C40.2474 38.1327 40.4084 37.9266 40.5983 37.749C40.7764 37.9478 41.0399 38.1112 41.1111 38.3384C41.6524 40.064 42.1509 41.8038 42.6637 43.5366C42.7278 43.7567 42.7991 43.9768 42.8774 44.1899C43.4187 45.6314 43.2549 45.8516 41.6809 45.7593C40.7265 45.7593 39.7793 45.7735 38.832 45.7522C37.9204 45.7309 37.7281 45.4965 37.9845 44.7296ZM49.3087 65.7565C46.7519 68.1567 44.1665 70.5285 41.5812 72.8933C40.5912 73.8022 40.0499 73.7596 39.0101 72.7938C36.1612 70.1451 33.3147 67.501 30.4706 64.8617C29.7797 64.2226 29.7726 63.8604 30.3495 63.129C31.0689 62.2129 31.6956 61.2187 32.479 60.3595C32.871 60.0609 33.3191 59.8436 33.7966 59.7204H45.6194C45.7975 59.7204 45.9684 59.7133 46.1394 59.7133C48.0623 59.7204 48.0481 59.7275 48.5751 61.5951C48.8814 62.6745 49.3016 63.7184 49.5794 64.7978C49.609 64.9676 49.6 65.1419 49.5532 65.3078C49.5064 65.4737 49.4228 65.627 49.3087 65.7565Z" fill="#262C20"/>
<path d="M126.613 60.6293C126.022 61.8224 126.157 62.1135 127.46 62.0993C131.093 62.0496 134.725 62.0212 138.357 61.9005C139.014 61.8616 139.636 61.5954 140.116 61.1477C141.591 59.6565 142.944 58.0587 144.361 56.5035C145.992 54.714 147.63 52.9292 149.276 51.1491C149.558 50.9077 149.86 50.6915 150.18 50.5029C150.294 50.9169 150.373 51.3397 150.415 51.7669C150.451 54.7565 150.467 57.7438 150.465 60.7288C150.472 65.5718 150.472 70.4125 150.465 75.2509C150.465 76.1172 150.287 76.2877 149.183 76.2948C146.263 76.2948 143.343 76.2735 140.416 76.2664C128.935 76.2522 117.454 76.2403 105.973 76.2309C102.654 76.2167 99.3278 76.0959 96.0018 76.0959C93.7227 76.0959 91.4436 76.2451 89.1574 76.2593C88.787 76.2664 88.4238 76.2664 88.0605 76.2664V74.0224C88.146 74.1005 88.2386 74.1786 88.3241 74.2567C88.8582 74.7183 89.2713 74.5905 89.5918 73.9513C91.408 70.2516 93.2384 66.566 95.0616 62.8662C95.8593 61.2471 96.6356 59.6139 97.4262 57.9876C98.8293 55.1116 100.247 52.2427 101.65 49.3667C102.86 46.8599 104.064 44.3508 105.261 41.8393C106.735 38.7503 108.174 35.6328 109.676 32.558C110.752 30.3566 111.913 28.1978 113.024 26.0106C113.722 24.6329 114.427 23.2482 115.039 21.8279C115.103 21.6646 114.591 21.0468 114.27 20.9758C112.661 20.6136 111.022 20.358 109.391 20.0739C108.819 19.9096 108.228 19.8189 107.632 19.8041C107.143 19.8672 106.691 20.0953 106.35 20.4503C102.682 24.427 99.05 28.4392 95.3821 32.423C95.088 32.6687 94.7622 32.8741 94.4135 33.0337C94.2143 32.6349 94.0752 32.209 94.0004 31.7697C93.9506 29.895 94.0004 28.0273 93.9719 26.1526C93.9363 22.7724 93.8437 19.3993 93.8224 16.0191C93.801 13.8319 93.8651 11.6447 93.8865 9.45749C93.8865 9.00301 93.8153 8.54853 93.8153 8.09405C93.8081 7.12117 93.9862 6.93654 94.9619 6.92944C98.117 6.92233 101.265 6.93654 104.413 6.93654C115.987 6.93654 127.555 6.93417 139.119 6.92944C142.759 6.92233 146.401 6.9176 150.045 6.91523C150.472 6.91523 150.899 6.98625 151.519 7.04306C151.417 7.51444 151.279 7.97736 151.106 8.42781C149.803 11.1973 148.449 13.9384 147.16 16.7079C145.344 20.5923 143.592 24.5051 141.783 28.3966C140.387 31.3934 138.941 34.3617 137.517 37.3442C136.32 39.8581 135.095 42.3577 133.927 44.8858C132.681 47.5914 131.513 50.3254 130.267 53.0239C129.084 55.5803 127.852 58.1084 126.613 60.6293Z" fill="#262C20"/>
<path d="M380.84 74.9597C379.736 73.9371 378.627 72.9264 377.514 71.9275C375.107 69.7758 372.678 67.6454 370.299 65.4582C369.749 64.9562 369.297 64.3566 368.967 63.69C367.358 60.3524 365.712 56.7662 364.131 53.4144C364.039 53.2156 363.946 53.0239 363.854 52.825C362.75 50.4887 361.62 48.1642 360.463 45.8516C360.376 45.7247 360.316 45.5812 360.287 45.4301C360.258 45.279 360.261 45.1235 360.295 44.9735C360.329 44.8234 360.394 44.6821 360.485 44.5582C360.577 44.4343 360.693 44.3307 360.827 44.2538C362.275 43.1628 363.611 41.9306 364.815 40.5753C367.206 37.4296 368.602 33.6442 368.825 29.7033C368.853 29.3127 368.875 28.9221 368.882 28.5244C369.032 24.7297 368.265 20.9546 366.645 17.5175C365.313 14.7551 363.249 12.4078 360.677 10.7286C356.851 8.25942 352.371 6.99048 347.814 7.08567C343.42 7.05726 339.026 7.11407 334.624 7.09277C327.025 7.05726 319.425 6.97915 311.819 6.93654C308.671 6.91524 305.523 6.94364 302.375 6.95074H301.228C301.2 7.03596 301.171 7.11407 301.143 7.19929C301.421 7.50464 301.67 7.84551 301.976 8.12246C304.611 10.5298 307.261 12.9158 309.896 15.3161C311.214 16.5233 312.431 17.8441 313.842 18.9235C314.246 19.2135 314.561 19.6106 314.752 20.07C314.942 20.5293 314.999 21.0325 314.917 21.5226C314.775 23.7311 314.668 25.9396 314.554 28.1481C314.525 28.6665 314.504 29.1849 314.483 29.7033C314.39 31.578 314.312 33.6658 314.212 35.5405C314.048 38.7503 313.849 41.953 313.699 45.1556C313.564 47.9109 313.44 50.6638 313.329 53.4144C313.279 54.579 313.222 55.9496 313.172 57.1071C313.08 59.4008 313.044 61.7016 312.909 64.0024C312.912 64.5748 312.724 65.132 312.374 65.586C311.135 66.8217 309.789 67.9508 308.464 69.1012C308.066 69.442 307.56 69.6551 307.175 70.0101C306.727 70.4078 306.399 70.9475 305.936 71.331C304.953 72.1476 303.892 72.8791 302.923 73.7099C302.503 74.065 302.225 74.0934 301.827 73.7454C301.093 73.0992 300.317 72.4956 299.59 71.8423C297.639 70.0527 295.687 68.2632 293.771 66.4382C292.874 65.5789 291.72 64.7907 291.264 63.7184C289.854 60.4234 288.629 56.7875 287.397 53.4144C286.614 51.2485 285.859 49.0685 285.082 46.8955C284.477 45.2125 283.829 43.5437 283.266 41.8464C282.554 39.7161 281.941 37.5502 281.208 35.434C280.716 34.0279 280.033 32.6858 279.513 31.2939C279.342 30.8324 279.107 30.1648 278.936 29.7033C277.647 26.1881 276.379 22.6588 275.111 19.1436C274.962 18.8297 274.912 18.4776 274.97 18.1348C275.027 17.792 275.188 17.4749 275.432 17.2263C276.279 16.4026 277.12 15.5717 278.017 14.8048C280.517 12.6886 283.152 10.7145 285.552 8.49882C285.909 8.17217 287.155 6.92944 287.155 6.92944C287.155 6.92944 284.627 6.92234 284.448 6.92944C282.661 6.97205 280.873 7.04306 279.085 7.06437C277.583 7.07857 275.987 7.08567 274.477 7.08567C273.324 7.09277 272.17 7.09277 271.016 7.09277C265.874 7.09987 260.732 7.13538 255.589 7.10697C249.229 7.07857 242.869 7.00045 236.509 6.96495C236.156 7.02621 235.814 7.14369 235.498 7.31291C235.579 7.66285 235.718 7.9966 235.911 8.29999C237.107 9.53561 238.332 10.7428 239.572 11.9287C240.939 13.2354 242.342 14.5065 243.717 15.806C244.636 16.6795 245.533 17.5672 246.473 18.4832C246.366 18.8028 246.252 19.1863 246.117 19.5626C244.935 22.8221 243.731 26.0674 242.584 29.334C241.559 32.2313 240.611 35.157 239.586 38.0544C237.649 43.5863 235.69 49.1111 233.71 54.6287C232.791 57.1923 231.808 59.7204 230.861 62.2697C230.519 63.5231 229.859 64.6676 228.945 65.5931C227.713 66.6654 226.524 67.7945 225.306 68.881C224.302 69.7758 223.226 70.6066 222.265 71.544C221.14 72.6447 220.1 73.8377 219.031 74.9881C218.739 75.3077 218.454 75.6415 217.984 76.1669C218.725 76.2167 219.174 76.2806 219.622 76.2806C222.507 76.2664 225.399 76.2309 228.283 76.2309C243.688 76.2309 259.086 76.2356 274.477 76.2451H280.766C294.818 76.2309 308.87 76.1527 322.922 76.1527C341.867 76.1527 360.805 76.2095 379.75 76.2238C380.403 76.1834 381.052 76.1028 381.695 75.9823C381.431 75.6245 381.145 75.2831 380.84 74.9597ZM252.149 44.4313C252.684 42.8193 253.275 41.2215 253.837 39.6166C254.048 38.9515 254.319 38.3072 254.649 37.6922C255.974 40.2061 256.316 42.9898 257.463 45.7522C255.661 45.7522 254.108 45.8303 252.57 45.7237C251.729 45.6669 251.986 44.9213 252.149 44.4313ZM262.854 66.2678C260.924 67.9579 259.086 69.7474 257.178 71.4659C256.629 71.9239 256.043 72.3349 255.426 72.6944C254.421 73.3193 253.545 72.9572 252.755 72.2612C251.216 70.9049 249.678 69.5556 248.161 68.178C247.071 67.1909 246.003 66.1825 244.935 65.1671C244.087 64.3646 244.066 63.761 244.792 62.8449C245.391 62.1437 245.952 61.4113 246.473 60.6506C246.662 60.3277 246.939 60.0648 247.272 59.8926C247.605 59.7204 247.98 59.6459 248.353 59.6778C250.433 59.7062 252.513 59.692 254.592 59.692V59.6636C256.651 59.6636 258.702 59.692 260.753 59.6494C260.95 59.6105 261.152 59.6131 261.348 59.6569C261.543 59.7008 261.727 59.7849 261.888 59.904C262.049 60.023 262.184 60.1743 262.282 60.3482C262.381 60.522 262.443 60.7145 262.462 60.9134C262.712 62.0638 263.16 63.1645 263.502 64.2936C263.623 64.6483 263.625 65.0325 263.508 65.3885C263.391 65.7445 263.162 66.053 262.854 66.2678ZM338.983 27.793C339.04 25.7833 338.969 23.7737 339.004 21.764C339.019 21.3237 339.132 20.6704 339.424 20.4929C340.016 20.1449 340.493 20.6704 340.87 21.1178C341.981 22.4315 342.273 24.0506 342.451 25.6768C342.608 27.013 342.672 28.3583 342.644 29.7033C342.615 30.7748 342.507 31.8428 342.323 32.8988C342.125 34.2128 341.5 35.4255 340.543 36.3501C340.218 36.6114 339.83 36.7829 339.417 36.8471C338.954 36.9324 338.662 36.6838 338.684 36.1512C338.712 35.5192 338.691 34.8801 338.691 34.2481H338.67C338.741 32.8065 338.84 31.1519 338.912 29.7033C338.94 29.0712 338.969 28.4321 338.983 27.793ZM342.451 67.1909C342.306 67.2559 342.147 67.2847 341.989 67.2748C341.83 67.2649 341.676 67.2166 341.54 67.1341C340.658 66.4997 339.89 65.7219 339.268 64.8333C338.812 64.0024 338.848 62.8946 338.719 61.9005C338.37 59.1452 338.021 56.1768 337.694 53.4144C337.687 53.3718 337.687 53.3292 337.68 53.2866C337.672 53.1731 337.672 53.0593 337.68 52.9458C337.74 52.6442 337.853 52.3557 338.014 52.0936C338.171 52.2711 338.406 52.4274 338.47 52.6333C338.548 52.896 338.627 53.1517 338.705 53.4144C339.838 57.1568 341.013 61.1193 342.131 64.8617C342.302 65.346 342.447 65.8391 342.565 66.3388C342.615 66.6228 342.608 67.1057 342.451 67.1909Z" fill="#262C20"/>
<path d="M192.664 59.6849C191.945 61.1832 192.173 61.9502 194.074 61.9005C197.351 61.8153 200.634 61.8011 203.917 61.7371C205.128 61.7087 205.776 60.743 206.503 60.0115C207.79 58.7404 209.005 57.3985 210.142 55.9922C211.631 54.1033 213.518 52.612 215.078 50.8012C215.267 50.6235 215.467 50.4575 215.676 50.3041C215.905 51.0012 216.063 51.7197 216.146 52.4487C216.153 54.9483 216.039 57.448 216.018 59.9476C215.982 64.7481 215.982 69.5485 215.954 74.3419C215.941 74.7148 215.894 75.0857 215.811 75.4497C215.683 76.1882 215.142 76.2806 214.508 76.2735C209.565 76.2735 204.62 76.2735 199.672 76.2735C193.54 76.2664 187.406 76.2617 181.269 76.2593C177.373 76.2522 173.475 76.2498 169.574 76.2522C164.952 76.2522 160.33 76.2806 155.707 76.2877C155.449 76.2803 155.192 76.2518 154.938 76.2024C154.347 76.1172 154.247 75.8332 154.518 75.3077C156.099 72.1618 157.666 69.0088 159.219 65.8488C160.03 64.2013 160.771 62.5254 161.576 60.8779C162.26 59.4647 162.993 58.08 163.684 56.6739C164.788 54.4299 165.88 52.1788 166.96 49.9206C168.506 46.6611 170.009 43.3803 171.568 40.135C172.452 38.2958 173.434 36.5063 174.332 34.6813C175.564 32.1674 176.746 29.6322 177.957 27.1113C178.698 25.5703 179.481 24.0577 180.193 22.5026C180.699 21.3948 180.45 20.8835 179.175 20.7414C177.295 20.5284 175.436 20.1307 173.57 19.7828C173.337 19.7167 173.09 19.7191 172.859 19.7897C172.628 19.8602 172.422 19.9959 172.266 20.1804C168.862 23.8447 165.429 27.4948 162.01 31.1448C161.391 31.8052 160.792 32.4728 160.03 33.3107C159.784 32.9114 159.603 32.475 159.496 32.0183C159.503 25.3928 159.546 18.7602 159.582 12.1347C159.582 10.8707 159.56 9.59952 159.61 8.3284C159.66 7.03596 159.824 6.92234 161.099 6.92234C167.822 6.92234 174.545 6.92471 181.269 6.92944C190.1 6.93654 198.929 6.93891 207.756 6.93654C210.299 6.93654 212.841 6.90814 215.391 6.89394C215.593 6.89534 215.795 6.9072 215.996 6.92944C216.908 7.01466 217.086 7.17799 216.823 8.07985C216.54 8.87981 216.204 9.66028 215.818 10.4162C215.298 11.5524 214.786 12.6957 214.244 13.8248C213.091 16.2463 211.894 18.6466 210.762 21.0752C208.475 25.9964 206.232 30.9318 203.946 35.853C202.699 38.523 201.375 41.1647 200.114 43.8348C197.628 49.1182 195.171 54.4157 192.664 59.6849Z" fill="#262C20"/>
<path d="M361.858 22.5324C361.851 22.93 361.83 23.3206 361.801 23.7112H335.62C335.648 22.3662 335.584 21.0209 335.428 19.6848C335.25 18.0586 334.958 16.4395 333.847 15.1257C333.469 14.6784 332.992 14.1529 332.401 14.5008C332.109 14.6784 331.995 15.3317 331.981 15.7719C331.945 17.7816 332.016 19.7913 331.959 21.8009C331.945 22.4401 331.916 23.0792 331.888 23.7112H307.459C307.48 23.1928 307.502 22.6744 307.53 22.156C307.644 19.9475 307.751 17.739 307.893 15.5305C307.975 15.0404 307.918 14.5372 307.728 14.0779C307.538 13.6186 307.223 13.2214 306.818 12.9314C305.408 11.852 304.19 10.5312 302.872 9.32398C300.237 6.92375 297.588 4.53772 294.952 2.13039C294.646 1.85344 294.397 1.51257 294.119 1.20722C294.148 1.122 294.176 1.04389 294.205 0.958674H295.351C298.499 0.951608 301.647 0.923168 304.795 0.944472C312.402 0.987079 320.001 1.06519 327.6 1.1007C332.002 1.122 336.396 1.06519 340.791 1.0936C345.347 0.99841 349.828 2.26735 353.653 4.73656C356.225 6.41568 358.289 8.76298 359.622 11.5254C361.241 14.9626 362.008 18.7377 361.858 22.5324Z" fill="black"/>
<path d="M268.407 11.2342C268.164 11.4829 268.003 11.7999 267.945 12.1427C267.888 12.4855 267.937 12.8376 268.087 13.1516C269.355 16.6667 270.622 20.196 271.912 23.7112H267.453V1.0936C268.963 1.0936 270.558 1.0865 272.061 1.07229C273.849 1.05099 275.636 0.979976 277.424 0.937369C277.602 0.930267 280.129 0.936658 280.129 0.936658C280.129 0.936658 278.884 2.17774 278.528 2.50675C276.127 4.72559 273.493 6.69651 270.993 8.81269C270.095 9.57963 269.255 10.4105 268.407 11.2342Z" fill="black"/>
<path d="M447.159 23.7112H420.23C420.041 21.7441 419.498 19.8269 418.628 18.0515C417.659 16.2193 416.434 14.5434 414.504 13.7978C413.152 13.2051 411.65 13.0399 410.201 13.3243C408.752 13.6087 407.425 14.3291 406.399 15.3885C404.647 17.0786 403.814 19.2729 403.251 21.6021C403.08 22.3051 402.938 23.0082 402.81 23.7112H376.08C376.351 22.7383 376.657 21.7725 377.006 20.8139C377.799 18.5679 378.813 16.4057 380.033 14.3588C381.681 11.7055 383.826 9.39335 386.35 7.54866C390.268 4.47742 394.83 2.32681 399.697 1.25693C403.611 0.435777 407.599 0.0146242 411.598 0C412.595 0 413.6 0.0284051 414.604 0.0852154C419.568 0.369267 424.525 0.873458 429.169 2.83341C431.671 3.88824 434.04 5.2325 436.227 6.83853C439.28 9.08525 441.827 11.9445 443.705 15.2323C445.232 17.8918 446.394 20.7435 447.159 23.7112Z" fill="black"/>
<path d="M353.439 39.8595C354.6 42.1674 355.73 44.4919 356.829 46.833C356.922 47.0318 357.015 47.2235 357.107 47.4224H331.681C331.603 47.1596 331.524 46.904 331.446 46.6412C331.382 46.4353 331.147 46.2791 330.99 46.1015C330.829 46.3636 330.716 46.6521 330.655 46.9537C330.648 47.0672 330.648 47.181 330.655 47.2945C330.663 47.3371 330.663 47.3798 330.67 47.4224H306.305C306.419 44.6742 306.542 41.9212 306.675 39.1636C306.825 35.9609 307.024 32.7582 307.188 29.5484C307.288 27.6737 307.366 25.5859 307.458 23.7112H331.888C331.816 25.1598 331.717 26.8144 331.645 28.256H331.667C331.667 28.888 331.688 29.5271 331.66 30.1591C331.638 30.6917 331.93 30.9403 332.393 30.8551C332.806 30.7908 333.194 30.6194 333.518 30.358C334.476 29.4334 335.101 28.2207 335.299 26.9068C335.483 25.8507 335.59 24.7827 335.62 23.7112H361.801C361.578 27.6522 360.182 31.4375 357.791 34.5832C356.587 35.9385 355.251 37.1708 353.802 38.2617C353.669 38.3386 353.553 38.4423 353.461 38.5661C353.369 38.69 353.305 38.8314 353.27 38.9814C353.236 39.1315 353.234 39.2869 353.263 39.438C353.292 39.5892 353.352 39.7326 353.439 39.8595Z" fill="#DD0000"/>
<path d="M447.973 43.7439C447.802 44.9835 447.557 46.2118 447.239 47.4224H420.225C421.028 42.7404 421.336 37.9872 421.143 33.2411C421.015 31.622 420.901 28.9164 420.552 26.2321C420.453 25.4652 420.331 24.4781 420.232 23.7112H447.161C447.389 24.5917 447.631 25.7066 447.787 26.6156C448.735 32.2813 448.798 38.0592 447.973 43.7439Z" fill="#DD0000"/>
<path d="M402.868 47.4224H376.046C375.675 45.8743 375.383 44.2907 375.141 42.6929C374.662 39.1326 374.524 35.535 374.728 31.9487C374.868 29.161 375.322 26.3978 376.081 23.7112H402.811C402.28 27.2154 402.023 30.7553 402.041 34.2992C401.95 38.6457 402.219 42.9923 402.846 47.2945L402.868 47.4224Z" fill="#DD0000"/>
<path d="M280.373 47.4224H267.453V23.7112H271.912C272.083 24.1728 272.318 24.8403 272.489 25.3019C273.008 26.6937 273.692 28.0359 274.184 29.4419C274.917 31.5581 275.53 33.724 276.242 35.8544C276.805 37.5516 277.453 39.2204 278.058 40.9034C278.834 43.0764 279.589 45.2565 280.373 47.4224Z" fill="#DD0000"/>
<path d="M374.67 69.9902C374.028 70.1107 373.378 70.1914 372.726 70.2317C353.781 70.2175 334.843 70.1607 315.898 70.1607C301.846 70.1607 287.794 70.2388 273.742 70.253H267.453V47.4224H280.373C281.605 50.7955 282.83 54.4313 284.24 57.7263C284.696 58.7986 285.85 59.5869 286.747 60.4461C288.663 62.2711 290.614 64.0607 292.566 65.8502C293.292 66.5035 294.069 67.1071 294.802 67.7533C295.201 68.1013 295.479 68.0729 295.899 67.7178C296.868 66.887 297.929 66.1555 298.912 65.3389C299.375 64.9554 299.702 64.4157 300.151 64.0181C300.536 63.663 301.041 63.45 301.44 63.1091C302.765 61.9587 304.111 60.8296 305.35 59.594C305.7 59.1399 305.888 58.5827 305.884 58.0104C306.02 55.7096 306.055 53.4087 306.148 51.115C306.198 49.9575 306.255 48.5869 306.305 47.4224H330.67C330.997 50.1847 331.346 53.1531 331.695 55.9084C331.823 56.9026 331.788 58.0104 332.244 58.8412C332.866 59.7298 333.634 60.5076 334.515 61.142C334.651 61.2245 334.805 61.2728 334.964 61.2827C335.123 61.2926 335.282 61.2638 335.427 61.1988C335.584 61.1136 335.591 60.6307 335.541 60.3467C335.423 59.847 335.278 59.354 335.107 58.8696C333.988 55.1273 332.813 51.1647 331.681 47.4224H357.107C358.688 50.7742 360.333 54.3603 361.943 57.6979C362.273 58.3645 362.725 58.9641 363.275 59.4661C365.654 61.6533 368.082 63.7837 370.49 65.9354C371.601 66.9367 372.709 67.9474 373.816 68.9677C374.121 69.291 374.406 69.6325 374.67 69.9902Z" fill="#FFCE00"/>
<path d="M447.238 47.4224C446.488 50.2086 445.422 52.9007 444.062 55.4468C442.234 59.0174 439.559 62.089 436.27 64.3944C434.392 65.7309 432.377 66.864 430.259 67.7746C423.436 70.5867 419.191 71.2827 410.431 71.3182C409.932 71.3395 409.419 71.3466 408.907 71.3466C404.915 71.3397 400.942 70.8194 397.084 69.7985C393.03 68.6904 389.272 66.7019 386.08 63.9754C382.882 61.3196 380.617 57.989 378.666 54.4171C377.502 52.2043 376.621 49.8543 376.045 47.4224H402.867C403.25 49.8565 404.052 52.2062 405.239 54.3674C407.24 57.8328 411.72 58.8696 415.416 56.8742C417.759 55.6101 418.742 53.359 419.39 51.0227C419.704 49.9007 420.01 48.5657 420.224 47.4224H447.238Z" fill="#FFCE00"/>
<path d="M80.1895 67.2065C78.1241 65.3176 76.0729 63.4216 74.0003 61.5397C73.1029 60.8765 72.2685 60.1324 71.5076 59.317C70.9195 58.4154 70.457 57.4384 70.133 56.4126C68.9008 53.2596 67.7043 50.0853 66.5149 46.9111C65.9665 45.4482 65.4822 43.9569 64.9623 42.4728C63.9652 39.6465 62.9538 36.813 61.971 33.9796C61.1946 31.7427 60.4682 29.4845 59.6634 27.2547C58.6093 24.329 57.4911 21.4246 56.4157 18.5059C55.9242 17.1709 55.4684 15.8217 54.9912 14.4866C54.2149 12.3207 54.4428 11.4544 55.7676 10.3892C57.2632 9.17486 58.652 7.83982 60.0765 6.54738C60.9881 5.71653 61.8784 4.85732 62.7758 4.01223C63.666 3.17427 64.5563 2.32922 65.5677 1.37055C65.2478 1.19915 64.9048 1.07477 64.5492 1.00128C47.8833 0.98708 31.2174 0.98708 14.2809 0.98708C14.9362 1.72561 15.3777 2.30082 15.8905 2.79081C18.8035 5.5461 21.7236 8.29193 24.6508 11.0283C25.4912 11.8094 25.5553 12.3278 25.1351 13.4072C24.43 15.1825 23.7676 16.9792 23.1195 18.7829C22.2577 21.1689 21.4458 23.5692 20.584 25.9481C19.3234 29.4348 18.0271 32.9144 16.7594 36.4012C15.9475 38.6381 15.164 40.8892 14.3592 43.1403C13.3977 45.8459 12.4149 48.5515 11.4676 51.2713C10.6984 53.4727 9.97196 55.6883 9.21701 57.8968C8.72558 59.3099 7.53618 60.1195 6.4821 61.0639C4.77278 62.6049 3.19166 64.3092 1.38975 65.7437C0.849449 66.1478 0.435865 66.6971 0.19746 67.3272C-0.0409458 67.9573 -0.0942975 68.6421 0.0436565 69.3014C0.107756 69.905 0.385521 70.1962 0.969539 70.1962C1.77434 70.1962 2.58627 70.1465 3.39108 70.1465C11.2326 70.1607 19.0693 70.1749 26.9014 70.1891C31.1462 70.1891 35.3981 70.1323 39.65 70.1465C44.2438 70.1536 48.8376 70.2317 53.4386 70.2388C59.7417 70.253 66.0448 70.2317 72.348 70.2317C75.2466 70.2388 78.1383 70.2814 81.037 70.2743V68.0303C80.7522 67.7604 80.4815 67.4764 80.1895 67.2065ZM30.961 38.7375C31.6662 36.6142 32.3712 34.4909 33.0977 32.3676C33.224 32.1406 33.385 31.9346 33.5749 31.7569C33.7529 31.9558 34.0165 32.1191 34.0877 32.3463C34.629 34.072 35.1275 35.8118 35.6403 37.5445C35.7044 37.7646 35.7756 37.9848 35.854 38.1978C36.3953 39.6394 36.2314 39.8595 34.6574 39.7672C33.7031 39.7672 32.7558 39.7814 31.8086 39.7601C30.897 39.7388 30.7047 39.5044 30.961 38.7375ZM42.2853 59.7644C39.7284 62.1646 37.1431 64.5364 34.5577 66.9012C33.5678 67.8101 33.0265 67.7675 31.9866 66.8018C29.1378 64.153 26.2913 61.5089 23.4472 58.8696C22.7563 58.2305 22.7492 57.8683 23.3261 57.1369C24.0454 56.2208 24.6722 55.2267 25.4556 54.3674C25.8476 54.0688 26.2956 53.8515 26.7732 53.7283H38.596C38.7741 53.7283 38.945 53.7212 39.1159 53.7212C41.0389 53.7283 41.0247 53.7354 41.5517 55.603C41.858 56.6824 42.2782 57.7263 42.5559 58.8057C42.5855 58.9755 42.5766 59.1498 42.5297 59.3157C42.4829 59.4816 42.3994 59.6349 42.2853 59.7644Z" fill="#006F49"/>
<path d="M119.589 54.6373C118.998 55.8303 119.134 56.1214 120.437 56.1072C124.069 56.0575 127.702 56.0291 131.334 55.9084C131.99 55.8695 132.613 55.6033 133.093 55.1557C134.567 53.6644 135.921 52.0666 137.338 50.5114C138.969 48.7219 140.607 46.9371 142.252 45.1571C142.534 44.9156 142.837 44.6994 143.157 44.5108C143.271 44.9248 143.349 45.3477 143.392 45.7749C143.427 48.7645 143.444 51.7517 143.442 54.7367C143.449 59.5798 143.449 64.4205 143.442 69.2588C143.442 70.1252 143.264 70.2956 142.16 70.3027C139.239 70.3027 136.319 70.2814 133.392 70.2743C121.911 70.2601 110.43 70.2483 98.9494 70.2388C95.6304 70.2246 92.3044 70.1039 88.9783 70.1039C86.6992 70.1039 84.4201 70.253 82.1339 70.2672C81.7636 70.2743 81.4003 70.2743 81.0371 70.2743V68.0303C81.1226 68.1084 81.2152 68.1865 81.3006 68.2646C81.8348 68.7262 82.2479 68.5984 82.5684 67.9593C84.3845 64.2595 86.2149 60.5739 88.0382 56.8742C88.8359 55.2551 89.6122 53.6218 90.4028 51.9955C91.8058 49.1195 93.2231 46.2506 94.6262 43.3746C95.837 40.8678 97.0406 38.3587 98.2372 35.8472C99.7114 32.7582 101.15 29.6407 102.653 26.5659C103.728 24.3645 104.889 22.2057 106 20.0185C106.698 18.6408 107.403 17.2561 108.016 15.8358C108.08 15.6725 107.567 15.0547 107.247 14.9837C105.637 14.6215 103.999 14.3659 102.368 14.0818C101.796 13.9175 101.204 13.8268 100.609 13.812C100.12 13.8751 99.6676 14.1031 99.3268 14.4582C95.6589 18.4349 92.0266 22.4471 88.3587 26.4309C88.0645 26.6766 87.7388 26.882 87.3901 27.0416C87.1909 26.6428 87.0517 26.2169 86.977 25.7776C86.9271 23.9029 86.977 22.0352 86.9485 20.1605C86.9129 16.7803 86.8203 13.4072 86.7989 10.027C86.7776 7.83977 86.8417 5.65258 86.863 3.46539C86.863 3.0109 86.7918 2.55642 86.7918 2.10194C86.7847 1.12906 86.9628 0.94443 87.9385 0.937329C91.0936 0.930227 94.2416 0.94443 97.3896 0.94443C108.963 0.94443 120.532 0.942063 132.096 0.937329C135.735 0.930227 139.377 0.925493 143.021 0.923126C143.449 0.923126 143.876 0.994139 144.496 1.05095C144.393 1.52233 144.255 1.98525 144.083 2.4357C142.779 5.2052 141.426 7.94629 140.137 10.7158C138.321 14.6002 136.569 18.513 134.76 22.4045C133.364 25.4012 131.918 28.3696 130.493 31.3521C129.297 33.866 128.072 36.3656 126.904 38.8937C125.658 41.5993 124.489 44.3333 123.243 47.0317C122.061 49.5883 120.829 52.1163 119.589 54.6373Z" fill="white"/>
<path d="M174.245 0.937373V70.2672C170.35 70.2601 166.451 70.2577 162.551 70.2601C157.928 70.2601 153.306 70.2885 148.684 70.2956C148.426 70.2883 148.168 70.2598 147.915 70.2104C147.324 70.1252 147.224 69.8411 147.494 69.3156C149.076 66.1698 150.642 63.0168 152.195 59.8567C153.007 58.2092 153.748 56.5333 154.553 54.8858C155.236 53.4727 155.97 52.0879 156.661 50.6819C157.765 48.4379 158.857 46.1867 159.937 43.9285C161.482 40.669 162.985 37.3883 164.545 34.143C165.428 32.3037 166.411 30.5142 167.308 28.6892C168.54 26.1753 169.723 23.6402 170.934 21.1192C171.674 19.5782 172.458 18.0657 173.17 16.5105C173.676 15.4027 173.426 14.8914 172.151 14.7494C170.271 14.5363 168.412 14.1387 166.546 13.7907C166.314 13.7247 166.067 13.7271 165.836 13.7976C165.604 13.8682 165.399 14.0039 165.243 14.1884C161.838 17.8526 158.406 21.5027 154.987 25.1527C154.367 25.8132 153.769 26.4807 153.007 27.3186C152.76 26.9194 152.58 26.4829 152.473 26.0262C152.48 19.4007 152.523 12.7681 152.558 6.14261C152.558 4.87858 152.537 3.60745 152.587 2.33633C152.637 1.04389 152.8 0.930271 154.075 0.930271C160.799 0.930271 167.522 0.932638 174.245 0.937373Z" fill="white"/>
<path d="M263.991 1.1007C258.848 1.1078 253.706 1.14331 248.564 1.1149C242.204 1.0865 235.844 1.00838 229.484 0.972878C229.13 1.03414 228.789 1.15162 228.472 1.32084C228.553 1.67078 228.693 2.00453 228.885 2.30792C230.082 3.54354 231.307 4.75076 232.546 5.93667C233.914 7.24331 235.317 8.51444 236.691 9.81397C237.61 10.6874 238.508 11.5751 239.448 12.4912C239.341 12.8107 239.227 13.1942 239.092 13.5706C237.909 16.83 236.706 20.0753 235.559 23.3419C234.533 26.2392 233.586 29.165 232.561 32.0623C230.623 37.5942 228.665 43.119 226.685 48.6367C225.766 51.2002 224.783 53.7283 223.836 56.2777C223.494 57.531 222.834 58.6756 221.92 59.6011C220.688 60.6734 219.498 61.8025 218.281 62.889C217.276 63.7837 216.201 64.6146 215.239 65.5519C214.114 66.6526 213.074 67.8456 212.006 68.9961C211.714 69.3156 211.429 69.6494 210.959 70.1749C211.7 70.2246 212.148 70.2885 212.597 70.2885C215.482 70.2743 218.373 70.2388 221.258 70.2388C236.663 70.2388 252.061 70.2435 267.452 70.253V1.0936C266.298 1.1007 265.144 1.1007 263.991 1.1007ZM245.124 38.4392C245.658 36.8273 246.249 35.2295 246.812 33.6246C247.022 32.9594 247.294 32.3152 247.624 31.7001C248.949 34.214 249.29 36.9977 250.437 39.7601C248.635 39.7601 247.083 39.8382 245.544 39.7317C244.704 39.6749 244.96 38.9292 245.124 38.4392ZM255.829 60.2757C253.899 61.9658 252.061 63.7553 250.152 65.4738C249.604 65.9319 249.018 66.3428 248.4 66.7023C247.396 67.3273 246.52 66.9651 245.729 66.2692C244.191 64.9128 242.653 63.5636 241.136 62.1859C240.046 61.1988 238.978 60.1905 237.909 59.175C237.062 58.3725 237.04 57.7689 237.767 56.8529C238.366 56.1517 238.927 55.4192 239.448 54.6586C239.637 54.3356 239.914 54.0727 240.246 53.9005C240.579 53.7283 240.954 53.6538 241.328 53.6857C243.408 53.7141 245.487 53.6999 247.567 53.6999V53.6715C249.625 53.6715 251.676 53.6999 253.728 53.6573C253.924 53.6184 254.127 53.621 254.322 53.6649C254.518 53.7087 254.702 53.7929 254.863 53.9119C255.024 54.0309 255.158 54.1822 255.257 54.3561C255.356 54.5299 255.417 54.7225 255.437 54.9213C255.686 56.0717 256.135 57.1724 256.477 58.3015C256.598 58.6562 256.6 59.0404 256.483 59.3964C256.366 59.7524 256.137 60.061 255.829 60.2757Z" fill="#C51130"/>
<path d="M185.64 53.6928C184.92 55.1912 185.148 55.9581 187.05 55.9084C190.326 55.8232 193.609 55.809 196.893 55.7451C198.103 55.7167 198.752 54.7509 199.478 54.0195C200.765 52.7483 201.98 51.4064 203.117 50.0001C204.606 48.1112 206.493 46.6199 208.053 44.8091C208.242 44.6314 208.442 44.4654 208.651 44.312C208.881 45.0091 209.038 45.7277 209.121 46.4566C209.128 48.9562 209.015 51.4559 208.993 53.9555C208.958 58.756 208.958 63.5565 208.929 68.3498C208.917 68.7228 208.869 69.0937 208.787 69.4576C208.658 70.1962 208.117 70.2885 207.483 70.2814C202.541 70.2814 197.595 70.2814 192.648 70.2814C186.516 70.2743 180.381 70.2696 174.244 70.2672V0.93737C183.076 0.944471 191.905 0.946838 200.732 0.944471C203.274 0.944471 205.817 0.916066 208.366 0.901863C208.569 0.903271 208.771 0.915123 208.972 0.93737C209.883 1.02258 210.062 1.18591 209.798 2.08778C209.515 2.88774 209.18 3.66821 208.794 4.4241C208.274 5.5603 207.761 6.70361 207.22 7.83271C206.066 10.2543 204.869 12.6545 203.737 15.0831C201.451 20.0043 199.207 24.9397 196.921 29.8609C195.675 32.531 194.35 35.1726 193.089 37.8427C190.604 43.1261 188.147 48.4236 185.64 53.6928Z" fill="#C51130"/>
</g>
<defs>
<clipPath id="clip0_627_455">
<rect width="684" height="86" fill="white"/>
</clipPath>
</defs>
</svg>
