<svg width="684" height="86" fill="none" xmlns="http://www.w3.org/2000/svg"><g clip-path="url(#a)"><path d="M603.76 38.33c.23 1.7.34 3.42.32 5.13-.36 4.23-2 7.85-5.84 10.04-1.96 1.12-4.14 1.87-6.2 2.84-.7.32-1.36.72-1.97 1.2-1.32 1.07-1.3 2.53.08 3.59 1.86 1.42 3.78 2.74 5.62 4.18a51.73 51.73 0 0 1 4.2 3.58c2.87 2.78 2.36 7.97.35 10.61-2.19 2.89-5.22 4.42-8.57 5.38a25.37 25.37 0 0 1-17.15-.8 7.46 7.46 0 0 1-4.86-6.33 7.63 7.63 0 0 1 .67-3.67c1.35-3.1 3.98-4.94 6.95-6.3 1.54-.7 3.17-1.21 4.77-1.8.8-.28.85-.44.28-1.12a3.73 3.73 0 0 1-1.08-3.2c.2-1.16 1.15-1.5 1.93-2.03 1.38-.91 2.8-1.76 4.21-2.64l-.07-.33c-.5 0-1.02.02-1.53 0a9.89 9.89 0 0 1-6.56-2.47 7.06 7.06 0 0 1-2.25-4.9 14.7 14.7 0 0 1 1.5-7.78c1.18-2.3 2.77-4.27 5.27-5.27 2.4-.96 4.77-2.05 7.25-2.78 2.3-.67 4.76-.51 6.95.46 2.79 1.2 5.71.94 8.62.94.95 0 1.9-.03 2.86-.06.54-.01.75.25.65.75-.15.73-.3 1.46-.49 2.18-.26 1-.46 1.01-1.47.9-1.52-.19-3.06-.22-4.44-.3ZM585.93 83.4c2.72-.2 3.86-.09 6.6-2.22 2.41-1.87 3.42-5.09 1.02-7.59-2.27-2.37-5.06-4.07-7.86-5.75-.3-.15-.64-.23-.99-.24-1.42-.13-2.51.71-3.7 1.27-3.37 1.57-5.15 4.05-4.93 7.9a5.52 5.52 0 0 0 2.31 4.41 11.9 11.9 0 0 0 7.55 2.22Zm10.8-40.7c-.08-.8-.11-1.6-.24-2.4a4.57 4.57 0 0 0-3.67-4 4.99 4.99 0 0 0-5.22 1.45 11.72 11.72 0 0 0-2.06 3.42 16.6 16.6 0 0 0-1.1 8.8c.33 2.05 1.4 3.67 3.44 4.13 2.75.62 4.68 0 6.33-2.52a16.3 16.3 0 0 0 2.51-8.87ZM541.84 40.3c-1.57-.44-2.52.56-3.57 1.2-.82.5-1.6 1.06-2.49 1.65a4.42 4.42 0 0 0-.49-1.1c-.4-.45-.23-.78.14-1.08 1.4-1.14 2.78-2.33 4.26-3.38a87.68 87.68 0 0 1 5.68-3.75 4.16 4.16 0 0 1 3.55-.58c.54.18.92.42.92.98.09 1.4.04 2.8-.14 4.2-.63 3.08-1.48 6.11-2.22 9.17-.15.6-.23 1.22-.36 2 1.2-1.78 2.25-3.44 3.42-5.01a38.14 38.14 0 0 1 9.5-9.08 12.4 12.4 0 0 1 4.98-2.28 5.75 5.75 0 0 1 1.72-.08c1.85.3 2.1.75 2.25 3.08.03 1.52-.16 3.05-.57 4.52-.81 3.5-1.77 6.96-2.62 10.45-.66 2.7-1.26 5.41-1.88 8.12-.07.4-.1.8-.08 1.2-.02 1.3.52 1.7 1.72 1.13 1.1-.57 2.15-1.21 3.15-1.93 1.12-.77 1.61-.63 1.94.7a.88.88 0 0 1-.23.75c-2.99 2.17-5.88 4.49-9.31 5.94-1.23.51-2.5.98-3.86.61a2.7 2.7 0 0 1-1.72-2.41c-.2-2.76.5-5.37 1.21-7.98.9-3.3 1.94-6.56 2.73-9.88.48-2.06.63-4.2.91-6.3.1-.7-.3-.93-.97-1a3.95 3.95 0 0 0-3.04 1.2 30.66 30.66 0 0 0-7.32 9.3 49.5 49.5 0 0 0-4.15 12.15c-.21 1.01-.39 2.03-.66 3.02a1.03 1.03 0 0 1-.66.62c-1.94.39-3.9.7-5.85 1.06-1.27.23-1.82-.32-1.47-1.53 1.04-3.59 2.16-7.15 3.1-10.77.7-2.71 1.24-5.47 1.75-8.23.34-1.86.5-3.75.73-5.63.02-.35.02-.7 0-1.05ZM484 62.9c3.93 0 7.77.05 11.6-.03a44.2 44.2 0 0 0 5.32-.53 3.16 3.16 0 0 0 2.86-2.56c.34-1.44.84-2.85 1.27-4.27.34-1.13.82-1.32 2.72-1.03 0 .64-.05 1.28-.13 1.91-.63 3.1-1.3 6.2-1.95 9.3a.95.95 0 0 1-.35.66.95.95 0 0 1-.72.2c-1.56-.03-3.12-.03-4.67-.03h-28.28c-.48 0-1.18.24-1.23-.66a1.6 1.6 0 0 1 1.09-1.79c.9-.18 1.77-.47 2.6-.84a1.93 1.93 0 0 0 .82-1.24c.59-2.95 1.09-5.92 1.62-8.89l1.8-10.1c.12-.68.19-1.37.3-2.05.62-3.51 1.27-7.02 1.84-10.54.4-2.44.77-4.88 1.03-7.34.14-1.36-.52-2.02-1.87-2.12-1.12-.09-2.26-.05-3.37-.18-.43-.05-1.09-.33-1.18-.64-.1-.56-.02-1.13.23-1.64.1-.22.73-.27 1.1-.26 2.95.07 5.9.23 8.84.26 2.54.02 5.09 0 7.62-.17 1.38-.09 2.17.79 3.12 1.43.43.3.05.62-.33.7-.74.14-1.48.25-2.22.32-1.53.13-2.3.72-2.6 2.18-.72 3.52-1.46 7.03-2.1 10.57-.55 3.1-.9 6.25-1.46 9.36-.74 4.18-1.64 8.33-2.38 12.51-.42 2.4-.65 4.81-.97 7.22 0 .1 0 .2.02.29ZM633.07 51.93c-1.09 1.62-2.08 3.26-3.23 4.8a40.08 40.08 0 0 1-9.8 9.52 13.75 13.75 0 0 1-3.85 1.67 3.19 3.19 0 0 1-3.88-2.51c-.55-2.28.05-4.46.56-6.62.83-3.5 1.87-6.96 2.67-10.47.55-2.39.85-4.83 1.24-7.26.03-.29 0-.57-.09-.85-.15-.57-.54-.87-1.1-.6-1.13.54-2.22 1.16-3.33 1.75l-.05.06c-.54.25-1.08.83-1.67.21a1.31 1.31 0 0 1-.08-1.67c.12-.16.28-.3.46-.38 2.14-1.42 4.24-2.88 6.46-4.15 1.5-.88 3.17-1.48 4.76-2.2a.34.34 0 0 1 .08-.03c2.51-.43 3.66.42 3.3 3.13-.48 3.49-1.43 6.9-2.23 10.34-.95 4.12-1.96 8.23-2.93 12.35-.06.31-.1.63-.09.94a1.33 1.33 0 0 0 1.86 1.33c1.88-.65 3.14-2.08 4.37-3.53a42.41 42.41 0 0 0 6.43-10.07 38.32 38.32 0 0 0 3.39-12.4 1.08 1.08 0 0 1 1.03-.7c1.88-.26 3.74-.67 5.6-1.04 1.22-.24 1.5-.09 1.25 1.12-.34 1.68-.84 3.34-1.3 5-.7 2.63-1.4 5.27-2.17 7.9a61.79 61.79 0 0 0-2.1 9.73c-.11.9-.43 1.8-.47 2.71-.05 1.4.61 1.85 1.83 1.23a26.9 26.9 0 0 0 3.02-1.97c.92-.64 1.6-.44 1.83.63a.94.94 0 0 1-.27.78c-2.43 1.8-4.83 3.65-7.34 5.33a14.72 14.72 0 0 1-3.77 1.66c-1.66.52-2.9-.48-2.95-2.24-.08-2.7.6-5.28 1.25-7.86.41-1.63.88-3.25 1.3-4.87.03-.26.04-.51 0-.77ZM671.78 51.46c-1.26 1.9-2.43 3.86-3.8 5.68a52.66 52.66 0 0 1-5.06 6.08 19.01 19.01 0 0 1-7.04 4.54 4 4 0 0 1-5.26-3.5c-.44-4.16 0-8.37 1.28-12.34.9-2.8 1.96-5.56 3.09-8.28.4-.86 1-1.62 1.73-2.23 2.86-2.6 6-4.86 9.38-6.75a10.77 10.77 0 0 1 7.9-.84c1.34.3 2.6.93 3.93 1.24.59 0 1.17-.15 1.67-.44.5-.2.93-.62 1.44-.77.4-.1.84-.05 1.2.16.2.12.25.67.17.99-.85 3.48-1.77 6.94-2.6 10.42a265 265 0 0 0-2.16 9.47 47.66 47.66 0 0 0-.79 5.7c-.11 1.46.36 1.76 1.68 1.13 1.29-.61 2.51-1.37 3.74-2.1.46-.27.89-.66 1.36-.15a1.18 1.18 0 0 1 .2 1.45c-.1.15-.22.28-.36.38-1.47 1.07-2.9 2.19-4.44 3.14-1.85 1.15-3.78 2.17-5.7 3.2-.42.2-.87.33-1.32.39-1.43.26-2.4-1.02-2.64-2.25-.37-1.97.1-3.87.54-5.77l1.73-7.58c.1-.3.21-.61.35-.9l-.22-.07Zm-3.38-14.53c-1.03.27-2.04.6-3.02 1-1.9.9-2.73 2.76-3.28 4.58-1.31 4.42-2.46 8.9-3.54 13.38a24.04 24.04 0 0 0-.35 4.37 1.82 1.82 0 0 0 1.03 1.75c.63.08 1.28-.08 1.8-.46a9.83 9.83 0 0 0 1.83-1.56 41.45 41.45 0 0 0 8.97-13.71 21.46 21.46 0 0 0 1.75-7c.02-.28-.14-.76-.33-.83-1.6-.54-3.23-1.01-4.86-1.52ZM520.5 40.4a2.23 2.23 0 0 0-2.47.1c-1.26.68-2.46 1.47-3.67 2.24-.54.34-1.04.67-1.56-.04-.47-.65-.43-1.05.31-1.58 2.91-2.06 5.79-4.17 8.77-6.12a17.06 17.06 0 0 1 3.93-1.73c2.2-.73 3.56.49 3.44 2.8-.14 2.8-1.04 5.45-1.72 8.14l-3.86 15.37c-.06.25-.1.5-.1.77-.1 1.45.68 1.98 1.97 1.26 1.3-.73 2.54-1.57 3.79-2.4.48-.32.9-.52 1.33.05.54.7.56 1.27-.08 1.68-3.23 2.07-6.44 4.16-9.72 6.13a4.5 4.5 0 0 1-3.57.65c-1.18-.32-1.58-1.22-1.84-2.26a9.64 9.64 0 0 1 .29-4.61c1.24-5.13 2.54-10.24 3.77-15.37.41-1.68.67-3.4 1-5.08ZM527.54 26.67c-1.97 0-3.2-1-3.54-3.28-.5-3.33 1.98-6.8 5.83-5.86a3.8 3.8 0 0 1 2.55 4.7c-.24.87-.58 1.72-1.01 2.53a4.02 4.02 0 0 1-3.83 1.91ZM454.8 32.6a34.22 34.22 0 0 0-4.08-11.38 27.13 27.13 0 0 0-7.47-8.39 34.7 34.7 0 0 0-7.06-4c-4.64-1.96-9.6-2.47-14.56-2.75a59 59 0 0 0-14.9 1.17 33.18 33.18 0 0 0-13.36 6.3 24.34 24.34 0 0 0-6.31 6.8 38.77 38.77 0 0 0-5.3 17.59c-.21 3.59-.08 7.18.4 10.75.24 1.6.54 3.18.9 4.72a29.76 29.76 0 0 0 2.63 7c1.95 3.57 4.21 6.9 7.41 9.56a28.52 28.52 0 0 0 11 5.82 46.53 46.53 0 0 0 13.35 1.52c8.76-.04 13-.73 19.83-3.54a32.49 32.49 0 0 0 6.01-3.38 24.64 24.64 0 0 0 7.8-8.95 38 38 0 0 0 3.17-8.03c.32-1.2.56-2.43.73-3.67a55.5 55.5 0 0 0-.18-17.13Zm-27.55 20.81a44.98 44.98 0 0 1-.84 3.6c-.65 2.34-1.63 4.6-3.97 5.86-3.7 2-8.18.95-10.18-2.51a21.3 21.3 0 0 1-2.37-6.95l-.02-.12c-.63-4.3-.9-8.65-.8-13-.02-3.54.23-7.08.76-10.59.13-.7.27-1.4.44-2.1.57-2.34 1.4-4.53 3.15-6.22a7.23 7.23 0 0 1 8.1-1.59c1.94.75 3.16 2.42 4.13 4.25.87 1.78 1.41 3.7 1.6 5.66l.32 2.52c.35 2.69.47 5.4.6 7.01.19 4.75-.12 9.5-.92 14.18ZM87.21 73.2c-2.06-1.89-4.11-3.79-6.19-5.67-.9-.66-1.73-1.4-2.49-2.22-.59-.9-1.05-1.88-1.37-2.9a725.65 725.65 0 0 1-3.62-9.5c-.55-1.47-1.03-2.96-1.55-4.45-1-2.82-2.01-5.65-3-8.49-.77-2.24-1.5-4.5-2.3-6.72-1.06-2.93-2.18-5.83-3.25-8.75-.5-1.34-.95-2.69-1.43-4.02-.77-2.17-.54-3.03.78-4.1 1.5-1.21 2.89-2.55 4.31-3.84.91-.83 1.8-1.7 2.7-2.54l2.8-2.64c-.33-.17-.67-.3-1.03-.37L21.3 6.98c.66.74 1.1 1.31 1.61 1.8l8.76 8.24c.84.78.9 1.3.49 2.38-.7 1.77-1.37 3.57-2.02 5.38-.86 2.38-1.67 4.78-2.53 7.16-1.26 3.49-2.56 6.97-3.83 10.45l-2.4 6.74c-.96 2.7-1.94 5.41-2.89 8.13-.77 2.2-1.5 4.42-2.25 6.63-.5 1.41-1.68 2.22-2.73 3.17-1.71 1.54-3.3 3.24-5.1 4.68a3.54 3.54 0 0 0-1.34 3.55c.06.6.34.9.92.9.8 0 1.62-.05 2.42-.05l23.51.04c4.25 0 8.5-.06 12.75-.04 4.6 0 9.2.08 13.8.1l18.9-.02c2.9.01 5.8.05 8.69.05v-2.25l-.85-.82ZM37.98 44.73c.71-2.12 1.41-4.25 2.14-6.37.13-.23.29-.43.48-.61.18.2.44.36.51.59.54 1.72 1.04 3.46 1.55 5.2l.22.65c.54 1.44.37 1.66-1.2 1.57h-2.85c-.91-.03-1.1-.26-.85-1.03Zm11.33 21.03c-2.56 2.4-5.14 4.77-7.73 7.13-.99.91-1.53.87-2.57-.1l-8.54-7.93c-.69-.64-.7-1-.12-1.73.72-.92 1.35-1.91 2.13-2.77.4-.3.84-.52 1.32-.64h12.34c1.92 0 1.9 0 2.44 1.88.3 1.07.72 2.12 1 3.2a1.15 1.15 0 0 1-.27.96Z" fill="#262C20"/><path d="M126.61 60.63c-.59 1.2-.45 1.48.85 1.47 3.63-.05 7.27-.08 10.9-.2.65-.04 1.28-.3 1.76-.75 1.47-1.5 2.82-3.1 4.24-4.65 1.63-1.79 3.27-3.57 4.92-5.35.28-.24.58-.46.9-.65.11.42.2.84.23 1.27.04 2.99.06 5.97.06 8.96v14.52c0 .87-.18 1.04-1.29 1.04l-8.76-.02-34.45-.04c-3.32-.01-6.64-.13-9.97-.13-2.28 0-4.56.15-6.84.16h-1.1v-2.24l.26.24c.54.46.95.33 1.27-.3l5.47-11.1c.8-1.61 1.58-3.25 2.37-4.87l4.22-8.62 3.61-7.53c1.47-3.09 2.91-6.2 4.42-9.28 1.07-2.2 2.23-4.36 3.34-6.55.7-1.38 1.4-2.76 2.02-4.18.06-.17-.45-.78-.77-.85-1.6-.37-3.25-.62-4.88-.9a7 7 0 0 0-1.76-.28c-.49.07-.94.3-1.28.65-3.67 3.98-7.3 7.99-10.97 11.97-.3.25-.62.45-.97.61-.2-.4-.33-.82-.41-1.26-.05-1.88 0-3.74-.03-5.62-.03-3.38-.13-6.75-.15-10.13-.02-2.19.05-4.38.07-6.56 0-.46-.07-.91-.07-1.37-.01-.97.17-1.15 1.14-1.16h9.45a84847.48 84847.48 0 0 0 45.63-.01c.43 0 .86.07 1.48.12-.1.47-.24.94-.41 1.39-1.3 2.77-2.66 5.5-3.95 8.28-1.82 3.88-3.57 7.8-5.38 11.69-1.4 3-2.84 5.96-4.26 8.94-1.2 2.52-2.43 5.02-3.6 7.55-1.24 2.7-2.4 5.44-3.65 8.13a360.4 360.4 0 0 1-3.66 7.6ZM380.84 74.96c-1.1-1.02-2.21-2.03-3.33-3.03-2.4-2.15-4.83-4.28-7.21-6.47a6 6 0 0 1-1.33-1.77c-1.61-3.34-3.26-6.92-4.84-10.28l-.28-.58a345.4 345.4 0 0 0-3.39-6.98 1.12 1.12 0 0 1 .37-1.6 27.34 27.34 0 0 0 3.99-3.67 19.82 19.82 0 0 0 4-10.88c.03-.39.06-.78.06-1.18.15-3.79-.62-7.57-2.24-11a16.85 16.85 0 0 0-5.96-6.8A22.84 22.84 0 0 0 347.8 7.1c-4.39-.03-8.78.02-13.19 0-7.6-.03-15.2-.11-22.8-.15-3.15-.02-6.3 0-9.44.01h-1.15l-.09.25c.28.3.53.65.84.92 2.63 2.41 5.28 4.8 7.92 7.2 1.31 1.2 2.53 2.52 3.94 3.6a2.68 2.68 0 0 1 1.08 2.6c-.15 2.21-.25 4.42-.37 6.63l-.07 1.55c-.09 1.88-.17 3.97-.27 5.84-.16 3.21-.36 6.41-.51 9.62-.14 2.75-.26 5.5-.37 8.25l-.16 3.7c-.09 2.3-.13 4.6-.26 6.9 0 .56-.19 1.12-.54 1.58-1.24 1.23-2.58 2.36-3.9 3.51-.4.34-.91.56-1.3.91-.44.4-.77.94-1.23 1.32-.99.82-2.05 1.55-3.02 2.38-.42.36-.7.38-1.1.04-.73-.65-1.5-1.25-2.23-1.9-1.95-1.8-3.9-3.59-5.82-5.41-.9-.86-2.05-1.65-2.5-2.72-1.42-3.3-2.64-6.93-3.87-10.3-.79-2.17-1.54-4.35-2.32-6.52-.6-1.69-1.25-3.36-1.81-5.05-.72-2.13-1.33-4.3-2.06-6.42-.5-1.4-1.18-2.74-1.7-4.14l-.57-1.59c-1.3-3.51-2.56-7.04-3.83-10.56a1.7 1.7 0 0 1 .32-1.91c.85-.83 1.69-1.66 2.59-2.43 2.5-2.11 5.13-4.09 7.53-6.3.36-.33 1.6-1.57 1.6-1.57h-2.7c-1.79.04-3.58.11-5.37.13-1.5.02-3.1.03-4.6.03h-3.46c-5.15.01-10.29.05-15.43.02-6.36-.03-12.72-.11-19.08-.15-.35.07-.7.18-1.01.35.08.35.22.69.41.99 1.2 1.24 2.42 2.44 3.66 3.63 1.37 1.3 2.77 2.58 4.15 3.88.92.87 1.81 1.76 2.75 2.67l-.35 1.08c-1.19 3.26-2.39 6.5-3.54 9.77-1.02 2.9-1.97 5.83-3 8.72-1.93 5.54-3.89 11.06-5.87 16.58-.92 2.56-1.9 5.09-2.85 7.64-.34 1.25-1 2.4-1.92 3.32-1.23 1.08-2.42 2.2-3.63 3.3-1 .89-2.08 1.72-3.05 2.65-1.12 1.1-2.16 2.3-3.23 3.45-.3.32-.58.65-1.05 1.18.75.05 1.2.11 1.64.11 2.89-.01 5.78-.05 8.66-.05 15.4 0 30.8 0 46.2.02h6.29c14.05-.02 28.1-.1 42.15-.1 18.95 0 37.88.06 56.83.07.65-.04 1.3-.12 1.94-.24-.26-.36-.55-.7-.85-1.02Zm-128.7-30.53c.54-1.61 1.14-3.2 1.7-4.81.2-.67.48-1.31.8-1.93 1.33 2.52 1.68 5.3 2.82 8.06-1.8 0-3.35.08-4.89-.03-.84-.05-.58-.8-.42-1.29Zm10.71 21.84c-1.93 1.69-3.76 3.48-5.67 5.2-.55.45-1.14.86-1.75 1.22-1 .63-1.89.27-2.68-.43-1.53-1.36-3.07-2.7-4.59-4.08-1.09-.99-2.16-2-3.22-3.01-.85-.8-.87-1.4-.15-2.33.6-.7 1.16-1.43 1.68-2.19a1.98 1.98 0 0 1 1.88-.97c2.08.03 4.16.01 6.24.01v-.03c2.06 0 4.11.03 6.16-.01a1.44 1.44 0 0 1 1.71 1.26c.25 1.15.7 2.25 1.04 3.38a1.72 1.72 0 0 1-.65 1.98Zm76.13-38.48c.06-2-.01-4.02.02-6.03.02-.44.13-1.09.42-1.27.6-.35 1.07.18 1.45.63 1.11 1.31 1.4 2.93 1.58 4.56.16 1.33.22 2.68.2 4.02a22.1 22.1 0 0 1-.33 3.2 6.05 6.05 0 0 1-1.78 3.45c-.32.26-.71.43-1.12.5-.47.08-.76-.17-.74-.7.03-.63.01-1.27.01-1.9h-.02l.24-4.55c.03-.63.06-1.27.07-1.9Zm3.47 39.4a.98.98 0 0 1-.91-.06 9.65 9.65 0 0 1-2.27-2.3c-.46-.83-.42-1.94-.55-2.93-.35-2.75-.7-5.72-1.03-8.49l-.01-.12v-.34c.06-.3.17-.6.33-.86.16.18.4.34.46.54l.23.78c1.14 3.75 2.31 7.7 3.43 11.45.17.49.32.98.44 1.48.05.28.04.77-.12.85ZM192.66 59.68c-.72 1.5-.49 2.27 1.41 2.22 3.28-.08 6.56-.1 9.85-.16 1.2-.03 1.86-1 2.58-1.73a48.56 48.56 0 0 0 3.64-4.02c1.5-1.89 3.38-3.38 4.94-5.19.19-.18.39-.34.6-.5.22.7.38 1.42.47 2.15 0 2.5-.11 5-.13 7.5-.04 4.8-.04 9.6-.07 14.4a5.9 5.9 0 0 1-.14 1.1c-.13.74-.67.83-1.3.82h-14.84a23999.5 23999.5 0 0 0-30.1-.02c-4.62 0-9.24.03-13.86.04-.26-.01-.52-.04-.77-.09-.6-.08-.7-.37-.42-.9 1.58-3.14 3.15-6.3 4.7-9.45.81-1.65 1.55-3.32 2.36-4.97.68-1.42 1.41-2.8 2.1-4.2 1.1-2.25 2.2-4.5 3.28-6.76 1.55-3.26 3.05-6.54 4.6-9.79.9-1.83 1.87-3.62 2.77-5.45 1.23-2.51 2.42-5.05 3.63-7.57.74-1.54 1.52-3.05 2.23-4.6.5-1.12.26-1.63-1.01-1.77-1.89-.21-3.74-.6-5.61-.96a1.26 1.26 0 0 0-1.3.4c-3.4 3.66-6.84 7.31-10.26 10.96l-1.98 2.17c-.25-.4-.43-.84-.53-1.3 0-6.62.05-13.25.08-19.88 0-1.26-.02-2.53.03-3.8.05-1.3.21-1.4 1.49-1.4h46.66c2.54 0 5.08-.02 7.63-.04.2 0 .4.02.6.04.92.08 1.1.25.83 1.15-.28.8-.62 1.58-1 2.34-.52 1.13-1.03 2.28-1.58 3.4-1.15 2.43-2.35 4.83-3.48 7.26-2.28 4.92-4.53 9.85-6.81 14.77-1.25 2.67-2.57 5.31-3.84 7.98-2.48 5.29-4.94 10.59-7.45 15.85Z" fill="#262C20"/><path d="M361.86 22.53c0 .4-.03.8-.06 1.18h-26.18c.03-1.34-.04-2.69-.2-4.03-.17-1.62-.46-3.24-1.57-4.55-.38-.45-.86-.98-1.45-.63-.3.18-.4.83-.42 1.27-.04 2.01.04 4.02-.02 6.03-.01.64-.04 1.28-.07 1.91h-24.43l.07-1.55c.11-2.21.22-4.42.36-6.63a2.65 2.65 0 0 0-1.07-2.6c-1.41-1.08-2.63-2.4-3.95-3.6l-7.92-7.2c-.3-.28-.55-.62-.83-.92l.08-.25h1.15c3.15 0 6.3-.04 9.44-.02 7.61.05 15.21.13 22.81.16 4.4.02 8.8-.03 13.2 0 4.55-.1 9.03 1.17 12.85 3.64a16.86 16.86 0 0 1 5.97 6.79 23.64 23.64 0 0 1 2.24 11ZM268.4 11.23a1.7 1.7 0 0 0-.31 1.92c1.27 3.52 2.53 7.05 3.82 10.56h-4.46V1.1c1.51 0 3.1 0 4.61-.02 1.79-.02 3.58-.09 5.36-.13h2.7s-1.24 1.24-1.6 1.57c-2.4 2.22-5.03 4.19-7.53 6.3-.9.77-1.74 1.6-2.58 2.42ZM447.16 23.71h-26.93a16.43 16.43 0 0 0-1.6-5.66c-.97-1.83-2.2-3.5-4.13-4.25a7.24 7.24 0 0 0-8.1 1.59c-1.75 1.69-2.59 3.88-3.15 6.21-.17.7-.31 1.4-.44 2.11h-26.73a39.22 39.22 0 0 1 3.95-9.35 24.35 24.35 0 0 1 6.32-6.81 33.18 33.18 0 0 1 13.35-6.3A59.02 59.02 0 0 1 414.6.1c4.97.28 9.92.78 14.57 2.74a34.7 34.7 0 0 1 7.06 4c3.05 2.26 5.6 5.11 7.47 8.4a34.15 34.15 0 0 1 3.46 8.48Z" fill="#000"/><path d="M353.44 39.86c1.16 2.3 2.29 4.63 3.39 6.97l.28.6h-25.43l-.23-.79c-.07-.2-.3-.36-.46-.54-.16.26-.27.55-.34.85v.34l.02.13H306.3c.12-2.75.24-5.5.38-8.26.14-3.2.34-6.4.5-9.61l.28-5.84h24.43l-.25 4.55h.03c0 .63.02 1.27-.01 1.9-.02.53.27.78.73.7.42-.07.8-.24 1.13-.5a6.05 6.05 0 0 0 1.78-3.45c.18-1.06.29-2.13.32-3.2h26.18a19.82 19.82 0 0 1-4 10.87 27.3 27.3 0 0 1-4 3.68 1.13 1.13 0 0 0-.53.72 1.12 1.12 0 0 0 .17.88ZM447.97 43.74a31.33 31.33 0 0 1-.73 3.68h-27.01c.8-4.68 1.1-9.43.91-14.18-.13-1.62-.24-4.32-.59-7l-.32-2.53h26.93c.23.88.47 2 .63 2.9a55.5 55.5 0 0 1 .18 17.13ZM402.87 47.42h-26.82a56.84 56.84 0 0 1-.9-4.73 56.5 56.5 0 0 1-.42-10.74c.14-2.79.6-5.55 1.35-8.24h26.73c-.53 3.5-.79 7.05-.77 10.59-.09 4.35.18 8.7.8 13l.03.12ZM280.37 47.42h-12.92v-23.7h4.46c.17.45.4 1.12.58 1.58.52 1.4 1.2 2.74 1.7 4.14.73 2.12 1.34 4.28 2.05 6.41.56 1.7 1.21 3.37 1.82 5.05.77 2.18 1.53 4.36 2.31 6.52Z" fill="#D00"/><path d="M374.67 69.99c-.64.12-1.3.2-1.94.24-18.95-.01-37.89-.07-56.83-.07-14.05 0-28.1.08-42.16.1h-6.29V47.41h12.92c1.24 3.38 2.46 7.01 3.87 10.3.46 1.08 1.61 1.87 2.5 2.73a416.2 416.2 0 0 0 5.83 5.4c.72.65 1.5 1.26 2.23 1.9.4.35.68.32 1.1-.03.97-.83 2.03-1.56 3.01-2.38.46-.38.8-.92 1.24-1.32.39-.36.9-.57 1.29-.91 1.32-1.15 2.67-2.28 3.91-3.52.35-.45.54-1 .53-1.58.14-2.3.18-4.6.27-6.9l.16-3.69h24.36l1.02 8.49c.13 1 .1 2.1.55 2.93a9.67 9.67 0 0 0 2.27 2.3.98.98 0 0 0 .92.06c.15-.09.16-.57.11-.85-.12-.5-.26-1-.43-1.48l-3.43-11.45h25.43c1.58 3.35 3.22 6.94 4.83 10.28a6 6 0 0 0 1.33 1.77c2.38 2.18 4.81 4.31 7.22 6.47 1.11 1 2.22 2 3.33 3.03.3.32.59.66.85 1.02ZM447.24 47.42a38 38 0 0 1-3.18 8.03 24.64 24.64 0 0 1-7.79 8.94 32.52 32.52 0 0 1-6.01 3.38c-6.82 2.82-11.07 3.51-19.83 3.55a46.53 46.53 0 0 1-13.35-1.52 28.52 28.52 0 0 1-11-5.82c-3.2-2.66-5.46-6-7.41-9.56a29.76 29.76 0 0 1-2.63-7h26.83a21.3 21.3 0 0 0 2.37 6.95c2 3.46 6.48 4.5 10.18 2.5 2.34-1.26 3.32-3.51 3.97-5.85.31-1.12.62-2.45.83-3.6h27.02Z" fill="#FFCE00"/><path d="M80.19 67.2 74 61.55c-.9-.66-1.73-1.4-2.5-2.22-.58-.9-1.04-1.88-1.37-2.9a724.76 724.76 0 0 1-3.62-9.5c-.54-1.47-1.03-2.96-1.55-4.45l-2.99-8.49c-.78-2.24-1.5-4.5-2.3-6.73-1.06-2.92-2.18-5.83-3.25-8.74-.5-1.34-.95-2.69-1.43-4.02-.78-2.17-.55-3.04.78-4.1 1.5-1.22 2.88-2.55 4.3-3.84.92-.83 1.8-1.7 2.7-2.54l2.8-2.64c-.32-.17-.67-.3-1.02-.37L14.28 1c.66.74 1.1 1.31 1.61 1.8 2.91 2.76 5.83 5.5 8.76 8.24.84.78.9 1.3.49 2.38-.71 1.77-1.37 3.57-2.02 5.37-.86 2.39-1.67 4.79-2.54 7.17-1.26 3.48-2.55 6.96-3.82 10.45-.81 2.24-1.6 4.49-2.4 6.74-.96 2.7-1.95 5.41-2.9 8.13-.76 2.2-1.49 4.42-2.24 6.63-.5 1.41-1.68 2.22-2.74 3.16-1.7 1.54-3.29 3.25-5.09 4.68A3.54 3.54 0 0 0 .04 69.3c.07.6.35.9.93.9.8 0 1.62-.05 2.42-.05l23.51.04c4.25 0 8.5-.06 12.75-.04 4.6 0 9.19.08 13.79.09 6.3.01 12.6 0 18.9 0 2.9 0 5.8.04 8.7.03v-2.24l-.85-.82ZM30.96 38.75c.7-2.13 1.41-4.25 2.14-6.37.12-.23.28-.44.47-.61.18.2.45.36.52.59.54 1.72 1.04 3.46 1.55 5.2l.21.65c.55 1.44.38 1.66-1.2 1.57-.95 0-1.9.01-2.84-.01-.91-.02-1.1-.26-.85-1.02ZM42.3 59.76c-2.56 2.4-5.15 4.78-7.73 7.14-1 .91-1.53.87-2.57-.1l-8.54-7.93c-.7-.64-.7-1-.12-1.73.72-.92 1.34-1.91 2.13-2.77.39-.3.84-.52 1.31-.64h12.35c1.92 0 1.9 0 2.43 1.87.3 1.08.73 2.13 1 3.2a1.15 1.15 0 0 1-.26.96Z" fill="#006F49"/><path d="M119.59 54.64c-.6 1.19-.46 1.48.85 1.47 3.63-.05 7.26-.08 10.9-.2.65-.04 1.27-.3 1.75-.75 1.48-1.5 2.83-3.1 4.25-4.65l4.91-5.35c.28-.24.59-.46.9-.65.12.41.2.84.24 1.26.04 3 .05 5.98.05 8.97v14.52c0 .87-.18 1.04-1.28 1.04l-8.77-.03-34.44-.03c-3.32-.02-6.65-.14-9.97-.14-2.28 0-4.56.15-6.85.17h-1.1v-2.24l.27.23c.53.47.95.34 1.27-.3 1.81-3.7 3.64-7.39 5.47-11.09.8-1.61 1.57-3.25 2.36-4.87 1.4-2.88 2.82-5.75 4.23-8.63 1.2-2.5 2.41-5.01 3.6-7.52 1.48-3.1 2.92-6.2 4.42-9.28 1.08-2.2 2.24-4.36 3.35-6.55.7-1.38 1.4-2.76 2.02-4.18.06-.17-.45-.79-.77-.86-1.61-.36-3.25-.61-4.88-.9a7 7 0 0 0-1.76-.27c-.49.07-.94.3-1.28.65-3.67 3.97-7.3 7.99-10.97 11.97-.3.25-.62.45-.97.61-.2-.4-.34-.82-.41-1.26-.05-1.88 0-3.74-.03-5.62-.04-3.38-.13-6.75-.15-10.13-.02-2.19.04-4.38.06-6.56 0-.46-.07-.91-.07-1.37 0-.97.17-1.16 1.15-1.16 3.15-.01 6.3 0 9.45 0a84779.97 84779.97 0 0 0 45.63-.02c.43 0 .86.07 1.48.13-.1.47-.25.94-.42 1.39-1.3 2.77-2.65 5.5-3.94 8.28-1.82 3.88-3.57 7.8-5.38 11.68-1.4 3-2.84 5.97-4.27 8.95-1.2 2.52-2.42 5.02-3.59 7.54-1.24 2.7-2.41 5.44-3.66 8.14a350.58 350.58 0 0 1-3.65 7.6ZM174.25.94v69.33l-11.7-.01c-4.62 0-9.24.03-13.87.04-.25-.01-.51-.04-.77-.09-.59-.08-.69-.37-.42-.9 1.59-3.14 3.15-6.3 4.7-9.45.82-1.65 1.56-3.33 2.36-4.97.69-1.42 1.42-2.8 2.11-4.2 1.1-2.25 2.2-4.5 3.28-6.76 1.54-3.26 3.05-6.54 4.6-9.79.89-1.84 1.87-3.63 2.77-5.45 1.23-2.51 2.41-5.05 3.62-7.57.74-1.54 1.53-3.05 2.24-4.61.5-1.1.26-1.62-1.02-1.76-1.88-.21-3.74-.61-5.6-.96a1.26 1.26 0 0 0-1.3.4c-3.41 3.66-6.84 7.31-10.26 10.96-.62.66-1.22 1.33-1.98 2.17-.25-.4-.43-.84-.54-1.3.01-6.62.05-13.25.09-19.88 0-1.26-.02-2.53.03-3.8.05-1.3.21-1.41 1.48-1.41h20.18Z" fill="#fff"/><path d="M264 1.1c-5.15 0-10.3.04-15.44.01-6.36-.02-12.72-.1-19.08-.14-.35.06-.7.18-1 .35.07.35.21.68.4.99 1.2 1.23 2.43 2.44 3.67 3.63 1.36 1.3 2.77 2.57 4.14 3.87l2.76 2.68c-.1.32-.22.7-.36 1.08-1.18 3.26-2.38 6.5-3.53 9.77-1.03 2.9-1.97 5.82-3 8.72-1.94 5.53-3.9 11.06-5.88 16.58-.91 2.56-1.9 5.09-2.84 7.64-.35 1.25-1 2.4-1.92 3.32-1.23 1.07-2.42 2.2-3.64 3.29-1 .9-2.08 1.72-3.04 2.66-1.13 1.1-2.17 2.3-3.23 3.45l-1.05 1.17c.74.05 1.19.12 1.64.12 2.88-.02 5.77-.05 8.66-.05l46.2.01V1.1l-3.47.01Zm-18.88 37.34c.54-1.61 1.13-3.21 1.7-4.82.2-.66.47-1.3.8-1.92 1.33 2.51 1.67 5.3 2.82 8.06-1.8 0-3.36.08-4.9-.03-.84-.06-.58-.8-.42-1.3Zm10.7 21.84c-1.92 1.69-3.76 3.48-5.67 5.2-.55.45-1.13.86-1.75 1.22-1 .63-1.88.27-2.67-.43-1.54-1.36-3.08-2.7-4.6-4.08-1.08-1-2.15-2-3.22-3.02-.85-.8-.87-1.4-.14-2.32a26 26 0 0 0 1.68-2.2 1.98 1.98 0 0 1 1.88-.96c2.08.02 4.16.01 6.24.01v-.03c2.06 0 4.1.03 6.16-.01a1.44 1.44 0 0 1 1.7 1.26c.26 1.15.7 2.25 1.05 3.38a1.72 1.72 0 0 1-.65 1.98ZM185.64 53.7c-.72 1.5-.5 2.26 1.41 2.2 3.28-.08 6.56-.1 9.84-.15 1.21-.03 1.86-1 2.59-1.73a48.58 48.58 0 0 0 3.64-4.02c1.49-1.89 3.37-3.38 4.93-5.2l.6-.49c.23.7.39 1.42.47 2.15 0 2.5-.1 5-.13 7.5-.03 4.8-.03 9.6-.06 14.39a5.9 5.9 0 0 1-.14 1.1c-.13.75-.67.84-1.3.83h-14.84l-18.4-.01V.94h26.48c2.54 0 5.09-.02 7.64-.04.2 0 .4.02.6.04.91.08 1.1.25.83 1.15-.29.8-.62 1.58-1 2.33-.53 1.14-1.04 2.28-1.58 3.41-1.15 2.42-2.35 4.82-3.48 7.25-2.29 4.92-4.53 9.86-6.82 14.78-1.24 2.67-2.57 5.31-3.83 7.98-2.49 5.29-4.94 10.58-7.45 15.85Z" fill="#C51130"/></g><defs><clipPath id="a"><path fill="#fff" d="M0 0h684v86H0z"/></clipPath></defs></svg>