<svg aria-hidden="true" style="position: absolute; width: 0; height: 0; overflow: hidden;" version="1.1" xmlns="http://www.w3.org/2000/svg" xmlns:xlink="http://www.w3.org/1999/xlink">
<defs>
<symbol id="icon-btnSlider_right" viewBox="0 0 32 32">
<path  d="M30.866 17.075c-0.625 8.179-7.763 14.303-15.942 13.678s-14.303-7.763-13.678-15.942c0.625-8.179 7.763-14.303 15.942-13.678s14.303 7.763 13.678 15.942z"></path>
<path fill="none" stroke="#262c20" style="stroke: var(--color2, #262c20)" stroke-linejoin="miter" stroke-linecap="butt" stroke-miterlimit="4" stroke-width="1.9804" d="M29.878 16.999c-0.584 7.634-7.245 13.349-14.88 12.766s-13.349-7.245-12.766-14.88c0.584-7.634 7.245-13.349 14.88-12.766s13.349 7.245 12.766 14.88z"></path>
<path fill="#262c20" style="fill: var(--color2, #262c20)" d="M17.986 11.743c-0.105 0.052-0.171 0.159-0.171 0.276v2.422l-9.357 1.462c-0.15 0.023-0.261 0.153-0.261 0.305v0.002c0.001 0.153 0.114 0.282 0.266 0.303l9.353 1.315v2.568c0 0.17 0.138 0.308 0.308 0.308 0.067 0 0.132-0.022 0.185-0.062l5.557-4.189c0.136-0.102 0.164-0.296 0.062-0.432-0.018-0.023-0.038-0.044-0.062-0.062l-5.557-4.189c-0.093-0.070-0.218-0.081-0.323-0.029z"></path>
</symbol>
<symbol id="icon-btnSlider_left" viewBox="0 0 32 32">
<path  d="M30.565 17.075c-0.625 8.179-7.763 14.303-15.942 13.678s-14.303-7.763-13.678-15.942c0.625-8.179 7.763-14.303 15.942-13.678s14.303 7.763 13.678 15.942z"></path>
<path fill="none" stroke="#262c20" style="stroke: var(--color2, #262c20)" stroke-linejoin="miter" stroke-linecap="butt" stroke-miterlimit="4" stroke-width="1.9804" d="M29.578 16.999c-0.584 7.634-7.245 13.349-14.88 12.766s-13.349-7.245-12.766-14.88c0.584-7.634 7.245-13.349 14.88-12.766s13.349 7.245 12.766 14.88z"></path>
<path fill="#262c20" style="fill: var(--color2, #262c20)" d="M13.899 11.743c0.105 0.052 0.171 0.159 0.171 0.276v2.422l9.357 1.462c0.15 0.023 0.261 0.153 0.261 0.305v0.002c-0.001 0.153-0.114 0.282-0.266 0.303l-9.353 1.315v2.568c0 0.17-0.138 0.308-0.308 0.308-0.067 0-0.132-0.022-0.185-0.062l-5.557-4.189c-0.136-0.102-0.164-0.296-0.062-0.432 0.018-0.023 0.038-0.044 0.062-0.062l5.557-4.189c0.093-0.070 0.218-0.081 0.323-0.029z"></path>
</symbol>
</defs>
</svg>
