<svg aria-hidden="true" style="position: absolute; width: 0; height: 0; overflow: hidden;" version="1.1" xmlns="http://www.w3.org/2000/svg" xmlns:xlink="http://www.w3.org/1999/xlink">
<defs>
<symbol id="icon-btnSlider_right" viewBox="0 0 32 32">
<path  d="M30.866 17.075c-0.625 8.179-7.763 14.303-15.942 13.678s-14.303-7.763-13.678-15.942c0.625-8.179 7.763-14.303 15.942-13.678s14.303 7.763 13.678 15.942z"></path>
<path fill="none" stroke="#262c20" style="stroke: var(--color2, #262c20)" stroke-linejoin="miter" stroke-linecap="butt" stroke-miterlimit="4" stroke-width="1.9804" d="M29.878 16.999c-0.584 7.634-7.245 13.349-14.88 12.766s-13.349-7.245-12.766-14.88c0.584-7.634 7.245-13.349 14.88-12.766s13.349 7.245 12.766 14.88z"></path>
<path fill="#262c20" style="fill: var(--color2, #262c20)" d="M17.986 11.743c-0.105 0.052-0.171 0.159-0.171 0.276v2.422l-9.357 1.462c-0.15 0.023-0.261 0.153-0.261 0.305v0.002c0.001 0.153 0.114 0.282 0.266 0.303l9.353 1.315v2.568c0 0.17 0.138 0.308 0.308 0.308 0.067 0 0.132-0.022 0.185-0.062l5.557-4.189c0.136-0.102 0.164-0.296 0.062-0.432-0.018-0.023-0.038-0.044-0.062-0.062l-5.557-4.189c-0.093-0.070-0.218-0.081-0.323-0.029z"></path>
</symbol>
<symbol id="icon-btnSlider_left" viewBox="0 0 32 32">
<path  d="M30.565 17.075c-0.625 8.179-7.763 14.303-15.942 13.678s-14.303-7.763-13.678-15.942c0.625-8.179 7.763-14.303 15.942-13.678s14.303 7.763 13.678 15.942z"></path>
<path fill="none" stroke="#262c20" style="stroke: var(--color2, #262c20)" stroke-linejoin="miter" stroke-linecap="butt" stroke-miterlimit="4" stroke-width="1.9804" d="M29.578 16.999c-0.584 7.634-7.245 13.349-14.88 12.766s-13.349-7.245-12.766-14.88c0.584-7.634 7.245-13.349 14.88-12.766s13.349 7.245 12.766 14.88z"></path>
<path fill="#262c20" style="fill: var(--color2, #262c20)" d="M13.899 11.743c0.105 0.052 0.171 0.159 0.171 0.276v2.422l9.357 1.462c0.15 0.023 0.261 0.153 0.261 0.305v0.002c-0.001 0.153-0.114 0.282-0.266 0.303l-9.353 1.315v2.568c0 0.17-0.138 0.308-0.308 0.308-0.067 0-0.132-0.022-0.185-0.062l-5.557-4.189c-0.136-0.102-0.164-0.296-0.062-0.432 0.018-0.023 0.038-0.044 0.062-0.062l5.557-4.189c0.093-0.070 0.218-0.081 0.323-0.029z"></path>
</symbol>
<symbol id="icon-down" viewBox="0 0 33 32">
<path d="M16.263 21.333c-0.176 0.001-0.349-0.033-0.512-0.099s-0.31-0.164-0.435-0.288l-8-8c-0.251-0.251-0.392-0.592-0.392-0.947s0.141-0.696 0.392-0.947c0.251-0.251 0.592-0.392 0.947-0.392s0.696 0.141 0.947 0.392l7.053 7.067 7.053-7.053c0.255-0.218 0.583-0.333 0.919-0.32s0.654 0.152 0.891 0.39c0.237 0.237 0.377 0.556 0.39 0.891s-0.101 0.664-0.32 0.919l-8 8c-0.248 0.246-0.584 0.385-0.933 0.387z"></path>
</symbol>
<symbol id="icon-Btn_up" viewBox="0 0 43 32">
<path fill="#9ed821" style="fill: var(--color1, #9ed821)" d="M36.614 15.919c0 8.792-7.127 15.919-15.919 15.919s-15.919-7.127-15.919-15.919c0-8.792 7.127-15.919 15.919-15.919s15.919 7.127 15.919 15.919z"></path>
<path fill="#9ed821" style="fill: var(--color1, #9ed821)" d="M1.817 9.877h1.536v5.451h6.275v-5.451h1.536v12.869h-1.536v-5.957h-6.275v5.957h-1.536v-12.869zM18.345 22.914c-0.887 0-1.686-0.212-2.398-0.637-0.699-0.425-1.249-1.005-1.648-1.742-0.4-0.749-0.599-1.592-0.599-2.529s0.2-1.779 0.599-2.529c0.412-0.762 0.968-1.355 1.667-1.78 0.712-0.437 1.511-0.656 2.398-0.656s1.68 0.212 2.379 0.637c0.712 0.425 1.267 1.018 1.667 1.78 0.4 0.749 0.599 1.592 0.599 2.529s-0.2 1.779-0.599 2.529c-0.4 0.749-0.955 1.336-1.667 1.761s-1.511 0.637-2.398 0.637zM18.364 21.528c0.937 0 1.686-0.325 2.248-0.974 0.574-0.649 0.862-1.505 0.862-2.566 0-1.074-0.287-1.936-0.862-2.585-0.562-0.649-1.311-0.974-2.248-0.974-0.612 0-1.155 0.15-1.63 0.45s-0.843 0.718-1.105 1.255c-0.262 0.537-0.393 1.155-0.393 1.854 0 1.061 0.287 1.917 0.862 2.566s1.33 0.974 2.267 0.974zM28.914 22.858c-0.887 0-1.667-0.2-2.341-0.599s-1.199-0.955-1.573-1.667c-0.362-0.724-0.543-1.561-0.543-2.51 0-0.974 0.194-1.836 0.581-2.585 0.387-0.762 0.93-1.349 1.63-1.761 0.699-0.425 1.499-0.637 2.398-0.637 0.587 0 1.155 0.119 1.705 0.356 0.549 0.225 0.93 0.506 1.143 0.843l-0.918 1.030c-0.287-0.312-0.581-0.531-0.88-0.656-0.287-0.125-0.637-0.187-1.049-0.187-0.962 0-1.723 0.331-2.285 0.993-0.549 0.649-0.824 1.536-0.824 2.66 0 1.037 0.268 1.854 0.805 2.454 0.549 0.587 1.299 0.88 2.248 0.88 0.475 0 0.93-0.075 1.367-0.225 0.45-0.162 0.974-0.431 1.573-0.805l0.637 1.18c-0.525 0.4-1.105 0.706-1.742 0.918s-1.28 0.318-1.929 0.318zM35.924 9.109v5.114c0.749-0.787 1.705-1.18 2.866-1.18 1.024 0 1.804 0.281 2.341 0.843 0.549 0.562 0.824 1.336 0.824 2.323v6.537h-1.536v-6.331c0-0.637-0.131-1.124-0.393-1.461-0.262-0.35-0.712-0.524-1.349-0.524-0.587 0-1.080 0.137-1.48 0.412-0.387 0.275-0.812 0.712-1.274 1.311v6.594h-1.536v-13.637h1.536z"></path>
<path  d="M1.816 9.877h1.536v5.451h6.275v-5.451h1.536v12.869h-1.536v-5.957h-6.275v5.957h-1.536v-12.869zM18.344 22.914c-0.887 0-1.686-0.212-2.398-0.637-0.699-0.425-1.249-1.005-1.648-1.742-0.4-0.749-0.599-1.592-0.599-2.529s0.2-1.779 0.599-2.529c0.412-0.762 0.968-1.355 1.667-1.78 0.712-0.437 1.511-0.656 2.398-0.656s1.68 0.212 2.379 0.637c0.712 0.425 1.268 1.018 1.667 1.78 0.4 0.749 0.599 1.592 0.599 2.529s-0.2 1.779-0.599 2.529c-0.4 0.749-0.955 1.336-1.667 1.761s-1.511 0.637-2.398 0.637zM18.363 21.528c0.937 0 1.686-0.325 2.248-0.974 0.574-0.649 0.862-1.505 0.862-2.566 0-1.074-0.287-1.936-0.862-2.585-0.562-0.649-1.311-0.974-2.248-0.974-0.612 0-1.155 0.15-1.63 0.45s-0.843 0.718-1.105 1.255c-0.262 0.537-0.393 1.155-0.393 1.854 0 1.061 0.287 1.917 0.862 2.566s1.33 0.974 2.267 0.974zM28.914 22.858c-0.887 0-1.667-0.2-2.341-0.599s-1.199-0.955-1.573-1.667c-0.362-0.724-0.543-1.561-0.543-2.51 0-0.974 0.194-1.836 0.581-2.585 0.387-0.762 0.93-1.349 1.63-1.761 0.699-0.425 1.499-0.637 2.398-0.637 0.587 0 1.155 0.119 1.705 0.356 0.549 0.225 0.93 0.506 1.143 0.843l-0.918 1.030c-0.287-0.312-0.581-0.531-0.88-0.656-0.287-0.125-0.637-0.187-1.049-0.187-0.962 0-1.723 0.331-2.285 0.993-0.549 0.649-0.824 1.536-0.824 2.66 0 1.037 0.268 1.854 0.805 2.454 0.549 0.587 1.299 0.88 2.248 0.88 0.475 0 0.93-0.075 1.367-0.225 0.45-0.162 0.974-0.431 1.573-0.805l0.637 1.18c-0.525 0.4-1.105 0.706-1.742 0.918s-1.28 0.318-1.929 0.318zM35.923 9.109v5.114c0.749-0.787 1.705-1.18 2.866-1.18 1.024 0 1.804 0.281 2.341 0.843 0.549 0.562 0.824 1.336 0.824 2.323v6.537h-1.536v-6.331c0-0.637-0.131-1.124-0.393-1.461-0.262-0.35-0.712-0.524-1.349-0.524-0.587 0-1.080 0.137-1.48 0.412-0.387 0.275-0.812 0.712-1.274 1.311v6.594h-1.536v-13.637h1.536z"></path>
</symbol>
<symbol id="icon-check" viewBox="0 0 33 32">
<path d="M31.524 8.535c-5.085 4.871-8.975 10.782-12.558 16.801-0.602 1.011-3.265 1.366-3.894 0.236-1.425-2.559-2.849-5.119-4.273-7.679-0.915-1.645 3.196-2.616 3.975-1.216 0.83 1.491 1.66 2.982 2.489 4.473 3.184-5.031 6.707-9.8 11.039-13.949 1.161-1.112 5.036-0.404 3.221 1.334z"></path>
</symbol>
<symbol id="icon-close_btn" viewBox="0 0 32 32">
<path  d="M18.932 16.026l12.46-12.461c0.811-0.811 0.811-2.121 0-2.932s-2.121-0.81-2.932 0l-12.46 12.461-12.46-12.461c-0.811-0.81-2.121-0.81-2.931 0s-0.811 2.121 0 2.932l12.46 12.461-12.46 12.46c-0.811 0.811-0.811 2.121 0 2.932 0.404 0.404 0.935 0.608 1.466 0.608s1.061-0.203 1.466-0.608l12.46-12.46 12.46 12.46c0.404 0.404 0.935 0.608 1.466 0.608s1.061-0.203 1.466-0.608c0.811-0.81 0.811-2.121 0-2.932l-12.46-12.46z"></path>
</symbol>
<symbol id="icon-radio-button" viewBox="0 0 34 32">
<path fill="#fff" style="fill: var(--color1, #fff)" d="M31.266 15.32c-0.011 8.416-6.842 15.229-15.258 15.218s-15.229-6.842-15.218-15.258c0.011-8.416 6.842-15.229 15.258-15.218s15.229 6.842 15.218 15.258z"></path>
<path fill="none" stroke="#262c20" style="stroke: var(--color2, #262c20)" stroke-linejoin="miter" stroke-linecap="butt" stroke-miterlimit="4" stroke-width="3.0476" d="M29.742 15.318c-0.010 7.574-6.158 13.706-13.732 13.696s-13.706-6.158-13.696-13.732c0.010-7.574 6.158-13.706 13.732-13.696s13.706 6.158 13.696 13.732z"></path>
<path  d="M24.777 15.238c0 5.049-4.093 9.143-9.143 9.143s-9.143-4.093-9.143-9.143c0-5.049 4.093-9.143 9.143-9.143s9.143 4.093 9.143 9.143z"></path>
</symbol>



</defs>
</svg>
