<svg width="192" height="37" viewBox="0 0 192 37" fill="none" xmlns="http://www.w3.org/2000/svg">
<g clip-path="url(#clip0_233_6029)">
<path d="M46.7894 32.8012C46.7894 32.202 46.7858 31.6028 46.7903 31.0036C46.7956 30.3024 46.7987 30.3024 47.5273 30.318C47.5546 30.3201 47.582 30.32 47.6094 30.3178C48.0119 30.2628 48.1273 30.4501 48.1198 30.833C48.0998 31.8677 48.1126 32.9029 48.1125 33.9379C48.1125 34.1013 48.126 34.2659 48.111 34.4279C48.08 34.7632 48.1873 34.9175 48.5611 34.9095C49.5188 34.8888 50.4776 34.8921 51.4355 34.9088C51.7992 34.9151 51.9034 34.7701 51.8986 34.4257C51.8831 33.3092 51.8874 32.1923 51.8976 31.0757C51.8997 30.8411 51.7733 30.5168 52.0072 30.3903C52.3173 30.2225 52.6989 30.3003 53.0468 30.3507C53.2075 30.374 53.2146 30.5422 53.2141 30.6785C53.2095 32.0945 53.2361 33.5117 53.1836 34.926C53.1566 35.6543 52.8946 35.9159 52.1633 35.9612C50.7153 36.0504 49.2631 36.0507 47.815 35.9621C47.0564 35.9158 46.8273 35.6188 46.7995 34.8437C46.775 34.1637 46.7944 33.4821 46.7944 32.8012H46.7894ZM142.178 34.7878C142.15 35.5854 141.996 35.8016 141.222 35.9482C141.034 35.9826 140.843 35.9999 140.652 35.9998C139.557 36.0047 138.462 35.999 137.368 36.0047C137.091 36.0064 136.889 35.972 136.893 35.6174C136.903 34.3104 136.903 33.0035 136.893 31.6965C136.89 31.3558 137.065 31.2944 137.355 31.2969C138.559 31.3051 139.764 31.2936 140.968 31.3051C141.438 31.31 141.924 31.3403 142.122 31.884C142.325 32.4417 142.142 33.0755 141.6 33.5562C142.103 33.8723 142.196 34.2949 142.178 34.7878ZM138.04 32.5948C138.042 32.9813 138.154 33.1279 138.552 33.1124C139.206 33.087 139.862 33.0968 140.517 33.1074C140.848 33.1124 141.017 33.0092 141.021 32.6431C141.026 32.2484 140.856 32.1051 140.482 32.1199C140.182 32.1313 139.881 32.1223 139.581 32.1215C139.253 32.1207 138.926 32.1338 138.599 32.1174C138.248 32.0994 138.038 32.1649 138.04 32.5948ZM141.129 34.579C141.13 34.136 141.012 33.9624 140.593 33.9296C140.24 33.9026 139.884 33.9247 139.529 33.9247V33.9214C139.175 33.9214 138.82 33.9321 138.466 33.919C138.141 33.9059 138.026 34.0574 138.048 34.3612C138.06 34.5233 138.054 34.6871 138.052 34.8493C138.05 35.0933 138.185 35.1809 138.411 35.1801C139.148 35.1776 139.885 35.1858 140.621 35.1744C140.999 35.1686 141.128 34.9295 141.129 34.579ZM189.01 35.9922C189.669 35.9922 190.329 36.026 190.984 35.9833C191.727 35.9348 191.951 35.6856 191.99 34.9593C192.013 34.524 191.988 34.0864 191.998 33.6501C192.005 33.3698 191.879 33.2618 191.604 33.2646C190.891 33.2718 190.178 33.278 189.465 33.2599C189.149 33.2518 189.029 33.3584 189.021 33.6771C189.013 34.0024 189.139 34.1108 189.452 34.0941C189.78 34.0766 190.111 34.1051 190.439 34.0885C190.866 34.0668 190.842 34.3475 190.839 34.6302C190.837 34.9077 190.874 35.185 190.444 35.178C189.539 35.1635 188.634 35.168 187.729 35.1783C187.428 35.1817 187.271 35.0929 187.277 34.7636C187.289 34.0272 187.288 33.2907 187.276 32.554C187.27 32.2394 187.397 32.1186 187.711 32.1223C188.616 32.1331 189.521 32.1249 190.426 32.128C190.557 32.1284 190.767 32.0991 190.782 32.2438C190.85 32.9394 191.312 32.5646 191.621 32.5588C191.939 32.5529 192.035 32.3567 191.967 32.0548C191.856 31.5618 191.611 31.3352 190.938 31.3172C189.705 31.2842 188.471 31.2828 187.236 31.3129C186.386 31.3349 186.143 31.6164 186.123 32.4928C186.106 33.2835 186.106 34.0746 186.124 34.8659C186.143 35.6947 186.377 35.9449 187.201 35.9905C187.803 36.0237 188.407 35.997 189.01 35.997V35.9922ZM156.496 35.8581C156.479 35.9065 156.463 35.954 156.445 36.0023C156.131 36.0023 155.815 35.9842 155.503 36.0072C155.171 36.0317 154.936 35.904 154.709 35.6763C154.305 35.2693 153.878 34.8869 153.457 34.4971C153.299 34.3505 153.144 34.2203 152.898 34.1966C152.138 34.1229 152.055 34.1835 152.05 34.9401C152.048 35.1031 152.053 35.2669 152.049 35.4299C152.033 36.0105 152.032 36.0105 151.447 36.0023C150.908 35.9949 150.895 35.9957 150.891 35.4593C150.882 34.2343 150.896 33.0084 150.884 31.7825C150.88 31.4467 150.973 31.2895 151.344 31.2936C152.604 31.3108 153.864 31.2797 155.123 31.31C155.906 31.3288 156.142 31.6007 156.164 32.3598C156.172 32.6317 156.172 32.9052 156.164 33.1771C156.141 33.8715 155.952 34.0819 155.255 34.1892C155.074 34.2179 154.889 34.222 154.538 34.2506C155.263 34.846 155.88 35.3521 156.496 35.8581ZM154.584 33.3736C155.028 33.3457 155.124 33.2155 155.12 32.7389C155.116 32.2689 155.021 32.1411 154.563 32.1256C153.933 32.1043 153.303 32.1133 152.672 32.1207C152.04 32.1272 152.04 32.1338 152.043 32.7586C152.045 33.3662 152.045 33.3679 152.693 33.3793C152.967 33.3842 153.241 33.3801 153.515 33.3801V33.3785C153.872 33.3785 154.229 33.3957 154.584 33.3736ZM82.5185 35.94C81.6172 36.0309 80.9265 36.1472 80.3767 35.4528C80.0911 35.0933 79.7091 34.8083 79.37 34.4906C79.2103 34.3424 79.0539 34.2179 78.8078 34.1958C78.0456 34.127 77.9715 34.1802 77.9665 34.9483C77.9657 35.1121 77.9707 35.2759 77.9657 35.4389C77.9484 36.0129 77.9476 36.0129 77.3517 36.0023C76.8257 35.9924 76.8133 35.9924 76.8092 35.4446C76.801 34.2449 76.8232 33.0444 76.7985 31.8447C76.7894 31.4107 76.9434 31.2846 77.3656 31.2919C78.5436 31.3149 79.7223 31.287 80.901 31.305C81.8328 31.319 82.0682 31.5679 82.0822 32.4687C82.0855 32.6595 82.0847 32.8503 82.0822 33.0411C82.0682 33.9001 81.8962 34.0959 81.0591 34.1982C80.9241 34.2146 80.7874 34.2121 80.4516 34.2277C80.8969 34.6019 81.2031 34.8624 81.5126 35.1187C81.8007 35.3578 82.0929 35.5928 82.5185 35.94ZM80.487 33.3744C80.9405 33.349 81.0368 33.2262 81.0377 32.7537C81.0385 32.2804 80.9414 32.1395 80.4952 32.1264C79.7832 32.1043 79.0695 32.1248 78.3567 32.1174C78.0842 32.1141 77.9451 32.2181 77.9591 32.4998C77.9683 32.6359 77.968 32.7724 77.9583 32.9085C77.9254 33.2598 78.0735 33.4055 78.4316 33.3842C78.7592 33.3638 79.0893 33.3801 79.4185 33.3793C79.775 33.3785 80.1322 33.3949 80.487 33.3744ZM107.6 33.0445C108.068 33.6089 108.537 34.1734 109.005 34.738C109.684 35.5583 109.684 35.559 110.368 34.6962C110.819 34.1284 111.268 33.5598 111.728 32.9787C111.942 33.1913 111.864 33.3894 111.867 33.5649C111.877 34.2186 111.869 34.8726 111.873 35.5265C111.874 35.6844 111.836 35.8642 112.008 35.9671C112.414 36.2101 112.971 35.9244 112.974 35.463C112.981 34.2642 112.98 33.0654 112.972 31.8666C112.971 31.686 113.056 31.4257 112.845 31.3535C112.57 31.2598 112.245 31.2048 111.986 31.4114C111.818 31.5453 111.692 31.732 111.553 31.8995C110.964 32.6053 110.377 33.312 109.791 34.0196C109.449 33.8096 109.282 33.5205 109.073 33.2745C108.577 32.6927 108.088 32.1059 107.604 31.5139C107.347 31.1994 106.994 31.2545 106.697 31.3378C106.448 31.4073 106.556 31.7139 106.554 31.917C106.545 33.1157 106.555 34.3146 106.545 35.5133C106.543 35.8309 106.6 36.0148 106.989 36.0141C107.371 36.0135 107.445 35.8434 107.44 35.5193C107.428 34.7106 107.436 33.9016 107.436 33.0928C107.49 33.0767 107.545 33.0606 107.6 33.0445ZM182.953 35.5935C183.124 35.7283 183.291 35.8868 183.488 35.9657C183.982 36.1635 184.256 35.9725 184.259 35.4429C184.266 34.2444 184.266 33.0459 184.258 31.8473C184.254 31.304 184.237 31.2997 183.708 31.2994C183.179 31.2991 183.165 31.3031 183.158 31.8468C183.148 32.6467 183.156 33.4467 183.156 34.3977C181.896 33.4196 180.782 32.5497 179.662 31.6887C179.471 31.5417 179.302 31.3553 179.043 31.3048C178.564 31.2113 178.388 31.3305 178.384 31.8153C178.376 33.041 178.393 34.267 178.374 35.4925C178.368 35.8813 178.49 36.0258 178.89 36.0112C179.44 35.991 179.475 35.9975 179.482 35.4975C179.494 34.6815 179.486 33.8653 179.486 32.8527C180.737 33.8427 181.843 34.7198 182.953 35.5935ZM123.54 33.395C124.505 34.1566 125.473 34.9139 126.43 35.6855C126.697 35.9013 126.964 36.045 127.322 36.0047C127.521 35.9824 127.624 35.9048 127.624 35.7079C127.626 34.3461 127.627 32.9843 127.626 31.6225C127.626 31.4354 127.547 31.334 127.344 31.2987C126.691 31.1853 126.529 31.3118 126.525 31.9897C126.52 32.7395 126.524 33.4893 126.524 34.2366C126.213 34.2512 126.106 34.0681 125.963 33.9581C124.944 33.1767 123.929 32.3902 122.918 31.5985C122.674 31.406 122.433 31.2661 122.102 31.2936C121.87 31.3129 121.749 31.3875 121.75 31.6311C121.752 32.9657 121.75 34.3004 121.751 35.635C121.751 35.7707 121.761 35.9029 121.91 35.9755C122.368 36.198 122.847 35.9308 122.851 35.4365C122.859 34.6314 122.853 33.8263 122.853 32.8684C123.166 33.108 123.355 33.249 123.54 33.395ZM132.136 36.0021C132.52 36.0021 132.903 36.0021 133.287 36.002C134.783 35.9992 134.95 35.8328 134.928 34.3735C134.913 33.4087 134.746 33.2309 133.772 33.2149C132.868 33.2 131.964 33.198 131.06 33.2142C130.646 33.2217 130.636 32.9777 130.646 32.6831C130.656 32.4151 130.59 32.1178 131.027 32.1235C131.849 32.1343 132.67 32.128 133.492 32.1252C133.704 32.1245 133.83 32.1691 133.888 32.421C133.992 32.8713 134.322 32.5508 134.539 32.5418C134.796 32.5313 134.902 32.3512 134.847 32.0783C134.743 31.5652 134.465 31.3339 133.754 31.31C132.905 31.2815 132.056 31.2996 131.206 31.3014C129.834 31.3044 129.578 31.5784 129.653 32.955C129.656 33.0094 129.652 33.0644 129.659 33.1183C129.73 33.718 129.922 33.9215 130.532 34.0093C130.749 34.0331 130.968 34.0418 131.187 34.0355C131.927 34.0384 132.667 34.0581 133.406 34.0287C133.846 34.0113 133.904 34.2266 133.881 34.5787C133.862 34.8769 133.935 35.1903 133.452 35.1794C132.576 35.1597 131.699 35.1735 130.822 35.1749C130.62 35.1752 130.425 35.1699 130.431 34.8914C130.441 34.4898 130.196 34.5389 129.938 34.6142C129.684 34.6884 129.395 34.6999 129.433 35.1065C129.481 35.6133 129.677 35.8985 130.25 35.95C130.874 36.0061 131.507 35.9627 132.136 35.9627L132.136 36.0021ZM104.476 31.695C104.488 31.2719 104.22 31.2856 103.936 31.3008C103.655 31.3158 103.291 31.1957 103.311 31.6963C103.323 32.0225 103.298 32.3504 103.315 32.6762C103.332 32.9863 103.222 33.1116 102.897 33.1061C101.994 33.0908 101.09 33.094 100.187 33.1051C99.9061 33.1086 99.7919 33.0085 99.8031 32.726C99.8171 32.3726 99.7988 32.0181 99.8047 31.6642C99.812 31.225 99.4908 31.2997 99.2306 31.3036C98.9799 31.3074 98.6482 31.1967 98.6492 31.6475C98.6521 32.9817 98.6512 34.316 98.6464 35.6502C98.6446 36.0994 98.9722 35.997 99.2252 35.9983C99.4824 35.9996 99.8089 36.0854 99.8052 35.6446C99.8018 35.2362 99.8155 34.8274 99.8028 34.4194C99.7943 34.1449 99.8924 34.0299 100.18 34.0335C101.111 34.045 102.041 34.0413 102.972 34.0361C103.212 34.0348 103.317 34.1314 103.312 34.3723C103.305 34.7806 103.325 35.1897 103.308 35.5975C103.289 36.0925 103.639 35.9924 103.926 36.0017C104.205 36.0106 104.486 36.0447 104.475 35.6159C104.459 34.9627 104.471 34.3089 104.471 33.6554C104.471 33.0019 104.457 32.348 104.476 31.695ZM60.2384 35.6001C60.4286 35.7492 60.5938 35.9401 60.8493 35.9955C61.3251 36.0988 61.4976 35.9787 61.501 35.4878C61.5094 34.2615 61.4919 33.0349 61.5097 31.8088C61.5153 31.4256 61.4036 31.2706 60.998 31.2924C60.4851 31.3198 60.4645 31.3032 60.4578 31.8522C60.448 32.6521 60.4552 33.4522 60.4552 34.276C60.0592 34.201 59.8851 33.9749 59.6742 33.8136C58.719 33.083 57.7713 32.3426 56.8238 31.602C56.6068 31.4324 56.4006 31.2804 56.0936 31.2929C55.8341 31.3034 55.6794 31.352 55.6804 31.6469C55.6853 32.9823 55.6823 34.3176 55.6835 35.653C55.6836 35.7906 55.7018 35.9214 55.8541 35.9863C56.308 36.1798 56.7229 35.9344 56.7278 35.4533C56.736 34.645 56.73 33.8365 56.73 32.8307C58.0097 33.8421 59.1215 34.7243 60.2384 35.6001ZM85.8267 33.4453C86.7711 34.1898 87.7139 34.9364 88.6549 35.6851C88.8925 35.874 89.125 36.041 89.4628 36.0077C89.689 35.9855 89.819 35.929 89.8184 35.6814C89.8149 34.3188 89.8161 32.9561 89.8143 31.5935C89.8187 31.5391 89.8075 31.4846 89.782 31.4362C89.7565 31.3879 89.7178 31.3477 89.6703 31.3203C89.2718 31.1079 88.7781 31.3792 88.7733 31.823C88.7646 32.6281 88.7708 33.4335 88.7708 34.2121C88.5278 34.2876 88.4401 34.1635 88.3373 34.0839C87.3212 33.2979 86.3059 32.5108 85.2915 31.7225C85.1404 31.6054 85.0004 31.4657 84.8329 31.3797C84.3333 31.1234 84.002 31.3148 83.9987 31.8616C83.9913 33.0606 83.9915 34.2597 83.9994 35.4589C84.0034 35.9943 84.0344 35.9824 84.5491 36.0104C84.9671 36.0332 85.0602 35.8554 85.0516 35.4845C85.0329 34.6714 85.0458 33.8575 85.0458 32.8676C85.3965 33.1264 85.6165 33.2797 85.8267 33.4453ZM119.452 36.0011C119.76 35.9977 120.132 36.118 120.121 35.5643C120.108 34.979 119.689 35.1906 119.418 35.1827C118.596 35.159 117.773 35.176 116.95 35.1736C116.138 35.1713 116.078 35.0859 116.155 34.2838C116.184 33.9855 116.33 33.9245 116.581 33.9271C117.047 33.9319 117.514 33.9186 117.979 33.9306C118.283 33.9385 118.423 33.8432 118.419 33.5124C118.414 33.1818 118.269 33.0899 117.968 33.0979C117.502 33.1102 117.036 33.0893 116.57 33.1042C116.241 33.1148 116.149 32.9672 116.156 32.6615C116.165 32.1715 116.178 32.1337 116.729 32.1286C117.689 32.1199 118.648 32.1216 119.608 32.1288C119.895 32.1309 120.07 32.0751 120.063 31.7271C120.058 31.4103 119.944 31.2937 119.628 31.2957C118.23 31.3046 116.832 31.3046 115.434 31.2957C115.122 31.2937 114.994 31.4049 114.996 31.7227C115.006 33.0044 115.01 34.2865 114.994 35.5681C114.989 35.9561 115.187 36.0121 115.505 36.0066C116.19 35.9946 116.875 36.0029 117.561 36.003C118.191 36.0032 118.822 36.0082 119.452 36.0011ZM74.4717 35.9971C74.7572 35.9883 75.157 36.1687 75.1782 35.6022C75.1996 35.0319 74.8083 35.1814 74.5135 35.1777C73.6639 35.167 72.8141 35.1769 71.9643 35.1732C71.1833 35.1699 71.1951 35.1618 71.2108 34.4059C71.2179 34.0635 71.3161 33.9071 71.6812 33.9233C72.1462 33.944 72.613 33.922 73.0789 33.9288C73.3464 33.9327 73.4753 33.8433 73.4719 33.5503C73.4685 33.2537 73.3953 33.0874 73.0583 33.0984C72.5928 33.1135 72.1264 33.1038 71.6605 33.0996C71.5018 33.0982 71.3243 33.1258 71.2367 32.9383C71.0463 32.5307 71.292 32.1332 71.7537 32.1289C72.713 32.12 73.6725 32.126 74.6319 32.1258C74.8857 32.1258 75.1185 32.1412 75.1212 31.76C75.1238 31.3978 74.9863 31.2901 74.6381 31.2936C73.2677 31.3072 71.8971 31.3075 70.5265 31.2945C70.1702 31.291 70.0458 31.4162 70.0497 31.7693C70.0637 33.0235 70.0635 34.2779 70.0491 35.5324C70.0451 35.8842 70.1669 36.0184 70.5248 36.0084C71.2096 35.9894 71.8952 36.0029 72.5805 36.003C73.211 36.0031 73.8419 36.0165 74.4717 35.9971ZM148.652 35.995C148.934 35.9849 149.343 36.1764 149.366 35.6082C149.39 35.0423 148.996 35.2003 148.7 35.177C148.563 35.1663 148.426 35.1751 148.289 35.1751C147.521 35.1749 146.754 35.1809 145.986 35.1725C145.413 35.1663 145.413 35.1581 145.409 34.5705C145.404 33.9414 145.404 33.9381 146.028 33.9284C146.439 33.922 146.85 33.9163 147.261 33.9299C147.574 33.9403 147.61 33.7645 147.607 33.5169C147.605 33.2672 147.557 33.0941 147.25 33.1002C146.757 33.1099 146.263 33.1023 145.77 33.0988C145.637 33.0978 145.498 33.1063 145.427 32.9513C145.237 32.5404 145.474 32.1324 145.925 32.1282C146.857 32.1196 147.789 32.1245 148.721 32.1259C148.997 32.1263 149.264 32.169 149.26 31.7348C149.257 31.348 149.075 31.2935 148.751 31.2961C147.408 31.3071 146.065 31.3096 144.722 31.2938C144.368 31.2897 144.24 31.4061 144.244 31.7607C144.258 33.0149 144.264 34.2696 144.241 35.5235C144.233 35.9486 144.426 36.0187 144.788 36.0076C145.445 35.9876 146.103 36.0019 146.761 36.002C147.392 36.0021 148.023 36.0176 148.652 35.995ZM96.638 36.003C96.9275 36.0059 97.0114 35.8633 97.0118 35.5994C97.0121 35.3517 96.975 35.1664 96.6682 35.1759C96.5039 35.181 96.3393 35.1751 96.1749 35.175C95.3801 35.1748 94.5853 35.1774 93.7906 35.174C93.0209 35.1707 93.0339 35.1643 93.0491 34.4002C93.056 34.0583 93.1514 33.9027 93.5176 33.9219C93.9549 33.9448 94.3952 33.9101 94.8326 33.9315C95.1569 33.9473 95.2622 33.8258 95.2597 33.5092C95.2571 33.1793 95.1113 33.0889 94.8083 33.0984C94.3429 33.1129 93.8766 33.1024 93.4107 33.0986C93.2782 33.0975 93.1417 33.1039 93.0731 32.9447C92.8902 32.5198 93.1203 32.1328 93.5813 32.1286C94.5405 32.1198 95.4997 32.12 96.4589 32.1292C96.7533 32.1324 96.9181 32.0697 96.905 31.7277C96.8935 31.4271 96.8086 31.2908 96.4766 31.2943C95.1064 31.3089 93.7361 31.3091 92.3657 31.2949C92.0056 31.2908 91.8901 31.4215 91.8937 31.7689C91.9069 33.023 91.9069 34.2772 91.8935 35.5314C91.8899 35.8759 91.9991 36.0193 92.3629 36.0078C93.0473 35.9863 93.733 36.0016 94.4181 36.0011C95.1581 36.0006 95.8981 35.9958 96.638 36.003ZM173.547 36.001C174.068 36.001 174.589 36.0009 175.11 36.0008C175.165 36.0008 175.22 36.0011 175.274 35.9962C176.094 35.9232 176.338 35.6875 176.353 34.8657C176.372 33.8571 176.365 32.8479 176.355 31.8391C176.35 31.3061 176.337 31.3063 175.795 31.2999C175.217 31.2932 175.207 31.2931 175.202 31.8808C175.193 32.8078 175.184 33.7353 175.205 34.6619C175.214 35.0509 175.084 35.1946 174.687 35.1817C173.948 35.1577 173.207 35.1557 172.468 35.1815C172.054 35.196 171.956 35.0215 171.964 34.6481C171.982 33.6941 171.952 32.739 171.977 31.7853C171.987 31.3721 171.818 31.2649 171.441 31.2941C171.114 31.3193 170.781 31.2319 170.799 31.7704C170.833 32.8054 170.794 33.8427 170.814 34.8785C170.83 35.6963 171.074 35.9434 171.903 35.991C172.45 36.0224 172.999 35.997 173.547 35.997V36.001ZM163.492 35.9621C163.332 36.0448 163.112 35.972 162.91 36.0047C162.522 36.067 162.269 35.9032 162.152 35.5494C161.964 34.9778 161.554 34.8656 161.005 34.9017C160.403 34.9363 159.8 34.9366 159.198 34.9025C158.843 34.8853 158.613 35.0057 158.497 35.3259C158.256 35.99 157.795 36.1529 157.155 35.94C157.078 35.75 157.214 35.6248 157.293 35.4905C158.027 34.2457 158.76 33.0002 159.505 31.762C159.911 31.0864 160.7 31.0782 161.11 31.7489C161.892 33.0288 162.657 34.3186 163.429 35.6035C163.484 35.6952 163.558 35.782 163.492 35.9621ZM161.321 34.0451C160.915 33.4121 160.703 32.7823 160.204 32.2517C159.922 32.7676 159.675 33.2205 159.429 33.6733C159.38 33.7658 159.34 33.8625 159.253 34.0451H161.321ZM65.8014 31.3008C64.9814 31.3008 64.1613 31.3052 63.3414 31.2984C63.0493 31.296 62.9746 31.4458 62.9731 31.7053C62.9717 31.9547 63.0148 32.1297 63.3186 32.1258C63.7831 32.1196 64.2489 32.1448 64.7122 32.1203C65.1028 32.0997 65.2435 32.24 65.2338 32.6335C65.2117 33.5303 65.2234 34.4281 65.228 35.3254C65.2313 35.9801 65.4789 36.1561 66.1345 35.9976C66.2894 35.9601 66.3737 35.8818 66.3796 35.7284C66.3869 35.5384 66.3859 35.348 66.3861 35.1578C66.387 34.2876 66.3948 33.4173 66.3836 32.5473C66.3796 32.2326 66.5004 32.11 66.8175 32.1226C67.2542 32.1399 67.6922 32.1192 68.1293 32.1292C68.4066 32.1355 68.591 32.1019 68.5918 31.7448C68.5925 31.3738 68.4339 31.2864 68.0973 31.2938C67.3323 31.3108 66.5667 31.2992 65.8014 31.2992L65.8014 31.3008ZM164.374 31.3064C164.091 31.3142 163.69 31.1311 163.667 31.6972C163.644 32.2665 164.035 32.1097 164.329 32.1226C164.656 32.1441 164.984 32.1434 165.312 32.1205C165.737 32.0813 165.889 32.235 165.877 32.6657C165.852 33.6166 165.868 34.5686 165.87 35.5201C165.87 35.6794 165.827 35.8969 166.002 35.9573C166.289 36.0533 166.6 36.0563 166.889 35.9657C167.098 35.8996 167.029 35.6382 167.03 35.4549C167.034 34.5034 167.042 33.5516 167.027 32.6003C167.021 32.2537 167.137 32.1047 167.497 32.1216C167.934 32.142 168.372 32.1242 168.809 32.1265C169.069 32.1278 169.287 32.1263 169.289 31.7528C169.291 31.3848 169.142 31.287 168.8 31.2945C168.036 31.3112 167.27 31.2997 166.505 31.2998C165.794 31.3 165.084 31.2869 164.374 31.3064Z" fill="white"/>
<path d="M187.48 0.309733C185.032 0.313827 183.11 2.24071 183.1 4.67776C183.089 6.98871 185.061 9.0892 187.506 9.01631C189.961 9.07199 191.903 6.97806 191.888 4.65319C191.888 4.07943 191.773 3.51145 191.551 2.98199C191.329 2.45253 191.003 1.97207 190.594 1.5683C190.184 1.16453 189.698 0.845449 189.163 0.629441C188.629 0.413434 188.057 0.304776 187.48 0.309733ZM187.503 8.13763C187.042 8.13901 186.587 8.04918 186.162 7.87339C185.737 7.6976 185.352 7.43937 185.028 7.11377C184.705 6.78818 184.45 6.40174 184.278 5.97702C184.106 5.5523 184.021 5.09782 184.028 4.64009C184.064 2.74679 185.636 1.18268 187.494 1.19087C189.454 1.19988 190.968 2.74024 190.947 4.70397C190.927 6.64149 189.431 8.1319 187.503 8.13763ZM188.313 4.9914C188.619 4.8309 188.915 4.69496 189.099 4.3977C189.627 3.53867 189.159 2.52405 188.101 2.39057C187.374 2.29885 186.628 2.35699 185.89 2.34061C185.543 2.33324 185.489 2.54698 185.49 2.81967C185.491 3.60909 185.479 4.39933 185.493 5.18876C185.502 5.78247 185.433 6.37945 185.541 6.96496C186.517 7.06159 186.517 7.06159 186.52 6.13459C186.521 5.97081 186.514 5.80703 186.521 5.64407C186.544 5.11506 186.782 4.98977 187.246 5.28539C187.655 5.5458 187.884 5.97327 188.05 6.39582C188.256 6.91746 188.574 7.12219 189.113 7.01983C189.236 6.99608 189.379 7.06487 189.514 6.90027C189.161 6.23611 188.759 5.59818 188.313 4.9914ZM187.898 4.2462C187.536 4.37968 187.153 4.35675 186.776 4.35348C186.742 4.35539 186.708 4.35034 186.676 4.33863C186.643 4.32693 186.614 4.30882 186.589 4.28542C186.565 4.26202 186.545 4.23383 186.532 4.20258C186.518 4.17133 186.511 4.13768 186.512 4.10371C186.485 3.86381 186.487 3.62171 186.517 3.38226C186.593 2.97199 186.948 3.18736 187.219 3.11202C187.447 3.14276 187.673 3.18596 187.897 3.24141C188.132 3.31101 188.22 3.5141 188.228 3.74339C188.238 3.85196 188.211 3.96074 188.151 4.05203C188.091 4.14332 188.002 4.21175 187.898 4.2462Z" fill="white"/>
<path d="M52.3731 2.40395C53.8909 2.40395 55.3683 2.41336 56.8454 2.39773C57.2446 2.3935 57.3469 2.64243 57.4565 2.93427C57.9072 4.13536 58.3615 5.33515 58.8192 6.53365C59.9045 9.39139 60.9904 12.2489 62.0769 15.1062C62.1441 15.283 62.1882 15.4738 62.3576 15.6191C62.5772 15.4835 62.6233 15.2429 62.7098 15.0296C64.319 11.0582 65.927 7.08642 67.5339 3.11415C67.8586 2.30999 67.8289 2.40705 68.6026 2.40263C69.1512 2.3995 69.6997 2.39741 70.2483 2.40129C71.2971 2.4087 71.1032 2.35543 71.4703 3.25494C72.4603 5.68099 73.4284 8.11587 74.4061 10.5469C75.0274 12.0918 75.65 13.6362 76.2739 15.1801C76.3342 15.3293 76.4131 15.471 76.5022 15.6552C76.7991 15.401 76.8447 15.0694 76.9528 14.7798C78.394 10.9196 79.8199 7.05368 81.2705 3.19697C81.5645 2.41525 81.3513 2.39281 82.4343 2.40015C83.312 2.4061 84.1897 2.39691 85.0673 2.40439C85.3052 2.40642 85.5601 2.33519 85.774 2.50872C85.8458 2.74694 85.7086 2.93673 85.6293 3.13323C83.199 9.15782 80.7694 15.1827 78.3406 21.2079C78.1618 21.6533 77.9377 21.8571 77.44 21.8248C76.8106 21.7767 76.1785 21.778 75.5493 21.8288C74.9444 21.8849 74.6783 21.6285 74.4665 21.0981C73.4344 18.5128 72.3674 15.9412 71.3119 13.3651C70.7014 11.875 70.0887 10.3858 69.4739 8.89742C69.4046 8.73081 69.3941 8.51244 69.1016 8.41198C68.9135 8.84424 68.7172 9.28012 68.5328 9.7209C66.9422 13.5236 65.3443 17.3234 63.7757 21.1351C63.568 21.6396 63.3218 21.8745 62.7511 21.828C62.0943 21.7794 61.4348 21.7789 60.778 21.8264C60.3083 21.857 60.0964 21.6715 59.9313 21.2543C59.2584 19.554 58.5528 17.8666 57.8597 16.1742C56.1012 11.8803 54.3436 7.58606 52.5869 3.29144C52.4857 3.04359 52.3282 2.80723 52.3731 2.40395Z" fill="#E87B14"/>
<path d="M157.812 9.14941C157.812 9.41104 157.812 9.67267 157.812 9.93431C157.812 13.5368 157.811 17.1394 157.81 20.7419C157.81 20.9329 157.8 21.1246 157.811 21.3149C157.831 21.6479 157.714 21.8211 157.348 21.8169C156.361 21.8058 155.373 21.8094 154.385 21.8164C154.069 21.8186 153.939 21.6719 153.951 21.3695C153.957 21.2333 153.951 21.0966 153.951 20.9602C153.951 15.0651 153.952 9.17008 153.953 3.27502C153.958 3.16599 153.958 3.05671 153.951 2.94774C153.898 2.50355 154.125 2.38788 154.531 2.39535C155.463 2.41256 156.396 2.40887 157.329 2.39737C157.478 2.38786 157.627 2.41549 157.762 2.47774C157.898 2.53999 158.015 2.6349 158.105 2.75387C159.875 4.90833 161.652 7.05677 163.437 9.19916C164.587 10.5887 165.733 11.9825 166.887 13.3687C167.311 13.8773 167.348 13.8744 167.796 13.3308C170.146 10.4853 172.493 7.63831 174.838 4.78965C175.395 4.11461 175.962 3.4475 176.506 2.76318C176.594 2.64224 176.711 2.54529 176.846 2.48135C176.981 2.41741 177.13 2.38856 177.28 2.39748C178.24 2.41085 179.2 2.41047 180.16 2.39636C180.535 2.3912 180.733 2.51773 180.699 2.91478C180.687 3.05022 180.698 3.18753 180.698 3.32399C180.698 9.19175 180.698 15.0595 180.697 20.9273C180.696 21.8373 180.807 21.8176 179.808 21.8172C178.82 21.8167 177.833 21.8227 176.845 21.8143C176.222 21.8091 176.211 21.7996 176.21 21.1718C176.207 17.8422 176.207 14.5126 176.211 11.183C176.211 10.3987 176.211 9.6145 176.211 8.76709C175.867 8.84797 175.763 9.08609 175.622 9.26459C173.079 12.4807 170.539 15.6982 168 18.9169C167.819 19.146 167.685 19.4557 167.338 19.4845C166.924 19.5189 166.584 19.4857 166.261 19.0887C163.987 16.2893 161.676 13.5203 159.373 10.7442C158.911 10.1874 158.436 9.64156 157.967 9.09069C157.915 9.11027 157.864 9.12984 157.812 9.14941Z" fill="#E87B14"/>
<path d="M102.076 2.40754C104.215 2.40754 106.355 2.40337 108.495 2.41003C109.153 2.40232 109.81 2.46091 110.456 2.5849C112.12 2.92789 112.933 3.74856 113.142 5.4454C113.289 6.63805 113.266 7.84213 113.27 9.04307C113.271 9.38267 113.146 9.53498 112.79 9.53738C111.474 9.5463 110.157 9.56598 108.841 9.59643C108.481 9.60453 108.363 9.45361 108.369 9.1095C108.383 8.29103 108.379 7.47205 108.37 6.65343C108.362 6.0332 108.353 6.01715 107.721 6.01533C105.006 6.00751 102.29 6.00991 99.5739 6.00878C98.4767 6.00832 97.3793 6.00256 96.2821 6.01048C95.6812 6.01481 95.6581 6.02536 95.657 6.58405C95.6504 10.2137 95.6512 13.8434 95.6595 17.4731C95.6609 18.0399 95.6865 18.0586 96.2861 18.0595C100.099 18.0651 103.912 18.0648 107.725 18.0585C108.354 18.0576 108.364 18.0415 108.37 17.4174C108.38 16.4623 108.366 15.507 108.375 14.5519C108.381 13.9546 108.392 13.9393 108.958 13.9343C110.192 13.9233 111.427 13.9227 112.661 13.9324C113.237 13.9374 113.265 13.9621 113.264 14.5434C113.262 15.798 113.305 17.0535 113.191 18.3067C113.145 18.8511 113.017 19.3855 112.809 19.8915C112.486 20.6696 111.897 21.1738 111.105 21.4424C110.455 21.6651 109.774 21.7824 109.087 21.7898C104.369 21.8346 99.6506 21.8351 94.9326 21.7913C94.246 21.7779 93.5653 21.6611 92.9139 21.445C92.0053 21.1562 91.4328 20.5415 91.1428 19.6528C90.9078 18.8952 90.7936 18.1056 90.8044 17.3128C90.7962 13.8196 90.7971 10.3263 90.8068 6.83312C90.8057 6.15012 90.8909 5.46969 91.0604 4.80782C91.3564 3.67294 92.0732 2.96051 93.2108 2.67051C93.8753 2.49925 94.5588 2.4124 95.2452 2.41202C97.522 2.41233 99.7989 2.41236 102.076 2.41213L102.076 2.40754Z" fill="#E87B14"/>
<path d="M0.00403147 2.43598C1.40173 2.43598 2.76945 2.44054 4.13712 2.43333C4.57519 2.43102 4.66047 2.77179 4.78999 3.06244C5.41205 4.45836 6.02355 5.85894 6.6427 7.25616C8.48915 11.423 10.3365 15.5894 12.1848 19.7554C12.2612 19.9277 12.2935 20.1262 12.4837 20.2363C12.7507 20.0908 12.7774 19.794 12.8826 19.5584C14.9854 14.8483 17.0825 10.1357 19.1738 5.42058C19.5507 4.57277 19.9341 3.72777 20.3023 2.87624C20.4218 2.59983 20.5769 2.42792 20.9079 2.4307C22.0561 2.44034 23.2045 2.43442 24.3281 2.43442C24.4918 2.79664 24.2835 3.02085 24.1779 3.25692C21.4367 9.3854 18.6925 15.5125 15.9452 21.6383C14.7069 24.403 13.4803 27.173 12.2314 29.9329C11.7966 30.9056 11.2528 31.8263 10.6103 32.6777C9.3062 34.3918 7.52139 35.2345 5.43216 35.5296C4.17926 35.7066 2.91689 35.6798 1.65595 35.692C1.27499 35.6957 1.10452 35.5735 1.11311 35.1767C1.13023 34.3859 1.13261 33.5942 1.11298 32.8036C1.10191 32.3576 1.30998 32.2499 1.71687 32.2609C2.42909 32.2802 3.14255 32.2605 3.85537 32.249C4.51456 32.2363 5.16775 32.1215 5.79146 31.9089C6.54501 31.6556 7.11797 31.1638 7.58094 30.5288C8.60417 29.1254 9.24124 27.5228 9.98114 25.9722C10.1556 25.6065 9.95472 25.3395 9.82775 25.0503C8.54426 22.1267 7.25743 19.2045 5.96726 16.2838C4.05188 11.9388 2.13692 7.59356 0.222379 3.24816C0.125426 3.02791 -0.0267161 2.82209 0.00403147 2.43598Z" fill="#E87B14"/>
<path d="M38.5325 21.8167C35.3507 21.8162 32.1689 21.816 28.987 21.8161C28.795 21.8161 28.6026 21.8056 28.4112 21.8153C28.0832 21.8318 27.9771 21.6582 27.9866 21.3631C27.9927 21.1723 27.9844 20.9811 27.9844 20.7901C27.9843 15.005 27.9845 9.21989 27.9851 3.43477C27.9855 2.27587 27.9234 2.40395 28.9863 2.40334C35.3225 2.39975 41.6587 2.39902 47.9949 2.40116C48.1321 2.40116 48.2699 2.41042 48.4062 2.40035C48.7812 2.37268 48.9585 2.51255 48.9492 2.91394C48.9303 3.73215 48.9304 4.55071 48.9494 5.36964C48.9582 5.77366 48.7723 5.90354 48.4 5.87341C48.2365 5.86018 48.0711 5.87123 47.9065 5.87122C43.1886 5.87119 38.4707 5.87115 33.7529 5.87111C33.5883 5.87111 33.4234 5.87818 33.2592 5.86992C32.9441 5.85406 32.8217 6.00118 32.8241 6.30927C32.8327 7.40072 32.8336 8.49221 32.827 9.58375C32.8251 9.88905 32.9426 10.0415 33.259 10.0298C33.4507 10.0227 33.643 10.0315 33.835 10.0315C36.3585 10.0314 38.882 10.0317 41.4055 10.0324C42.2118 10.0336 42.2151 10.0417 42.2196 10.8634C42.2235 11.5729 42.2138 12.2824 42.2204 12.9918C42.2232 13.2963 42.0986 13.4485 41.7841 13.4379C41.5924 13.4314 41.4002 13.4392 41.2082 13.4393C38.6572 13.4397 36.1063 13.4404 33.5554 13.4414C32.8389 13.4424 32.8311 13.4495 32.8271 14.1676C32.8209 15.2863 32.8199 16.4052 32.83 17.524C32.8356 18.1367 32.8478 18.1388 33.4862 18.1538C33.7603 18.1603 34.0348 18.156 34.3091 18.156C38.9994 18.1565 43.6898 18.1573 48.3802 18.1584C49.1569 18.1589 49.1615 18.1663 49.1688 18.9126C49.1759 19.6494 49.179 20.3862 49.1714 21.1229C49.1645 21.7976 49.1573 21.8006 48.4894 21.8135C48.1055 21.8209 47.7214 21.8171 47.3374 21.8171C44.4024 21.8173 41.4675 21.8171 38.5325 21.8167Z" fill="#E87B14"/>
<path d="M142.243 2.32422H124.11C123.166 2.32415 122.262 2.69682 121.595 3.36025C120.928 4.02368 120.553 4.92353 120.553 5.86187V18.2093C120.553 18.674 120.645 19.1341 120.823 19.5634C121.002 19.9927 121.264 20.3828 121.594 20.7114C121.925 21.04 122.317 21.3006 122.748 21.4784C123.18 21.6562 123.642 21.7478 124.11 21.7478H142.243C142.71 21.7478 143.172 21.6564 143.604 21.4786C144.035 21.3008 144.427 21.0401 144.758 20.7115C145.088 20.3829 145.35 19.9928 145.529 19.5635C145.707 19.1341 145.799 18.674 145.799 18.2093V5.86187C145.799 5.39724 145.707 4.93715 145.529 4.50789C145.35 4.07863 145.088 3.68861 144.757 3.3601C144.427 3.03158 144.035 2.77102 143.604 2.59328C143.172 2.41554 142.71 2.32412 142.243 2.32422ZM140.87 17.9972H125.483V6.07397H140.87V17.9972Z" fill="white"/>
<path d="M145.8 7.97773C144.878 5.68971 143.198 3.72435 141.032 2.32403C138.824 0.897495 136.11 0.0556641 133.177 0.0556641C130.243 0.0556641 127.529 0.897495 125.322 2.32402C123.154 3.72434 121.475 5.68971 120.553 7.97772C119.501 10.5818 119.501 13.4898 120.553 16.0939C121.475 18.3819 123.154 20.3464 125.322 21.7476C127.529 23.1741 130.243 24.0151 133.177 24.0151C136.11 24.0151 138.824 23.1741 141.032 21.7476C143.198 20.3464 144.878 18.3819 145.8 16.0939C146.852 13.4898 146.852 10.5818 145.8 7.97773ZM133.177 20.9974C127.453 20.9974 122.797 16.9775 122.797 12.0354C122.797 7.09413 127.453 3.07332 133.177 3.07332C138.899 3.07332 143.556 7.09413 143.556 12.0354C143.556 16.9775 138.899 20.9974 133.177 20.9974Z" fill="#E87B14"/>
</g>
<defs>
<clipPath id="clip0_233_6029">
<rect width="192" height="36" fill="white" transform="translate(0 0.0556641)"/>
</clipPath>
</defs>
</svg>
